<svg id="Layer_1" xmlns="http://www.w3.org/2000/svg" viewBox="0 0 388 258"><style>.st0{fill:#131f6b}</style><path class="st0" d="M127.1 167.8c-1.4 0-2.7 1.9-2.5 4.4h5c0-2.8-1-4.4-2.5-4.4zM144 167.8c-1.4 0-2.7 1.9-2.5 4.4h5c-.1-2.8-1-4.4-2.5-4.4zM106.2 169.1c-.7 0-2 .1-2.6.1v6.9c0 2.6.9 3.2 3.2 3.2 3.9 0 4.9-2.5 4.9-4.9 0-2.1-.9-5.3-5.5-5.3zM206.6 167.8c-1.4 0-2.7 1.9-2.5 4.4h5c0-2.8-.9-4.4-2.5-4.4zM220.2 199.9c-.9 0-1.6.3-2.2.9s-.9 1.3-.9 2.2.3 1.6.8 2.2c.5.6 1.3.9 2.2.9.9 0 1.7-.3 2.3-.8.6-.5.9-1.3.9-2.1s-.3-1.6-.9-2.3c-.5-.7-1.2-1-2.2-1zM186.8 199.8c-1.4 0-2.4.6-3.1 1.9-.7 1.3-1 3-1 5.1 0 2.1.3 3.8 1 5.1.7 1.3 1.7 1.9 3.1 1.9 1.4 0 2.4-.6 3.1-1.9.7-1.3 1-3 1-5.1 0-2.1-.3-3.8-1-5.1-.6-1.3-1.7-1.9-3.1-1.9zM206.3 111.3c.9-.4 1.4-1.3 1.4-2.7 0-1.4-.4-2.3-1.3-2.8-.9-.4-2.3-.7-4.4-.7h-3.4v6.8h3.3c2 0 3.5-.2 4.4-.6zM110.7 164.1c0-2-1-4.3-5.2-4.3-.7 0-1.3 0-1.9.1v7.8c.8 0 2 .1 2.7.1 3.5 0 4.4-1.9 4.4-3.7zM274 113.3c.9-.8 1.3-2 1.3-3.7 0-1.7-.4-2.8-1.3-3.5-.9-.6-2.5-.9-4.7-.9H264v9.3h5.1c2.4 0 4.1-.4 4.9-1.2zM208 123.9c1-.5 1.5-1.5 1.5-2.9s-.5-2.4-1.6-2.9-2.8-.7-5.1-.7h-4.1v7.2h4.8c2 0 3.5-.2 4.5-.7zM96.8 121.9c1.7-1.6 2.6-4 2.6-7 0-3.1-.9-5.4-2.6-7.1-1.7-1.7-4.4-2.5-7.9-2.5H85v19h4.4c3.3.1 5.7-.8 7.4-2.4zM146.8 121.9c1.7-1.6 2.6-4 2.6-7 0-3.1-.9-5.4-2.6-7.1-1.7-1.7-4.4-2.5-7.9-2.5H135v19h4.4c3.3.1 5.7-.8 7.4-2.4z"/><path class="st0" d="M193.9.1C86.8.1 0 57.9 0 129.3s86.8 129.2 193.9 129.2 193.9-57.8 193.9-129.2S301 .1 193.9.1zm63.2 99.1H269c4.9 0 8.3.8 10.4 2.5 2.1 1.6 3.1 4.3 3.1 7.9 0 5-2 8.3-6 9.7l7.9 11.2h-8.6l-6.9-10H264v10h-7V99.2zm-16.4 23.3c1.1-1.4 1.7-3.4 1.7-5.9V99.2h7v17.5c0 4.5-1.3 8-3.8 10.5-2.5 2.4-5.7 3.6-9.6 3.6-3.9 0-7.1-1.2-9.6-3.7-2.5-2.4-3.8-5.9-3.8-10.4V99.2h7v17.3c0 2.5.6 4.5 1.7 5.9 1.2 1.4 2.7 2.2 4.7 2.2 1.9 0 3.5-.7 4.7-2.1zm-8-46.6l-21.3 6-9.7-26.9c1.4-.2 2.9-.4 4.3-1 1.2-.5 2.3-1.1 3.3-1.7.7-.4 1.5-.9 2.1-1.2 2.1-.9 4.6-1.1 7.3-1.4 2.1-.2 4.4-.4 6.6-1 .6-.2 1.2-.4 1.7-.6l5.7 27.8zm-8.2-40.5l1.4 6.8c-2 1.2-4.6 1.4-7.6 1.7-3 .3-6.2.5-9.1 1.9-1 .4-1.9 1-2.7 1.5-.9.5-1.7 1-2.5 1.3-1.2.5-2.7.7-4.2.8l-2.3-6.3 27-7.7zm-20.6 63.8c2.1 0 3.9.3 5.5.8 1.5.5 2.7 1.2 3.5 2.1 1.4 1.6 2.1 3.4 2.1 5.5 0 2.4-.8 4.3-2.4 5.5-.5.4-.9.7-1.1.8-.2.1-.6.3-1.1.5 1.9.4 3.5 1.3 4.6 2.6 1.1 1.3 1.7 3 1.7 4.9 0 2.2-.7 4.1-2.2 5.8-1.7 1.9-4.7 2.9-9 2.9h-13.7V99.2h12.1zm-38.6-70.6l26.7 8.6-2.6 6.4c-2.3-.1-4.7-1.4-7.3-2.8-2.7-1.5-5.4-3-8.6-3.5-1.1-.2-2.1-.2-3.1-.3-1 0-1.9-.1-2.8-.3-1.3-.3-2.6-.9-3.9-1.6l1.6-6.5zm-3 12.4c1.3.6 2.6 1.2 4.1 1.5 1.3.3 2.5.3 3.7.4.9 0 1.7.1 2.4.2 2.2.4 4.5 1.6 6.8 2.8 1.9 1 3.9 2.1 6 2.8.6.2 1.2.3 1.8.5l-10.6 26.4-21-6.8 6.8-27.8zm14.6 78.4c-.8-.6-2.3-1.1-4.6-1.7-3.6-.9-6.3-2-8-3.4s-2.5-3.6-2.5-6.5c0-3 1.1-5.3 3.2-6.9 2.1-1.6 4.8-2.4 8-2.4 2.1 0 4.2.4 6.3 1.1 2.1.7 3.9 1.7 5.5 3l-3.5 5.1c-2.7-2.1-5.5-3.1-8.4-3.1-1.2 0-2.1.3-2.8.8-.7.6-1 1.3-1 2.2 0 .9.4 1.6 1.2 2.2.8.5 2.7 1.2 5.7 1.9s5.3 1.8 6.9 3.3c1.6 1.5 2.5 3.6 2.5 6.4s-1.1 5.1-3.2 6.8c-2.1 1.7-4.9 2.6-8.3 2.6-5 0-9.4-1.8-13.4-5.5l4.2-5.1c3.4 3 6.5 4.4 9.4 4.4 1.3 0 2.3-.3 3-.8.7-.6 1.1-1.3 1.1-2.2s-.5-1.6-1.3-2.2zm-48.8-20.2h11.1c5.6 0 9.9 1.4 12.8 4.1 3 2.7 4.5 6.5 4.5 11.4s-1.5 8.7-4.4 11.5c-2.9 2.8-7.3 4.3-13.3 4.3h-10.7V99.2zm-15.2 0h7v31.3h-7V99.2zm-34.8 0h11.1c5.6 0 9.9 1.4 12.8 4.1 3 2.7 4.5 6.5 4.5 11.4s-1.5 8.7-4.4 11.5c-2.9 2.8-7.3 4.3-13.3 4.3H78.1V99.2zm30 81.7H94.5v-1.4c3.4 0 4.3-.9 4.3-3v-13.1c0-2.7-.4-3.1-3.1-3.1h-.9V159c.9 0 2.6-.2 4.4-.3 2.1-.1 4.2-.2 5.7-.2 4.4 0 7.8.6 9.7 2.5.9.9 1.3 2.1 1.3 3.2 0 2.1-1.4 3.5-4.3 4.1v.1c3.4.7 5.6 3.1 5.6 5.9 0 3.5-3.3 6.6-9.1 6.6zm26.4-7.4h-9.7c.3 2.9 2.3 5.1 4.3 5.1 1.3 0 2.6-.7 4.3-2.5l.8.7c-2 2.8-4.8 4.5-7.5 4.5-3.8 0-6.4-3-6.4-7.2 0-4.6 3.1-7.9 7.5-7.9 1.9 0 3.3.6 4.4 1.7 2.1 2.1 1.1 4 2.3 4.7v.9zm16.8 0h-9.7c.3 2.9 2.3 5.1 4.3 5.1 1.3 0 2.6-.7 4.3-2.5l.8.7c-2 2.8-4.8 4.5-7.5 4.5-3.8 0-6.4-3-6.4-7.2 0-4.6 3.1-7.9 7.5-7.9 1.9 0 3.3.6 4.4 1.7 2.1 2.1 1.1 4 2.3 4.7v.9zm2.8-4.3l-.9-.4v-.9l5.8-2.2h.7v3.9h.1c1.3-2.5 1.9-3.6 3.1-3.6.2 0 .5 0 .7.1l2.8 1c-.4 1.5-1 2.7-1.7 3.7-1.1-.4-2.4-.9-2.8-.9-.7 0-1.3.5-2.1 1.6v5.7c0 1.7.5 2.4 2.4 2.4h.9v1.1h-9.8v-1.1h.2c1.4 0 2-.6 2-2.5v-5.7c-.1-1.4-.3-1.8-1.4-2.2zm20.1 48.3h-14.9V214l6.2-6.3c1.2-1.3 2.1-2.3 2.7-3 .5-.8.8-1.5.8-2.2 0-.7-.2-1.3-.7-1.8-.5-.5-1.1-.7-1.8-.7-1.3 0-2.6.9-3.8 2.8l-3.8-2.2c1-1.5 2.1-2.7 3.2-3.5 1.2-.8 2.7-1.2 4.5-1.2s3.4.6 4.8 1.7c1.4 1.2 2.1 2.7 2.1 4.7 0 1.1-.3 2.1-.8 3.1-.6 1-1.6 2.3-3.1 3.8l-3.8 4h8.3v4.3zm19.2-2.8c-1.4 2-3.6 3-6.5 3s-5.1-1-6.5-3c-1.4-2-2.2-4.6-2.2-7.9s.7-6 2.2-7.9c1.4-2 3.6-3 6.5-3s5.1 1 6.5 3c1.4 2 2.2 4.6 2.2 7.9s-.8 6-2.2 7.9zm3.7-50.8h-1.3c-.1-2.3-.6-3-2.2-3h-6.8v7.9h4.9c2.5 0 3.1-.6 3.1-2.6h1.4v7h-1.4c0-1.7-.6-2.5-2.4-2.5h-5.5v5.7c0 2.5.5 3.1 2.4 3.1h.7v1.4h-10.5v-1.4h.6c1.5 0 2.1-.5 2.1-2v-14.2c0-2.3-.6-2.9-2.2-2.9h-.5V159h17.8v4.9zm10.2 53.6h-4.5v-17.1h-4v-4h8.5v21.1zm-1.1-36.3c-3.8 0-6.4-3-6.4-7.2 0-4.6 3.1-7.9 7.5-7.9 1.9 0 3.3.6 4.4 1.7 2.1 2.1 1.1 4 2.3 4.7v1h-9.7c.3 2.9 2.3 5.1 4.3 5.1 1.3 0 2.6-.7 4.3-2.5l.8.7c-2 2.8-4.8 4.4-7.5 4.4zm21.6 30.5c-.5 1.5-1.1 2.6-1.9 3.5-1.6 1.7-3.6 2.5-6 2.5-1 0-1.9-.1-2.8-.4-.9-.3-1.6-.6-2.1-.9-.5-.3-1-.7-1.6-1.1l2.4-3.3c.1.1.3.3.6.5.2.2.7.4 1.3.8.7.3 1.3.5 1.9.5 1.3 0 2.3-.4 3-1.3.7-.9 1.2-2.1 1.3-3.6-1.3.9-2.7 1.3-4.2 1.3-2 0-3.6-.6-4.9-1.9-1.3-1.3-2-3-2-5.1 0-2.1.7-3.8 2.1-5.1 1.4-1.3 3.2-1.9 5.4-1.9 1.5 0 2.8.3 3.9.9 1.1.6 2 1.4 2.6 2.4 1.2 2 1.8 4.5 1.8 7.5-.1 1.6-.4 3.3-.8 4.7zm-11.2-41.1c0-2.7 2.2-4.5 5.5-4.5 1.3 0 2.5.2 3.9.7l.1 3.8H225c-.6-1.9-1.8-3-3.3-3-.9 0-1.6.6-1.6 1.3 0 2.9 6.9 3 6.9 7.8 0 2.6-1.9 4.4-4.6 4.4-2.4 0-3.2-.5-3.7-.5-.2 0-.4.1-.7.5h-1l-.4-4.5h1.1c.6 2 2.1 3 3.7 3 1 0 1.8-.7 1.8-1.6 0-2.3-6.6-3.2-6.6-7.4zm18.4 10.6c-2.4 0-4-1.3-4-4.4v-8.4h-1.9v-.9c2.1-.9 4.5-3.4 5.1-5.4h1v4.4h4.6l-.5 1.9h-4.1v8.5c0 1.3.6 1.9 1.6 1.9.8 0 1.7-.5 2.7-1.8l.5 1c-1 1.9-3.1 3.2-5 3.2zm14.7-.3h-8.8v-1.1h.4c1.4 0 2-.6 2-2.5v-6.8c0-.9-.2-1.2-1.2-1.5l-1.2-.4v-.8l6-2h.6v11.8c0 1.4.6 2.2 2.1 2.2v1.1zm-7.2-20.8c0-1.3 1.3-2.4 2.8-2.4 1.6 0 2.8 1.1 2.8 2.4 0 1.4-1.3 2.4-2.8 2.4-1.6 0-2.8-1-2.8-2.4zm25.6 7.5c-1.8.2-2.3.6-3 2.1l-5 11.4H258l-5.2-11.3c-.7-1.4-1.2-2-2.7-2.2v-1.1h8.9v1.1h-1.2c-.7 0-1.1.7-.5 2l3.1 7 2.7-6.2c.8-1.8.4-2.5-2.1-2.8v-1.1h7v1.1zm11.3 13.6c-1.3 0-2.3-.8-2.5-2.2-1.4 1.4-2.4 2.2-4.3 2.2-2.5 0-4.1-1.4-4.1-3.7 0-1.1.5-2.2 1.1-2.8 1.7-1.7 4.5-1.3 7.2-3.6v-1.3c0-1.4-.9-2.4-2.2-2.4-1.2 0-2.1.9-1.8 2.7l-3.9 1.4c-.3-1.4-.2-2.5.7-3.4 1.2-1.2 4.1-2.1 5.8-2.1 1.7 0 5.7 1 5.7 4.3v6.6c0 1.2.2 1.6.8 1.6.3 0 .5-.1.9-.4l.5.8c-1 1.4-2.7 2.3-3.9 2.3zm13.6-.3h-8.7v-1.1h.4c1.5 0 2-.7 2-2.5v-14.5c0-1.5-.1-1.8-.9-2.1l-1.5-.6v-1l6.1-1.8h.6v19.9c0 1.7.5 2.5 2.1 2.5v1.2zm19-36.1H75.7v-1.3H312v1.3zm-9.3-26.6v12.4h-7v-12.4l-10.8-18.9h7.6l6.8 11.6 6.8-11.6h7.6l-11 18.9z"/><path class="st0" d="M272.8 176.8c0 1.5.7 2.4 1.8 2.4.6 0 1.3-.5 2.4-1.5v-5c-1.8 1.5-4.2 1.3-4.2 4.1z"/></svg>