<svg version="1.1" id="Layer_1" xmlns="http://www.w3.org/2000/svg" x="0" y="0" viewBox="0 0 133.38 88.86" xml:space="preserve"><style>.st1{fill:#0f206c}</style><ellipse cx="66.69" cy="44.25" rx="64" ry="40.48" fill="#fff"/><path class="st1" d="M43.62 57.68c-.5 0-.94.64-.86 1.5h1.72c-.01-.93-.34-1.5-.86-1.5zM49.42 57.68c-.5 0-.94.64-.86 1.5h1.72c-.02-.93-.34-1.5-.86-1.5zM36.42 58.15c-.23 0-.7.02-.88.04v2.36c0 .88.33 1.09 1.1 1.09 1.35 0 1.69-.87 1.69-1.68 0-.73-.34-1.81-1.91-1.81zM64.16 68.7c-.48 0-.84.22-1.07.66s-.34 1.03-.34 1.75.11 1.31.34 1.75c.23.44.58.66 1.07.66.48 0 .84-.22 1.07-.66s.34-1.03.34-1.75-.11-1.31-.34-1.75c-.23-.44-.58-.66-1.07-.66zM70.98 57.68c-.5 0-.94.64-.86 1.5h1.72c-.02-.93-.34-1.5-.86-1.5zM50.4 41.92c.59-.55.89-1.36.89-2.42s-.3-1.87-.89-2.44-1.5-.85-2.72-.85h-1.34v6.54h1.52c1.11 0 1.95-.28 2.54-.83zM70.87 38.25c.32-.14.49-.45.49-.93s-.15-.79-.45-.95c-.3-.15-.8-.23-1.51-.23h-1.16v2.32h1.14c.67.01 1.16-.07 1.49-.21zM37.98 56.42c0-.69-.34-1.48-1.8-1.48-.25 0-.44.01-.64.04v2.69c.27.01.7.02.93.02 1.21 0 1.51-.65 1.51-1.27zM94.15 38.96c.3-.27.45-.69.45-1.27s-.15-.98-.46-1.19c-.31-.22-.85-.32-1.62-.32h-1.8v3.19h1.76c.82-.01 1.37-.14 1.67-.41zM71.44 42.58c.34-.17.52-.5.52-1s-.18-.83-.55-.99c-.36-.16-.95-.24-1.75-.24h-1.42v2.48h1.65c.69.01 1.2-.08 1.55-.25zM77.8 68.7c-.48 0-.84.22-1.07.66s-.34 1.03-.34 1.75.11 1.31.34 1.75c.23.44.58.66 1.07.66.48 0 .84-.22 1.07-.66s.34-1.03.34-1.75-.11-1.31-.34-1.75-.58-.66-1.07-.66zM33.21 41.92c.59-.55.89-1.36.89-2.42s-.3-1.87-.89-2.44-1.5-.85-2.72-.85h-1.34v6.54h1.52c1.1 0 1.95-.28 2.54-.83zM93.72 60.8c0 .51.24.83.6.83.21 0 .46-.17.81-.51V59.4c-.57.5-1.41.42-1.41 1.4z"/><path class="st1" d="M66.69 0C29.86 0 0 19.89 0 44.43s29.86 44.43 66.69 44.43 66.69-19.89 66.69-44.43C133.37 19.89 103.52 0 66.69 0zm21.63 34.11h4.08c1.67 0 2.87.28 3.58.85.71.56 1.07 1.47 1.07 2.73 0 1.72-.68 2.84-2.05 3.34l2.73 3.85h-2.96l-2.39-3.43h-1.66v3.43h-2.4V34.11zm-5.65 7.98c.4-.5.59-1.18.59-2.04v-5.94h2.4v6.02c0 1.56-.43 2.76-1.29 3.59-.86.84-1.97 1.25-3.31 1.25s-2.45-.42-3.32-1.26-1.3-2.04-1.3-3.59V34.1h2.4v5.94c0 .86.2 1.54.6 2.04.4.5.94.75 1.62.75.68.01 1.22-.24 1.61-.74zm-2.72-16l-7.32 2.05-3.33-9.27c.49-.06.99-.15 1.48-.35.42-.17.78-.38 1.13-.59.26-.15.5-.3.74-.41.71-.32 1.58-.4 2.5-.48.73-.06 1.51-.13 2.26-.34.2-.06.4-.13.6-.21l1.94 9.6zm-2.83-13.92l.47 2.33c-.69.4-1.6.48-2.63.57-1.04.09-2.12.18-3.14.64-.34.15-.65.34-.94.51-.3.18-.58.34-.85.45-.43.17-.93.23-1.44.27l-.78-2.18 9.31-2.59zm-7.09 21.94c.73 0 1.36.09 1.89.26s.93.41 1.19.71c.48.55.72 1.18.72 1.88 0 .84-.27 1.47-.82 1.88-.18.14-.31.23-.39.27-.07.04-.2.1-.39.18.67.14 1.2.44 1.59.9s.59 1.02.59 1.7c0 .75-.26 1.41-.77 1.99-.6.67-1.63 1-3.11 1h-4.71V34.11h4.21zM56.78 9.83l9.2 2.95-.89 2.2c-.8-.04-1.6-.48-2.51-.97-.92-.5-1.87-1.02-2.97-1.19-.37-.06-.73-.08-1.07-.09-.34-.02-.67-.03-.96-.09-.45-.09-.9-.32-1.35-.57l.55-2.24zm-1.03 4.23c.44.22.91.42 1.43.52.44.09.87.11 1.27.13.3.01.58.03.84.07.77.13 1.53.54 2.34.98.64.35 1.33.72 2.08.96.2.06.41.11.61.16l-3.66 9.08-7.24-2.33 2.33-9.57zm5.01 26.98c-.27-.19-.8-.38-1.59-.58-1.25-.3-2.17-.69-2.75-1.16-.58-.48-.87-1.23-.87-2.25s.37-1.81 1.1-2.36 1.65-.83 2.75-.83c.72 0 1.44.12 2.16.37s1.34.6 1.88 1.05l-1.22 1.76c-.93-.71-1.9-1.06-2.89-1.06-.4 0-.72.09-.95.28-.23.19-.35.44-.35.75s.14.56.42.75c.28.18.93.4 1.96.65 1.02.25 1.81.63 2.38 1.13.56.5.85 1.24.85 2.2 0 .97-.36 1.75-1.09 2.35-.72.6-1.68.9-2.86.9-1.7 0-3.24-.63-4.6-1.89l1.43-1.75c1.16 1.02 2.23 1.52 3.22 1.52.44 0 .79-.09 1.04-.28s.38-.45.38-.77c0-.33-.13-.58-.4-.78zm-16.81-6.93h3.8c1.92 0 3.39.47 4.42 1.41 1.03.94 1.54 2.25 1.54 3.92s-.5 3-1.5 3.97c-1 .98-2.53 1.46-4.58 1.46h-3.68V34.11zm-5.21 0h2.4v10.76h-2.4V34.11zm-11.99 0h3.8c1.92 0 3.39.47 4.42 1.41 1.03.94 1.54 2.25 1.54 3.92s-.5 3-1.5 3.97c-1 .98-2.53 1.46-4.58 1.46h-3.68V34.11zm10.34 28.07h-4.68v-.47c1.19 0 1.46-.3 1.46-1.02v-4.5c0-.93-.13-1.06-1.05-1.06h-.3v-.47c.3-.01.88-.06 1.52-.1.73-.04 1.44-.08 1.96-.08 1.51 0 2.67.21 3.33.86.3.3.46.73.46 1.1 0 .74-.48 1.2-1.49 1.42v.02c1.17.25 1.91 1.05 1.91 2.03 0 1.23-1.13 2.27-3.12 2.27zm9.06-2.53H42.8c.1 1 .77 1.77 1.49 1.77.45 0 .88-.25 1.48-.87l.28.23c-.68.96-1.66 1.54-2.59 1.54-1.32 0-2.21-1.02-2.21-2.48 0-1.6 1.08-2.72 2.59-2.72.64 0 1.15.21 1.52.58.71.71.37 1.39.8 1.61v.34h-.01zm5.8 0H48.6c.1 1 .77 1.77 1.49 1.77.45 0 .88-.25 1.48-.87l.28.23c-.68.96-1.66 1.54-2.59 1.54-1.32 0-2.21-1.02-2.21-2.48 0-1.6 1.08-2.72 2.59-2.72.64 0 1.15.21 1.52.58.71.71.37 1.39.8 1.61v.34h-.01zm.96-1.49l-.33-.13v-.3l1.98-.75h.25v1.35h.02c.45-.87.64-1.22 1.05-1.22.08 0 .18.01.24.04l.96.35c-.15.51-.34.94-.58 1.28-.38-.15-.82-.3-.98-.3-.24 0-.45.17-.71.54v1.96c0 .58.18.81.81.81h.31v.39h-3.36v-.39h.08c.5 0 .68-.22.68-.85v-1.97c.02-.54-.05-.66-.42-.81zm6.91 16.61h-5.11v-1.2l2.13-2.18c.43-.44.73-.78.92-1.04.18-.26.27-.51.27-.75s-.08-.44-.24-.61a.821.821 0 00-.61-.24c-.46 0-.89.33-1.3.97l-1.3-.77c.34-.53.71-.92 1.11-1.19.4-.27.92-.4 1.55-.4s1.18.2 1.65.6c.47.4.71.94.71 1.62 0 .37-.09.73-.29 1.07-.19.34-.54.78-1.05 1.31l-1.31 1.36h2.86l.01 1.45zm6.59-.94c-.5.68-1.25 1.02-2.25 1.02s-1.75-.34-2.25-1.02c-.5-.68-.75-1.59-.75-2.73s.25-2.05.75-2.73c.5-.68 1.25-1.02 2.25-1.02s1.75.34 2.25 1.02c.5.68.75 1.59.75 2.73s-.25 2.05-.75 2.73zm1.3-17.47h-.44c-.05-.8-.22-1.04-.76-1.04h-2.33v2.72h1.68c.85 0 1.05-.19 1.05-.88h.48v2.41h-.48c0-.58-.19-.86-.83-.86h-1.9v1.95c0 .87.16 1.05.81 1.05h.23v.47H61.6v-.47h.19c.52 0 .71-.17.71-.69v-4.9c0-.77-.22-1-.75-1h-.16v-.46h6.11v1.7h.01zM73.6 74.8h-5.11v-1.2l2.13-2.18c.43-.44.73-.78.92-1.04.18-.26.27-.51.27-.75s-.08-.44-.24-.61a.821.821 0 00-.61-.24c-.46 0-.89.33-1.3.97l-1.3-.77c.34-.53.71-.92 1.12-1.19.4-.27.92-.4 1.54-.4.63 0 1.18.2 1.65.6.47.4.71.94.71 1.62 0 .37-.09.73-.28 1.07s-.54.78-1.05 1.31l-1.31 1.36h2.86v1.45zm-1.96-13.38c.45 0 .88-.25 1.48-.87l.28.23c-.68.96-1.66 1.54-2.59 1.54-1.32 0-2.21-1.02-2.21-2.48 0-1.6 1.08-2.72 2.59-2.72.64 0 1.15.21 1.52.58.71.71.37 1.39.8 1.61v.35h-3.35c.09 1 .77 1.76 1.48 1.76zm2.75-.67h.39c.21.68.74 1.04 1.26 1.04.34 0 .63-.25.63-.56 0-.83-2.27-1.13-2.27-2.59 0-.92.76-1.54 1.9-1.54.46 0 .85.07 1.35.25l.02 1.29h-.39c-.22-.67-.62-1.03-1.14-1.03-.31 0-.56.19-.56.46 0 .99 2.38 1.03 2.38 2.69 0 .9-.64 1.52-1.57 1.52-.83 0-1.11-.17-1.28-.17-.07 0-.15.05-.24.16h-.35l-.13-1.52zm5.66 13.08c-.5.68-1.25 1.02-2.25 1.02s-1.75-.34-2.25-1.02c-.5-.68-.75-1.59-.75-2.73s.25-2.05.75-2.73c.5-.68 1.25-1.02 2.25-1.02s1.75.34 2.25 1.02c.5.68.75 1.59.75 2.73s-.25 2.05-.75 2.73zm.67-11.52c-.82 0-1.37-.46-1.37-1.5v-2.9h-.64v-.31c.73-.3 1.55-1.19 1.77-1.86h.35v1.51h1.58l-.18.67h-1.4v2.93c0 .45.21.64.56.64.29 0 .57-.18.92-.61l.17.34c-.37.64-1.1 1.09-1.76 1.09zm5.07-.13h-3.02v-.39h.13c.5 0 .68-.22.68-.85v-2.32c0-.31-.07-.4-.41-.52l-.4-.15v-.29l2.07-.69h.22v4.05c0 .5.21.76.74.76l-.01.4zm-2.5-7.13c0-.44.46-.82.97-.82.56 0 .96.36.96.82 0 .48-.46.82-.96.82-.55.01-.97-.34-.97-.82zm8.84 2.58c-.63.06-.79.22-1.02.73l-1.73 3.91h-.73l-1.8-3.88c-.23-.5-.4-.69-.93-.75v-.39h3.07v.39h-.42c-.25 0-.36.23-.16.68l1.08 2.41.94-2.13c.28-.63.13-.87-.71-.96v-.39h2.41v.38zm3.88 4.67c-.45 0-.77-.29-.85-.75-.48.47-.81.76-1.49.76-.86 0-1.4-.5-1.4-1.27 0-.39.17-.76.37-.97.57-.57 1.55-.45 2.49-1.22v-.45c0-.47-.33-.81-.76-.81-.42 0-.73.3-.63.93l-1.35.47c-.11-.5-.06-.85.25-1.16.41-.41 1.4-.73 2-.73.59 0 1.97.34 1.97 1.48v2.29c0 .42.08.56.27.56.1 0 .16-.02.33-.15l.18.29c-.38.42-.98.73-1.38.73zm4.68-.12h-3v-.39h.12c.51 0 .68-.23.68-.85v-4.98c0-.53-.04-.63-.31-.73l-.52-.19v-.35l2.09-.61h.22v6.86c0 .57.17.85.73.85l-.01.39zm6.53-12.41H25.95v-.43h81.27v.43zm-3.2-9.15v4.25h-2.4v-4.25l-3.73-6.51h2.6l2.32 4 2.32-4h2.6l-3.71 6.51z"/></svg>