<svg xmlns="http://www.w3.org/2000/svg" width="640" height="480" viewBox="0 0 640 480"><path fill="#0D8256" d="M334.277 226.479h-9.991v8.65h10.271c3.824 0 6.122-1.357 6.122-4.268v-.116c0-2.63-1.964-4.266-6.402-4.266M337.316 297.113c.061-.064.115-.115.173-.18.029-.032.035-.09.062-.122.814-1.097.91-1.88.574-2.364.006-.01.006-.022.006-.035h-.029c-.558-.706-2.072-.693-3.494.073-2.457 1.335-4.261 4.015-4.934 5.987 0 0 4.889-.141 7.568-3.263.016-.025.035-.057.074-.096M265.994 299.809l.393-.16a10.072 10.072 0 0 0 1.611-.828c1.396-.847 2.978-2.227 2.658-3.979 0 0-.279-1.213-2.417-.08h-.015c-.009.006-.009.013-.022.02-.374.205-.818.48-1.317.85-.191.129-.385.27-.562.417-.112.081-.215.171-.329.257v.055c-1.269 1.152-2.329 2.563-3.361 4.168 1.214-.122 2.336-.353 3.361-.722v.002zM250.134 300.31s.095-.032.242-.071a11.284 11.284 0 0 0 2.442-.818c2.012-.862 4.308-2.39 3.634-4.693 0 0-.411-.893-2.346.07-.034.013-.075.013-.107.02-.067.048-.122.093-.197.128-.369.205-.792.481-1.272.841-.085.061-.18.122-.27.189-.045.035-.088.061-.138.093l-.016.062c-1.42 1.181-2.563 2.701-3.646 4.45a25.527 25.527 0 0 0 1.681-.276l-.007.005zM338.58 306.919c.943 1.431 2.904 1.63 4.957.327 2.487-1.582 3.488-5.962 1.999-8.304-2.29 2.616-4.595 5.269-6.956 7.977M237.412 234.899h6.681c7.076 0 11.844-4.771 11.844-11.737v-.107c0-6.959-4.768-11.844-11.844-11.844h-6.681v23.688zM367.978 293.956h-.007c-.09-.045-.209-.045-.385.02-1.482.07-2.817.08-4.113.27-.539.077-1.227.484-1.502.949-1.412 2.278-2.733 4.614-4.033 6.97-.651 1.168-1.299 2.354-1.762 3.606-.52 1.431.142 2.149 1.534 1.675a11.904 11.904 0 0 0 2.673-1.322l-.01.058s.263-.16.684-.484c.01-.013.028-.013.035-.028.02-.02.038-.039.07-.059 1.184-.949 3.491-3.145 5.586-7.226.004-.007 2.076-4.063 1.23-4.429M262.744 154.613c1.176.042 2.074-.293 2.761-1.119-.008-5.499.006-12.629.032-18.397-.427-.977-.988-1.266-1.81-1.439-1.295-.287-3.599-.014-4.611 2.381-1.646 3.947-1.202 11.323-.634 14.312.494 2.55 2.544 4.193 4.262 4.262M423.902 211.21h-8.596v11.288h8.766c4.207 0 6.613-2.243 6.613-5.559v-.111c.001-3.709-2.58-5.618-6.783-5.618M379.172 154.609c1.717-.069 3.77-1.702 4.258-4.259.571-2.992 1.021-10.365-.635-14.304-1.002-2.407-3.312-2.683-4.617-2.392-.809.18-1.374.456-1.807 1.436.035 5.779.048 12.902.048 18.401.681.825 1.575 1.16 2.753 1.118M405.152 294.585c-.373-.449-1.277-.692-1.9-.616-.731.087-1.501.504-2.098.976-2.625 2.034-4.579 4.607-5.859 7.675-.103.244-.18.481-.257.719 0 0-1.591 3.818 1.36 3.818 0 0 .045.007.084.007.031 0 .051-.007.08-.007.539-.02 2.458-.263 4.068-2.519.025-.052.08-.087.105-.142.042-.045.055-.08.087-.118a.71.71 0 0 1 .055-.077h-.013c1.678-2.478 3.157-5.108 4.572-7.752.274-.488.094-1.522-.284-1.964M433.756 277.805a1.373 1.373 0 0 0-.272.192c-.812.661-1.431 1.443-1.431 1.443-.01.007-.01.007-.01.013-1.312 1.419-2.478 2.945-3.594 4.512-2.069 2.798-3.379 4.954-4.033 6.128h-.006c-.363.636-.533.988-.533.988.32-.163.623-.32.938-.472v.007c.006-.01.025-.017.038-.022 6.356-3.247 8.516-6.376 9.372-7.425.896-1.11 3.132-5.024 1.678-5.885-.635-.372-1.441-.006-2.147.521M173.494 211.21h-6.675v23.689h6.675c7.068 0 11.845-4.771 11.845-11.737v-.11c0-6.957-4.778-11.842-11.845-11.842M338.49 215.143v-.116c0-2.575-2.024-4.035-5.673-4.035h-8.521v8.304h7.957c3.818 0 6.237-1.226 6.237-4.153M137.804 313.214c4.728-3.619 15.791-12.109 15.465-24.789.045-.546 1.038-11.692-10.928-13.387-.048-.006-.959-.205-2.227-.205-3.279 0-7.36 1.22-8.195 7.011-.016.093-.953 4.188.778 6.382.724.908 1.85 1.367 3.332 1.367a8.74 8.74 0 0 0 1.555-.142c.348-.68 1.439-2.406 3.43-2.406 1.064 0 2.188.501 3.352 1.488 1.688 1.447 1.972 4.569.715 7.983-1.846 5.024-7.129 10.909-15.911 10.909-.486 0-.976-.025-1.476-.061-10.011-.745-14.177-5.378-15.764-8.063-1.417-2.403-1.833-5.044-1.065-6.729.018-.061.928-2.955 4.8-3.439 2.219-.276 3.693-.943 4.529-2.012.738-.973.988-2.284.756-4.033-.595-4.357-1.922-6.437-7.903-6.437-5.559 0-9.505 5.311-9.597 12.911-.091 8.128 3.703 12.745 4.879 13.958.087.115 1.654 2.082 1.226 4.046-.22 1.029-.926 1.845-2.085 2.425a5.477 5.477 0 0 1-2.429.546c-3.731 0-8.634-3.491-10.753-10.158-.388-1.213-.699-2.458-1.009-3.658-1.643-6.5-3.196-12.642-15.458-17.201-.388 2.545-1.551 12.379 3.314 16.069.147.141 2.379 2.402 2.057 4.908-.164 1.312-.995 2.43-2.467 3.306-.076.041-.966.472-2.323.472-1.856 0-4.612-.79-7.242-4.566-.072-.073-2.865-3.23-2.865-11.58l.008-1.231c.045-8.118.094-17.32-16.001-19.065-.507 1.11-2.081 5.063-1.495 9.943l.298 2.506-1.274-2.182c-.072-.142-8.116-13.836-19.146-20.227-3.693-2.144-7.652-3.267-11.443-3.267-6.769 0-11.903 3.497-13.888 9.433.401-.031.943-.067 1.593-.067 4.705 0 16.494 1.3 24.435 13.265.116.177 10.988 17.519 23.67 28.216.207.202 17.059 16.759 41.487 16.759 2.053 0 4.15-.109 6.201-.347 0 0 .759-.141 1.737-.141 2.562 0 4.232.917 4.718 2.586.298.526 1.129 2.798-3.785 6.796-.079.073-9.896 8.894-9.302 18.103.273 4.223 2.71 7.932 7.258 11.012.267.218 1.016.712 1.669.712.21 0 .397-.058.558-.166.569-.392.322-2.183-.026-3.267-.082-.386-1.797-8.451 1.909-15.97.101-.195 2.493-4.755 11.703-11.986.107-.106 13.908-12.648 17.899-15.761l.726-.569z"/><path fill="#0D8256" d="M129.941 300.482c.236-.006 6.045-.314 8.464-4.402a9.237 9.237 0 0 1-1.627.129c-2.556 0-5.125-.918-7.643-2.753-1.16-.835-2.066-1.968-2.707-3.312-1.125 1.655-3.548 4.248-8.195 5.297 1.03 1.994 3.895 5.041 11.708 5.041M94.103 232.921h.486c25.374 0 26.618-25.208 26.633-25.47.646-7.323-2.481-15.725-8.169-21.938-4.5-4.928-12.629-10.797-25.818-10.797h-.201c-5.933.027-11.434 1.292-16.346 3.73l-.417.194a.035.035 0 0 1-.029.013 37.157 37.157 0 0 0-6.624 4.423c-7.353 5.762-19.681 18.497-19.681 39.157-.006.239-1.12 19.821 11.891 39.489a36.991 36.991 0 0 1 2.894-.109c2.811 0 6.783.293 10.562 1.566-2.609-4.485-11.158-20.253-11.205-34.698l-.026-.185C58.267 215.372 66.06 210 70.183 210c.151 0 .292.006.43.013.286.037.555.046.818.046 3.975 0 4.548-3.091 4.577-3.229.799-4.859-3.194-5.711-3.364-5.737a10.059 10.059 0 0 0-2.041-.228c-7.284 0-13.014 8.349-13.07 8.442l-.736 1.078-.183-1.292c-.67-4.607.831-9.706 4.098-13.998 4.129-5.421 10.628-9.055 17.839-9.955a30.929 30.929 0 0 1 3.838-.256c6.755 0 10.156 2.562 11.822 4.711 2.066 2.678 2.707 6.364 1.734 10.133-.734 2.862-.656 5.135.238 6.574.743 1.204 1.771 1.433 1.816 1.446l.047.013.053.024c1.051.462 2.066.696 3.019.696 4.567 0 6.594-5.448 6.61-5.501l1.332-3.675-.354 3.9c-.792 8.707-6.982 10.882-9.312 11.694l-.109.029a5.686 5.686 0 0 1-1.771.276c-2.631 0-6.051-1.531-7.089-5.841-.464-1.953-2.461-3.47-4.552-3.47-1.153 0-2.22.47-3.075 1.364-1.219 1.267-2.608 4.001-2.352 9.837.632 14.651 13.131 15.777 13.657 15.827"/><path fill="#0D8256" d="M90.12 200.558c.099-.896.263-2.018.52-3.414.283-1.847 0-3.273-.89-4.301-1.755-2.06-5.537-2.214-6.656-2.214-.375 0-.605.006-.639.006-5.95.197-10.126 2.106-12.898 4.117.26-.02.515-.026.785-.026 1.447 0 2.909.223 4.367.666 4.255 1.288 6.177 3.724 7.041 5.692a9.119 9.119 0 0 1 4.63-1.232c1.407.003 2.682.315 3.74.706M511.183 293.456c-2.522 1.841-5.083 2.753-7.649 2.753-.578 0-1.11-.039-1.617-.129 2.413 4.088 8.23 4.396 8.458 4.402 7.822 0 10.685-3.048 11.711-5.037-4.652-1.053-7.078-3.646-8.194-5.301-.656 1.348-1.554 2.477-2.709 3.312"/><path fill="#0D8256" d="M621.082 254.606c-3.792 0-7.752 1.123-11.438 3.267-11.03 6.391-19.084 20.085-19.155 20.227l-1.271 2.182.302-2.509c.584-4.877-.991-8.83-1.495-9.94-16.095 1.742-16.046 10.947-16.005 19.065l.007 1.231c0 8.35-2.788 11.507-2.868 11.584-2.625 3.767-5.388 4.562-7.238 4.562-1.348 0-2.25-.431-2.317-.472-1.473-.873-2.31-1.993-2.474-3.306-.317-2.502 1.916-4.768 2.063-4.908 4.86-3.69 3.702-13.519 3.308-16.075-12.254 4.568-13.816 10.71-15.459 17.207-.298 1.2-.615 2.445-1.001 3.658-2.124 6.671-7.017 10.158-10.749 10.158-.892 0-1.703-.183-2.432-.546-1.161-.584-1.871-1.398-2.092-2.425-.424-1.971 1.143-3.931 1.238-4.046 1.162-1.21 4.961-5.83 4.864-13.958-.09-7.601-4.036-12.914-9.597-12.914-5.978 0-7.312 2.079-7.896 6.439-.237 1.742.013 3.064.761 4.033.821 1.075 2.3 1.735 4.518 2.012 3.869.484 4.78 3.382 4.794 3.437.779 1.688.362 4.328-1.06 6.731-1.575 2.686-5.753 7.322-15.757 8.063-.507.035-.998.061-1.477.061-8.781 0-14.06-5.885-15.917-10.906-1.258-3.414-.97-6.535.722-7.979 1.161-.988 2.287-1.495 3.355-1.495 1.99 0 3.074 1.727 3.428 2.406a9.057 9.057 0 0 0 1.556.142c1.485 0 2.605-.459 3.334-1.367 1.729-2.194.796-6.282.776-6.379-.831-5.794-4.916-7.014-8.201-7.014-1.271 0-2.176.199-2.227.205-11.969 1.694-10.974 12.841-10.926 13.384-.33 12.683 10.733 21.173 15.463 24.792l.731.568c3.985 3.108 17.788 15.647 17.9 15.757 9.212 7.229 11.593 11.795 11.698 11.987 3.709 7.515 1.999 15.587 1.919 15.973-.356 1.084-.606 2.875-.035 3.272.17.103.347.16.564.16.654 0 1.402-.494 1.665-.712 4.544-3.083 6.988-6.789 7.265-11.015.587-9.212-9.231-18.026-9.312-18.106-4.916-3.998-4.081-6.267-3.773-6.789.479-1.672 2.144-2.593 4.714-2.593.988 0 1.739.145 1.732.145 2.06.234 4.151.343 6.212.343 24.417 0 41.278-16.546 41.48-16.755 12.684-10.697 23.551-28.043 23.673-28.216 7.938-11.968 19.727-13.265 24.43-13.265.648 0 1.2.032 1.604.067-2-5.93-7.146-9.428-13.904-9.428M570.759 194.755c-2.775-2.01-6.949-3.919-12.907-4.116-.033 0-.261-.01-.633-.01-1.116 0-4.896.157-6.648 2.217-.892 1.025-1.174 2.455-.892 4.301.257 1.397.417 2.514.52 3.414 1.053-.398 2.336-.709 3.745-.709 1.652 0 3.189.411 4.623 1.232.863-1.968 2.795-4.404 7.049-5.687a14.96 14.96 0 0 1 4.364-.671c.256 0 .516.006.779.029"/><path fill="#0D8256" d="M576.688 183.071a37.07 37.07 0 0 0-6.616-4.418c-.02 0-.025-.006-.035-.013l-.41-.197c-4.913-2.439-10.422-3.7-16.352-3.73h-.202c-13.187 0-21.324 5.872-25.819 10.797-5.682 6.216-8.82 14.618-8.162 21.938.013.262 1.261 25.47 26.628 25.47h.481c.522-.047 13.033-1.176 13.665-15.83.257-5.836-1.14-8.567-2.349-9.834-.863-.896-1.919-1.367-3.084-1.367-2.085 0-4.074 1.521-4.546 3.47-1.036 4.314-4.457 5.841-7.088 5.841a5.716 5.716 0 0 1-1.771-.272l-.108-.032c-2.33-.812-8.522-2.987-9.318-11.693l-.35-3.897 1.332 3.675c.021.056 2.04 5.501 6.612 5.501.956 0 1.967-.23 3.01-.696l.062-.021.051-.013c.045-.013 1.071-.246 1.81-1.446.892-1.439.969-3.715.244-6.574-.976-3.769-.344-7.458 1.732-10.136 1.669-2.15 5.063-4.712 11.827-4.712 1.206 0 2.496.091 3.824.257 7.219.903 13.72 4.537 17.85 9.955 3.27 4.294 4.758 9.393 4.091 13.997l-.173 1.292-.752-1.078c-.048-.09-5.778-8.439-13.062-8.439-.674 0-1.367.083-2.041.225-.167.029-4.168.877-3.365 5.737.032.138.597 3.233 4.581 3.233.264 0 .539-.013.822-.05.135-.006.27-.013.43-.013 4.119 0 11.904 5.371 12.115 18.3l-.02.185c-.054 14.445-8.592 30.212-11.204 34.698 3.771-1.273 7.752-1.569 10.563-1.569 1.386 0 2.409.067 2.9.109 13.007-19.672 11.896-39.25 11.885-39.494.001-20.65-12.327-33.389-19.688-39.156M308.676 338.106c-3.311 0-3.439 4.119-3.439 6.526 0 2.349.128 6.529 3.374 6.529 3.282 0 3.444-4.146 3.444-6.529 0-2.31-.162-6.526-3.379-6.526"/><path fill="#0D8256" d="M580.035 151.333c-.844-.714-21.164-17.772-63.526-35.009C477.589 100.476 411.919 81.6 320.16 81.6c-91.771 0-157.429 18.876-196.354 34.725-42.356 17.236-62.678 34.295-63.526 35.008l-1.101.943v26.313l5.09-4.038c7.268-5.763 15.987-8.809 25.235-8.809 12.453 0 24.031 5.58 31.762 15.321 6.727 8.471 9.746 19.074 8.496 29.836-1.245 10.754-6.616 20.407-15.105 27.146l-2.702 2.145 2.385 2.492c.082.09 8.201 8.65 14.193 23.307l1.16 2.811 2.859-1.059c.027-.013 3.263-1.2 7.747-1.2 7.649 0 14.047 3.234 19.043 9.616 4.837 6.177 5.271 14.375 1.282 24.369-3.508 8.798-9.854 17.127-14.626 21.991-9.759 9.953-21.817 19.13-21.932 19.22l-1.245.946v30.189l2.349.604c.934.244 93.99 24.097 194.99 24.097 100.996 0 194.07-23.853 194.994-24.097l2.349-.604v-30.189l-1.251-.946c-.115-.09-12.174-9.267-21.934-19.22-4.762-4.864-11.108-13.193-14.625-21.991-3.979-9.994-3.549-18.192 1.293-24.369 4.989-6.382 11.396-9.616 19.04-9.616 4.476 0 7.716 1.188 7.735 1.193l2.859 1.085 1.161-2.83c5.997-14.656 14.118-23.217 14.198-23.307l2.396-2.492-2.711-2.145c-17.528-13.916-20.503-39.483-6.616-56.983 7.732-9.741 19.31-15.321 31.771-15.321 9.24 0 17.971 3.046 25.229 8.806l5.089 4.042v-26.313l-1.102-.943zm-225.283-27.604c4.106-.342 15.684-.563 19.341-.253 1.457.098 1.777.605 1.874 1.433.006.311.031 1.771.038 3.945.392.714.937 1.226 1.989 1.266 1.405.076 6.27.546 7.54 4.998 1.271 4.449 1.046 14.278.504 16.914-.484 2.373-2.349 6.013-7.181 6.076-1.557.016-2.432.41-2.801 1.373-.01 1.399-.017 2.345-.032 2.631-.097 2.005-1.238 3.151-3.626 3.815-2.387.671-14.589.289-16.498-.289-1.912-.568-3.067-1.332-2.959-3.526.084-2.194-.282-34.239-.282-37.004.032-.828.611-1.245 2.093-1.379m-48.638-12.155s.101-2.385 14.114-2.385h.976c14.011 0 14.116 2.385 14.116 2.385s3.299 8.76 0 24.134c-3.312 15.388-3.613 16.165-3.613 28.527v2.53s-.584 4.962-10.506 4.962h-.976c-9.923 0-10.503-4.962-10.503-4.962v-2.53c0-12.363-.304-13.139-3.611-28.527-3.306-15.374.003-24.134.003-24.134m-50.421 23.542c1.272-4.452 6.131-4.922 7.537-4.998 1.059-.04 1.607-.552 1.988-1.266.015-2.174.03-3.634.043-3.945.094-.828.417-1.335 1.88-1.433 3.652-.31 15.228-.088 19.328.253 1.502.135 2.066.552 2.099 1.376 0 2.766-.38 34.81-.292 37.004.103 2.195-1.041 2.958-2.95 3.526-1.909.578-14.115.959-16.507.289-2.379-.664-3.526-1.81-3.618-3.815-.016-.286-.022-1.238-.029-2.634-.372-.959-1.256-1.354-2.799-1.37-4.834-.063-6.7-3.703-7.183-6.076-.547-2.633-.768-12.463.503-16.911m-75.762 50.554h281.57a1.7 1.7 0 0 1 1.697 1.699c0 .934-.754 1.689-1.697 1.689h-281.57a1.693 1.693 0 1 1 0-3.388m260.361 57.036h-10.113l-8.419-12.581h-6.783v12.581h-8.65v-39.292h17.961c4.993 0 8.869 1.396 11.452 3.979 2.182 2.191 3.362 5.276 3.362 8.982v.119c0 6.334-3.42 10.324-8.422 12.177l9.612 14.035zm-63.812-7.357c5.265 0 8.477-3.204 8.477-9.422v-22.519h8.631v22.171c0 11.896-6.674 17.74-17.23 17.74-10.549 0-17.005-5.893-17.005-17.461v-22.45h8.65v22.229c0 6.397 3.196 9.712 8.477 9.712m-27.558-3.546v.116c0 7.192-5.837 10.788-14.705 10.788h-18.693v-39.292h18.244c4.495 0 8.024 1.232 10.268 3.475 1.81 1.798 2.698 3.987 2.698 6.671v.115c0 4.438-2.358 6.905-5.163 8.484 4.549 1.738 7.351 4.378 7.351 9.643m-61.342-4.986c-7.912-2.028-13.023-4.216-13.023-12.01v-.116c0-7.139 5.724-11.848 13.756-11.848 5.723 0 10.609 1.802 14.591 4.991l-4.495 6.517c-3.475-2.41-6.896-3.871-10.215-3.871-3.312 0-5.047 1.511-5.047 3.427v.115c0 2.578 1.683 3.417 8.477 5.151 7.969 2.086 12.453 4.951 12.453 11.798v.103c0 7.806-5.944 12.186-14.425 12.186-5.942 0-11.945-2.079-16.67-6.289l5.113-6.114c3.527 2.907 7.24 4.77 11.729 4.77 3.534 0 5.671-1.409 5.671-3.699v-.114c.001-2.196-1.341-3.316-7.915-4.997m-22.946-3.881v.119c0 11.059-8.54 19.647-20.883 19.647H228.43V203.41h15.321c12.343.004 20.883 8.472 20.883 19.526m-49.954 19.763h-8.641v-39.292h8.641v39.292zm-56.852.007v-39.292h15.321c12.352 0 20.883 8.469 20.883 19.522v.119c0 11.059-8.531 19.647-20.883 19.647h-15.321v.004zm55.465 71.458c-.931.173-1.746.25-2.495.237-1.652 0-5.697-.687-5.697-4.409 0-2.479 1.548-3.355 2.583-3.677.082-.035.17-.048.264-.073.098-.029.179-.042.255-.062.059-.013.109-.019.165-.035h.06l.183-.022.007.016c1.426-.073 2.576.787 2.746 2.131.166 1.261-.59 2.031-2.183 2.301-.27.029-.671.013-.927-.309 0 0-.056-.188-.467.135-.132.106.467.681.467.681.085.08.188.135.285.192v.01c.007.013.015.013.021.013.913.577 2.286.619 2.822.604h.053c.019 0 .026-.007.045-.007.075 0 .116-.006.116-.006 2.674-.209 4.944-1.489 6.266-3.758 2.098-3.625 3.938-7.411 5.703-11.201 1.718-3.687 3.703-7.104 6.995-9.594 1.348-1.017 2.8-1.713 4.367-2.053v-.029s.138-.032.367-.064c.034-.006.069-.006.106-.013a9.503 9.503 0 0 1 1.574-.096c.047 0 .092-.007.157-.007 0 .007.006.013.006.02.448.025.871.115 1.176.302 0 0-.857.067-1.958.751-2.964 2.188-4.944 5.14-6.614 8.432-2.257 4.428-4.531 8.862-7.173 13.065-2.108 3.348-5.171 5.742-9.275 6.525m26.028-5.435c-3.101 4.226-9.245 5.775-13.343 3.619-.786-.397-1.58-1.03-2.054-1.771-1.057-1.648-.247-2.993 1.813-3.218-.443 1.421.293 2.249 1.431 2.862 2.358 1.28 5.462.802 7.431-1.203 1.962-2.009 2.878-4.524 2.978-7.277.114-3.247-2.071-4.89-4.63-6.154-1.275-.642-1.975-1.389-.94-2.868 2.493 1.161 4.574.205 6.414-1.39 1.85-1.607 2.556-3.764 1.869-6.1-.91-3.055-3.565-4.303-6.361-4.768-6.903-1.168-12.935.693-17.617 6.045-2.188 2.49-3.185 5.474-2.329 8.855.332 1.322.932 1.926 1.935 2.188.185-.032.151-.27.151-.27s-1.292-1.293 0-2.733c.927-1.046 2.229-.661 2.888-.359.027.013.046.013.076.019.014.007.021.022.033.032.207.09.329.174.329.174l-.013.028c.863.565 1.182 1.419 1.076 2.465-.157 1.514-1.445 2.913-2.878 3.243-1.834.424-3.856-.288-4.907-1.912-2.031-3.15-1.762-6.497-.373-9.734 2.58-6.02 7.593-9.064 13.717-10.342 4.436-.931 8.941-.895 13.235.928 3.825 1.63 5.878 4.518 5.665 8.012-.213 3.434-2.284 5.566-5.201 7.023-.818.404-1.689.699-2.773 1.123 3.571 1.488 5.583 3.953 4.962 7.602-.349 2.052-1.336 4.186-2.584 5.881m30.816-1.451c-1.133.629-2.543 1.643-4.133 2.207a19.612 19.612 0 0 1-5.546 1.146c-2.448.142-3.615-.953-4.213-3.096-5.132 3.445-9.669 3.192-9.669 3.192-3.354.013-5.245-1.986-4.414-5.191 1.601-6.174 5.304-10.672 11.511-12.78 1.439-.48 2.966-.654 3.982.783 1.016 1.431.558 2.907-.388 4.22-2.126 2.936-5.155 4.212-8.657 4.511-1.657.147-2.297.921-2.338 3.077-.032 1.521.771 2.478 2.235 2.673 2.665.337 7.339-2.403 8.48-4.861 2.286-4.89 5.507-8.868 10.944-10.479 1.396-.418 2.856-.559 3.857.757 1.028 1.325.68 2.798-.191 4.081-2.085 3.055-5.158 4.38-8.713 4.717-1.718.167-2.458 1.046-2.443 3.164.006 1.559.919 2.676 2.493 2.541 1.36-.103 2.834-.392 4.004-1.065 4.141-2.388 7.376-5.725 9.463-10.036.069-.154.148-.296.191-.439.01-.014.01-.014.016-.026 1.097-3.058-1.833-3.985-1.833-3.985v-.65c3.871-1.015 5.229 1.007 5.52 1.527.016.031.029.051.042.08l.017.041c.256.539.35 1.332.487 1.688.061-.025.114-.066.17-.09 3.781-3.458 8.108-3.42 8.186-.654.045 1.679-.491 2.605-.934 3.08-.05.062-.1.116-.142.161-.125.103-.22.186-.285.221a.163.163 0 0 0-.037.029c-.066.042-.111.061-.111.061v-.006c-.651.375-1.457.442-2.047.105-1.454-.799-1.204-1.919-.283-3.115-3.979.729-12.091 12.838-10.163 15.135-.611.546-1.32.771-1.994.748l.02.035c.001-.013-2.841.337-3.084-3.507m21.638 48.552H272.38a8.425 8.425 0 0 1 1.607-5.531c1.866-2.605 5.083-4.312 7.948-6.045 1.152-.713 3.022-1.611 3.022-3.25 0-2.028-1.194-2.737-2.705-2.737-2.572 0-3.439 1.867-3.377 4.601h-6.045c-.354-6.141 3.472-9.683 9.487-9.683 5.436 0 9.135 2.284 9.135 7.046 0 5.724-5.596 7.523-9.812 10.101v.028h10.134v5.471h.001zm16.87.257c-4.056 0-9.521-2.798-9.521-11.454 0-8.65 5.466-11.445 9.487-11.445 4.088 0 9.556 2.798 9.556 11.445-.001 8.656-5.469 11.454-9.522 11.454m12.237-60.706c1.37.048 2.31.863 2.606 2.227.339 1.592-.26 2.9-1.598 3.761a2.946 2.946 0 0 1-1.346.465l-.007.013h-.202c-.597 0-2.396-.218-2.072-2.948-.919.073-2.33.609-3.7 2.791-1.806 3.081-3.722 6.074-6.581 8.355-2.477 1.977-5.271 2.997-8.428 2.917l.029.016c-1.702 0-5.848-.719-5.848-4.527 0-2.464 1.489-3.385 2.552-3.731.724-.369 1.529-.392 2.285.052.756.455 1.458 1.623 1.487 2.489.043 1.238-.841 1.79-2.004 1.854-.916.004-.929-.385-1.351-.263-.417.132-.183.487-.183.487 1.192 1.576 4.205 1.072 4.205 1.072l-.038-.014c1.941-.201 3.63-1.084 5.036-2.502 2.215-2.23 3.598-4.938 4.8-7.861-1.147-.26-2.201-.395-3.177-.754-4.896-1.822-7.357-6.818-6.013-12.061 2.349-9.177 11.102-13.804 20.706-10.938.96.279 1.929.594 2.91.828 4.637 1.091 7.46 1.928 11.972-1.669.751 1.857.025 3.677-1.983 4.849-2.711 1.571-5.599 1.36-8.496.667-2.602-.629-5.182-1.428-7.797-1.982-6.305-1.322-12.402 1.828-14.49 7.354-1.869 4.967.128 9.526 4.736 10.852 2.262.648 2.795.442 3.682-1.736 1.593-3.911 3.743-7.415 7.107-10.052 2.024-1.599 4.288-2.551 7.08-2.285-4.594 3.1-7.067 7.666-9.159 12.642 1.162-.144 2.222-.4 3.28-.368m17.396 60.449h-6.687v-12.898h-5.246v-4.633c3.254.064 6.466-1.155 6.658-4.857h5.274v22.388h.001zm19.765.257c-4.825 0-9.937-1.64-9.937-7.078 0-3.824 2.858-4.627 4.47-4.922v-.061c-2.381-.646-3.472-2.281-3.472-4.694 0-4.922 5.236-6.147 8.938-6.147 6.142 0 9.071 2.897 9.071 6.147 0 2.316-1.383 4.209-3.507 4.694v.061c2.477.263 4.408 2.156 4.408 4.922.002 5.31-5.44 7.078-9.971 7.078m79.535-77.442c-.392 3.94-2.695 6.835-5.468 9.379-2.638 2.403-5.635 4.229-9.147 5.144-.529.128-1.12.594-1.383 1.062a316.568 316.568 0 0 0-5.243 9.706l-.013.007s-.115.205-.27.529a.409.409 0 0 0-.064.112c0 .01-.006.022-.006.022-.536 1.075-1.438 3.058-1.047 3.353.526.398 8.997-1.838 13.352-10.146.163.055.327.116.49.161v.013l.523.195s-1.19 4.614-7.8 9.244c-.231.17-.456.334-.693.475a.26.26 0 0 1-.103.077c-.337.205-.681.421-1.033.613-1.682.889-3.661 1.421-5.558 1.61-2.374.228-3.288-.729-3.737-3.016-7.277 3.917-9.379 4.094-10.913.792-2.451 1.431-4.954 3.658-7.87 1.425-2.346-1.8-1.248-4.37-.729-6.754-.404-.077-.796-.145-1.129-.219l-.851-.186c-3.559 4.476-6.106 6.272-7.492 7.008a13.912 13.912 0 0 1-3.324.969c-2.926.478-4.44-1.043-4.723-4.245-.925.712-1.675 1.473-2.573 1.982-1.393.803-2.827 1.637-4.361 2.096-2.775.841-3.939.253-5.22-2.076-1.771.761-3.484 1.585-5.266 2.218-1.543.516-3.058.42-4.401-.806-.286-.26-1.104-.138-1.582.051-3.157 1.175-6.398 1.932-9.716.982-1.412-.398-2.666-1.374-4.29-2.263-2.031 1.2-4.685 2.365-7.71 2.346-3.308-.013-5.194-2.05-4.345-5.252 1.637-6.148 5.33-10.656 11.551-12.732 1.38-.471 2.862-.612 3.87.7 1.065 1.389.68 2.875-.251 4.193-2.078 2.997-5.107 4.29-8.599 4.633-1.771.174-2.458.956-2.474 3.119-.013 1.64.928 2.631 2.628 2.625 2.746-.022 5.021-1.354 6.859-3.157 2.291-2.23 4.306-4.742 6.372-7.175.293-.34.392-.914.463-1.393a.292.292 0 0 0 .025-.115v-.007c.006-.038.022-.07.029-.109.093-.5.221-.975.388-1.424 1.569-4.724 4.572-4.909 5.214-4.941.699-.039 2.645.773 1.3 3.103-1.315 2.311-4.043 4.091-4.088 4.116-.237.485-.225.928.038 1.479.084.209.219.385.341.587.308.491.564.934.789 1.348v-.006s3.35 4.922-.376 7.928c1.711-.442 2.987-1.084 3.851-2.948 1.537-3.356 3.61-6.449 5.448-9.658.189-.327.401-.642.713-1.142h-3.719c.442-1.899 1.726-2.522 3.291-2.349.359.045.671.032.957-.02l-.01.02s.035 0 .086-.02c.706-.128 1.22-.526 1.572-1.13.334-.385.664-.892.928-1.591.164-.411.282-.751.379-1.053.006-.02.013-.064.025-.087.437-1.459.202-1.832-.276-2.336 1.3-.013 2.362-.17 3.366.026 1.226.228 1.607 1.151 1.084 2.31-.552 1.217-1.177 2.385-1.851 3.738 1.533-.006 2.936-.006 4.363-.006 0 .18.007.49 0 .74.619 0 1.185-.041 1.749.007 1.655.122 2.457 1.226 1.783 2.76-.692 1.581-1.648 3.051-2.496 4.572-1.039 1.851-2.098 3.702-3.08 5.573-.234.459-.424 1.299-.192 1.505.366.34 1.104.503 1.637.41.744-.135 1.533-.433 2.13-.892 3.709-2.814 6.809-6.18 8.811-10.409.912-1.89-.52-3.131-.52-3.131.032-.212.95-1.769 2.975-1.769.581 0 .959.154 1.248.376.045.019.084.048.132.054 1.704 1.326-.684 7.534-3.901 11.195-3.244 3.706-1.303 5.468-1.303 5.468.25.157.535.237.844.25 3.594 0 8.875-7.19 8.875-7.19h.019c-1.021-1.21-1.47-2.5-1.501-3.838l-.014-.006c0-.062 0-.109.007-.17-.007-.27.013-.559.032-.848.257-3.469 1.807-5.144 3.542-4.902 1.919.263 2.188 1.784 2.188 4.357s-1.502 4.556-1.502 4.556c1.367.344 2.304.145 3.193-1.123 2.274-3.267 5.008-6.067 9.115-7.014 2.262-.514 3.25-.263 4.848 1.31 2.76-1.971 3.706-2.093 5.445-.693-3.414 3.427-5.211 7.887-7.602 11.952-.045.054-.045.128-.073.188-.437.889-1.13 2.305-1.185 2.965-.105 1.008 4.428-1.514 4.428-1.514l-.045-.039c2.442-1.393 4.387-3.382 5.904-5.775 1.46-2.329 2.788-4.736 4.174-7.11-2.422-1.784-2.926-2.849-2.078-4.588.654-1.322 1.703-1.679 3.07-1.207-1.765 2.118.093 3.337.093 3.337 3.299-4.164 6.1-7.957 9.189-11.499 1.408-1.607 3.222-3.003 5.099-4.036 2.772-1.509 4.682-.101 4.371 3.044m-64.823 6.645c1.126-1.12 2.692-1.348 3.501-.533.809.825.564 2.385-.559 3.501-1.117 1.11-2.683 1.341-3.498.52-.817-.822-.564-2.382.556-3.488m88.746-25.665h-281.57a1.695 1.695 0 0 1-1.694-1.698c0-.921.762-1.69 1.694-1.69h281.57c.937 0 1.697.77 1.697 1.69a1.698 1.698 0 0 1-1.697 1.698m7.623-32.592v15.673h-8.644V227.21l-15.105-23.796h10.113l9.375 15.76 9.536-15.76h9.831l-15.106 23.619z"/><path fill="#0D8256" d="M358.012 342.322c1.575 0 3.375-.481 3.375-2.349 0-2.124-1.668-2.513-3.344-2.513-1.674 0-3.218.479-3.218 2.513.003 1.765 1.64 2.349 3.187 2.349M358.107 346.083c-1.861 0-3.632.642-3.632 2.894 0 1.932 1.96 2.478 3.571 2.478 1.575 0 3.6-.546 3.6-2.478-.002-2.157-1.607-2.894-3.539-2.894"/></svg>