<svg xmlns="http://www.w3.org/2000/svg" xmlns:xlink="http://www.w3.org/1999/xlink" viewBox="129.9 298 479.7 181.2"><defs><path id="a" d="M-236.4 685.6l1081.1-2.3V171.1l-1081.1 2.3z"/></defs><defs><path id="b" d="M-374.1 684.9L707 682.6V170.5l-1081.1 2.2z"/></defs><clipPath id="c"><use xlink:href="#b" overflow="visible"/></clipPath><path clip-path="url(#c)" fill="#FFF" d="M472.6 429.8v-7.4h-15.7v-37.3H448v44.7h24.6zm-43.9-37h.1l4.2 20.1h-8.6l4.3-20.1zm-17.1 37h9.2l2-9.5h11.7l2 9.5h9.2l-11.6-44.7h-10.9l-11.6 44.7zm-27.7-44.7l10.1 44.7h11.4l10.1-44.7h-9.2l-6.5 33h-.2l-6.2-33h-9.5zm-2.5 44.7v-44.7h-8.9v44.7h8.9zm-39.6-44.7v7.4h9.6v37.3h8.9v-37.3h9.6v-7.4h-28.1zm-30.1 30.7v1.8c0 8.3 3.9 13 14 13 9.6 0 15.3-4.3 15.3-13.7 0-5.4-1.7-8.9-8.4-11.8l-6.8-3c-3.8-1.6-4.6-3.3-4.6-6.1 0-2.6 1-5.2 5-5.2 3.4 0 4.8 2.4 4.8 6.6h8.5v-1.3c0-8.6-5.7-12-13.6-12-8.4 0-13.6 4.4-13.6 13.1 0 7.4 3.6 10.8 11.5 13.5 5.8 2.1 7.9 3.6 7.9 7.6 0 3.8-2.6 5.5-5.3 5.5-4.7 0-5.8-2.7-5.8-6.9v-1.3l-8.9.2zm-27-30.7v44.7h25.2v-7.4h-16.3v-12h14.8V403h-14.8v-10.5h15.7v-7.4h-24.6zm-27.1 44.7h8.9v-19.4h14.8V403h-14.8v-10.5h15.7v-7.4h-24.5v44.7z"/><defs><path id="d" d="M-12.1 632.9l1081.1-2.3V118.5l-1081.1 2.2z"/></defs><clipPath id="e"><use xlink:href="#d" overflow="visible"/></clipPath><path clip-path="url(#e)" fill="#FFF" d="M577.2 376.2h8.9v-18.9h4.7c3.6 0 5.1 2.1 5.2 5.6l.2 8.6c.1 1.8.2 3.4 1.1 4.7h9.6v-.4c-1.7-.9-1.9-3.3-2-8-.1-9.5-1-12.8-7.1-13.6v-.2c5-1.1 7.3-5.1 7.3-11 0-7.6-4.4-11.5-11.7-11.5H577l.2 44.7zm8.9-38.1h4.2c4 0 6.2 2.1 6.2 6.2 0 4.8-2.4 6.7-6.6 6.7h-3.7v-12.9zm-36.9-6.6v44.7h25.2v-7.4h-16.3v-12h14.8v-7.4h-14.8v-10.5h15.7v-7.4h-24.6zm-27.9 0v44.7h25.2v-7.4h-16.3v-12H545v-7.4h-14.8v-10.5h15.7v-7.4h-24.6zM498 356.1h3.8c3.9 0 6.8 1.5 6.8 6.7s-2.9 6.8-7.1 6.8H498v-13.5zm0-18h3.2c4.4 0 6.4 1.6 6.4 5.8 0 4.2-2.2 5.9-7.1 5.9H498v-11.7zm-8.9 38.1H504c10.3 0 13.7-6.1 13.7-13.1 0-5.9-3.1-9.7-8-10.4v-.1c4.4-1.3 6.6-4.9 6.6-9.8 0-8.6-5.2-11.3-12.5-11.3H489v44.7z"/><defs><path id="f" d="M-255.6 685.6l1081-2.3V171.1l-1081 2.3z"/></defs><clipPath id="g"><use xlink:href="#f" overflow="visible"/></clipPath><path clip-path="url(#g)" fill="#FFF" d="M450.1 331.4l11.4 27.1v17.6h8.9v-17.6l11.4-27.1h-9.6l-6.2 17.3h-.1l-5.8-17.3h-10zm-28.7 44.7h8.9v-18.9h4.7c3.6 0 5.1 2.1 5.2 5.6l.2 8.6c.1 1.8.2 3.4 1.1 4.7h9.6v-.4c-1.7-.9-1.9-3.3-2-8-.1-9.4-1-12.8-7.1-13.6v-.1c5-1.1 7.3-5.1 7.3-11 0-7.6-4.4-11.5-11.7-11.5h-16.4l.2 44.6zm8.8-38h4.2c4 0 6.2 2.1 6.2 6.2 0 4.8-2.4 6.7-6.6 6.7h-3.7v-12.9zm-41.2-6.7v31.2c0 11.9 6.8 14.4 14 14.4s14-3 14-14.4v-31.2h-8.9v31.2c0 4.4-1 7.8-5.2 7.8-4.1 0-5.2-3.3-5.2-7.8v-31.2H389zM366.1 356h3.8c3.9 0 6.8 1.5 6.8 6.7s-2.9 6.8-7.1 6.8h-3.4l-.1-13.5zm0-17.9h3.2c4.4 0 6.4 1.6 6.4 5.8 0 4.2-2.2 5.9-7.1 5.9h-2.5v-11.7zm-8.8 38h14.9c10.3 0 13.7-6.1 13.7-13.1 0-5.9-3.1-9.7-8-10.4v-.1c4.4-1.3 6.6-4.9 6.6-9.8 0-8.6-5.2-11.3-12.5-11.3h-14.8l.1 44.7zm-32.1-14v1.8c0 8.3 3.9 13 14 13 9.6 0 15.3-4.3 15.3-13.7 0-5.4-1.7-8.9-8.4-11.8l-6.8-3c-3.8-1.6-4.6-3.3-4.6-6.1 0-2.6 1-5.2 5-5.2 3.4 0 4.8 2.4 4.8 6.6h8.5v-1.3c0-8.6-5.7-12-13.6-12-8.4 0-13.6 4.4-13.6 13.1 0 7.4 3.6 10.8 11.5 13.5 5.8 2.1 7.9 3.6 7.9 7.6 0 3.8-2.6 5.5-5.3 5.5-4.7 0-5.8-2.7-5.8-6.9v-1.3l-8.9.2zm-22.6-24h3.8c6.8 0 7.6 5.2 7.6 15.3 0 12.1-1.2 16.1-7.4 16.1h-3.9v-31.4zm-8.9 38h14c11.7 0 15.1-7.1 15.1-23 0-13.1-2.2-21.7-14.5-21.7h-14.5l-.1 44.7zm-4.9 0v-44.7H280v44.7h8.8zm-33.1-38h3.8c6.8 0 7.6 5.2 7.6 15.3 0 12.1-1.2 16.1-7.4 16.1h-3.9v-31.4zm-8.9 38h14c11.7 0 15.1-7.1 15.1-23 0-13.1-2.2-21.7-14.5-21.7h-14.5l-.1 44.7z"/><defs><path id="h" d="M-236.4 685.6l1081.1-2.3V171.1l-1081.1 2.3z"/></defs><clipPath id="i"><use xlink:href="#h" overflow="visible"/></clipPath><path clip-path="url(#i)" fill="#131F48" d="M220.3 417.3c0 .6-2 2.1-2.3.7.6-.9 1.5-.2 2.3-.7"/><defs><path id="j" d="M-236.4 685.6l1081.1-2.3V171.1l-1081.1 2.3z"/></defs><clipPath id="k"><use xlink:href="#j" overflow="visible"/></clipPath><path clip-path="url(#k)" fill="#131F48" d="M218.8 416.7c-.4.6-1.7 2.2-2.5 1.1.5-.8 1.5-.7 2.5-1.1"/><defs><path id="l" d="M-236.4 685.6l1081.1-2.3V171.1l-1081.1 2.3z"/></defs><clipPath id="m"><use xlink:href="#l" overflow="visible"/></clipPath><path clip-path="url(#m)" fill="#131F48" d="M218.7 419.2c-.7.8-2 .6-2.4-.4 1.3-1 1.5.7 2.4.4"/><defs><path id="n" d="M-236.4 685.6l1081.1-2.3V171.1l-1081.1 2.3z"/></defs><clipPath id="o"><use xlink:href="#n" overflow="visible"/></clipPath><path clip-path="url(#o)" fill="#131F48" d="M216.6 416.8c-.5.6-2 1.7-2.5.6.6-.9 1.7-.5 2.5-.6"/><defs><path id="p" d="M-236.4 685.6l1081.1-2.3V171.1l-1081.1 2.3z"/></defs><clipPath id="q"><use xlink:href="#p" overflow="visible"/></clipPath><path clip-path="url(#q)" fill="#131F48" d="M216.4 419.7c-.5.6-2.2-.3-2.1-1.5 1.1-.7 1.3 1.2 2.1 1.5"/><defs><path id="r" d="M-236.4 685.6l1081.1-2.3V171.1l-1081.1 2.3z"/></defs><clipPath id="s"><use xlink:href="#r" overflow="visible"/></clipPath><path clip-path="url(#s)" fill="#131F48" d="M214.6 416.4c-.5.6-2.1 1.3-2.4.4.6-1 1.7-.6 2.4-.4"/><defs><path id="t" d="M-236.4 685.6l1081.1-2.3V171.1l-1081.1 2.3z"/></defs><clipPath id="u"><use xlink:href="#t" overflow="visible"/></clipPath><path clip-path="url(#u)" fill="#131F48" d="M212.9 415.4c.3.4-1.3.7-1.7.8-.1-.3-.3-.2-.4-.6.5-.8 1.5-.2 2.1-.2"/><defs><path id="v" d="M-236.4 685.6l1081.1-2.3V171.1l-1081.1 2.3z"/></defs><clipPath id="w"><use xlink:href="#v" overflow="visible"/></clipPath><path clip-path="url(#w)" fill="#131F48" d="M211.6 418.7c-.6-.3-1.7-1.6-1-2.4 1.3-.1.7 1.5 1 2.4"/><defs><path id="x" d="M-236.4 685.6l1081.1-2.3V171.1l-1081.1 2.3z"/></defs><clipPath id="y"><use xlink:href="#x" overflow="visible"/></clipPath><path clip-path="url(#y)" fill="#131F48" d="M210.3 415.7c-.8 0-1.2-.8-1.7-1.5.5.4 1.1.9 1.7 1.5"/><g><defs><path id="z" d="M-236.4 685.6l1081.1-2.3V171.1l-1081.1 2.3z"/></defs><clipPath id="A"><use xlink:href="#z" overflow="visible"/></clipPath><path clip-path="url(#A)" fill="#131F48" d="M214 419.3c-.4.3-2.2-.5-2-1.7 1.1-.8 1.3 1.1 2 1.7"/></g><g><defs><path id="B" d="M-236.4 685.6l1081.1-2.3V171.1l-1081.1 2.3z"/></defs><clipPath id="C"><use xlink:href="#B" overflow="visible"/></clipPath><path clip-path="url(#C)" fill="#131F48" d="M212 462.8c.5-.3 1-.4 1.6-.5.3.6 1 1.1.7 1.9-1 .6-2.2-.4-2.3-1.4"/></g><g><defs><path id="D" d="M-236.4 685.6l1081.1-2.3V171.1l-1081.1 2.3z"/></defs><clipPath id="E"><use xlink:href="#D" overflow="visible"/></clipPath><path clip-path="url(#E)" fill="#131F48" d="M213.6 464.8c-.4.1-.6.3-1.1 0 .1-.2.1-.3 0-.4.3-.3.8.3 1.1.4"/></g><g><defs><path id="F" d="M-236.4 685.6l1081.1-2.3V171.1l-1081.1 2.3z"/></defs><clipPath id="G"><use xlink:href="#F" overflow="visible"/></clipPath><path clip-path="url(#G)" fill="#131F48" d="M213.9 462c-.6 0-1.1.3-1.8.2-.1-.6 0-1.2-.7-1.5.3-.2.7-.4 1.1-.4.7.5.8 1.2 1.4 1.7"/></g><g><defs><path id="H" d="M-236.4 685.6l1081.1-2.3V171.1l-1081.1 2.3z"/></defs><clipPath id="I"><use xlink:href="#H" overflow="visible"/></clipPath><path clip-path="url(#I)" fill="#131F48" d="M212.2 465.4c-1.4-.1-.8-1.1-1.6-1.8.2-.6.8.1 1-.6.7.7 1 1.4.6 2.4"/></g><g><defs><path id="J" d="M-236.4 685.6l1081.1-2.3V171.1l-1081.1 2.3z"/></defs><clipPath id="K"><use xlink:href="#J" overflow="visible"/></clipPath><path clip-path="url(#K)" fill="#131F48" d="M211.3 465.5c-.7.3-1.4-.4-2-.8.4-.3.8-.6 1.1-1.1.5.5.4 1.2.9 1.9"/></g><g><defs><path id="L" d="M-236.4 685.6l1081.1-2.3V171.1l-1081.1 2.3z"/></defs><clipPath id="M"><use xlink:href="#L" overflow="visible"/></clipPath><path clip-path="url(#M)" fill="#131F48" d="M213 459.9c-1 .1-1.8.9-2.9.6.2-.5-.5-.7-.2-1.2 1-.2 2 0 3.1.6"/></g><g><defs><path id="N" d="M-236.4 685.6l1081.1-2.3V171.1l-1081.1 2.3z"/></defs><clipPath id="O"><use xlink:href="#N" overflow="visible"/></clipPath><path clip-path="url(#O)" fill="#131F48" d="M211.6 463l-.9.3c-.4-.7-.6-1.5-.3-2.4 1.1-.3 1.8 1 1.2 2.1"/></g><g><defs><path id="P" d="M-236.4 685.6l1081.1-2.3V171.1l-1081.1 2.3z"/></defs><clipPath id="Q"><use xlink:href="#P" overflow="visible"/></clipPath><path clip-path="url(#Q)" fill="#131F48" d="M208.5 464c.2-.7.1-1.3.2-2 .6.4.8-.5 1.4-.2.2.9-.1 3-1.6 2.2"/></g><g><defs><path id="R" d="M-236.4 685.6l1081.1-2.3V171.1l-1081.1 2.3z"/></defs><clipPath id="S"><use xlink:href="#R" overflow="visible"/></clipPath><path clip-path="url(#S)" fill="#131F48" d="M207.8 461.2c0-1 .9-1.6 1.6-1.7 1.6.9-.4 3.7-1.6 1.7"/></g><g><defs><path id="T" d="M-236.4 685.6l1081.1-2.3V171.1l-1081.1 2.3z"/></defs><clipPath id="U"><use xlink:href="#T" overflow="visible"/></clipPath><path clip-path="url(#U)" fill="#131F48" d="M207.5 461.3c.8.5 1.1 1.8.5 2.4-.8-.6-1-1.4-.5-2.4"/></g><g><defs><path id="V" d="M-236.4 685.6l1081.1-2.3V171.1l-1081.1 2.3z"/></defs><clipPath id="W"><use xlink:href="#V" overflow="visible"/></clipPath><path clip-path="url(#W)" fill="#131F48" d="M209.7 465.6c-1-.8-2.2-.9-2.3-2.1.2.4 2.3 1.2 2.3 2.1"/></g><g><defs><path id="X" d="M-236.4 685.6l1081.1-2.3V171.1l-1081.1 2.3z"/></defs><clipPath id="Y"><use xlink:href="#X" overflow="visible"/></clipPath><path clip-path="url(#Y)" fill="#131F48" d="M205.9 458.3c.8.2 1.2 1 1.6 1.9-.6-.5-1.2-1.1-1.6-1.9"/></g><g><defs><path id="Z" d="M-236.4 685.6l1081.1-2.3V171.1l-1081.1 2.3z"/></defs><clipPath id="aa"><use xlink:href="#Z" overflow="visible"/></clipPath><path clip-path="url(#aa)" fill="none" stroke="#131F48" stroke-width=".27" stroke-linecap="round" stroke-linejoin="round" stroke-miterlimit="10" d="M205.9 458.3c.8.2 1.2 1 1.6 1.9-.6-.5-1.2-1.1-1.6-1.9z"/></g><g><defs><path id="ab" d="M-236.4 685.6l1081.1-2.3V171.1l-1081.1 2.3z"/></defs><clipPath id="ac"><use xlink:href="#ab" overflow="visible"/></clipPath><path clip-path="url(#ac)" fill="#131F48" d="M177.8 309.5c0-.1 0-.1 0 0v-.1c-.1-.1-.1 0 0 .1-.1-.1-.1-.1 0 0m.1.9c.1-.1.1-.1.1-.2s0-.1-.1-.1-.1.1-.1.1c.1.1.1.1.1.2m-1-.4v.3c0 .1-.1.2 0 .3.1-.1.1-.3.1-.4 0-.1 0-.1-.1-.2m.8 1c.1 0 .1 0 .2-.1v-.1c0-.1-.2-.2-.3-.2-.1 0-.1.1-.1.2s0 .1.1.2c-.1-.1 0-.1.1 0m-.5-2.5c.1 0 .2 0 .3.1.3.1.6.3.8.5.1.2.2.3.2.5 0 .1 0 .2.1.3 0 .3 0 .6-.2.8 0 0 0 .1-.1.1-.2.2-.4.3-.6.5-.2.1-.4.1-.6.1-.3-.1-.6-.1-.8-.3h-.1c-.2 0-.3-.2-.3-.4 0-.1-.1-.2-.1-.3-.1-.1-.1-.3-.1-.5s.1-.4.2-.6c.1-.2.2-.4.4-.5.2-.2.5-.3.9-.3"/></g><g><defs><path id="ad" d="M-236.4 685.6l1081.1-2.3V171.1l-1081.1 2.3z"/></defs><clipPath id="ae"><use xlink:href="#ad" overflow="visible"/></clipPath><path clip-path="url(#ae)" fill="#131F48" d="M174.3 308.2c-.1 0-.1-.1 0 0-.1-.1-.1 0-.2 0 0 0 0 .1.2 0-.1.1-.1 0 0 0m-.4 1.3h.2c.2 0 .3-.1.4-.1l.1-.1c0-.1-.1-.2-.2-.2-.2 0-.5.2-.5.4m-.2-1.1h-.2c-.1 0-.2 0-.3-.1 0-.1 0-.2.1-.3h.1c.1 0 .1 0 .1-.1s-.1-.2-.2-.1c-.2.1-.4.1-.5.3v.1c.1.2.1.4.4.4h.1c.1.1.1.2-.1.3 0 0-.1 0-.1.1 0 0-.1.1 0 .1.1.1.2.2.3 0l.2-.2c.1 0 .1-.1.1-.2v-.3m.3-.5l.2-.2c.1-.2.4-.1.5 0 .3.4.4.8.3 1.3 0 .1 0 .1-.1.2-.2.1-.2.4-.4.5-.1.1-.3.1-.4.1-.2-.1-.3-.1-.5-.1h-.1c-.2-.1-.3-.1-.5-.2-.1-.1-.2-.1-.2-.2-.1-.2-.2-.5-.2-.7v-.2c0-.3.2-.6.4-.8.1-.1.1-.1.2-.1.2-.1.3-.1.5-.1.2-.1.4.1.4.3v.2c-.2-.2-.2-.1-.1 0"/></g><g><defs><path id="af" d="M-236.4 685.6l1081.1-2.3V171.1l-1081.1 2.3z"/></defs><clipPath id="ag"><use xlink:href="#af" overflow="visible"/></clipPath><path clip-path="url(#ag)" fill="#131F48" d="M180.5 301.1c-.1 0-.1 0 0 0h-.1.1c-.1 0-.1 0 0 0m-.4.5c0-.1 0-.1 0 0v-.1c-.1 0-.1 0 0 .1-.1-.1-.1 0 0 0m-.3-.2c-.1-.1-.1-.1-.2-.1h-.1c.1 0 .2.1.3.1m-.7.9c0 .1.1.1.2.1l.1-.1c0-.1-.1-.1-.1-.1-.1.1-.1.1-.2.1m.9.1c.1 0 .1.1.2.1.1.1.2.1.3-.1l.3-.6v-.3c0-.1-.1-.1-.1-.1l-.1.1v.1c.1.2.1.3-.1.5-.1.1-.1.1-.2.1s-.1-.1-.2-.1c-.1-.1-.1-.2-.2-.3-.1-.1-.1-.2-.3-.2-.1 0-.3-.1-.3-.2s-.1-.1-.2-.1-.1.1-.1.2 0 .3.1.4l.1.1.1-.1v-.1l.1-.1h.1c0 .2.2.3.1.5v.1c0 .1.1.1.2.2 0 .1.1.1.2.1s.1 0 .2-.1c-.2 0-.2-.1-.2-.1m-1.4-.4c-.1-.2-.1-.5 0-.8.1-.3.4-.6.7-.7.2-.1.5-.1.7-.1.1 0 .2.1.3.1.2.1.5.3.5.5.2.3.2.6.1 1 0 .1-.1.2-.1.3-.1.1-.2.2-.3.2-.1 0-.1 0-.2.1-.1.2-.2.2-.4.3-.3 0-.5 0-.8-.1-.3-.1-.5-.3-.6-.6.1 0 .1-.1.1-.2"/></g><g><defs><path id="ah" d="M-236.4 685.6l1081.1-2.3V171.1l-1081.1 2.3z"/></defs><clipPath id="ai"><use xlink:href="#ah" overflow="visible"/></clipPath><path clip-path="url(#ai)" fill="#131F48" d="M177.8 304.1c0-.1 0-.1 0 0 0-.1 0-.1-.1-.2v.1l.1.1m.5 1.2c.1-.1.1-.2.1-.3 0-.1-.1-.2-.2-.1-.1 0-.2.1-.1.2.1 0 .2.1.2.2m-1.5-.2c0 .1.1.3.1.4 0 .1 0 .3.1.3.1-.2 0-.4 0-.6 0 0 0-.1-.2-.1m1.3 1c.1-.1.2-.1.2-.2v-.2c-.1-.1-.4-.2-.5-.1-.1.1-.1.2-.1.2 0 .1.1.2.2.2.1.1.2.1.2.1m-1.4-3.1h.4c.4.1.8.2 1.2.5.2.2.4.4.4.6 0 .1.1.3.2.4.1.4.2.8.1 1.1 0 0 0 .1-.1.1-.2.3-.5.5-.7.8-.2.2-.5.3-.8.3-.4 0-.8.1-1.2-.2h-.1c-.3 0-.4-.2-.5-.4-.1-.1-.1-.2-.3-.3-.2-.1-.3-.3-.3-.6-.1-.3 0-.6.1-.9.1-.3.2-.6.4-.8.3-.3.7-.5 1.2-.6"/></g><g><defs><path id="aj" d="M-236.4 685.6l1081.1-2.3V171.1l-1081.1 2.3z"/></defs><clipPath id="ak"><use xlink:href="#aj" overflow="visible"/></clipPath><path clip-path="url(#ak)" fill="#131F48" d="M220.5 309.4c.6-.7-1-1.8-1.7-.9-.2 1 1.2 1.5 1.7.9m-1.5 2.4c-.2-.3-.5-.3-.8-.2-.2.5.6.7.8.2m-4 .8h-.1c-.1-.5.7-1.2 1.2-1.9.7-1.1 1.4-3 3.2-3.2 2.5-.2 3.6 3.6.9 4.8-1.7.7-3-.2-4.9.3-.2.1-.3.1-.3 0"/></g><g><defs><path id="al" d="M-236.4 685.6l1081.1-2.3V171.1l-1081.1 2.3z"/></defs><clipPath id="am"><use xlink:href="#al" overflow="visible"/></clipPath><path clip-path="url(#am)" fill="#131F48" d="M217.7 409v1.3c.1.4.2.6.3.8.1.1.2.2.4.2h.2c.1 0 .2-.1.3-.2.1-.1.2-.2.1-.3v-.1h-.1-.5s-.1-.1-.1-.2c-.1-.2-.1-.5-.1-.7h.4c.2 0 .4 0 .5-.1.1 0 .1-.1.1-.1v-.1s0-.1-.1-.1c0 0-.1 0-.2-.1h-.7c.2-.8.1-1.2 0-1.2h-.1c-.2.1-.3.4-.4.9m-1.6 0v1.5c.1.3.2.5.4.6.1.1.2.1.3.1s.1 0 .2-.1c.1 0 .1-.1.1-.2v-.1c0-.1-.1-.2-.1-.2-.1 0-.2-.1-.2-.2v-.4-1c.1-.8.1-1.3 0-1.4-.1-.1-.1-.1-.2-.1s-.1 0-.2.1-.2.5-.3 1.4m-1 1.7c.1-.1.1-.3.1-.4v-.5c0-.4-.1-.7-.2-.9-.1-.2-.3-.3-.6-.4H214.1c-.1 0-.2.1-.3.1-.1.1-.2.2-.2.3v.2c.1.1.2.1.4-.1.1-.1.2-.1.3-.1.1 0 .2.1.3.2 0 .1.1.1.1.2v.1h-.1c-.2 0-.5.1-.7.3-.2.2-.4.5-.4.7 0 .2 0 .4.2.6.1.2.3.3.5.3.1 0 .3 0 .5-.1.2 0 .3-.1.3-.1 0-.1.1-.2.1-.4m-.5-.2s-.1.1-.2.1-.2.1-.3 0h-.1c-.1 0-.1-.1-.1-.3v-.2c0-.1.1-.1.2-.2.2-.1.3-.2.4-.2.1 0 .1.1.2.2v.4c0 .1 0 .1-.1.2m-4.5-2.4c-.1 0-.2.1-.3.2-.3.3-.5.7-.5 1.2v.3c0 .3 0 .4.1.5 0 .1.1.1.2.1s.1 0 .1-.1.1-.2.1-.5c0-.4.1-.7.2-.9.1-.3.3-.4.4-.2 0 .1.1.2.2.5s.1.6.1.8c0 .2 0 .4.1.5 0 .1.1.1.2.1s.2 0 .2-.1.1-.3.1-.5c0-.3.1-.5.1-.7.1-.2.1-.3.2-.3s.1 0 .2.1.2.2.2.4c0 .1 0 .3.1.7 0 .5.2.7.4.7.1 0 .1-.1.2-.1v-.1-.6c0-.4-.1-.6-.1-.8 0-.2-.1-.3-.3-.5-.1-.2-.3-.3-.4-.3h-.4c-.1 0-.2.1-.3.2l-.1.1c-.1-.1-.2-.2-.2-.3l-.2-.2c-.1 0-.1-.1-.3-.1-.2-.1-.3-.1-.3-.1"/></g><g><defs><path id="an" d="M-236.4 685.6l1081.1-2.3V171.1l-1081.1 2.3z"/></defs><clipPath id="ao"><use xlink:href="#an" overflow="visible"/></clipPath><path clip-path="url(#ao)" fill="#131F48" d="M207 472.2c.1 0 .2.1.3.2.1.1.2.2.3.1.1 0 .1-.1.1-.3 0-.1-.1-.3-.2-.4-.1-.1-.3-.2-.4-.2-.2 0-.5.1-.7.3-.2.2-.2.4-.2.6.2.7.2 1 .2 1.1 0 .1-.1 0-.2 0l-.3-.3-.3-.3c-.1 0-.1.1-.1.1-.1.1-.1.2 0 .3.1.2.2.4.4.6.4.3.7.3.9 0l.1-.1c0-.1.1-.1.1-.2v-.3c0-.3-.1-.5-.1-.7-.1-.2-.1-.4 0-.5-.1 0 0-.1.1 0m-2.6.3c.3 0 .5-.1.8-.3.1-.1.3-.2.4-.3 0-.1.1-.1.1-.2.1-.2.1-.5 0-.7-.1-.2-.2-.3-.3-.5l-.1-.1c-.1-.1-.2-.2-.3-.2-.2 0-.4.1-.5.2-.1.1-.4.5-.8 1.1-.3.5-.5.8-.6.9-.1.2-.1.3-.1.3 0 .1 0 .1.1.1h.1c.1 0 .1 0 .2-.1 0 0 .1-.1.2-.3.1-.2.2-.3.2-.3h.1c0 .3.2.4.5.4m.9-.9c-.1.1-.3.2-.5.3-.2.1-.3.1-.5.1s-.3 0-.3-.1c0 0 0-.1.2-.3 0-.1.1-.1.2-.2.2-.3.4-.5.5-.6.1-.1.2-.1.2 0 0 0 .1 0 .1.1l.1.1c.1.1.1.2.1.2 0 .1-.1.3-.1.4m-3.3-2.8l-.3.3c-.1.1-.2.3-.2.5-.1.3 0 .6.2.9.1.1.1.2.2.2.1.1.2.1.3.2.2.1.4.1.6.1.3-.1.5-.2.7-.5l.1-.1c.2-.2.3-.5.3-.7 0-.3-.1-.6-.3-.8-.1-.1-.1-.1-.2-.1 0 0-.1 0-.1-.1h-.3c-.4-.2-.8-.1-1 .1m-.1 1.1c0-.1 0-.2.1-.4l.1-.1c.1-.2.3-.3.6-.4h.5c.1.1.1.2.2.3v.4c0 .1-.1.2-.1.2 0 .1-.1.1-.2.2s-.3.2-.4.2c-.1 0-.3-.1-.4-.2-.3 0-.3-.1-.4-.2m-1.3-.3c0-.1.1-.1 0 0 .1-.1.2-.2.2-.3 0-.2.1-.3.2-.4.2-.5.3-.9.3-1.2 0-.3-.2-.5-.5-.5h-.2c.2-.3.3-.5.4-.6.1-.2.2-.4.3-.5.1-.2.1-.3 0-.4h-.2s-.1.1-.3.4c-.2.2-.4.5-.6.9-.4.6-.7.9-.8 1.1-.1.2-.2.3-.1.3.1.1.1.2.2.2s.2-.1.4-.3c.1-.1.3-.3.5-.4.2-.1.3-.2.4-.1 0 0 0 .2-.1.5-.2.5-.3.8-.4 1 0 .1 0 .3.1.3h.2"/></g><g><defs><path id="ap" d="M-236.4 685.6l1081.1-2.3V171.1l-1081.1 2.3z"/></defs><clipPath id="aq"><use xlink:href="#ap" overflow="visible"/></clipPath><path clip-path="url(#aq)" fill="#131F48" d="M167.3 311.7c-.2 0-.3.1-.4.1-.3.1-.6.2-.8.3-.3.2-.5.3-.7.5-.1.1-.1.3-.1.5 0 .1 0 .1.1.2s.1.2.3.3c.1.1.2.1.3.1 0 0 .1 0 .1-.1v-.1-.2c0-.1-.1-.2-.1-.3 0 0 0-.1.1-.2.2-.1.4-.3.7-.3.1.2.1.3.1.4.1.2.1.4.2.4l.1.1s.1 0 .1-.1l.1-.1v-.2-.2-.3-.2c.8-.1 1.1-.2 1.1-.4 0 0 0-.1-.1-.1-.3-.1-.6-.1-1.1-.1m-.4-1.4c.1.1.1.2.1.4s0 .3.1.3.1 0 .2-.1.1-.3.1-.4c0-.2-.1-.3-.2-.4-.2-.2-.4-.3-.7-.2-.3 0-.4.1-.6.4-.3.6-.5.9-.5.9-.1 0-.1 0-.1-.1v-.5c0-.3 0-.4-.1-.4h-.2c-.1 0-.2.1-.2.2-.1.2-.1.4 0 .7.1.5.3.7.7.6h.1c.1 0 .1 0 .2-.1.1 0 .1-.1.2-.2.1-.2.3-.4.3-.6.1-.2.2-.3.3-.4.1-.3.2-.2.3-.1m-2.1-1.1c.1 0 .3.1.4 0 .1 0 .3-.1.5-.2.4-.2.7-.3.8-.5.2-.2.2-.4.2-.7v-.1c0-.1 0-.2-.1-.2 0-.1-.1-.2-.2-.2-.1-.1-.2-.1-.3-.1-.1 0-.2 0-.2.1-.1.1 0 .2.2.3.1.1.2.2.2.3 0 .1 0 .2-.1.3l-.1.1h-.1v-.1c-.1-.2-.2-.5-.5-.6-.3-.2-.5-.2-.8-.2-.2.1-.4.2-.5.3-.1.2-.2.4-.1.6 0 .1.1.3.2.4.1.2.2.3.2.3.1.1.2.2.3.2m.1-.5l-.2-.2c-.1-.1-.1-.2-.1-.3v-.1c0-.1.1-.2.2-.2h.2c.1 0 .1.1.2.1.2.1.2.2.3.3 0 .1 0 .2-.1.2-.1.1-.2.1-.3.1-.1.1-.1.1-.2.1m.7-4c-.2-.1-.4-.1-.7-.1h-.2c-.6.1-.8.5-.7 1.2v.4c0 .1.1.1.2.2s.2.1.2.1c.1 0 .1-.2 0-.6 0-.3-.1-.5 0-.6 0-.1.1-.2.2-.2h.1s0 .1.1.3c.1.4.3.7.6.9.2.1.4.2.5.1.1 0 .1 0 .2-.1s.2-.3.2-.6v-.2c0-.2-.1-.4-.2-.5-.1-.2-.3-.3-.5-.3m0 1c-.1-.1-.2-.2-.2-.4v-.2h.1c.1 0 .1.1.2.1.1.1.2.2.2.4s0 .2-.1.3l-.2-.2m-.4-2c.4-.1.6-.3.6-.3v-.2c0-.1 0-.1-.1-.1 0 0-.2 0-.5.1s-.5.1-.8 0c-.3-.1-.5-.2-.5-.3 0-.1.2-.3.6-.4.1 0 .2-.1.2-.1.1 0 .1-.1.2-.1 0 0 .1 0 .1-.1l.1-.1v-.1l-.1-.1c-.1 0-.1-.1-.2 0h-.1c-.1 0-.1 0-.2.1-.5.2-.8.4-.9.6-.2.3-.2.6.1.9l.2.2h-.6c-.2 0-.3-.1-.4-.3-.1-.2-.1-.3-.1-.4v-.2h-.2c-.2 0-.3.1-.3.3v.2c0 .1.1.2.1.4.2.3.4.5.6.6.2.1.6.1 1 0 .5-.3.8-.4 1.2-.6"/></g><g><defs><path id="ar" d="M-236.4 685.6l1081.1-2.3V171.1l-1081.1 2.3z"/></defs><clipPath id="as"><use xlink:href="#ar" overflow="visible"/></clipPath><path clip-path="url(#as)" fill="#131F48" d="M227.5 312.6c-.1 0-.2.1-.3.1l-.3.3c-.1.1-.1.2-.1.3 0 .1-.1.1-.2 0-.1 0-.2 0-.2.1v.2s0 .1.1.1c.1.1.2.4.4.7.4.6.6.9.6 1H227.8s.1 0 .1-.1c0 0-.1-.3-.3-.7-.3-.5-.4-.8-.4-1.1 0-.2.2-.4.5-.4.3-.1.5-.2.4-.3-.1-.2-.3-.3-.6-.2m-3.1 2.4c0 .2.1.5.1.7 0 .1.1.1.1.2.3.5.8.7 1.4.4.1 0 .2-.1.2-.1l.1-.1s.1-.1.1-.2v-.3c0-.1-.2 0-.5.1-.2.1-.4.2-.5.2-.1 0-.2 0-.3-.2 0-.1-.1-.1 0-.1 0 0 .1-.1.2-.1.4-.2.6-.5.6-.8 0-.2 0-.4-.1-.5 0-.1-.1-.1-.1-.1-.1-.1-.3-.1-.6 0-.1 0-.1.1-.2.1-.2.1-.3.2-.4.4-.1 0-.2.2-.1.4m.9-.3l-.3.3c-.1 0-.1.1-.1 0v-.1-.2c0-.1.1-.2.3-.3.1-.1.2-.1.3 0-.1.1-.1.2-.2.3m-3 1.4c.1.1.1.3.2.4.2.3.3.5.5.7.3.3.5.4.7.5.2 0 .3 0 .5-.1l.1-.1c.1-.1.2-.2.2-.3v-.3l-.1-.1h-.1s-.1.1-.2.1c-.1.1-.2.1-.3.1 0 0-.1 0-.2-.1-.2-.1-.4-.3-.5-.5.1-.1.3-.2.3-.2.2-.1.3-.3.3-.4v-.2l-.1-.1h-.1c-.1 0-.1 0-.2.1-.1 0-.1.1-.2.1s-.2.1-.2.1c-.1 0-.1.1-.2.1-.3-.7-.5-1.1-.7-1l-.1.1c.1.3.1.6.4 1.1m.2 2.1c0-.1 0-.3-.1-.4-.1-.1-.2-.3-.3-.4l-.7-.7c-.2-.1-.4-.1-.7 0 0 0-.1 0-.1.1-.1 0-.1.1-.2.1-.1.1-.1.2-.2.3v.3c0 .1.1.2.1.2.1.1.2 0 .3-.3 0-.1.1-.2.2-.3.1-.1.2-.1.3 0 .1 0 .1.1.2.1v.1l-.1.1c-.2.1-.4.3-.4.7-.1.3 0 .6.1.8.1.2.3.3.5.4.2.1.4 0 .6-.1l.3-.3c.1-.2.2-.2.2-.3v-.4m-.5 0c0 .1-.1.1-.1.2l-.2.2h-.1c-.1 0-.2 0-.3-.2 0-.1 0-.1-.1-.2 0-.1 0-.2.1-.3.1-.2.1-.3.2-.4.1 0 .2 0 .2.1.1.1.2.2.2.3.1.2.1.3.1.3m-3.3.5c-.2-.3-.3-.4-.4-.5-.1-.1-.2 0-.2 0-.1 0-.1.1-.1.1s0 .1.1.3c.1.3.2.6.2.7v.5c-.1.2-.1.3-.1.3-.1 0-.2-.2-.4-.5s-.4-.6-.5-.7c-.1-.1-.2-.1-.3-.1-.1 0-.1.1 0 .2 0 .1.2.3.4.7.2.3.3.6.4.7l.2.2c.2.1.3.1.5 0 0 0 .1 0 .1-.1.2-.1.3-.4.3-.7 0-.2 0-.3.1-.3.1.1.1.1.2.1.2.1.3.2.5.1.2 0 .3-.2.4-.4.1-.3.1-.7-.1-1.2-.1-.2-.1-.3-.2-.4-.1-.1-.1-.2-.2-.3-.1-.2-.2-.2-.3-.2l-.1.1c0 .1 0 .3.2.7.1.3.2.5.2.7 0 .1 0 .2-.1.4-.1.4-.4.1-.8-.4"/></g><g><defs><path id="at" d="M-236.4 685.6l1081.1-2.3V171.1l-1081.1 2.3z"/></defs><clipPath id="au"><use xlink:href="#at" overflow="visible"/></clipPath><path clip-path="url(#au)" fill="#FFF" d="M144.6 323.5s41.9-4.2 70.4 2.1l-.9 27.8-70.6-2.5.1-1.8 1-25.6z"/></g><path fill="#FFC745" d="M143.6 343.2l71.7 7.7-5.5 29.6-8 19.4-3.6 12.7-1.3 25.8 1.7 13.4-4.2 2.7-15.2 6.2-32.3-10.1 3.1-11.9 4.3-19.1 1.8-14.4-3.1-7.8-7.4-17.1-2-17.5z"/><g><defs><path id="av" d="M31.5 293.9h437.4v212.5H31.5z"/></defs><clipPath id="aw"><use xlink:href="#av" overflow="visible"/></clipPath><path clip-path="url(#aw)" fill="#131F48" d="M193.6 322.2l-.1.1.1.1c0-.1.1-.1.1-.2 0 .1 0 0-.1 0m20.2 34.8c-.1-.1-.1-.2-.2-.2s-.2.1-.2.1c0 .1 0 .2.1.2.1.1.2 0 .3-.1m-54.2-33.9l-.2-.2c-.1 0-.2.1-.2.2s.1.2.2.2.2-.1.2-.2m25.8-.9c0-.3-.2-.5-.4-.5-.1 0-.3.2-.3.3 0 .2.2.4.4.4.1 0 .2-.1.3-.2m-35.8 5.9v-.2l-.6-.6c-.1-.1-.2 0-.3 0v.2c.1.2.3.3.5.5.1.2.3.1.4.1m47.9-6.3c.2.4.3.4.5.3.1-.1.2-.2.4-.3.2.1.3.3.5.3s.4-.2.6-.3c.1-.1.2-.2.4-.3h.3V322.1c.3.2.6.1.9.1-.1-.2-.2-.4-.2-.6.4-.2.7-.1 1-.1.3 0 .6.1.9.1.7 0 1.3.2 1.6 1 0 .1.1.1.2.2.4.1 1 0 1 .7.5-.1.7-.5 1.1-.3.2.1.2 0 .8-.6.2.2.4.5.8.4.3-.1.7-.1 1.1-.1.3.4.7.7 1.3.7h.1c.2.1.3.3.2.5-.2.2-.4.5-.7.7-.1 0-.2-.1-.3-.1-.1 0-.2-.1-.3-.1-.5.3-1 .5-1.6.2h-.3c-.8.1-1.5 0-2.3-.1-.8-.1-1.7 0-2.5 0H201.8c-1.4.1-2.9-.1-4.3-.2-.2 0-.4-.1-.6-.2-.2-.1-.5-.2-.7-.3-.2-.1-.5-.2-.7 0-.4.2-.7.2-1.1 0-.5-.2-1-.3-1.5-.1-.2.1-.4.1-.5 0-.4-.1-.7 0-1 .3-.1.1-.3.2-.4.4l-.1-.1c0-.7 0-.8-.6-.9-.2 0-.3-.1-.5 0-1.1.2-2.2-.1-3.3.1-.6.1-1.2 0-1.8-.1-.5-.1-.9 0-1.4.2-.3.1-.5.1-.8.1-.7-.1-1.5-.3-2.2-.3-.8 0-1.6 0-2.4.2-.5.1-1-.1-1.6-.2-.2 0-.4-.1-.6-.1-.2 0-.3 0-.5.1-.4.3-.8.3-1.3.2-.3 0-.7 0-1 .1-.5.1-1.1.1-1.6 0-.4-.1-.7-.1-1.1.1-.5.2-1 .2-1.6.2-.8 0-1.6-.1-2.4 0-.4 0-.7.1-1.1.2-.4.1-.8.2-1.3.1-.3-.1-.6-.1-.9 0-.9.2-1.9.2-2.8-.1-.7-.2-1.5-.2-2.2 0-1.1.3-2.2.5-3.3.3-.1 0-.3 0-.5.1-.4.2-.7.2-1.1 0-.1-.1-.3-.1-.4-.1-.4.2-.7-.1-1.1 0-.7 0-1.3.1-2 .1-.5 0-.9.4-1.1.9.3.7.4.9 1.5.3.1.1.3.2.5.4.2.1.3.4.5.5l.9.3c.3.2.4.5.7.6.2.1.4.2.7.3.2.1.4.1.6.2.6.4 1.4.4 2.1.6.2.1.4 0 .6 0 .6 0 1.2.1 1.6.7.3.4.6.6 1.1.1 0 .6.2.8.6.9.5.1 1 .3 1.4.8.2.3.5.3.8.2.5-.2.9-.3 1.4-.1.2.1.5-.1.7 0 .9.4 1.9.3 2.7.8.1.1.2.1.3.2.1 0 .3.1.4.1.8-.2 1.4.1 2 .4.2.1.5.2.7.1.3-.1.6-.1.8-.2.5-.2 1-.1 1.3.3.8-.6 2.4-.4 3.1.3.4-.1.8-.2 1.3-.2.2.2.3.4.5.7.2-.2.4-.4.5-.6.3.1.6.4.8.4.3 0 .6.1.9.2h.2c.4-.2.7 0 .9.2.1-.1.2-.1.3-.2.6-.6.8-.7 1.5-.4.4.2.9.3 1.3.5.2-.2.4-.3.6-.5.2.2.4.4.7.6.5-.6 1-.7 1.7-.3.3.2.5.2.8 0 .5-.3.9-.3 1.4-.1.6.1 1.2.1 1.8.1.5-.1.9 0 1.4.1.3 0 .6.1.8.1.4.1.9.1 1.1-.4.3.1.4.2.6.2.4.2.8.1 1.1-.2.1-.1.3-.2.4-.3 1 0 1.7-.7 2.6-1.1h.2c.5.3 1 .3 1.5 0 .8-.4 1.6-.6 2.5-.5h1c.2 0 .4-.1.6-.2.3-.2.6-.3.9-.3.3 0 .6-.1.9-.2.4-.2.9-.3 1.4-.3.1-.2.2-.4.2-.6.3-.1.6-.3.9-.4.7-.3 1.3-.3 1.9.3.3-.1.5-.2.8-.2.1.1.2.2.2.3.2.2.2.2.6.3v-.8c0-.3.1-.6.4-.7.5-.3.7-.7.8-1.2.1-.4.1-.7 0-1-.1-.3-.1-.6-.1-.8 0 0 .2-.1.3-.1.3.1.4.3.4.6 0 .4.1.8.3 1.1.1.1 0 .3 0 .5s-.1.4-.2.6c.4.3.6.7.7 1.1.1.3.1.5.1.8 0 .3 0 .6.1 1 0 .1.1.2.2.3.1.1.2.1.2.1.1 0 .2-.2.2-.2 0-.1 0-.3-.1-.5-.3-.5-.2-1.1-.2-1.7 0-.3.3-.4.5-.3l.2.2c.6.3.7.7.6 1.4-.2 1-.4 2-.1 2.9.1.3 0 .6-.1.9-.4.9-.4 1.9.1 2.8l.3.6c-.3.8-.3 1.5.1 2.2.1.2.1.4.1.5 0 .4-.1.7-.1 1.1 0 .2-.1.4-.1.6 0 .8 0 1.5-.1 2.3 0 .7-.1 1.5-.2 2.2-.1.6-.1 1.2-.3 1.7-.4.9-.2 1.8-.3 2.7l-.3 2.7c-.1.7-.1 1.3-.4 2-.1.2-.1.5 0 .8.1.5 0 .9-.2 1.3-.1.3-.2.6-.2.9 0 .3-.1.6-.1.9 0 .2-.1.4-.1.7.1.9 0 1.7-.2 2.6-.1.5-.1 1-.2 1.5 0 .4 0 .8-.2 1.1-.1.2-.1.4-.1.5 0 .7-.1 1.3-.6 1.8.1.6.2 1.1.3 1.6 0 .2 0 .5-.1.7-.2.3-.2.7-.1 1 .1.4.1.8-.2 1.1-.2.3-.3.7-.4 1.1 0 .2 0 .3-.1.5-.3.6-.3 1.3-.3 2 0 .6 0 1.2-.5 1.8-.4.6-.5 1.2-.1 1.9.2.2.1.5 0 .7-.3 1-.8 2-.8 3.2 0 .1 0 .2-.1.3-.5.8-.5 1.7-.7 2.5-.2.7-.5 1.4-.8 2.1-.4.9-.9 1.6-1.1 2.5 0 .1-.1.2-.2.3-.4.5-.7 1-1.1 1.6-.1.2-.3.4-.3.6 0 .5-.3.8-.6 1.2-.4.5-.6 1-.9 1.6-.1.3-.2.6-.4.9-.3.4-.5.8-.7 1.3-.5 1.1-1 2.2-1.4 3.3-.2.5-.5 1-.8 1.4-.2.2-.3.5-.5.7-.2.2-.3.5-.3.8 0 .6-.1 1.1-.5 1.5-.1.1-.2.3-.2.5-.1.6-.3 1.2-.8 1.6-.4.3-.5.8-.5 1.3.1 1-.2 1.9-.4 2.8-.1.4-.1.8-.2 1.1 0 .3-.1.5-.1.8 0 .2-.1.4-.1.6.1.5-.1 1-.4 1.3-.3.4-.3.8-.1 1.2.2.4.3.8.3 1.2 0 1.4-.1 2.8-.4 4.1-.1.6-.1 1.2-.1 1.8v4.3c0 .7-.2 1.4 0 2.2v.2c.1.6-.2 1.2-.1 1.9.2.6.1 1.2.1 1.8.2 1.7.1 3.5.1 5.2 0 .7-.1 1.3-.2 2-.1.4-.1.8.1 1.2.2.4.2.7 0 1.1-.1.1-.3.2-.4.1-.1-.2-.3-.4-.2-.6.2-.5 0-.9-.2-1.4-.1-.1-.1-.4-.1-.6.2-.7 0-1.4.1-2.1 0-.7-.1-1.4-.3-2.1-.3-1-.3-2.1-.2-3.2v-1.3c0-.6.1-1.3.2-1.9.1-1.1-.2-1.3-1.2-1.2-.6.1-1.1-.1-1.6-.2-.1-.2-.1-.4.1-.5.4-.3.9-.5 1.3-.8.2 0 .4.1.6.2.1-.1.2-.1.2-.2 0-.3.1-.6.1-1 0-.8-.1-1.7.1-2.5.1-.3 0-.7 0-1.1 0-1.3-.1-2.7-.1-4 0-.5.1-1 .2-1.4.1-.4.1-.8.2-1.1.3-.9 0-1.9 0-2.8.1-1 .1-1.9.1-2.9 0-.1 0-.2.1-.3.2-.3.2-.6.2-1 0-.8.4-1.2 1.2-1.4.3-.1.6-.1.8-.5-.2-.4-.5-.7-.7-1.1-.4-.5-.4-1 0-1.6.5-.8.9-1.7 1.4-2.5l.3-.6c.3-.7.5-1.5.7-2.2.1-.2.1-.4.3-.6.8-1.1 1.2-2.3 1.8-3.5.2-.4.4-.9.7-1.2.3-.4.6-.8.7-1.4.1-.4.3-.8.6-1.1.2-.4.5-.8.7-1.1.2-.4.3-.9.3-1.4 0-.3 0-.7.1-1.1 0-.2 0-.4.1-.4.6-.6.6-1.4.9-2.2.1-.4.2-.7.5-1 .2-.2.3-.5.5-.8.2-.3.2-.6.3-.9.1-.6.1-1.1.2-1.7.1-.5.2-1 .6-1.4.3-.3.4-.6.4-1 0-.2.1-.3.1-.5.1-.7.1-1.4.6-2-.1-.2-.2-.4-.3-.5-.3-.5-.2-.7.2-1.1.2-.2.4-.4.5-.7.1-.3.1-.6-.1-.8-.2-.2-.2-.5-.1-.8.1-.5.1-1 .2-1.5.1-.6.1-1.1.5-1.6.2-.3 0-.6 0-.8 0-.4-.2-.9.4-1.2-.2-.6-.1-1.1-.1-1.6.1-1.1.4-2.1.4-3.1v-.2c.1-.5.2-1.1.5-1.6-.1-.5.1-1 .3-1.5.1-.3.1-.6.2-.8.1-.6.1-1.2.4-1.8.1-.2.1-.4.1-.6-.2-1.1 0-2.2.3-3.3.1-.2.1-.4.1-.6.1-.5.3-1.1.4-1.6.1-.2.2-.4.2-.5 0-.8.5-1.3 1-1.8.2-.2.5-.3.5-.7-.1-.4-.4-.4-.7-.5-.2 0-.4-.1-.6-.1v-.6c.3-1.2.4-2.5.5-3.7.1-.9.2-1.9.1-2.8-.1-.4.3-.6.4-.8-.1-.3-.3-.6-.3-.9 0-.3 0-.6.1-1 0-.2.1-.4.1-.7 0-.4 0-.8.1-1.1.1-.4.3-.7.5-1-.2-.2-.3-.5-.5-.7l.6-.6v-.3c-.2-.5-.5-1-.7-1.4-.2-.3-.3-.6-.4-1-.1-.2-.3-.3-.6-.3-.2 0-.4.2-.4.4s.1.4.1.7v.7c-.7.1-1.3.2-2 .3-1 .1-1.9.4-2.8.6-1.2.2-2.3.4-3.5.6h-.3c-.4-.1-.7 0-1.1.2-.3.2-.7.2-1.1.2-.2 0-.5 0-.6.1-.3.2-.6.2-1 .2-.7 0-1.4.1-2.1.1h-.1c-.6.5-1.1.2-1.7 0-.2 0-.3-.1-.5-.2-.2.1-.3.2-.5.2-.2.1-.4.2-.5.1-.4-.1-.7 0-1.1.1-.2.1-.4.1-.6.1-.7-.1-1.3-.1-2-.1-.4 0-.8-.1-1.2 0-.5.1-.9 0-1.4 0h-1c-.6.1-1.2 0-1.8-.1-.1 0-.3-.1-.4-.1-.5.2-1.1 0-1.6-.1-.5 0-1.1-.2-1.6.1-.8 0-1.5.2-2.3-.1-.7-.3-1.4-.1-2.1-.1-.3 0-.7 0-1 .1h-.3c-.9.4-1.8.1-2.8.1-.4 0-.9.1-1.3.1h-2.6c-.2 0-.3-.1-.5 0-.6.2-1.1 0-1.6-.2-.1-.1-.3-.1-.5-.1-.8-.1-1.6-.3-2.4-.4-.2 0-.4-.1-.5-.2-.4-.3-.9-.4-1.3-.4-.5 0-1-.1-1.5-.4-.6-.3-1.2-.5-1.8-.9-.1-.1-.4-.1-.5-.1-.7 0-1.3 0-1.9-.4-.2-.1-.5-.2-.8-.2-.4 0-.8-.1-1.2-.3-.3-.2-.7-.1-1-.1-.5.1-1 0-1.4-.3-.3-.2-.8-.3-1.1-.4-1.2-.2-2.3-.9-3.5-1.2-.3-.1-.6-.4-.7-.7-.1-.4-.4-.6-.9-.5-.4.1-.7-.1-1-.2-.2 0-.3-.2-.3-.4s0-.5.2-.6l.9-.3h.7c.1 0 .2 0 .4-.1-.2-.4-.6-.4-.8-.7-.3.1-.5.2-.8.3.1-.5.1-.8.1-1.2 0-.2 0-.4-.1-.5-.1-.3-.4-.4-.5-.3-.2.1-.2.3-.2.5.2.5 0 .8-.2 1.3-.6-.4-1.3-.6-1.8-1.1l-.2-.2c0-.1.1-.3.2-.4.1-.1.2-.1.3 0 .2.1.3.2.4.4.3.2.6.1.6-.3v-.6c0-.3.2-.4.5-.5.2-.1.4-.1.6.1.1.1.1.2.2.2.3.3.7.3 1-.1l.3-.3h.2c.4.3.9.6 1.5.7.3-.1.5-.3.8-.4.3 0 .6 0 .9.1.5.1.9.1 1.2-.5v-.2c-.2-.1-.4-.3-.5-.4-.1-.1-.1-.4 0-.5.1-.2.5-.2.6 0 .2.6.9.8.9 1.5 0 .2.2.2.4.2s.3-.3.3-.4c-.1-.3-.2-.5-.4-.8.2-.1.4-.1.6-.2.1-.1.2-.3.3-.4.1-.1.2-.1.3 0 .1 0 .2.1.2.2.3.3.6.4 1 .2 0-.1 0-.2.1-.3 0-.1.1-.2.1-.3.1 0 .3 0 .3.1.2.4.4.4.8.4.2 0 .4 0 .6.1.4.1.7 0 .9-.4 0-.1.1-.1.2-.1.2.1.3.2.5.4.4-.1.7-.1 1.1-.2.2 0 .4-.1.6 0 .5.2.9 0 1.2-.3.2.2.4.4.6.5.2.1.5 0 .8 0 .1.1.1.2.2.3.3.5 1 .5 1.2-.1.3-.8.7-.9 1.6-.8.4 0 .8.3 1.2.1h.2c.8.4 1.7.1 2.6.1.3 0 .5.1.8.3.3-.2.7-.4 1.1-.2.2.1.5 0 .7-.1.1-.1.3-.1.4-.2l.3.3c.2.4.5.5.9.7.2.1.4 0 .5-.1.1 0 .2-.1.2-.2.3-.3.7-.5 1.1-.3.2.1.5.1.7 0 .5-.2.9-.1 1.3.2l.3.3c.2-.1.5-.1.7-.2.2.1.4.2.7.3.4-.3.8-.6 1.2-.8.2-.2.4-.2.7-.2.5 0 1.1-.1 1.6-.2.4-.1.9-.1 1.4 0 .3 0 .5.2.8.4.3 0 .6-.4 1 0 0 .1-.1.3-.2.5 0 .2.1.4.4.3.2 0 .3-.2.4-.4v-.3-.3c.7-.2 1.4 0 2.1 0 .3.4.4 1.2 1.3.8-.1-.2-.2-.3-.2-.5-.1-.2 0-.4.2-.4.1 0 .2-.1.3 0 .4.1.9 0 1.3 0h.4c.7.3 1.4.2 2.1.3.1 0 .3 0 .4.1.1-.5.7-.7 1.2-.6z"/><defs><path id="ax" d="M31.5 293.9h437.4v212.5H31.5z"/></defs><clipPath id="ay"><use xlink:href="#ax" overflow="visible"/></clipPath><path clip-path="url(#ay)" fill="#131F48" d="M151.2 449.6c.1-.1.2-.1.2-.2.1-.2 0-.3-.2-.2-.3 0-.5-.1-.6-.3-.1-.1-.2-.1-.2-.1-.1 0-.3.1-.4.2-.1.1 0 .3.2.4.3 0 .7.1 1 .2m1.4 3.7l-.3-.9c-.3-.1-.5-.2-.8-.3-.1-.1-.3-.1-.4-.2-.1 0-.1-.2-.1-.2 0-.1.1-.2.2-.2.2 0 .5 0 .7.1.4.1.7 0 1 0 .2 0 .4-.3.4-.5s-.2-.3-.3-.4c-.1 0-.2-.1-.3-.1-.7.4-1.2 0-1.7-.3-.3.1-.6.2-1 .1-.7-.2-1.1-.5-1.1-1.2 0-.4-.2-.7-.5-.9-.2-.1-.3-.2-.5-.3-.3-.3-.3-.5 0-.8.2-.1.4-.3.5-.6.1-.4.4-.5.8-.6.1 0 .3 0 .3.1.1.1 0 .2 0 .3 0 .1-.3.2-.2.5h.3c.3-.1.6-.1.8.1.3.2.7.2 1-.1.1.2.1.4.2.5.1.2.1.4.3.5.7.4 1 1.2 1.4 1.9.2.4.4.6.8.9.4.2.9.5 1.2.9.3.3.6.4 1 .4 0 .6-.1 1.3.7 1.5.2-.2.1-.3 0-.4-.2-.4-.1-.6.1-.6.3-.1.5 0 .6.4 0 .1 0 .2.1.3h1.6c.2 0 .4.1.5.1.3.1.7.3 1 .3.6-.1 1.1 0 1.6.3 1.7.3 3.3.9 5 1.2.2 0 .4.1.6.1 1.1.2 2.3.3 3.4.5.3 0 .6.1.8.2.9.3 1.8.4 2.8.5.4 0 .8.1 1.2.2.4.1.8.2 1.2.2 1.2 0 2.4.2 3.5.6.3.1.7.2 1 .3.4.1.8.1 1.2-.1.8-.3 1.6-.3 2.3-.7.1-.1.3-.1.5-.1.6.1 1.1-.1 1.7-.3.6-.2 1.1-.4 1.7-.5 1.2-.3 2.3-.9 3.5-1.3 1.3-.4 2.4-1.3 3.4-2.1.2-.1.3-.4.4-.6.2-.3.3-.6.5-.8.3-.4.7-.3.9.1.3.7.3 1.4.3 2.1 0 .3-.2.5-.4.7l-.6.3c-1.1.5-2.1 1.1-3.2 1.6-.5.2-1 .4-1.5.5-.2 0-.5.1-.7.3-.6.3-1.2.4-1.9.6-1.1.2-2.2.5-3.3.8-.2.1-.5.1-.7.2-1.4.3-2.7.3-4.1.5h-2.1c-1.1 0-2.2 0-3.4-.1-.2 0-.5-.1-.7-.2-.3-.2-.7-.2-1-.1-.7.3-1.5.2-2.2-.1-.1 0-.1-.1-.2-.1-1.3 0-2.6-.6-3.9-.4-.3 0-.6-.1-.8-.2-.4-.2-.7-.3-1.2-.4-.4-.1-.9-.2-1.3-.4-.5-.3-1-.5-1.6-.6-.7-.2-1.4-.4-2.2-.5-.2 0-.3-.1-.4-.1-.1 0-.3-.1-.4-.1-.5.2-.9 0-1.3-.2-.2-.1-.5-.2-.7-.2-.6-.1-1.2-.1-1.8-.1-.2 0-.4-.1-.5-.2l-.6-.3c-.5-.3-1-.5-1.5-.5-.3-.2-.9-.5-1.6-.8"/><defs><path id="az" d="M31.5 293.9h437.4v212.5H31.5z"/></defs><clipPath id="aA"><use xlink:href="#az" overflow="visible"/></clipPath><path clip-path="url(#aA)" fill="#131F48" d="M144.4 350.1l-.2-.2c-.1 0-.2.1-.2.2s.1.2.2.2l.2-.2m-.4 2.1c-.1.2-.2.3-.2.4 0 .1.2.2.3.2.1 0 .2-.1.2-.2-.1-.2-.2-.3-.3-.4m-.4-12.9c0 .3.2.6.4.5.2-.1.3-.2.3-.4s-.2-.4-.4-.3c-.2 0-.2.2-.3.2m.3-10.9c-.3 0-.5.2-.5.4s.1.3.3.3c.3 0 .5-.2.4-.4 0-.1-.2-.2-.2-.3m0 2.7c.5.3.9.5 1.2.7.1 0 .2 0 .3-.1 0 0 0-.2-.1-.2-.3-.2-.7-.3-1-.5-.1-.1-.2 0-.4.1m-.8 24.9c-.1-.3-.1-.6-.2-.9-.1-.3-.3-.5-.5-.8.1-.2.2-.4.4-.7 0-.2-.1-.4-.1-.6-.3-.7-.3-1.5-.1-2.2.1-.4.1-.8.1-1.1-.1-.6-.2-1.2-.1-1.8.1-.6 0-1.2 0-1.8.5-.3 1-.5 1.5-.7.3-.1.5-.3.5-.6 0-.2-.2-.5-.4-.4-.4 0-.7.2-1 .5-.3.2-.5.1-.6-.3 0-.3-.1-.5 0-.8.2-1.1 0-2.2-.1-3.3 0-.5-.1-1 .3-1.5.1-.2.1-.4 0-.6-.2-.5-.4-.9-.1-1.5.1-.1 0-.3 0-.5s0-.4-.1-.6c-.2-.6-.1-1.1.3-1.6-.2-.4-.5-.8-.4-1.3.1-.3.1-.5.5-.6.2-.1.2-.3.1-.5l-.1-.1c-.4-.2-.5-.5-.3-1 .1-.2.1-.4 0-.5-.3-.5-.2-.9.1-1.3-.1-.2-.2-.4-.3-.7.2-.3.3-.6.5-.9.3.1.5.2.8.3.3-.2.5-.4.8-.5v-.6c0-.4.3-.6.6-.3.2.1.4.3.5.5.3.6.5 1.2-.1 1.8l.6.3c.6.4.7 1.1.2 1.6-.2.3-.5.5-.6.9.1.2.3.4.4.7-.2.4-.2.8 0 1.2.1.2.1.4-.1.6-.3.2-.7.3-.9.1-.3-.3-.7-.4-.7-.9 0-.3-.2-.5-.4-.6-.3-.1-.6 0-.8.2-.1.4.4.5.5.8-.4.8-.4 1.6 0 2.4-.1.1-.2.3-.4.4-.3.3-.4.7-.4 1 0 .4.4.7.8.6.5-.1.9 0 1.4 0 .3 0 .4.2.3.5-.1.5-.3 1-.4 1.6l.6.3c.2.1.3.2.3.4v1.9c0 .7-.1 1.4-.6 2 .3.6.4 1.1-.1 1.6.3.5.3.9.3 1.5-.1 1 0 2-.1 3 0 .5 0 1-.3 1.4-.1.2-.1.4-.1.6v1.5c0 .4-.3.5-.7.4-.1 0-.3-.1-.5-.1-.3.8-.1 1.4-.8 1.6"/><defs><path id="aB" d="M31.5 293.9h437.4v212.5H31.5z"/></defs><clipPath id="aC"><use xlink:href="#aB" overflow="visible"/></clipPath><path clip-path="url(#aC)" fill="#131F48" d="M199.4 421.5v-.3c.2-.6.2-1.3.2-1.9 0-.5 0-1 .1-1.5.1-.9 0-1.8.3-2.7.1-.3.1-.6.1-.9.1-.7.2-1.5.3-2.2 0-.1.1-.3.1-.4 0-1.4.5-2.6.9-3.9.2-.6.5-1.2.7-1.8.1-.3.2-.5.3-.8.2-.5.2-1 .6-1.4.1-.1.2-.3.2-.4.3-.9.8-1.7 1.1-2.6.2-.6.6-1.2.9-1.8.3-.7.7-1.3 1.1-2 .3-.6.6-1.2.8-1.8.2-.6.6-1.1.7-1.7 0-.1.1-.2.2-.3.4-.5.5-1.2.8-1.7.3-.5.7-.9.9-1.6 0-.1.1-.2.2-.3.6-.8.8-1.9 1.5-2.8.1-.1.1-.2.1-.4 0-.1.1-.3.1-.4.1-.1.3-.2.4-.1.1.1.1.2.1.3 0 .1 0 .2-.1.3-.2.3-.3.6-.3 1 0 .3-.1.6-.2.8-.3.8-.7 1.6-1 2.4l-.3.6-.1.1c-.5 1-1 1.9-1.5 2.9-.1.3-.3.5-.5.7-.2.2-.4.5-.4.8v.2c-.5 1.1-1 2.2-1.6 3.3-.2.4-.5.7-.7 1.1-.1.3-.3.6-.3.9-.1.5-.3 1-.6 1.4-.1.1-.2.2-.2.3-.2.6-.4 1.3-.6 1.9-.1.3-.2.6-.2.8-.3 1-.7 2.1-.9 3.1-.2 1.1-.5 2.2-.5 3.3 0 1.2-.4 2.3-.2 3.4v.3c-.5.6-.2 1.4-.4 2.1v.4c.1.4 0 .7-.1 1.1-.3.8-.4 1.7-.3 2.5 0 .2.1.4.1.6-.1.5 0 .9 0 1.3v.4c0 .1-.2.2-.3.1-.3-.4-.6-.8-.8-1.3-.2-.4-.3-.9-.4-1.4-.3.2-.3.1-.3 0"/><defs><path id="aD" d="M31.5 293.9h437.4v212.5H31.5z"/></defs><clipPath id="aE"><use xlink:href="#aD" overflow="visible"/></clipPath><path clip-path="url(#aE)" fill="#131F48" d="M152.7 425.8c0-.4-.1-.7-.1-1 0-.2 0-.4.2-.5.6-.5.5-1.2.6-1.9v-.6c.1-.4.3-.6.7-.5.6.2 1.2.4 1.8.7.1.5.1 1 0 1.6-.1.3-.2.7-.2 1 0 .3-.1.6-.3.8-.4.5-.8.9-1.1 1.4-.2.3-.3.6-.4 1-.1.8-.4 1.4-.9 2-.3.4-.4.8-.5 1.2 0 .3-.1.5-.3.8-.5.5-.8 1.1-1 1.7-.1.3-.2.6-.2.9 0 .3 0 .6-.2.8-.5.6-.6 1.3-.4 2.1.1.2.1.4 0 .6-.2.4-.2.7-.1 1.1.1.5.1.9-.3 1.3-.1.1-.1.3-.1.5v.9c.1.5 0 1-.5 1.4-.2.2-.1.5.1.7 0 0 .1 0 .1.1.8.1.9.8 1.1 1.4-.2.3-.4.4-.6.3-.4-.3-.8-.5-1.3-.6-.1 0-.3-.1-.4-.2-.2-.1-.3-.3-.3-.6.1-1 .2-2 .6-2.9.1-.1.1-.3.1-.4-.1-.5.1-.9.2-1.3.1-.5.3-1 .2-1.5 0-.3.1-.7.2-1 .1-.2.2-.4.2-.6.1-1.1.6-2.2.7-3.3.1-.4.2-.9.3-1.3 0-.2.2-.4.2-.7 0-.9.4-1.7.6-2.6.1-.4.2-.7.5-1 .1-.1.2-.4.1-.5 0-.4.1-.9.7-1.3"/><defs><path id="aF" d="M31.5 293.9h437.4v212.5H31.5z"/></defs><clipPath id="aG"><use xlink:href="#aF" overflow="visible"/></clipPath><path clip-path="url(#aG)" fill="#131F48" d="M143.6 359c.1.1.2.1.3.1.1 0 .2-.1.2-.2s-.2-.3-.3-.2c-.1.1-.1.2-.2.3m1.1 9.5c0-.2 0-.3-.1-.4-.1-.4-.4-.6-.8-.7-.6-.1-.7-.2-.8-.8-.1-.3-.1-.6-.1-1 0-.7-.1-1.5-.2-2.2-.1-.6-.1-1.1.5-1.4-.1-.2-.2-.3-.2-.4-.2-.3-.3-.6.1-.9.2-.2.3-.5.1-.8-.4-.5-.3-.5.2-1.2-.2-.2-.4-.5-.7-.8.7-.3 1.3-.5 2-.8.1 0 .2.2.2.4v.5c-.2.9-.1 1.8 0 2.6 0 .3 0 .5-.2.7-.3.4-.3.8-.1 1.1.2.3.2.6.3.9l.3 1.2c.1.3.1.7.1 1 0 .4.1.7.2 1.1.2.5.3 1.1.3 1.6 0 .4.1.8.2 1.1.2.5.3 1.1.4 1.7 0 .2 0 .4.1.6.2.6.4 1.2.4 1.9 0 .1 0 .3.1.4.4 1.1.6 2.2.8 3.2.1.4.3.9.4 1.3.1.4 0 .7-.4.8-.2.1-.4.1-.5.2-.5.1-.5.1-.8-.3-.1-.1-.2-.3-.3-.3-.7-.1-.7-.7-.8-1.2-.1-.3.3-.7.7-.8.2 0 .4 0 .6-.3-.1-.2-.3-.4-.5-.7.1-.2.2-.4.2-.6.1-.2-.1-.4-.3-.5-.3 0-.6.1-.9.3-.1.1-.3.1-.3 0-.1-.1-.1-.3-.1-.4.1-.3.3-.5.5-.8h.8c0-.1.1-.2.1-.3-.2-.5-.6-.7-1-.5-.1.1-.2.2-.3.2-.1 0-.2.1-.2.1-.2-.1-.2-.2-.2-.4 0-.4 0-.8-.2-1.2-.1-.3-.1-.4.2-.7.1-.1.2-.1.2-.1.1-.1.3-.2.2-.4-.1-.1-.2-.2-.4-.3-.1-.1-.3-.1-.4-.1 0-.5.3-.9.7-1 .2 0 .3 0 .5-.1s.3-.2.5-.4c-.2-.1-.3-.2-.4-.3-.5.4-.6.3-.7.2"/><defs><path id="aH" d="M31.5 293.9h437.4v212.5H31.5z"/></defs><clipPath id="aI"><use xlink:href="#aH" overflow="visible"/></clipPath><path clip-path="url(#aI)" fill="#131F48" d="M154.3 419.9c-.1-.1-.1-.2-.1-.2.1-.5.2-1 .2-1.5s-.1-1-.1-1.5c.1-1.2.1-2.3.4-3.4 0-.2.1-.3.1-.5-.1-.9.1-1.7 0-2.6-.1-.5 0-1.1.2-1.6.3-1.1.3-2.3.3-3.4-.1-.8-.1-1.5 0-2.3v-.3c.1-.3.3-.5.4-.4.2.1.3.3.3.4.1.5.1 1 .2 1.4.1.4.3.8.4 1.3.1.3 0 .6.1 1 .1.5.1 1 .2 1.5.3.9.2 1.8.1 2.8 0 .4-.1.8-.1 1.1 0 .5-.1 1.1-.1 1.6 0 .3-.1.6-.1.9v2c0 .2-.1.5 0 .7.3.7 0 1.5 0 2.2 0 .4-.3.7-.7.8-.6.1-1.2 0-1.7 0"/><defs><path id="aJ" d="M31.5 293.9h437.4v212.5H31.5z"/></defs><clipPath id="aK"><use xlink:href="#aJ" overflow="visible"/></clipPath><defs><path id="aL" d="M31.5 293.9h437.4v212.5H31.5z"/></defs><clipPath id="aM"><use xlink:href="#aL" overflow="visible"/></clipPath><path clip-path="url(#aM)" fill="#131F48" d="M148.9 389.8c.1.1.3.1.4.2l.6.6c.3.2.6.5 1 .4.2 0 .5.1.7.2.8.2 1.2.7 1.4 1.5 0 .2 0 .3.1.5.1.5.2 1 .6 1.4.4.4.4.9.3 1.4 0 .1 0 .1-.1.2-.2.6-.1 1 .5 1.3.4.2.5.5.3.9s-.2.8-.2 1.2c0 .6 0 1.3-.1 1.9 0 .3-.2.5-.3.9.2.4.4.9.3 1.5 0 .2-.2.3-.3.5-.1.1-.4 0-.4-.2v-.1c.2-.9-.3-1.5-.7-2.1-.1-.1-.2-.2-.2-.3-.2-.4-.2-.7.1-1.1.1-.1.1-.2.1-.3-.1-.1-.3-.3-.5-.4-.3-.2-.4-.4-.4-.8v-1.5c-.1-.1-.1-.2-.2-.2-.5-.3-.6-.7-.6-1.2 0-.8-.3-1.4-.8-2-.2-.2-.3-.5-.4-.7.1-.2.2-.5.3-.7 0-.1-.1-.2-.1-.2-.3-.2-.5-.4-.7-.8-.2-.6-.5-1.1-.7-1.7-.1-.2 0-.3 0-.3"/><defs><path id="aN" d="M31.5 293.9h437.4v212.5H31.5z"/></defs><clipPath id="aO"><use xlink:href="#aN" overflow="visible"/></clipPath><path clip-path="url(#aO)" fill="#131F48" d="M192.6 434.6c-.8.2-1.6.4-2.3.7-.4.1-.8.3-1.2.5-.4.2-.9.4-1.4.3-.4 0-.7 0-1 .1-1 .2-2.1.1-3 .5-.8 0-1.7.2-2.5-.1h-.6c-.8.1-1.6.2-2.3.3-.3 0-.6.1-.8.2-.8.3-1.7.3-2.6.2-.2 0-.3-.1-.5 0-.6.3-1.2.1-1.7.2-1 0-2.1.1-3.1.1h-.5c-.2-.1-.3-.2-.3-.4 0-.1.1-.3.2-.4.1-.1.3-.1.4-.1 1-.1 2.1-.2 3.1-.3.6-.1 1.2-.1 1.9-.1.4.1.7 0 1.1-.1.4-.1.7-.2 1.1-.2 1.3 0 2.5-.4 3.7-.2h.2c1.2-.4 2.5-.2 3.7-.2h.8c.6-.1 1.2-.2 1.8.1.2.1.4.1.6-.1.3-.3.8-.4 1.2-.5 1.1-.2 2.2-.4 3.3-.8.9-.3 1.7-.7 2.5-1.1.1 0 .2-.1.3-.1.4-.1.7 0 .8.4"/><defs><path id="aP" d="M31.5 293.9h437.4v212.5H31.5z"/></defs><clipPath id="aQ"><use xlink:href="#aP" overflow="visible"/></clipPath><path clip-path="url(#aQ)" fill="#131F48" d="M161.2 451.8c-.7.2-1.3.1-1.8-.3s-1-.6-1.6-.8c-.5-.1-1-.5-1.6-.5-.1 0-.2-.1-.3-.1-.1-.1-.1-.2 0-.5 1.5.5 3 .4 4.5.5 1.3.1 2.6.3 3.8.4.6.1 1.2.2 1.9.2 2.5.1 4.9.1 7.4 0 .5 0 1-.1 1.5-.2s.9-.2 1.4-.2c.5-.1 1.1-.1 1.6-.3.2-.1.5-.1.7-.1.9-.1 1.7-.3 2.5-.8.2-.1.5-.1.7-.2.8-.1 1.7 0 2.5-.2h.1c.3 0 .5.1.5.3 0 .2-.1.4-.5.5-.4 0-.7.1-1.1.1-.2 0-.4 0-.5.1-.5.3-1 .3-1.5.4-.8.1-1.5.3-2.3.5-.6.2-1.3.2-2 .3-.3 0-.7.1-1 .2-.8.2-1.7.3-2.5.3-1.2 0-2.4 0-3.7.1-.6.1-1.3-.1-2 0-1 0-2-.1-3.1 0-.8.1-1.6.1-2.2.8-.3.3-.7.3-1.1.1 0-.3-.1-.4-.3-.6"/><defs><path id="aR" d="M31.5 293.9h437.4v212.5H31.5z"/></defs><clipPath id="aS"><use xlink:href="#aR" overflow="visible"/></clipPath><path clip-path="url(#aS)" fill="#131F48" d="M199.5 448.3c-.5-.5-.6-1.1-.6-1.7.1-.9-.1-1.9-.1-2.8 0-.2-.1-.3-.1-.5s-.1-.3-.1-.5c.1-1.3.1-2.6.1-3.8 0-.5-.1-1-.1-1.4 0-1.1-.1-2.2-.1-3.4 0-.3.1-.5.1-.8 0-.2.1-.5 0-.7-.2-.7 0-1.5.1-2.2h.1c.5.4.4.9.3 1.5.2.1.3.3.4.4.3.4.6.8.5 1.4 0 .4.1.8.1 1.2l.3 1.8c.1.5 0 1-.3 1.4-.2.3-.4.7-.1 1.1 0 .1.1.2 0 .3 0 1-.1 2-.1 3v.4c-.3.7-.2 1.3-.1 2 .3.9.1 2.4-.3 3.3"/><defs><path id="aT" d="M31.5 293.9h437.4v212.5H31.5z"/></defs><clipPath id="aU"><use xlink:href="#aT" overflow="visible"/></clipPath><path clip-path="url(#aU)" fill="#131F48" d="M193.8 388c.6.4 1.2.3 1.9.1 1.2-.3 2.4-.7 3.6-1.2 1.3-.5 2.5-1.2 3.8-1.6.3-.1.5-.3.8-.5.4-.4.8-.8 1.3-1.1.1-.1.3-.1.3-.1.1.1.2.2.2.4 0 .3-.1.6-.3.9-.3.4-.6.8-1.1 1.1-1.1.7-2.1 1.5-3.4 1.8-.6.2-1.2.4-1.7.7-.4.2-.7.4-1.1.4-.2 0-.4.1-.5.2-1.3.7-2.7 1.3-4.3 1.4-.3 0-.6.1-.8.1h-.6c-.2 0-.4-.2-.3-.4.2-.5.5-1 1-1.4.3-.3.7-.5 1.2-.8"/><defs><path id="aV" d="M31.5 293.9h437.4v212.5H31.5z"/></defs><clipPath id="aW"><use xlink:href="#aV" overflow="visible"/></clipPath><path clip-path="url(#aW)" fill="#131F48" d="M203.6 381c-.6.1-1.4.2-2.2.3-.6.1-1.2.1-1.9.1-.4 0-.8 0-1.1.2-.5.2-1 .3-1.5.3-.6 0-1.2.1-1.9.1-.1 0-.3-.1-.4-.1-.3-.2-.3-.7 0-.8.4-.3.8-.6 1.4-.6 1.3-.1 2.5-.3 3.8-.4.2 0 .5-.1.7-.2.9-.2 1.8-.5 2.7-.7 1-.2 1.9-.5 3-.3.3.1.6-.1.8-.1.2 0 .4 0 .5.2.1.2.1.4-.1.5-.1.1-.3.3-.4.3-.6 0-.9.3-1.3.7l-.1.1c-.4.4-.8.6-1.4.5-.2-.1-.3-.1-.6-.1"/><defs><path id="aX" d="M31.5 293.9h437.4v212.5H31.5z"/></defs><clipPath id="aY"><use xlink:href="#aX" overflow="visible"/></clipPath><path clip-path="url(#aY)" fill="#131F48" d="M153.7 383.1c-.1-.5.2-1 .4-1.5.4.2.9.2 1.2.5.7.4 1.5.6 2.3.9.4.2.9.3 1.3.4.6.2 1.2.4 1.9.6 1.2.4 2.4.8 3.6 1.1h.6c.2 0 .3 0 .5.1.5.3 1 .4 1.6.4.1 0 .2.1.2.1.1.1.1.3.1.4 0 .1-.2.2-.3.2-.1 0-.2-.1-.4-.1s-.5-.1-.7-.1c-1 .2-1.9 0-2.9-.1h-.2c-1.1.3-1.9-.3-2.9-.6-.2-.1-.5-.2-.7-.1-.1 0-.3 0-.4-.1-.4-.4-1-.6-1.5-.8-.2-.1-.5-.2-.8-.2-.7 0-1.3-.3-1.9-.6-.3-.1-.6-.3-1-.5"/><defs><path id="aZ" d="M31.5 293.9h437.4v212.5H31.5z"/></defs><clipPath id="ba"><use xlink:href="#aZ" overflow="visible"/></clipPath><path clip-path="url(#ba)" fill="#131F48" d="M148.5 366.8c.7 0 1.3-.1 1.9.2.2.1.4.1.7 0 .6 0 1.2.1 1.9.2 1.3.3 2.6.4 3.8.9.2.1.4.1.6.1 1 .1 2 .2 3 .4.1 0 .2 0 .4.1.1 0 .1.2.1.2 0 .1-.1.2-.2.2-.4 0-.7.1-1 .4-.3.3-.8.3-1.2.1-.6-.2-1.2 0-1.9-.2-.6-.2-1.2-.1-1.9-.2-.2 0-.5-.1-.7-.2-1-.5-2.1-.6-3.2-.7-.5-.1-1.1.1-1.7.1h-.4c-.4 0-.6-.2-.7-.6.2-.2.2-.4.5-1"/><defs><path id="bb" d="M31.5 293.9h437.4v212.5H31.5z"/></defs><clipPath id="bc"><use xlink:href="#bb" overflow="visible"/></clipPath><path clip-path="url(#bc)" fill="#131F48" d="M165.8 357.7h-.5c-.2 0-.4 0-.6-.2-.3-.2-.6-.3-1-.3-.7 0-1.4-.1-2-.4-.1 0-.2-.1-.3-.1-.9 0-1.6-.4-2.5-.4-.2 0-.4-.1-.6-.2-.4-.2-.9-.3-1.3-.4-.1 0-.2 0-.3-.1-.1-.1-.2-.2-.1-.2 0-.1.1-.3.2-.3.6-.2 1.3-.4 1.9-.3.3.1.7.2 1 .3.4.2.8.3 1.2.3.5-.1 1.1 0 1.5.3.1.1.3.1.4.1.9-.1 1.9.1 2.8.1h1.1c1 .4 2 .3 3.1.3.2 0 .3-.1.5 0 .1 0 .3.2.3.3 0 .1-.1.3-.2.4-.4.1-.7.2-1.1.2-.5 0-1 0-1.4.3-.4.3-1 .3-1.5.2-.2.2-.4.2-.6.1"/><defs><path id="bd" d="M31.5 293.9h437.4v212.5H31.5z"/></defs><clipPath id="be"><use xlink:href="#bd" overflow="visible"/></clipPath><path clip-path="url(#be)" fill="#131F48" d="M202.6 393.1c-.5-.4-.9-.5-1.4-.4-.8.2-1.6-.1-2.4-.1-.4 0-.9 0-1.3.1l-1.2.3h-.5c-.1 0-.2-.2-.2-.3 0-.1.1-.2.2-.3h.1c1.3-.2 2.5-.8 3.6-1.4.5-.3 1.1-.4 1.6-.7.9-.5 1.7-.8 2.5-1.4.1-.1.2-.1.4-.1s.4.1.4.3v.2c-.3.7-.3 1.4-.7 2.1-.3.4-.4.8-.7 1.3-.1-.1-.2.1-.4.4"/><defs><path id="bf" d="M31.5 293.9h437.4v212.5H31.5z"/></defs><clipPath id="bg"><use xlink:href="#bf" overflow="visible"/></clipPath><path clip-path="url(#bg)" fill="#131F48" d="M182.4 395.9c-.7-.1-1.6-.2-2.4-.3-.7-.1-1.5-.1-2.2-.2l-3.9-.6c-.4-.1-.6-.4-.4-.8 0-.1.1-.2.1-.3.3-.4.5-.5 1-.4.2.1.5.2.7.2.2.1.5.1.7.1.2 0 .4 0 .4.1.4.5.9.4 1.4.5 1.2.1 2.5.1 3.7.5h.3c.7-.3 1.5-.2 2.2-.2.8 0 1.6-.1 2.4-.1h.7c.1 0 .2.1.3.2.1.2-.1.3-.2.4-.1.1-.2.1-.4.1-1.1.2-2.2.4-3.2.5-.4.2-.8.2-1.2.3"/><defs><path id="bh" d="M31.5 293.9h437.4v212.5H31.5z"/></defs><clipPath id="bi"><use xlink:href="#bh" overflow="visible"/></clipPath><path clip-path="url(#bi)" fill="#131F48" d="M185.5 412.5c.2 0 .4 0 .6.1.5.3 1.1.2 1.7.1h1.1c.8 0 1.6-.1 2.4-.2.3 0 .6-.2.9-.2.5-.1 1-.3 1.6-.3.5-.1 1-.1 1.4-.4.3-.2.6 0 .6.3 0 .2.1.3 0 .5-.1.6-.2 1.1-.2 1.7 0 .4-.3.5-.6.3-.2-.2-.4-.3-.6-.5-.3-.3-.7-.5-1.2-.3-.1.1-.2.1-.4.1-.5 0-1-.2-1.6 0-.4.2-1 .2-1.5.2-.9 0-1.7.1-2.6-.1-.3-.1-.7-.1-1-.1-.5 0-.9-.3-1.3-.5-.1-.1-.2-.2-.1-.4.1-.1.2-.1.3-.1.4-.3.4-.2.5-.2"/><defs><path id="bj" d="M31.5 293.9h437.4v212.5H31.5z"/></defs><clipPath id="bk"><use xlink:href="#bj" overflow="visible"/></clipPath><path clip-path="url(#bk)" fill="#131F48" d="M208.6 351.6l-.6.6c-.4.3-.7.7-1.1 1-.2.2-.4.3-.6.5-.4.3-.9.5-1.2.9-.5.5-1.1.7-1.8.7-.4 0-.7.1-1.1.2-.3.1-.6.1-.9.1h-1.8c-.2 0-.4.1-.6.2-.3.1-.7.2-1 .1-.1 0-.2-.2-.2-.3 0-.1 0-.2.1-.2.2-.1.5-.2.7-.3.8-.2 1.6-.5 2.3-.8.2-.1.4-.2.5-.2.9 0 1.7-.2 2.3-.8.1-.1.2-.1.3-.2.5-.2.9-.4 1.4-.6.1-.1.2-.2.3-.2.9 0 1.7-.7 2.6-.8.2.1.2.1.4.1"/><defs><path id="bl" d="M31.5 293.9h437.4v212.5H31.5z"/></defs><clipPath id="bm"><use xlink:href="#bl" overflow="visible"/></clipPath><path clip-path="url(#bm)" fill="#131F48" d="M192.3 409.7c-.3.1-.7.1-1 .2-.6.2-1.3.4-1.9.1-.2-.1-.4 0-.6 0-1 .1-1.9.2-2.9.3-.8.1-1.5.1-2.3.2-.7.1-1.5.1-2.2.2-.4 0-.7 0-1-.2-.9-.5-1.8-.8-2.8-.8h-.2c-.2 0-.3-.1-.3-.3 0-.2.2-.4.4-.5h.5c1.2.3 2.4.3 3.6.3.2 0 .4-.1.6 0 1 .4 2 .2 3 .2h2.8c.2 0 .4.1.5.1.2 0 .3.1.5 0 .6-.4 1.3-.2 2-.3.5 0 1.1.1 1.6-.2h.2c.3 0 .5.1.5.3-.1.2-.3.2-.5.2-.2.3-.3.2-.5.2"/><defs><path id="bn" d="M31.5 293.9h437.4v212.5H31.5z"/></defs><clipPath id="bo"><use xlink:href="#bn" overflow="visible"/></clipPath><path clip-path="url(#bo)" fill="#131F48" d="M163.2 423.1c.4-.2.8-.2 1.2-.1.3.1.6.1.9.1.8 0 1.5.1 2.3.3.8.2 1.6.2 2.4.2.3 0 .5.1.8.1.4.1.9.1 1.3.2.5.1 1 .2 1.4.4.1 0 .1.2.1.2 0 .1-.1.2-.2.3-.1.1-.3.1-.5.1-1.2 0-2.4.1-3.6 0-.9-.1-1.9-.1-2.8.1-.5.1-.9-.1-1.4-.3-.5-.2-.9-.5-1.5-.5-.2 0-.4-.2-.6-.4.1-.3.2-.5.2-.7z"/><defs><path id="bp" d="M31.5 293.9h437.4v212.5H31.5z"/></defs><clipPath id="bq"><use xlink:href="#bp" overflow="visible"/></clipPath><path clip-path="url(#bq)" fill="#131F48" d="M163.7 342.3c.4-.3.8-.4 1.2-.3.5.1 1-.1 1.4-.3.3-.2.5-.2.9-.1s.9.2 1.3.1c.2 0 .5 0 .7.1.7.2 1.3.5 2 .8.1 0 .1.1.2.1.2.1.1.4 0 .5-.2.1-.4.1-.6.1-1.2 0-2.4.1-3.6-.1-.6-.1-1.1 0-1.7-.1-.5-.1-1.1-.3-1.6-.4-.4-.1-.8.1-1.1 0-.4-.1-.7-.3-1.1-.3-.5 0-.8-.3-1-.7.4-.3.7-.4 1.1-.2.4.2.7.4 1.1.4.3 0 .5.2.8.4"/><defs><path id="br" d="M31.5 293.9h437.4v212.5H31.5z"/></defs><clipPath id="bs"><use xlink:href="#br" overflow="visible"/></clipPath><path clip-path="url(#bs)" fill="#131F48" d="M147.7 384.2c0 .1.1.4.1.6 0 .1.2.2.3.2.1 0 .2-.1.2-.1.1-.3.2-.6.4-.9.1-.2 0-.4-.2-.5-.4-.1-.8.2-.8.7m.2-1.2c.2-.1.3-.2.5-.3.1-.1.3-.2.5-.4.1.3.1.6.1.8l.3.6c.3.6.6 1.2.8 1.9.1.4.2.9.6 1.2.2.2.2.4 0 .6-.1.2-.3.2-.6.2-.1-.1-.3-.1-.4-.2-.5-.3-.9-.5-1.5-.5-.6-.1-.8-.3-.9-1 0-.3-.1-.5-.2-.8-.1-.3-.1-.6-.2-.8-.1-.2-.1-.5-.2-.7-.1-.2-.2-.5-.2-.7 0-.2-.1-.5.1-.6.2-.1.4 0 .5.2.2 0 .5.2.8.5"/><defs><path id="bt" d="M31.5 293.9h437.4v212.5H31.5z"/></defs><clipPath id="bu"><use xlink:href="#bt" overflow="visible"/></clipPath><path clip-path="url(#bu)" fill="#131F48" d="M152.7 406.4c.1.1.2.3.2.3.3.3.5.7.6 1.2.1.3.1.6.2.8.3.7.2 1.4-.1 2 0 .1-.1.2-.2.2-.2.2-.5.1-.5-.1-.2-.4-.3-.7-.1-1.1.2-.6.2-1.2 0-1.8-.2-.6-.2-1.2-.6-1.8-.1-.1-.1-.3-.1-.5.1-.4-.1-.8-.3-1.2-.2-.3-.3-.6-.4-.9-.2-.9-.7-1.6-.9-2.4-.2-.9-.5-1.7-.8-2.6-.1-.5-.3-.9-.5-1.3-.3-.5-.3-1.1-.3-1.7 0-.1.2-.2.3-.2 0 0 .2.1.2.2-.1.5.2.8.3 1.2.6 1.4 1.2 2.8 1.6 4.3.1.4.2.8.5 1.1.1.1.1.3.1.4-.1.3.1.6.2.8.2.3.3.6.4.9.5.9.6 1.6.2 2.2"/><defs><path id="bv" d="M31.5 293.9h437.4v212.5H31.5z"/></defs><clipPath id="bw"><use xlink:href="#bv" overflow="visible"/></clipPath><path clip-path="url(#bw)" fill="#131F48" d="M156.4 361.6c.5.2.9.3 1.3.5.3.1.7.3 1 .4.6.3 1.2.4 1.8.4.3 0 .6 0 .8.1.4.1.8.2 1.3.2.2 0 .5.1.7.2.6.3 1.2.4 1.8.3.2 0 .4 0 .6.1.1.1.2.3.2.4 0 .1-.1.2-.2.3-.9.1-1.8.4-2.7.5-.4.1-.8-.1-1.2-.2-.3-.1-.5-.2-.8-.3-.3-.1-.5-.2-.7-.4-.3-.3-.6-.5-1.1-.5-.4 0-.7-.3-1-.5-.4-.4-.9-.7-1.4-.9-.1 0-.3-.1-.4-.6"/><defs><path id="bx" d="M31.5 293.9h437.4v212.5H31.5z"/></defs><clipPath id="by"><use xlink:href="#bx" overflow="visible"/></clipPath><path clip-path="url(#by)" fill="#131F48" d="M162.8 394.9c.4-.1.8-.1 1.2.1.4.2.9.2 1.3.5.1.1.4.1.5.1.5-.1 1 .1 1.4.3.8.3 1.6.7 2.4.6.2 0 .4 0 .6.1.1 0 .2.1.3.2-.2.4-.6.4-.9.5-.3.1-.6.2-.9.2-.4.1-.8.2-1.2.5-.3.2-.6.2-.9 0-.5-.4-1.1-.7-1.6-1.1-.5-.4-1-.8-1.5-1.1-.2-.2-.5-.3-.7-.5.1-.1.1-.2 0-.4"/><defs><path id="bz" d="M31.5 293.9h437.4v212.5H31.5z"/></defs><clipPath id="bA"><use xlink:href="#bz" overflow="visible"/></clipPath><path clip-path="url(#bA)" fill="#131F48" d="M193.3 404.1c-.1.1-.1.3-.2.3-.2.1-.4.3-.7.3-.4.1-.9.1-1.3.3-.2.1-.4 0-.6.1-.7 0-1.4 0-2 .3-.1.1-.3.1-.5.1-.7-.1-1.4.1-2.1.3-.7.2-1.4 0-2-.1-.3-.1-.5-.4-.3-.7.2-.5.6-.7 1.1-.7 1.6 0 3.2.1 4.8.1 1.2-.1 2.4-.1 3.5-.3.1-.1.2-.1.3 0"/><defs><path id="bB" d="M31.5 293.9h437.4v212.5H31.5z"/></defs><clipPath id="bC"><use xlink:href="#bB" overflow="visible"/></clipPath><path clip-path="url(#bC)" fill="#131F48" d="M178.5 417.1c-.6 0-1.1-.2-1.6-.6-.3-.3-.7-.5-1.2-.5-.2 0-.4-.1-.6-.1-1.2-.5-2.4-1-3.5-1.5-.3-.1-.5-.3-.8-.5v-.3l.1-.1h.2c.6.1 1.2.2 1.9.3.2 0 .4.1.5.2.3.2.7.3 1 .5.7.5 1.5.7 2.2 1 .2.1.5.1.7.2.2 0 .4 0 .6.1.7.4 1.4.4 2.2.4h.2l.2.2c0 .1-.1.2-.2.3-.1.1-.2.1-.3.1-.6.1-1.1.2-1.6.3"/><defs><path id="bD" d="M31.5 293.9h437.4v212.5H31.5z"/></defs><clipPath id="bE"><use xlink:href="#bD" overflow="visible"/></clipPath><path clip-path="url(#bE)" fill="#131F48" d="M137.2 340.6c-.4-.1-.5-.2-.6-.4-.1-.1-.1-.3-.2-.4-.5-.5-.2-1 .1-1.5.3-.6.5-1.1.5-1.7 0-.1.1-.3.1-.4 0-.1.1-.3.1-.4-.1-.8.3-1.7.4-2.5 0-.2 0-.4.1-.6 0-.1.1-.2.2-.4.4.2.5.4.4.6-.4 1-.5 2.1-.7 3.1-.1.4-.2.9-.2 1.3 0 .1 0 .3-.1.4-.1.2-.2.5 0 .7.1.1 0 .2 0 .3-.3.4-.1.8 0 1.2 0 .3.1.5-.1.7"/><defs><path id="bF" d="M31.5 293.9h437.4v212.5H31.5z"/></defs><clipPath id="bG"><use xlink:href="#bF" overflow="visible"/></clipPath><path clip-path="url(#bG)" fill="#131F48" d="M201.6 375.9c-.5.4-.9.3-1.4.3-.4-.1-.9-.1-1.3 0-.3 0-.5-.1-.8-.1-.1 0-.2-.2-.1-.2 0-.1.1-.2.2-.3.1-.1.3 0 .5 0 .6 0 1.2.1 1.8 0 .9-.1 1.8.2 2.6-.3.1-.1.3 0 .5 0s.4.1.6 0c.6-.2 1.1-.1 1.7-.1.3 0 .6 0 .9-.2.4-.2.8-.3 1.2-.3.2 0 .4.1.4.4v.6c0 .2-.2.4-.5.4h-.8c-1.1-.1-2.2 0-3.3.2-.9.2-1.5.1-2.2-.4"/><defs><path id="bH" d="M31.5 293.9h437.4v212.5H31.5z"/></defs><clipPath id="bI"><use xlink:href="#bH" overflow="visible"/></clipPath><path clip-path="url(#bI)" fill="#131F48" d="M156.8 373c-.5-.2-1.1 0-1.7 0-1 0-1.9.1-2.8-.3-.6-.3-1.2-.5-1.6-1-.1-.1-.3-.2-.4-.2-.2-.1-.3-.4-.3-.7 0-.3.2-.4.5-.3 1.1.4 2.3.8 3.4 1.2.6.2 1.2.4 1.9.5.4 0 .7.4 1.1.4.1 0 .2.2.2.3 0 .1-.2.2-.3.2v-.1"/><defs><path id="bJ" d="M31.5 293.9h437.4v212.5H31.5z"/></defs><clipPath id="bK"><use xlink:href="#bJ" overflow="visible"/></clipPath><path clip-path="url(#bK)" fill="#131F48" d="M182.4 400h1.4c.4 0 .8 0 1.2-.2.2-.1.4-.1.6-.1h.8c1.5-.4 3-.4 4.4-.8.6-.2 1.2-.2 1.7-.4.1 0 .3.1.3.1v.3c-.2.3-.6.5-1 .5-.6 0-1.1.3-1.7.4-.6.1-1.1.2-1.6.4-.2.1-.5.1-.7.1-.5 0-1.1 0-1.6.2-1.3.1-2.6.4-4 .3-.3 0-.7 0-1 .1-.3 0-.6.1-.9-.1-.1-.1-.1-.2-.1-.3 0-.1.1-.2.2-.2.2 0 .4-.1.6-.1.4-.1.9-.1 1.4-.2 0 .1 0 .1 0 0"/><defs><path id="bL" d="M31.5 293.9h437.4v212.5H31.5z"/></defs><clipPath id="bM"><use xlink:href="#bL" overflow="visible"/></clipPath><path clip-path="url(#bM)" fill="#131F48" d="M205 424.3c-.1 1 0 2.1-.3 3.3-.2.8-.3 1.6-.6 2.3l-.3.6c-.1.1-.2.1-.3.1-.2 0-.3-.1-.3-.3v-.1c.3-1.2.2-2.4.4-3.6 0-.3.2-.5.3-.8.2-.5.3-1.1.3-1.7 0-.8.1-1.5.2-2.3 0-.1 0-.2.1-.3.1-.1.1-.1.2-.1s.2.1.2.2v.7c.1.6.1 1.2.1 2"/><defs><path id="bN" d="M31.5 293.9h437.4v212.5H31.5z"/></defs><clipPath id="bO"><use xlink:href="#bN" overflow="visible"/></clipPath><path clip-path="url(#bO)" fill="#131F48" d="M205.6 363.4c.7 0 1.3 0 2-.1.4-.1.8-.3 1.1-.4.1-.1.3-.1.4-.2.7-.3 1.1.1 1 .8 0 .2-.1.4-.1.7-.2.8-.3.9-1.2.7-.2-.1-.4-.1-.6-.1-.2-.1-.5-.1-.6-.2-.5-.4-1.1-.4-1.7-.1-.5.2-.9.1-1.4 0-.1 0-.2-.2-.3-.3 0-.1.1-.2.2-.3.4-.5.8-.6 1.2-.5"/><defs><path id="bP" d="M31.5 293.9h437.4v212.5H31.5z"/></defs><clipPath id="bQ"><use xlink:href="#bP" overflow="visible"/></clipPath><path clip-path="url(#bQ)" fill="#131F48" d="M216.5 360.7c0 .6.1 1.2.1 1.8v.5c-.1.9-.3 1.8-.5 2.8 0 .3 0 .6-.1 1 0 .3-.1.5-.4.6-.2-.4-.3-.9-.2-1.4.1-.8.3-1.6.4-2.5 0-.4 0-.8.2-1.1 0-.1.1-.2.1-.3-.1-.4 0-.8.2-1.2 0-.1.1-.1 0-.2-.1-.7.1-1.3.3-2 .1-.3 0-.6 0-.9-.1-.5-.1-.9.2-1.3.1-.1.2-.3.1-.4 0-.6.2-1.3 0-1.9 0-.2 0-.4.1-.6 0-.1.1-.1.2-.2.1.1.1.3.1.4 0 .9 0 1.7-.1 2.6 0 .2-.1.3-.1.5-.3.7-.5 1.4-.2 2.2.1.3 0 .7-.1 1 0 .2-.2.4-.3.6"/><defs><path id="bR" d="M31.5 293.9h437.4v212.5H31.5z"/></defs><clipPath id="bS"><use xlink:href="#bR" overflow="visible"/></clipPath><path clip-path="url(#bS)" fill="#131F48" d="M180.8 342.4c-.4.4-.9.3-1.3 0-.4.3-.8.4-1.2.2-.2-.1-.4 0-.6 0-.1 0-.2-.1-.3-.2-.1-.1.1-.3.2-.4.1 0 .2-.1.4-.1h3.3c1.2 0 2.3 0 3.5-.1h1.3c.9-.2 1.7 0 2.6 0h.2c.1.1.1.1.1.2s-.1.2-.2.2c-.5 0-1.1 0-1.6.1-.1 0-.3-.1-.4 0-.5.1-1.1.3-1.6 0-.4.1-.7.1-1.1.2-.4.1-.8.2-1.3.1h-.5c-.5.3-.9.2-1.5-.2"/><defs><path id="bT" d="M31.5 293.9h437.4v212.5H31.5z"/></defs><clipPath id="bU"><use xlink:href="#bT" overflow="visible"/></clipPath><path clip-path="url(#bU)" fill="#131F48" d="M188.2 454.6c.1-.3.3-.3.5-.4 1.4-.4 2.6-1.1 3.9-1.7.7-.3 1.4-.8 2-1.3.3-.3.7-.5 1.1-.7.1-.1.3-.1.4.1.1.2.2.4.1.5-.2.3-.5.6-.8.8-.6.4-1.3.7-1.9 1-.2.1-.5.3-.7.4-.4.2-.9.4-1.3.6-.2.1-.5.2-.7.3-.1.1-.3.2-.4.2-.4.1-.8.2-1.2.4-.4.2-.7.2-1-.2"/><defs><path id="bV" d="M31.5 293.9h437.4v212.5H31.5z"/></defs><clipPath id="bW"><use xlink:href="#bV" overflow="visible"/></clipPath><path clip-path="url(#bW)" fill="#131F48" d="M187.2 356.4c-.3 0-.7-.1-1-.1-.6 0-1.2-.2-1.8.1-.2.1-.5.1-.7-.1-.1-.1-.2-.2-.2-.3 0-.1.1-.2.2-.3.7-.1 1.5-.3 2.2-.3.7 0 1.4-.1 2.1-.3 1.1-.2 2.1-.5 3.2-.8h.2c.1.1.2.1.3.2 0 .1 0 .3-.1.3-.1.1-.3.2-.5.3-.8.3-1.7.5-2.5.8-.1 0-.1 0-.2.1-.3.4-.7.5-1.2.4"/><defs><path id="bX" d="M31.5 293.9h437.4v212.5H31.5z"/></defs><clipPath id="bY"><use xlink:href="#bX" overflow="visible"/></clipPath><path clip-path="url(#bY)" fill="#131F48" d="M165.6 408.5c.5-.1.9.1 1.4.3.6.3 1.3.7 1.9 1 1 .5 2 .9 3.1.9.1 0 .1 0 .2.1s.2.2.2.3c0 .2-.2.3-.3.3-.7-.2-1.4-.1-2.1-.3-.4-.1-.9-.2-1.3-.3-.2 0-.4-.1-.5-.2-1-.4-1.9-.8-2.9-1.3-.2-.1-.3-.2-.4-.3-.1-.1-.1-.2 0-.3 0-.1.1-.2.2-.2 0-.1.2 0 .5 0"/><defs><path id="bZ" d="M31.5 293.9h437.4v212.5H31.5z"/></defs><clipPath id="ca"><use xlink:href="#bZ" overflow="visible"/></clipPath><path clip-path="url(#ca)" fill="#131F48" d="M182.2 405.3c-.4-.1-.8-.1-1.2-.2-.5-.1-.9-.2-1.4-.4-.4-.1-.8-.3-1.2-.2h-.3c-.4-.3-.9-.3-1.4-.3-.1 0-.3 0-.4-.1-.3-.3-.7-.3-1.1-.4-.1 0-.2-.1-.2-.1-.1-.1-.1-.2-.1-.3 0-.1.2-.2.3-.2h.3c.3.1.6.2.9.1 1-.1 1.8.2 2.7.5.7.2 1.4.4 2.2.4.4 0 .7 0 1.1.1.3 0 .5.3.5.6-.1.4-.3.5-.7.5"/><defs><path id="cb" d="M31.5 293.9h437.4v212.5H31.5z"/></defs><clipPath id="cc"><use xlink:href="#cb" overflow="visible"/></clipPath><path clip-path="url(#cc)" fill="#131F48" d="M169.4 399.4h.3c.7 0 1.4-.1 2.1.3h.1c1.4.1 2.7.2 4.1.3.2 0 .4 0 .6.1.2 0 .3.2.3.4s-.2.3-.4.4h-.1c-1-.2-1.9.2-2.9-.1-.2-.1-.5 0-.7 0-.8 0-1.5-.1-2.2-.4-.3-.1-.5-.1-.8-.2-.2-.2-.3-.3-.4-.8"/><defs><path id="cd" d="M31.5 293.9h437.4v212.5H31.5z"/></defs><clipPath id="ce"><use xlink:href="#cd" overflow="visible"/></clipPath><path clip-path="url(#ce)" fill="#131F48" d="M163.4 392.1c-.5-.4-.9-.5-1.4-.6-.4 0-.8-.3-1.3-.4 0-.4 0-.7.1-1.1 0-.4.3-.5.6-.3.4.3 1 .3 1.4.5.9.5 1.8.7 2.7 1 .1 0 .2.1.2.2.1.1.2.3.1.4-.1.1-.2.2-.3.1-.7-.3-1.4-.3-2.1.2"/><defs><path id="cf" d="M31.5 293.9h437.4v212.5H31.5z"/></defs><clipPath id="cg"><use xlink:href="#cf" overflow="visible"/></clipPath><path clip-path="url(#cg)" fill="#131F48" d="M198.7 460.8c-.3 0-.6-.1-.9-.1-.3 0-.6-.1-.8-.1-.5 0-.9 0-1.4-.1-.3-.1-.5.1-.8.1-.1 0-.2-.1-.2-.2l.1-.2 1.2-.3c.9 0 1.7-.2 2.5-.5.1-.1.3-.1.4-.1.4-.1.7 0 .9.4.1.3.3.4.6.5.2.1.4.2.5.4.1.1.1.3 0 .4-.1.1-.2.1-.4.2-.1 0-.2-.1-.3-.1-.7-.4-.7-.4-1.4-.3"/><defs><path id="ch" d="M31.5 293.9h437.4v212.5H31.5z"/></defs><clipPath id="ci"><use xlink:href="#ch" overflow="visible"/></clipPath><path clip-path="url(#ci)" fill="#131F48" d="M154.9 446.2c-.4.1-.8.1-1.1.2-.4.1-.7 0-.9-.2-.5-.4-.6-1-.8-1.6 0-.1.1-.2.2-.2h.5c.3.1.7.2.9.4.8.5 1.6.8 2.4 1 .2 0 .5.1.7.2.2.1.3.2.2.4 0 .2-.2.3-.3.2l-1.2-.3c-.2.1-.4 0-.6-.1"/><defs><path id="cj" d="M31.5 293.9h437.4v212.5H31.5z"/></defs><clipPath id="ck"><use xlink:href="#cj" overflow="visible"/></clipPath><path clip-path="url(#ck)" fill="#131F48" d="M183.6 390.8c.6-.5 1.2-.7 1.9-.7.4 0 .8-.2 1.3-.3.2-.1.5-.1.7-.2.3-.1.7-.1 1-.2.4-.1.9.1 1.1.5.1.3 0 .5-.3.6-.3 0-.7 0-1 .1-.8.1-1.6.3-2.4.3h-1.1c-.2 0-.3.1-.5.1-.3-.1-.5-.1-.7-.2"/><defs><path id="cl" d="M31.5 293.9h437.4v212.5H31.5z"/></defs><clipPath id="cm"><use xlink:href="#cl" overflow="visible"/></clipPath><path clip-path="url(#cm)" fill="#131F48" d="M158.8 351.9c-.9-.2-1.9-.1-2.8-.5-.1-.1-.3-.1-.5-.1h-.5c-1.1-.3-2.1-.6-3.2-.9h-.1c-.1-.1-.2-.2-.2-.3.1-.1.2-.3.3-.3.5.1 1.1 0 1.6.4.1.1.3.1.5.2h.1c.5-.1.8.5 1.2.4.4-.1.8 0 1.2.1.2.1.5.1.7.2.5.2.9.4 1.4.4.1 0 .2 0 .3.1.1.1.1.2.1.2l-.1.1c.1 0 0 0 0 0"/><defs><path id="cn" d="M31.5 293.9h437.4v212.5H31.5z"/></defs><clipPath id="co"><use xlink:href="#cn" overflow="visible"/></clipPath><path clip-path="url(#co)" fill="#131F48" d="M158.8 428.9c-.6 0-1.2-.1-1.9-.1-.3 0-.7.1-1 .1h-.5c-.3-.1-.4-.5-.2-.7.1-.1.1-.2.2-.2.4-.1.5-.4.7-.7.2-.4.6-.4.8-.1.3.6.8.8 1.4.8.4 0 .7.1 1 .4.1.1.1.2.1.2 0 .1-.1.2-.2.3 0 .1-.2.1-.4 0 0 .1 0 .1 0 0"/><defs><path id="cp" d="M31.5 293.9h437.4v212.5H31.5z"/></defs><clipPath id="cq"><use xlink:href="#cp" overflow="visible"/></clipPath><path clip-path="url(#cq)" fill="#131F48" d="M149.3 416.9c.2.1.2.3.2.5 0 .6 0 1.2-.3 1.7-.3.7-.4 1.3-.5 2-.1 1-.2 2-.6 3 0 .1-.1.2-.2.4-.1-.2-.2-.3-.2-.4.1-1.2.3-2.4.4-3.5.5-1.1.6-2.3.9-3.4l.3-.3c-.1 0 0 0 0 0"/><defs><path id="cr" d="M31.5 293.9h437.4v212.5H31.5z"/></defs><clipPath id="cs"><use xlink:href="#cr" overflow="visible"/></clipPath><path clip-path="url(#cs)" fill="#131F48" d="M202.7 364.8c-.1 0-.3-.1-.5-.1-.1 0-.3-.1-.4 0-.5.3-1 .2-1.4.2-.6 0-1.2.2-1.8.2h-.8c-.1 0-.2-.1-.3-.2 0-.2.1-.3.2-.3l1.5-.3h.1c.7.1 1.2-.5 1.9-.2.6-.1 1.3-.2 1.9-.3.3-.1.6.1.7.4.1.3-.2.5-.5.6h-.6"/><defs><path id="ct" d="M31.5 293.9h437.4v212.5H31.5z"/></defs><clipPath id="cu"><use xlink:href="#ct" overflow="visible"/></clipPath><path clip-path="url(#cu)" fill="#131F48" d="M166.5 353.3c-.4-.1-1-.2-1.5-.3-.2 0-.4-.1-.6-.1-1.2 0-2.3-.4-3.4-.5-.2 0-.4-.1-.6-.1-.1 0-.1-.1-.1-.2s.1-.2.2-.2c.3 0 .6-.1.8-.1.3 0 .5.1.8.2.4.1.8.2 1.2.1.2-.1.4 0 .5 0 .5.1 1 .1 1.5.2h.2c.6.2 1.3.3 1.9.4.1 0 .2.2.2.3 0 0-.1.2-.2.2-.3.1-.6.1-.9.1"/><defs><path id="cv" d="M31.5 293.9h437.4v212.5H31.5z"/></defs><clipPath id="cw"><use xlink:href="#cv" overflow="visible"/></clipPath><path clip-path="url(#cw)" fill="#131F48" d="M153.6 339.2c-.5 0-.9-.2-1.2-.5-.3-.4-.7-.6-1.2-.8-.5-.3-1-.7-1.5-1.1-.1-.1-.2-.3-.2-.5v-.9c.2.1.3.1.5.1.8.6 1.5 1.2 2.1 2 .2.3.5.4.7.6.4.4.6.7.8 1.1"/><defs><path id="cx" d="M31.5 293.9h437.4v212.5H31.5z"/></defs><clipPath id="cy"><use xlink:href="#cx" overflow="visible"/></clipPath><path clip-path="url(#cy)" fill="#131F48" d="M137.6 358.1c-.1 0-.2 0-.3-.1-.1-.1-.2-.3-.2-.4-.1-.9-.3-1.8.1-2.7.2-.5.3-1.1.3-1.7 0-.4.1-.9.2-1.3.2-.3.1-.7.1-1 0-.2 0-.4.1-.6 0-.1.1-.1.2-.1l.1.1c0 .2.1.4 0 .6-.1.5-.2 1.1-.3 1.6-.1.3-.2.6-.1.9.1 1-.1 1.9-.2 2.9.1.6 0 1.2 0 1.8"/><defs><path id="cz" d="M31.5 293.9h437.4v212.5H31.5z"/></defs><clipPath id="cA"><use xlink:href="#cz" overflow="visible"/></clipPath><path clip-path="url(#cA)" fill="#131F48" d="M148.1 330.8c-.3.3-.3.7-.3 1 0 .6-.1 1.2-.1 1.8 0 .1-.1.2-.2.2s-.2 0-.2-.1c-.2-.2-.2-.5-.2-.7 0-.3.1-.6.1-.9 0-.5.1-1-.1-1.5-.1-.2-.1-.5.1-.7.1-.2.3-.3.5-.1.6.5 1.4.7 1.9 1.4.1.1.1.2.2.2.1.2.1.4-.1.5-.2.1-.4.1-.5-.1-.2-.2-.3-.5-.5-.7-.2-.1-.3-.3-.6-.3"/><defs><path id="cB" d="M31.5 293.9h437.4v212.5H31.5z"/></defs><clipPath id="cC"><use xlink:href="#cB" overflow="visible"/></clipPath><path clip-path="url(#cC)" fill="#131F48" d="M185.8 382.7c.3-.6.7-.7 1.1-.7h1.8c.3 0 .6 0 .8-.2.4-.2.8-.3 1.3-.3.1 0 .3 0 .5.1s.3.3.2.5c0 .1-.2.3-.3.3-.1.1-.3.1-.5.1-1-.1-1.9.1-2.9.3-.6.1-1.1.1-1.7.1-.1-.1-.2-.2-.3-.2"/><defs><path id="cD" d="M31.5 293.9h437.4v212.5H31.5z"/></defs><clipPath id="cE"><use xlink:href="#cD" overflow="visible"/></clipPath><path clip-path="url(#cE)" fill="#131F48" d="M181.8 455.5l2.4-.3h.9c.1 0 .2.1.2.2s-.1.2-.1.3c0 0-.1.1-.2.1-1.2.3-2.5.7-3.8.4-.1 0-.2 0-.4-.1s-.3-.3-.2-.5l.3-.3c.4.1.6.1.9.2 0-.1 0-.1 0 0"/><defs><path id="cF" d="M31.5 293.9h437.4v212.5H31.5z"/></defs><clipPath id="cG"><use xlink:href="#cF" overflow="visible"/></clipPath><path clip-path="url(#cG)" fill="#131F48" d="M203.7 437.3c.1 1.1 0 2.2-.5 3.2 0 .1-.2.1-.2.1-.1 0-.1-.1-.2-.2v-.3c.1-1.3.2-2.7.1-4v-1.2c0-.1.1-.2.2-.2s.3 0 .3.1c.1.4.2.8.2 1.2.2.5.1.9.1 1.3"/><defs><path id="cH" d="M31.5 293.9h437.4v212.5H31.5z"/></defs><clipPath id="cI"><use xlink:href="#cH" overflow="visible"/></clipPath><path clip-path="url(#cI)" fill="#131F48" d="M140.9 354.5c.2.5.2.9.2 1.3 0 .7-.1 1.3-.1 2 0 .9.1 1.8.1 2.7 0 .1.1.3 0 .4 0 .1-.1.2-.2.3-.1.1-.3 0-.3-.2-.1-.7-.2-1.3-.4-2-.1-.2-.1-.5 0-.8.3-1 .3-2.1.4-3.1 0-.2 0-.4.3-.6"/><defs><path id="cJ" d="M31.5 293.9h437.4v212.5H31.5z"/></defs><clipPath id="cK"><use xlink:href="#cJ" overflow="visible"/></clipPath><path clip-path="url(#cK)" fill="#131F48" d="M158.3 389.8v-.3c0-.7.3-.8.9-.7.4.1.7.4 1 .7.1.1.1.2.1.4-.1.6-.5 1-1.1 1.2-.3.1-.8-.1-.8-.6-.1-.3-.1-.5-.1-.7"/><g><defs><path id="cL" d="M31.5 293.9h437.4v212.5H31.5z"/></defs><clipPath id="cM"><use xlink:href="#cL" overflow="visible"/></clipPath><path clip-path="url(#cM)" fill="#131F48" d="M196.8 405.6c-.1.2-.2.5-.3.8-.1.1-.2.2-.4.2h-.5c-.5 0-1 0-1.4.3-.2.1-.4 0-.5-.2-.1-.2 0-.4.1-.5.1-.1.3-.2.4-.2.6 0 1.1-.3 1.6-.7.1-.1.2-.2.4-.3.3 0 .6.2.6.6"/></g><g><defs><path id="cN" d="M31.5 293.9h437.4v212.5H31.5z"/></defs><clipPath id="cO"><use xlink:href="#cN" overflow="visible"/></clipPath><path clip-path="url(#cO)" fill="#131F48" d="M144.6 335.4c0 .3-.1.6-.1.8l-.2.1-.1-.1s-.1-.1 0-.2c.1-.3 0-.6-.2-.8v-.2c.1-.1.3-.2.4-.3.1-.1.3-.2.5-.3.2.2.3.4.4.5.3.1.7-.1 1 .2.2.3-.1.6-.1.9 0 .2 0 .3-.1.5-.1.1-.2.3-.3.2-.1 0-.2-.2-.3-.3v-.4c-.2-.5-.3-.5-.9-.6"/></g><g><defs><path id="cP" d="M31.5 293.9h437.4v212.5H31.5z"/></defs><clipPath id="cQ"><use xlink:href="#cP" overflow="visible"/></clipPath><path clip-path="url(#cQ)" fill="#131F48" d="M202.3 394.1s0 .2-.1.3c-.4.4-.6.9-.8 1.4 0 .1-.1.2-.2.3-.2.2-.4.1-.5-.1-.1-.4-.2-.7-.3-1.1-.1-.2 0-.4.2-.6.4-.2.7-.4 1.1-.6.2-.1.6.1.6.4"/></g><g><defs><path id="cR" d="M31.5 293.9h437.4v212.5H31.5z"/></defs><clipPath id="cS"><use xlink:href="#cR" overflow="visible"/></clipPath><path clip-path="url(#cS)" fill="#131F48" d="M203 446.6c.2.2.3.4.3.7v4c0 .2-.1.4-.3.4-.1 0-.3-.2-.3-.4.1-1.3 0-2.7 0-4 0-.4 0-.6.3-.7"/></g><g><defs><path id="cT" d="M31.5 293.9h437.4v212.5H31.5z"/></defs><clipPath id="cU"><use xlink:href="#cT" overflow="visible"/></clipPath><path clip-path="url(#cU)" fill="#131F48" d="M133.3 358.7c.4.7.5 1.6.9 2.3-.1.5-.2.9-.3 1.4 0 .2-.2.3-.4.2-.1 0-.2-.2-.2-.3v-.3c0-.5 0-1-.1-1.5 0-.5-.1-.9-.1-1.4-.1-.2-.1-.3.2-.4"/></g><g><defs><path id="cV" d="M31.5 293.9h437.4v212.5H31.5z"/></defs><clipPath id="cW"><use xlink:href="#cV" overflow="visible"/></clipPath><path clip-path="url(#cW)" fill="#131F48" d="M145.3 408c-.1-.1-.2-.1-.3-.2-.1-.3-.1-.6-.1-.8v-2.1c0-.4-.1-.8-.2-1.1-.1-.3-.2-.7 0-1.1l.3.3c.5 1.5.6 3.1.5 4.6 0 .1-.1.2-.2.4"/></g><g><defs><path id="cX" d="M31.5 293.9h437.4v212.5H31.5z"/></defs><clipPath id="cY"><use xlink:href="#cX" overflow="visible"/></clipPath><path clip-path="url(#cY)" fill="#131F48" d="M159.2 429.8c.2 0 .5-.1.7 0 .1 0 .3.1.3.3 0 .1 0 .3-.1.4-.1.1-.2.2-.4.2s-.4.1-.5 0c-.5-.2-1.1-.2-1.7-.2h-.5c-.1 0-.1-.1-.1-.2 0 0 0-.1.1-.2.3-.1.5-.2.8-.2.6 0 1-.1 1.4-.1"/></g><g><defs><path id="cZ" d="M31.5 293.9h437.4v212.5H31.5z"/></defs><clipPath id="da"><use xlink:href="#cZ" overflow="visible"/></clipPath><path clip-path="url(#da)" fill="#131F48" d="M195.7 425c0 .4-.2.6-.5.6-.7-.1-1.4-.2-2-.3-.1 0-.2-.1-.2-.1 0-.1-.1-.3 0-.3.1-.1.2-.1.3-.2.6 0 1.2-.1 1.8-.3.4-.2.6.1.6.6"/></g><g><defs><path id="db" d="M31.5 293.9h437.4v212.5H31.5z"/></defs><clipPath id="dc"><use xlink:href="#db" overflow="visible"/></clipPath><path clip-path="url(#dc)" fill="#131F48" d="M136.7 331.1c-.1-.3-.3-.6-.4-.9.1-.1.2-.3.3-.4.2-.3.3-.6.5-.9 0-.1.2-.1.2-.1l.1.1c.1.4.1.8-.1 1.1-.2.5-.4 1.1-.4 1.7 0 .2-.1.4-.3.6-.1 0-.2.1-.3 0-.1 0-.1-.2-.1-.2.2-.4.3-.7.5-1"/></g><g><defs><path id="dd" d="M31.5 293.9h437.4v212.5H31.5z"/></defs><clipPath id="de"><use xlink:href="#dd" overflow="visible"/></clipPath><path clip-path="url(#de)" fill="#131F48" d="M142.4 371.7c0 .2 0 .3-.1.4 0 .1-.1.1-.2.2 0 0-.1 0-.2-.1s-.1-.2-.1-.3c0-.5-.2-1-.4-1.4-.2-.3-.2-.6-.1-.9 0-.1 0-.3.1-.4.1-.2 0-.6.2-.6.4 0 .2.4.3.7.1.3.1.6.2.9l.3 1.5"/></g><g><defs><path id="df" d="M31.5 293.9h437.4v212.5H31.5z"/></defs><clipPath id="dg"><use xlink:href="#df" overflow="visible"/></clipPath><path clip-path="url(#dg)" fill="#131F48" d="M194.9 392.6c0 .1 0 .2-.1.3-.2.2-.5.4-.7.4-.6.1-1.2.2-1.7.4h-.3c-.2 0-.3-.2-.3-.4s.1-.4.3-.4c.2-.1.4-.1.6-.1.6 0 1.2 0 1.7-.3.1-.1.2 0 .4 0-.1 0 0 0 .1.1"/></g><g><defs><path id="dh" d="M31.5 293.9h437.4v212.5H31.5z"/></defs><clipPath id="di"><use xlink:href="#dh" overflow="visible"/></clipPath><path clip-path="url(#di)" fill="#131F48" d="M181.7 459.6c.1-.1.2-.2.3-.2.9-.1 1.7-.1 2.6-.1.1 0 .3.1.4.2.1.1.1.4 0 .4-.2.1-.4.2-.6.2-.5 0-.9 0-1.4-.1-.3-.1-.8-.1-1.3-.4"/></g><g><defs><path id="dj" d="M31.5 293.9h437.4v212.5H31.5z"/></defs><clipPath id="dk"><use xlink:href="#dj" overflow="visible"/></clipPath><path clip-path="url(#dk)" fill="#131F48" d="M208.8 345.9c0-.2 0-.3.1-.4.5-.5 1.1-1 1.8-.9.2 0 .4.1.4.3.1.2 0 .5-.2.7-.2.1-.3.2-.5.2-.5.2-1 .2-1.6.1"/></g><g><defs><path id="dl" d="M31.5 293.9h437.4v212.5H31.5z"/></defs><clipPath id="dm"><use xlink:href="#dl" overflow="visible"/></clipPath><path clip-path="url(#dm)" fill="#131F48" d="M197.4 341.8c-.1.1-.2.2-.3.2-.3.1-.7.1-1 .2-.6.1-1.1-.1-1.6-.3-.2-.1-.2-.2-.2-.4 0-.1.2-.2.2-.2.7-.1 1.3 0 1.9.2.4 0 .7.2 1 .3"/></g><g><defs><path id="dn" d="M31.5 293.9h437.4v212.5H31.5z"/></defs><clipPath id="do"><use xlink:href="#dn" overflow="visible"/></clipPath><path clip-path="url(#do)" fill="#131F48" d="M193.3 439.9c.4-.2.7-.2 1-.2h.7c.2 0 .5-.1.7.1.2.3.3.6.3 1 0 .1-.2.3-.3.3-.1 0-.3-.1-.4-.2-.5-.4-1.1-.8-1.8-.9-.2.1-.2 0-.2-.1"/></g><g><defs><path id="dp" d="M31.5 293.9h437.4v212.5H31.5z"/></defs><clipPath id="dq"><use xlink:href="#dp" overflow="visible"/></clipPath><path clip-path="url(#dq)" fill="#131F48" d="M165.9 403.1c.1 0 .3.1.4.2.6.4 1.3.6 1.9.9.1 0 .2.1.2.1.1.1.1.2.1.3 0 .1-.2.2-.3.2h-.3c-.6-.2-1.2-.5-1.8-.7-.3-.1-.5-.3-.7-.6.1-.2.2-.4.5-.4"/></g><g><defs><path id="dr" d="M31.5 293.9h437.4v212.5H31.5z"/></defs><clipPath id="ds"><use xlink:href="#dr" overflow="visible"/></clipPath><path clip-path="url(#ds)" fill="#131F48" d="M181 426.8c-.5.2-1 .3-1.5.4-.7.1-1.4 0-2-.2-.1 0-.1-.2-.2-.3 0-.1.1-.1.2-.2.1 0 .2-.1.3-.1.7 0 1.4.1 2.1.1h.8l.3.3"/></g><g><defs><path id="dt" d="M31.5 293.9h437.4v212.5H31.5z"/></defs><clipPath id="du"><use xlink:href="#dt" overflow="visible"/></clipPath><path clip-path="url(#du)" fill="#131F48" d="M206.6 360.1c-.3-.1-.6 0-.9.1l-1.5.6h-.1c-.2 0-.3-.3-.3-.4.1-.2.3-.4.5-.4.7 0 1.3-.4 1.9-.6.2-.1.4-.1.6 0 .1.1.2.3.2.4 0 .1-.2.2-.3.3.1.1-.1 0-.1 0"/></g><g><defs><path id="dv" d="M31.5 293.9h437.4v212.5H31.5z"/></defs><clipPath id="dw"><use xlink:href="#dv" overflow="visible"/></clipPath><path clip-path="url(#dw)" fill="#131F48" d="M218.4 372.5c.1.2.2.4.2.5v1l-.3 1.5c0 .1-.1.1-.2.1s-.2-.1-.2-.1v-.1c0-.8-.1-1.7.2-2.5 0 0 .2-.2.3-.4"/></g><g><defs><path id="dx" d="M31.5 293.9h437.4v212.5H31.5z"/></defs><clipPath id="dy"><use xlink:href="#dx" overflow="visible"/></clipPath><path clip-path="url(#dy)" fill="#131F48" d="M197.9 400.6h-.2c-.1-.1-.3-.1-.4-.3-.1-.1.1-.4.2-.5.1 0 .2-.1.3-.1.3 0 .6-.1.9-.3.1-.1.2-.1.3-.1.2 0 .4 0 .5.2.1.2.1.5 0 .6-.1.1-.2.2-.3.2-.5.1-.9.2-1.3.3"/></g><g><defs><path id="dz" d="M31.5 293.9h437.4v212.5H31.5z"/></defs><clipPath id="dA"><use xlink:href="#dz" overflow="visible"/></clipPath><path clip-path="url(#dA)" fill="#131F48" d="M169.6 352.9c.3.1.9.2 1.4.3.2 0 .3.2.2.4 0 .1-.2.2-.3.2-.7-.1-1.5-.1-2.2-.2-.1 0-.2-.2-.2-.3 0-.2.1-.3.3-.3.1-.1.3-.1.8-.1"/></g><g><defs><path id="dB" d="M31.5 293.9h437.4v212.5H31.5z"/></defs><clipPath id="dC"><use xlink:href="#dB" overflow="visible"/></clipPath><path clip-path="url(#dC)" fill="#131F48" d="M186.3 360.2c-.1.1-.1.2-.2.2-.7 0-1.4.2-2.1.5-.1.1-.3 0-.4-.2 0-.1 0-.3.1-.4.2-.3.5-.3.7-.3h1.5c.1 0 .2.1.4.2"/></g><g><defs><path id="dD" d="M31.5 293.9h437.4v212.5H31.5z"/></defs><clipPath id="dE"><use xlink:href="#dD" overflow="visible"/></clipPath><path clip-path="url(#dE)" fill="#131F48" d="M162.9 413.1c.1.1.2.1.3.2.6.3 1 .9 1.7 1.1.2.1.4.3.6.5 0 .3-.2.3-.4.3-.1 0-.1 0-.2-.1-.8-.4-1.5-.9-2.1-1.6-.1-.1-.1-.2-.1-.3.1 0 .2-.1.2-.1"/></g><g><defs><path id="dF" d="M31.5 293.9h437.4v212.5H31.5z"/></defs><clipPath id="dG"><use xlink:href="#dF" overflow="visible"/></clipPath><path clip-path="url(#dG)" fill="#131F48" d="M164.7 457.7c.1 0 .2-.1.3 0l1.5.3c.1 0 .2.1.3.2.1.2 0 .3-.2.4-.1.1-.2.1-.3.2-.6.1-1.3-.2-1.6-.8-.1-.1 0-.2 0-.3"/></g><g><defs><path id="dH" d="M31.5 293.9h437.4v212.5H31.5z"/></defs><clipPath id="dI"><use xlink:href="#dH" overflow="visible"/></clipPath><path clip-path="url(#dI)" fill="#131F48" d="M154.3 339.7c.1 0 .2-.1.2-.1.6.4 1.3.6 1.7 1.3.1.1.1.3.1.4-.2.2-.3.1-.5 0-.7-.5-1-.8-1.5-1.6"/></g><g><defs><path id="dJ" d="M31.5 293.9h437.4v212.5H31.5z"/></defs><clipPath id="dK"><use xlink:href="#dJ" overflow="visible"/></clipPath><path clip-path="url(#dK)" fill="#131F48" d="M153.1 437.9c-.2 0-.5 0-.7-.1-.2-.1-.3-.2-.4-.4-.1-.2-.1-.4.1-.5.1-.2.3-.2.5-.1s.5.3.7.5c.2.1.3.3.2.5-.1-.1-.3 0-.4.1"/></g><g><defs><path id="dL" d="M31.5 293.9h437.4v212.5H31.5z"/></defs><clipPath id="dM"><use xlink:href="#dL" overflow="visible"/></clipPath><path clip-path="url(#dM)" fill="#131F48" d="M206.4 439.9c.1 1.5.1 1.6-.2 2.6-.1-.1-.2-.1-.2-.2-.1-.7-.1-1.5 0-2.2 0-.1.1-.3.4-.2"/></g><g><defs><path id="dN" d="M31.5 293.9h437.4v212.5H31.5z"/></defs><clipPath id="dO"><use xlink:href="#dN" overflow="visible"/></clipPath><path clip-path="url(#dO)" fill="#131F48" d="M153.2 365.7c-.6-.1-1.1-.1-1.6-.2h-.2c-.2-.1-.3-.3-.3-.4 0-.2.2-.3.4-.4h.4c.4.2.8.4 1.1.6.1 0 .1.2.2.4"/></g><g><defs><path id="dP" d="M31.5 293.9h437.4v212.5H31.5z"/></defs><clipPath id="dQ"><use xlink:href="#dP" overflow="visible"/></clipPath><path clip-path="url(#dQ)" fill="#131F48" d="M193.7 419.6c.3-.3.5-.5.7-.6.2-.1.3-.3.5-.4.2-.2.5-.1.6.1.2.3.1.7-.1.8-.1.1-.3.1-.4.1h-1.3"/></g><g><defs><path id="dR" d="M31.5 293.9h437.4v212.5H31.5z"/></defs><clipPath id="dS"><use xlink:href="#dR" overflow="visible"/></clipPath><path clip-path="url(#dS)" fill="#131F48" d="M200.8 342.1c.2-.1.2-.2.2-.2.7 0 1.3-.1 2-.1.1 0 .2 0 .4.1l.1.1c0 .1 0 .2-.1.2-.2.1-.4.1-.6.2h-.7c-.4-.1-.8-.1-1.3-.3"/></g><g><defs><path id="dT" d="M31.5 293.9h437.4v212.5H31.5z"/></defs><clipPath id="dU"><use xlink:href="#dT" overflow="visible"/></clipPath><path clip-path="url(#dU)" fill="#131F48" d="M178.6 400.1c.2 0 .4 0 .6.1.1 0 .2.2.2.3 0 .1-.1.3-.2.3-.4.1-.9.2-1.3.1-.1 0-.2-.2-.2-.4 0-.1.1-.2.2-.3.3-.1.5-.1.7-.1"/></g><g><defs><path id="dV" d="M31.5 293.9h437.4v212.5H31.5z"/></defs><clipPath id="dW"><use xlink:href="#dV" overflow="visible"/></clipPath><path clip-path="url(#dW)" fill="#131F48" d="M218.2 378.3c.2.3.2.5.1.8-.1.5-.2.9-.2 1.4v.2l-.2.2c-.1 0-.2-.1-.2-.1 0-.2-.1-.4 0-.5.2-.4.2-.8.2-1.3-.1-.3 0-.6.3-.7"/></g><g><defs><path id="dX" d="M31.5 293.9h437.4v212.5H31.5z"/></defs><clipPath id="dY"><use xlink:href="#dX" overflow="visible"/></clipPath><path clip-path="url(#dY)" fill="#131F48" d="M178.9 390.8c-.2 0-.5-.1-.7-.1-.2 0-.3-.2-.2-.4 0-.1.2-.2.3-.2.5 0 .9.1 1.4.1.1 0 .2.2.2.4s-.2.3-.3.2h-.7c0-.1 0 0 0 0"/></g><g><defs><path id="dZ" d="M31.5 293.9h437.4v212.5H31.5z"/></defs><clipPath id="ea"><use xlink:href="#dZ" overflow="visible"/></clipPath><path clip-path="url(#ea)" fill="#131F48" d="M196.6 317.4c.2-.3.6-.5.9-.5.4-.1.7.1.8.5 0 .1-.1.3-.1.3-.5 0-1.1.1-1.6-.1v-.2"/></g><g><defs><path id="eb" d="M31.5 293.9h437.4v212.5H31.5z"/></defs><clipPath id="ec"><use xlink:href="#eb" overflow="visible"/></clipPath><path clip-path="url(#ec)" fill="#131F48" d="M151.6 421c0-.1.1-.3.1-.5.1-.2.3-.3.4-.3.2.1.3.2.3.4s-.1.4-.1.7c-.1.4-.4.6-.6.5 0-.1-.1-.3-.1-.8"/></g><g><defs><path id="ed" d="M31.5 293.9h437.4v212.5H31.5z"/></defs><clipPath id="ee"><use xlink:href="#ed" overflow="visible"/></clipPath><path clip-path="url(#ee)" fill="#131F48" d="M195.9 437.1c0 .3-.2.5-.5.5-.2 0-.4-.1-.5-.1-.2-.1-.3-.4-.1-.6.2-.1.3-.3.5-.3.3-.1.6.2.6.5"/></g><g><defs><path id="ef" d="M31.5 293.9h437.4v212.5H31.5z"/></defs><clipPath id="eg"><use xlink:href="#ef" overflow="visible"/></clipPath><path clip-path="url(#eg)" fill="#131F48" d="M152.7 414.1c.3 0 .4.1.4.3 0 .3 0 .6.1.9 0 .4-.1.6-.6 1l-.1-.1c.1-.8.1-1.4.2-2.1"/></g><g><defs><path id="eh" d="M31.5 293.9h437.4v212.5H31.5z"/></defs><clipPath id="ei"><use xlink:href="#eh" overflow="visible"/></clipPath><path clip-path="url(#ei)" fill="#131F48" d="M225 354.2h-.4c-.2 0-.4 0-.4-.2 0-.1.1-.3.2-.4.1-.1.3-.2.5-.3.2.4.5.8.7 1.2 0 0 0 .2-.1.2s-.2 0-.2-.1c-.2 0-.2-.2-.3-.4"/></g><g><defs><path id="ej" d="M31.5 293.9h437.4v212.5H31.5z"/></defs><clipPath id="ek"><use xlink:href="#ej" overflow="visible"/></clipPath><path clip-path="url(#ek)" fill="#131F48" d="M190.7 336.4h-.8c-.1 0-.1-.1-.2-.2l.1-.1h1.9c.1 0 .2.1.2.2s-.1.2-.2.3c-.4-.1-.7-.1-1-.2"/></g><g><defs><path id="el" d="M31.5 293.9h437.4v212.5H31.5z"/></defs><clipPath id="em"><use xlink:href="#el" overflow="visible"/></clipPath><path clip-path="url(#em)" fill="#131F48" d="M207.5 356.1s-.1 0-.1-.1v-.3c.1-.1.2-.2.3-.2.3-.1.6-.2.8-.4.2-.2.4-.1.5 0 .1.2 0 .5-.1.6l-.1.1h-.2c-.4.2-.7.2-1.1.3"/></g><g><defs><path id="en" d="M31.5 293.9h437.4v212.5H31.5z"/></defs><clipPath id="eo"><use xlink:href="#en" overflow="visible"/></clipPath><path clip-path="url(#eo)" fill="#131F48" d="M179.9 387.9h-.4c-.1 0-.3-.1-.4-.2-.1-.1.1-.3.4-.3.3-.1.6-.2.9 0 .1.1.2.2.2.4 0 .1-.1.2-.2.3h-.2c0-.2-.1-.2-.3-.2"/></g><g><defs><path id="ep" d="M31.5 293.9h437.4v212.5H31.5z"/></defs><clipPath id="eq"><use xlink:href="#ep" overflow="visible"/></clipPath><path clip-path="url(#eq)" fill="#131F48" d="M212.6 340.3v-.2c.2-.4.4-.7.6-1.1.4.4.5 1 .1 1.3-.3.2-.5.2-.7 0"/></g><g><defs><path id="er" d="M31.5 293.9h437.4v212.5H31.5z"/></defs><clipPath id="es"><use xlink:href="#er" overflow="visible"/></clipPath><path clip-path="url(#es)" fill="#131F48" d="M197.5 404c0 .4-.2.6-.4.7-.2.1-.4 0-.5-.2-.2-.2-.1-.6.2-.9.1-.1.3-.2.5-.2.1.1.2.3.2.6 0-.1 0-.1 0 0"/></g><g><defs><path id="et" d="M31.5 293.9h437.4v212.5H31.5z"/></defs><clipPath id="eu"><use xlink:href="#et" overflow="visible"/></clipPath><path clip-path="url(#eu)" fill="#131F48" d="M215.1 326.6c-.1 0-.2-.1-.3-.2-.1-.2-.1-.4 0-.6 0-.1.2-.1.2-.1.1 0 .2 0 .4.1s.5.1.6.4c0 .2-.4.4-.9.4"/></g><g><defs><path id="ev" d="M31.5 293.9h437.4v212.5H31.5z"/></defs><clipPath id="ew"><use xlink:href="#ev" overflow="visible"/></clipPath><path clip-path="url(#ew)" fill="#131F48" d="M197.8 444.5c.2.3.4.5.6.7.1.2.1.5 0 .7-.1.1-.3.2-.4 0-.4-.4-.3-.8-.2-1.4"/></g><g><defs><path id="ex" d="M31.5 293.9h437.4v212.5H31.5z"/></defs><clipPath id="ey"><use xlink:href="#ex" overflow="visible"/></clipPath><path clip-path="url(#ey)" fill="#131F48" d="M158.8 441.2c-.2-.1-.3-.1-.5-.2-.1-.1-.2-.2-.2-.4s.2-.3.4-.3c.3 0 .5.2.7.4.1.1 0 .4-.1.4s-.2.1-.3.1"/></g><g><defs><path id="ez" d="M31.5 293.9h437.4v212.5H31.5z"/></defs><clipPath id="eA"><use xlink:href="#ez" overflow="visible"/></clipPath><path clip-path="url(#eA)" fill="#131F48" d="M197.4 346.7c-.2.5-.8.7-1.2.5-.1 0-.1-.2-.1-.3.2-.4.8-.6 1.1-.5.1.1.2.2.2.3"/></g><g><defs><path id="eB" d="M31.5 293.9h437.4v212.5H31.5z"/></defs><clipPath id="eC"><use xlink:href="#eB" overflow="visible"/></clipPath><path clip-path="url(#eC)" fill="#131F48" d="M164.9 437c.5 0 .7.1.7.3-.1.3-.3.3-.5.3s-.4.1-.5 0c-.1 0-.2-.1-.2-.2s.1-.3.2-.3c0-.1.2-.1.3-.1"/></g><g><defs><path id="eD" d="M31.5 293.9h437.4v212.5H31.5z"/></defs><clipPath id="eE"><use xlink:href="#eD" overflow="visible"/></clipPath><path clip-path="url(#eE)" fill="#131F48" d="M158.4 407.9c-.2.6-.1 1-.1 1.5 0 .1-.1.2-.2.2 0 0-.2-.1-.2-.2-.1-.5-.1-1 .1-1.4 0 0 .1 0 .4-.1"/></g><g><defs><path id="eF" d="M31.5 293.9h437.4v212.5H31.5z"/></defs><clipPath id="eG"><use xlink:href="#eF" overflow="visible"/></clipPath><path clip-path="url(#eG)" fill="#131F48" d="M163.5 319.3c.7-.3 1.2-.3 1.7-.3.1 0 .2.2.2.3 0 0-.1.2-.2.2-.5.1-1 .1-1.7-.2"/></g><g><defs><path id="eH" d="M31.5 293.9h437.4v212.5H31.5z"/></defs><clipPath id="eI"><use xlink:href="#eH" overflow="visible"/></clipPath><path clip-path="url(#eI)" fill="#131F48" d="M139 362.8c-.3-.4-.3-.8-.3-1.1 0-.1.1-.2.2-.3.1-.1.2-.1.3 0 .2.1.2.2.1.4 0 .3-.1.6-.3 1"/></g><g><defs><path id="eJ" d="M31.5 293.9h437.4v212.5H31.5z"/></defs><clipPath id="eK"><use xlink:href="#eJ" overflow="visible"/></clipPath><path clip-path="url(#eK)" fill="#131F48" d="M161 422.2c-.1.1-.1.2-.2.2-.3 0-.6-.1-.8-.3-.1-.1-.1-.2 0-.3 0-.1.1-.2.2-.2.3-.2.7.2.8.6"/></g><g><defs><path id="eL" d="M31.5 293.9h437.4v212.5H31.5z"/></defs><clipPath id="eM"><use xlink:href="#eL" overflow="visible"/></clipPath><path clip-path="url(#eM)" fill="#131F48" d="M181.7 361.2c0 .2-.2.4-.5.4-.2 0-.4-.2-.4-.3 0-.3.3-.6.6-.6.2 0 .3.2.3.5"/></g><g><defs><path id="eN" d="M31.5 293.9h437.4v212.5H31.5z"/></defs><clipPath id="eO"><use xlink:href="#eN" overflow="visible"/></clipPath><path clip-path="url(#eO)" fill="#131F48" d="M166.6 319.2c.4-.1.7-.2 1.1 0 .1 0 .2.1.2.2s-.1.3-.1.3c-.1.1-.3.1-.3 0-.5-.1-.8-.1-.9-.5"/></g><g><defs><path id="eP" d="M31.5 293.9h437.4v212.5H31.5z"/></defs><clipPath id="eQ"><use xlink:href="#eP" overflow="visible"/></clipPath><path clip-path="url(#eQ)" fill="#131F48" d="M137.7 327.4c0 .3-.1.5-.3.5-.2 0-.5-.2-.5-.4s.2-.5.5-.5c.2 0 .3.2.3.4"/></g><g><defs><path id="eR" d="M31.5 293.9h437.4v212.5H31.5z"/></defs><clipPath id="eS"><use xlink:href="#eR" overflow="visible"/></clipPath><path clip-path="url(#eS)" fill="#131F48" d="M203.3 335.6c-.4.4-.8.3-1.3.2.2-.3.5-.4.7-.4.2 0 .5-.1.6.2"/></g><g><defs><path id="eT" d="M31.5 293.9h437.4v212.5H31.5z"/></defs><clipPath id="eU"><use xlink:href="#eT" overflow="visible"/></clipPath><path clip-path="url(#eU)" fill="#131F48" d="M211.8 321c.2-.1.2-.1.3-.1.4.1.6.3.8.6 0 .1.1.2 0 .3-.1.1-.2.1-.3.1-.3-.2-.6-.5-.8-.9"/></g><g><defs><path id="eV" d="M31.5 293.9h437.4v212.5H31.5z"/></defs><clipPath id="eW"><use xlink:href="#eV" overflow="visible"/></clipPath><path clip-path="url(#eW)" fill="#131F48" d="M162.5 406.9c.2.1.4.2.5.3.1 0 .1.2 0 .3 0 .1-.1.2-.2.2-.2.1-.4 0-.6-.2-.1-.1-.1-.2-.1-.3.2-.2.3-.2.4-.3"/></g><g><defs><path id="eX" d="M31.5 293.9h437.4v212.5H31.5z"/></defs><clipPath id="eY"><use xlink:href="#eX" overflow="visible"/></clipPath><path clip-path="url(#eY)" fill="#131F48" d="M174.3 353.9c.4-.3.7-.2 1.1-.1 0 0 .1.1.1.2s0 .1-.1.2c-.4 0-.7 0-1.1-.3"/></g><g><defs><path id="eZ" d="M31.5 293.9h437.4v212.5H31.5z"/></defs><clipPath id="fa"><use xlink:href="#eZ" overflow="visible"/></clipPath><path clip-path="url(#fa)" fill="#131F48" d="M155.6 434.8c-.1 0-.2-.1-.4-.2v-.2c.1-.2.3-.2.5-.1h.1c.1.1.3.1.3.3 0 .2-.2.2-.3.2h-.2"/></g><g><defs><path id="fb" d="M31.5 293.9h437.4v212.5H31.5z"/></defs><clipPath id="fc"><use xlink:href="#fb" overflow="visible"/></clipPath><path clip-path="url(#fc)" fill="#131F48" d="M157.9 446.6l.2-.2c.2 0 .4.1.6.2.1 0 .1.2.1.2 0 .1-.1.1-.2.1-.4.2-.7 0-.7-.3"/></g><g><defs><path id="fd" d="M31.5 293.9h437.4v212.5H31.5z"/></defs><clipPath id="fe"><use xlink:href="#fd" overflow="visible"/></clipPath><path clip-path="url(#fe)" fill="#131F48" d="M147.1 339.3c.3.3.2.6.2.9 0 .1-.2.2-.3.2 0 0-.2-.1-.2-.2-.1-.3 0-.6.3-.9"/></g><g><defs><path id="ff" d="M31.5 293.9h437.4v212.5H31.5z"/></defs><clipPath id="fg"><use xlink:href="#ff" overflow="visible"/></clipPath><path clip-path="url(#fg)" fill="#131F48" d="M214 316.2c.1 0 .2.1.3.1.1 0 .1.2.1.3-.2.2-.4.3-.7.2-.1 0-.2-.1-.2-.2s0-.3.1-.3.3 0 .4-.1"/></g><g><defs><path id="fh" d="M31.5 293.9h437.4v212.5H31.5z"/></defs><clipPath id="fi"><use xlink:href="#fh" overflow="visible"/></clipPath><path clip-path="url(#fi)" fill="#131F48" d="M208.1 328.9c-.2.3-.5.4-.8.2-.1 0-.1-.1-.1-.2s.1-.2.1-.2c.3-.1.6-.2.8.2"/></g><g><defs><path id="fj" d="M31.5 293.9h437.4v212.5H31.5z"/></defs><clipPath id="fk"><use xlink:href="#fj" overflow="visible"/></clipPath><path clip-path="url(#fk)" fill="#131F48" d="M215 370.5c-.1-.3-.1-.5-.2-.7 0-.2 0-.3.2-.4h.2c.1.1.2.3.1.4 0 .3-.2.5-.3.7"/></g><g><defs><path id="fl" d="M31.5 293.9h437.4v212.5H31.5z"/></defs><clipPath id="fm"><use xlink:href="#fl" overflow="visible"/></clipPath><path clip-path="url(#fm)" fill="#131F48" d="M188.3 344s-.1.2-.2.1c-.2 0-.3-.1-.5-.2-.1-.1-.1-.3.1-.4.3 0 .6.2.6.5"/></g><g><defs><path id="fn" d="M31.5 293.9h437.4v212.5H31.5z"/></defs><clipPath id="fo"><use xlink:href="#fn" overflow="visible"/></clipPath><path clip-path="url(#fo)" fill="#131F48" d="M210.8 320.4c.1 0 .3.1.4.1.1.1.2.2.2.3 0 .1-.2.2-.3.2-.1 0-.2 0-.4-.1s-.3-.3-.2-.4c.1 0 .2 0 .3-.1"/></g><g><defs><path id="fp" d="M31.5 293.9h437.4v212.5H31.5z"/></defs><clipPath id="fq"><use xlink:href="#fp" overflow="visible"/></clipPath><path clip-path="url(#fq)" fill="#131F48" d="M203.6 433.5c0 .3-.2.4-.4.4s-.3-.2-.3-.3c0-.2.2-.4.4-.3.2 0 .3.1.3.2"/></g><g><defs><path id="fr" d="M31.5 293.9h437.4v212.5H31.5z"/></defs><clipPath id="fs"><use xlink:href="#fr" overflow="visible"/></clipPath><path clip-path="url(#fs)" fill="#131F48" d="M213.6 335.7c-.2.1-.3.3-.4.3-.2 0-.3-.1-.3-.3 0-.2.1-.3.3-.3.1 0 .2.1.4.3"/></g><g><defs><path id="ft" d="M31.5 293.9h437.4v212.5H31.5z"/></defs><clipPath id="fu"><use xlink:href="#ft" overflow="visible"/></clipPath><path clip-path="url(#fu)" fill="#131F48" d="M198.3 346.6c.3-.2.4-.3.6-.4.1 0 .2 0 .2.1v.2c-.2.2-.4.3-.8.1"/></g><g><defs><path id="fv" d="M31.5 293.9h437.4v212.5H31.5z"/></defs><clipPath id="fw"><use xlink:href="#fv" overflow="visible"/></clipPath><path clip-path="url(#fw)" fill="#131F48" d="M152.5 417.6c.1.2.3.3.3.4.1.2-.1.4-.3.4-.2 0-.3-.1-.3-.3.1-.2.2-.3.3-.5"/></g><g><defs><path id="fx" d="M31.5 293.9h437.4v212.5H31.5z"/></defs><clipPath id="fy"><use xlink:href="#fx" overflow="visible"/></clipPath><path clip-path="url(#fy)" fill="#131F48" d="M184.3 387.3c.1.1.2.2.2.3 0 .2-.2.3-.4.3s-.3-.1-.3-.3c0-.1.2-.3.5-.3"/></g><g><defs><path id="fz" d="M31.5 293.9h437.4v212.5H31.5z"/></defs><clipPath id="fA"><use xlink:href="#fz" overflow="visible"/></clipPath><path clip-path="url(#fA)" fill="#131F48" d="M177.3 330.9c-.2.1-.3.3-.4.3-.1 0-.2-.1-.2-.2-.1-.1.1-.3.3-.3.1 0 .1.1.3.2"/></g><g><defs><path id="fB" d="M31.5 293.9h437.4v212.5H31.5z"/></defs><clipPath id="fC"><use xlink:href="#fB" overflow="visible"/></clipPath><path clip-path="url(#fC)" fill="#131F48" d="M152.5 419c.1.2.1.3.1.4 0 .2-.2.3-.3.2-.1 0-.2-.2-.2-.3.1-.1.2-.1.4-.3"/></g><g><defs><path id="fD" d="M31.5 293.9h437.4v212.5H31.5z"/></defs><clipPath id="fE"><use xlink:href="#fD" overflow="visible"/></clipPath><path clip-path="url(#fE)" fill="#131F48" d="M193.9 422.2c-.2.1-.3.2-.4.1-.1 0-.1-.2-.2-.2.1-.1.2-.2.3-.2l.3.3"/></g><g><defs><path id="fF" d="M31.5 293.9h437.4v212.5H31.5z"/></defs><clipPath id="fG"><use xlink:href="#fF" overflow="visible"/></clipPath><path clip-path="url(#fG)" fill="#131F48" d="M209.5 320.6c-.2.1-.3.2-.4.3-.2 0-.4-.1-.3-.2 0-.1.2-.2.2-.2.2-.1.3 0 .5.1"/></g><g><defs><path id="fH" d="M31.5 293.9h437.4v212.5H31.5z"/></defs><clipPath id="fI"><use xlink:href="#fH" overflow="visible"/></clipPath><path clip-path="url(#fI)" fill="#131F48" d="M139.5 394.8c.3.2.3.4.1.6h-.2c-.2-.1-.2-.4.1-.6"/></g><g><defs><path id="fJ" d="M31.5 293.9h437.4v212.5H31.5z"/></defs><clipPath id="fK"><use xlink:href="#fJ" overflow="visible"/></clipPath><path clip-path="url(#fK)" fill="#131F48" d="M194.4 353.9c-.2.1-.3.2-.4.2-.1 0-.2-.1-.2-.2.1-.1.2-.2.3-.2.1 0 .2.1.3.2"/></g><g><defs><path id="fL" d="M31.5 293.9h437.4v212.5H31.5z"/></defs><clipPath id="fM"><use xlink:href="#fL" overflow="visible"/></clipPath><path clip-path="url(#fM)" fill="#131F48" d="M168.3 458.6c-.2.1-.3.2-.4.2-.1 0-.2-.1-.3-.2.1-.1.1-.2.2-.2.2 0 .3.1.5.2"/></g><g><defs><path id="fN" d="M31.5 293.9h437.4v212.5H31.5z"/></defs><clipPath id="fO"><use xlink:href="#fN" overflow="visible"/></clipPath><path clip-path="url(#fO)" fill="#131F48" d="M142.8 373.8c0 .1 0 .2-.1.2l-.1.1c-.1 0-.1 0-.1-.1s-.1-.3 0-.4c0-.1.1-.1.2-.1l.1.1v.2"/></g><g><defs><path id="fP" d="M31.5 293.9h437.4v212.5H31.5z"/></defs><clipPath id="fQ"><use xlink:href="#fP" overflow="visible"/></clipPath><path clip-path="url(#fQ)" fill="#131F48" d="M157.8 374.3c.2-.1.3-.2.4-.1.1 0 .1.2.2.2-.1.1-.2.2-.3.2-.1 0-.2-.1-.3-.3"/></g><g><defs><path id="fR" d="M31.5 293.9h437.4v212.5H31.5z"/></defs><clipPath id="fS"><use xlink:href="#fR" overflow="visible"/></clipPath><path clip-path="url(#fS)" fill="#131F48" d="M215.3 368.5v-.4l.1-.1.1.1v.4h-.2"/></g><g><defs><path id="fT" d="M31.5 293.9h437.4v212.5H31.5z"/></defs><clipPath id="fU"><use xlink:href="#fT" overflow="visible"/></clipPath><path clip-path="url(#fU)" fill="#131F48" d="M219.2 311.2c-.1-.1-.2-.1-.2-.2-.1-.2.1-.3.2-.3s.2.1.2.2c0 0-.1.1-.2.3"/></g><g><defs><path id="fV" d="M31.5 293.9h437.4v212.5H31.5z"/></defs><clipPath id="fW"><use xlink:href="#fV" overflow="visible"/></clipPath><path clip-path="url(#fW)" fill="#131F48" d="M189.2 336.1c-.2.2-.3.3-.4.3-.1 0-.2-.1-.3-.2 0-.1.1-.2.1-.2.2 0 .3.1.6.1"/></g><g><defs><path id="fX" d="M31.5 293.9h437.4v212.5H31.5z"/></defs><clipPath id="fY"><use xlink:href="#fX" overflow="visible"/></clipPath><path clip-path="url(#fY)" fill="#131F48" d="M185.7 327.4c.1.2.2.2.2.3 0 0-.1.2-.2.1-.1 0-.2-.1-.2-.2.1 0 .1-.1.2-.2"/></g><g><defs><path id="fZ" d="M31.5 293.9h437.4v212.5H31.5z"/></defs><clipPath id="ga"><use xlink:href="#fZ" overflow="visible"/></clipPath><path clip-path="url(#ga)" fill="#131F48" d="M205.7 322.1c.3 0 .5.1.7.4-.4.1-.5-.1-.7-.4"/></g><g><defs><path id="gb" d="M31.5 293.9h437.4v212.5H31.5z"/></defs><clipPath id="gc"><use xlink:href="#gb" overflow="visible"/></clipPath><path clip-path="url(#gc)" fill="#131F48" d="M182.7 391c-.2 0-.3.1-.4 0 0 0-.1-.1-.1-.2.1 0 .2-.1.2-.1.2 0 .2.1.3.3"/></g><g><defs><path id="gd" d="M31.5 293.9h437.4v212.5H31.5z"/></defs><clipPath id="ge"><use xlink:href="#gd" overflow="visible"/></clipPath><path clip-path="url(#ge)" fill="#131F48" d="M214.8 371.5c.1.1.2.1.2.2-.1.1-.1.2-.2.3-.1-.1-.2-.1-.2-.2.1-.1.1-.2.2-.3"/></g><g><defs><path id="gf" d="M31.5 293.9h437.4v212.5H31.5z"/></defs><clipPath id="gg"><use xlink:href="#gf" overflow="visible"/></clipPath><path clip-path="url(#gg)" fill="#131F48" d="M140.4 450.9c0 .1.1.2.1.3l-.1.1c0-.1-.1-.2-.1-.3-.1 0 0-.1.1-.1"/></g><g><defs><path id="gh" d="M31.5 293.9h437.4v212.5H31.5z"/></defs><clipPath id="gi"><use xlink:href="#gh" overflow="visible"/></clipPath><path clip-path="url(#gi)" fill="#131F48" d="M169 319.4l-.2.2c-.1 0-.1-.1-.2-.1l.2-.2c0-.1.1 0 .2.1"/></g><g><defs><path id="gj" d="M31.5 293.9h437.4v212.5H31.5z"/></defs><clipPath id="gk"><use xlink:href="#gj" overflow="visible"/></clipPath><path clip-path="url(#gk)" fill="#131F48" d="M163.3 423c-.1 0-.1 0-.2-.1s-.3-.1-.2-.3c0 0 0-.1.1-.1.2 0 .2.1.3.3-.1.1-.1.2 0 .2"/></g><g><defs><path id="gl" d="M31.5 293.9h437.4v212.5H31.5z"/></defs><clipPath id="gm"><use xlink:href="#gl" overflow="visible"/></clipPath><path clip-path="url(#gm)" fill="#131F48" d="M218.1 377.4c-.1-.1-.1-.2-.1-.3h.1v.1c.1.1.1.1 0 .2"/></g><g><defs><path id="gn" d="M31.5 293.9h437.4v212.5H31.5z"/></defs><clipPath id="go"><use xlink:href="#gn" overflow="visible"/></clipPath><path clip-path="url(#go)" fill="#131F48" d="M226.4 353.3c-.1.1-.2.2-.3.2 0 0-.2-.1-.2-.2s.1-.2.1-.3c.1.1.2.2.4.3"/></g><g><defs><path id="gp" d="M31.5 293.9h437.4v212.5H31.5z"/></defs><clipPath id="gq"><use xlink:href="#gp" overflow="visible"/></clipPath><path clip-path="url(#gq)" fill="#131F48" d="M135.7 447.1c-.1.1-.1.2-.2.2-.1.1-.2-.1-.2-.2s.1-.2.2-.2.2.1.2.2"/></g><g><defs><path id="gr" d="M31.5 293.9h437.4v212.5H31.5z"/></defs><clipPath id="gs"><use xlink:href="#gr" overflow="visible"/></clipPath><path clip-path="url(#gs)" fill="#131F48" d="M169.5 458.5c.1 0 .1 0 .2.1v.1h-.2l-.1-.1.1-.1"/></g><g><defs><path id="gt" d="M31.5 293.9h437.4v212.5H31.5z"/></defs><clipPath id="gu"><use xlink:href="#gt" overflow="visible"/></clipPath><path clip-path="url(#gu)" fill="#131F48" d="M139.9 450.4l-.2.2c-.1 0-.2-.1-.3-.1 0-.1.1-.2.1-.2.1 0 .2 0 .4.1"/></g><g><defs><path id="gv" d="M31.5 293.9h437.4v212.5H31.5z"/></defs><clipPath id="gw"><use xlink:href="#gv" overflow="visible"/></clipPath><path clip-path="url(#gw)" fill="#131F48" d="M160.8 447.1l.2.2c0 .1-.1.2-.2.2s-.2-.1-.2-.2.1-.1.2-.2"/></g><g><defs><path id="gx" d="M31.5 293.9h437.4v212.5H31.5z"/></defs><clipPath id="gy"><use xlink:href="#gx" overflow="visible"/></clipPath><path clip-path="url(#gy)" fill="#131F48" d="M199.5 394.6c-.1 0-.1.1-.2 0 0 0 0-.1-.1-.2.1 0 .1-.1.2 0 .1 0 .1.1.1.2"/></g><g><defs><path id="gz" d="M31.5 293.9h437.4v212.5H31.5z"/></defs><clipPath id="gA"><use xlink:href="#gz" overflow="visible"/></clipPath><path clip-path="url(#gA)" fill="#131F48" d="M221.6 376.4c.1.1.2.1.2.1 0 .1 0 .2-.1.3 0 0-.1 0-.1-.1-.1-.1 0-.2 0-.3"/></g><g><defs><path id="gB" d="M31.5 293.9h437.4v212.5H31.5z"/></defs><clipPath id="gC"><use xlink:href="#gB" overflow="visible"/></clipPath><path clip-path="url(#gC)" fill="#131F48" d="M191.3 361l.1-.1c0 .1.1.1.1.2-.1 0-.1.1-.2 0 .1 0 0 0 0-.1"/></g><g><defs><path id="gD" d="M31.5 293.9h437.4v212.5H31.5z"/></defs><clipPath id="gE"><use xlink:href="#gD" overflow="visible"/></clipPath><path clip-path="url(#gE)" fill="#131F48" d="M147.2 444.1c-.1.1-.1.1-.1.2l-.2-.2s.1-.1.1-.2c.1.1.1.2.2.2"/></g><g><defs><path id="gF" d="M31.5 293.9h437.4v212.5H31.5z"/></defs><clipPath id="gG"><use xlink:href="#gF" overflow="visible"/></clipPath><path clip-path="url(#gG)" fill="#131F48" d="M198.9 341.9c-.1.1-.1.2-.2.2s-.1-.1-.2-.2l.1-.1c.1.1.2.1.3.1"/></g><g><defs><path id="gH" d="M31.5 293.9h437.4v212.5H31.5z"/></defs><clipPath id="gI"><use xlink:href="#gH" overflow="visible"/></clipPath><path clip-path="url(#gI)" fill="#131F48" d="M144.2 355.7l.2-.2c0 .1.1.1.1.2l-.1.1-.2-.1"/></g><g><defs><path id="gJ" d="M31.5 293.9h437.4v212.5H31.5z"/></defs><clipPath id="gK"><use xlink:href="#gJ" overflow="visible"/></clipPath><path clip-path="url(#gK)" fill="#131F48" d="M197.5 321.9c0-.1 0-.1 0 0 0-.2 0-.4.3-.4 0 0 .1 0 .1.1-.1.1-.2.1-.4.3 0-.1 0-.1 0 0 0-.1 0 0 0 0"/></g><g><defs><path id="gL" d="M31.5 293.9h437.4v212.5H31.5z"/></defs><clipPath id="gM"><use xlink:href="#gL" overflow="visible"/></clipPath><path clip-path="url(#gM)" fill="#131F48" d="M146.4 363.8l-.1.1c0-.1-.1-.1-.1-.2l.1-.1c0 .1.1.2.1.2"/></g><g><defs><path id="gN" d="M31.5 293.9h437.4v212.5H31.5z"/></defs><clipPath id="gO"><use xlink:href="#gN" overflow="visible"/></clipPath><path clip-path="url(#gO)" fill="#131F48" d="M199.9 342l-.1.1-.1-.1.1-.1.1.1"/></g><g><defs><path id="gP" d="M31.5 293.9h437.4v212.5H31.5z"/></defs><clipPath id="gQ"><use xlink:href="#gP" overflow="visible"/></clipPath><path clip-path="url(#gQ)" fill="#131F48" d="M146.6 365.3l-.1-.1c.1 0 .1-.1.2-.1l.1.1c-.1.1-.2.1-.2.1"/></g><g><defs><path id="gR" d="M31.5 293.9h437.4v212.5H31.5z"/></defs><clipPath id="gS"><use xlink:href="#gR" overflow="visible"/></clipPath><path clip-path="url(#gS)" fill="#131F48" d="M213.1 324.5c-.1-.1-.1-.1-.2-.1 0-.1.1-.1.2-.2l.1.1c0 .1-.1.1-.1.2"/></g><g><defs><path id="gT" d="M31.5 293.9h437.4v212.5H31.5z"/></defs><clipPath id="gU"><use xlink:href="#gT" overflow="visible"/></clipPath><path clip-path="url(#gU)" fill="#131F48" d="M143.4 325.2l-.1-.1.1-.1.1.1c0 .1-.1.1-.1.1"/></g><g><defs><path id="gV" d="M31.5 293.9h437.4v212.5H31.5z"/></defs><clipPath id="gW"><use xlink:href="#gV" overflow="visible"/></clipPath><path clip-path="url(#gW)" fill="#131F48" d="M153.2 411.9l-.1.1-.1-.1c.1 0 .1-.1.2 0 0-.1 0 0 0 0"/></g><g><defs><path id="gX" d="M31.5 293.9h437.4v212.5H31.5z"/></defs><clipPath id="gY"><use xlink:href="#gX" overflow="visible"/></clipPath><path clip-path="url(#gY)" fill="#131F48" d="M211.8 324.6l.1-.1c0 .1.1.1.1.2-.1 0-.1.1-.2 0v-.1"/></g><g><defs><path id="gZ" d="M31.5 293.9h437.4v212.5H31.5z"/></defs><clipPath id="ha"><use xlink:href="#gZ" overflow="visible"/></clipPath><path clip-path="url(#ha)" fill="#131F48" d="M142.5 391.1l.1.1-.1.1s-.1 0-.1-.1c0 0 .1 0 .1-.1"/></g><g><defs><path id="hb" d="M31.5 293.9h437.4v212.5H31.5z"/></defs><clipPath id="hc"><use xlink:href="#hb" overflow="visible"/></clipPath><path clip-path="url(#hc)" fill="#131F48" d="M204.9 322l-.1.1-.1-.1s0-.1.1-.1c0 .1 0 .1.1.1"/></g><g><defs><path id="hd" d="M31.5 293.9h437.4v212.5H31.5z"/></defs><clipPath id="he"><use xlink:href="#hd" overflow="visible"/></clipPath><path clip-path="url(#he)" fill="#131F48" d="M213 344.2s0-.1 0 0h.2v.1c-.1-.1-.2-.1-.2-.1"/></g><g><defs><path id="hf" d="M31.5 293.9h437.4v212.5H31.5z"/></defs><clipPath id="hg"><use xlink:href="#hf" overflow="visible"/></clipPath><path clip-path="url(#hg)" fill="#131F48" d="M217.7 381.9l.1.1c0 .1-.1.1-.1.2l-.1-.1c0-.1 0-.1.1-.2"/></g><g><defs><path id="hh" d="M31.5 293.9h437.4v212.5H31.5z"/></defs><clipPath id="hi"><use xlink:href="#hh" overflow="visible"/></clipPath><path clip-path="url(#hi)" fill="#131F48" d="M225.2 346.9l.1.1-.1.1-.1-.1c0-.1.1-.1.1-.1"/></g><g><defs><path id="hj" d="M31.5 293.9h437.4v212.5H31.5z"/></defs><clipPath id="hk"><use xlink:href="#hj" overflow="visible"/></clipPath><path clip-path="url(#hk)" fill="#131F48" d="M156.7 425h-.1v-.1s.1 0 .1.1"/></g><g><defs><path id="hl" d="M31.5 293.9h437.4v212.5H31.5z"/></defs><clipPath id="hm"><use xlink:href="#hl" overflow="visible"/></clipPath><path clip-path="url(#hm)" fill="#131F48" d="M201.2 376.7v.1s-.1 0 0-.1c-.1 0 0 0 0 0"/></g></g><path fill="#131F48" d="M148.4 380.2zM210.4 360.3l.1.1v-.1z"/><g fill="#131F48"><path d="M143.6 368.7s0 .1 0 0h-.1.1M165 321.6c0-.1 0-.1.1-.1l.1.1c-.1-.1-.1 0-.2 0M181.2 327.6c.1 0 .1 0 0 0 .1.1 0 .1 0 .1.1 0 0 0 0-.1"/></g><path fill="#131F48" d="M158.2 321.7l.1-.1h-.1zM206.4 405.8h.1z"/><path fill="none" d="M139.5 449.3v-.1"/><g fill="#131F48"><path d="M149.6 328.1c-.1 0-.3.1-.4 0-.2-.1-.3-.3-.5-.5v-.2c.1 0 .3-.1.3 0l.6.6v.1M185.4 322.2c-.1.1-.2.2-.3.2-.2 0-.4-.2-.4-.4 0-.1.1-.3.3-.3.1 0 .3.2.4.5M159.6 323.1l-.2.2c-.1 0-.2-.1-.2-.2s.1-.2.2-.2.2.1.2.2M213.8 357c-.1.1-.2.1-.2.1-.1 0-.1-.1-.1-.2s.1-.1.2-.1c0 .1.1.1.1.2M193.6 322.2l.1.1c0 .1-.1.1-.1.2l-.1-.1c.1-.1.1-.2.1-.2M151.2 449.6c-.4-.1-.7-.2-1.1-.3-.1 0-.3-.3-.2-.4.1-.1.2-.2.4-.2.1 0 .2 0 .2.1.2.2.4.3.6.3.1 0 .2.1.2.2.1.2 0 .2-.1.3M143.9 331.1c.3-.1.4-.2.5-.1.3.1.7.3 1 .5l.1.2c-.1.1-.2.2-.3.1-.5-.2-.8-.4-1.3-.7M143.9 328.4c.1.1.2.2.2.3.1.2-.2.4-.4.4s-.3-.1-.3-.3c-.1-.2.2-.4.5-.4M143.6 339.3c.1-.1.1-.2.3-.2.2-.1.3.1.4.3 0 .2-.1.4-.3.4-.2.1-.4-.1-.4-.5M144 352.2l.3.3c0 .1-.1.3-.2.2-.1 0-.2-.1-.3-.2 0 0 .1-.2.2-.3M144.4 350.1l-.2.2c-.1 0-.2-.1-.2-.2s.1-.2.2-.2l.2.2M143.6 359c.1-.1.1-.2.2-.2.2-.1.4.1.3.2 0 .1-.1.2-.2.2-.1-.1-.2-.1-.3-.2M147.7 384.2c0-.5.4-.8.8-.7.2.1.3.3.2.5-.2.3-.3.5-.4.9 0 .1-.2.2-.2.1-.1 0-.3-.1-.3-.2-.1-.2-.1-.4-.1-.6M212.7 460.1c.1.1.1.2.1.2-.1.1-.2.1-.3.2l-.1-.1c.1-.2.2-.2.3-.3m9.1-.5c.6-.1.6-.1 1 .3-.8.1-.8.1-1-.3m3 8.5c.2.5.2.6 0 .9l-.1.1s-.1 0-.2-.1c-.2-.2-.1-.6.3-.9m-1.6 6.8c0-.3.1-.5.4-.6.1 0 .3 0 .3.1.1.1.1.3 0 .4-.1.3-.4.4-.6.3 0 .1-.1 0-.1-.2 0 .1 0 .1 0 0m3.3-5.2c-.1.2-.1.3-.2.5-.1.1-.2.1-.3.1-.1 0-.1-.1-.2-.2-.1-.3 0-.6.2-.8 0 0 .1-.1.2-.1s.2.1.2.1c0 .2 0 .3.1.4m-3.1-6.9c1.3.4 2 1.4 3 1.9.1.1.2.2.2.3.2.4.5.6.9.8l.6.3c.4.6.9 1 1.6.9.2 0 .3.2.3.4s-.1.3-.3.3c-.6 0-1.2.1-1.7-.4-.3-.3-.7-.3-1.2-.3h-.6c0-.2-.1-.3-.1-.4.1-.5-.2-.9-.5-1.2-.1-.1-.3-.2-.4-.3-.7-.6-1.3-1.2-1.7-2-.1.1-.1 0-.1-.3m10.4 4c-.2.4-.5.6-.8.6-.2 0-.5-.1-.7-.3-.2-.1-.3-.3-.5-.4-.2-.1-.4-.3-.6-.4-.5-.1-.7-.4-.8-.8-.1-.5-.4-.9-.9-1-.1 0-.3-.3-.3-.4v-.9c0-.2.3-.3.4-.2.2.1.5.3.7.5.9.9 1.8 1.6 2.8 2.4.4.2.6.5.7.9"/><path d="M233.8 466.8c-.2-.4-.4-.7-.7-1-1-.7-1.9-1.5-2.8-2.4-.2-.2-.5-.3-.7-.5-.2-.1-.4 0-.4.2 0 .3-.1.6 0 .9 0 .2.2.4.3.4.5.2.8.5.9 1 .1.4.3.7.8.8.2 0 .4.2.6.4.2.1.3.3.5.4.2.1.4.3.7.3.3.1.6-.1.8-.5M223.4 462.8c0 .3 0 .4.1.5.5.8 1.1 1.4 1.8 2 .1.1.3.2.4.3.4.3.6.6.5 1.2 0 .1 0 .2.1.4h.6c.4-.1.8 0 1.2.3.5.4 1.1.3 1.7.4.2 0 .3-.1.3-.3 0-.2-.1-.4-.3-.4-.8.1-1.2-.3-1.6-.9-.1-.2-.4-.2-.6-.3-.4-.2-.7-.4-.9-.8-.1-.1-.1-.3-.2-.3-1.1-.7-1.9-1.7-3.1-2.1M226.5 469.7c0-.1-.1-.3-.1-.4 0-.1-.1-.1-.2-.1 0 0-.1 0-.2.1-.2.2-.3.5-.2.8 0 .1.1.2.2.2s.3 0 .3-.1c.1-.1.1-.3.2-.5M223.2 474.9c0 .1 0 .1 0 0 .1.2.1.3.2.3.2.1.5-.1.6-.3v-.4c0-.1-.2-.1-.3-.1-.4.1-.5.3-.5.5M224.8 468.1c-.4.3-.5.6-.3 1 0 0 .1.1.2.1s.1-.1.1-.1c.2-.3.2-.4 0-1M221.8 459.6c.2.4.2.4 1 .3-.4-.4-.4-.4-1-.3M212.7 460.1l-.2.2.1.1c.1-.1.2-.1.3-.2-.1 0-.2 0-.2-.1M146.5 435.7c-.2-.4-.4-.7-.7-1-1-.7-1.9-1.5-2.8-2.4-.2-.2-.5-.3-.7-.5-.2-.1-.4 0-.4.2 0 .3-.1.6 0 .9 0 .2.2.4.3.4.5.2.8.5.9 1 .1.4.3.7.8.8.2 0 .4.2.6.4.2.1.3.3.5.4.2.1.4.3.7.3.3.1.6-.1.8-.5M139.1 438.6c0-.1-.1-.3-.1-.4 0-.1-.1-.1-.2-.1 0 0-.1 0-.2.1-.2.2-.3.5-.2.8 0 .1.1.2.2.2s.3 0 .3-.1c.1-.1.2-.3.2-.5M135.8 443.8c0 .1 0 .1 0 0 .1.2.1.3.2.3.2.1.5-.1.6-.3v-.4c0-.1-.2-.1-.3-.1-.3.1-.5.3-.5.5M137.5 437c-.4.3-.5.6-.3 1 0 0 .1.1.2.1s.1-.1.1-.1c.1-.3.1-.4 0-1M134.5 428.5c.2.4.2.4 1 .3-.4-.5-.4-.5-1-.3M176.3 420.8c-.7-.1-1.6-.2-2.4-.3-.7-.1-1.5-.1-2.2-.2l-3.9-.6c-.4-.1-.6-.4-.4-.8 0-.1.1-.2.1-.3.3-.4.5-.5 1-.4.2.1.5.2.7.2.2.1.5.1.7.1.2 0 .4 0 .4.1.4.5.9.4 1.4.5 1.2.1 2.5.1 3.7.5h.3c.7-.3 1.5-.2 2.2-.2.8 0 1.6-.1 2.4-.1h.7c.1 0 .2.1.3.2.1.2-.1.3-.2.4-.1.1-.2.1-.4.1-1.1.2-2.2.4-3.2.5-.3.2-.7.2-1.2.3M175.6 445.4c.8.1 1.6.1 2.4.2.7.1 1.4.1 2-.3.3-.1.7-.1 1.1-.1.5 0 1 .1 1.4 0 2.5-.4 5.1-.2 7.6-.8 1-.2 2-.1 3-.5.1-.1.4.1.5.3.1.1 0 .4-.1.6-.4.5-1.1.7-1.7.7-1-.1-2 .3-3 .4-1 0-1.9.1-2.8.4-.4.1-.8.1-1.3.1-.9 0-1.8-.2-2.7.2-2.3-.1-4.5.3-6.8 0-.6-.1-1.2 0-1.7 0s-1.1.1-1.5-.3c-.1-.1-.2-.4-.2-.6 0-.1.2-.3.3-.3.3-.1.6-.1.9 0 .9-.1 1.7 0 2.6 0M157.5 378.8c-.1-.5.2-1 .4-1.5.4.2.9.2 1.2.5.7.4 1.5.6 2.3.9.4.2.9.3 1.3.4.6.2 1.2.4 1.9.6 1.2.4 2.4.8 3.6 1.1h.6c.2 0 .3 0 .5.1.5.3 1 .4 1.6.4.1 0 .2.1.2.1.1.1.1.3.1.4 0 .1-.2.2-.3.2-.1 0-.2-.1-.4-.1s-.5-.1-.7-.1c-1 .2-1.9 0-2.9-.1h-.2c-1.1.3-1.9-.3-2.9-.6-.2-.1-.5-.2-.7-.1-.1 0-.3 0-.4-.1-.4-.4-1-.6-1.5-.8-.2-.1-.5-.2-.8-.2-.7 0-1.3-.3-1.9-.6-.4 0-.7-.2-1-.5"/></g><g fill="#FCFAFC"><path d="M507.5 429.7h-25.4c0-7.9 3-13.4 9.1-19.6l3.4-3.4c3.7-3.6 4.3-5.6 4.3-10.2 0-3.7-1.5-5.6-4.1-5.6-4.2 0-4.6 4-4.7 8.7h-8V398c0-8.3 4-12.9 12.8-12.9 8.3 0 12.3 4.5 12.3 12.2 0 5.8-1.7 9.6-6.4 14.2l-4.7 4.7c-2.4 2.4-3.8 4.9-4.2 6.6h15.5l.1 6.9zM523 385.1c10 0 12.9 5.9 12.9 21.7 0 12.4-.6 23.8-12.9 23.8-10 0-12.9-5.9-12.9-21.7-.1-12.3.6-23.8 12.9-23.8zm-4.6 25.8c0 11.2.9 13.8 4.5 13.8 3.7 0 4.5-3.5 4.5-15v-4.9c0-11.2-.9-13.8-4.5-13.8-3.7 0-4.5 3.5-4.5 15v4.9zM547.5 429.7v-31.5h-8.2v-5.9h.8c5.5 0 8.8-2.3 9.7-7.2h6.2v44.7h-8.5zM583 396.4c0-3.4-1-5.4-3.8-5.4-4.4 0-5.1 4.8-5.1 11.4v2.2h.1c1.4-2.3 4.1-3.9 7.7-3.9 7.3 0 10.1 5.9 10.1 13.9 0 10.2-4.1 16-13.3 16-11.5 0-13-10-13-20.9 0-12.6.2-24.7 13.9-24.7 5.9 0 11.4 2.7 11.5 11.4H583zm-3.9 28.3c4.1 0 4.5-3.8 4.5-8.8 0-6.1-1.3-8.5-4.5-8.5-3.3 0-4.6 2.4-4.6 8.5 0 5.1.7 8.8 4.6 8.8z"/></g><g fill="#FFF"><path d="M341.9 456.2h-12.6c0-3.6 1.5-6.1 4.5-8.9l1.7-1.6c1.8-1.6 2.1-2.6 2.1-4.7 0-1.7-.7-2.5-2-2.5-2.1 0-2.3 1.8-2.3 4h-4v-.8c0-3.8 2-5.9 6.3-5.9 4.1 0 6.1 2 6.1 5.6 0 2.7-.8 4.4-3.2 6.5l-2.3 2.1c-1.2 1.1-1.9 2.2-2.1 3h7.7l.1 3.2zM355.9 436.2v3.2c-3.4 4.8-5.3 11.1-6 16.8h-4.4c.6-4.9 2.4-11 6.4-16.4h-8.6v-3.6h12.6zM372.8 446.2v3.4h-8.1v-3.4h8.1zM394.1 456.2h-12.6c0-3.6 1.5-6.1 4.5-8.9l1.7-1.6c1.8-1.6 2.1-2.6 2.1-4.7 0-1.7-.7-2.5-2-2.5-2.1 0-2.3 1.8-2.3 4h-4v-.8c0-3.8 2-5.9 6.3-5.9 4.1 0 6.1 2 6.1 5.6 0 2.7-.8 4.4-3.2 6.5l-2.3 2.1c-1.2 1.1-1.9 2.2-2.1 3h7.7l.1 3.2zM399.7 451.5c0 1.5.5 2.4 1.9 2.4 2.2 0 2.5-2.2 2.5-5.2v-1h-.1c-.7 1-2 1.7-3.8 1.7-3.6 0-5-2.7-5-6.4 0-4.7 2-7.3 6.6-7.3 5.7 0 6.4 4.6 6.4 9.5 0 5.8-.1 11.3-6.9 11.3-2.9 0-5.6-1.2-5.7-5.2l4.1.2zm1.9-5.1c1.6 0 2.3-1.1 2.3-3.9 0-2.3-.3-4-2.3-4-2 0-2.2 1.7-2.2 4 0 2.8.6 3.9 2.2 3.9zM423.6 435.3c6.2 0 7 4.4 7 10.7 0 6.3-.8 10.7-7 10.7s-7-4.4-7-10.7c0-6.3.8-10.7 7-10.7zm0 18.3c2.4 0 2.9-2.1 2.9-7.6s-.4-7.6-2.9-7.6-2.9 2.1-2.9 7.6c.1 5.5.5 7.6 2.9 7.6zM441.9 442.6c0-3-.6-4.3-2.5-4.3-2.1 0-2.6 2.1-2.6 7.9 0 6.2.9 7.4 2.7 7.4 1.5 0 2.6-.8 2.6-5.2h4.1c0 4.4-1.1 8.3-6.5 8.3-6.2 0-7-4.4-7-10.7s.8-10.7 7-10.7c5.9 0 6.4 4.4 6.4 7.4l-4.2-.1zM460.6 435.7v3.4h-4.5v17.2h-4.2v-17.2h-4.5v-3.4h13.2zM469 435.3c6.2 0 7 4.4 7 10.7 0 6.3-.8 10.7-7 10.7s-7-4.4-7-10.7c0-6.3.7-10.7 7-10.7zm0 18.3c2.4 0 2.9-2.1 2.9-7.6s-.4-7.6-2.9-7.6-2.9 2.1-2.9 7.6.4 7.6 2.9 7.6zM478.4 435.7h6.9c3.4 0 5.9 1.3 5.9 5.2 0 2.2-1.1 3.9-3.1 4.5v.1c2.3.3 3.7 2 3.7 4.8 0 3.2-1.6 6-6.4 6h-7v-20.6zm4.2 8.4h1.2c2.3 0 3.3-.8 3.3-2.7 0-2-1-2.7-3-2.7h-1.5v5.4zm0 9.1h1.6c2 0 3.3-.7 3.3-3.1s-1.4-3.1-3.2-3.1h-1.8l.1 6.2zM506 435.7v3.4h-7.4v4.8h6.9v3.4h-6.9v5.5h7.6v3.4h-11.8v-20.6l11.6.1zM508.3 435.7h7.7c3.4 0 5.5 1.8 5.5 5.3 0 2.7-1.1 4.6-3.4 5.1v.1c2.8.4 3.3 1.9 3.3 6.3 0 2.2.1 3.3.9 3.7v.2h-4.5c-.4-.6-.5-1.4-.5-2.2l-.1-3.9c-.1-1.6-.8-2.6-2.5-2.6h-2.2v8.7h-4.2v-20.7zm4.2 9h1.7c2 0 3.1-.9 3.1-3.1 0-1.9-1-2.9-2.9-2.9h-2l.1 6z"/></g></svg>