<svg xmlns="http://www.w3.org/2000/svg" viewBox="0 0 414.14 424.65"><g data-name="Layer 1"><path d="M157.99 213.47v86.6h.06v-173.3h-.06z" fill="none"/><path d="M157.77 300.06V126.77h.06V.43C99.18 0 31.72 0 31.72 0v422.12s67.54.88 126.11 1V300.06z" fill="#131f6b"/><path d="M400.87 212.83H280.39c-1-75.58-44.74-84.55-53.19-85.28-8.83-.76-68-.77-69.37-.77V.43c37.49.27 71.65.72 82.12 1.46 25.64 1.8 160 21.17 160.92 209.12" fill="#131f6b"/><path d="M400.87 212.83H280.39v2.34c-.31 77.16-46 85-53.55 85.92-8.07 1-67.74 0-69.1 0v123.09c38 .1 72.21-.1 81.86-1 22.71-2.2 160.28-21.34 161.22-209.3v-.82c.05-.1.05-.16.05-.23z" fill="#d9272e"/><circle cx="272.94" cy="77.48" r="51.87" fill="none" stroke="#ff6c36" stroke-miterlimit="10" stroke-width="5.847"/><path d="M262.99 76.7a35.89 35.89 0 0127.93-35 39.4 39.4 0 102.26 70.42 35.89 35.89 0 01-30.19-35.42z" fill="#fff"/><path d="M256.89 90.06c5.22-2 11.42-2.6 15.13-6.79 2.16-2.44 3.12-5.79 5.39-8.14 5.22-5.4 14.09-3.11 21.56-3.88 7-.72 13.33-4.44 19.92-7s14.47-3.86 20.4 0c4.28 2.77 6.77 7.75 11.11 10.42 9.8 6 24.35-2.07 33.39 5 3.61 2.84 5.37 7.52 8.93 10.42 6.23 5.08 16.68 3.72 21.42 10.21-2.1 3.71-7.17 4.15-11.43 4.15l-91.16-.05h-45.58c-4 0-14.27 2.06-16.7-2.21-2.79-4.93 3.6-10.59 7.62-12.13zM111.58 51.95c6-2.35 13.2-3 17.49-7.85 2.5-2.82 3.61-6.7 6.23-9.41 6-6.24 16.29-3.6 24.93-4.48 8.13-.83 15.41-5.13 23-8.09s16.72-4.47 23.58 0c4.95 3.2 7.82 9 12.84 12 11.33 7 28.15-2.39 38.6 5.83 4.17 3.28 6.21 8.7 10.32 12 7.2 5.87 19.28 4.3 24.76 11.8-2.4 4.35-8.26 4.85-13.18 4.85l-105.37-.06H122.1c-4.59 0-16.49 2.39-19.3-2.55-3.25-5.72 4.19-12.23 8.78-14.04z" style="mix-blend-mode:multiply" fill="#446ca9"/><path fill="none" stroke="#fff" stroke-miterlimit="10" stroke-width="2.136" d="M69.82 43.93l-5.13-5.82-21.25 13.33 2.98 7.95M122.46 44.94l5.13-5.82 21.25 13.33-3.34 8.9M74.29 43.14l1.25-10.07h40.96l2.01 11.19"/><path d="M155.8 80.19c-12.81-34.44-46.29-39.44-58.81-40.09v-.06h-4.8v.06c-12.47.65-45.91 5.65-58.76 40.09H13.22l13.84 28.48H44.6s5.05-44.41 50-46.75c45 2.34 50 46.75 50 46.75h17.55l13.84-28.48z" fill="none" stroke="#fff" stroke-linecap="round" stroke-linejoin="round" stroke-width="2.136"/><circle cx="94.64" cy="117.38" r="37.48" fill="none" stroke="#fff" stroke-miterlimit="10" stroke-width="2.136"/><circle cx="94.64" cy="117.38" r="29.94" fill="#fff"/><path fill="none" stroke="#fff" stroke-linecap="round" stroke-linejoin="round" stroke-width="2.136" d="M41 108.67v69.03h107.27v-69.03"/><path fill="#cd242f" stroke="#fff" stroke-miterlimit="10" stroke-width="2.136" d="M47.21 177.7v173.32M143.07 177.7V348"/><path d="M101.14 8.22H90.75s-.34 13-8.08 15.87l2.47 9h21.61l2.47-9c-7.75-2.91-8.08-15.87-8.08-15.87z" fill="none" stroke="#fff" stroke-miterlimit="10" stroke-width="2.136"/><path d="M84.77 95.82l4.86-2.22h1.63v13.45h-2.91V96.99c-.88.38-2.13.77-2.84 1.08zM97.65 104.85c.79-.1 1.94-.12 2.09-.12h3.84v2.36h-9.86l-.29-1.77 5.11-4.71c.88-.77 1.81-1.82 1.81-2.84a1.86 1.86 0 00-2.11-1.9 2 2 0 00-2.21 2.07h-2.81c0-1.77 1.27-4.52 5-4.52 2.94 0 4.94 1.67 4.94 4.32 0 2.09-1.5 3.65-2.79 4.75z" fill="#d9272e"/><path fill="none" stroke="#242f5e" stroke-linecap="round" stroke-miterlimit="10" stroke-width="4.271" d="M79.79 111.22l14.85 8.29M113.93 108.55l-19.29 10.96"/><circle cx="193.26" cy="96.54" r="1.94" fill="#fff"/><circle cx="300.04" cy="160.61" r="1.94" fill="#fff"/><circle cx="368.8" cy="155.65" r="1.94" fill="#fff"/><circle cx="344.6" cy="114.36" r="1.94" fill="#fff"/><circle cx="171.9" cy="53.83" r="1.94" fill="#fff"/><circle cx="214.61" cy="32.47" r="1.94" fill="#fff"/><circle cx="150.54" cy="15.39" r="1.94" fill="#fff"/><path fill="#cd242f" d="M235.811 180.253l2.758.676-7.621 31.1-2.758-.676z"/><path fill="#cd242f" d="M234.287 177.471l6.941 1.63-.66 2.814-6.942-1.63zM245.427 182.343l2.758.676-7.621 31.1-2.758-.676z"/><path fill="#cd242f" d="M243.906 179.546l6.942 1.63-.661 2.814-6.941-1.63zM226.07 210.33l6.941 1.631-.66 2.813-6.942-1.63zM235.687 212.415l6.941 1.63-.66 2.814-6.942-1.63zM255.455 184.537l2.759.676-7.622 31.1-2.758-.676z"/><path fill="#cd242f" d="M253.938 181.752l6.94 1.63-.66 2.813-6.941-1.63z"/><path d="M280.79 191.47a137.73 137.73 0 01-21.32-3l-35.62-7.78s-24-10.22-27.09-27.34c0 0 .07-3.84-2.51-2.08 0 0-11.79 19.63-8 48 0 0 2.15 1 3-2.12 0 0 11.57-11.92 20.6-11.92a83 83 0 019.76 1 12.55 12.55 0 005.25 20.25l35 7.67a12.54 12.54 0 0013.13-17.68 29.47 29.47 0 016 2.52zm-11.59 14.18a8.37 8.37 0 01-8.49 4.51l-34.87-7.64a8.41 8.41 0 01-.8-15.43c16.33 2.65 38.69 7.14 38.69 7.14s.95.16 2.39.47a8.3 8.3 0 013.08 10.96z" fill="#d9272e"/><path d="M259.26 198.6a62.85 62.85 0 00-1.93-10.54c-.35-1.28-1.05-2.8-2.38-2.83a2.12 2.12 0 00-1.81 1.19 5.3 5.3 0 00-.5 2.2 23.24 23.24 0 00.13 4.32 10.76 10.76 0 00-1.83-5.6 5.79 5.79 0 00-5.13-2.48 1.28 1.28 0 00-1 .54 1.45 1.45 0 00-.06.89 45.15 45.15 0 002.36 9.18 24.7 24.7 0 00-2.48-5.52c-.75-1.23-2-2.55-3.39-2.13a2.39 2.39 0 00-1.49 2.06 7 7 0 00.37 2.64l1.7 6.23-1.1-2.15a3.07 3.07 0 00-1-1.34 1.92 1.92 0 00-2.29.38 3.39 3.39 0 00-.86 2.29 11.17 11.17 0 001.29 4.78q5 11.45 10.16 22.86a5.66 5.66 0 002.14 2.87 4.65 4.65 0 002.94.29 26 26 0 003.62-.94l5.34-1.66a5.05 5.05 0 003.1-1.9l-2.34-6.77a24.48 24.48 0 01-1-3.57c-.66-3.64.34-7.37 1.61-10.84a71.37 71.37 0 013.6-8.21c.05-.11-4.36-1.56-5.06-.89-.46.44-.68 1.79-1 2.39a11.35 11.35 0 01-1.71 2.26zM328.99 184.91a43.11 43.11 0 001.92-6.69c.68-3.74.46-7.81-1.57-11a21.89 21.89 0 00-3.9-4.26l-6.98-6.36c-6.83-6.25-16.18-3.78-22.41 2.41a32.73 32.73 0 00-7.76 13.49c-.49 1.56-1 3.29-2.41 4.15a8.33 8.33 0 01-3.75.75 14.65 14.65 0 00-5.6 1.65c-1 .54-2.1 1.51-1.83 2.63a2.31 2.31 0 00.87 1.18 15.37 15.37 0 003.91 1.9 6.52 6.52 0 013.41 2.58c.7 1.27.43 3.17-.89 3.79-.64.3-1.55.38-1.75 1.06s.63 1.28 1.08 1.89a2.21 2.21 0 01-1.94 3.32c-.43.38-.26 1.11.11 1.55a15.23 15.23 0 011.21 1.23c1.2 1.83-1.3 3.89-1.66 6-.41 2.49 2.2 4.47 4.66 5.07s5.17.5 7.3 1.85a8.3 8.3 0 013.45 6 24.58 24.58 0 01-.4 7.08 218.78 218.78 0 0027.3 1.64 3.39 3.39 0 001.94-.4c1.05-.72 1-2.27.79-3.54a75.65 75.65 0 01-.68-11.53s3.48-9.1 10-13.29z" fill="#fff"/><path d="M291.68 169.68c4.17 2 12.31 7 16.32 9.33 6.15 3.61 8.93 2.61 12.36 8.86 1.32 2.41 1.6 5.22 2.8 7.7 1.07 2.22 4.35 4.08 6.29 5.6a3.2 3.2 0 002.74.9 3.46 3.46 0 001.46-1.12 49.7 49.7 0 008.34-11.72c2.06-4.36 3-9.4 1.74-14.06-1.67-6.2-5.67-8.83-10.59-12.95a55.14 55.14 0 00-11.15-7.23 30.46 30.46 0 00-19.36-2.33 65.53 65.53 0 00-11.43 3c-2.41.89-8 .3-10.13 1.82s-2.67 4.89-.29 6.44a104.62 104.62 0 0010.9 5.76z" fill="#00945e"/><path d="M293.13 175.99c-.17 1.38-.28 3 .67 4a2.69 2.69 0 003 .54 3.37 3.37 0 001.88-2.43M309.82 186.41a5.78 5.78 0 012.95-1.77 3.41 3.41 0 013.2.94 4.42 4.42 0 01.86 3.13 10.66 10.66 0 01-4.66 8.35 3.14 3.14 0 01-1.62.63c-1.55 0-2.43-1.76-2.79-3.27" fill="none" stroke="#131f6b" stroke-linecap="round" stroke-miterlimit="10" stroke-width="1.222"/><path d="M304.74 390.6l-35.59 10.68s-11-68.72-2.28-92l81.3-2.66a183.28 183.28 0 01-11.18 37.86l17 19.28s-14.53 17.44-26.82 25.33c-2.13.55-7.57 1.1-7.57 1.1z" fill="#00945e"/><path d="M267.45 325.44h80.89c4-31.5-21.09-114-24.83-108.38s-31 5.34-31 5.34l-11.75 22.69-18-27.59-16.73 6.77 24.83 40.84s-8 35.77-8 60.33v-8.54zM351.33 366.92a11.63 11.63 0 00.73-1 21.64 21.64 0 00-42.88 4.09c0 9.9 8.25 17 17.32 19.57 0 0 8.34-5.33 13.88-11.25l1.53-1.63-1.53 1.63s8.9-8.46 10.95-11.37m-8.68 9zM351.38 366.85l-.05.07z" fill="#131f6b"/><path d="M388.2 226.48c-13.73-4.8-15.89 2.48-15.89 2.48s-8.44 23-8.27 24.82 3.64 4.8 3.64 4.8l-12.44 33.23a56.45 56.45 0 00-17.18 0c-32.27 4.8-25.81 42.69-25.81 42.69s1 12.25-7.78 17c0 0-43.52 18.86-34.91 63.87l.31 1.82a176.65 176.65 0 0057.3-28.17 19.76 19.76 0 1124.07-22.14c13.28-14.91 25.21-33.76 34-57.63a43.36 43.36 0 00-14.25-12.08l11.95-33s4.58 0 5.88-1.29 9.81-24.26 9.81-24.26 3.14-6.88-10.43-12.14z" fill="#ff6c36"/><path fill="#ff6c36" d="M375.25 231.46l-5.95-2.37.67-1.64-2.81-1.15-2.57 6.27 2.81 1.15.73-1.78 5.99 2.38 1.13-2.86zM371.9 240.03l-5.95-2.37.67-1.64-2.81-1.15-2.57 6.27 2.81 1.15.73-1.78 5.99 2.38 1.13-2.86zM368.65 248.24l-5.96-2.36.67-1.65-2.81-1.14-2.56 6.27 2.81 1.14.72-1.78 5.99 2.38 1.14-2.86zM394.78 238.99l5.99 2.3.62-1.66 2.84 1.06-2.37 6.35-2.85-1.06.68-1.8-6.01-2.32 1.1-2.87zM391.43 247.56l5.98 2.3.62-1.66 2.84 1.06-2.37 6.35-2.84-1.07.67-1.8-6.01-2.31 1.11-2.87zM388.25 255.8l5.98 2.31.62-1.67 2.84 1.07-2.37 6.34-2.84-1.06.67-1.8-6.01-2.32 1.11-2.87z"/><path fill="none" stroke="#fff" stroke-miterlimit="10" stroke-width="2.136" d="M367.27 259.66l15.29 5.62M363.54 269.64l15.45 5.54M359.55 280.21l15.54 5.74M355.55 291.08l15.63 5.6M352.06 302.28l15.64 5.59M347.36 314.74l15.64 5.6M342.6 326.9l15.64 5.59M338.21 339.02l15.64 5.59"/><circle cx="388.04" cy="250.42" r="1.74" transform="rotate(-.14 -6335.985 3925.21)" fill="#fff"/><circle cx="399.08" cy="254.55" r="1.74" transform="rotate(-.14 -6327.805 3929.312)" fill="#fff"/><circle cx="384.71" cy="259.45" r="1.74" transform="rotate(-.14 -6340.088 3933.39)" fill="#fff"/><circle cx="395.74" cy="263.58" r="1.74" transform="rotate(-.14 -6331.908 3937.492)" fill="#fff"/><circle cx="381.64" cy="267.95" r="1.74" transform="rotate(-.14 -6344.19 3941.57)" fill="#fff"/><circle cx="392.67" cy="272.08" r="1.74" transform="rotate(-.14 -6331.918 3945.677)" fill="#fff"/><path d="M157.81 225.82a50.47 50.47 0 01-17.87 20.17c-11.77 7.53-27.2 10.59-35 22.16-7.69 11.37-6 28.56-17 36.84-2.63 2-5.74 3.21-8.68 4.7-13.39 6.76-23.27 19.14-29.64 32.72s-9.47 28.42-12.15 43.19c-2.32 12.81-4.32 25.68-5.85 38.61h126.19z" fill="#00945e"/><path d="M231.41 281.05c2.63 1.51 3.77 4.67 4.54 7.61q.68 2.62 1.19 5.29c.41 2.15.83 4.5 2.49 5.93s3.79 1.51 5.53 2.6a1.29 1.29 0 01.53.52 1.34 1.34 0 01-.37 1.31 7.56 7.56 0 01-4.51 2.73c-1.46.27-3.37.38-3.81 1.8-.38 1.22.74 2.64.11 3.76a2.15 2.15 0 01-.93.8c-2.08 1.07-5 .77-6.27 2.75a3.66 3.66 0 001.15 4.61 7.46 7.46 0 005 1.19c.62 0 1.36-.05 1.72.46a1.48 1.48 0 01.22.59 5.87 5.87 0 01-2.07 5.25 13.47 13.47 0 01-5.23 2.62c-4.08 1.23-8.63 1.77-12.51 0a15 15 0 01-6.76-6.78 37.42 37.42 0 01-3.11-9.21c-1.24-5.35-2.2-10.95-1-16.31a28.28 28.28 0 013.78-8.7c1.92-3.07 4.49-6.08 8-7 1.21-.3 2.49-.34 3.68-.71 1.41-.44 2-1.91 3.31-2.28 1.48-.38 4.05.44 5.32 1.17zM250.73 299.71l-1.74 23.65 34.8-.24s4.51-11.46.88-18.16z" fill="#fff"/><path d="M252.75 321.49l28.91-.2s3.74-9.52.73-15.09l-28.19-4.35s2.79 3 1.72 6.11-4.07 7.64-3.17 13.53zM157.81 424.18l18.61-49.58 21.85-43.47s13.39-7.86 25 0 30.41 29.47 30.41 29.47l8.15-28.24s8.15 1.46 11.06.87c0 0-2 36.39-4.08 43.66s-8.73 11.35-19.21 8.44-6.7-2.62-6.7-2.62 4 34.21 4.37 39.3c-5.15 2.91-52.79 3.04-89.46 2.17z" fill="#ffc627"/><path d="M195.24 273.72a26 26 0 00-15.46 13.7 32.83 32.83 0 00-2.65 10.2 45.45 45.45 0 00.09 10.52c.78 6.21 2.84 12.32 2.44 18.57-.43 6.65-3.6 12.75-6 19-5.17 13.53-6.55 29.36.28 42.13 2.93 5.48 7.4 10.27 13.09 12.77 5.25 2.31 11.21 2.53 16.91 1.8 5.21-.67 10.54-2.23 14.37-5.82a28.3 28.3 0 005.62-8.25c7-14.09 10.5-30.65 5.89-45.7-1.78-5.81-4.69-11.19-6.87-16.86s-3.62-11.88-2.29-17.8c.87-3.86 2.86-7.36 4.66-10.88a122.3 122.3 0 005.32-12 12.32 12.32 0 001.14-5.63c-.66-6.07-11.39-5.43-15.85-6.11-6.84-1.04-13.94-1.76-20.69.36z" fill="#131f6b"/><path d="M259.13 328.89c-1.74-1.67-3.73-3.25-4.68-5.47 1.85.35 3.51-1.24 4.42-2.88 3.28-5.86 1.7-13.34 4.14-19.6a1.94 1.94 0 01.67-1c.9-.57 2 .47 2.44 1.42.65 1.3.48 6.44.73 7.86.51-1.12 1.78-5.94 2.53-6.92a2.16 2.16 0 011.54-1c.8 0 1.35.79 1.65 1.53.72 1.77.28 6.64-.21 8.49.21-1 1.23-4.84 2.06-5.42a2.28 2.28 0 012.8 0 3.34 3.34 0 01.79 2.35 46 46 0 01-1.16 7.25 27.65 27.65 0 011.68-4.53 1.8 1.8 0 011.9-.63 2.36 2.36 0 011.17 2.24c.12 2.63-.92 5.17-2 7.58q-3.24 7.35-7 14.44a3.38 3.38 0 01-1.38 1.61 3.29 3.29 0 01-1.16.23c-2.08.15-5.57.3-7.14-1.44-.68-.75-.71-1.93-1.17-2.83a12.53 12.53 0 00-2.62-3.28z" fill="#fff"/><path d="M228.53 298.36a6.53 6.53 0 002.08 1.48 3.38 3.38 0 002.82-.12 2.17 2.17 0 001.05-1.63 4.65 4.65 0 00-.26-1.77" fill="none" stroke="#d9272e" stroke-linecap="round" stroke-miterlimit="10" stroke-width="1.222"/><path d="M328.62 321.94l-27 8.85 16.16 38.52s14.78-.23 20.56-7.32z" fill="#fff"/><path d="M305.37 334.13l14 33.37s12.35 0 17.1-6l-8.58-34.61s-2 4.6-6 4.78-10.43-1.26-16.52 2.46z" fill="#ffc627"/><path d="M352.8 365.24c-.29-.24-2.07-1.3-2.37-1.51-5.75-4.1-11.28-6.55-14.2-13a22.12 22.12 0 01-1.53-10 14.08 14.08 0 00-.26-4.7 4 4 0 00-3.28-3c-1.07 1.81-1 4.14-2.07 5.91-2.13 3.39-6.14 2.08-9.31 1.58l-14.1-2.19c-1.68-.26-3.79-.34-4.67 1.12a3 3 0 00.24 3c.58.9 4.59 1.6 5.46 2.23-5.48.07-7.31 1.65-7.23 3.77s6.51 3.15 8.51 2.8c-6.57 1.17-6.4 4.13-5.13 5.67s6.21 1.68 8.2 1.92c-5.19 1.24-5.71 2.56-5.12 4.07a3.14 3.14 0 001.06 1.27c5.13 4 13 .52 18.88 3.34 3.92 1.89 6 6.15 7.84 10.1.69 1.51 2 4.94 2 4.94s3.09-2.57 4.87-4.26 6.32-6.27 8.48-8.62c1.5-1.64 3.73-4.44 3.73-4.44z" fill="#fff"/><path d="M103.68 310.04c0-4.11 4.59-14.08 6.59-14.21s6.93 10.06 6.94 14.17-2.84 7.45-6.63 7.46a7.17 7.17 0 01-6.9-7.42zM90.41 271.39c0-4.11 4.59-14.08 6.59-14.21s6.93 10.06 6.94 14.17-2.84 7.45-6.63 7.46a7.17 7.17 0 01-6.9-7.42z" fill="#ffc627" stroke="#ff6c36" stroke-miterlimit="10" stroke-width="4.271"/><path d="M86.55 334.82s-1.39 1.08-.93 3.63 5.86 66.82 5.86 66.82 6.78 3.23 20.92 3c14.14.22 20.92-3 20.92-3s5.4-64.27 5.86-66.82-.93-3.63-.93-3.63" fill="#fff"/><path d="M127.63 349.27c-4 .27-7.27 3.71-11.27 3.83-3.58.1-6.74-2.5-10.31-2.76-2.76-.2-5.42 1-8.16 1.41a13.92 13.92 0 01-8-1.3c1.4 15.38 4.39 51 4.39 51s5.89 2.81 18.19 2.61c12.3.2 18.19-2.61 18.19-2.61s3-35.88 4.41-51.16c-2.33-.19-4.98-1.19-7.44-1.02z" fill="#ffc627"/><path d="M66.72 249.06c-4.73 14-17.4 23.45-29 32.59s-23.51 20.16-25.56 34.78c-1.93 13.76 5.53 27.1 14.27 37.9 5.63 7 11.95 13.45 16.33 21.24 7.3 13 8 29.07 3 43" fill="none" stroke="#00945e" stroke-linecap="round" stroke-linejoin="round" stroke-width="4.271"/><path d="M84.55 202.26c2.65-4.23 13.84-11.49 16-10.32s.82 15-1.83 19.2-8 5.67-11.88 3.21-4.94-7.86-2.29-12.09z" fill="#ffc627" stroke="#ff6c36" stroke-linecap="round" stroke-linejoin="round" stroke-width="4.481"/><path d="M90.41 213.22c3.61-3.44 16.25-7.72 18-6.06s-2.9 14.72-6.51 18.16-9.12 3.52-12.31.18-2.79-8.84.82-12.28zM86.25 210.6c1.53-4.75-.12-18-2.38-18.88s-12 9-13.52 13.76.79 9.75 5.18 11.16 9.19-1.28 10.72-6.04z" fill="#ffc627" stroke="#ff6c36" stroke-linecap="round" stroke-linejoin="round" stroke-width="4.481"/><path d="M90.19 226.1c4.4-2.36 17.71-3.12 19-1s-6.71 13.42-11.1 15.77-9.73 1-11.91-3.09-.39-9.32 4.01-11.68zM74.28 216.28c.28-5-4.64-17.38-7.05-17.67s-9.34 11.73-9.63 16.72 3.22 9.24 7.82 9.5 8.57-3.57 8.86-8.55zM76.8 214.6c2.65-4.23 13.84-11.49 16-10.32s.82 15-1.83 19.2-8 5.67-11.88 3.21-4.94-7.85-2.29-12.09z" fill="#ffc627" stroke="#ff6c36" stroke-linecap="round" stroke-linejoin="round" stroke-width="4.481"/><path d="M81.47 226.3c4.07-2.89 17.19-5.29 18.72-3.4s-5 14.14-9.06 17-9.54 2.17-12.2-1.59-1.53-9.13 2.54-12.01zM78.09 224.18c.83-4.92-2.71-17.78-5.08-18.33s-10.57 10.64-11.4 15.57 2.19 9.53 6.74 10.3 8.92-2.62 9.74-7.54z" fill="#ffc627" stroke="#ff6c36" stroke-linecap="round" stroke-linejoin="round" stroke-width="4.481"/><path d="M78.48 237.36c5-.21 17.31 4.88 17.57 7.3s-11.87 9.17-16.85 9.39-9.19-3.35-9.39-8 3.68-8.45 8.67-8.69zM69.06 231.46c-2-4.58-11.92-13.47-14.22-12.64s-3.1 14.67-1.13 19.26 7 6.82 11.25 5 6.03-7.04 4.1-11.62z" fill="#ffc627" stroke="#ff6c36" stroke-linecap="round" stroke-linejoin="round" stroke-width="4.481"/><path d="M63.88 235.2c2.65-4.23 13.84-11.49 16-10.32s.82 15-1.83 19.2-8 5.67-11.88 3.21-4.94-7.87-2.29-12.09z" fill="#ffc627" stroke="#ff6c36" stroke-linecap="round" stroke-linejoin="round" stroke-width="4.481"/><path d="M12.66 232.84a12.38 12.38 0 00-3.81 23.25 12.72 12.72 0 0014.4-2.24c2.26-2.25 3.5-6.13 1.45-8.57-1.76-2.09-5.35-2-7.29 0a7.11 7.11 0 00-1.22 7.63 11.65 11.65 0 005.68 5.66 15.74 15.74 0 0012.95.67 13.19 13.19 0 008-10 3.6 3.6 0 00-.81-3.3 2.64 2.64 0 00-1.76-.57c-2.34 0-4.12 2.57-3.86 4.89a6.81 6.81 0 004.25 5.17 16 16 0 006.89 1c6.54-.2 13.9-2.28 16.76-8.16" fill="none" stroke="#00945e" stroke-linecap="round" stroke-linejoin="round" stroke-width="4.271"/></g></svg>