<svg xmlns="http://www.w3.org/2000/svg" width="738" height="254.969" viewBox="0 0 738 254.969"><path fill="#FFF" d="M-3-5h746v266H-3z"/><path fill="none" stroke="#09875D" stroke-width="5" stroke-miterlimit="10" d="M125.908 6.25l.234 244.126M245.973 188.383l.342 59.859M366.537 47.426l-240.117.918M366.646 187.306l-239.392.688M733.844 247.479l-729.017.553M276.246 187.55v59.067M304.593 187.55v59.067M334.607 187.55v59.067M212.881 187.279v59.338"/><g fill="#0D8256"><path d="M141.11 22.514h-4.848v-3.312h13.44v3.312h-4.848v13.68h-3.744v-13.68zM151.598 19.202h3.744v6.336h7.272v-6.336h3.744v16.992h-3.744V28.85h-7.272v7.344h-3.744V19.202zM169.958 19.202h11.544v3.456h-7.8v3.168h7.368v3.456h-7.368v3.456h8.232v3.456h-11.976V19.202zM197.221 23.234l-3.408 3-2.04-2.352 5.544-4.68h3.36v16.992h-3.456v-12.96zM211.429 23.234l-3.408 3-2.04-2.352 5.544-4.68h3.36v16.992h-3.456v-12.96zM227.94 27.41h-3.168v3.888c0 .32.016.612.048.876s.104.492.216.684c.112.192.284.34.516.444.231.104.54.156.924.156.192 0 .444-.02.756-.06s.548-.132.708-.276v3c-.4.144-.816.24-1.248.288-.432.048-.856.072-1.272.072a6.92 6.92 0 0 1-1.68-.192 3.832 3.832 0 0 1-1.344-.612 2.866 2.866 0 0 1-.9-1.092c-.216-.448-.324-.992-.324-1.632V27.41h-2.304v-2.88h2.304v-3.456h3.6v3.456h3.168v2.88zM233.365 18.05v8.064h.048c.08-.224.216-.448.408-.672s.424-.424.696-.6a3.79 3.79 0 0 1 .96-.432 4.138 4.138 0 0 1 1.2-.168c.912 0 1.647.141 2.208.42.56.28.996.668 1.308 1.164.312.496.523 1.08.636 1.752.112.672.168 1.4.168 2.184v6.432h-3.6v-5.712c0-.336-.012-.684-.036-1.044a3.294 3.294 0 0 0-.216-.996 1.72 1.72 0 0 0-.552-.744c-.249-.192-.604-.288-1.068-.288-.464 0-.84.084-1.128.252a1.724 1.724 0 0 0-.66.672c-.152.28-.252.596-.3.948a8.17 8.17 0 0 0-.072 1.104v5.808h-3.6V18.05h3.6zM256.692 19.202h3.096l7.392 16.992h-4.224l-1.464-3.6h-6.6l-1.416 3.6h-4.128l7.344-16.992zm1.44 4.944l-2.064 5.28h4.152l-2.088-5.28zM268.884 19.202h5.088l7.224 11.808h.048V19.202h3.744v16.992h-4.896l-7.416-12.096h-.048v12.096h-3.744V19.202zM288.444 19.202h5.088l7.224 11.808h.048V19.202h3.744v16.992h-4.896l-7.416-12.096h-.048v12.096h-3.744V19.202zM322.332 29.642c0 1.008-.152 1.936-.456 2.784-.304.848-.756 1.584-1.356 2.208s-1.348 1.112-2.244 1.464c-.896.352-1.928.528-3.096.528-1.184 0-2.224-.176-3.12-.528-.896-.352-1.644-.84-2.244-1.464s-1.052-1.36-1.356-2.208c-.304-.848-.456-1.776-.456-2.784v-10.44h3.744v10.296c0 .528.084 1.016.252 1.464.168.448.404.836.708 1.164.304.328.668.584 1.092.768s.884.276 1.38.276.952-.092 1.368-.276.776-.44 1.08-.768c.304-.328.54-.716.708-1.164.168-.448.252-.936.252-1.464V19.202h3.744v10.44zM331.379 19.202h3.096l7.392 16.992h-4.224l-1.464-3.6h-6.6l-1.416 3.6h-4.128l7.344-16.992zm1.44 4.944l-2.064 5.28h4.152l-2.088-5.28zM343.716 19.202h3.744v13.536h6.936v3.456h-10.68V19.202z"/></g><g fill="#0D8256"><path d="M140.19 57.614h10.062c2.436 0 4.751.272 6.944.817 2.193.545 4.106 1.426 5.74 2.645 1.634 1.219 2.931 2.802 3.892 4.751.96 1.95 1.44 4.315 1.44 7.095 0 2.466-.466 4.638-1.397 6.515-.932 1.878-2.186 3.455-3.762 4.73-1.577 1.276-3.397 2.244-5.461 2.903-2.064.66-4.229.989-6.493.989H140.19V57.614zm6.708 24.252h3.483c1.548 0 2.988-.157 4.321-.473 1.333-.315 2.487-.838 3.461-1.569s1.742-1.691 2.301-2.881c.559-1.189.838-2.644.838-4.364 0-1.49-.279-2.788-.838-3.892a7.78 7.78 0 0 0-2.258-2.73c-.946-.716-2.057-1.254-3.333-1.612a14.816 14.816 0 0 0-4.021-.538h-3.956v18.059zM172.74 57.614h6.708v30.444h-6.708V57.614zM185.554 57.614h10.062c2.436 0 4.751.272 6.944.817 2.193.545 4.106 1.426 5.74 2.645 1.634 1.219 2.931 2.802 3.892 4.751.96 1.95 1.44 4.315 1.44 7.095 0 2.466-.466 4.638-1.397 6.515-.932 1.878-2.186 3.455-3.762 4.73-1.577 1.276-3.397 2.244-5.461 2.903-2.064.66-4.229.989-6.493.989h-10.965V57.614zm6.708 24.252h3.483c1.548 0 2.988-.157 4.321-.473 1.333-.315 2.487-.838 3.461-1.569s1.742-1.691 2.301-2.881c.559-1.189.838-2.644.838-4.364 0-1.49-.279-2.788-.838-3.892a7.78 7.78 0 0 0-2.258-2.73c-.946-.716-2.057-1.254-3.333-1.612a14.816 14.816 0 0 0-4.021-.538h-3.956v18.059zM233.24 65.053c-.545-.688-1.283-1.197-2.214-1.527-.932-.329-1.813-.494-2.645-.494-.488 0-.989.058-1.505.172a5.76 5.76 0 0 0-1.462.538 3.192 3.192 0 0 0-1.118.967c-.287.402-.43.889-.43 1.462 0 .918.344 1.62 1.032 2.107.688.488 1.555.903 2.601 1.247 1.046.344 2.172.688 3.375 1.032a13.95 13.95 0 0 1 3.376 1.462 8.003 8.003 0 0 1 2.601 2.537c.688 1.061 1.032 2.48 1.032 4.257 0 1.692-.316 3.168-.946 4.429a8.983 8.983 0 0 1-2.559 3.139c-1.075.832-2.322 1.448-3.741 1.849a16.451 16.451 0 0 1-4.494.602c-1.978 0-3.813-.301-5.504-.903-1.692-.602-3.268-1.576-4.73-2.924l4.773-5.246a6.96 6.96 0 0 0 2.602 2.128 7.419 7.419 0 0 0 3.247.752c.544 0 1.097-.064 1.655-.193a5.39 5.39 0 0 0 1.505-.581 3.248 3.248 0 0 0 1.075-.989c.272-.401.409-.874.409-1.419 0-.917-.352-1.641-1.054-2.171-.703-.53-1.584-.981-2.645-1.354a83.94 83.94 0 0 0-3.44-1.118 15.402 15.402 0 0 1-3.44-1.505 8.288 8.288 0 0 1-2.645-2.494c-.703-1.032-1.053-2.393-1.053-4.085 0-1.634.322-3.067.967-4.3a9.342 9.342 0 0 1 2.58-3.096c1.075-.831 2.314-1.455 3.72-1.871a15.243 15.243 0 0 1 4.343-.623c1.72 0 3.382.244 4.988.731a11.525 11.525 0 0 1 4.343 2.451l-4.599 5.031zM242.872 57.614h11.352c1.318 0 2.644.093 3.977.279 1.333.187 2.53.559 3.591 1.118a6.887 6.887 0 0 1 2.58 2.343c.659 1.004.989 2.337.989 3.999 0 1.72-.48 3.146-1.44 4.279-.961 1.133-2.229 1.942-3.806 2.429v.086c1.003.144 1.914.423 2.73.839a7.303 7.303 0 0 1 2.107 1.591 6.779 6.779 0 0 1 1.354 2.257c.315.86.473 1.778.473 2.752 0 1.606-.344 2.946-1.032 4.021a8.124 8.124 0 0 1-2.666 2.602c-1.09.66-2.315 1.133-3.677 1.419-1.362.287-2.716.43-4.063.43h-12.47V57.614zm6.708 12.169h4.859c.516 0 1.024-.057 1.526-.172a4.207 4.207 0 0 0 1.354-.559c.401-.258.724-.602.968-1.032.243-.43.365-.946.365-1.548 0-.63-.136-1.154-.409-1.569s-.623-.738-1.053-.968a5.057 5.057 0 0 0-1.462-.495 8.806 8.806 0 0 0-1.591-.15h-4.558v6.493zm0 12.599h6.02c.516 0 1.039-.057 1.569-.172a4.134 4.134 0 0 0 1.44-.602c.43-.286.781-.659 1.054-1.118.272-.458.408-1.018.408-1.677 0-.716-.179-1.296-.538-1.741a3.419 3.419 0 0 0-1.354-1.011 6.963 6.963 0 0 0-1.763-.473 13.11 13.11 0 0 0-1.763-.129h-5.074v6.923zM296.406 76.319c0 1.806-.273 3.469-.817 4.988-.545 1.52-1.354 2.838-2.43 3.956s-2.416 1.993-4.021 2.623c-1.606.63-3.455.946-5.547.946-2.122 0-3.985-.316-5.59-.946-1.605-.63-2.945-1.505-4.021-2.623a10.969 10.969 0 0 1-2.429-3.956c-.545-1.519-.817-3.182-.817-4.988V57.614h6.708v18.447c0 .946.15 1.821.451 2.623a6.24 6.24 0 0 0 1.269 2.085 5.739 5.739 0 0 0 1.957 1.376c.759.33 1.583.495 2.473.495.888 0 1.705-.165 2.451-.495a5.808 5.808 0 0 0 1.935-1.376 6.276 6.276 0 0 0 1.269-2.085 7.41 7.41 0 0 0 .452-2.623V57.614h6.708v18.705zM302.598 57.614h11.782c1.548 0 3.017.15 4.408.451 1.39.301 2.608.803 3.655 1.505 1.046.703 1.877 1.648 2.494 2.838.616 1.19.924 2.673.924 4.45 0 2.15-.559 3.978-1.677 5.483-1.118 1.505-2.752 2.458-4.902 2.859l7.74 12.857h-8.041l-6.364-12.169h-3.311v12.169h-6.708V57.614zm6.708 12.598h3.956c.602 0 1.24-.021 1.914-.064a6.004 6.004 0 0 0 1.828-.387 3.16 3.16 0 0 0 1.354-1.011c.358-.458.538-1.103.538-1.935 0-.774-.158-1.39-.473-1.849a3.17 3.17 0 0 0-1.204-1.054 5.362 5.362 0 0 0-1.677-.495 13.683 13.683 0 0 0-1.849-.129h-4.386v6.924zM337.17 75.072l-11.438-17.458h8.342l6.45 11.395 6.837-11.395h7.955l-11.438 17.458v12.986h-6.708V75.072zM140.19 102.614h11.352c1.318 0 2.644.093 3.977.279 1.333.187 2.53.559 3.591 1.118a6.887 6.887 0 0 1 2.58 2.343c.659 1.004.989 2.337.989 3.999 0 1.72-.48 3.146-1.44 4.279-.961 1.133-2.229 1.942-3.806 2.429v.086c1.003.144 1.914.423 2.73.839a7.303 7.303 0 0 1 2.107 1.591 6.779 6.779 0 0 1 1.354 2.257c.315.86.473 1.778.473 2.752 0 1.606-.344 2.946-1.032 4.021a8.124 8.124 0 0 1-2.666 2.602c-1.09.66-2.315 1.133-3.677 1.419-1.362.287-2.716.43-4.063.43h-12.47v-30.444zm6.708 12.169h4.859c.516 0 1.024-.057 1.526-.172a4.207 4.207 0 0 0 1.354-.559c.401-.258.724-.602.968-1.032.243-.43.365-.946.365-1.548 0-.63-.136-1.154-.409-1.569s-.623-.738-1.053-.968a5.057 5.057 0 0 0-1.462-.495 8.806 8.806 0 0 0-1.591-.15h-4.558v6.493zm0 12.599h6.02c.516 0 1.039-.057 1.569-.172a4.134 4.134 0 0 0 1.44-.602c.43-.286.781-.659 1.054-1.118.272-.458.408-1.018.408-1.677 0-.716-.179-1.296-.538-1.741a3.419 3.419 0 0 0-1.354-1.011 6.963 6.963 0 0 0-1.763-.473 13.11 13.11 0 0 0-1.763-.129h-5.074v6.923zM168.312 102.614h20.683v6.192H175.02v5.676h13.201v6.192H175.02v6.192h14.749v6.192h-21.457v-30.444zM195.401 102.614h20.683v6.192h-13.975v5.676h13.201v6.192h-13.201v6.192h14.749v6.192h-21.457v-30.444zM222.232 102.614h11.782c1.548 0 3.017.15 4.408.451 1.39.301 2.608.803 3.655 1.505 1.046.703 1.877 1.648 2.494 2.838.616 1.19.924 2.673.924 4.45 0 2.15-.559 3.978-1.677 5.483-1.118 1.505-2.752 2.458-4.902 2.859l7.74 12.857h-8.041l-6.364-12.169h-3.311v12.169h-6.708v-30.443zm6.708 12.598h3.956c.602 0 1.24-.021 1.914-.064a6.004 6.004 0 0 0 1.828-.387 3.16 3.16 0 0 0 1.354-1.011c.358-.458.538-1.103.538-1.935 0-.774-.158-1.39-.473-1.849a3.17 3.17 0 0 0-1.204-1.054 5.362 5.362 0 0 0-1.677-.495 13.683 13.683 0 0 0-1.849-.129h-4.386v6.924zM140.448 147.613h20.425v6.192h-13.717v6.192h12.685v6.191h-12.685v11.868h-6.708v-30.443zM165.946 147.613h20.683v6.192h-13.975v5.676h13.201v6.192h-13.201v6.191h14.749v6.192h-21.457v-30.443zM207.828 155.053c-.545-.688-1.283-1.197-2.214-1.527-.932-.328-1.813-.494-2.645-.494-.488 0-.989.059-1.505.172-.516.115-1.004.295-1.462.538s-.832.566-1.118.968c-.287.401-.43.889-.43 1.461 0 .918.344 1.621 1.032 2.107.688.488 1.555.903 2.601 1.247 1.046.345 2.172.688 3.375 1.032a13.95 13.95 0 0 1 3.376 1.462 8.013 8.013 0 0 1 2.601 2.537c.688 1.062 1.032 2.479 1.032 4.257 0 1.691-.316 3.168-.946 4.43a8.992 8.992 0 0 1-2.559 3.139c-1.075.832-2.322 1.447-3.741 1.849s-2.917.603-4.494.603c-1.978 0-3.813-.301-5.504-.903-1.692-.603-3.268-1.576-4.73-2.925l4.773-5.245a6.96 6.96 0 0 0 2.602 2.128 7.42 7.42 0 0 0 3.247.753c.544 0 1.097-.064 1.655-.193a5.42 5.42 0 0 0 1.505-.581c.444-.258.802-.587 1.075-.988s.409-.875.409-1.42c0-.916-.352-1.641-1.054-2.171-.703-.53-1.584-.981-2.645-1.354a83.94 83.94 0 0 0-3.44-1.118 15.402 15.402 0 0 1-3.44-1.505 8.299 8.299 0 0 1-2.645-2.494c-.703-1.031-1.053-2.393-1.053-4.085 0-1.634.322-3.067.967-4.3s1.505-2.264 2.58-3.096 2.314-1.455 3.72-1.871a15.243 15.243 0 0 1 4.343-.623c1.72 0 3.382.244 4.988.73a11.525 11.525 0 0 1 4.343 2.451l-4.599 5.029zM223.35 153.548h-8.686v-5.935h24.08v5.935h-8.686v24.51h-6.708v-24.51zM242.055 147.613h6.708v30.444h-6.708v-30.444zM251.858 147.613h7.654l7.525 19.952h.086l7.654-19.952h7.181l-12.556 30.444h-5.375l-12.169-30.444zM292.494 147.613h5.547l13.244 30.444h-7.568l-2.623-6.45h-11.825l-2.537 6.45h-7.396l13.158-30.444zm2.579 8.859l-3.698 9.46h7.439l-3.741-9.46zM314.595 147.613h6.708v24.252h12.427v6.192h-19.135v-30.444z"/></g><g fill="#0D8256"><path d="M138.705 223.439l6.6-5.928c.336-.305.672-.648 1.008-1.032s.504-.832.504-1.345c0-.575-.208-1.027-.624-1.355a2.297 2.297 0 0 0-1.464-.492c-.672 0-1.196.209-1.572.624-.376.417-.588.929-.636 1.536l-3.6-.264c.048-.88.231-1.645.552-2.292a4.816 4.816 0 0 1 1.272-1.62 5.375 5.375 0 0 1 1.86-.973 7.973 7.973 0 0 1 2.316-.323c.768 0 1.488.108 2.16.323a5.05 5.05 0 0 1 1.752.961c.496.424.884.956 1.164 1.596.28.641.42 1.384.42 2.232a6.05 6.05 0 0 1-.168 1.476 5.04 5.04 0 0 1-.468 1.2 5.55 5.55 0 0 1-.708.996c-.272.304-.568.6-.888.888l-5.16 4.44h7.536v3.168h-11.856v-3.816zM164.145 213.432h-6.744l-.072 2.615c.368-.127.872-.191 1.512-.191.864 0 1.656.128 2.376.384.72.257 1.34.628 1.86 1.116s.924 1.08 1.212 1.775c.288.696.432 1.477.432 2.34 0 .961-.164 1.816-.492 2.568a5.48 5.48 0 0 1-1.356 1.908c-.576.52-1.26.916-2.052 1.188a7.894 7.894 0 0 1-2.58.408c-1.472 0-2.704-.359-3.696-1.08-.992-.72-1.672-1.808-2.04-3.264l3.768-.863c.096.607.352 1.1.768 1.476.416.376.936.563 1.56.563.768 0 1.38-.24 1.836-.72.456-.479.684-1.088.684-1.823 0-.561-.116-1.021-.348-1.381a2.628 2.628 0 0 0-.912-.863c-.376-.217-.796-.364-1.26-.444s-.928-.12-1.392-.12c-.592 0-1.188.057-1.788.168-.6.112-1.18.264-1.74.456l.192-9.384h10.272v3.168zM172.449 222.719h-5.904v-2.879h5.904v2.879zM174.225 223.439l6.6-5.928c.336-.305.672-.648 1.008-1.032s.504-.832.504-1.345c0-.575-.208-1.027-.624-1.355a2.297 2.297 0 0 0-1.464-.492c-.672 0-1.196.209-1.572.624-.376.417-.588.929-.636 1.536l-3.6-.264c.048-.88.231-1.645.552-2.292a4.816 4.816 0 0 1 1.272-1.62 5.375 5.375 0 0 1 1.86-.973 7.973 7.973 0 0 1 2.316-.323c.768 0 1.488.108 2.16.323a5.05 5.05 0 0 1 1.752.961c.496.424.884.956 1.164 1.596.28.641.42 1.384.42 2.232a6.05 6.05 0 0 1-.168 1.476 5.04 5.04 0 0 1-.468 1.2 5.55 5.55 0 0 1-.708.996c-.272.304-.568.6-.888.888l-5.16 4.44h7.536v3.168h-11.856v-3.816zM196.545 213.575h-8.4v-3.312h12.432v3.168l-6.792 13.824h-4.2l6.96-13.68z"/></g><path fill="#0D8256" d="M255.094 223.439l6.6-5.928c.336-.305.672-.648 1.008-1.032s.504-.832.504-1.345c0-.575-.208-1.027-.624-1.355a2.297 2.297 0 0 0-1.464-.492c-.672 0-1.196.209-1.572.624-.376.417-.588.929-.636 1.536l-3.6-.264c.048-.88.231-1.645.552-2.292a4.816 4.816 0 0 1 1.272-1.62 5.375 5.375 0 0 1 1.86-.973 7.973 7.973 0 0 1 2.316-.323c.768 0 1.488.108 2.16.323a5.05 5.05 0 0 1 1.752.961c.496.424.884.956 1.164 1.596.28.641.42 1.384.42 2.232a6.05 6.05 0 0 1-.168 1.476 5.04 5.04 0 0 1-.468 1.2 5.55 5.55 0 0 1-.708.996c-.272.304-.568.6-.888.888l-5.16 4.44h7.536v3.168h-11.856v-3.816zM285.197 218.76c0-1.008.092-2.032.276-3.072s.512-1.984.984-2.832a5.86 5.86 0 0 1 1.932-2.076c.816-.535 1.856-.804 3.12-.804s2.304.269 3.12.804a5.868 5.868 0 0 1 1.932 2.076 9 9 0 0 1 .984 2.832c.184 1.04.276 2.064.276 3.072s-.092 2.031-.276 3.072a9.018 9.018 0 0 1-.984 2.832c-.472.848-1.116 1.539-1.932 2.075s-1.856.804-3.12.804-2.304-.268-3.12-.804-1.46-1.228-1.932-2.075a9.018 9.018 0 0 1-.984-2.832 17.618 17.618 0 0 1-.276-3.072zm3.6 0c0 .447.02.983.06 1.607.04.624.147 1.225.324 1.801.176.575.444 1.063.804 1.463.36.4.868.601 1.524.601.64 0 1.144-.2 1.512-.601.368-.399.64-.888.816-1.463.176-.576.284-1.177.324-1.801s.06-1.16.06-1.607c0-.448-.02-.984-.06-1.608s-.148-1.224-.324-1.8a3.751 3.751 0 0 0-.816-1.465c-.369-.398-.873-.6-1.512-.6-.656 0-1.164.201-1.524.6-.36.4-.628.889-.804 1.465a7.859 7.859 0 0 0-.324 1.8c-.04.623-.06 1.16-.06 1.608zM319.218 214.295l-3.408 3-2.04-2.352 5.544-4.68h3.36v16.992h-3.456v-12.96zM343.827 214.655c0-.784.148-1.468.444-2.052s.704-1.072 1.224-1.465a5.376 5.376 0 0 1 1.812-.875 8.183 8.183 0 0 1 2.208-.288c.784 0 1.52.096 2.208.288a5.252 5.252 0 0 1 1.8.875c.512.393.92.881 1.224 1.465s.456 1.268.456 2.052c0 .929-.252 1.72-.756 2.376s-1.212 1.12-2.124 1.393v.047c1.023.273 1.808.766 2.353 1.477.543.713.815 1.596.815 2.652 0 .816-.165 1.535-.492 2.16a4.515 4.515 0 0 1-1.319 1.547 5.968 5.968 0 0 1-1.909.925 8.088 8.088 0 0 1-2.256.312 8.088 8.088 0 0 1-2.256-.312 5.962 5.962 0 0 1-1.908-.925 4.496 4.496 0 0 1-1.32-1.547c-.328-.625-.492-1.344-.492-2.16 0-1.057.272-1.939.816-2.652.544-.711 1.328-1.203 2.352-1.477v-.047c-.912-.272-1.62-.736-2.124-1.393s-.756-1.447-.756-2.376zm3.312 7.441c0 .592.216 1.096.648 1.512s1.008.624 1.728.624 1.296-.208 1.728-.624.648-.92.648-1.512c0-.608-.216-1.12-.648-1.536s-1.008-.624-1.728-.624-1.296.208-1.728.624-.648.927-.648 1.536zm.288-6.937c0 .528.192.976.576 1.345.384.367.888.551 1.512.551s1.128-.184 1.512-.551c.384-.369.576-.816.576-1.345 0-.512-.192-.952-.576-1.319-.384-.368-.888-.553-1.512-.553s-1.128.185-1.512.553a1.761 1.761 0 0 0-.576 1.319z"/><g fill="#0D8256"><path d="M229.242 241c-1.303 0-2.484-.219-3.542-.655s-1.958-1.046-2.703-1.829a8.059 8.059 0 0 1-1.713-2.782c-.398-1.073-.598-2.246-.598-3.519 0-1.273.2-2.446.598-3.52a8.072 8.072 0 0 1 1.713-2.783 7.772 7.772 0 0 1 2.703-1.828c1.058-.438 2.239-.656 3.542-.656 1.304 0 2.484.219 3.542.656a7.786 7.786 0 0 1 2.703 1.828c.744.782 1.315 1.71 1.713 2.783s.598 2.246.598 3.52c0 1.272-.2 2.445-.598 3.519s-.97 2.001-1.713 2.782c-.744.783-1.645 1.393-2.703 1.829s-2.239.655-3.542.655zm0-3.726c.767 0 1.468-.118 2.104-.356.637-.238 1.188-.578 1.656-1.023s.832-.979 1.092-1.599c.261-.621.391-1.315.391-2.081 0-.768-.13-1.461-.391-2.082-.26-.621-.625-1.154-1.092-1.599s-1.02-.786-1.656-1.023a5.982 5.982 0 0 0-2.104-.356c-.751 0-1.449.119-2.093.356s-1.2.579-1.667 1.023-.832.978-1.093 1.599c-.26.621-.391 1.314-.391 2.082 0 .766.131 1.46.391 2.081.261.62.625 1.153 1.093 1.599s1.023.785 1.667 1.023 1.342.356 2.093.356zM225.332 210.342c-.429.353-.759.785-.989 1.299s-.345 1.108-.345 1.783.131 1.299.391 1.874c.261.575.625 1.073 1.093 1.495s1.023.752 1.667.989 1.342.356 2.093.356c.767 0 1.468-.119 2.104-.356.637-.237 1.188-.563 1.656-.978s.832-.9 1.092-1.461a4.214 4.214 0 0 0 .391-1.805c0-.736-.153-1.389-.46-1.955a3.897 3.897 0 0 0-1.288-1.403l2.231-2.99c.966.69 1.679 1.563 2.139 2.622s.69 2.146.69 3.266c0 1.273-.2 2.446-.598 3.52s-.97 2.001-1.713 2.783c-.744.781-1.645 1.391-2.703 1.828s-2.238.655-3.542.655c-1.303 0-2.484-.218-3.542-.655s-1.958-1.047-2.703-1.828a8.072 8.072 0 0 1-1.713-2.783c-.398-1.073-.598-2.246-.598-3.52 0-.459.042-.938.127-1.438.084-.498.218-.988.402-1.472s.429-.946.736-1.392a5.555 5.555 0 0 1 1.127-1.195l2.255 2.761zM224.274 202.084v4.646H221.1v-12.88h3.174v4.646h13.11v3.588h-13.11z"/></g><path fill="none" stroke="#09875D" stroke-width="4" stroke-linecap="round" stroke-linejoin="round" stroke-miterlimit="10" d="M404.274 143.025s1.311 4.391 3.168 7.682c1.858 3.291-8.108 51.114-8.108 51.114s8.637 6.411 19.878 4.311"/><path fill="none" stroke="#09875D" stroke-width="4" stroke-linecap="round" stroke-linejoin="round" stroke-miterlimit="10" d="M407.444 143.888s-.354 2.534 8.959 10.426c9.313 7.893 1.736 60.45 1.736 60.45s17.52 5.524 26.279-.631c0 0-3.867-32.04-2.762-44.509 1.104-12.47 1.841-33.66-.158-49.555M437.008 120.07s5.754-.006 7.411-.479c0 0-1.263-12.551-1.815-15.391M400.854 92.054l-4.753 25.563s4.229.868 6.465.868"/><path fill="none" stroke="#FCB813" stroke-width="4" stroke-linecap="round" stroke-linejoin="round" stroke-miterlimit="10" d="M423.403 75.969s-6.401-5.942-11.156.638c0 0-5.577 9.259-3.367 24.832"/><path fill="none" stroke="#FCB813" stroke-width="4" stroke-linecap="round" stroke-linejoin="round" stroke-miterlimit="10" d="M431.146 100.138s-21.425 3.827-28.58 1.302v40.932s12.321 5.998 36.307 0l-3.318-39.668"/><path fill="none" stroke="#FCB813" stroke-width="2" stroke-linecap="round" stroke-linejoin="round" stroke-miterlimit="10" d="M435.387 32.972c-.169 3.402 1.257 6.85 3.778 9.14.375.341.805.718.832 1.225.034.626-.56 1.093-1.118 1.379a8.842 8.842 0 0 1-3.651.964 6.713 6.713 0 0 0 .111 2.005 32.9 32.9 0 0 1-4.516.154c.003 1.887 2.143 3.436 3.936 2.849.744 1.36-.121 3.113-1.374 4.027-1.253.914-2.812 1.281-4.209 1.955-.971.469-1.919 1.188-2.43 2.103"/><path fill="none" stroke="#09875D" stroke-width="4" stroke-linecap="round" stroke-linejoin="round" stroke-miterlimit="10" d="M516.901 133.281s2.938 52.857 5.886 82.933c0 0 8.465 6.781 21.776 1.474 0 0-.032-27.422 2.807-39.216 2.839-11.795 8.146-16.704 12.274-19.852 4.129-3.148 13.903-8.23 12.85-22.054"/><path fill="none" stroke="#09875D" stroke-width="4" stroke-linecap="round" stroke-linejoin="round" stroke-miterlimit="10" d="M546.057 186.477l2.574 27.771s14.146 5.254 23.038 0c0 0-5.928-32.873-6.467-40.283s-1.18-15.231.017-19.539"/><path fill="none" stroke="#FCB813" stroke-width="3" stroke-linecap="round" stroke-linejoin="round" stroke-miterlimit="10" d="M483.991 38.443l-1.421-7.808 15.102-1.506.214 11.322"/><path fill="none" stroke="#09875D" stroke-width="3" stroke-linecap="round" stroke-linejoin="round" stroke-miterlimit="10" d="M469.72 48.067l.726-3.996-14.523-1.448-.205 10.888M566.703 63.55c.375-2.945 3.435-5.405 4.048-8.49.438-2.203-.428-4.516.047-6.712.188-.872.582-1.689.777-2.56.45-2.009-.208-4.139-1.333-5.864-1.124-1.726-2.682-3.116-4.221-4.485-1.931-1.718-4.043-3.518-6.613-3.782-.528-.054-1.064-.041-1.583-.15-.816-.173-1.535-.637-2.253-1.062a28.936 28.936 0 0 0-9.857-3.614c-2.273-.386-5.915 1.083-4.465 4.022.514 1.039 1.502 1.743 2.376 2.504.874.761 1.715 1.732 1.742 2.891.023.984-.552 1.898-.592 2.881-.062 1.48 1.076 2.771 1.192 4.246.112 1.444-.759 2.764-1.092 4.174-.332 1.41.335 3.344 1.782 3.302.903-.027 1.562-.82 2.193-1.467 1.342-1.375 3.445-2.36 5.171-1.516 1.458.714 2.101 2.503 2.04 4.125-.085 2.278-1.342 4.481-3.258 5.714-.417.268-.925.609-.87 1.101.023.211.153.393.256.579.804 1.472-.08 3.39.55 4.944.2.493.54.914.875 1.327.844 1.039 1.865 2.702 3.112 2.95"/><path fill="none" stroke="#09875D" stroke-width="3" stroke-linecap="round" stroke-linejoin="round" stroke-miterlimit="10" d="M543.626 33.357s-2.092 2.239-3.697 4.72c-1.604 2.48-2.334 5.716-7.149 5.849-4.814.133-7.149.543-7.441 2.235-.292 1.692 1.604 2.615 3.502 3.394 1.896.778 3.502 1.654 3.21 2.675s.584 1.632 1.751 2.494c1.167.862 2.354 3.634.666 4.801s-4.897 0-4.897 0-1.896 2.457-.438 4.511c1.459 2.055 5.801 2.847 6.093 5.786"/><path fill="none" stroke="#09875D" stroke-width="4" stroke-linecap="round" stroke-linejoin="round" stroke-miterlimit="10" d="M547.37 57.482s1.396 2.797 4.564 1.325"/><path fill="none" stroke="#09875D" stroke-width="2" stroke-linecap="round" stroke-linejoin="round" stroke-miterlimit="10" d="M483.233 37.633c-.953 1.095-1.23 3.254-.562 4.542.669 1.288 1.952 2.18 3.333 2.627.113.037.252.114.227.23-.024.117-.236-.045-.118-.057M482.187 42.651c-.503.497-1.021 1.029-1.208 1.711-.286 1.049.32 2.178 1.188 2.831.87.653 1.956.933 3.01 1.198"/><path fill="none" stroke="#09875D" stroke-width="2" stroke-linecap="round" stroke-linejoin="round" stroke-miterlimit="10" d="M481.571 46.616c-.664.806-1.702 1.373-.816 3.064.243.465.896.922 1.343 1.199.894.555 1.946.993 2.993 1.094M481.279 51.425c-.279.819.312 1.695 1.023 2.187.762.526 1.668.792 2.498 1.203 2.141 1.06 3.741 3.15 4.206 5.493.017.082.049.181.131.194.083.012.091-.163.017-.127"/><path fill="none" stroke="#09875D" stroke-width="3" stroke-linecap="round" stroke-linejoin="round" stroke-miterlimit="10" d="M499.251 56.521c-1.503-1.412-1.702-3.754-1.293-5.775.409-2.02 1.313-3.919 1.672-5.949s.033-4.383-1.57-5.679a12.722 12.722 0 0 1-1.763 3.825c-.308.453-.668.902-1.17 1.118-.451.193-.964.174-1.452.126-4.238-.422-8.22-2.921-10.441-6.555"/><path fill="none" stroke="#FCB813" stroke-width="4" stroke-linecap="round" stroke-linejoin="round" stroke-miterlimit="10" d="M533.019 71.204s-23.12-2.421-32.112-15.217l-12.372 5.533s8.741 15.649 16.35 20.75 21.787 8.214 26.369 8.214"/><path fill="none" stroke="#FCB813" stroke-width="4" stroke-linecap="round" stroke-linejoin="round" stroke-miterlimit="10" d="M521.432 88.878s-7.384 30.916-4.53 44.403c0 0 26.023 13.661 55.594 3.285 0 0 2.082-28.338-3.411-50.352"/><path fill="none" stroke="#09875D" stroke-width="4" stroke-linecap="round" stroke-linejoin="round" stroke-miterlimit="10" d="M522.648 215.231l-9.226 1.326c-1.861.269-3.788.56-5.366 1.584-1.577 1.022-2.704 2.998-2.145 4.793.354 1.132 1.294 1.986 2.297 2.617 4.274 2.692 9.737 2.172 14.696 3.131 5.491 1.062 10.923 4.031 16.367 2.752 1.519-.357 3.014-1.09 3.932-2.352.589-.808.906-1.783 1.117-2.76.576-2.672.414-5.5-.467-8.088"/><path fill="none" stroke="#09875D" stroke-width="4" stroke-linecap="round" stroke-linejoin="round" stroke-miterlimit="10" d="M569.648 215.231s2.56 9.929-2.29 11.006c-4.851 1.078-14.751.941-18.728-.943l-3.977-1.884M548.631 214.247l-3.914 1.522"/><path fill="none" stroke="#09875D" stroke-width="3" stroke-linecap="round" stroke-linejoin="round" stroke-miterlimit="10" d="M421.651 33.581l15.644-1.438c.041-3.765-2.596-7.149-5.834-9.068-3.239-1.92-7.025-2.647-10.726-3.344-1.587-.298-3.193-.598-4.805-.498-1.502.094-2.967.535-4.344 1.139-5.018 2.2-8.975 6.694-10.521 11.951-2.526 8.592 1.259 17.809.318 26.716-.514 4.866-2.421 9.459-3.798 14.154-1.378 4.697-2.218 9.809-.602 14.429.576 1.649 1.532 3.267 3.065 4.106 1.533.84 3.724.631 4.714-.81.303-.441.476-.956.644-1.463l2.084-6.269c1.068-3.213 2.231-6.576 4.739-8.85 2.508-2.275 7.891-2.697 10.754.898M421.573 33.683c-.214 1.696-.583 3.72-.044 5.342"/><path fill="none" stroke="#09875D" stroke-width="3" stroke-linecap="round" stroke-linejoin="round" stroke-miterlimit="10" d="M422.36 45.128c2.207 2.342 1.255 6.121 1.957 9.262.56 2.503 2.198 4.602 3.407 6.864 3.224 6.035 3.359 13.182 3.422 20.023"/><path fill="none" stroke="#FCB813" stroke-width="3" stroke-linecap="round" stroke-linejoin="round" stroke-miterlimit="10" d="M421.529 39.025a1.11 1.11 0 0 0-.329-.501c-.896-.831-2.484-.449-3.198.543-.715.993-.707 2.351-.358 3.523.301 1.014.873 1.997 1.787 2.529.914.532 2.206.488 2.918-.295"/><path fill="none" stroke="#FCB813" stroke-width="2" stroke-linecap="round" stroke-linejoin="round" stroke-miterlimit="10" d="M453.43 68.07c1.54-1.45 2.016-3.726 1.936-5.839-.08-2.114-.63-4.183-.794-6.292-.036-.471-.048-.97.175-1.386s.761-.7 1.183-.488c.578.291.482 1.127.686 1.741.3.907 1.371 1.368 2.322 1.283.95-.085 1.807-.584 2.628-1.071 2.974-1.766 6.063-3.642 7.883-6.583.279-.451.706-1.001 1.21-.833.654 1.445-.189 3.117-1.171 4.363a18.132 18.132 0 0 1-5.536 4.678"/><path fill="none" stroke="#FCB813" stroke-width="2" stroke-linecap="round" stroke-linejoin="round" stroke-miterlimit="10" d="M470.986 49.548c.376-.246.92.003 1.125.403s.155.881.053 1.319c-.311 1.328-1.055 2.527-1.982 3.528-.927 1-2.034 1.816-3.173 2.57M472.159 52.377c.523-.048.969.468 1.023.992.058.524-.171 1.035-.423 1.497a12.025 12.025 0 0 1-4.182 4.426M472.67 57.419c.402.308.553.864.485 1.366-.066.501-.318.959-.596 1.382a10.35 10.35 0 0 1-3.012 2.993c-1.011.655-2.126 1.127-3.185 1.701a18.732 18.732 0 0 0-6.923 6.515"/><path fill="none" stroke="#FCB813" stroke-width="4" stroke-linecap="round" stroke-linejoin="round" stroke-miterlimit="10" d="M417.413 75.344s-7.797 5.34-5.351 26.095"/><path fill="none" stroke="#09875D" stroke-width="3" stroke-linecap="round" stroke-linejoin="round" stroke-miterlimit="10" d="M419.881 92.221s14.989 11.533 19.619 11.954c4.63.421 9.049-4.525 11.89-10.417 2.841-5.892 8.944-21.571 8.944-21.571l-7.997-4.116s-4.63 11.061-6.734 14.624c-2.104 3.562-5.604 7.59-5.604 7.59l-6.627-6.839c-9.6-10.522-15.959-8.102-15.959-8.102M430.131 68.07s5.851 2.854 10.582 20.321"/><path fill="none" stroke="#09875D" stroke-width="4" stroke-linecap="round" stroke-linejoin="round" stroke-miterlimit="10" d="M436.021 217.286c.238 1.872 1.509 3.507 3.104 4.516 1.595 1.008 3.485 1.457 5.361 1.656 2.735.291 5.575.1 8.151 1.061 2.577.961 4.844 3.617 4.139 6.275-7.671 2.191-15.864-.82-23.813-.133-1.25.109-2.513.309-3.753.115-1.24-.192-2.492-.868-2.98-2.024-.319-.757-.275-1.612-.186-2.428a24.183 24.183 0 0 1 1.414-5.876c.366-.969.558-2.285.469-3.316"/><path fill="none" stroke="#09875D" stroke-width="4" stroke-linecap="round" stroke-linejoin="round" stroke-miterlimit="10" d="M426.976 221.749c1.508-.009 2.875.864 4.357 1.142 2.199.409 4.438-.528 6.305-1.761.062-.041.129-.094.128-.166-.002-.072-.131-.109-.141-.037M426.668 222.861c-6.041-.593-12.037-3.075-18.18-3.358-1.254-.058-2.531-.025-3.735-.381s-2.356-1.191-2.688-2.402c-.216-.791-.06-1.633.138-2.431a24.173 24.173 0 0 1 2.177-5.637c.491-.913.854-2.19.903-3.226M413.285 206.649c-.011 1.887 1.033 3.674 2.479 4.885.725.605 1.54 1.082 2.404 1.463"/><path fill="none" stroke="#09875D" stroke-width="4" stroke-linecap="round" stroke-linejoin="round" stroke-miterlimit="10" d="M403.73 209.878c1.496.189 2.735 1.236 4.168 1.707 2.126.697 4.469.063 6.483-.912.065-.033.139-.076.147-.148s-.114-.126-.135-.055"/><path fill="none" stroke="#FCB813" stroke-width="4" stroke-linecap="round" stroke-linejoin="round" stroke-miterlimit="10" d="M568.18 63.5c.209.521.669.891 1.113 1.232 2.659 2.043 5.491 3.976 7.464 6.686 1.975 2.711 2.937 6.462 1.419 9.452-1.266 2.492-3.952 3.942-6.629 4.747-7.836 2.358-16.356.403-23.884-2.808-3.742-1.596-7.368-3.507-10.614-5.959-1.235-.933-4.331-3.056-4.007-4.888.433-2.444 4.014-1.849 5.617-1.573 2.962.509 6.03.392 8.944-.343 2.747-.693 5.479-1.938 8.288-1.564.646.085 1.301.256 1.938.12.582-.126 1.078-.496 1.556-.852 1.037-.774 2.119-1.545 3.37-1.881.838-.225 1.727-.246 2.544-.538l2.881-1.831z"/><path fill="#FCB813" d="M429.38 37.3a.827.827 0 1 1-1.653 0 .827.827 0 0 1 1.653 0"/><path fill="#09875D" d="M540.176 45.284a.875.875 0 1 1-1.75 0 .875.875 0 0 1 1.75 0"/><path fill="none" stroke="#09875D" stroke-width="5" stroke-miterlimit="10" d="M365.59 5.625l.234 244.563M7.068 5.115l.207 245.354M733.833 6.92L4.625 7.542"/><path fill="#FCB813" d="M86.286 181.574c-3.731 3.1-14.923 4.648-23.984.775-9.06-3.875-17.588 1.162-17.588 1.162l5.145 46.793H81.14l5.146-48.73z"/><path fill="none" stroke="#09875D" stroke-width="5" stroke-linecap="round" stroke-linejoin="round" stroke-miterlimit="10" d="M81.141 230.305H49.86l-7.198-63.127h45.677zM66.709 127.297v40.019"/><path fill="#FCB813" d="M75.575 111.729a8.467 8.467 0 0 1-8.468 8.467 8.468 8.468 0 1 1 8.468-8.467"/><circle fill="none" stroke="#09875D" stroke-width="5" stroke-linecap="round" stroke-linejoin="round" stroke-miterlimit="10" cx="67.106" cy="111.729" r="8.469"/><path fill="none" stroke="#09875D" stroke-width="5" stroke-linecap="round" stroke-linejoin="round" stroke-miterlimit="10" d="M67.106 101.54V88.276M15.561 75.756c0-28.088 22.77-50.857 50.859-50.857 28.088 0 50.858 22.77 50.858 50.857"/><path fill="none" stroke="#09875D" stroke-width="5" stroke-linecap="round" stroke-linejoin="round" stroke-miterlimit="10" d="M117.278 75.756c0 28.088-22.77 50.859-50.858 50.859-28.089 0-50.859-22.771-50.859-50.859"/><path fill="none" stroke="#09875D" stroke-width="5" stroke-miterlimit="10" d="M610.031 9.271V249M731.308 9.271v239.354"/><path fill="#FCB813" d="M650.785 155.398c0 7.387-5.988 13.375-13.375 13.375-7.388 0-13.376-5.988-13.376-13.375 0-7.388 5.988-13.375 13.376-13.375 7.387 0 13.375 5.988 13.375 13.375M716.972 100.563c0 7.387-5.988 13.375-13.376 13.375-7.387 0-13.375-5.988-13.375-13.375s5.988-13.375 13.375-13.375 13.376 5.988 13.376 13.375"/><path fill="none" stroke="#09875D" stroke-width="5.545" stroke-miterlimit="10" d="M640.661 229.17c-10.179 0-19.397-3.619-26.072-9.466l-4.541-3.866"/><path fill="none" stroke="#09875D" stroke-width="5.545" stroke-linecap="round" stroke-linejoin="round" stroke-miterlimit="10" d="M703.73 26.792c10.179 0 19.397 3.617 26.071 9.465"/><path fill="#231F20" d="M637.41 148.858s.011.835.091 2.104a25.717 25.717 0 0 1-.091-2.104"/><path fill="none" stroke="#09875D" stroke-width="5.545" stroke-miterlimit="10" d="M637.565 120.621c15.408 0 27.904 10.946 27.904 24.443 0 0-.013.835-.104 2.104-.169 2.414-.587 6.406-1.579 9.174-1.515 4.221-1.058 13.555 6.098 24.936.013.012.013.034.026.046.078.126.156.263.234.388 2.756 4.519 4.31 9.678 4.31 15.146 0 17.844-16.519 32.313-36.875 32.313"/><path fill="#231F20" d="M669.45 147.048s-.012.835-.092 2.104c.057-.697.092-1.395.092-2.104"/><path fill="none" stroke="#09875D" stroke-width="3.696" stroke-miterlimit="10" d="M637.565 141.051c7.924 0 14.348 6.423 14.348 14.347 0 7.925-6.424 14.347-14.348 14.347M618.653 30.846l.986 7.291M619.689 40.122l.985 7.29M621.129 49.398l.985 7.29M620.674 43.768c.425-.249 5.173-.803 5.173-.803M622.127 53.264c.424-.249 5.172-.803 5.172-.803M620.674 34.271c.425-.249 5.173-.803 5.173-.803"/><path fill="none" stroke="#09875D" stroke-width="5.545" stroke-miterlimit="10" d="M637.735 120.621c-11.312 0-21.053 5.899-25.434 14.375l-1.795 3.653"/><path fill="none" stroke="#09875D" stroke-width="3.696" stroke-miterlimit="10" d="M637.735 141.051c-7.924 0-14.347 6.423-14.347 14.347 0 7.925 6.423 14.347 14.347 14.347"/><path fill="none" stroke="#09875D" stroke-width="3.696" stroke-miterlimit="10" d="M643.633 193.041V64.917l4.122-5.583 2.441-30.465c-2.81-1.763-12.812-2.077-12.812-2.077h.14s-10.001.314-12.812 2.077l2.442 30.465 4.121 5.583v128.124M655.967 30.846l-.986 7.291M654.932 40.122l-.986 7.29M653.491 49.398l-.985 7.29M653.946 43.768c-.424-.249-5.172-.803-5.172-.803M653.946 53.035c-.424-.249-5.172-.803-5.172-.803"/><path fill="none" stroke="#09875D" stroke-width="3.696" stroke-miterlimit="10" d="M655.253 34.342l-4.483-.472s-11.672-1.116-13.314 7.034M625.632 194.275h24.564"/><path fill="none" stroke="#09875D" stroke-width="3.696" stroke-miterlimit="10" d="M625.847 33.468s11.03.76 11.608 5.395l.28 20.563v133.615M625.847 42.964s9.972-.98 11.65 4.309M625.847 52.807s10.986-1.082 11.837 5.144M649.344 42.964s-9.971-.98-11.65 4.309M649.344 52.807s-10.56-.478-11.536 5.642"/><path fill="#231F20" d="M704.101 107.103s-.012-.835-.092-2.104c.057.697.092 1.395.092 2.104"/><path fill="none" stroke="#09875D" stroke-width="5.545" stroke-miterlimit="10" d="M703.944 135.341c-15.408 0-27.904-10.946-27.904-24.443 0 0 .012-.835.104-2.104.17-2.413.588-6.406 1.58-9.174 1.515-4.22 1.058-13.554-6.098-24.935-.014-.012-.014-.034-.026-.046-.078-.126-.157-.263-.235-.389-2.755-4.518-4.309-9.677-4.309-15.144 0-17.844 16.518-32.313 36.875-32.313"/><path fill="#231F20" d="M672.061 108.913s.012-.835.092-2.104a25.296 25.296 0 0 0-.092 2.104"/><path fill="none" stroke="#09875D" stroke-width="3.696" stroke-miterlimit="10" d="M703.944 114.91c-7.923 0-14.347-6.423-14.347-14.347s6.424-14.347 14.347-14.347M722.856 225.115l-.985-7.291M721.821 215.839l-.985-7.29M720.381 206.563l-.985-7.292M720.836 212.193c-.424.25-5.172.803-5.172.803M719.384 202.697c-.424.249-5.173.803-5.173.803M720.836 221.689c-.424.25-5.172.803-5.172.803"/><path fill="none" stroke="#09875D" stroke-width="5.545" stroke-miterlimit="10" d="M703.774 135.341c11.312 0 21.054-5.899 25.435-14.376"/><path fill="none" stroke="#09875D" stroke-width="3.696" stroke-miterlimit="10" d="M703.774 114.91c7.924 0 14.348-6.423 14.348-14.347s-6.424-14.347-14.348-14.347"/><path fill="none" stroke="#09875D" stroke-width="3.696" stroke-miterlimit="10" d="M697.877 62.92v128.124l-4.121 5.583-2.442 30.465c2.811 1.764 12.812 2.077 12.812 2.077h-.14s10.002-.313 12.812-2.077l-2.44-30.465-4.123-5.583V62.92M685.544 225.115l.984-7.291M686.579 215.839l.985-7.29M688.02 206.563l.983-7.292M687.564 212.193c.424.25 5.172.803 5.172.803M687.564 202.926c.424.249 5.172.803 5.172.803"/><path fill="none" stroke="#09875D" stroke-width="3.696" stroke-miterlimit="10" d="M686.258 221.619l4.483.473s11.672 1.115 13.314-7.034M715.879 61.686h-24.566"/><path fill="none" stroke="#09875D" stroke-width="3.696" stroke-miterlimit="10" d="M715.664 222.493s-11.03-.761-11.608-5.394l-.281-20.564V62.92M715.664 212.996s-9.972.982-11.65-4.307M715.664 203.154s-10.987 1.082-11.837-5.144M692.166 212.996s9.972.982 11.65-4.307M692.166 203.154s10.561.478 11.537-5.641"/><path fill="#231F20" d="M704.101 107.103s-.012-.835-.092-2.104c.057.697.092 1.395.092 2.104"/><path fill="none" stroke="#09875D" stroke-width="5.545" stroke-miterlimit="10" d="M703.944 135.341c-15.408 0-27.904-10.946-27.904-24.443 0 0 .012-.835.104-2.104.17-2.413.588-6.406 1.58-9.174 1.515-4.22 1.058-13.554-6.098-24.935-.014-.012-.014-.034-.026-.046-.078-.126-.157-.263-.235-.389-2.755-4.518-4.309-9.677-4.309-15.144 0-17.844 16.518-32.313 36.875-32.313"/><path fill="#231F20" d="M672.061 108.913s.012-.835.092-2.104a25.296 25.296 0 0 0-.092 2.104"/><path fill="none" stroke="#09875D" stroke-width="3.696" stroke-miterlimit="10" d="M703.944 114.91c-7.923 0-14.347-6.423-14.347-14.347s6.424-14.347 14.347-14.347M722.856 225.115l-.985-7.291M721.821 215.839l-.985-7.29M720.381 206.563l-.985-7.292M720.836 212.193c-.424.25-5.172.803-5.172.803M719.384 202.697c-.424.249-5.173.803-5.173.803M720.836 221.689c-.424.25-5.172.803-5.172.803"/><path fill="none" stroke="#09875D" stroke-width="5.545" stroke-miterlimit="10" d="M703.774 135.341c11.312 0 21.054-5.899 25.435-14.376l2.099-7.026"/><path fill="none" stroke="#09875D" stroke-width="3.696" stroke-miterlimit="10" d="M703.774 114.91c7.924 0 14.348-6.423 14.348-14.347s-6.424-14.347-14.348-14.347"/><path fill="none" stroke="#09875D" stroke-width="3.696" stroke-miterlimit="10" d="M697.877 62.92v128.124l-4.121 5.583-2.442 30.465c2.811 1.764 12.812 2.077 12.812 2.077h-.14s10.002-.313 12.812-2.077l-2.44-30.465-4.123-5.583V62.92M685.544 225.115l.984-7.291M686.579 215.839l.985-7.29M688.02 206.563l.983-7.292M687.564 212.193c.424.25 5.172.803 5.172.803M687.564 202.926c.424.249 5.172.803 5.172.803"/><path fill="none" stroke="#09875D" stroke-width="3.696" stroke-miterlimit="10" d="M686.258 221.619l4.483.473s11.672 1.115 13.314-7.034M715.879 61.686h-24.566"/><path fill="none" stroke="#09875D" stroke-width="3.696" stroke-miterlimit="10" d="M715.664 222.493s-11.03-.761-11.608-5.394l-.281-20.564V62.92M715.664 212.996s-9.972.982-11.65-4.307M715.664 203.154s-10.987 1.082-11.837-5.144M692.166 212.996s9.972.982 11.65-4.307M692.166 203.154s10.561.478 11.537-5.641"/><path fill="none" stroke="#FFF" stroke-width="5" stroke-miterlimit="10" d="M2.5 2.5h733v250H2.5z"/></svg>