<svg xmlns="http://www.w3.org/2000/svg" width="285.003" height="154.254" viewBox="118.497 40.398 285.003 154.254"><path fill="none" stroke="#09875D" stroke-width="5" stroke-miterlimit="10" d="M125.946 45.859l.138 144.657M398.625 47.426l-272.205.918M398.667 187.307l-271.413.687"/><g fill="#0D8256"><path d="M140.19 57.614h10.062c2.436 0 4.751.271 6.944.817 2.193.545 4.106 1.426 5.74 2.645 1.634 1.219 2.931 2.802 3.892 4.751.96 1.95 1.44 4.315 1.44 7.095 0 2.466-.466 4.638-1.397 6.515-.932 1.878-2.186 3.455-3.762 4.73-1.577 1.276-3.397 2.244-5.461 2.903-2.064.66-4.229.989-6.493.989H140.19V57.614zm6.708 24.252h3.483c1.548 0 2.988-.157 4.321-.473 1.333-.315 2.487-.838 3.461-1.569.974-.731 1.742-1.691 2.301-2.881.559-1.189.838-2.644.838-4.364 0-1.49-.279-2.788-.838-3.892a7.78 7.78 0 0 0-2.258-2.73c-.946-.716-2.057-1.254-3.333-1.612a14.816 14.816 0 0 0-4.021-.538h-3.956v18.059h.002zM172.74 57.614h6.708v30.444h-6.708V57.614zM185.554 57.614h10.062c2.436 0 4.751.271 6.944.817 2.193.545 4.106 1.426 5.74 2.645 1.634 1.219 2.931 2.802 3.892 4.751.96 1.95 1.44 4.315 1.44 7.095 0 2.466-.466 4.638-1.397 6.515-.932 1.878-2.186 3.455-3.762 4.73-1.577 1.276-3.397 2.244-5.461 2.903-2.064.66-4.229.989-6.493.989h-10.965V57.614zm6.708 24.252h3.483c1.548 0 2.988-.157 4.321-.473 1.333-.315 2.487-.838 3.461-1.569.974-.731 1.742-1.691 2.301-2.881.559-1.189.838-2.644.838-4.364 0-1.49-.279-2.788-.838-3.892a7.78 7.78 0 0 0-2.258-2.73c-.946-.716-2.057-1.254-3.333-1.612a14.816 14.816 0 0 0-4.021-.538h-3.956v18.059h.002zM233.24 65.053c-.545-.688-1.283-1.197-2.214-1.527-.932-.329-1.813-.494-2.645-.494-.488 0-.989.058-1.505.172a5.76 5.76 0 0 0-1.462.538 3.192 3.192 0 0 0-1.118.967c-.287.402-.43.889-.43 1.462 0 .918.344 1.62 1.032 2.107.688.488 1.555.903 2.601 1.247 1.046.344 2.172.688 3.375 1.032a13.95 13.95 0 0 1 3.376 1.462 8.003 8.003 0 0 1 2.601 2.537c.688 1.061 1.032 2.48 1.032 4.257 0 1.692-.316 3.168-.946 4.429a8.983 8.983 0 0 1-2.559 3.139c-1.075.832-2.322 1.448-3.741 1.849a16.451 16.451 0 0 1-4.494.602c-1.978 0-3.813-.301-5.504-.903-1.692-.602-3.268-1.576-4.73-2.924l4.773-5.246a6.96 6.96 0 0 0 2.602 2.128 7.419 7.419 0 0 0 3.247.752c.544 0 1.097-.064 1.655-.193a5.39 5.39 0 0 0 1.505-.581 3.248 3.248 0 0 0 1.075-.989c.272-.401.409-.874.409-1.419 0-.917-.352-1.641-1.054-2.171-.703-.53-1.584-.981-2.645-1.354a83.94 83.94 0 0 0-3.44-1.118 15.402 15.402 0 0 1-3.44-1.505 8.288 8.288 0 0 1-2.645-2.494c-.703-1.032-1.053-2.393-1.053-4.085 0-1.634.322-3.067.967-4.3a9.342 9.342 0 0 1 2.58-3.096c1.075-.831 2.314-1.455 3.72-1.871a15.243 15.243 0 0 1 4.343-.623c1.72 0 3.382.244 4.988.731a11.525 11.525 0 0 1 4.343 2.451l-4.599 5.031zM242.872 57.614h11.352c1.318 0 2.644.093 3.977.279 1.333.187 2.53.559 3.591 1.118a6.887 6.887 0 0 1 2.58 2.343c.659 1.004.989 2.337.989 3.999 0 1.72-.48 3.146-1.44 4.279-.961 1.133-2.229 1.942-3.806 2.429v.086c1.003.144 1.914.423 2.73.839a7.303 7.303 0 0 1 2.107 1.591c.587.645 1.039 1.397 1.354 2.257s.473 1.778.473 2.752c0 1.606-.344 2.946-1.032 4.021a8.124 8.124 0 0 1-2.666 2.602c-1.09.66-2.315 1.133-3.677 1.419-1.362.287-2.716.43-4.063.43h-12.47l.001-30.444zm6.708 12.169h4.859c.516 0 1.024-.057 1.526-.172a4.207 4.207 0 0 0 1.354-.559c.401-.258.724-.602.968-1.032.243-.43.365-.946.365-1.548 0-.63-.136-1.154-.409-1.569a2.858 2.858 0 0 0-1.053-.968 5.057 5.057 0 0 0-1.462-.495 8.806 8.806 0 0 0-1.591-.15h-4.558l.001 6.493zm0 12.599h6.02c.516 0 1.039-.057 1.569-.172a4.134 4.134 0 0 0 1.44-.602c.43-.286.781-.659 1.054-1.118.272-.458.408-1.018.408-1.677 0-.716-.179-1.296-.538-1.741a3.419 3.419 0 0 0-1.354-1.011 6.963 6.963 0 0 0-1.763-.473 13.11 13.11 0 0 0-1.763-.129h-5.074l.001 6.923zM296.406 76.319c0 1.806-.273 3.469-.817 4.988-.545 1.52-1.354 2.838-2.43 3.956-1.076 1.118-2.416 1.993-4.021 2.623-1.606.63-3.455.946-5.547.946-2.122 0-3.985-.316-5.59-.946-1.605-.63-2.945-1.505-4.021-2.623a10.969 10.969 0 0 1-2.429-3.956c-.545-1.519-.817-3.182-.817-4.988V57.614h6.708v18.447c0 .946.15 1.821.451 2.623a6.24 6.24 0 0 0 1.269 2.085 5.739 5.739 0 0 0 1.957 1.376c.759.33 1.583.495 2.473.495.888 0 1.705-.165 2.451-.495a5.808 5.808 0 0 0 1.935-1.376 6.276 6.276 0 0 0 1.269-2.085 7.41 7.41 0 0 0 .452-2.623V57.614h6.708l-.001 18.705zM302.598 57.614h11.782c1.548 0 3.017.15 4.408.451 1.39.301 2.608.803 3.655 1.505 1.046.703 1.877 1.648 2.494 2.838.616 1.19.924 2.673.924 4.45 0 2.15-.559 3.978-1.677 5.483-1.118 1.505-2.752 2.458-4.902 2.859l7.74 12.857h-8.041l-6.364-12.169h-3.311v12.169h-6.708V57.614zm6.708 12.598h3.956c.602 0 1.24-.021 1.914-.064a6.004 6.004 0 0 0 1.828-.387 3.16 3.16 0 0 0 1.354-1.011c.358-.458.538-1.103.538-1.935 0-.774-.158-1.39-.473-1.849a3.17 3.17 0 0 0-1.204-1.054c-.488-.243-1.046-.409-1.677-.495s-1.247-.129-1.849-.129h-4.386l-.001 6.924zM337.17 75.072l-11.438-17.458h8.342l6.45 11.395 6.837-11.395h7.955l-11.438 17.458v12.986h-6.708V75.072zM140.19 102.614h11.352c1.318 0 2.644.093 3.977.279 1.333.187 2.53.559 3.591 1.118a6.887 6.887 0 0 1 2.58 2.343c.659 1.004.989 2.337.989 3.999 0 1.72-.48 3.146-1.44 4.279-.961 1.133-2.229 1.942-3.806 2.429v.086c1.003.144 1.914.423 2.73.839a7.303 7.303 0 0 1 2.107 1.591c.587.645 1.039 1.397 1.354 2.257s.473 1.778.473 2.752c0 1.606-.344 2.946-1.032 4.021a8.144 8.144 0 0 1-2.666 2.602c-1.09.66-2.315 1.133-3.677 1.419a19.658 19.658 0 0 1-4.063.431h-12.47l.001-30.445zm6.708 12.169h4.859c.516 0 1.024-.057 1.526-.172a4.207 4.207 0 0 0 1.354-.559c.401-.258.724-.602.968-1.032.243-.43.365-.946.365-1.548 0-.63-.136-1.154-.409-1.569s-.623-.738-1.053-.968a5.057 5.057 0 0 0-1.462-.495 8.806 8.806 0 0 0-1.591-.15h-4.558l.001 6.493zm0 12.599h6.02c.516 0 1.039-.057 1.569-.172a4.134 4.134 0 0 0 1.44-.602c.43-.286.781-.659 1.054-1.118.272-.458.408-1.018.408-1.677 0-.716-.179-1.296-.538-1.741a3.419 3.419 0 0 0-1.354-1.011 6.963 6.963 0 0 0-1.763-.473 13.11 13.11 0 0 0-1.763-.129h-5.074l.001 6.923zM168.312 102.614h20.683v6.192H175.02v5.676h13.201v6.192H175.02v6.192h14.749v6.192h-21.457v-30.444zM195.401 102.614h20.683v6.192h-13.975v5.676h13.201v6.192h-13.201v6.192h14.749v6.192h-21.457v-30.444zM222.232 102.614h11.782c1.548 0 3.017.15 4.408.451 1.39.301 2.608.803 3.655 1.505 1.046.703 1.877 1.648 2.494 2.838.616 1.19.924 2.673.924 4.45 0 2.15-.559 3.978-1.677 5.483-1.118 1.505-2.752 2.458-4.902 2.859l7.74 12.856h-8.041l-6.364-12.168h-3.311v12.168h-6.708v-30.442zm6.708 12.598h3.956c.602 0 1.24-.021 1.914-.064a6.004 6.004 0 0 0 1.828-.387 3.16 3.16 0 0 0 1.354-1.011c.358-.458.538-1.103.538-1.935 0-.774-.158-1.39-.473-1.849a3.17 3.17 0 0 0-1.204-1.054 5.362 5.362 0 0 0-1.677-.495 13.683 13.683 0 0 0-1.849-.129h-4.386l-.001 6.924zM140.448 147.613h20.425v6.191h-13.717v6.192h12.685v6.19h-12.685v11.869h-6.708v-30.442zM165.946 147.613h20.683v6.191h-13.975v5.676h13.201v6.192h-13.201v6.191h14.749v6.192h-21.457v-30.442zM207.828 155.053c-.545-.688-1.283-1.197-2.214-1.527-.932-.327-1.813-.493-2.646-.493-.488 0-.989.059-1.505.172a5.76 5.76 0 0 0-1.462.538 3.165 3.165 0 0 0-1.118.968c-.287.401-.43.89-.43 1.461 0 .918.344 1.621 1.032 2.106.688.488 1.555.904 2.601 1.248 1.046.345 2.172.688 3.375 1.031 1.204.344 2.329.832 3.376 1.463a8.013 8.013 0 0 1 2.601 2.537c.688 1.062 1.032 2.479 1.032 4.256 0 1.691-.316 3.168-.946 4.431a8.992 8.992 0 0 1-2.559 3.139c-1.075.832-2.322 1.447-3.741 1.849a16.413 16.413 0 0 1-4.494.604c-1.978 0-3.813-.301-5.504-.902-1.692-.604-3.268-1.576-4.73-2.926l4.773-5.245a6.95 6.95 0 0 0 2.602 2.128 7.421 7.421 0 0 0 3.247.754c.544 0 1.097-.064 1.655-.193a5.451 5.451 0 0 0 1.505-.581c.444-.259.802-.587 1.075-.988s.409-.875.409-1.42c0-.916-.352-1.642-1.054-2.171-.703-.53-1.584-.98-2.645-1.354s-2.208-.746-3.44-1.119c-1.233-.371-2.379-.873-3.44-1.504s-1.942-1.463-2.645-2.494-1.053-2.394-1.053-4.086c0-1.633.322-3.066.967-4.299a9.336 9.336 0 0 1 2.58-3.097c1.075-.832 2.314-1.455 3.72-1.871a15.243 15.243 0 0 1 4.343-.623c1.72 0 3.382.244 4.988.73a11.523 11.523 0 0 1 4.343 2.45l-4.598 5.028zM223.35 153.548h-8.686v-5.935h24.08v5.935h-8.686v24.511h-6.708v-24.511zM242.055 147.613h6.708v30.443h-6.708v-30.443zM251.858 147.613h7.654l7.525 19.951h.086l7.654-19.951h7.181l-12.556 30.443h-5.375l-12.169-30.443zM292.494 147.613h5.547l13.244 30.443h-7.568l-2.623-6.449h-11.825l-2.537 6.449h-7.396l13.158-30.443zm2.579 8.86l-3.698 9.459h7.439l-3.741-9.459zM314.595 147.613h6.708v24.252h12.427v6.191h-19.135v-30.443z"/></g><path fill="none" stroke="#09875D" stroke-width="5" stroke-miterlimit="10" d="M365.628 44.938l.139 144.859M396.164 47.426v139.881"/><path fill="none" d="M365.697 55.114h30.487v18.5h-30.487z"/><text transform="translate(373.838 73.258)" fill="#0D8256" font-family="'Avenir-Black'" font-size="24">2</text><path fill="none" d="M365.731 91.487h30.487v18.5h-30.487z"/><text transform="translate(373.871 109.631)" fill="#0D8256" font-family="'Avenir-Black'" font-size="24">0</text><path fill="none" d="M365.731 126.487h30.487v18.5h-30.487z"/><text transform="translate(373.871 144.63)" fill="#0D8256" font-family="'Avenir-Black'" font-size="24">1</text><path fill="none" d="M365.731 160.737h30.487v18.5h-30.487z"/><text transform="translate(373.871 178.88)" fill="#0D8256" font-family="'Avenir-Black'" font-size="24">8</text><path fill="none" stroke="#09875D" stroke-width="5" stroke-miterlimit="10" d="M366.063 82.515h29.666M366.142 118.295h29.667M366.142 152.455h29.667"/></svg>