<svg version="1.1" id="Layer_1" xmlns="http://www.w3.org/2000/svg" xmlns:xlink="http://www.w3.org/1999/xlink" x="0" y="0" viewBox="0 0 841.89 129.98" xml:space="preserve"><style>.st0{fill:none}.st1{fill:#099a67}.st2{fill:#0f206c}.st3,.st4{fill:#fff}.st4{stroke:#099a67;stroke-linecap:round;stroke-linejoin:round;stroke-miterlimit:10}.st5{fill:#a0c7af}.st7,.st8,.st9{stroke:#099a67;stroke-miterlimit:10}.st7{stroke-linecap:round;stroke-linejoin:round;fill:none}.st8,.st9{fill:#fff}.st9{fill:none}.st11{font-family:&apos;Montserrat-Bold&apos;}.st12{font-size:11.0118px}</style><pattern y="129.98" width="5.67" height="5.67" patternUnits="userSpaceOnUse" id="SVGID_1_" viewBox="1.3 -6.97 5.67 5.67" overflow="visible"><path class="st0" d="M1.3-6.97h5.67v5.67H1.3z"/><path class="st0" d="M1.3-6.97h5.67v5.67H1.3z"/><circle class="st1" cx="6.97" cy="-6.97" r="1.3"/><circle class="st1" cx="1.3" cy="-6.97" r="1.3"/><circle class="st1" cx="4.14" cy="-4.13" r="1.3"/><circle class="st1" cx="6.97" cy="-1.3" r="1.3"/><circle class="st1" cx="1.3" cy="-1.3" r="1.3"/></pattern><path class="st2" d="M181.83 33.26c2.48 1.29 4.41 3.1 5.79 5.43 1.38 2.33 2.07 5.01 2.07 8.03s-.7 5.71-2.09 8.05c-1.39 2.35-3.36 4.17-5.9 5.46s-5.45 1.94-8.73 1.94h-12.98V31.33h13.29c3.22 0 6.07.64 8.55 1.93zm-4.2 21.3c1.2-.73 2.14-1.77 2.82-3.12.67-1.35 1.01-2.89 1.01-4.62 0-1.76-.36-3.31-1.08-4.66s-1.71-2.4-2.97-3.15-2.7-1.12-4.31-1.12h-5.06v17.78h5.46c1.55-.01 2.93-.38 4.13-1.11zM201.59 28.58c.78.78 1.17 1.78 1.17 3.01 0 1.2-.39 2.2-1.17 2.99s-1.77 1.19-2.97 1.19-2.19-.4-2.97-1.19c-.78-.79-1.17-1.79-1.17-2.99 0-1.23.39-2.24 1.17-3.01.78-.78 1.77-1.17 2.97-1.17 1.2 0 2.19.39 2.97 1.17zm-6.8 9.79h7.79v23.8h-7.79v-23.8zM233.68 29.52v32.65h-7.83v-3.08c-.82 1.12-1.83 1.96-3.01 2.53s-2.53.86-4.03.86c-2.2 0-4.14-.51-5.81-1.54s-2.97-2.47-3.89-4.33-1.39-4.01-1.39-6.45c0-2.41.45-4.52 1.36-6.34s2.19-3.23 3.83-4.22c1.64-1 3.55-1.5 5.72-1.5 1.52 0 2.9.29 4.11.88a8.65 8.65 0 013.1 2.51V29.52h7.84zm-9.24 25.15c.94-1.1 1.41-2.53 1.41-4.29 0-1.79-.47-3.23-1.41-4.31s-2.17-1.63-3.7-1.63-2.77.55-3.72 1.65c-.95 1.1-1.43 2.53-1.43 4.29s.48 3.19 1.43 4.29 2.19 1.65 3.72 1.65 2.76-.55 3.7-1.65zM249.3 43.47c-.68 0-1.22.13-1.63.37-.41.25-.62.62-.62 1.12 0 .53.32.95.97 1.28.64.32 1.67.67 3.08 1.06 1.7.5 3.12.99 4.25 1.47s2.1 1.22 2.93 2.2c.82.98 1.23 2.27 1.23 3.85 0 2.41-.93 4.29-2.79 5.65-1.86 1.36-4.29 2.05-7.28 2.05-2.02 0-3.96-.29-5.81-.86-1.85-.57-3.49-1.42-4.93-2.53l2.46-5.06c1.35.94 2.76 1.67 4.25 2.18 1.48.51 2.88.77 4.2.77.76 0 1.37-.12 1.83-.37.45-.25.68-.61.68-1.08 0-.59-.33-1.04-.99-1.36s-1.69-.67-3.1-1.06c-1.67-.5-3.05-.99-4.14-1.47s-2.03-1.21-2.84-2.18-1.21-2.23-1.21-3.78c0-2.41.91-4.29 2.73-5.65 1.82-1.36 4.16-2.05 7.04-2.05 1.73 0 3.44.24 5.13.7 1.69.47 3.28 1.16 4.77 2.07l-2.64 5.1c-3.08-1.61-5.6-2.42-7.57-2.42zM284.81 39.62c1.67 1.01 2.97 2.45 3.89 4.31s1.39 4.01 1.39 6.45c0 2.41-.45 4.52-1.34 6.34-.9 1.82-2.17 3.23-3.83 4.22-1.66 1-3.57 1.5-5.74 1.5-1.5 0-2.85-.29-4.07-.86s-2.25-1.4-3.1-2.49v3.08h-7.83V29.52h7.83v11.92c1.73-2.23 4.06-3.34 7-3.34 2.19 0 4.13.51 5.8 1.52zm-4.02 14.85c.95-1.08 1.43-2.51 1.43-4.27s-.48-3.19-1.43-4.29-2.19-1.65-3.72-1.65c-1.5 0-2.71.55-3.65 1.65-.94 1.1-1.41 2.53-1.41 4.29s.47 3.18 1.41 4.27 2.16 1.63 3.65 1.63c1.52 0 2.76-.54 3.72-1.63zM318.47 38.37v23.8h-7.83V58.3c-1.61 2.76-4.15 4.17-7.61 4.22-2.58 0-4.64-.83-6.18-2.49s-2.31-3.86-2.31-6.62V38.37h7.83v12.8c0 1.35.34 2.41 1.03 3.17s1.62 1.14 2.79 1.14c1.38-.03 2.46-.53 3.26-1.52.79-.98 1.19-2.27 1.19-3.85V38.37h7.83zM336.58 39.16c1.3-.73 2.79-1.1 4.47-1.1v7.17c-.26-.03-.66-.04-1.19-.04-1.85 0-3.34.43-4.49 1.3s-1.8 2.05-1.98 3.54v12.14h-7.83v-23.8h7.83v3.96c.82-1.38 1.88-2.44 3.19-3.17zM356.53 69.45c-1.53 1.07-3.42 1.61-5.68 1.61-1.32 0-2.55-.2-3.7-.59-1.14-.4-2.26-1.02-3.34-1.87l3.26-5.41c.56.47 1.08.81 1.58 1.01s1.03.31 1.58.31c1.29 0 2.24-.6 2.86-1.8l.57-1.1-9.86-23.23h8.05l5.68 15.49 5.06-15.49h7.79l-10.2 26.12c-.91 2.23-2.12 3.88-3.65 4.95zM405.7 32.27c1.72.63 3.04 1.53 3.98 2.71.94 1.17 1.41 2.55 1.41 4.14 0 1.61-.48 3.02-1.43 4.22-.95 1.2-2.25 2.02-3.89 2.46 1.97.38 3.51 1.28 4.64 2.68 1.13 1.41 1.69 3.11 1.69 5.1 0 1.73-.48 3.25-1.45 4.55-.97 1.31-2.35 2.3-4.14 2.99-1.79.69-3.89 1.03-6.29 1.03H385V31.33h14.65c2.32 0 4.33.31 6.05.94zm-3.85 10.52c.64-.54.97-1.3.97-2.27 0-.94-.32-1.66-.97-2.18-.65-.51-1.53-.75-2.64-.73h-6.16v5.98h6.16c1.11.01 1.99-.26 2.64-.8zm.7 12.25c.82-.59 1.23-1.41 1.23-2.46 0-.97-.41-1.74-1.23-2.31s-1.94-.84-3.34-.81h-6.16v6.47h6.16c1.41-.01 2.52-.3 3.34-.89zM437.01 41.54c2.08 2.29 3.12 5.43 3.12 9.42 0 .62-.02 1.08-.04 1.41h-16.54c.38 1.35 1.04 2.38 1.98 3.1.94.72 2.08 1.08 3.43 1.08 1.03 0 2.02-.21 2.97-.62s1.82-1.01 2.62-1.8l4.09 4.09a12.037 12.037 0 01-4.47 3.15c-1.74.72-3.72 1.08-5.92 1.08-2.55 0-4.78-.5-6.69-1.5s-3.37-2.4-4.38-4.22-1.52-3.93-1.52-6.34c0-2.43.51-4.58 1.54-6.45 1.03-1.86 2.48-3.3 4.36-4.31 1.88-1.01 4.05-1.52 6.51-1.52 3.88-.01 6.85 1.14 8.94 3.43zm-4.49 6.64c0-1.38-.4-2.49-1.21-3.32-.81-.84-1.87-1.25-3.19-1.25-1.23 0-2.27.41-3.1 1.23s-1.39 1.94-1.65 3.34h9.15zM464.64 41.54c2.08 2.29 3.12 5.43 3.12 9.42 0 .62-.01 1.08-.04 1.41h-16.54c.38 1.35 1.04 2.38 1.98 3.1.94.72 2.08 1.08 3.43 1.08 1.03 0 2.02-.21 2.97-.62s1.83-1.01 2.62-1.8l4.09 4.09c-1.23 1.38-2.72 2.43-4.47 3.15s-3.72 1.08-5.92 1.08c-2.55 0-4.78-.5-6.69-1.5s-3.37-2.4-4.38-4.22-1.52-3.93-1.52-6.34c0-2.43.51-4.58 1.54-6.45 1.03-1.86 2.48-3.3 4.36-4.31 1.88-1.01 4.05-1.52 6.51-1.52 3.88-.01 6.85 1.14 8.94 3.43zm-4.49 6.64c0-1.38-.4-2.49-1.21-3.32-.81-.84-1.87-1.25-3.19-1.25-1.23 0-2.27.41-3.1 1.23s-1.39 1.94-1.65 3.34h9.15zM483.89 39.16c1.31-.73 2.79-1.1 4.47-1.1v7.17c-.26-.03-.66-.04-1.19-.04-1.85 0-3.34.43-4.49 1.3-1.14.87-1.8 2.05-1.98 3.54v12.14h-7.83v-23.8h7.83v3.96c.82-1.38 1.88-2.44 3.19-3.17zM503.75 31.33h23.06l-.04 6.42H511.8v6.86h13.82v6.42H511.8v11.13h-8.05V31.33zM550.96 41.54c2.08 2.29 3.12 5.43 3.12 9.42 0 .62-.01 1.08-.04 1.41H537.5c.38 1.35 1.04 2.38 1.98 3.1.94.72 2.08 1.08 3.43 1.08 1.03 0 2.02-.21 2.97-.62.95-.41 1.83-1.01 2.62-1.8l4.09 4.09c-1.23 1.38-2.72 2.43-4.47 3.15s-3.72 1.08-5.92 1.08c-2.55 0-4.78-.5-6.69-1.5s-3.37-2.4-4.38-4.22-1.52-3.93-1.52-6.34c0-2.43.51-4.58 1.54-6.45 1.03-1.86 2.48-3.3 4.36-4.31 1.88-1.01 4.05-1.52 6.51-1.52 3.88-.01 6.86 1.14 8.94 3.43zm-4.48 6.64c0-1.38-.4-2.49-1.21-3.32-.81-.84-1.87-1.25-3.19-1.25-1.23 0-2.27.41-3.1 1.23s-1.39 1.94-1.65 3.34h9.15zM567.51 43.47c-.67 0-1.22.13-1.63.37-.41.25-.62.62-.62 1.12 0 .53.32.95.97 1.28.64.32 1.67.67 3.08 1.06 1.7.5 3.12.99 4.25 1.47s2.1 1.22 2.93 2.2c.82.98 1.23 2.27 1.23 3.85 0 2.41-.93 4.29-2.79 5.65s-4.29 2.05-7.28 2.05c-2.02 0-3.96-.29-5.81-.86s-3.49-1.42-4.93-2.53l2.46-5.06c1.35.94 2.76 1.67 4.25 2.18 1.48.51 2.88.77 4.2.77.76 0 1.37-.12 1.83-.37.45-.25.68-.61.68-1.08 0-.59-.33-1.04-.99-1.36s-1.69-.67-3.1-1.06c-1.67-.5-3.05-.99-4.14-1.47s-2.03-1.21-2.84-2.18-1.21-2.23-1.21-3.78c0-2.41.91-4.29 2.73-5.65s4.17-2.05 7.04-2.05c1.73 0 3.44.24 5.13.7 1.69.47 3.28 1.16 4.77 2.07l-2.64 5.1c-3.08-1.61-5.61-2.42-7.57-2.42zM598.53 60.94c-.88.5-1.89.89-3.04 1.17-1.14.28-2.3.42-3.48.42-2.35 0-4.25-.67-5.7-2.02-1.45-1.35-2.18-3.21-2.18-5.59V44.7h-3.3v-5.19h3.3v-6.6h7.79v6.6h6.16v5.19h-6.16v8.98c0 1.67.69 2.51 2.07 2.51.85 0 1.86-.26 3.04-.79l1.5 5.54zM610.17 28.58c.78.78 1.17 1.78 1.17 3.01 0 1.2-.39 2.2-1.17 2.99-.78.79-1.77 1.19-2.97 1.19-1.2 0-2.19-.4-2.97-1.19s-1.17-1.79-1.17-2.99c0-1.23.39-2.24 1.17-3.01s1.77-1.17 2.97-1.17c1.2 0 2.19.39 2.97 1.17zm-6.8 9.79h7.79v23.8h-7.79v-23.8zM615.91 38.37h8.05l4.97 16.54 5.02-16.54h7.83l-8.93 23.8h-8.05l-8.89-23.8zM664.48 40.33c1.82 1.51 2.74 3.63 2.77 6.36v15.49h-7.7V59.5c-1.58 2.02-3.98 3.04-7.17 3.04-2.52 0-4.51-.68-5.96-2.05-1.45-1.36-2.18-3.16-2.18-5.39 0-2.26.79-4.02 2.35-5.28 1.57-1.26 3.82-1.91 6.75-1.94h6.2v-.26c0-1.14-.39-2.02-1.17-2.64-.78-.62-1.9-.92-3.37-.92-1 0-2.12.16-3.37.48s-2.5.79-3.76 1.41l-2.16-5.28c1.94-.88 3.79-1.53 5.57-1.96 1.77-.42 3.62-.64 5.52-.64 3.31-.01 5.86.75 7.68 2.26zm-6.6 16.01c.88-.57 1.44-1.31 1.67-2.22v-2.07h-4.66c-2.2 0-3.3.82-3.3 2.46 0 .82.29 1.47.86 1.96.57.48 1.36.73 2.35.73 1.18 0 2.2-.29 3.08-.86zM673.86 29.52h7.83v32.65h-7.83V29.52z"/><path class="st3" d="M367.82 102.17l6.36-16.48h3.56l6.45 16.48h-3.81l-1.18-3.08v.05h-6.47v-.05l-1.13 3.08h-3.78zm5.89-6.03h4.45l-2.19-6.59-2.26 6.59zM395.99 85.69v3.06h-4.69v13.42h-3.6V88.75h-4.64v-3.06h12.93zM413.53 102.17v-6.43h-6.26v6.43h-3.65V85.69h3.65v7.16h6.26v-7.16h3.65v16.48h-3.65zM428.63 85.43c4.71 0 8.55 3.81 8.55 8.5 0 4.68-3.84 8.5-8.55 8.5-4.73 0-8.57-3.81-8.57-8.5 0-4.68 3.84-8.5 8.57-8.5zm0 13.66c2.71 0 4.94-2.14 4.94-5.16s-2.24-5.16-4.94-5.16c-2.73 0-4.97 2.14-4.97 5.16s2.24 5.16 4.97 5.16zM447.97 101.98l-4.12-9.84-.87 10.03h-3.65l1.53-16.48h3.67l4.61 11.09 4.62-11.09h3.67l1.53 16.48h-3.65l-.87-10.03-4.12 9.84h-2.35zM462.15 102.17V85.69h10.95v2.9h-7.3v4.05h6.33v2.9h-6.33v3.74h7.3v2.9h-10.95v-.01z"/><ellipse class="st3" cx="767.38" cy="61.95" rx="64" ry="40.48"/><path class="st2" d="M744.31 75.38c-.5 0-.94.64-.86 1.5h1.72c-.01-.93-.34-1.5-.86-1.5zM750.11 75.38c-.5 0-.94.64-.86 1.5h1.72c-.02-.93-.34-1.5-.86-1.5zM737.11 75.85c-.23 0-.7.02-.88.04v2.36c0 .88.33 1.09 1.1 1.09 1.35 0 1.69-.87 1.69-1.68 0-.73-.34-1.81-1.91-1.81zM764.85 86.4c-.48 0-.84.22-1.07.66s-.34 1.03-.34 1.75.11 1.31.34 1.75c.23.44.58.66 1.07.66.48 0 .84-.22 1.07-.66s.34-1.03.34-1.75-.11-1.31-.34-1.75c-.23-.44-.58-.66-1.07-.66zM771.67 75.38c-.5 0-.94.64-.86 1.5h1.72c-.02-.93-.34-1.5-.86-1.5zM751.09 59.62c.59-.55.89-1.36.89-2.42s-.3-1.87-.89-2.44-1.5-.85-2.72-.85h-1.34v6.54h1.52c1.11 0 1.95-.28 2.54-.83zM771.56 55.95c.32-.14.49-.45.49-.93s-.15-.79-.45-.95c-.3-.15-.8-.23-1.51-.23h-1.16v2.32h1.14c.67.01 1.16-.07 1.49-.21zM738.67 74.12c0-.69-.34-1.48-1.8-1.48-.25 0-.44.01-.64.04v2.69c.27.01.7.02.93.02 1.21 0 1.51-.65 1.51-1.27zM794.84 56.66c.3-.27.45-.69.45-1.27s-.15-.98-.46-1.19c-.31-.22-.85-.32-1.62-.32h-1.8v3.19h1.76c.82-.01 1.37-.14 1.67-.41zM772.13 60.28c.34-.17.52-.5.52-1s-.18-.83-.55-.99c-.36-.16-.95-.24-1.75-.24h-1.42v2.48h1.65c.69.01 1.2-.08 1.55-.25zM778.49 86.4c-.48 0-.84.22-1.07.66s-.34 1.03-.34 1.75.11 1.31.34 1.75c.23.44.58.66 1.07.66.48 0 .84-.22 1.07-.66s.34-1.03.34-1.75-.11-1.31-.34-1.75-.58-.66-1.07-.66zM733.9 59.62c.59-.55.89-1.36.89-2.42s-.3-1.87-.89-2.44-1.5-.85-2.72-.85h-1.34v6.54h1.52c1.1 0 1.95-.28 2.54-.83zM794.41 78.5c0 .51.24.83.6.83.21 0 .46-.17.81-.51V77.1c-.57.5-1.41.42-1.41 1.4z"/><path class="st2" d="M767.38 17.7c-36.83 0-66.69 19.89-66.69 44.43s29.86 44.43 66.69 44.43 66.69-19.89 66.69-44.43c-.01-24.54-29.86-44.43-66.69-44.43zm21.63 34.11h4.08c1.67 0 2.87.28 3.58.85.71.56 1.07 1.47 1.07 2.73 0 1.72-.68 2.84-2.05 3.34l2.73 3.85h-2.96l-2.39-3.43h-1.66v3.43h-2.4V51.81zm-5.65 7.98c.4-.5.59-1.18.59-2.04v-5.94h2.4v6.02c0 1.56-.43 2.76-1.29 3.59-.86.84-1.97 1.25-3.31 1.25s-2.45-.42-3.32-1.26-1.3-2.04-1.3-3.59V51.8h2.4v5.94c0 .86.2 1.54.6 2.04.4.5.94.75 1.62.75.68.01 1.22-.24 1.61-.74zm-2.72-16l-7.32 2.05-3.33-9.27c.49-.06.99-.15 1.48-.35.42-.17.78-.38 1.13-.59.26-.15.5-.3.74-.41.71-.32 1.58-.4 2.5-.48.73-.06 1.51-.13 2.26-.34.2-.06.4-.13.6-.21l1.94 9.6zm-2.83-13.92l.47 2.33c-.69.4-1.6.48-2.63.57-1.04.09-2.12.18-3.14.64-.34.15-.65.34-.94.51-.3.18-.58.34-.85.45-.43.17-.93.23-1.44.27l-.78-2.18 9.31-2.59zm-7.09 21.94c.73 0 1.36.09 1.89.26s.93.41 1.19.71c.48.55.72 1.18.72 1.88 0 .84-.27 1.47-.82 1.88-.18.14-.31.23-.39.27-.07.04-.2.1-.39.18.67.14 1.2.44 1.59.9s.59 1.02.59 1.7c0 .75-.26 1.41-.77 1.99-.6.67-1.63 1-3.11 1h-4.71V51.81h4.21zm-13.25-24.28l9.2 2.95-.89 2.2c-.8-.04-1.6-.48-2.51-.97-.92-.5-1.87-1.02-2.97-1.19-.37-.06-.73-.08-1.07-.09-.34-.02-.67-.03-.96-.09-.45-.09-.9-.32-1.35-.57l.55-2.24zm-1.03 4.23c.44.22.91.42 1.43.52.44.09.87.11 1.27.13.3.01.58.03.84.07.77.13 1.53.54 2.34.98.64.35 1.33.72 2.08.96.2.06.41.11.61.16l-3.66 9.08-7.24-2.33 2.33-9.57zm5.01 26.98c-.27-.19-.8-.38-1.59-.58-1.25-.3-2.17-.69-2.75-1.16-.58-.48-.87-1.23-.87-2.25s.37-1.81 1.1-2.36 1.65-.83 2.75-.83c.72 0 1.44.12 2.16.37s1.34.6 1.88 1.05l-1.22 1.76c-.93-.71-1.9-1.06-2.89-1.06-.4 0-.72.09-.95.28-.23.19-.35.44-.35.75s.14.56.42.75c.28.18.93.4 1.96.65 1.02.25 1.81.63 2.38 1.13.56.5.85 1.24.85 2.2 0 .97-.36 1.75-1.09 2.35-.72.6-1.68.9-2.86.9-1.7 0-3.24-.63-4.6-1.89l1.43-1.75c1.16 1.02 2.23 1.52 3.22 1.52.44 0 .79-.09 1.04-.28s.38-.45.38-.77c0-.33-.13-.58-.4-.78zm-16.81-6.93h3.8c1.92 0 3.39.47 4.42 1.41 1.03.94 1.54 2.25 1.54 3.92s-.5 3-1.5 3.97c-1 .98-2.53 1.46-4.58 1.46h-3.68V51.81zm-5.21 0h2.4v10.76h-2.4V51.81zm-11.99 0h3.8c1.92 0 3.39.47 4.42 1.41 1.03.94 1.54 2.25 1.54 3.92s-.5 3-1.5 3.97c-1 .98-2.53 1.46-4.58 1.46h-3.68V51.81zm10.34 28.07h-4.68v-.47c1.19 0 1.46-.3 1.46-1.02v-4.5c0-.93-.13-1.06-1.05-1.06h-.3v-.47c.3-.01.88-.06 1.52-.1.73-.04 1.44-.08 1.96-.08 1.51 0 2.67.21 3.33.86.3.3.46.73.46 1.1 0 .74-.48 1.2-1.49 1.42v.02c1.17.25 1.91 1.05 1.91 2.03 0 1.23-1.13 2.27-3.12 2.27zm9.06-2.53h-3.35c.1 1 .77 1.77 1.49 1.77.45 0 .88-.25 1.48-.87l.28.23c-.68.96-1.66 1.54-2.59 1.54-1.32 0-2.21-1.02-2.21-2.48 0-1.6 1.08-2.72 2.59-2.72.64 0 1.15.21 1.52.58.71.71.37 1.39.8 1.61v.34h-.01zm5.8 0h-3.35c.1 1 .77 1.77 1.49 1.77.45 0 .88-.25 1.48-.87l.28.23c-.68.96-1.66 1.54-2.59 1.54-1.32 0-2.21-1.02-2.21-2.48 0-1.6 1.08-2.72 2.59-2.72.64 0 1.15.21 1.52.58.71.71.37 1.39.8 1.61v.34h-.01zm.96-1.49l-.33-.13v-.3l1.98-.75h.25v1.35h.02c.45-.87.64-1.22 1.05-1.22.08 0 .18.01.24.04l.96.35c-.15.51-.34.94-.58 1.28-.38-.15-.82-.3-.98-.3-.24 0-.45.17-.71.54v1.96c0 .58.18.81.81.81h.31v.39h-3.36v-.39h.08c.5 0 .68-.22.68-.85v-1.97c.02-.54-.05-.66-.42-.81zm6.91 16.61h-5.11v-1.2l2.13-2.18c.43-.44.73-.78.92-1.04.18-.26.27-.51.27-.75s-.08-.44-.24-.61a.821.821 0 00-.61-.24c-.46 0-.89.33-1.3.97l-1.3-.77c.34-.53.71-.92 1.11-1.19.4-.27.92-.4 1.55-.4s1.18.2 1.65.6c.47.4.71.94.71 1.62 0 .37-.09.73-.29 1.07-.19.34-.54.78-1.05 1.31l-1.31 1.36h2.86l.01 1.45zm6.59-.94c-.5.68-1.25 1.02-2.25 1.02s-1.75-.34-2.25-1.02-.75-1.59-.75-2.73.25-2.05.75-2.73 1.25-1.02 2.25-1.02 1.75.34 2.25 1.02.75 1.59.75 2.73-.25 2.05-.75 2.73zm1.3-17.47h-.44c-.05-.8-.22-1.04-.76-1.04h-2.33v2.72h1.68c.85 0 1.05-.19 1.05-.88h.48v2.41h-.48c0-.58-.19-.86-.83-.86h-1.9v1.95c0 .87.16 1.05.81 1.05h.23v.47h-3.62v-.47h.19c.52 0 .71-.17.71-.69v-4.9c0-.77-.22-1-.75-1h-.16v-.46h6.11v1.7h.01zm5.89 18.44h-5.11v-1.2l2.13-2.18c.43-.44.73-.78.92-1.04.18-.26.27-.51.27-.75s-.08-.44-.24-.61a.821.821 0 00-.61-.24c-.46 0-.89.33-1.3.97l-1.3-.77c.34-.53.71-.92 1.12-1.19.4-.27.92-.4 1.54-.4.63 0 1.18.2 1.65.6.47.4.71.94.71 1.62 0 .37-.09.73-.28 1.07s-.54.78-1.05 1.31l-1.31 1.36h2.86v1.45zm-1.96-13.38c.45 0 .88-.25 1.48-.87l.28.23c-.68.96-1.66 1.54-2.59 1.54-1.32 0-2.21-1.02-2.21-2.48 0-1.6 1.08-2.72 2.59-2.72.64 0 1.15.21 1.52.58.71.71.37 1.39.8 1.61v.35h-3.35c.09 1 .77 1.76 1.48 1.76zm2.75-.67h.39c.21.68.74 1.04 1.26 1.04.34 0 .63-.25.63-.56 0-.83-2.27-1.13-2.27-2.59 0-.92.76-1.54 1.9-1.54.46 0 .85.07 1.35.25l.02 1.29h-.39c-.22-.67-.62-1.03-1.14-1.03-.31 0-.56.19-.56.46 0 .99 2.38 1.03 2.38 2.69 0 .9-.64 1.52-1.57 1.52-.83 0-1.11-.17-1.28-.17-.07 0-.15.05-.24.16h-.35l-.13-1.52zm5.66 13.08c-.5.68-1.25 1.02-2.25 1.02s-1.75-.34-2.25-1.02-.75-1.59-.75-2.73.25-2.05.75-2.73 1.25-1.02 2.25-1.02 1.75.34 2.25 1.02.75 1.59.75 2.73-.25 2.05-.75 2.73zm.67-11.52c-.82 0-1.37-.46-1.37-1.5v-2.9h-.64v-.31c.73-.3 1.55-1.19 1.77-1.86h.35v1.51h1.58l-.18.67h-1.4v2.93c0 .45.21.64.56.64.29 0 .57-.18.92-.61l.17.34c-.37.64-1.1 1.09-1.76 1.09zm5.07-.13h-3.02v-.39h.13c.5 0 .68-.22.68-.85v-2.32c0-.31-.07-.4-.41-.52l-.4-.15v-.29l2.07-.69h.22v4.05c0 .5.21.76.74.76l-.01.4zm-2.5-7.13c0-.44.46-.82.97-.82.56 0 .96.36.96.82 0 .48-.46.82-.96.82-.55.01-.97-.34-.97-.82zm8.84 2.58c-.63.06-.79.22-1.02.73l-1.73 3.91h-.73l-1.8-3.88c-.23-.5-.4-.69-.93-.75v-.39h3.07v.39h-.42c-.25 0-.36.23-.16.68l1.08 2.41.94-2.13c.28-.63.13-.87-.71-.96v-.39h2.41v.38zM796.7 80c-.45 0-.77-.29-.85-.75-.48.47-.81.76-1.49.76-.86 0-1.4-.5-1.4-1.27 0-.39.17-.76.37-.97.57-.57 1.55-.45 2.49-1.22v-.45c0-.47-.33-.81-.76-.81-.42 0-.73.3-.63.93l-1.35.47c-.11-.5-.06-.85.25-1.16.41-.41 1.4-.73 2-.73.59 0 1.97.34 1.97 1.48v2.29c0 .42.08.56.27.56.1 0 .16-.02.33-.15l.18.29c-.38.42-.98.73-1.38.73zm4.68-.12h-3v-.39h.12c.51 0 .68-.23.68-.85v-4.98c0-.53-.04-.63-.31-.73l-.52-.19v-.35l2.09-.61h.22v6.86c0 .57.17.85.73.85l-.01.39zm6.53-12.41h-81.27v-.43h81.27v.43zm-3.2-9.15v4.25h-2.4v-4.25l-3.73-6.51h2.6l2.32 4 2.32-4h2.6l-3.71 6.51z"/><path class="st4" d="M58.79 53.96l-4.55 13.38-26.32 26.23 66.17 23.58 21.65-30.8 12.4-45.13-49.5-15.05-.28.4"/><path class="st5" d="M63.35 54.01L59.9 64.68l52.3 16.52 10.17-36.92-43.7-13.5"/><path d="M49.73 22.61c1.54-.22 3.04.46 4.5.98 1.17.42 2.38.74 3.61.96.71.13 1.46.22 2.15-.01.52-.17.96-.51 1.46-.75 1.42-.69 3.1-.46 4.67-.29 1.71.18 3.43.28 5.15.28 1.04 0 2.25-.11 2.85-.96.37-.52.42-1.18.46-1.82.06-.92.11-1.84.17-2.77.01-.16.02-.33-.06-.47-.08-.14-.22-.23-.36-.3-.89-.49-1.87-.82-2.87-.97-.91-.14-2.78-.61-3.69-.7-5.24-.5-6.11-.5-12.27.17-1.19.13-1.96.47-3.13.73-.96.21-2.54.68-2.97 1.68-.47 1.11.05 3.13.33 4.24z" fill="#fff" stroke="#099a67" stroke-width=".425" stroke-miterlimit="10"/><path class="st5" d="M51.15 37.21l.01.17c.1.03.19.07.28.11.14.06.26.12.39.2-.23-.15-.46-.31-.68-.48z"/><path class="st5" d="M69.86 24.32c-3.01-.13-2.63-1.19-4.52-1-1.88.19-3.26.88-5.27 1.07-2.01.19-3.58.44-5.02-.5-1.44-.94-1.76-1.82-5.02-1.32l.07.88c.15.12.28.25.44.36 1.24.92 2.58 1.71 3.64 2.84.44.47.84 1.14.59 1.73s-1.01.76-1.65.72c-.97-.06-1.86-.42-2.65-.97l.01.16c.33.22.67.44 1.07.63.68.31 1.66.45 2.29.84 1.27.78 2.55 1.55 3.82 2.33.44.27.88.54 1.23.91s.61.86.6 1.37c-.01.33-.14.67-.4.87-.34.27-.82.28-1.25.23-1.69-.18-3.27-.92-4.77-1.71-.77-.4-1.55-.84-2.28-1.32l.02.27c.35.26.66.51.83.6 1.57.78 2.37.99 4.3 1.86.6.27 1.15.65 1.68 1.05.5.38.96.82 1.42 1.27.35.33.7.68.9 1.11.21.43.24.98-.04 1.37-.44.61-1.35.55-2.07.38-1.84-.44-3.59-1.22-5.23-2.18-.18-.1-.35-.22-.53-.32.35.23.68.49 1.03.72 1.1.74 2.36 1.19 3.55 1.77.63.31 1.26.68 1.68 1.23.42.56.6 1.35.28 1.98-.43.81-2.53 1.02-3.4.71-1.88-.66-2.68-1.03-3.66-1.86l.75 9.85s5.33 1.76 9.29 1.57c3.95-.19 9.29-1.19 10.23-1.57l3.45-29.55c-.01-.02-2.4 1.74-5.41 1.62z"/><path class="st7" d="M51.19 41.95l.96 9.87s3.69 2.16 9.66 2.11 10.22-1.48 10.22-1.48l3.8-34.95s-3.7-2.81-12.49-2.67c-8.79.15-11.06 1.43-13.72 2.47l.25 6.12"/><path class="st7" d="M75.83 17.78s-4.59 2.42-13.62 2.57-12.59-2.76-12.59-2.76"/><path class="st8" d="M82.95 45.97c-4.37-7.35-5.64-16.47-3.46-24.74.2-.77.44-1.6.2-2.36-.24-.79-1.01-1.38-1.83-1.42s-2.07.49-2.39 1.25l-3.44 33.75"/><path class="st9" d="M63.35 54.01L59.9 64.68l52.3 16.52 10.17-36.92-43.7-13.5"/><path class="st8" d="M107.6 64.45c-1.89-1.08-3.78-2.17-5.54-3.45-1.64-1.2-3.16-2.56-4.68-3.91-4.29-3.85-8.49-7.59-12.78-11.44a39.04 39.04 0 00-12.64 7.68s3.69 9.16 9.9 18.32l30.33 9.54 3.18-12.28c-2.58-1.48-5.18-2.97-7.77-4.46z"/><pattern id="SVGID_2_" xlink:href="#SVGID_1_" patternTransform="matrix(.6096 0 0 -.6096 -6051.11 -9512.4)"/><path d="M107.67 64.02c-1.89-1.08-3.78-2.17-5.54-3.45-1.64-1.2-3.16-2.56-4.68-3.91-4.29-3.85-8.49-7.59-12.78-11.44a39.04 39.04 0 00-12.64 7.68s3.69 9.16 9.9 18.32l30.33 9.54 3.18-12.28c-2.58-1.48-5.18-2.97-7.77-4.46z" fill="url(#SVGID_2_)"/><path class="st7" d="M49.65 22.84c.98-.51 2.18-.33 3.21.07s1.97.99 3.02 1.33c.89.29 1.84.38 2.77.27 1.65-.2 3.19-1.02 4.85-1.14 1.87-.14 3.69.63 5.57.76 1.94.14 3.7-.18 5.27-1.33"/><path class="st9" d="M53.79 66.94l61.9 19.96"/><text transform="translate(57.538 32.683)" class="st1 st11 st12">2</text><text transform="translate(60.647 45.597)" class="st1 st11 st12">2</text><text transform="translate(62.53 38.139)" class="st1 st11 st12">0</text><text transform="translate(64.365 52.808)" class="st1 st11 st12">0</text><path class="st4" d="M47.25 23.06c-.05.57.13 1.14.36 1.67.92 2.15 2.88 4.02 5.22 4.16.64.04 1.4-.13 1.65-.72.26-.59-.15-1.26-.59-1.73-1.06-1.13-2.4-1.93-3.64-2.84-.64-.47-1.18-1-1.75-1.54-.34-.31-.41-.41-.78-.06-.29.25-.44.68-.47 1.06z"/><path class="st4" d="M47.17 27.74c-.08.53.14 1.07.4 1.54 1.13 1.97 3.18 3.21 5.19 4.26 1.51.79 3.08 1.53 4.77 1.71.43.05.91.04 1.25-.23.26-.21.39-.54.4-.87.01-.51-.25-1-.6-1.37s-.79-.64-1.23-.91c-1.27-.78-2.55-1.55-3.82-2.33-.64-.39-1.62-.53-2.29-.84-.85-.39-1.42-.91-2.23-1.4-.33-.2-.65-.58-1.05-.52-.41.05-.73.59-.79.96z"/><path class="st4" d="M48.25 33.62c.13.75.55 1.42 1.06 1.99.84.96 1.9 1.69 3 2.34 1.64.96 3.38 1.74 5.23 2.18.73.17 1.64.23 2.07-.38.28-.39.25-.94.04-1.37s-.56-.78-.9-1.11c-.45-.44-.91-.88-1.42-1.27-.53-.4-1.08-.78-1.68-1.05-1.93-.88-2.73-1.08-4.3-1.86-.48-.24-1.99-1.67-2.49-1.45-.6.27-.7 1.45-.61 1.98z"/><path class="st4" d="M48.64 37.87c-.49.78.24 2.04.51 2.31 2.54 2.5 2.81 2.81 5.76 3.85.87.31 2.97.1 3.4-.71.33-.62.15-1.42-.28-1.98s-1.05-.92-1.68-1.23c-1.19-.58-2.45-1.03-3.55-1.77-.54-.37-1.05-.81-1.66-1.06-.78-.33-1.77-.57-2.5.59z"/></svg>