<svg id="Layer_1" xmlns="http://www.w3.org/2000/svg" viewBox="0 0 548 148.4"><style>.st1{fill:#d2232a}.st3{fill:#fff}.st5{fill:none;stroke:#86754f;stroke-width:.6179;stroke-linecap:round;stroke-linejoin:round}</style><path d="M151.3 74.9s-8.5-1.9-14.2-7.8c-5.6-6-14-10.9-19-7.1l-.3 27.9v6.4l-.4 18 9.1 6.8s14 4 14.2 3.9c.2 0 10.5-11.9 10.5-11.9v-7.5l.1-28.7z" fill="#ffc844"/><path class="st1" d="M39.7 70.1v77.8h32.1V21.2H46.7c-1.2 20-19.2 26.6-36.7 26.2v22.7h29.7zM151.3 71.5v23c3.5-.3 6.2-3.3 6.2-7.1v-8.8c0-3.7-2.7-6.8-6.2-7.1z"/><path class="st1" d="M136.2 17.7h-2.9c-25.9 0-47.1 21.2-47.1 47.1v36.5c0 25.9 21.2 47.1 47.1 47.1h2.9c25.9 0 47.1-21.2 47.1-47.1V64.8c0-25.9-21.2-47.1-47.1-47.1zm24.9 69.7c0 5.7-4.4 10.4-9.8 10.7v5c0 9.1-7.4 16.6-16.6 16.6h-.1c-9.1 0-16.6-7.4-16.6-16.6V62.9c0-9.1 7.4-16.6 16.6-16.6h.1c9.1 0 16.6 7.4 16.6 16.6v5c5.5.3 9.8 5 9.8 10.7v8.8z"/><path class="st1" d="M128.9 81.4c-.2-.2-.4-.2-.5-.2h-.1c-.1 0-.2.1-.3.3v-.1c-.1-.1-.2-.2-.3-.2h-.1c-.2 0-.4.1-.5.5-.2-.4-.7-.5-.7-.5-.1-.3-.4-.4-.7-.4-.4-.4-.7-.5-.8-.5-.6.1-.6.7-.6.7v.1H124.6c.4 0 .6.4.6.4.4.6.8.9.8.9.5.4 1.1.5 1.3.5-.1.1-.3.3-.3.6 0 .4.3.6.5.6h.1c.1-.1.1-.2.1-.2v-.4c0-.1.5-.5.8-.7.5-.4.6-.7.6-.8-.1-.3-.1-.5-.2-.6zm-.9.4s0 .1.1.1c.1.1.2.1.2.1h.1c-.1.1-.3.1-.3.1-.2 0-.3-.1-.4-.2.1 0 .2 0 .3-.1zm.8 0c0 .4-.3.6-.5.8l-.5.5c-.3.2-.4.4-.4.4-.1.2-.1.5-.1.5v.1h-.1c-.1-.1-.2-.2-.2-.3 0-.3.3-.5.3-.6.1-.1.1-.2.1-.2 0-.1-.1-.1-.1-.1H127c-.7 0-1.3-.5-1.3-.5-.4-.3-.7-.9-.7-.9-.2-.4-.6-.4-.7-.4.1-.2.2-.3.4-.3.1 0 .2 0 .3.1.3.2.6.6.6.6v.1-.1-.3c.5.1.5.3.5.6s.1.4.1.4c.1.1.2.1.2.1h.1l.1-.1c0-.1-.1-.1-.1-.1-.1-.1-.1-.4-.1-.5.4.1.4.3.5.5v.1c.1.2.2.3.3.3h.1s.1 0 .1-.1v-.1s-.2-.2-.1-.4c0-.2.1-.4.3-.4.2 0 .2.1.2.2v.1l-.1.1c-.1 0-.1.1-.1.1v.2c0 .1.2.2.5.2s.4-.2.5-.3v-.2h-.1c-.1 0-.1.1-.1.1h-.1c-.1-.1 0-.2 0-.2 0-.2.2-.2.2-.2h.1c.2-.2.2.1.2.2z"/><path class="st1" d="M127.8 78.5c-.3-.6-1-.8-1-.8h-.2-.1c-.6 0-1.1.4-1.4 1-.3.7 0 1.5 0 1.6 0 0 0 .1.1.1.1.2.2.3.2.4h.5s.1 0 .2.1l.2.1-.1-.2-.2-.4c0-.1-.1-.1-.1-.2-.1-.2-.1-.3-.1-.4-.1-.4 0-.6.1-.6l.1-.1h.1c0 .2 0 .4.2.6.1.1.3.2.5.2.3 0 .6-.2.8-.4.3-.3.3-.7.2-1zm-1.6.1h-.1c.1-.1.2-.1.4-.1 0 0 .2 0 .2.1v.2h-.2c-.1-.1-.2-.2-.3-.2zm1.5.3s0 .8-.8.8c0 0-.4 0-.4-.5 0-.2 0-.3.1-.3h.1c.1 0 .1 0 .1.1s.1.2.2.2h.1c.1 0 .3-.1.3-.4v-.1.1s-.1.2-.2.2h-.1-.1v-.2c0-.1 0-.2-.1-.3-.1-.1-.2-.1-.4-.1h-.1c-.2 0-.4.1-.6.3-.1.1-.2.3-.1.4 0 0 .2-.3.4-.3h.1s.1 0 .1.2c0 0 0 .1-.1.1s-.4.2-.4.6c0 .5.3 1 .4 1.1-.1 0-.2-.1-.3-.1h-.1c-.4-.6-.4-1.2-.4-1.2 0-.7.4-1.1.6-1.2.1-.1.1-.1.2-.1.2-.1.3-.1.5-.1.4 0 .7.2.8.3.1 0 .2.3.2.5zM144.2 80.5c-.2 0-.5 0-.9.5-.3 0-.6.1-.7.4 0 0-.5.1-.7.5-.1-.4-.3-.5-.5-.5h-.1c-.1 0-.2.1-.3.2v.1c-.1-.1-.1-.2-.3-.3h-.1c-.1 0-.4 0-.5.2-.1.1-.1.4-.1.6 0 0 .1.4.6.8.3.2.8.7.8.7.1.1.1.3 0 .4 0 .1 0 .2.1.3h.1c.2 0 .5-.2.5-.6 0-.3-.1-.5-.3-.6.3 0 .8 0 1.3-.5 0 0 .4-.3.8-.9 0 0 .2-.4.6-.4H144.8v-.1c.1-.1.1-.7-.6-.8zm-3.3 1.4l.1-.1c0 .1.1.1.2.2 0 .1-.1.2-.4.2 0 0-.2 0-.3-.1h.1c.1-.1.2-.1.3-.2zm3.7-.9c-.1 0-.5 0-.7.4 0 0-.3.5-.7.9 0 0-.5.5-1.3.5h-.2-.1c-.1 0-.1 0-.1.1 0 0 0 .1.1.2 0 0 .3.3.3.6 0 .1-.1.2-.2.3h-.1v-.1s.1-.3-.1-.5l-.4-.4-.5-.5c-.1-.1-.5-.4-.5-.8v-.2c0-.1.2-.2.3-.2h.1c.1 0 .2 0 .2.2v.2h-.1s0-.1-.1-.1h-.1c-.1 0-.1.1 0 .2.1.2.2.3.5.3s.4-.2.5-.2c0-.1.1-.2 0-.2 0 0 0-.1-.1-.1s-.1 0-.1-.1v-.1c0-.1.1-.2.2-.2.2 0 .3.2.3.4s-.1.4-.1.4v.1s0 .1.1.1h.1c.1 0 .3-.1.3-.3v-.1c0-.2.1-.4.5-.5 0 .1 0 .4-.1.5l-.1.1s0 .1.1.1h.1c.1 0 .1 0 .2-.1 0 0 .1-.1.1-.4 0-.2 0-.5.5-.6 0 0 .1.2 0 .3v.1-.1s.2-.4.6-.6c.1-.1.2-.1.3-.1.1.2.3.3.3.5z"/><path class="st1" d="M143.7 78.7c-.3-.6-.8-1-1.4-1h-.2-.1s-.7.1-1 .8c-.1.3-.1.7.1 1 .2.3.5.4.8.4.2 0 .4-.1.5-.2.2-.2.2-.4.2-.6h.1s.1 0 .1.1.1.2.1.6c0 .1-.1.3-.1.4 0 .1-.1.1-.1.2l-.2.4-.1.2.2-.1c.1-.1.3-.1.3-.1h.4c.1-.1.2-.2.3-.4v-.1c.1-.1.5-.9.1-1.6zm-1.2 0h-.1-.1v-.1-.1c.1-.1.2-.1.2-.1.2 0 .3.1.4.1h-.2l-.2.2zm.8 2h-.4c.1-.1.4-.6.4-1.1 0-.4-.3-.6-.4-.6-.1 0-.1-.1-.1-.1 0-.2.1-.2.1-.2h.1c.2 0 .4.3.4.3 0-.1 0-.3-.1-.4-.1-.2-.3-.3-.6-.3h-.1c-.2 0-.3.1-.4.1-.1.1-.1.2-.1.3v.2h-.1-.1c-.1 0-.2-.2-.2-.2v-.1.1c0 .3.2.3.3.4h.1c.1 0 .2 0 .2-.2 0-.1.1-.1.1-.1h.1s.1.1.1.3c0 .5-.4.5-.4.5-.8 0-.8-.8-.8-.8 0-.2.1-.5.3-.7.1-.2.4-.3.8-.3.2 0 .4 0 .5.1.1 0 .1.1.2.1.2.2.6.6.6 1.2-.1.2-.1.8-.5 1.5zM131.9 81.6c0-.1-.1-.2-.2-.3-.1-.1-.3-.1-.4 0-.2 0-.4.1-.5.4 0 .1-.1.2 0 .3 0 .1.1.1.2.1l.1-.1v-.1h-.1v.1s-.1 0-.1-.1 0-.2.1-.3c.2-.2.4-.2.6-.2.1 0 .2.1.2.2s0 .2-.1.2c-.1.1-.1.1-.2 0v.1c.1 0 .2.1.2.2s0 .2-.1.2c-.1.1-.2.1-.3 0 0 0-.1 0 0-.1-.1 0-.1.1-.1.1l.1.1c.1.1.3 0 .5-.1 0-.1.1-.1.1-.2s0-.2-.2-.3h.1s.1 0 .1-.2zM129 78.8h.5c.4 0 .7.3.7.7 0 .4-.3.7-.7.7h-.5v-1.4zm.5 1.1c.2 0 .4-.2.4-.4s-.2-.4-.4-.4h-.2v.8h.2zM130.6 78.8h.3v1.3h-.3v-1.3zM131.4 78.8h.5c.4 0 .7.3.7.7 0 .4-.3.7-.7.7h-.5v-1.4zm.5 1.1c.2 0 .4-.2.4-.4s-.2-.4-.4-.4h-.2v.8h.2zM132.9 80l.2-.2c.1.1.2.2.4.2.1 0 .2 0 .2-.1s0-.1-.3-.2-.4-.1-.4-.4c0-.2.2-.4.5-.4.2 0 .4.1.5.2l-.2.2c-.1-.1-.2-.1-.3-.1-.1 0-.2.1-.2.1 0 .1.1.1.3.2.3.1.4.2.4.4 0 .3-.2.4-.5.4-.3-.1-.5-.2-.6-.3zM134.3 78.8h.6c.2 0 .3 0 .3.1.1.1.1.1.1.2s-.1.2-.2.3c.2.1.2.1.2.3 0 .2-.2.4-.5.4h-.6v-1.3h.1zm.6.6c.1 0 .2 0 .2-.1s-.1-.1-.2-.1h-.3v.3h.3v-.1zm0 .5c.1 0 .2 0 .2-.1s-.1-.1-.2-.1h-.3v.3h.3v-.1zM135.8 79.6v-.8h.3v.8c0 .2.1.3.3.3.2 0 .3-.1.3-.3v-.8h.3v.8c0 .4-.2.6-.6.6-.4 0-.6-.2-.6-.6zM137.4 78.8h.6c.2 0 .3 0 .4.1.1.1.1.2.1.3 0 .2-.1.3-.3.4l.3.5h-.3l-.3-.4h-.2v.4h-.3v-1.3zm.6.7c.1 0 .2-.1.2-.2s-.1-.2-.2-.2h-.3v.4h.3zM139.2 79.6l-.5-.8h.3l.4.5.3-.5h.3l-.5.8v.5h-.3v-.5zM139.2 80.7h-9.5s-.1 0-.1-.1c0 0 0-.1.1-.1h9.5c.1.1.1.1 0 .2.1 0 .1 0 0 0zM139.2 78.3h-9.5s-.1 0-.1-.1c0 0 0-.1.1-.1h9.5c.1.1.1.1 0 .2.1 0 .1 0 0 0zM136.3 76.1H135.5v1.3c0 .1 0 .1.1.1h.6c.1 0 .1-.1.1-.1.1 0 .1-1.2 0-1.3z"/><path class="st1" d="M136.3 76.3c.1 0 .1 0 0 0 .1.1.3.1.3.2v.6c0 .1-.1.2-.2.2s-.1 0-.1.1v-.2h.1c.1 0 .1-.1.1-.1v-.5c0-.1-.1-.1-.2-.1 0 0-.1 0-.1.1.1-.2.1-.3.1-.3zM132.7 76.1H133.5v1.3c0 .1 0 .1-.1.1h-.6c-.1 0-.1-.1-.1-.1-.1 0-.1-1.2 0-1.3-.1 0-.1 0 0 0z"/><path class="st1" d="M132.6 76.3c-.1.1-.3.1-.3.2v.6c0 .1.1.2.2.2s.1 0 .1.1v-.2h-.1c-.1 0-.1-.1-.1-.1v-.5c0-.1.1-.1.2-.1 0 0 .1 0 .1.1-.1-.2-.1-.3-.1-.3zM134.5 77.7c.3 0 .4-.2.4-.2v-.1c0-.4 0-.4.1-1 .1-.5 0-.8 0-.8s0-.1-.5-.1-.5.1-.5.1-.1.3 0 .8.1.5.1 1v.1c0 .1 0 .2.4.2zM131.7 81.6s-.1 0 0 0c-.1 0-.1 0 0 0-.1 0-.1 0 0 0-.1 0-.1 0 0 0-.1 0-.2 0-.2.1-.1.1-.2.2-.2.3-.1.1-.1.3-.2.4 0 .1-.1.1-.2.1h-.1c.1 0 .1 0 .1-.1 0 0 0-.1-.1-.1 0 0-.1 0-.1.1s.1.1.2.1h.1c.1 0 .2-.1.3-.2.1-.1.2-.3.2-.4 0-.1 0-.2.2-.3zM135 81.3c-.2.1-.2.1-.4.1h-.1c-.3-.1-.6.1-.7.4 0 .2 0 .3.2.4h.1c0 .1-.1.2-.2.3 0 0-.1.1-.2.1h-.1s.1 0 .1-.1c0 0 0-.1-.1-.1h-.1s-.1 0-.1.1.1.2.2.2.2 0 .3-.1c.1-.1.2-.2.2-.3 0-.1.1-.1.1-.1 0 .1 0 .1.1.1l.1-.1s0-.1-.1-.1h-.1c.1-.2.2-.3.3-.4-.1 0-.2 0-.2.1-.1.1-.2.2-.2.3 0 .1 0 .1-.1.1-.2 0-.2-.2-.2-.4.1-.2.3-.3.5-.2.1 0 .2 0 .3.1h.3c.1-.3.2-.4.1-.4zM136.3 81.7h-.1v-.1h.1c.1 0 .1 0 0 .1z"/><path class="st1" d="M138.3 81.3c-.1 0-.1.1-.2.1-.1.1-.2.2-.3.4 0 0-.1 0 0-.1h-.1c0 .1 0 .1.1.2 0 .1-.1.2-.1.2l-.2.2s-.2.1-.1.1v-.1c.1-.1.1-.3.3-.4h-.2c-.1-.1-.1-.1-.2 0-.1 0-.2.1-.3.2h-.1s.1-.1.1-.2 0-.1-.1-.1-.1 0-.1.2c0 0 0 .1.1.1 0 0-.2.2-.3.2 0 0-.1-.1 0-.2s.2-.3.1-.4c-.1 0-.1.1-.1.1v.1c-.1.1-.2.3-.3.4h-.1-.1c0-.1.1-.1.1-.2s.1-.1.1-.2 0-.1-.1-.1h-.1-.1s0-.1.1-.1v-.1h-.1v.2h-.1c-.1 0-.1 0-.1.1h.1c-.1.1-.1.2-.2.3 0 .1-.1.1-.1.1.1-.1 0-.3 0-.3v-.1l.1-.1v-.1s-.1 0-.2.2c-.1.1-.1.2-.2.2-.1.1-.1.1-.2.1s-.1 0-.1-.1 0-.1.1-.1.2-.1.3-.2v-.1h-.1c-.2.1-.3.2-.4.4 0 .1 0 .2.1.2s.2 0 .3-.1c.1 0 .1.1.1.1h.5c.1 0 .1 0 .2-.1 0 .1.1.1.2.1s.1 0 .1-.1c0 0 .1 0 .1-.1 0 .1.1.2.2.1h.1s.1-.1.3-.2c0 .1-.1.2 0 .2.1.1.2 0 .3 0 .1.1.1.1.4 0 0 .1 0 .1.1.1s.1 0 .2-.1l.3-.3c-.1.3-.4.4-.5.3v-.1c.1-.1.1-.2.2-.3.1 0 .2-.1.3-.2.1-.1.2-.2.2-.3-.2 0-.2-.1-.3 0zm-3.4.6h0c.1.1.1.1 0 0 .1.1.1.1 0 0 .1.1.1.1 0 0 0 .2-.2.2-.2.2l.2-.2zm.3.4h-.2c.1-.1.2-.2.2-.3.2.1.1.3 0 .3zm.6 0c-.1 0-.1.1-.1.1s-.1 0-.1-.1c0 0 0-.1.1-.1 0-.1.1-.2.1-.2h.2v.1c0 .1-.1.1-.2.2zm1.4-.1l-.1.1c-.1 0 0-.1 0-.1 0-.1.1-.2.2-.3h.2v.1c-.2.1-.3.1-.3.2zm1.1-.7l-.3.3s.1-.1.1-.2.1-.1.1-.2h.1c.1-.1 0 .1 0 .1zM133.4 82v-.1c0-.1-.1-.1-.3 0v-.1s-.1-.1-.2-.1c0 0 .1 0 .1.1-.1.1-.2.3-.3.3h-.1c-.1 0-.1 0-.1-.1s0-.1.1-.1.2-.1.3-.2v-.1h-.1c-.2.1-.3.2-.4.4 0 .1-.2.2-.3.2 0 0-.1 0-.1-.1s0-.1.1-.1.2-.1.3-.2v-.1h-.1c-.2.1-.3.2-.4.4 0 .1 0 .2.1.2 0 0 .2 0 .3-.1 0 .1.1.1.1.1h.2c.1 0 .1-.1.1-.1 0 .1.1.1.1.1h.1s.2-.4.5-.3c-.1-.1-.2 0 0 0-.1 0-.1 0 0 0zm-.8 0c0-.1 0-.1 0 0 .1-.1.1-.1 0 0 .1-.1.2-.1.2-.1 0 .1-.1.1-.2.1.1.1 0 .1 0 .1h-.1c0-.1.1-.1.1-.1zm-.5 0c.1-.1.1-.1 0 0 .1-.1.1-.1 0 0 .1-.1.1-.1 0 0 .1-.1.1-.1 0 0 .1-.1.1-.1 0 0 .1-.1.1 0 .1 0 0 .1-.1.1-.1.2h-.1-.1l.2-.2z"/><path class="st1" d="M134.5 85.4c-3.4 0-6.6-.8-6.6-.8h-.1v-1s.4-.3.7-.7c.2-.2.4-.4.5-.7.1-.3.1-.6 0-.8-.2-.2-.4-.3-.6-.3h-.4V81c-.2-.5-.5-.8-.5-.8l-.1-.1.1-.1c.3-.2.5-.6.5-.9 0-.4-.1-.7-.3-1-.3-.3-.7-.5-1.1-.5-.3 0-.6.1-.9.3l-.2.1v-.9s.7-.6 2.1-1.2c1.3-.5 3.5-1.2 6.6-1.2 3.1 0 5.3.6 6.6 1.2 1.4.6 2.1 1.2 2.1 1.2v.9l-.2-.1c-.2-.2-.5-.3-.9-.3s-.8.2-1.1.5c-.5.6-.4 1.5.2 1.9l.1.1-.1.1s-.3.3-.5.8v.1h-.1-.3c-.3 0-.5.1-.6.3-.2.2-.2.5 0 .8.1.3.3.6.5.7.3.3.7.6.7.7v1h-.1c.5 0-2.6.8-6 .8zm-6.5-1c.5.1 3.4.8 6.5.8s6-.7 6.5-.8v-.8c-.1-.1-.4-.4-.7-.6-.4-.4-.9-1.2-.5-1.8.3-.3.6-.4.8-.4h.2c.1-.3.3-.6.4-.7-.6-.6-.7-1.5-.2-2.2.3-.4.8-.6 1.2-.6.3 0 .6.1.8.2v-.4c-.2-.1-.8-.6-2.1-1.1-1.3-.5-3.5-1.2-6.5-1.2-3.1 0-5.3.6-6.6 1.2-1.2.5-1.9 1-2.1 1.1v.4c.2-.1.5-.2.8-.2.5 0 .9.2 1.2.6.3.3.4.7.3 1.2 0 .4-.2.7-.5 1 .1.1.3.4.4.7h.2c.2 0 .5.1.8.4.5.6-.1 1.5-.5 1.8-.3.3-.6.5-.7.6v.8h.3z"/><path class="st1" d="M132.8 84.1h.6V84h-.3l.1-.1c.1-.1.2-.2.2-.3 0-.1-.1-.2-.3-.2-.1 0-.2.1-.3.2l.1.1c.1-.1.1-.1.2-.1s.1 0 .1.1 0 .1-.1.2l-.3.2zm1.3 0c.2 0 .3-.2.3-.4s-.1-.4-.3-.4c-.2 0-.3.2-.3.4 0 .3.1.4.3.4zm0-.1c-.1 0-.2-.1-.2-.2s.1-.2.2-.2.2.1.2.2-.1.2-.2.2zm.8.1h.2v-.8h-.1l-.2.1v.1h.1v.6zm.6 0h.2l.3-.6v-.1h-.5v.1h.4l-.4.6z"/><path d="M223 129.9c-.2.4-.2.9 0 1.3.2.6.7 1 1 .3.3-.7 1.5-2 2.9-2.9 1.4-.9 2.8-1.4 3.4-.6.9 1.1-1.8 4.7-4.9 8.2-3 3.4-6.3 6.6-6.9 7.2-.6.6-.5 1.4 0 2 .4.5 1.1.9 2 .9.8.1 2.3 0 3.7-.1 1.3-.1 2.5-.3 3.1-.3.5-.1.8-.5.9-.9.1-.4-.1-.8-.6-.7-.2 0-1.7.2-3.3.3-1.9.1-3.9.2-4 0-.2-.3 3.5-3.7 6.7-7.3 1.8-2.1 3.6-4.1 4.4-5.8.7-1.5.6-3-.2-4.1-.5-.7-1.3-1.2-2.4-1.3-1.1-.1-2.3.4-3.3 1.2-1.1.8-2.1 2-2.5 2.6zm16.3-2.2c.1-.4 0-.9-.3-1.4-.4-.6-.9-.9-1-.2-.1.6-1.8 3.3-3.6 6.4-1.8 3.3-3.8 7.1-3.9 9.3-.1 1.2 0 2.1.3 2.8.6 1.3 1.7 1.8 3 1.5 1.3-.3 2.8-1.6 4-3 1.6-1.9 2.9-4.2 3-5.5 0-.9-.1-1.6-.4-2.1-.7-1.3-2.2-1.6-3.2-1.4-.8.1-1.5.5-2.1.9.8-1.6 1.8-3.1 2.5-4.4.9-1.4 1.5-2.5 1.7-2.9zm-7.1 17.1c-.7-.3-.7-1.5-.1-3.2.3-.8.6-1.6 1-2.6.1 0 .3-.1.5-.4.5-.7 1.5-1.7 2.5-2.4 1.4-.9 2.8-1.4 3.2-.5.4 1.1-.8 3.6-2.4 5.7-1.7 2.2-3.6 3.9-4.7 3.4zm11.2-6c-.3.1-.3.5-.1 1 .2.4.5.7 1 .7h9.3c.6 0 .7-.5.5-1-.1-.3-.4-.5-.7-.5-.3 0-2.6-.1-4.9-.2-2.2 0-4.6-.1-5.1 0zm15.7-8.9c-.2.4-.2.9 0 1.3.2.6.7 1 1 .3.3-.7 1.5-2 2.9-2.9 1.4-.9 2.8-1.4 3.4-.6.9 1.1-1.8 4.7-4.9 8.2-3 3.4-6.3 6.6-6.9 7.2-.6.6-.5 1.4 0 2 .4.5 1.1.9 2 .9.8.1 2.3 0 3.7-.1 1.3-.1 2.5-.3 3.1-.3.5-.1.8-.5.9-.9.1-.4-.1-.8-.6-.7-.2 0-1.7.2-3.3.3-1.9.1-3.9.2-4 0-.2-.3 3.5-3.7 6.7-7.3 1.8-2.1 3.6-4.1 4.4-5.8.7-1.5.6-3-.2-4.1-.5-.7-1.3-1.2-2.4-1.3-1.1-.1-2.3.4-3.3 1.2-1.1.8-2.1 2-2.5 2.6zm19.7-3c-1-.9-4-1.5-6.5-.3-2.6 1.3-2.3 3.6-1.8 5.1.2.7.8 1.8 1.4 3-1.8 1.7-3.4 3.3-4.2 4.3-1.5 1.8-1.8 3.3-1.7 4.5.2 1.2 1 2 2 2.5 1.7.8 5.4.6 6.8-1.7 1.6-2.5.6-5.9-.6-9.3l3.5-3.2c1.7-1.5 3-2.8 3.3-3.3.4-.9.3-1.6 0-2-.3-.3-.7-.3-1 .1-.1.1-.2.3-.4.5-.3.1-.6 0-.8-.2zm-5.5 16.3c-1.5 2.6-6 2.5-6.2.3-.1-1.4 2.4-4.2 5.4-7 1.1 2.4 1.8 5 .8 6.7zm0-9.8c-1-1.9-2.1-3.7-1-5 1-1.3 4.6-.8 6.1.1-.6.7-1.4 1.4-2.3 2.2l-2.8 2.7zm19.5-2.8c-.2.6-.4 1.2-.5 1.8-.8 1.2-1.6 2.9-2.2 4.6-.7 2.1-1.1 3.9-1 5.6.1 2.3.9 4.1 2.3 5 1.2.8 2.8 1 4.8.4 3-.9 6.1-3.9 8.5-7.4 2.9-4.3 4.8-9.5 3.8-13.1-.8-3.5-3.9-5-7.3-4.5-2.1.3-3.8 1.2-5.2 2.5-1.4 1.5-2.5 3.2-3.2 5.1zm-1.3 8.4c.3-.9.6-1.9 1-2.9.3.9.8 1.6 1.5 1.8.5.2 1.1.1 1.5 0 .4-.1.5-.4 0-.7-.7-.3-1.6-1.1-1.5-3.2.1-1.1.4-2.5 1.3-4.3 1-2.1 2.5-3.6 4.1-4.6 2-1.1 4.1-1.4 5.5-.6 1.1.6 1.9 2.2 2 4.4.1 1.9-.4 4.3-1.6 6.9-1.3 2.7-2.8 4.9-4.2 6.5-3.2 3.5-6.4 4.7-8.1 4.5-1.4-.1-2.1-1.5-2.1-3.5-.2-1.1.1-2.6.6-4.3zm21.6-4.8c-1.7.3-3.6 2.3-5 4.3-1 1.5-1.6 3-1.7 4.2-.1 1.1.2 2.1.7 2.8.7.9 1.8 1.4 3.3 1 2-.5 3.9-2.2 5.5-4 1.6-1.8 2.9-3.8 3.5-4.9.2-.4.1-.9-.2-1.2-.2-.2-.6-.3-.8.2-1 1.7-2.3 3.4-3.7 4.9-2.9 3.1-6 5.1-6.7 3.4-.4-1.1.3-3.2 1.5-5.2 1.5-2.5 3.6-4.8 4.6-4.1.4.3-.6 1.7-1 2.4-.2.4-.1.7.1.9.2.2.6.2.8 0 .6-.4 1.3-1.4 1.4-2.1.1-.7-.3-1.5-.8-2-.4-.4-1-.7-1.5-.6zm12-6c.2-.3-.1-.7-.5-.8-.4-.1-1-.1-1.2.3-.1.2-.6.9-1.2 2-.4.8-1 1.8-1.5 2.8l-1.7.2-2.2.2c-.2 0-.3.1-.4.3-.1.2 0 .4.2.7.2.3.5.5.8.5.2 0 .4 0 .6-.1.2-.1 1-.2 2.1-.4-.5 1-.9 2-1.3 3-.6 1.4-1 2.7-1.2 3.9-.3 1.3-.3 2.4-.1 3.2.3 1.6 1 2.6 1.8 3.2 1.1.8 2.7.9 4 .3.6-.3.7-.8.6-1.1-.1-.3-.4-.5-.7-.3-.4.4-2.3 1.3-3.3.5-.7-.6-1.1-2-.8-4.1.2-1.6.7-3.6 1.7-5.8.4-.9.9-2 1.4-3 1.3-.1 2.8-.3 4.1-.4 1.6-.1 3-.2 3.7-.1.7.1.8-.2.6-.5-.1-.3-.5-.5-.8-.7-.4-.1-2-.1-4 0l-2.8.2 1.3-2.4.8-1.6zm15.2 1.7c-.2.4-.2.9 0 1.3.2.6.7 1 1 .3.3-.7 1.5-2 2.9-2.9 1.4-.9 2.8-1.4 3.4-.6.9 1.1-1.8 4.7-4.9 8.2-3 3.4-6.3 6.6-6.9 7.2-.6.6-.5 1.4 0 2 .4.5 1.1.9 2 .9.8.1 2.3 0 3.7-.1 1.3-.1 2.5-.3 3.1-.3.5-.1.8-.5.9-.9.1-.4-.1-.8-.6-.7-.2 0-1.7.2-3.3.3-1.9.1-3.9.2-4 0-.2-.3 3.5-3.7 6.7-7.3 1.8-2.1 3.6-4.1 4.4-5.8.7-1.5.6-3-.2-4.1-.5-.7-1.3-1.2-2.4-1.3-1.1-.1-2.3.4-3.3 1.2-1.1.8-2.1 2-2.5 2.6zm13.9-3.1c-.9.8-1.3 2-1.4 2.8-.9.8-2.2 3.2-3.1 5.9-.9 2.5-1.5 5.1-1.3 7 .1 1.3.8 2.5 1.7 3.2.7.5 1.7.8 2.8.5 1.7-.4 4-2.9 5.7-6 1.1-2.1 2.1-4.3 2.4-6.5.4-2.3 0-4-.6-5.2-.7-1.4-1.8-2.1-2.6-2.4-1-.5-2.3-.5-3.6.7zm.4 3.6c.1-.1 0-.4-.2-.7.3-.9 1.3-2 2.1-2.1.8-.1 1.6-.1 2.2.5.5.5.8 1.3.9 2.6.1 1.8-.8 4.5-2 7.1-1.9 3.9-4.8 7.5-6.5 7-1.9-.6-.8-5.1.7-9 1-2.7 2.3-5.1 2.8-5.4zm8.9 1c-.4.1-.3.5-.1.8.3.3.7.5 1.1.4.7-.2 3.2-2.2 3.4-2.4-.1.3-1.8 3.9-3.3 7.6-1.4 3.3-2.7 6.6-2.7 7.5 0 .5.3.9.6 1.3.4.4 1 .6.9.2-.1-.8 1.1-4.3 3-9.1 1.9-4.7 3.7-8.2 4.8-10.2.3-.6 0-1.2-.4-1.4-.3-.2-.7-.2-1 .3-.3.4-1.6 1.6-2.9 2.7-1.5 1.1-3 2.2-3.4 2.3zm8.3-4.8c-.5-.1-.5.7-.2 1.3.2.4.5.7.8.7.4 0 2.1-.2 3.7-.3 1.7-.1 3.3 0 3.4.4.1.4-2.1 3.5-4.5 6.9-2.9 4.1-6.2 8.7-6.4 9.3-.2.5.1 1.1.5 1.4.4.3.8.3.9-.1.1-.6 3.5-5.3 6.5-9.5 2-2.8 3.7-5.3 4.2-6.4.4-.9.3-1.7-.1-2.4-.5-.8-1.5-1.4-2.5-1.4-1.1-.1-2.6 0-3.8 0-1.2.2-2.1.2-2.5.1z" fill="#86754f"/><path class="st1" d="M219.5 112.7h13.8c9.6 0 12.7-5.2 12.7-11.3 0-5.1-2.9-8.4-7.4-9v-.1c4-1.1 6.1-4.3 6.1-8.4 0-7.4-4.8-9.8-11.6-9.8h-13.7v38.6h.1zm8.2-32.8h3c4 0 5.9 1.3 5.9 5 0 3.6-2 5.1-6.5 5.1h-2.3V79.9h-.1zm0 15.5h3.5c3.6 0 6.3 1.3 6.3 5.8s-2.7 5.8-6.6 5.8h-3.2V95.4zm21.4-21.2v38.6h23.3v-6.4h-15.1V96H271v-6.4h-13.7v-9.1h14.5v-6.4h-22.7v.1zm25.8 0v38.6h23.3v-6.4h-15.1V96h13.7v-6.4h-13.7v-9.1h14.5v-6.4h-22.7v.1zm33.9 5.7h3.9c3.7 0 5.7 1.8 5.7 5.3 0 4.2-2.2 5.8-6.1 5.8h-3.4V79.9h-.1zm-8.2 32.8h8.2V96.4h4.4c3.3 0 4.7 1.8 4.8 4.9l.2 7.4c.1 1.5.2 3 1 4h8.9v-.3c-1.5-.8-1.8-2.9-1.8-6.9-.1-8.2-1-11.1-6.5-11.8v-.1c4.6-.9 6.8-4.4 6.8-9.5 0-6.6-4.1-9.9-10.8-9.9h-15.1v38.5h-.1zm44.2 0h8.2V96h13.7v-6.4H353v-9.1h14.5v-6.4h-22.7v38.6zm25-38.5v38.6h23.3v-6.4H378V96h13.7v-6.4H378v-9.1h14.5v-6.4h-22.7v.1zm24.9 26.5v1.6c0 7.1 3.6 11.2 12.9 11.2 8.9 0 14.1-3.7 14.1-11.8 0-4.7-1.6-7.7-7.7-10.2l-6.3-2.6c-3.5-1.4-4.2-2.9-4.2-5.2 0-2.3 1-4.5 4.7-4.5 3.1 0 4.4 2.1 4.4 5.7h7.9v-1.1c0-7.4-5.3-10.4-12.6-10.4-7.7 0-12.6 3.8-12.6 11.3 0 6.4 3.4 9.3 10.6 11.7 5.4 1.8 7.3 3.1 7.3 6.6 0 3.2-2.4 4.8-4.9 4.8-4.3 0-5.4-2.3-5.4-5.9v-1.1h-8.2v-.1zm27.6-26.5v6.4h8.9v32.2h8.2V80.6h8.9v-6.4h-26zm36.6 38.5V74.2h-8.2v38.6h8.2v-.1zm2.1-38.5l9.3 38.6h10.5l9.3-38.6h-8.5l-6 28.5h-.2l-5.7-28.5H461zm25.6 38.5h8.5l1.9-8.2h10.8l1.9 8.2h8.5l-10.8-38.6h-10.1l-10.7 38.6zm15.8-31.8h.1l3.9 17.3h-8l4-17.3zm40.5 31.8v-6.4h-14.5V74.2h-8.2v38.6h22.7v-.1zM219.5 60.1H232c10.6 0 13.5-6.2 13.5-19.9 0-11.4-2-18.8-13-18.8h-13v38.7zm8-32.9h3.4c6.1 0 6.8 4.5 6.8 13.3 0 10.5-1.1 13.9-6.6 13.9h-3.5V27.2h-.1zm29.7 32.9V21.4h-8v38.7h8zm4.2 0H274c10.6 0 13.5-6.2 13.5-19.9 0-11.4-2-18.8-13-18.8h-13v38.7h-.1zm8-32.9h3.4c6.1 0 6.8 4.5 6.8 13.3 0 10.5-1.1 13.9-6.6 13.9h-3.5V27.2h-.1zM289.7 48v1.6c0 7.1 3.5 11.3 12.5 11.3 8.6 0 13.7-3.7 13.7-11.9 0-4.7-1.5-7.7-7.5-10.2l-6.1-2.6c-3.4-1.4-4.1-2.9-4.1-5.3 0-2.3.9-4.5 4.5-4.5 3 0 4.3 2.1 4.3 5.7h7.6V31c0-7.4-5.1-10.4-12.2-10.4-7.5 0-12.2 3.8-12.2 11.4 0 6.4 3.3 9.3 10.3 11.7 5.3 1.8 7.1 3.1 7.1 6.6 0 3.2-2.3 4.8-4.8 4.8-4.2 0-5.3-2.3-5.3-6V48h-7.8zm28.7 12.1h13.4c9.3 0 12.3-5.3 12.3-11.3 0-5.1-2.8-8.4-7.2-9v-.1c3.9-1.1 6-4.3 6-8.4 0-7.4-4.7-9.8-11.2-9.8h-13.3v38.6zm7.9-32.9h2.9c3.9 0 5.7 1.4 5.7 5s-2 5.1-6.4 5.1h-2.3V27.2h.1zm0 15.5h3.4c3.5 0 6.1 1.3 6.1 5.8s-2.6 5.8-6.4 5.8h-3.1V42.7zm20.5-21.3v27c0 10.3 6.1 12.5 12.6 12.5S372 58.3 372 48.4v-27h-8v27c0 3.8-.9 6.7-4.6 6.7-3.7 0-4.6-2.9-4.6-6.7v-27h-8zm36.9 5.8h3.8c3.6 0 5.5 1.8 5.5 5.4 0 4.2-2.2 5.8-6 5.8h-3.3V27.2zm-8 32.9h8V43.7h4.3c3.2 0 4.6 1.8 4.7 4.9l.2 7.4c.1 1.5.2 3 1 4.1h8.6v-.3c-1.5-.8-1.7-2.9-1.8-6.9-.1-8.2-.9-11.1-6.4-11.8V41c4.5-.9 6.6-4.4 6.6-9.5 0-6.6-4-10-10.5-10h-14.7v38.6zm25.7-38.7l10.2 23.5v15.2h8V44.9l10.2-23.5h-8.6l-5.5 14.9h-.1l-5.2-14.9h-9z"/><path class="st3" d="M116.4 47.4s0-.1 0 0c-.2-.4-.5-.8-.8-1-.5-.4-1-.7-1.6-1-.8-.4-1.6-.8-2.4-1.1-.9-.3-1.8-.4-2.7-.2-.5.1-1 .3-1.4.7-.2.2-.4.4-.6.7-.2.3-.4.6-.5.9-.2.5-.1 1 0 1.6.1.4.3.7.6 1 .3.3.6.2.8-.1.2-.3.4-.7.5-1 .1-.7.6-1.1 1.2-1.3.6-.3 1.3-.5 2-.4 1.4.1 2.8.3 4 1.1.2-.1.5.1.9.1zM123.7 28.3c.2.4.5.8.8 1.2.4.6.8 1.2 1.1 1.8.5.8.8 1.6 1.1 2.5 0-.3.1-.7.1-1 .1-1.2.1-2.4-.1-3.6-.1-.5-.3-1.1-.6-1.6-.5-.7-1.2-1.1-2-1-.6 0-.9.2-.8.8.1.3.2.6.4.9z"/><path class="st3" d="M117.1 31.4c0-.1-.1-.2-.1-.3l-.3-.9c-.5-.8-1.1-1.6-1.9-2.2-.4-.3-.8-.6-1.3-.7-.7-.3-1.4-.2-2.1 0-.5.2-1 .8-1 1.3 0 1 .9 2.1 2 2.5.5.1 1 .3 1.5.4.9.3 1.5.8 2 1.6.4.6.7 1.1 1 1.7.6 1 1 2 1.2 3.2.1.5.1 1 0 1.4-.1.4-.4.6-.9.6-.2 0-.3-.1-.5-.1-.5-.1-.9-.3-1.4-.4-.5-.1-1 0-1.2.4-.2.4-.3 1 .2 1.4.3.3.6.5.9.7.4.2.8.4 1.1.7.6.4 1.1.8 1.7 1.3l.9.9c.3.3.6.5.9.8l.1.2c.2.3.2.3.3.4.2.5.2.5.1.8 0 .1-.1.3-.1.4-.2.4-.1.3-.4.8-.1.1-.2.3-.2.3s-.2.1-.3.1c-.8.2-1.4.4-2.2.4-.8 0-1.6.1-2.4.2-1.1.1-1.8.7-2.3 1.6-.3.5-.3 1.1-.3 1.7 0 .8.5 1.4 1.1 1.9.6.4 1.5 0 1.7-.7.1-.4.2-.9.2-1.4 0-.5.5-.9.9-1 .5-.2 1-.2 1.5-.1 1.2.2 1.8.7 2.4 1.6.4.7-1 4.6-1.5 6.9l1.2-1.3 3.1-1.2 11.8 1.2 16.5 6.4v-3s-13.4-.4-16.2-10.9c0 0-1.3-3.8-1.5-8.8-.2-5-2.2-5.8-2.2-5.8s-2.2-1.1-2.5 1.5c-.3 2.6.3 4.9.3 4.9s1 5.2-2 4.7c-2 .1-2-5.2-1.9-6.5.3-1.5.6-1.8.7-2.5.2-1.2.1-1.8.1-2.8 0-.2-.1-.5-.2-.7-.1-.1-.3-.3-.4-.3-.3 0-.7.1-.8.4-.1.3-.1.7-.1 1 0 .4.1.8.1 1.2 0 .2-.1.4-.3.5-.2 0-.4-.1-.4-.3-.1-.6-.3-1.2-.3-1.9-.1-.8 0-1.5-.1-2.3 0-.4 0-.8-.1-1.1-.4-1-.9-1.9-1.7-2.5-.5-.4-.8-.4-1.1 0-.3.4-.4.9-.4 1.4 0 .7.4 1.3.7 1.8.4.6.8 1.2 1.1 1.8.5.9.4 1.5-.2 2.2-.4.5-.9.8-1.5.8-.6.1-1-.2-1.3-.6-.5-.7-.8-1.6-1-2.4l-.6-3c0 .1-.1-.3-.1-.3zm8 23l4.6-7.9-2.8 3.2m-1.3-.1c0 .1-.1.2-.2.2-.2.1-.2-.1-.3-.2"/><path class="st5" d="M180.2 60.7c1.8.1 3.6.4 5.4.6m-8 12.9c.4.2.8.5 1.1 1 .9.9 2 1.4 3 2.1 1.1.8 1.6 2.4 2.8 3m-13.3-70.2c.1 0 .1 0 .2-.1.5-.3 1.1-.6 1.6-.9.3-.2.5-.4.7-.6.2-.1.4-.2.6-.2M171.9 3.1c.1-.5.9-1.2 1.2-1.6.4-.4.8-.7 1.2-1.1l-.1-.1M27.4 82.5c-.1.1-.3 0-.4.1h-.4c-.5 0-1 .1-1.5.1h-2.4c-.3 0-.7.1-1 .1-.3 0-.6.1-.8.1-.2 0-.4.1-.6.1-.2.1-.5.2-.7.3-.5.2-1 .4-1.5.7-.2.1-.3.2-.5.3-.1.1-.3.2-.5.4s-.4.3-.6.5c-.3.3-.6.6-1 .9-.2.2-.3.3-.4.6-.1.2-.1.5 0 .7 0 .1 0 .2.1.4l.3.3c.3.2.7.3 1 .3.8 0 1.6 0 2.4-.3.8-.4 1.5-.9 2.1-1.6.2-.3.5-.5.8-.7.3-.2.7-.4 1-.6.7-.4 1.4-.9 2-1.4.5-.4 1-.9 1.7-1M91.9 15.8c0-.1-.2-.3-.3-.3-.2-.2-.3-.3-.5-.4-.2-.1-.4-.2-.5-.3-.2-.2-.5-.3-.7-.4-.3-.2-.6-.3-.9-.5-.2-.1-.4-.3-.7-.4-.2-.1-.5-.2-.7-.2-.1-.1-.3-.1-.4-.2-.2-.1-.5-.1-.7-.2-.3-.1-.5-.2-.9-.2-.2 0-.5-.1-.7-.1-.2 0-.4-.1-.6-.1h-.4c-.2 0-.4-.1-.6-.1-.7 0-1.4.1-2.1.2l-1.2.3c-.3.1-.5.3-.7.5-.3.3-.4.5-.5.8-.1.2-.1.3-.1.5s0 .5.1.7c.2.5.6.8 1.1.9.8.1 1.6.1 2.3.1.7 0 1.4 0 2.1-.1.6 0 1.1 0 1.7-.1.2 0 .4-.1.5-.1.4-.1.8-.1 1.2-.2l1.2-.3c.3-.1.7-.1 1-.1h1.5m6 8.3c-.1-.2-.4-.3-.6-.5-.3-.2-.6-.5-.8-.7-.1-.1-.2-.3-.4-.4-.2-.2-.5-.3-.7-.5l-.6-.3c-.2-.1-.4-.2-.7-.3-.2-.1-.4-.2-.5-.2-.2-.1-.4-.1-.7-.2-.1-.1-.2-.1-.4-.2-.3-.1-.6-.2-1-.3-.6-.1-1.2-.1-1.8-.1-.3 0-.5 0-.8.1-.1.1-.3.1-.4.2-.1 0-.2 0-.3.1-.3.1-.4.5-.4.7 0 .3-.1.5-.1.8 0 .1.1.2.1.3.1.2.1.3.3.4.1.1.3.2.4.3.3.2.7.3 1 .4.6.2 1.2.3 1.8.2.6-.1 1.3 0 1.9 0h.9c.7 0 1.3.1 2 .1h1.3c.5 0 1 .1 1.5.1.2 0 .5 0 .7.1.1 0 .2.1.2 0m14.1 1.9c0-.8-.1-1.6-.3-2.4-.1-.5-.3-1-.5-1.4-.2-.5-.4-1.1-.7-1.6-.2-.3-.3-.6-.5-.9-.2-.3-.3-.6-.5-.8-.2-.2-.3-.5-.5-.7-.3-.5-.6-.9-1.1-1.2-.3-.2-.6-.3-.9-.5-.2-.1-.3-.2-.5-.4s-.5-.3-.7-.4c-.3-.1-.7-.2-1-.4-.4-.2-.8-.4-1.3-.5-.3 0-.5-.1-.8-.1-.2 0-.5-.1-.7-.1h-1.7c-.2 0-.3 0-.5.1-.3.1-.5.2-.7.4-.2.2-.3.3-.4.6-.1.2-.1.4-.1.7 0 .3 0 .6.1.9.1.4.3.7.5 1.1.3.3.6.5.9.8.1.1.2.1.3.2l.6.3c.4.2.8.4 1.1.6.6.3 1.1.7 1.8.8.3 0 .5.1.8.2.2.1.5.2.7.2.6.2 1.1.4 1.7.6.4.1.8.3 1.1.5.5.3.9.6 1.3 1l.9.9c.1.1.2.2.3.4h-.1m36.2-.6c.2-.1.3-.5.4-.7.2-.4.3-.9.6-1.2.6-.7 1.3-1.2 1.7-1.9.2-.3.4-.7.7-1 .4-.3.8-.6 1.1-.9.6-.5 1.2-1 1.8-1.4.4-.2.8-.4 1.1-.7.3-.2.7-.4 1-.5h2.4c.3 0 .7 0 1 .1.4.2.7.6.7 1 0 .2.1.3.1.4 0 .2-.1.4-.1.6 0 .2 0 .4-.1.6-.1.3-.3.6-.5.8-.2.2-.3.4-.5.5-.2.2-.5.3-.8.4-.3.2-.6.3-.9.5l-.9.3c-.5.2-.9.4-1.3.6-.4.2-.7.2-1.2.3-.5.1-.9.1-1.4.1-.5.1-1 .1-1.5.2-.3 0-.5 0-.8.1l-.9.3c-.2.1-.4.2-.7.4-.1 0-.3.1-.4.2-.1.1 0 .1-.1.1m14.3-1c.1 0 .6-.6.5-.5.6-.6 1.3-1.1 2-1.5.4-.3.8-.5 1.2-.8.6-.4 1.1-.5 1.8-.8.9-.3 1.8-.7 2.8-.8.8-.1 1.6-.1 2.4-.1.7 0 1.3.1 2 .3.7.2 1.5.4 1.9 1.1.3.5.4 1 .4 1.6 0 .6-.1.9-.5 1.3-.3.3-.9.4-1.3.4-.5.1-1.1.1-1.7.1-.8 0-1.5.1-2.3.1h-1c-.4 0-.9-.1-1.3-.2-.8-.1-1.5 0-2.2-.1-.7-.1-1.5-.1-2.2-.1H164c-.2 0-.4 0-.6.1-.1.1-.2.2-.4.2m13.4 4.9c.6-.3 1.3-.4 2-.4 1-.1 2-.1 3 0 .8.1 1.7.5 2.5.8.7.3 1.5.6 2.2.9.4.2 1 .5 1.2.9.2.3.3.7.5 1l.3.9c.1.8.3 1.9-.4 2.5-.5.3-1.1.1-1.6.1-.5-.1-1-.1-1.5-.2-.6-.1-1.2-.5-1.7-.8-.7-.5-1.5-.9-2.2-1.5-1.1-1-2.3-2-3.5-2.9-.6-.4-1.3-.8-2-1.1-.4-.2-1-.3-1.5-.3m9.1 41.1s.6-.1.4-.1c.6-.1 1.1-.2 1.7-.3.4-.1.9-.1 1.3-.1h1.7c.3 0 .6 0 .9.1.4 0 .6.1 1 .2.2.1.5.1.7.2.2 0 .4.1.7.2.9.3 1.9.8 2.6 1.4.7.6 1 1.4.9 2.3-.1.7-.8 1.2-1.5 1.2-.2 0-.5.1-.7.1-.4 0-.8-.1-1.2-.1-.4-.1-.9-.2-1.3-.2-.2 0-.3 0-.5-.1s-.3-.2-.5-.3c-.3-.2-.6-.3-.9-.4-.2-.2-.5-.4-.7-.6-.1-.1-.3-.2-.4-.3-.3-.3-.7-.5-1-.7-.6-.4-1.3-.7-2-1-.3-.1-.6-.3-.9-.4-.2-.1-.4-.2-.7-.3-.3-.1-.6-.1-.9-.1m6.6 17.3c-.1 0-.2-.1-.3-.1-.1-.1-.3-.1-.5-.1s-.4.2-.6.3c-.2.2-.2.5-.2.8v.3c0 .1.2.3.3.4.2.2.5.2.8.2.3-.1.4-.2.6-.5.2-.2.2-.5.2-.8 0-.1-.1-.2-.1-.4 0-.1 0-.2-.1-.2m2.5 2.4c-.2-.2-.6-.2-.9-.2-.3 0-.6.1-.8.3-.2.3-.4.6-.4 1 0 .3-.1.7.1.9.2.3.7.5 1 .5h.6c.2 0 .3 0 .5-.1s.3-.4.3-.6c.2-.5.2-.9 0-1.4-.1-.2-.1-.4-.2-.6 0 0 0-.1-.1-.2m3.9 1.5c-.3-.1-.6-.2-.9-.1-.3.1-.5.3-.7.5-.2.2-.1.5-.1.8 0 .2 0 .5.2.7.2.2.6.3.9.4h.6c.2 0 .3-.2.3-.4.2-.4.2-.8.1-1.3 0-.1 0-.3-.1-.4m-3.2 2.6c.3 0 .5-.1.8-.1.4 0 .5.1.6.5 0 .2.1.5 0 .7 0 .1-.1.2-.1.3-.1.2-.2.4-.4.5-.4.4-1 .1-1.4-.2-.3-.3-.2-.9 0-1.2M192.4 23.2c-.2.1-.5.1-.7.1-.2 0-.4.1-.6.1-.1 0-.3.1-.4.1-.1 0-.2.1-.2.1m3-.1c.1 0 .2.1.2.2.2.2.4.5.7.8.1.2.2.3.3.5h-.1c-.1-.1-.3-.1-.4-.1-.3 0-.6-.1-.8-.4-.1-.2-.2-.3-.2-.6 0 0 0-.3.1-.3m.1-.8c.5 0 .9-.4 1.2-.8.1-.1.2-.2.3-.4.1-.1 0-.1 0-.2-.1-.1-.2-.3-.4-.3-.4-.1-.7.2-.9.5-.2.3-.6.6-.3 1m2.2 0h.6c.3 0 .5-.2.8-.4.1-.1.3-.2.4-.3-.3-.2-.7-.4-1.1-.3-.4.1-.8.5-1 .9m.4 1.1c.3.3.6.8.8 1.2.1.1.2.3.1.5h-.1c-.1-.1-.3-.2-.4-.3-.2-.2-.5-.3-.6-.6-.1-.2-.3-.3-.3-.6 0-.1 0-.2.1-.3m2.3.5c.1 0 .1.1.2.2.2.2.3.4.5.6.1.2.2.3.3.5 0 .1 0 .1.1.2-.1-.1-.3-.1-.4-.1-.3-.1-.5-.2-.7-.4-.2-.2-.4-.5-.4-.7 0-.2-.1-.3 0-.5 0 0 0-.1 0 0m.8-.4c.2-.2.6-.2.9-.3.2-.1.3-.2.5-.3.1-.1.2-.1.3-.2-.2-.2-.4-.4-.7-.5-.4-.1-.8.1-1.1.3-.1 0-.3.3-.3.4V23.1m1.2 1.2c.1 0 .2.1.2.2.3.3.7.5 1 .8.1.1.2.2.3.2l.2.1c.1 0 0-.1 0-.2-.1-.2-.1-.3-.1-.5-.1-.4-.3-.8-.6-1.1-.1-.1-.4-.3-.6-.3-.1 0-.7.3-.6.4 0 0 .1 0 .1-.1M2.7 84.6c.1.2.3.4.6.6.2.2.5.3.7.4.2.1.4.1.6.2.1 0 .2.1.3 0-.1 0-.1.1-.1.2-.1.2-.3.3-.4.5-.1.2-.2.5-.3.7v.3c.1.1.4.2.6.2.2.1.4.1.7.1.2 0 .4 0 .6-.1.1 0 .2-.1.3-.2l-.1.5c0 .4.1.7.2 1 .1.3.2.5.4.7.1 0 .3-.2.4-.2.2-.1.1-.3.2-.5.1-.3.2-.6.3-1 .1-.4.1-.9 0-1.3 0-.2 0-.4-.1-.6-.1-.3-.3-.5-.4-.7-.2-.2-.4-.3-.5-.5-.2-.2-.3-.3-.6-.5l-.6-.3c-.2-.1-.4-.1-.6-.1H4c-.3 0-.5.1-.7.2m5-.1c-.1 0-.2.1-.2.2-.1.1-.3.2-.5.3l-.4.4m-4.8.5c-.2.2-.5.3-.7.6-.1.1-.1.3-.2.4 0 .1-.1.2-.1.3.1.1.2.1.3.1.2.1.4.1.6.2h.9c0 .1-.1.1-.1.2-.1.2-.2.4-.2.7v1h.5c.2 0 .4.1.6 0-.1.1 0 .1 0 0l.1-.1c0 .4 0 .8.1 1.2.1.1.1.2.2.3.1.1.1.2.3.1.5-.2 1.1-.3 1.3-.9m-4.8-2.2c-.1.2-.3.4-.4.7 0 .1-.1.4-.1.5 0 .1.3.2.3.2.2.1.4.1.6.2H2c.1 0 .2 0 .3-.1 0 .1-.1.2-.1.3v.5c.1.2.2.4.3.7l.3.6c.1.1.2 0 .3 0 .2 0 .4-.1.5-.1.2-.1.3-.2.4-.4M.8 89.3c0 .1-.1.1-.1.2-.1.1-.2.3-.2.4-.1.2-.1.5-.1.7.3.2.8.1 1.1 0 .1 0 .2 0 .3-.1 0 0 .1-.1 0-.1m184.9 4.4c2.5 3.2 9 3.2 9.5 8M13.2 22.7c-.4-.1-.7-.1-1-.3-.4-.3-.8-.5-1.3-.8-.1-.1-.3-.2-.4-.2-.2-.1-.4-.3-.6-.3-.2-.1-.5-.1-.7-.2-.2-.1-.5-.1-.7-.1-.3 0-.7 0-1 .1-.2.1-.4.1-.6.2-.2.1-.5.1-.6.3l-.3.3c-.1.2-.2.3-.3.5l-.3.6c-.1.2-.1.5-.1.7 0 .1.1.2.1.4.1.2.1.4.2.5.1.3.5.6.8.7.4-.1.8-.1 1.3 0 .2 0 .5-.1.7-.1.2 0 .5-.1.7-.2.5-.2 1.1-.4 1.6-.7.2-.1.5-.2.8-.3.2-.1.5-.2.7-.3.3-.2.6-.3.9-.4.1 0 .2-.1.3-.1.1 0 .2 0 .2-.1M2.7 76.2c.2 1.2.2 2.4.2 3.6v1.7h-.1m-1.4-1.7c0-.1.1-.1.2-.2.4-.3.9-.4 1.3-.6.3-.1.6-.3.9-.4.2-.1.5-.2.7-.3.3-.2.6-.5 1-.6m-.3-2.3v.5c0 .3-.1.5-.1.8v.8c0 .2-.1.5-.1.7v1.9m2-2.9h-.3c-.3.2-.4.5-.5.7-.1.2-.1.3-.1.5 0 .1 0 .6.1.6.1.1.5 0 .6-.1.1-.1.1-.3.2-.4 0-.1.1-.3.1-.5v-.4c0-.1 0-.2-.1-.4 0 .1 0 0 0 0-.1-.1 0-.2.1-.2.1-.2.2-.3.3-.5.1-.1.4-.3.6-.3.1.3 0 .6 0 .9 0 .5 0 1.1-.1 1.6-.1.3-.1.7-.1 1 0 .2-.1.6.1.7v-.1M8 77c.1-.1.3-.2.4-.3.1-.1.2-.2.3-.2.4.1.3.7.3 1 0 .3-.4.9-.7.8-.2-.1-.3-.2-.3-.4m2.3-2.5c-.1 0-.3.1-.4.2-.2.1-.2.2-.3.5 0 .2-.1.5 0 .7.1.2.3.3.5.4.2.1.2.1.3.3.1.2.1.3 0 .6-.1.4-.4.5-.8.5l.1-.1m.6-66.1c0 .2-.2.4-.3.6-.1.2-.3.5-.4.7-.1.1-.1.3-.2.5s-.2.4-.3.5c-.1.2-.2.3-.3.4-.1.2-.2.4-.3.5-.1.2-.3.5-.2.7.1.1.2.1.3.1.3 0 .6-.2.8-.3.3-.2.6-.3.8-.7.2-.2.3-.5.4-.7.2-.3.4-.5.5-.7.1-.1.2-.3.3-.4.1 0-.3.7-.3.8-.1.2-.1.3-.2.5s-.1.4-.2.5c-.1.3-.2.6-.2.9 0 .1 0 .3.1.4h.3c.2-.1.5-.1.7-.3.4-.2.7-.5.9-.8.4-.4.6-.9 1-1.3.2-.2.3-.4.6-.6.1-.1.2-.1.3-.2m.1 2.4c0-.1-.1-.2-.2-.3-.2-.2-.3-.1-.6-.1-.6.1-1.2.4-1.4 1 0 .1 0 .3.1.4.1.1.3 0 .5 0 .3-.1.6-.2.8-.4.3-.2.6-.4.8-.6.2-.1.2-.1.3-.2-.1.1-.3.1-.3.2l-.3.3c-.1.1-.1.2-.2.4s-.2.6 0 .7c.2 0 .3 0 .5-.1.2 0 .3-.1.5-.3.3-.3.7-.6.9-.9.2-.3.4-.5.6-.8.1-.1.2-.3.2-.5 0 .1-.1.1-.2.2-.2.3-.5.5-.8.8l-.9 1.2c-.1.2-.3.5-.4.7 0 .1 0 .2.1.3h.3c.3 0 .6-.1.8-.1.4-.1.8-.3 1.2-.5.3-.1.6-.3.8-.5 0-.1.1-.3.1-.3-.1-.2-.5-.1-.6-.1-.3.1-.5.3-.7.5-.1.2-.2.5-.2.7 0 .2.1.4.2.5.2.1.4.1.6.1.4 0 .6-.1.9-.4.1-.2.3-.3.4-.4.2-.2.5-.4.7-.6.1-.1.3-.3.5-.4 0 .1-.2.2-.3.3-.1 0-.3.2-.3.3.2.1.3 0 .5 0 .1 0 .2 0 .2.1s0 .3-.1.3c-.1.2-.4.4-.6.5-.1.1-.3.2-.4.3 0 .1.1.3.2.4.3.2.8.2 1.2.2.2 0 .4-.1.6-.2m-5.2-3.3l1.8.6M188 19.4c.3-.7.7-1.4 1-2.1 0-.1 0-.2.1-.3.1-.4.2-.7.4-1.1.1-.4.4-.6.5-1 0-.1.1-.3.1-.4 0 .2 0 .4-.1.6 0 .4 0 .7-.1 1.1V18.3l.5-.5c.1-.2.3-.3.4-.5.3-.4.5-.8.7-1.2.1-.3.3-.6.4-.8.1-.2.2-.4.2-.6v.6c0 .2-.1.5-.1.7-.1.5-.2 1.1-.2 1.7v.5c0 .1 0 .4.1.5.1.2.3-.1.4 0m1.7-2.2c0-.1-.1-.2-.1-.3-.1-.2-.3-.1-.5-.1-.3 0-.6.3-.7.6-.1.3-.3.7-.3 1 0 .1-.1.4.1.4.1.1.4 0 .5-.1.2-.1.4-.2.5-.4.2-.3.4-.5.5-.9 0-.1.1-.2.1-.3v-.2c0 .1 0 .1-.1.2-.1.3-.1.6-.2.9 0 .3-.1.5 0 .7.5 0 1-.4 1.3-.8.5-.7 1.1-1.5 1.2-2.4v-.5c0-.1 0-.3-.1-.4-.1-.1-.3 0-.3.1-.2.2-.4.4-.5.7-.3.7-.3 1.4-.3 2.2 0 .2.1.4.2.6.1.2.1.3.3.3.2 0 .5 0 .6-.2.1-.1.2-.3.3-.4.2-.3.3-.5.5-.8.1-.2.2-.3.3-.5.1-.3.1-.6.2-.9.1-.3.1-.5.2-.8-.1.3-.3.7-.4 1-.3.6-.4 1.3-.4 1.9 0 .2 0 .6.3.8h.2c.1 0 .2.1.3.1.2 0 .3-.1.5-.1 0 0 0-.1-.1-.1m.3-2.4c-.1.1-1.2.2-1.2.2.4 0-1 .1-1.1.1m3.7 66.8c-.2.3-.5.5-.8.7-.3.2-.7.4-1 .6-.2.2-.4.5-.6.7-.2.1-.4.3-.4.5v.3c0 .2.1.2.2.3.3.2.6.2.9.2 0 0 .5.1.4-.1m-6.2-7.6c-.1 0-.1 0-.1.1-.2.2-.4.4-.7.6-.4.3-.8.6-1.2.8-.4.2-.8.4-1.1.8-.1.1-.1.2-.2.3v.2c.1.1.1.1.3 0 .3 0 .6 0 .9-.1.5-.1.9-.3 1.4-.4.6-.2 1.2-.2 1.8-.4.2-.1.3-.1.5-.2 0 0-.5.3-.3.2-.6.4-1.3.6-2 1-.5.3-.9.8-1.3 1.1-.3.2-.6.5-.9.7-.3.2-.7.4-1.1.4-.1 0-.2 0-.2-.1m4.1-1.4c0 .1.2.1.3.1.3 0 .7.1 1 0 .2-.1.3-.2.4-.4 0-.1.2-.2 0-.3-.1-.1-.5 0-.6 0-.3 0-.4.1-.7.4-.3.3-.7.7-.6 1.2.2.8 1.4 0 1.8-.2.4-.2 1-.2 1.4-.2.2 0 .7.1.7.4-.3-.2-.8-.3-1.2-.3-.4.1-.9.4-1 .7-.2.4.2.4.5.3.7-.1 1.1-.7 1.7-.9l-.4.4c-.2.2-.4.3-.5.6 0 .1-.1.3-.1.4.1.4.8 0 .9-.1.3-.2.5-.4.8-.5.2-.1.6-.2.8-.1.1 0 .2.1.2.2 0-.1-.2-.1-.3-.1-.2-.1-.5-.1-.7-.1-.1 0-.3.2-.4.3-.1.2-.1.6-.1.8 0 .2 0 .4-.1.6-.1.2-.4.2-.6.2-.2-.1-.3-.2-.4-.4 0 0 0-.2-.1-.2m3-1.5c.6.4 1.2.7 1.8.9"/></svg>