<svg xmlns="http://www.w3.org/2000/svg" width="285.003" height="154.254" viewBox="0 0 285.003 154.254"><path fill="#FFF" stroke="#000" stroke-miterlimit="10" d="M0 0h285.003v154.254H0z"/><path fill="none" stroke="#09875D" stroke-width="5" stroke-miterlimit="10" d="M7.729 4.9l.138 144.657M280.408 6.467L8.203 7.385M280.451 146.348l-271.414.687"/><g fill="#0D8256"><path d="M21.973 16.655h10.062c2.437 0 4.752.271 6.944.817 2.193.545 4.106 1.426 5.74 2.645 1.634 1.219 2.931 2.802 3.892 4.751.961 1.95 1.44 4.315 1.44 7.095 0 2.466-.466 4.638-1.397 6.516-.932 1.877-2.186 3.455-3.762 4.729-1.576 1.276-3.396 2.244-5.461 2.903-2.064.66-4.229.988-6.492.988H21.973V16.655zm6.708 24.252h3.482c1.549 0 2.988-.157 4.322-.474 1.332-.314 2.486-.838 3.461-1.568.974-.731 1.741-1.691 2.301-2.881.559-1.189.838-2.644.838-4.364 0-1.49-.279-2.788-.838-3.892a7.79 7.79 0 0 0-2.258-2.73c-.947-.716-2.058-1.254-3.334-1.612a14.805 14.805 0 0 0-4.021-.538h-3.956v18.059h.003zM54.523 16.655h6.709V47.1h-6.709V16.655zM67.337 16.655H77.4c2.436 0 4.75.271 6.943.817 2.193.545 4.105 1.426 5.74 2.645 1.634 1.219 2.931 2.802 3.892 4.751.96 1.95 1.44 4.315 1.44 7.095 0 2.466-.467 4.638-1.397 6.516-.932 1.877-2.187 3.455-3.762 4.729-1.577 1.276-3.397 2.244-5.461 2.903-2.063.66-4.229.988-6.493.988H67.337V16.655zm6.708 24.252h3.483c1.547 0 2.987-.157 4.32-.474 1.333-.314 2.487-.838 3.461-1.568.975-.731 1.742-1.691 2.301-2.881.56-1.189.838-2.644.838-4.364 0-1.49-.278-2.788-.838-3.892a7.78 7.78 0 0 0-2.258-2.73c-.945-.716-2.057-1.254-3.333-1.612a14.816 14.816 0 0 0-4.021-.538h-3.957v18.059h.004zM115.023 24.094c-.545-.688-1.283-1.197-2.214-1.527-.933-.329-1.813-.494-2.646-.494-.487 0-.988.058-1.504.172a5.767 5.767 0 0 0-1.463.538 3.189 3.189 0 0 0-1.117.967c-.287.402-.43.889-.43 1.462 0 .918.344 1.62 1.031 2.107.688.488 1.555.903 2.602 1.247 1.045.344 2.172.688 3.375 1.032a13.96 13.96 0 0 1 3.375 1.462 7.996 7.996 0 0 1 2.602 2.537c.688 1.061 1.031 2.48 1.031 4.256 0 1.692-.315 3.168-.945 4.43a8.983 8.983 0 0 1-2.559 3.139c-1.075.832-2.322 1.448-3.741 1.85a16.49 16.49 0 0 1-4.494.602c-1.978 0-3.813-.301-5.504-.902-1.692-.603-3.269-1.576-4.729-2.925l4.772-5.246a6.955 6.955 0 0 0 2.603 2.128 7.411 7.411 0 0 0 3.246.752c.545 0 1.098-.063 1.655-.193.56-.129 1.062-.322 1.505-.58s.803-.588 1.075-.989.409-.874.409-1.419c0-.917-.352-1.641-1.055-2.171s-1.584-.981-2.645-1.354a84.377 84.377 0 0 0-3.439-1.118 15.382 15.382 0 0 1-3.44-1.505 8.291 8.291 0 0 1-2.646-2.494c-.703-1.032-1.053-2.393-1.053-4.085 0-1.634.322-3.067.967-4.3a9.354 9.354 0 0 1 2.58-3.096c1.075-.831 2.314-1.455 3.721-1.871a15.236 15.236 0 0 1 4.342-.623c1.721 0 3.383.244 4.988.731a11.536 11.536 0 0 1 4.344 2.451l-4.599 5.029zM124.656 16.655h11.352c1.318 0 2.645.093 3.977.279 1.334.187 2.53.559 3.592 1.118a6.887 6.887 0 0 1 2.58 2.343c.658 1.004.988 2.337.988 3.999 0 1.72-.48 3.146-1.439 4.279-.961 1.133-2.229 1.942-3.807 2.429v.086c1.004.144 1.914.423 2.73.839s1.52.946 2.107 1.591a6.795 6.795 0 0 1 1.354 2.257c.314.859.473 1.777.473 2.752 0 1.605-.344 2.946-1.031 4.021a8.154 8.154 0 0 1-2.666 2.602c-1.09.66-2.315 1.133-3.678 1.419a19.649 19.649 0 0 1-4.062.431h-12.471l.001-30.445zm6.707 12.169h4.859c.516 0 1.023-.057 1.525-.172a4.198 4.198 0 0 0 1.354-.559c.401-.258.724-.602.968-1.032.243-.43.365-.946.365-1.548 0-.63-.136-1.154-.408-1.569a2.853 2.853 0 0 0-1.054-.968 5.067 5.067 0 0 0-1.462-.495 8.808 8.808 0 0 0-1.592-.15h-4.557v6.493h.002zm0 12.599h6.021c.517 0 1.039-.057 1.569-.172a4.112 4.112 0 0 0 1.439-.603c.43-.285.781-.658 1.055-1.117.271-.458.407-1.018.407-1.678 0-.715-.179-1.295-.538-1.74a3.412 3.412 0 0 0-1.354-1.011c-.545-.229-1.133-.387-1.764-.473s-1.219-.129-1.763-.129h-5.073v6.923h.001zM178.189 35.36c0 1.806-.273 3.469-.816 4.988a10.966 10.966 0 0 1-2.43 3.957c-1.076 1.117-2.416 1.992-4.021 2.622s-3.455.946-5.547.946c-2.122 0-3.985-.316-5.59-.946-1.605-.63-2.945-1.505-4.021-2.622a10.995 10.995 0 0 1-2.429-3.957c-.546-1.519-.817-3.182-.817-4.988V16.655h6.708v18.447c0 .946.15 1.821.451 2.623.301.803.724 1.5 1.269 2.086a5.732 5.732 0 0 0 1.957 1.375c.76.33 1.584.496 2.474.496.888 0 1.704-.166 2.45-.496a5.786 5.786 0 0 0 1.936-1.375 6.283 6.283 0 0 0 1.27-2.086c.301-.802.451-1.677.451-2.623V16.655h6.709l-.004 18.705zM184.381 16.655h11.782c1.548 0 3.017.15 4.408.451 1.39.301 2.607.803 3.654 1.505 1.046.703 1.877 1.648 2.494 2.838.615 1.19.924 2.673.924 4.45 0 2.15-.559 3.978-1.677 5.483-1.118 1.505-2.752 2.458-4.901 2.859l7.739 12.856h-8.041L194.4 34.929h-3.311v12.168h-6.708V16.655zm6.708 12.598h3.956c.602 0 1.239-.021 1.913-.064s1.283-.172 1.828-.387a3.154 3.154 0 0 0 1.354-1.011c.358-.458.538-1.103.538-1.935 0-.774-.158-1.39-.473-1.849A3.166 3.166 0 0 0 199 22.953c-.487-.243-1.045-.409-1.676-.495s-1.248-.129-1.85-.129h-4.386l.001 6.924zM218.953 34.113l-11.438-17.458h8.342l6.45 11.395 6.837-11.395h7.955l-11.438 17.458V47.1h-6.709V34.113h.001zM21.973 61.655h11.353c1.317 0 2.644.093 3.977.278 1.333.188 2.529.56 3.591 1.118a6.896 6.896 0 0 1 2.58 2.343c.659 1.004.989 2.338.989 4 0 1.72-.48 3.146-1.439 4.278-.962 1.134-2.23 1.942-3.807 2.429v.086c1.003.145 1.914.424 2.73.84s1.519.945 2.106 1.591a6.789 6.789 0 0 1 1.354 2.257c.314.859.473 1.777.473 2.752 0 1.605-.344 2.946-1.032 4.021a8.154 8.154 0 0 1-2.666 2.602c-1.09.66-2.315 1.133-3.677 1.419a19.663 19.663 0 0 1-4.062.431H21.972l.001-30.445zm6.708 12.169h4.859c.516 0 1.023-.057 1.525-.172a4.177 4.177 0 0 0 1.354-.56c.401-.258.724-.602.968-1.032.243-.43.365-.945.365-1.547 0-.631-.137-1.154-.409-1.57a2.851 2.851 0 0 0-1.054-.967 5.062 5.062 0 0 0-1.461-.496 8.805 8.805 0 0 0-1.592-.149H28.68l.001 6.493zm0 12.599h6.02c.517 0 1.039-.057 1.569-.172a4.109 4.109 0 0 0 1.44-.603c.43-.285.781-.658 1.054-1.117.272-.458.408-1.018.408-1.678 0-.715-.179-1.295-.538-1.74a3.43 3.43 0 0 0-1.354-1.012c-.545-.229-1.133-.387-1.764-.473s-1.218-.128-1.762-.128H28.68l.001 6.923zM50.095 61.655h20.684v6.192H56.803v5.676h13.201v6.191H56.803v6.192h14.749V92.1H50.095V61.655zM77.184 61.655h20.683v6.192H83.892v5.676h13.201v6.191H83.892v6.192h14.749V92.1H77.184V61.655zM104.015 61.655h11.782c1.548 0 3.017.149 4.407.45 1.391.302 2.608.804 3.656 1.506 1.045.703 1.877 1.647 2.493 2.838.616 1.189.925 2.673.925 4.449 0 2.15-.56 3.979-1.678 5.483-1.117 1.505-2.752 2.458-4.902 2.859l7.74 12.856h-8.041l-6.363-12.168h-3.312v12.168h-6.708V61.655zm6.708 12.598h3.956c.602 0 1.24-.021 1.914-.063a5.974 5.974 0 0 0 1.828-.388 3.16 3.16 0 0 0 1.354-1.011c.358-.458.538-1.104.538-1.936 0-.773-.157-1.39-.473-1.849a3.17 3.17 0 0 0-1.204-1.054 5.36 5.36 0 0 0-1.678-.495 13.668 13.668 0 0 0-1.848-.129h-4.387v6.925zM22.231 106.654h20.424v6.191H28.939v6.191h12.686v6.189H28.939v11.869h-6.708v-30.44zM47.729 106.654h20.683v6.191H54.437v5.676h13.201v6.191H54.437v6.191h14.749v6.191H47.729v-30.44zM89.611 114.094c-.545-.688-1.283-1.197-2.213-1.527-.933-.326-1.814-.492-2.646-.492-.488 0-.989.059-1.506.172a5.701 5.701 0 0 0-1.461.538 3.148 3.148 0 0 0-1.119.968c-.286.4-.43.891-.43 1.461 0 .918.344 1.621 1.032 2.105.688.488 1.556.904 2.601 1.248 1.047.346 2.172.688 3.375 1.031 1.205.344 2.33.832 3.377 1.463a8.043 8.043 0 0 1 2.601 2.537c.688 1.062 1.032 2.479 1.032 4.256 0 1.691-.316 3.168-.946 4.432a8.973 8.973 0 0 1-2.56 3.139c-1.074.832-2.321 1.447-3.74 1.85a16.451 16.451 0 0 1-4.494.604c-1.979 0-3.812-.301-5.504-.902-1.691-.604-3.268-1.576-4.73-2.926l4.773-5.244a6.957 6.957 0 0 0 2.602 2.127 7.429 7.429 0 0 0 3.248.754c.543 0 1.096-.063 1.654-.192a5.451 5.451 0 0 0 1.505-.581c.444-.26.802-.587 1.075-.988.273-.4.409-.875.409-1.42 0-.916-.353-1.642-1.054-2.171-.703-.53-1.584-.979-2.646-1.354a82.863 82.863 0 0 0-3.44-1.119c-1.232-.37-2.379-.873-3.439-1.504s-1.941-1.463-2.645-2.494c-.703-1.03-1.054-2.394-1.054-4.086 0-1.633.322-3.065.968-4.299a9.334 9.334 0 0 1 2.58-3.097c1.074-.832 2.313-1.455 3.719-1.871a15.25 15.25 0 0 1 4.344-.622c1.72 0 3.382.243 4.988.729a11.519 11.519 0 0 1 4.342 2.45l-4.598 5.025zM105.133 112.589h-8.687v-5.935h24.08v5.935h-8.686V137.1h-6.708v-24.511zM123.838 106.654h6.708v30.443h-6.708v-30.443zM133.641 106.654h7.654l7.524 19.951h.086l7.654-19.951h7.182l-12.557 30.443h-5.375l-12.168-30.443zM174.277 106.654h5.547l13.244 30.443H185.5l-2.623-6.449h-11.824l-2.537 6.449h-7.396l13.157-30.443zm2.58 8.86l-3.699 9.459h7.439l-3.74-9.459zM196.378 106.654h6.708v24.252h12.427v6.191h-19.135v-30.443z"/></g><path fill="none" stroke="#09875D" stroke-width="5" stroke-miterlimit="10" d="M247.412 3.979l.138 144.859M277.947 6.467v139.881"/><path fill="none" d="M247.48 14.155h30.486v18.5H247.48z"/><text transform="translate(255.62 32.299)" fill="#0D8256" font-family="'Avenir-Black'" font-size="24">2</text><path fill="none" d="M247.514 50.527h30.487v18.5h-30.487z"/><text transform="translate(255.654 68.672)" fill="#0D8256" font-family="'Avenir-Black'" font-size="24">0</text><path fill="none" d="M247.514 85.527h30.487v18.5h-30.487z"/><text transform="translate(255.654 103.672)" fill="#0D8256" font-family="'Avenir-Black'" font-size="24">1</text><path fill="none" d="M247.514 119.777h30.487v18.5h-30.487z"/><text transform="translate(255.654 137.922)" fill="#0D8256" font-family="'Avenir-Black'" font-size="24">8</text><path fill="none" stroke="#09875D" stroke-width="5" stroke-miterlimit="10" d="M247.846 41.557h29.666M247.925 77.336h29.667M247.925 111.496h29.667"/></svg>