<svg id="Layer_1" xmlns="http://www.w3.org/2000/svg" viewBox="0 0 640 480"><style>.st0{fill:#0d8256}</style><path class="st0" d="M334.3 226.5h-10v8.6h10.3c3.8 0 6.1-1.4 6.1-4.3v-.1c0-2.6-2-4.2-6.4-4.2M337.3 297.1l.2-.2s0-.1.1-.1c.8-1.1.9-1.9.6-2.4-.6-.7-2.1-.7-3.5.1-2.5 1.3-4.3 4-4.9 6-.1 0 4.8-.2 7.5-3.4 0 .1 0 .1 0 0M266 299.8l.4-.2c.6-.2 1.1-.5 1.6-.8 1.4-.8 3-2.2 2.7-4 0 0-.3-1.2-2.4-.1-.4.2-.8.5-1.3.9-.2.1-.4.3-.6.4l-.3.3v.1c-1.3 1.2-2.3 2.6-3.4 4.2 1.1-.2 2.3-.4 3.3-.8zM250.1 300.3s.1 0 .2-.1c.9-.2 1.7-.5 2.4-.8 2-.9 4.3-2.4 3.6-4.7 0 0-.4-.9-2.3.1h-.1c-.1 0-.1.1-.2.1-.4.2-.8.5-1.3.8-.1.1-.2.1-.3.2l-.1.1v.1c-1.4 1.2-2.6 2.7-3.6 4.5.6-.1 1.2-.2 1.7-.3zM338.6 306.9c.9 1.4 2.9 1.6 5 .3 2.5-1.6 3.5-6 2-8.3-2.4 2.7-4.7 5.3-7 8M237.4 234.9h6.7c7.1 0 11.8-4.8 11.8-11.7v-.1c0-7-4.8-11.8-11.8-11.8h-6.7v23.6zM368 294h-.4c-1.5.1-2.8.1-4.1.3-.5.1-1.2.5-1.5.9-1.4 2.3-2.7 4.6-4 7-.7 1.2-1.3 2.4-1.8 3.6-.5 1.4.1 2.1 1.5 1.7.9-.3 1.8-.8 2.7-1.3v.1s.3-.2.7-.5l.1-.1c1.2-.9 3.5-3.1 5.6-7.2 0-.1 2-4.2 1.2-4.5M262.7 154.6c1.2 0 2.1-.3 2.8-1.1v-18.4c-.4-1-1-1.3-1.8-1.4-1.3-.3-3.6 0-4.6 2.4-1.6 3.9-1.2 11.3-.6 14.3.5 2.5 2.5 4.1 4.2 4.2M423.9 211.2h-8.6v11.3h8.8c4.2 0 6.6-2.2 6.6-5.6v-.1c0-3.7-2.6-5.6-6.8-5.6M379.2 154.6c1.7-.1 3.8-1.7 4.3-4.3.6-3 1-10.4-.6-14.3-1-2.4-3.3-2.7-4.6-2.4-.8.2-1.4.5-1.8 1.4v18.4c.6.9 1.5 1.3 2.7 1.2M405.2 294.6c-.4-.4-1.3-.7-1.9-.6-.7.1-1.5.5-2.1 1-2.6 2-4.6 4.6-5.9 7.7-.1.2-.2.5-.3.7 0 0-1.6 3.8 1.4 3.8h.2c.5 0 2.5-.3 4.1-2.5 0-.1.1-.1.1-.1l.1-.1s0-.1.1-.1c1.7-2.5 3.2-5.1 4.6-7.8.1-.5-.1-1.6-.4-2M433.8 277.8c-.1.1-.2.1-.3.2-.8.7-1.4 1.4-1.4 1.4-1.3 1.4-2.5 2.9-3.6 4.5-2.1 2.8-3.4 5-4 6.1-.4.6-.5 1-.5 1 .3-.2.6-.3.9-.5 6.4-3.2 8.5-6.4 9.4-7.4.9-1.1 3.1-5 1.7-5.9-.7-.3-1.5.1-2.2.6M173.5 211.2h-6.7v23.7h6.7c7.1 0 11.8-4.8 11.8-11.7v-.1c0-7-4.7-11.9-11.8-11.9M338.5 215.1v-.1c0-2.6-2-4-5.7-4h-8.5v8.3h8c3.8 0 6.2-1.2 6.2-4.2M137.8 313.2c4.7-3.6 15.8-12.1 15.5-24.8 0-.5 1-11.7-10.9-13.4 0 0-1-.2-2.2-.2-3.3 0-7.4 1.2-8.2 7 0 .1-1 4.2.8 6.4.7.9 1.9 1.4 3.3 1.4.5 0 1 0 1.6-.1.3-.7 1.4-2.4 3.4-2.4 1.1 0 2.2.5 3.4 1.5 1.7 1.4 2 4.6.7 8-1.8 5-7.1 10.9-15.9 10.9-.5 0-1 0-1.5-.1-10-.7-14.2-5.4-15.8-8.1-1.4-2.4-1.8-5-1.1-6.7 0-.1.9-3 4.8-3.4 2.2-.3 3.7-.9 4.5-2 .7-1 1-2.3.8-4-.6-4.4-1.9-6.4-7.9-6.4-5.6 0-9.5 5.3-9.6 12.9-.1 8.1 3.7 12.7 4.9 14 .1.1 1.7 2.1 1.2 4-.2 1-.9 1.8-2.1 2.4-.7.4-1.5.5-2.4.5-3.7 0-8.6-3.5-10.8-10.2-.4-1.2-.7-2.5-1-3.7-1.6-6.5-3.2-12.6-15.5-17.2-.4 2.5-1.6 12.4 3.3 16.1.1.1 2.4 2.4 2.1 4.9-.2 1.3-1 2.4-2.5 3.3-.1 0-1 .5-2.3.5-1.9 0-4.6-.8-7.2-4.6-.1-.1-2.9-3.2-2.9-11.6v-1.2c0-8.1.1-17.3-16-19.1-.5 1.1-2.1 5.1-1.5 9.9l.3 2.5-1.3-2.2c-.1-.1-8.1-13.8-19.1-20.2-3.7-2.1-7.7-3.3-11.4-3.3-6.8 0-11.9 3.5-13.9 9.4.4 0 .9-.1 1.6-.1 4.7 0 16.5 1.3 24.4 13.3.1.2 11 17.5 23.7 28.2.2.2 17.1 16.8 41.5 16.8 2.1 0 4.2-.1 6.2-.3 0 0 .8-.1 1.7-.1 2.6 0 4.2.9 4.7 2.6.3.5 1.1 2.8-3.8 6.8-.1.1-9.9 8.9-9.3 18.1.3 4.2 2.7 7.9 7.3 11 .3.2 1 .7 1.7.7.2 0 .4-.1.6-.2.6-.4.3-2.2 0-3.3-.1-.4-1.8-8.5 1.9-16 .1-.2 2.5-4.8 11.7-12 .1-.1 13.9-12.6 17.9-15.8l.6-.4z"/><path class="st0" d="M129.9 300.5c.2 0 6-.3 8.5-4.4-.5.1-1 .1-1.6.1-2.6 0-5.1-.9-7.6-2.8-1.2-.8-2.1-2-2.7-3.3-1.1 1.7-3.5 4.2-8.2 5.3 1 2 3.8 5.1 11.6 5.1M94.1 232.9h.5c25.4 0 26.6-25.2 26.6-25.5.6-7.3-2.5-15.7-8.2-21.9-4.5-4.9-12.6-10.8-25.8-10.8H87c-5.9 0-11.4 1.3-16.3 3.7l-.4.2c-2.3 1.2-4.6 2.7-6.6 4.4-7.4 5.8-19.7 18.5-19.7 39.2 0 .2-1.1 19.8 11.9 39.5.5 0 1.5-.1 2.9-.1 2.8 0 6.8.3 10.6 1.6-2.6-4.5-11.2-20.3-11.2-34.7v-.2c.2-12.9 8-18.3 12.1-18.3H71.5c4 0 4.5-3.1 4.6-3.2.8-4.9-3.2-5.7-3.4-5.7-.7-.1-1.4-.2-2-.2-7.3 0-13 8.3-13.1 8.4l-.7 1.1-.2-1.3c-.7-4.6.8-9.7 4.1-14 4.1-5.4 10.6-9.1 17.8-10 1.3-.2 2.6-.3 3.8-.3 6.8 0 10.2 2.6 11.8 4.7 2.1 2.7 2.7 6.4 1.7 10.1-.7 2.9-.7 5.1.2 6.6.7 1.2 1.8 1.4 1.8 1.4h.1c1.1.5 2.1.7 3 .7 4.6 0 6.6-5.4 6.6-5.5l1.3-3.7-.4 3.9c-.8 8.7-7 10.9-9.3 11.7h-.1c-.5.2-1.1.3-1.8.3-2.6 0-6.1-1.5-7.1-5.8-.5-2-2.5-3.5-4.6-3.5-1.2 0-2.2.5-3.1 1.4-1.2 1.3-2.6 4-2.4 9.8 1 14.8 13.5 16 14 16"/><path class="st0" d="M90.1 200.6c.1-.9.3-2 .5-3.4.3-1.8 0-3.3-.9-4.3-1.8-2.1-5.5-2.2-6.7-2.2h-.6c-5.9.2-10.1 2.1-12.9 4.1h.8c1.4 0 2.9.2 4.4.7 4.3 1.3 6.2 3.7 7 5.7 1.4-.8 3-1.2 4.6-1.2 1.5-.1 2.8.2 3.8.6M511.2 293.5c-2.5 1.8-5.1 2.8-7.6 2.8-.6 0-1.1 0-1.6-.1 2.4 4.1 8.2 4.4 8.5 4.4 7.8 0 10.7-3 11.7-5-4.7-1.1-7.1-3.6-8.2-5.3-.8 1.2-1.7 2.3-2.8 3.2"/><path class="st0" d="M621.1 254.6c-3.8 0-7.8 1.1-11.4 3.3-11 6.4-19.1 20.1-19.2 20.2l-1.3 2.2.3-2.5c.6-4.9-1-8.8-1.5-9.9-16.1 1.7-16 10.9-16 19.1v1.2c0 8.4-2.8 11.5-2.9 11.6-2.6 3.8-5.4 4.6-7.2 4.6-1.3 0-2.2-.4-2.3-.5-1.5-.9-2.3-2-2.5-3.3-.3-2.5 1.9-4.8 2.1-4.9 4.9-3.7 3.7-13.5 3.3-16.1-12.3 4.6-13.8 10.7-15.5 17.2-.3 1.2-.6 2.4-1 3.7-2.1 6.7-7 10.2-10.7 10.2-.9 0-1.7-.2-2.4-.5-1.2-.6-1.9-1.4-2.1-2.4-.4-2 1.1-3.9 1.2-4 1.2-1.2 5-5.8 4.9-14-.1-7.6-4-12.9-9.6-12.9-6 0-7.3 2.1-7.9 6.4-.2 1.7 0 3.1.8 4 .8 1.1 2.3 1.7 4.5 2 3.9.5 4.8 3.4 4.8 3.4.8 1.7.4 4.3-1.1 6.7-1.6 2.7-5.8 7.3-15.8 8.1-.5 0-1 .1-1.5.1-8.8 0-14.1-5.9-15.9-10.9-1.3-3.4-1-6.5.7-8 1.2-1 2.3-1.5 3.4-1.5 2 0 3.1 1.7 3.4 2.4.6.1 1.1.1 1.6.1 1.5 0 2.6-.5 3.3-1.4 1.7-2.2.8-6.3.8-6.4-.8-5.8-4.9-7-8.2-7-1.3 0-2.2.2-2.2.2-12 1.7-11 12.8-10.9 13.4-.3 12.7 10.7 21.2 15.5 24.8l.7.6c4 3.1 17.8 15.6 17.9 15.8 9.2 7.2 11.6 11.8 11.7 12 3.7 7.5 2 15.6 1.9 16-.4 1.1-.6 2.9 0 3.3.2.1.3.2.6.2.7 0 1.4-.5 1.7-.7 4.5-3.1 7-6.8 7.3-11 .6-9.2-9.2-18-9.3-18.1-4.9-4-4.1-6.3-3.8-6.8.5-1.7 2.1-2.6 4.7-2.6 1 0 1.7.1 1.7.1 2.1.2 4.2.3 6.2.3 24.4 0 41.3-16.5 41.5-16.8 12.7-10.7 23.6-28 23.7-28.2 7.9-12 19.7-13.3 24.4-13.3.6 0 1.2 0 1.6.1-2.1-6.1-7.3-9.6-14-9.6M570.8 194.8c-2.8-2-6.9-3.9-12.9-4.1h-.6c-1.1 0-4.9.2-6.6 2.2-.9 1-1.2 2.5-.9 4.3.3 1.4.4 2.5.5 3.4 1.1-.4 2.3-.7 3.7-.7 1.7 0 3.2.4 4.6 1.2.9-2 2.8-4.4 7-5.7 1.5-.4 2.9-.7 4.4-.7.2 0 .5 0 .8.1"/><path class="st0" d="M576.7 183.1c-2.1-1.7-4.3-3.2-6.6-4.4l-.4-.2c-4.9-2.4-10.4-3.7-16.4-3.7h-.2c-13.2 0-21.3 5.9-25.8 10.8-5.7 6.2-8.8 14.6-8.2 21.9 0 .3 1.3 25.5 26.6 25.5h.5c.5 0 13-1.2 13.7-15.8.3-5.8-1.1-8.6-2.3-9.8-.9-.9-1.9-1.4-3.1-1.4-2.1 0-4.1 1.5-4.5 3.5-1 4.3-4.5 5.8-7.1 5.8-.6 0-1.3-.1-1.8-.3h-.1c-2.3-.8-8.5-3-9.3-11.7l-.3-3.9 1.3 3.7c0 .1 2 5.5 6.6 5.5 1 0 2-.2 3-.7h.2s1.1-.2 1.8-1.4c.9-1.4 1-3.7.2-6.6-1-3.8-.3-7.5 1.7-10.1 1.7-2.1 5.1-4.7 11.8-4.7 1.2 0 2.5.1 3.8.3 7.2.9 13.7 4.5 17.8 10 3.3 4.3 4.8 9.4 4.1 14l-.2 1.3-.8-1.1c0-.1-5.8-8.4-13.1-8.4-.7 0-1.4.1-2 .2-.2 0-4.2.9-3.4 5.7 0 .1.6 3.2 4.6 3.2.3 0 .5 0 .8-.1h.4c4.1 0 11.9 5.4 12.1 18.3v.2c-.1 14.4-8.6 30.2-11.2 34.7 3.8-1.3 7.8-1.6 10.6-1.6 1.4 0 2.4.1 2.9.1 13-19.7 11.9-39.2 11.9-39.5.1-20.8-12.3-33.6-19.6-39.3M308.7 338.1c-3.3 0-3.4 4.1-3.4 6.5 0 2.3.1 6.5 3.4 6.5s3.4-4.1 3.4-6.5c0-2.3-.2-6.5-3.4-6.5"/><path class="st0" d="M580 151.3c-.8-.7-21.2-17.8-63.5-35-38.9-15.8-104.6-34.7-196.3-34.7-91.8 0-157.4 18.9-196.4 34.7-42.4 17.2-62.7 34.3-63.5 35l-1.1.9v26.3l5.1-4c7.3-5.8 16-8.8 25.2-8.8 12.5 0 24 5.6 31.8 15.3 6.7 8.5 9.7 19.1 8.5 29.8-1.2 10.8-6.6 20.4-15.1 27.1L112 240l2.4 2.5c.1.1 8.2 8.6 14.2 23.3l1.2 2.8 2.9-1.1s3.3-1.2 7.7-1.2c7.6 0 14 3.2 19 9.6 4.8 6.2 5.3 14.4 1.3 24.4-3.5 8.8-9.9 17.1-14.6 22-9.8 10-21.8 19.1-21.9 19.2l-1.2.9v30.2l2.3.6c.9.2 94 24.1 195 24.1s194.1-23.9 195-24.1l2.3-.6v-30.2l-1.3-.9c-.1-.1-12.2-9.3-21.9-19.2-4.8-4.9-11.1-13.2-14.6-22-4-10-3.5-18.2 1.3-24.4 5-6.4 11.4-9.6 19-9.6 4.5 0 7.7 1.2 7.7 1.2l2.9 1.1 1.2-2.8c6-14.7 14.1-23.2 14.2-23.3l2.4-2.5-2.7-2.1c-17.5-13.9-20.5-39.5-6.6-57 7.7-9.7 19.3-15.3 31.8-15.3 9.2 0 18 3 25.2 8.8l5.1 4v-26.3l-1.3-.8zm-225.2-27.6c4.1-.3 15.7-.6 19.3-.3 1.5.1 1.8.6 1.9 1.4v3.9c.4.7.9 1.2 2 1.3 1.4.1 6.3.5 7.5 5 1.3 4.4 1 14.3.5 16.9-.5 2.4-2.3 6-7.2 6.1-1.6 0-2.4.4-2.8 1.4v2.6c-.1 2-1.2 3.2-3.6 3.8-2.4.7-14.6.3-16.5-.3-1.9-.6-3.1-1.3-3-3.5.1-2.2-.3-34.2-.3-37 .1-.7.7-1.1 2.2-1.3m-48.7-12.1s.1-2.4 14.1-2.4h1c14 0 14.1 2.4 14.1 2.4s3.3 8.8 0 24.1c-3.3 15.4-3.6 16.2-3.6 28.5v2.5s-.6 5-10.5 5h-1c-9.9 0-10.5-5-10.5-5v-2.5c0-12.4-.3-13.1-3.6-28.5-3.3-15.4 0-24.1 0-24.1m-50.4 23.5c1.3-4.5 6.1-4.9 7.5-5 1.1 0 1.6-.6 2-1.3v-3.9c.1-.8.4-1.3 1.9-1.4 3.7-.3 15.2-.1 19.3.3 1.5.1 2.1.6 2.1 1.4 0 2.8-.4 34.8-.3 37 .1 2.2-1 3-3 3.5-1.9.6-14.1 1-16.5.3-2.4-.7-3.5-1.8-3.6-3.8v-2.6c-.4-1-1.3-1.4-2.8-1.4-4.8-.1-6.7-3.7-7.2-6.1-.5-2.7-.7-12.5.6-17m-75.8 50.6h281.6c.9 0 1.7.8 1.7 1.7 0 .9-.8 1.7-1.7 1.7H179.9c-.9 0-1.7-.8-1.7-1.7 0-1 .8-1.7 1.7-1.7m260.4 57h-10.1l-8.4-12.6H415v12.6h-8.6v-39.3h18c5 0 8.9 1.4 11.5 4 2.2 2.2 3.4 5.3 3.4 9v.1c0 6.3-3.4 10.3-8.4 12.2l9.4 14zm-63.8-7.4c5.3 0 8.5-3.2 8.5-9.4v-22.5h8.6v22.2c0 11.9-6.7 17.7-17.2 17.7s-17-5.9-17-17.5v-22.4h8.6v22.2c0 6.4 3.2 9.7 8.5 9.7m-27.6-3.5v.1c0 7.2-5.8 10.8-14.7 10.8h-18.7v-39.3h18.2c4.5 0 8 1.2 10.3 3.5 1.8 1.8 2.7 4 2.7 6.7v.1c0 4.4-2.4 6.9-5.2 8.5 4.6 1.7 7.4 4.3 7.4 9.6m-61.3-5c-7.9-2-13-4.2-13-12v-.1c0-7.1 5.7-11.8 13.8-11.8 5.7 0 10.6 1.8 14.6 5l-4.5 6.5c-3.5-2.4-6.9-3.9-10.2-3.9-3.3 0-5 1.5-5 3.4v.1c0 2.6 1.7 3.4 8.5 5.2 8 2.1 12.5 5 12.5 11.8v.1c0 7.8-5.9 12.2-14.4 12.2-5.9 0-11.9-2.1-16.7-6.3l5.1-6.1c3.5 2.9 7.2 4.8 11.7 4.8 3.5 0 5.7-1.4 5.7-3.7v-.1c-.2-2.3-1.5-3.4-8.1-5.1m-23-3.9v.1c0 11.1-8.5 19.6-20.9 19.6h-15.3v-39.3h15.3c12.4.1 20.9 8.6 20.9 19.6m-49.9 19.8H206v-39.3h8.6v39.3zm-56.9 0v-39.3h15.3c12.4 0 20.9 8.5 20.9 19.5v.1c0 11.1-8.5 19.6-20.9 19.6l-15.3.1zm55.5 71.5c-.9.2-1.7.2-2.5.2-1.7 0-5.7-.7-5.7-4.4 0-2.5 1.5-3.4 2.6-3.7.1 0 .2 0 .3-.1.1 0 .2 0 .3-.1h.5c1.4-.1 2.6.8 2.7 2.1.2 1.3-.6 2-2.2 2.3-.3 0-.7 0-.9-.3 0 0-.1-.2-.5.1-.1.1.5.7.5.7.1.1.2.1.3.2.9.6 2.3.6 2.8.6h.2c2.7-.2 4.9-1.5 6.3-3.8 2.1-3.6 3.9-7.4 5.7-11.2 1.7-3.7 3.7-7.1 7-9.6 1.3-1 2.8-1.7 4.4-2.1 0 0 .1 0 .4-.1h.1c.4-.1 1-.1 1.6-.1h.2c.4 0 .9.1 1.2.3 0 0-.9.1-2 .8-3 2.2-4.9 5.1-6.6 8.4-2.3 4.4-4.5 8.9-7.2 13.1-2.3 3.5-5.4 5.9-9.5 6.7m26-5.5c-3.1 4.2-9.2 5.8-13.3 3.6-.8-.4-1.6-1-2.1-1.8-1.1-1.6-.2-3 1.8-3.2-.4 1.4.3 2.2 1.4 2.9 2.4 1.3 5.5.8 7.4-1.2 2-2 2.9-4.5 3-7.3.1-3.2-2.1-4.9-4.6-6.2-1.3-.6-2-1.4-.9-2.9 2.5 1.2 4.6.2 6.4-1.4 1.9-1.6 2.6-3.8 1.9-6.1-.9-3.1-3.6-4.3-6.4-4.8-6.9-1.2-12.9.7-17.6 6-2.2 2.5-3.2 5.5-2.3 8.9.3 1.3.9 1.9 1.9 2.2.2 0 .2-.3.2-.3s-1.3-1.3 0-2.7c.9-1 2.2-.7 2.9-.4h.1c.2.1.3.2.3.2.9.6 1.2 1.4 1.1 2.5-.2 1.5-1.4 2.9-2.9 3.2-1.8.4-3.9-.3-4.9-1.9-2-3.1-1.8-6.5-.4-9.7 2.6-6 7.6-9.1 13.7-10.3 4.4-.9 8.9-.9 13.2.9 3.8 1.6 5.9 4.5 5.7 8-.2 3.4-2.3 5.6-5.2 7-.8.4-1.7.7-2.8 1.1 3.6 1.5 5.6 4 5 7.6-.3 2.3-1.3 4.4-2.6 6.1m30.8-1.4c-1.1.6-2.5 1.6-4.1 2.2-1.8.6-3.7 1-5.5 1.1-2.4.1-3.6-1-4.2-3.1-5.1 3.4-9.7 3.2-9.7 3.2-3.4 0-5.2-2-4.4-5.2 1.6-6.2 5.3-10.7 11.5-12.8 1.4-.5 3-.7 4 .8 1 1.4.6 2.9-.4 4.2-2.1 2.9-5.2 4.2-8.7 4.5-1.7.1-2.3.9-2.3 3.1 0 1.5.8 2.5 2.2 2.7 2.7.3 7.3-2.4 8.5-4.9 2.3-4.9 5.5-8.9 10.9-10.5 1.4-.4 2.9-.6 3.9.8 1 1.3.7 2.8-.2 4.1-2.1 3.1-5.2 4.4-8.7 4.7-1.7.2-2.5 1-2.4 3.2 0 1.6.9 2.7 2.5 2.5 1.4-.1 2.8-.4 4-1.1 4.1-2.4 7.4-5.7 9.5-10 .1-.2.1-.3.2-.4 1.1-3.1-1.8-4-1.8-4v-.6c3.9-1 5.2 1 5.5 1.5v.1c.3.5.4 1.3.5 1.7.1 0 .1-.1.2-.1 3.8-3.5 8.1-3.4 8.2-.7 0 1.7-.5 2.6-.9 3.1 0 .1-.1.1-.1.2-.1.1-.2.2-.3.2-.1 0-.1.1-.1.1-.7.4-1.5.4-2 .1-1.5-.8-1.2-1.9-.3-3.1-4 .7-12.1 12.8-10.2 15.1-.6.5-1.3.8-2 .7-.2.1-3 .4-3.3-3.4m21.7 48.5h-19.4c-.1-2.2.5-4 1.6-5.5 1.9-2.6 5.1-4.3 7.9-6 1.2-.7 3-1.6 3-3.2 0-2-1.2-2.7-2.7-2.7-2.6 0-3.4 1.9-3.4 4.6h-6c-.4-6.1 3.5-9.7 9.5-9.7 5.4 0 9.1 2.3 9.1 7 0 5.7-5.6 7.5-9.8 10.1h10.1l.1 5.4zm16.8.3c-4.1 0-9.5-2.8-9.5-11.5 0-8.6 5.5-11.4 9.5-11.4 4.1 0 9.6 2.8 9.6 11.4 0 8.7-5.5 11.5-9.6 11.5m12.3-60.7c1.4 0 2.3.9 2.6 2.2.3 1.6-.3 2.9-1.6 3.8-.5.3-.9.4-1.3.5h-.2c-.6 0-2.4-.2-2.1-2.9-.9.1-2.3.6-3.7 2.8-1.8 3.1-3.7 6.1-6.6 8.4-2.5 2-5.3 3-8.4 2.9-1.7 0-5.8-.7-5.8-4.5 0-2.5 1.5-3.4 2.6-3.7.7-.4 1.5-.4 2.3.1.8.5 1.5 1.6 1.5 2.5 0 1.2-.8 1.8-2 1.9-.9 0-.9-.4-1.4-.3-.4.1-.2.5-.2.5 1.2 1.6 4.2 1.1 4.2 1.1 1.9-.2 3.6-1.1 5-2.5 2.2-2.2 3.6-4.9 4.8-7.9-1.1-.3-2.2-.4-3.2-.8-4.9-1.8-7.4-6.8-6-12.1 2.3-9.2 11.1-13.8 20.7-10.9 1 .3 1.9.6 2.9.8 4.6 1.1 7.5 1.9 12-1.7.8 1.9 0 3.7-2 4.8-2.7 1.6-5.6 1.4-8.5.7-2.6-.6-5.2-1.4-7.8-2-6.3-1.3-12.4 1.8-14.5 7.4-1.9 5 .1 9.5 4.7 10.9 2.3.6 2.8.4 3.7-1.7 1.6-3.9 3.7-7.4 7.1-10.1 2-1.6 4.3-2.6 7.1-2.3-4.6 3.1-7.1 7.7-9.2 12.6 1.2-.3 2.2-.6 3.3-.5m17.4 60.4h-6.7v-12.9h-5.2v-4.6c3.3.1 6.5-1.2 6.7-4.9h5.3l-.1 22.4zm19.7.3c-4.8 0-9.9-1.6-9.9-7.1 0-3.8 2.9-4.6 4.5-4.9v-.1c-2.4-.6-3.5-2.3-3.5-4.7 0-4.9 5.2-6.1 8.9-6.1 6.1 0 9.1 2.9 9.1 6.1 0 2.3-1.4 4.2-3.5 4.7v.1c2.5.3 4.4 2.2 4.4 4.9 0 5.3-5.4 7.1-10 7.1m79.6-77.5c-.4 3.9-2.7 6.8-5.5 9.4-2.6 2.4-5.6 4.2-9.1 5.1-.5.1-1.1.6-1.4 1.1-1.8 3.2-3.6 6.4-5.2 9.7 0 0-.1.2-.3.5 0 0 0 .1-.1.1-.5 1.1-1.4 3.1-1 3.4.5.4 9-1.8 13.4-10.1.2.1.3.1.5.2l.5.2s-1.2 4.6-7.8 9.2c-.2.2-.5.3-.7.5l-.1.1c-.3.2-.7.4-1 .6-1.7.9-3.7 1.4-5.6 1.6-2.4.2-3.3-.7-3.7-3-7.3 3.9-9.4 4.1-10.9.8-2.5 1.4-5 3.7-7.9 1.4-2.3-1.8-1.2-4.4-.7-6.8-.4-.1-.8-.1-1.1-.2l-.9-.2c-3.6 4.5-6.1 6.3-7.5 7-1.1.5-2.2.8-3.3 1-2.9.5-4.4-1-4.7-4.2-.9.7-1.7 1.5-2.6 2-1.4.8-2.8 1.6-4.4 2.1-2.8.8-3.9.3-5.2-2.1-1.8.8-3.5 1.6-5.3 2.2-1.5.5-3.1.4-4.4-.8-.3-.3-1.1-.1-1.6.1-3.2 1.2-6.4 1.9-9.7 1-1.4-.4-2.7-1.4-4.3-2.3-2 1.2-4.7 2.4-7.7 2.3-3.3 0-5.2-2-4.3-5.3 1.6-6.1 5.3-10.7 11.6-12.7 1.4-.5 2.9-.6 3.9.7 1.1 1.4.7 2.9-.3 4.2-2.1 3-5.1 4.3-8.6 4.6-1.8.2-2.5 1-2.5 3.1 0 1.6.9 2.6 2.6 2.6 2.7 0 5-1.4 6.9-3.2 2.3-2.2 4.3-4.7 6.4-7.2.3-.3.4-.9.5-1.4v-.1-.1c.1-.5.2-1 .4-1.4 1.6-4.7 4.6-4.9 5.2-4.9.7 0 2.6.8 1.3 3.1s-4 4.1-4.1 4.1c-.2.5-.2.9 0 1.5l.3.6c.3.5.6.9.8 1.3 0 0 3.4 4.9-.4 7.9 1.7-.4 3-1.1 3.9-2.9 1.5-3.4 3.6-6.4 5.4-9.7.2-.3.4-.6.7-1.1h-3.7c.4-1.9 1.7-2.5 3.3-2.3h1.1c.7-.1 1.2-.5 1.6-1.1.3-.4.7-.9.9-1.6.2-.4.3-.8.4-1.1v-.1c.4-1.5.2-1.8-.3-2.3 1.3 0 2.4-.2 3.4 0 1.2.2 1.6 1.2 1.1 2.3-.6 1.2-1.2 2.4-1.9 3.7h4.4v.7h1.7c1.7.1 2.5 1.2 1.8 2.8-.7 1.6-1.6 3.1-2.5 4.6-1 1.9-2.1 3.7-3.1 5.6-.2.5-.4 1.3-.2 1.5.4.3 1.1.5 1.6.4.7-.1 1.5-.4 2.1-.9 3.7-2.8 6.8-6.2 8.8-10.4.9-1.9-.5-3.1-.5-3.1 0-.2 1-1.8 3-1.8.6 0 1 .2 1.2.4 0 0 .1 0 .1.1 1.7 1.3-.7 7.5-3.9 11.2-3.2 3.7-1.3 5.5-1.3 5.5.2.2.5.2.8.2 3.6 0 8.9-7.2 8.9-7.2-1-1.2-1.5-2.5-1.5-3.8v-.2-.8c.3-3.5 1.8-5.1 3.5-4.9 1.9.3 2.2 1.8 2.2 4.4s-1.5 4.6-1.5 4.6c1.4.3 2.3.1 3.2-1.1 2.3-3.3 5-6.1 9.1-7 2.3-.5 3.2-.3 4.8 1.3 2.8-2 3.7-2.1 5.4-.7-3.4 3.4-5.2 7.9-7.6 12 0 .1 0 .1-.1.2-.4.9-1.1 2.3-1.2 3-.1 1 4.4-1.5 4.4-1.5 2.4-1.4 4.4-3.4 5.9-5.8 1.5-2.3 2.8-4.7 4.2-7.1-2.4-1.8-2.9-2.8-2.1-4.6.7-1.3 1.7-1.7 3.1-1.2-1.8 2.1.1 3.3.1 3.3 3.3-4.2 6.1-8 9.2-11.5 1.4-1.6 3.2-3 5.1-4 3-1.8 4.9-.4 4.6 2.7m-64.8 6.7c1.1-1.1 2.7-1.3 3.5-.5.8.8.6 2.4-.6 3.5-1.1 1.1-2.7 1.3-3.5.5-.8-.8-.6-2.4.6-3.5m88.7-25.7H179.9c-.9 0-1.7-.8-1.7-1.7 0-.9.8-1.7 1.7-1.7h281.6c.9 0 1.7.8 1.7 1.7 0 1-.8 1.7-1.7 1.7m7.6-32.6v15.7h-8.6v-15.5l-15.1-23.8h10.1l9.4 15.8 9.5-15.8h9.8L469.1 227z"/><path class="st0" d="M358 342.3c1.6 0 3.4-.5 3.4-2.3 0-2.1-1.7-2.5-3.3-2.5-1.7 0-3.2.5-3.2 2.5-.1 1.7 1.6 2.3 3.1 2.3M358.1 346.1c-1.9 0-3.6.6-3.6 2.9 0 1.9 2 2.5 3.6 2.5s3.6-.5 3.6-2.5c-.1-2.2-1.7-2.9-3.6-2.9M270.7 395.8l53.6 84.2 45.4-85.2z"/></svg>