<svg id="Layer_1" xmlns="http://www.w3.org/2000/svg" viewBox="0 0 205 171"><style>.st1{fill:none;stroke:#0f885d;stroke-width:5;stroke-linecap:round;stroke-linejoin:round;stroke-miterlimit:10}.st2{fill:#0f885d}.st3{font-family:&apos;Avenir-Black&apos;}.st4{font-size:38.0225px}</style><path d="M202.2 148.7c-8.9 0-16-7.1-16-15.9s7.2-15.9 16-15.9h.3V99.8h-.3c-8.9 0-16-7.1-16-15.9s7.2-15.9 16-15.9h.3V50.9h-.3c-8.9 0-16-7.1-16-15.9s7.2-15.9 16-15.9h.3V2.5H2.5v166h200v-19.8h-.3z" fill="#fdb913"/><path class="st1" d="M202.2 148.7c-8.9 0-16-7.1-16-15.9s7.2-15.9 16-15.9h.3V99.8h-.3c-8.9 0-16-7.1-16-15.9s7.2-15.9 16-15.9h.3V50.9h-.3c-8.9 0-16-7.1-16-15.9s7.2-15.9 16-15.9h.3V2.5H2.5v166h200v-19.8h-.3zM145.9 2.5v161.7M74.2 2.5v161.7M145.9 85.5H2.5"/><text transform="matrix(.9905 0 0 1 14.293 60.28)" class="st2 st3 st4">£5</text><text transform="matrix(.9905 0 0 1 84.511 60.28)" class="st2 st3 st4">£5</text><text transform="matrix(.9905 0 0 1 14.293 139.093)" class="st2 st3 st4">£3</text><text transform="matrix(.9905 0 0 1 84.511 139.093)" class="st2 st3 st4">£3</text><path fill="none" stroke="#0f885d" stroke-width="5" stroke-miterlimit="10" d="M145.9 2.5l-71.7 83"/></svg>