<?xml version="1.0" encoding="utf-8"?>
<!-- Generator: Adobe Illustrator 24.3.0, SVG Export Plug-In . SVG Version: 6.00 Build 0)  -->
<svg version="1.1" id="Layer_1" xmlns="http://www.w3.org/2000/svg" xmlns:xlink="http://www.w3.org/1999/xlink" x="0px" y="0px"
	 viewBox="0 0 133.38 88.86" style="enable-background:new 0 0 133.38 88.86;" xml:space="preserve">
<style type="text/css">
	.st0{fill:#FFFFFF;}
	.st1{fill:#0F206C;}
</style>
<ellipse class="st0" cx="66.69" cy="44.25" rx="64" ry="40.48"/>
<path class="st1" d="M43.62,57.68c-0.5,0-0.94,0.64-0.86,1.5h1.72C44.47,58.25,44.14,57.68,43.62,57.68z"/>
<path class="st1" d="M49.42,57.68c-0.5,0-0.94,0.64-0.86,1.5h1.72C50.26,58.25,49.94,57.68,49.42,57.68z"/>
<path class="st1" d="M36.42,58.15c-0.23,0-0.7,0.02-0.88,0.04v2.36c0,0.88,0.33,1.09,1.1,1.09c1.35,0,1.69-0.87,1.69-1.68
	C38.33,59.23,37.99,58.15,36.42,58.15z"/>
<path class="st1" d="M64.16,68.7c-0.48,0-0.84,0.22-1.07,0.66s-0.34,1.03-0.34,1.75s0.11,1.31,0.34,1.75
	c0.23,0.44,0.58,0.66,1.07,0.66c0.48,0,0.84-0.22,1.07-0.66s0.34-1.03,0.34-1.75s-0.11-1.31-0.34-1.75
	C65,68.92,64.65,68.7,64.16,68.7z"/>
<path class="st1" d="M70.98,57.68c-0.5,0-0.94,0.64-0.86,1.5h1.72C71.82,58.25,71.5,57.68,70.98,57.68z"/>
<path class="st1" d="M50.4,41.92c0.59-0.55,0.89-1.36,0.89-2.42s-0.3-1.87-0.89-2.44s-1.5-0.85-2.72-0.85h-1.34v6.54h1.52
	C48.97,42.75,49.81,42.47,50.4,41.92z"/>
<path class="st1" d="M70.87,38.25c0.32-0.14,0.49-0.45,0.49-0.93s-0.15-0.79-0.45-0.95c-0.3-0.15-0.8-0.23-1.51-0.23h-1.16v2.32
	h1.14C70.05,38.47,70.54,38.39,70.87,38.25z"/>
<path class="st1" d="M37.98,56.42c0-0.69-0.34-1.48-1.8-1.48c-0.25,0-0.44,0.01-0.64,0.04v2.69c0.27,0.01,0.7,0.02,0.93,0.02
	C37.68,57.69,37.98,57.04,37.98,56.42z"/>
<path class="st1" d="M94.15,38.96c0.3-0.27,0.45-0.69,0.45-1.27s-0.15-0.98-0.46-1.19c-0.31-0.22-0.85-0.32-1.62-0.32h-1.8v3.19
	h1.76C93.3,39.36,93.85,39.23,94.15,38.96z"/>
<path class="st1" d="M71.44,42.58c0.34-0.17,0.52-0.5,0.52-1s-0.18-0.83-0.55-0.99c-0.36-0.16-0.95-0.24-1.75-0.24h-1.42v2.48h1.65
	C70.58,42.84,71.09,42.75,71.44,42.58z"/>
<path class="st1" d="M77.8,68.7c-0.48,0-0.84,0.22-1.07,0.66s-0.34,1.03-0.34,1.75s0.11,1.31,0.34,1.75
	c0.23,0.44,0.58,0.66,1.07,0.66c0.48,0,0.84-0.22,1.07-0.66s0.34-1.03,0.34-1.75s-0.11-1.31-0.34-1.75S78.29,68.7,77.8,68.7z"/>
<path class="st1" d="M33.21,41.92c0.59-0.55,0.89-1.36,0.89-2.42s-0.3-1.87-0.89-2.44s-1.5-0.85-2.72-0.85h-1.34v6.54h1.52
	C31.77,42.75,32.62,42.47,33.21,41.92z"/>
<path class="st1" d="M93.72,60.8c0,0.51,0.24,0.83,0.6,0.83c0.21,0,0.46-0.17,0.81-0.51V59.4C94.56,59.9,93.72,59.82,93.72,60.8z"/>
<path class="st1" d="M66.69,0C29.86,0,0,19.89,0,44.43s29.86,44.43,66.69,44.43s66.69-19.89,66.69-44.43
	C133.37,19.89,103.52,0,66.69,0z M88.32,34.11h4.08c1.67,0,2.87,0.28,3.58,0.85c0.71,0.56,1.07,1.47,1.07,2.73
	c0,1.72-0.68,2.84-2.05,3.34l2.73,3.85h-2.96l-2.39-3.43h-1.66v3.43h-2.4V34.11z M82.67,42.09c0.4-0.5,0.59-1.18,0.59-2.04v-5.94
	h2.4v6.02c0,1.56-0.43,2.76-1.29,3.59c-0.86,0.84-1.97,1.25-3.31,1.25s-2.45-0.42-3.32-1.26s-1.3-2.04-1.3-3.59V34.1h2.4v5.94
	c0,0.86,0.2,1.54,0.6,2.04c0.4,0.5,0.94,0.75,1.62,0.75C81.74,42.84,82.28,42.59,82.67,42.09z M79.95,26.09l-7.32,2.05l-3.33-9.27
	c0.49-0.06,0.99-0.15,1.48-0.35c0.42-0.17,0.78-0.38,1.13-0.59c0.26-0.15,0.5-0.3,0.74-0.41c0.71-0.32,1.58-0.4,2.5-0.48
	c0.73-0.06,1.51-0.13,2.26-0.34c0.2-0.06,0.4-0.13,0.6-0.21L79.95,26.09z M77.12,12.17l0.47,2.33c-0.69,0.4-1.6,0.48-2.63,0.57
	c-1.04,0.09-2.12,0.18-3.14,0.64c-0.34,0.15-0.65,0.34-0.94,0.51c-0.3,0.18-0.58,0.34-0.85,0.45c-0.43,0.17-0.93,0.23-1.44,0.27
	l-0.78-2.18L77.12,12.17z M70.03,34.11c0.73,0,1.36,0.09,1.89,0.26s0.93,0.41,1.19,0.71c0.48,0.55,0.72,1.18,0.72,1.88
	c0,0.84-0.27,1.47-0.82,1.88c-0.18,0.14-0.31,0.23-0.39,0.27c-0.07,0.04-0.2,0.1-0.39,0.18c0.67,0.14,1.2,0.44,1.59,0.9
	s0.59,1.02,0.59,1.7c0,0.75-0.26,1.41-0.77,1.99c-0.6,0.67-1.63,1-3.11,1h-4.71V34.11H70.03z M56.78,9.83l9.2,2.95l-0.89,2.2
	c-0.8-0.04-1.6-0.48-2.51-0.97c-0.92-0.5-1.87-1.02-2.97-1.19c-0.37-0.06-0.73-0.08-1.07-0.09c-0.34-0.02-0.67-0.03-0.96-0.09
	c-0.45-0.09-0.9-0.32-1.35-0.57L56.78,9.83z M55.75,14.06c0.44,0.22,0.91,0.42,1.43,0.52c0.44,0.09,0.87,0.11,1.27,0.13
	c0.3,0.01,0.58,0.03,0.84,0.07c0.77,0.13,1.53,0.54,2.34,0.98c0.64,0.35,1.33,0.72,2.08,0.96c0.2,0.06,0.41,0.11,0.61,0.16
	l-3.66,9.08l-7.24-2.33L55.75,14.06z M60.76,41.04c-0.27-0.19-0.8-0.38-1.59-0.58c-1.25-0.3-2.17-0.69-2.75-1.16
	c-0.58-0.48-0.87-1.23-0.87-2.25s0.37-1.81,1.1-2.36s1.65-0.83,2.75-0.83c0.72,0,1.44,0.12,2.16,0.37s1.34,0.6,1.88,1.05l-1.22,1.76
	c-0.93-0.71-1.9-1.06-2.89-1.06c-0.4,0-0.72,0.09-0.95,0.28c-0.23,0.19-0.35,0.44-0.35,0.75s0.14,0.56,0.42,0.75
	c0.28,0.18,0.93,0.4,1.96,0.65c1.02,0.25,1.81,0.63,2.38,1.13c0.56,0.5,0.85,1.24,0.85,2.2c0,0.97-0.36,1.75-1.09,2.35
	c-0.72,0.6-1.68,0.9-2.86,0.9c-1.7,0-3.24-0.63-4.6-1.89l1.43-1.75c1.16,1.02,2.23,1.52,3.22,1.52c0.44,0,0.79-0.09,1.04-0.28
	s0.38-0.45,0.38-0.77C61.16,41.49,61.03,41.24,60.76,41.04z M43.95,34.11h3.8c1.92,0,3.39,0.47,4.42,1.41
	c1.03,0.94,1.54,2.25,1.54,3.92s-0.5,3-1.5,3.97c-1,0.98-2.53,1.46-4.58,1.46h-3.68L43.95,34.11L43.95,34.11z M38.74,34.11h2.4
	v10.76h-2.4V34.11z M26.75,34.11h3.8c1.92,0,3.39,0.47,4.42,1.41c1.03,0.94,1.54,2.25,1.54,3.92s-0.5,3-1.5,3.97
	c-1,0.98-2.53,1.46-4.58,1.46h-3.68L26.75,34.11L26.75,34.11z M37.09,62.18h-4.68v-0.47c1.19,0,1.46-0.3,1.46-1.02v-4.5
	c0-0.93-0.13-1.06-1.05-1.06h-0.3v-0.47c0.3-0.01,0.88-0.06,1.52-0.1c0.73-0.04,1.44-0.08,1.96-0.08c1.51,0,2.67,0.21,3.33,0.86
	c0.3,0.3,0.46,0.73,0.46,1.1c0,0.74-0.48,1.2-1.49,1.42v0.02c1.17,0.25,1.91,1.05,1.91,2.03C40.21,61.14,39.08,62.18,37.09,62.18z
	 M46.15,59.65H42.8c0.1,1,0.77,1.77,1.49,1.77c0.45,0,0.88-0.25,1.48-0.87l0.28,0.23c-0.68,0.96-1.66,1.54-2.59,1.54
	c-1.32,0-2.21-1.02-2.21-2.48c0-1.6,1.08-2.72,2.59-2.72c0.64,0,1.15,0.21,1.52,0.58c0.71,0.71,0.37,1.39,0.8,1.61v0.34H46.15z
	 M51.95,59.65H48.6c0.1,1,0.77,1.77,1.49,1.77c0.45,0,0.88-0.25,1.48-0.87l0.28,0.23c-0.68,0.96-1.66,1.54-2.59,1.54
	c-1.32,0-2.21-1.02-2.21-2.48c0-1.6,1.08-2.72,2.59-2.72c0.64,0,1.15,0.21,1.52,0.58c0.71,0.71,0.37,1.39,0.8,1.61v0.34H51.95z
	 M52.91,58.16l-0.33-0.13v-0.3l1.98-0.75h0.25v1.35h0.02c0.45-0.87,0.64-1.22,1.05-1.22c0.08,0,0.18,0.01,0.24,0.04l0.96,0.35
	c-0.15,0.51-0.34,0.94-0.58,1.28c-0.38-0.15-0.82-0.3-0.98-0.3c-0.24,0-0.45,0.17-0.71,0.54v1.96c0,0.58,0.18,0.81,0.81,0.81h0.31
	v0.39h-3.36v-0.39h0.08c0.5,0,0.68-0.22,0.68-0.85v-1.97C53.35,58.43,53.28,58.31,52.91,58.16z M59.82,74.77h-5.11v-1.2l2.13-2.18
	c0.43-0.44,0.73-0.78,0.92-1.04c0.18-0.26,0.27-0.51,0.27-0.75c0-0.24-0.08-0.44-0.24-0.61c-0.16-0.16-0.36-0.24-0.61-0.24
	c-0.46,0-0.89,0.33-1.3,0.97l-1.3-0.77c0.34-0.53,0.71-0.92,1.11-1.19c0.4-0.27,0.92-0.4,1.55-0.4s1.18,0.2,1.65,0.6
	c0.47,0.4,0.71,0.94,0.71,1.62c0,0.37-0.09,0.73-0.29,1.07c-0.19,0.34-0.54,0.78-1.05,1.31l-1.31,1.36h2.86L59.82,74.77L59.82,74.77
	z M66.41,73.83c-0.5,0.68-1.25,1.02-2.25,1.02s-1.75-0.34-2.25-1.02c-0.5-0.68-0.75-1.59-0.75-2.73c0-1.14,0.25-2.05,0.75-2.73
	c0.5-0.68,1.25-1.02,2.25-1.02s1.75,0.34,2.25,1.02c0.5,0.68,0.75,1.59,0.75,2.73C67.16,72.24,66.91,73.15,66.41,73.83z
	 M67.71,56.36h-0.44c-0.05-0.8-0.22-1.04-0.76-1.04h-2.33v2.72h1.68c0.85,0,1.05-0.19,1.05-0.88h0.48v2.41h-0.48
	c0-0.58-0.19-0.86-0.83-0.86h-1.9v1.95c0,0.87,0.16,1.05,0.81,1.05h0.23v0.47H61.6v-0.47h0.19c0.52,0,0.71-0.17,0.71-0.69v-4.9
	c0-0.77-0.22-1-0.75-1h-0.16v-0.46h6.11v1.7H67.71z M73.6,74.8h-5.11v-1.2l2.13-2.18c0.43-0.44,0.73-0.78,0.92-1.04
	c0.18-0.26,0.27-0.51,0.27-0.75s-0.08-0.44-0.24-0.61c-0.16-0.16-0.36-0.24-0.61-0.24c-0.46,0-0.89,0.33-1.3,0.97l-1.3-0.77
	c0.34-0.53,0.71-0.92,1.12-1.19c0.4-0.27,0.92-0.4,1.54-0.4c0.63,0,1.18,0.2,1.65,0.6c0.47,0.4,0.71,0.94,0.71,1.62
	c0,0.37-0.09,0.73-0.28,1.07s-0.54,0.78-1.05,1.31l-1.31,1.36h2.86L73.6,74.8L73.6,74.8z M71.64,61.42c0.45,0,0.88-0.25,1.48-0.87
	l0.28,0.23c-0.68,0.96-1.66,1.54-2.59,1.54c-1.32,0-2.21-1.02-2.21-2.48c0-1.6,1.08-2.72,2.59-2.72c0.64,0,1.15,0.21,1.52,0.58
	c0.71,0.71,0.37,1.39,0.8,1.61v0.35h-3.35C70.25,60.66,70.93,61.42,71.64,61.42z M74.39,60.75h0.39c0.21,0.68,0.74,1.04,1.26,1.04
	c0.34,0,0.63-0.25,0.63-0.56c0-0.83-2.27-1.13-2.27-2.59c0-0.92,0.76-1.54,1.9-1.54c0.46,0,0.85,0.07,1.35,0.25l0.02,1.29h-0.39
	c-0.22-0.67-0.62-1.03-1.14-1.03c-0.31,0-0.56,0.19-0.56,0.46c0,0.99,2.38,1.03,2.38,2.69c0,0.9-0.64,1.52-1.57,1.52
	c-0.83,0-1.11-0.17-1.28-0.17c-0.07,0-0.15,0.05-0.24,0.16h-0.35L74.39,60.75z M80.05,73.83c-0.5,0.68-1.25,1.02-2.25,1.02
	s-1.75-0.34-2.25-1.02c-0.5-0.68-0.75-1.59-0.75-2.73c0-1.14,0.25-2.05,0.75-2.73c0.5-0.68,1.25-1.02,2.25-1.02s1.75,0.34,2.25,1.02
	c0.5,0.68,0.75,1.59,0.75,2.73C80.8,72.24,80.55,73.15,80.05,73.83z M80.72,62.31c-0.82,0-1.37-0.46-1.37-1.5v-2.9h-0.64V57.6
	c0.73-0.3,1.55-1.19,1.77-1.86h0.35v1.51h1.58l-0.18,0.67h-1.4v2.93c0,0.45,0.21,0.64,0.56,0.64c0.29,0,0.57-0.18,0.92-0.61
	l0.17,0.34C82.11,61.86,81.38,62.31,80.72,62.31z M85.79,62.18h-3.02v-0.39h0.13c0.5,0,0.68-0.22,0.68-0.85v-2.32
	c0-0.31-0.07-0.4-0.41-0.52l-0.4-0.15v-0.29l2.07-0.69h0.22v4.05c0,0.5,0.21,0.76,0.74,0.76L85.79,62.18L85.79,62.18z M83.29,55.05
	c0-0.44,0.46-0.82,0.97-0.82c0.56,0,0.96,0.36,0.96,0.82c0,0.48-0.46,0.82-0.96,0.82C83.71,55.88,83.29,55.53,83.29,55.05z
	 M92.13,57.63c-0.63,0.06-0.79,0.22-1.02,0.73l-1.73,3.91h-0.73l-1.8-3.88c-0.23-0.5-0.4-0.69-0.93-0.75v-0.39h3.07v0.39h-0.42
	c-0.25,0-0.36,0.23-0.16,0.68l1.08,2.41l0.94-2.13c0.28-0.63,0.13-0.87-0.71-0.96v-0.39h2.41L92.13,57.63L92.13,57.63z M96.01,62.3
	c-0.45,0-0.77-0.29-0.85-0.75c-0.48,0.47-0.81,0.76-1.49,0.76c-0.86,0-1.4-0.5-1.4-1.27c0-0.39,0.17-0.76,0.37-0.97
	c0.57-0.57,1.55-0.45,2.49-1.22V58.4c0-0.47-0.33-0.81-0.76-0.81c-0.42,0-0.73,0.3-0.63,0.93l-1.35,0.47
	c-0.11-0.5-0.06-0.85,0.25-1.16c0.41-0.41,1.4-0.73,2-0.73c0.59,0,1.97,0.34,1.97,1.48v2.29c0,0.42,0.08,0.56,0.27,0.56
	c0.1,0,0.16-0.02,0.33-0.15l0.18,0.29C97.01,61.99,96.41,62.3,96.01,62.3z M100.69,62.18h-3v-0.39h0.12c0.51,0,0.68-0.23,0.68-0.85
	v-4.98c0-0.53-0.04-0.63-0.31-0.73l-0.52-0.19v-0.35l2.09-0.61h0.22v6.86c0,0.57,0.17,0.85,0.73,0.85L100.69,62.18L100.69,62.18z
	 M107.22,49.77H25.95v-0.43h81.27V49.77z M104.02,40.62v4.25h-2.4v-4.25l-3.73-6.51h2.6l2.32,4l2.32-4h2.6L104.02,40.62z"/>
</svg>
