<?xml version="1.0" encoding="utf-8"?>
<!-- Generator: Adobe Illustrator 21.1.0, SVG Export Plug-In . SVG Version: 6.00 Build 0)  -->
<svg version="1.1" id="Layer_1" xmlns="http://www.w3.org/2000/svg" xmlns:xlink="http://www.w3.org/1999/xlink" x="0px" y="0px"
	 viewBox="0 0 388 258" style="enable-background:new 0 0 388 258;" xml:space="preserve">
<style type="text/css">
	.st0{fill:#131F6B;}
</style>
<g>
	<path class="st0" d="M127.1,167.8c-1.4,0-2.7,1.9-2.5,4.4h5C129.6,169.4,128.6,167.8,127.1,167.8z"/>
	<path class="st0" d="M144,167.8c-1.4,0-2.7,1.9-2.5,4.4h5C146.4,169.4,145.5,167.8,144,167.8z"/>
	<path class="st0" d="M106.2,169.1c-0.7,0-2,0.1-2.6,0.1v6.9c0,2.6,0.9,3.2,3.2,3.2c3.9,0,4.9-2.5,4.9-4.9
		C111.7,172.3,110.8,169.1,106.2,169.1z"/>
	<path class="st0" d="M206.6,167.8c-1.4,0-2.7,1.9-2.5,4.4h5C209.1,169.4,208.2,167.8,206.6,167.8z"/>
	<path class="st0" d="M220.2,199.9c-0.9,0-1.6,0.3-2.2,0.9s-0.9,1.3-0.9,2.2s0.3,1.6,0.8,2.2c0.5,0.6,1.3,0.9,2.2,0.9
		c0.9,0,1.7-0.3,2.3-0.8c0.6-0.5,0.9-1.3,0.9-2.1s-0.3-1.6-0.9-2.3C221.9,200.2,221.2,199.9,220.2,199.9z"/>
	<path class="st0" d="M186.8,199.8c-1.4,0-2.4,0.6-3.1,1.9c-0.7,1.3-1,3-1,5.1c0,2.1,0.3,3.8,1,5.1c0.7,1.3,1.7,1.9,3.1,1.9
		c1.4,0,2.4-0.6,3.1-1.9c0.7-1.3,1-3,1-5.1c0-2.1-0.3-3.8-1-5.1C189.3,200.4,188.2,199.8,186.8,199.8z"/>
	<path class="st0" d="M206.3,111.3c0.9-0.4,1.4-1.3,1.4-2.7c0-1.4-0.4-2.3-1.3-2.8c-0.9-0.4-2.3-0.7-4.4-0.7h-3.4v6.8h3.3
		C203.9,111.9,205.4,111.7,206.3,111.3z"/>
	<path class="st0" d="M110.7,164.1c0-2-1-4.3-5.2-4.3c-0.7,0-1.3,0-1.9,0.1v7.8c0.8,0,2,0.1,2.7,0.1
		C109.8,167.8,110.7,165.9,110.7,164.1z"/>
	<path class="st0" d="M274,113.3c0.9-0.8,1.3-2,1.3-3.7c0-1.7-0.4-2.8-1.3-3.5c-0.9-0.6-2.5-0.9-4.7-0.9H264v9.3h5.1
		C271.5,114.5,273.2,114.1,274,113.3z"/>
	<path class="st0" d="M208,123.9c1-0.5,1.5-1.5,1.5-2.9c0-1.4-0.5-2.4-1.6-2.9c-1.1-0.5-2.8-0.7-5.1-0.7h-4.1v7.2h4.8
		C205.5,124.6,207,124.4,208,123.9z"/>
	<path class="st0" d="M96.8,121.9c1.7-1.6,2.6-4,2.6-7c0-3.1-0.9-5.4-2.6-7.1c-1.7-1.7-4.4-2.5-7.9-2.5H85v19h4.4
		C92.7,124.4,95.1,123.5,96.8,121.9z"/>
	<path class="st0" d="M146.8,121.9c1.7-1.6,2.6-4,2.6-7c0-3.1-0.9-5.4-2.6-7.1c-1.7-1.7-4.4-2.5-7.9-2.5H135v19h4.4
		C142.7,124.4,145.1,123.5,146.8,121.9z"/>
	<path class="st0" d="M193.9,0.1C86.8,0.1,0,57.9,0,129.3s86.8,129.2,193.9,129.2s193.9-57.8,193.9-129.2S301,0.1,193.9,0.1z
		 M257.1,99.2h11.9c4.9,0,8.3,0.8,10.4,2.5c2.1,1.6,3.1,4.3,3.1,7.9c0,5-2,8.3-6,9.7l7.9,11.2h-8.6l-6.9-10H264v10h-7V99.2z
		 M240.7,122.5c1.1-1.4,1.7-3.4,1.7-5.9V99.2h7v17.5c0,4.5-1.3,8-3.8,10.5c-2.5,2.4-5.7,3.6-9.6,3.6c-3.9,0-7.1-1.2-9.6-3.7
		c-2.5-2.4-3.8-5.9-3.8-10.4V99.2h7v17.3c0,2.5,0.6,4.5,1.7,5.9c1.2,1.4,2.7,2.2,4.7,2.2C237.9,124.6,239.5,123.9,240.7,122.5z
		 M232.7,75.9l-21.3,6l-9.7-26.9c1.4-0.2,2.9-0.4,4.3-1c1.2-0.5,2.3-1.1,3.3-1.7c0.7-0.4,1.5-0.9,2.1-1.2c2.1-0.9,4.6-1.1,7.3-1.4
		c2.1-0.2,4.4-0.4,6.6-1c0.6-0.2,1.2-0.4,1.7-0.6L232.7,75.9z M224.5,35.4l1.4,6.8c-2,1.2-4.6,1.4-7.6,1.7c-3,0.3-6.2,0.5-9.1,1.9
		c-1,0.4-1.9,1-2.7,1.5c-0.9,0.5-1.7,1-2.5,1.3c-1.2,0.5-2.7,0.7-4.2,0.8l-2.3-6.3L224.5,35.4z M203.9,99.2c2.1,0,3.9,0.3,5.5,0.8
		c1.5,0.5,2.7,1.2,3.5,2.1c1.4,1.6,2.1,3.4,2.1,5.5c0,2.4-0.8,4.3-2.4,5.5c-0.5,0.4-0.9,0.7-1.1,0.8c-0.2,0.1-0.6,0.3-1.1,0.5
		c1.9,0.4,3.5,1.3,4.6,2.6c1.1,1.3,1.7,3,1.7,4.9c0,2.2-0.7,4.1-2.2,5.8c-1.7,1.9-4.7,2.9-9,2.9h-13.7V99.2H203.9z M165.3,28.6
		l26.7,8.6l-2.6,6.4c-2.3-0.1-4.7-1.4-7.3-2.8c-2.7-1.5-5.4-3-8.6-3.5c-1.1-0.2-2.1-0.2-3.1-0.3c-1,0-1.9-0.1-2.8-0.3
		c-1.3-0.3-2.6-0.9-3.9-1.6L165.3,28.6z M162.3,41c1.3,0.6,2.6,1.2,4.1,1.5c1.3,0.3,2.5,0.3,3.7,0.4c0.9,0,1.7,0.1,2.4,0.2
		c2.2,0.4,4.5,1.6,6.8,2.8c1.9,1,3.9,2.1,6,2.8c0.6,0.2,1.2,0.3,1.8,0.5l-10.6,26.4l-21-6.8L162.3,41z M176.9,119.4
		c-0.8-0.6-2.3-1.1-4.6-1.7c-3.6-0.9-6.3-2-8-3.4s-2.5-3.6-2.5-6.5c0-3,1.1-5.3,3.2-6.9c2.1-1.6,4.8-2.4,8-2.4
		c2.1,0,4.2,0.4,6.3,1.1c2.1,0.7,3.9,1.7,5.5,3l-3.5,5.1c-2.7-2.1-5.5-3.1-8.4-3.1c-1.2,0-2.1,0.3-2.8,0.8c-0.7,0.6-1,1.3-1,2.2
		c0,0.9,0.4,1.6,1.2,2.2c0.8,0.5,2.7,1.2,5.7,1.9c3,0.7,5.3,1.8,6.9,3.3c1.6,1.5,2.5,3.6,2.5,6.4s-1.1,5.1-3.2,6.8
		c-2.1,1.7-4.9,2.6-8.3,2.6c-5,0-9.4-1.8-13.4-5.5l4.2-5.1c3.4,3,6.5,4.4,9.4,4.4c1.3,0,2.3-0.3,3-0.8c0.7-0.6,1.1-1.3,1.1-2.2
		S177.7,120,176.9,119.4z M128.1,99.2h11.1c5.6,0,9.9,1.4,12.8,4.1c3,2.7,4.5,6.5,4.5,11.4c0,4.9-1.5,8.7-4.4,11.5
		c-2.9,2.8-7.3,4.3-13.3,4.3h-10.7V99.2z M112.9,99.2h7v31.3h-7V99.2z M78.1,99.2h11.1c5.6,0,9.9,1.4,12.8,4.1
		c3,2.7,4.5,6.5,4.5,11.4c0,4.9-1.5,8.7-4.4,11.5c-2.9,2.8-7.3,4.3-13.3,4.3H78.1V99.2z M108.1,180.9H94.5v-1.4c3.4,0,4.3-0.9,4.3-3
		v-13.1c0-2.7-0.4-3.1-3.1-3.1h-0.9V159c0.9,0,2.6-0.2,4.4-0.3c2.1-0.1,4.2-0.2,5.7-0.2c4.4,0,7.8,0.6,9.7,2.5
		c0.9,0.9,1.3,2.1,1.3,3.2c0,2.1-1.4,3.5-4.3,4.1v0.1c3.4,0.7,5.6,3.1,5.6,5.9C117.2,177.8,113.9,180.9,108.1,180.9z M134.5,173.5
		h-9.7c0.3,2.9,2.3,5.1,4.3,5.1c1.3,0,2.6-0.7,4.3-2.5l0.8,0.7c-2,2.8-4.8,4.5-7.5,4.5c-3.8,0-6.4-3-6.4-7.2c0-4.6,3.1-7.9,7.5-7.9
		c1.9,0,3.3,0.6,4.4,1.7c2.1,2.1,1.1,4,2.3,4.7V173.5z M151.3,173.5h-9.7c0.3,2.9,2.3,5.1,4.3,5.1c1.3,0,2.6-0.7,4.3-2.5l0.8,0.7
		c-2,2.8-4.8,4.5-7.5,4.5c-3.8,0-6.4-3-6.4-7.2c0-4.6,3.1-7.9,7.5-7.9c1.9,0,3.3,0.6,4.4,1.7c2.1,2.1,1.1,4,2.3,4.7V173.5z
		 M154.1,169.2l-0.9-0.4v-0.9l5.8-2.2h0.7v3.9h0.1c1.3-2.5,1.9-3.6,3.1-3.6c0.2,0,0.5,0,0.7,0.1l2.8,1c-0.4,1.5-1,2.7-1.7,3.7
		c-1.1-0.4-2.4-0.9-2.8-0.9c-0.7,0-1.3,0.5-2.1,1.6v5.7c0,1.7,0.5,2.4,2.4,2.4h0.9v1.1h-9.8v-1.1h0.2c1.4,0,2-0.6,2-2.5v-5.7
		C155.4,170,155.2,169.6,154.1,169.2z M174.2,217.5h-14.9V214l6.2-6.3c1.2-1.3,2.1-2.3,2.7-3c0.5-0.8,0.8-1.5,0.8-2.2
		c0-0.7-0.2-1.3-0.7-1.8c-0.5-0.5-1.1-0.7-1.8-0.7c-1.3,0-2.6,0.9-3.8,2.8l-3.8-2.2c1-1.5,2.1-2.7,3.2-3.5c1.2-0.8,2.7-1.2,4.5-1.2
		s3.4,0.6,4.8,1.7c1.4,1.2,2.1,2.7,2.1,4.7c0,1.1-0.3,2.1-0.8,3.1c-0.6,1-1.6,2.3-3.1,3.8l-3.8,4h8.3V217.5z M193.4,214.7
		c-1.4,2-3.6,3-6.5,3c-2.9,0-5.1-1-6.5-3c-1.4-2-2.2-4.6-2.2-7.9s0.7-6,2.2-7.9c1.4-2,3.6-3,6.5-3c2.9,0,5.1,1,6.5,3
		c1.4,2,2.2,4.6,2.2,7.9S194.8,212.8,193.4,214.7z M197.1,163.9h-1.3c-0.1-2.3-0.6-3-2.2-3h-6.8v7.9h4.9c2.5,0,3.1-0.6,3.1-2.6h1.4
		v7h-1.4c0-1.7-0.6-2.5-2.4-2.5h-5.5v5.7c0,2.5,0.5,3.1,2.4,3.1h0.7v1.4h-10.5v-1.4h0.6c1.5,0,2.1-0.5,2.1-2v-14.2
		c0-2.3-0.6-2.9-2.2-2.9h-0.5V159h17.8V163.9z M207.3,217.5h-4.5v-17.1h-4v-4h8.5V217.5z M206.2,181.2c-3.8,0-6.4-3-6.4-7.2
		c0-4.6,3.1-7.9,7.5-7.9c1.9,0,3.3,0.6,4.4,1.7c2.1,2.1,1.1,4,2.3,4.7v1h-9.7c0.3,2.9,2.3,5.1,4.3,5.1c1.3,0,2.6-0.7,4.3-2.5
		l0.8,0.7C211.7,179.6,208.9,181.2,206.2,181.2z M227.8,211.7c-0.5,1.5-1.1,2.6-1.9,3.5c-1.6,1.7-3.6,2.5-6,2.5
		c-1,0-1.9-0.1-2.8-0.4c-0.9-0.3-1.6-0.6-2.1-0.9c-0.5-0.3-1-0.7-1.6-1.1l2.4-3.3c0.1,0.1,0.3,0.3,0.6,0.5c0.2,0.2,0.7,0.4,1.3,0.8
		c0.7,0.3,1.3,0.5,1.9,0.5c1.3,0,2.3-0.4,3-1.3c0.7-0.9,1.2-2.1,1.3-3.6c-1.3,0.9-2.7,1.3-4.2,1.3c-2,0-3.6-0.6-4.9-1.9
		c-1.3-1.3-2-3-2-5.1c0-2.1,0.7-3.8,2.1-5.1c1.4-1.3,3.2-1.9,5.4-1.9c1.5,0,2.8,0.3,3.9,0.9c1.1,0.6,2,1.4,2.6,2.4
		c1.2,2,1.8,4.5,1.8,7.5C228.5,208.6,228.2,210.3,227.8,211.7z M216.6,170.6c0-2.7,2.2-4.5,5.5-4.5c1.3,0,2.5,0.2,3.9,0.7l0.1,3.8
		H225c-0.6-1.9-1.8-3-3.3-3c-0.9,0-1.6,0.6-1.6,1.3c0,2.9,6.9,3,6.9,7.8c0,2.6-1.9,4.4-4.6,4.4c-2.4,0-3.2-0.5-3.7-0.5
		c-0.2,0-0.4,0.1-0.7,0.5h-1l-0.4-4.5h1.1c0.6,2,2.1,3,3.7,3c1,0,1.8-0.7,1.8-1.6C223.2,175.7,216.6,174.8,216.6,170.6z M235,181.2
		c-2.4,0-4-1.3-4-4.4v-8.4h-1.9v-0.9c2.1-0.9,4.5-3.4,5.1-5.4h1v4.4h4.6l-0.5,1.9h-4.1v8.5c0,1.3,0.6,1.9,1.6,1.9
		c0.8,0,1.7-0.5,2.7-1.8l0.5,1C239,179.9,236.9,181.2,235,181.2z M249.7,180.9h-8.8v-1.1h0.4c1.4,0,2-0.6,2-2.5v-6.8
		c0-0.9-0.2-1.2-1.2-1.5l-1.2-0.4v-0.8l6-2h0.6v11.8c0,1.4,0.6,2.2,2.1,2.2V180.9z M242.5,160.1c0-1.3,1.3-2.4,2.8-2.4
		c1.6,0,2.8,1.1,2.8,2.4c0,1.4-1.3,2.4-2.8,2.4C243.7,162.5,242.5,161.5,242.5,160.1z M268.1,167.6c-1.8,0.2-2.3,0.6-3,2.1l-5,11.4
		H258l-5.2-11.3c-0.7-1.4-1.2-2-2.7-2.2v-1.1h8.9v1.1h-1.2c-0.7,0-1.1,0.7-0.5,2l3.1,7l2.7-6.2c0.8-1.8,0.4-2.5-2.1-2.8v-1.1h7
		V167.6z M279.4,181.2c-1.3,0-2.3-0.8-2.5-2.2c-1.4,1.4-2.4,2.2-4.3,2.2c-2.5,0-4.1-1.4-4.1-3.7c0-1.1,0.5-2.2,1.1-2.8
		c1.7-1.7,4.5-1.3,7.2-3.6v-1.3c0-1.4-0.9-2.4-2.2-2.4c-1.2,0-2.1,0.9-1.8,2.7l-3.9,1.4c-0.3-1.4-0.2-2.5,0.7-3.4
		c1.2-1.2,4.1-2.1,5.8-2.1c1.7,0,5.7,1,5.7,4.3v6.6c0,1.2,0.2,1.6,0.8,1.6c0.3,0,0.5-0.1,0.9-0.4l0.5,0.8
		C282.3,180.3,280.6,181.2,279.4,181.2z M293,180.9h-8.7v-1.1h0.4c1.5,0,2-0.7,2-2.5v-14.5c0-1.5-0.1-1.8-0.9-2.1l-1.5-0.6v-1
		l6.1-1.8h0.6v19.9c0,1.7,0.5,2.5,2.1,2.5V180.9z M312,144.8H75.7v-1.3H312V144.8z M302.7,118.2v12.4h-7v-12.4l-10.8-18.9h7.6
		l6.8,11.6l6.8-11.6h7.6L302.7,118.2z"/>
	<path class="st0" d="M272.8,176.8c0,1.5,0.7,2.4,1.8,2.4c0.6,0,1.3-0.5,2.4-1.5v-5C275.2,174.2,272.8,174,272.8,176.8z"/>
</g>
</svg>
