<?xml version="1.0" encoding="utf-8"?>
<!-- Generator: Adobe Illustrator 16.0.0, SVG Export Plug-In . SVG Version: 6.00 Build 0)  -->
<!DOCTYPE svg PUBLIC "-//W3C//DTD SVG 1.1//EN" "http://www.w3.org/Graphics/SVG/1.1/DTD/svg11.dtd">
<svg version="1.1" id="Layer_1" xmlns="http://www.w3.org/2000/svg" xmlns:xlink="http://www.w3.org/1999/xlink" x="0px" y="0px"
	 width="640px" height="480px" viewBox="0 0 640 480" enable-background="new 0 0 640 480" xml:space="preserve">
<path fill="#0D8256" d="M334.277,226.479h-9.991v8.65h10.271c3.824,0,6.122-1.357,6.122-4.268v-0.116
	C340.679,228.115,338.715,226.479,334.277,226.479"/>
<path fill="#0D8256" d="M337.316,297.113c0.061-0.064,0.115-0.115,0.173-0.18c0.029-0.032,0.035-0.09,0.062-0.122
	c0.814-1.097,0.91-1.88,0.574-2.364c0.006-0.01,0.006-0.022,0.006-0.035h-0.029c-0.558-0.706-2.072-0.693-3.494,0.073
	c-2.457,1.335-4.261,4.015-4.934,5.987c0,0,4.889-0.141,7.568-3.263C337.258,297.184,337.277,297.152,337.316,297.113"/>
<path fill="#0D8256" d="M265.994,299.809c0,0,0.157-0.064,0.393-0.16c0.566-0.229,1.104-0.507,1.611-0.828
	c1.396-0.847,2.978-2.227,2.658-3.979c0,0-0.279-1.213-2.417-0.08h-0.015c-0.009,0.006-0.009,0.013-0.022,0.02
	c-0.374,0.205-0.818,0.48-1.317,0.85c-0.191,0.129-0.385,0.27-0.562,0.417c-0.112,0.081-0.215,0.171-0.329,0.257v0.055
	c-1.269,1.152-2.329,2.563-3.361,4.168c1.214-0.122,2.336-0.353,3.361-0.722V299.809z"/>
<path fill="#0D8256" d="M250.134,300.31c0,0,0.095-0.032,0.242-0.071c0.882-0.192,1.689-0.462,2.442-0.818
	c2.012-0.862,4.308-2.39,3.634-4.693c0,0-0.411-0.893-2.346,0.07c-0.034,0.013-0.075,0.013-0.107,0.02
	c-0.067,0.048-0.122,0.093-0.197,0.128c-0.369,0.205-0.792,0.481-1.272,0.841c-0.085,0.061-0.18,0.122-0.27,0.189
	c-0.045,0.035-0.088,0.061-0.138,0.093l-0.016,0.062c-1.42,1.181-2.563,2.701-3.646,4.45c0.584-0.077,1.136-0.167,1.681-0.276
	L250.134,300.31z"/>
<path fill="#0D8256" d="M338.58,306.919c0.943,1.431,2.904,1.63,4.957,0.327c2.487-1.582,3.488-5.962,1.999-8.304
	C343.246,301.558,340.941,304.211,338.58,306.919"/>
<path fill="#0D8256" d="M237.412,234.899h6.681c7.076,0,11.844-4.771,11.844-11.737v-0.107c0-6.959-4.768-11.844-11.844-11.844
	h-6.681V234.899z"/>
<path fill="#0D8256" d="M367.978,293.956h-0.007c-0.09-0.045-0.209-0.045-0.385,0.02c-1.482,0.07-2.817,0.08-4.113,0.27
	c-0.539,0.077-1.227,0.484-1.502,0.949c-1.412,2.278-2.733,4.614-4.033,6.97c-0.651,1.168-1.299,2.354-1.762,3.606
	c-0.52,1.431,0.142,2.149,1.534,1.675c0.937-0.321,1.845-0.776,2.673-1.322l-0.01,0.058c0,0,0.263-0.16,0.684-0.484
	c0.01-0.013,0.028-0.013,0.035-0.028c0.02-0.02,0.038-0.039,0.07-0.059c1.184-0.949,3.491-3.145,5.586-7.226
	C366.752,298.378,368.824,294.322,367.978,293.956"/>
<path fill="#0D8256" d="M262.744,154.613c1.176,0.042,2.074-0.293,2.761-1.119c-0.008-5.499,0.006-12.629,0.032-18.397
	c-0.427-0.977-0.988-1.266-1.81-1.439c-1.295-0.287-3.599-0.014-4.611,2.381c-1.646,3.947-1.202,11.323-0.634,14.312
	C258.976,152.901,261.026,154.544,262.744,154.613"/>
<path fill="#0D8256" d="M423.902,211.21h-8.596v11.288h8.766c4.207,0,6.613-2.243,6.613-5.559v-0.111
	C430.686,213.119,428.105,211.21,423.902,211.21"/>
<path fill="#0D8256" d="M379.172,154.609c1.717-0.069,3.77-1.702,4.258-4.259c0.571-2.992,1.021-10.365-0.635-14.304
	c-1.002-2.407-3.312-2.683-4.617-2.392c-0.809,0.18-1.374,0.456-1.807,1.436c0.035,5.779,0.048,12.902,0.048,18.401
	C377.1,154.316,377.994,154.651,379.172,154.609"/>
<path fill="#0D8256" d="M405.152,294.585c-0.373-0.449-1.277-0.692-1.9-0.616c-0.731,0.087-1.501,0.504-2.098,0.976
	c-2.625,2.034-4.579,4.607-5.859,7.675c-0.103,0.244-0.18,0.481-0.257,0.719c0,0-1.591,3.818,1.36,3.818
	c0,0,0.045,0.007,0.084,0.007c0.031,0,0.051-0.007,0.08-0.007c0.539-0.02,2.458-0.263,4.068-2.519
	c0.025-0.052,0.08-0.087,0.105-0.142c0.042-0.045,0.055-0.08,0.087-0.118c0.022-0.035,0.035-0.052,0.055-0.077h-0.013
	c1.678-2.478,3.157-5.108,4.572-7.752C405.71,296.061,405.53,295.027,405.152,294.585"/>
<path fill="#0D8256" d="M433.756,277.805c-0.093,0.051-0.189,0.115-0.272,0.192c-0.812,0.661-1.431,1.443-1.431,1.443
	c-0.01,0.007-0.01,0.007-0.01,0.013c-1.312,1.419-2.478,2.945-3.594,4.512c-2.069,2.798-3.379,4.954-4.033,6.128h-0.006
	c-0.363,0.636-0.533,0.988-0.533,0.988c0.32-0.163,0.623-0.32,0.938-0.472v0.007c0.006-0.01,0.025-0.017,0.038-0.022
	c6.356-3.247,8.516-6.376,9.372-7.425c0.896-1.11,3.132-5.024,1.678-5.885C435.268,276.912,434.462,277.278,433.756,277.805"/>
<path fill="#0D8256" d="M173.494,211.21h-6.675v23.689h6.675c7.068,0,11.845-4.771,11.845-11.737v-0.11
	C185.339,216.095,180.561,211.21,173.494,211.21"/>
<path fill="#0D8256" d="M338.49,215.143v-0.116c0-2.575-2.024-4.035-5.673-4.035h-8.521v8.304h7.957
	C336.071,219.296,338.49,218.07,338.49,215.143"/>
<path fill="#0D8256" d="M137.804,313.214c4.728-3.619,15.791-12.109,15.465-24.789c0.045-0.546,1.038-11.692-10.928-13.387
	c-0.048-0.006-0.959-0.205-2.227-0.205c-3.279,0-7.36,1.22-8.195,7.011c-0.016,0.093-0.953,4.188,0.778,6.382
	c0.724,0.908,1.85,1.367,3.332,1.367c0.477,0,1.006-0.042,1.555-0.142c0.348-0.68,1.439-2.406,3.43-2.406
	c1.064,0,2.188,0.501,3.352,1.488c1.688,1.447,1.972,4.569,0.715,7.983c-1.846,5.024-7.129,10.909-15.911,10.909
	c-0.486,0-0.976-0.025-1.476-0.061c-10.011-0.745-14.177-5.378-15.764-8.063c-1.417-2.403-1.833-5.044-1.065-6.729
	c0.018-0.061,0.928-2.955,4.8-3.439c2.219-0.276,3.693-0.943,4.529-2.012c0.738-0.973,0.988-2.284,0.756-4.033
	c-0.595-4.357-1.922-6.437-7.903-6.437c-5.559,0-9.505,5.311-9.597,12.911c-0.091,8.128,3.703,12.745,4.879,13.958
	c0.087,0.115,1.654,2.082,1.226,4.046c-0.22,1.029-0.926,1.845-2.085,2.425c-0.736,0.359-1.548,0.546-2.429,0.546
	c-3.731,0-8.634-3.491-10.753-10.158c-0.388-1.213-0.699-2.458-1.009-3.658c-1.643-6.5-3.196-12.642-15.458-17.201
	c-0.388,2.545-1.551,12.379,3.314,16.069c0.147,0.141,2.379,2.402,2.057,4.908c-0.164,1.312-0.995,2.43-2.467,3.306
	c-0.076,0.041-0.966,0.472-2.323,0.472c-1.856,0-4.612-0.79-7.242-4.566c-0.072-0.073-2.865-3.23-2.865-11.58l0.008-1.231
	c0.045-8.118,0.094-17.32-16.001-19.065c-0.507,1.11-2.081,5.063-1.495,9.943l0.298,2.506l-1.274-2.182
	c-0.072-0.142-8.116-13.836-19.146-20.227c-3.693-2.144-7.652-3.267-11.443-3.267c-6.769,0-11.903,3.497-13.888,9.433
	c0.401-0.031,0.943-0.067,1.593-0.067c4.705,0,16.494,1.3,24.435,13.265c0.116,0.177,10.988,17.519,23.67,28.216
	c0.207,0.202,17.059,16.759,41.487,16.759c2.053,0,4.15-0.109,6.201-0.347c0,0,0.759-0.141,1.737-0.141
	c2.562,0,4.232,0.917,4.718,2.586c0.298,0.526,1.129,2.798-3.785,6.796c-0.079,0.073-9.896,8.894-9.302,18.103
	c0.273,4.223,2.71,7.932,7.258,11.012c0.267,0.218,1.016,0.712,1.669,0.712c0.21,0,0.397-0.058,0.558-0.166
	c0.569-0.392,0.322-2.183-0.026-3.267c-0.082-0.386-1.797-8.451,1.909-15.97c0.101-0.195,2.493-4.755,11.703-11.986
	c0.107-0.106,13.908-12.648,17.899-15.761L137.804,313.214z"/>
<path fill="#0D8256" d="M129.941,300.482c0.236-0.006,6.045-0.314,8.464-4.402c-0.504,0.09-1.041,0.129-1.627,0.129
	c-2.556,0-5.125-0.918-7.643-2.753c-1.16-0.835-2.066-1.968-2.707-3.312c-1.125,1.655-3.548,4.248-8.195,5.297
	C119.263,297.435,122.128,300.482,129.941,300.482"/>
<path fill="#0D8256" d="M94.103,232.921h0.486c25.374,0,26.618-25.208,26.633-25.47c0.646-7.323-2.481-15.725-8.169-21.938
	c-4.5-4.928-12.629-10.797-25.818-10.797h-0.201c-5.933,0.027-11.434,1.292-16.346,3.73l-0.417,0.194
	c-0.007,0.009-0.017,0.013-0.029,0.013c-2.336,1.219-4.561,2.7-6.624,4.423c-7.353,5.762-19.681,18.497-19.681,39.157
	c-0.006,0.239-1.12,19.821,11.891,39.489c0.486-0.038,1.515-0.109,2.894-0.109c2.811,0,6.783,0.293,10.562,1.566
	c-2.609-4.485-11.158-20.253-11.205-34.698l-0.026-0.185C58.267,215.372,66.06,210,70.183,210c0.151,0,0.292,0.006,0.43,0.013
	c0.286,0.037,0.555,0.046,0.818,0.046c3.975,0,4.548-3.091,4.577-3.229c0.799-4.859-3.194-5.711-3.364-5.737
	c-0.677-0.141-1.364-0.228-2.041-0.228c-7.284,0-13.014,8.349-13.07,8.442l-0.736,1.078l-0.183-1.292
	c-0.67-4.607,0.831-9.706,4.098-13.998c4.129-5.421,10.628-9.055,17.839-9.955c1.338-0.168,2.622-0.256,3.838-0.256
	c6.755,0,10.156,2.562,11.822,4.711c2.066,2.678,2.707,6.364,1.734,10.133c-0.734,2.862-0.656,5.135,0.238,6.574
	c0.743,1.204,1.771,1.433,1.816,1.446l0.047,0.013l0.053,0.024c1.051,0.462,2.066,0.696,3.019,0.696c4.567,0,6.594-5.448,6.61-5.501
	l1.332-3.675l-0.354,3.9c-0.792,8.707-6.982,10.882-9.312,11.694l-0.109,0.029c-0.518,0.173-1.134,0.276-1.771,0.276
	c-2.631,0-6.051-1.531-7.089-5.841c-0.464-1.953-2.461-3.47-4.552-3.47c-1.153,0-2.22,0.47-3.075,1.364
	c-1.219,1.267-2.608,4.001-2.352,9.837C81.078,231.745,93.577,232.871,94.103,232.921"/>
<path fill="#0D8256" d="M90.12,200.558c0.099-0.896,0.263-2.018,0.52-3.414c0.283-1.847,0-3.273-0.89-4.301
	c-1.755-2.06-5.537-2.214-6.656-2.214c-0.375,0-0.605,0.006-0.639,0.006c-5.95,0.197-10.126,2.106-12.898,4.117
	c0.26-0.02,0.515-0.026,0.785-0.026c1.447,0,2.909,0.223,4.367,0.666c4.255,1.288,6.177,3.724,7.041,5.692
	c1.433-0.825,2.976-1.232,4.63-1.232C87.787,199.855,89.062,200.167,90.12,200.558"/>
<path fill="#0D8256" d="M511.183,293.456c-2.522,1.841-5.083,2.753-7.649,2.753c-0.578,0-1.11-0.039-1.617-0.129
	c2.413,4.088,8.23,4.396,8.458,4.402c7.822,0,10.685-3.048,11.711-5.037c-4.652-1.053-7.078-3.646-8.194-5.301
	C513.236,291.492,512.338,292.621,511.183,293.456"/>
<path fill="#0D8256" d="M621.082,254.606c-3.792,0-7.752,1.123-11.438,3.267c-11.03,6.391-19.084,20.085-19.155,20.227l-1.271,2.182
	l0.302-2.509c0.584-4.877-0.991-8.83-1.495-9.94c-16.095,1.742-16.046,10.947-16.005,19.065l0.007,1.231
	c0,8.35-2.788,11.507-2.868,11.584c-2.625,3.767-5.388,4.562-7.238,4.562c-1.348,0-2.25-0.431-2.317-0.472
	c-1.473-0.873-2.31-1.993-2.474-3.306c-0.317-2.502,1.916-4.768,2.063-4.908c4.86-3.69,3.702-13.519,3.308-16.075
	c-12.254,4.568-13.816,10.71-15.459,17.207c-0.298,1.2-0.615,2.445-1.001,3.658c-2.124,6.671-7.017,10.158-10.749,10.158
	c-0.892,0-1.703-0.183-2.432-0.546c-1.161-0.584-1.871-1.398-2.092-2.425c-0.424-1.971,1.143-3.931,1.238-4.046
	c1.162-1.21,4.961-5.83,4.864-13.958c-0.09-7.601-4.036-12.914-9.597-12.914c-5.978,0-7.312,2.079-7.896,6.439
	c-0.237,1.742,0.013,3.064,0.761,4.033c0.821,1.075,2.3,1.735,4.518,2.012c3.869,0.484,4.78,3.382,4.794,3.437
	c0.779,1.688,0.362,4.328-1.06,6.731c-1.575,2.686-5.753,7.322-15.757,8.063c-0.507,0.035-0.998,0.061-1.477,0.061
	c-8.781,0-14.06-5.885-15.917-10.906c-1.258-3.414-0.97-6.535,0.722-7.979c1.161-0.988,2.287-1.495,3.355-1.495
	c1.99,0,3.074,1.727,3.428,2.406c0.552,0.097,1.078,0.142,1.556,0.142c1.485,0,2.605-0.459,3.334-1.367
	c1.729-2.194,0.796-6.282,0.776-6.379c-0.831-5.794-4.916-7.014-8.201-7.014c-1.271,0-2.176,0.199-2.227,0.205
	c-11.969,1.694-10.974,12.841-10.926,13.384c-0.33,12.683,10.733,21.173,15.463,24.792l0.731,0.568
	c3.985,3.108,17.788,15.647,17.9,15.757c9.212,7.229,11.593,11.795,11.698,11.987c3.709,7.515,1.999,15.587,1.919,15.973
	c-0.356,1.084-0.606,2.875-0.035,3.272c0.17,0.103,0.347,0.16,0.564,0.16c0.654,0,1.402-0.494,1.665-0.712
	c4.544-3.083,6.988-6.789,7.265-11.015c0.587-9.212-9.231-18.026-9.312-18.106c-4.916-3.998-4.081-6.267-3.773-6.789
	c0.479-1.672,2.144-2.593,4.714-2.593c0.988,0,1.739,0.145,1.732,0.145c2.06,0.234,4.151,0.343,6.212,0.343
	c24.417,0,41.278-16.546,41.48-16.755c12.684-10.697,23.551-28.043,23.673-28.216c7.938-11.968,19.727-13.265,24.43-13.265
	c0.648,0,1.2,0.032,1.604,0.067C632.986,258.104,627.84,254.606,621.082,254.606"/>
<path fill="#0D8256" d="M570.759,194.755c-2.775-2.01-6.949-3.919-12.907-4.116c-0.033,0-0.261-0.01-0.633-0.01
	c-1.116,0-4.896,0.157-6.648,2.217c-0.892,1.025-1.174,2.455-0.892,4.301c0.257,1.397,0.417,2.514,0.52,3.414
	c1.053-0.398,2.336-0.709,3.745-0.709c1.652,0,3.189,0.411,4.623,1.232c0.863-1.968,2.795-4.404,7.049-5.687
	c1.461-0.445,2.924-0.671,4.364-0.671C570.236,194.726,570.496,194.732,570.759,194.755"/>
<path fill="#0D8256" d="M576.688,183.071c-2.054-1.714-4.28-3.202-6.616-4.418c-0.02,0-0.025-0.006-0.035-0.013l-0.41-0.197
	c-4.913-2.439-10.422-3.7-16.352-3.73h-0.202c-13.187,0-21.324,5.872-25.819,10.797c-5.682,6.216-8.82,14.618-8.162,21.938
	c0.013,0.262,1.261,25.47,26.628,25.47h0.481c0.522-0.047,13.033-1.176,13.665-15.83c0.257-5.836-1.14-8.567-2.349-9.834
	c-0.863-0.896-1.919-1.367-3.084-1.367c-2.085,0-4.074,1.521-4.546,3.47c-1.036,4.314-4.457,5.841-7.088,5.841
	c-0.648,0-1.261-0.103-1.771-0.272l-0.108-0.032c-2.33-0.812-8.522-2.987-9.318-11.693l-0.35-3.897l1.332,3.675
	c0.021,0.056,2.04,5.501,6.612,5.501c0.956,0,1.967-0.23,3.01-0.696l0.062-0.021l0.051-0.013c0.045-0.013,1.071-0.246,1.81-1.446
	c0.892-1.439,0.969-3.715,0.244-6.574c-0.976-3.769-0.344-7.458,1.732-10.136c1.669-2.15,5.063-4.712,11.827-4.712
	c1.206,0,2.496,0.091,3.824,0.257c7.219,0.903,13.72,4.537,17.85,9.955c3.27,4.294,4.758,9.393,4.091,13.997l-0.173,1.292
	l-0.752-1.078c-0.048-0.09-5.778-8.439-13.062-8.439c-0.674,0-1.367,0.083-2.041,0.225c-0.167,0.029-4.168,0.877-3.365,5.737
	c0.032,0.138,0.597,3.233,4.581,3.233c0.264,0,0.539-0.013,0.822-0.05c0.135-0.006,0.27-0.013,0.43-0.013
	c4.119,0,11.904,5.371,12.115,18.3l-0.02,0.185c-0.054,14.445-8.592,30.212-11.204,34.698c3.771-1.273,7.752-1.569,10.563-1.569
	c1.386,0,2.409,0.067,2.9,0.109c13.007-19.672,11.896-39.25,11.885-39.494C596.377,201.577,584.049,188.838,576.688,183.071"/>
<path fill="#0D8256" d="M308.676,338.106c-3.311,0-3.439,4.119-3.439,6.526c0,2.349,0.128,6.529,3.374,6.529
	c3.282,0,3.444-4.146,3.444-6.529C312.055,342.322,311.893,338.106,308.676,338.106"/>
<path fill="#0D8256" d="M580.035,151.333c-0.844-0.714-21.164-17.772-63.526-35.009C477.589,100.476,411.919,81.6,320.16,81.6
	c-91.771,0-157.429,18.876-196.354,34.725C81.45,133.561,61.128,150.62,60.28,151.333l-1.101,0.943v26.313l5.09-4.038
	c7.268-5.763,15.987-8.809,25.235-8.809c12.453,0,24.031,5.58,31.762,15.321c6.727,8.471,9.746,19.074,8.496,29.836
	c-1.245,10.754-6.616,20.407-15.105,27.146l-2.702,2.145l2.385,2.492c0.082,0.09,8.201,8.65,14.193,23.307l1.16,2.811l2.859-1.059
	c0.027-0.013,3.263-1.2,7.747-1.2c7.649,0,14.047,3.234,19.043,9.616c4.837,6.177,5.271,14.375,1.282,24.369
	c-3.508,8.798-9.854,17.127-14.626,21.991c-9.759,9.953-21.817,19.13-21.932,19.22l-1.245,0.946v30.189l2.349,0.604
	c0.934,0.244,93.99,24.097,194.99,24.097c100.996,0,194.07-23.853,194.994-24.097l2.349-0.604v-30.189l-1.251-0.946
	c-0.115-0.09-12.174-9.267-21.934-19.22c-4.762-4.864-11.108-13.193-14.625-21.991c-3.979-9.994-3.549-18.192,1.293-24.369
	c4.989-6.382,11.396-9.616,19.04-9.616c4.476,0,7.716,1.188,7.735,1.193l2.859,1.085l1.161-2.83
	c5.997-14.656,14.118-23.217,14.198-23.307l2.396-2.492l-2.711-2.145c-17.528-13.916-20.503-39.483-6.616-56.983
	c7.732-9.741,19.31-15.321,31.771-15.321c9.24,0,17.971,3.046,25.229,8.806l5.089,4.042v-26.313L580.035,151.333z M354.752,123.729
	c4.106-0.342,15.684-0.563,19.341-0.253c1.457,0.098,1.777,0.605,1.874,1.433c0.006,0.311,0.031,1.771,0.038,3.945
	c0.392,0.714,0.937,1.226,1.989,1.266c1.405,0.076,6.27,0.546,7.54,4.998c1.271,4.449,1.046,14.278,0.504,16.914
	c-0.484,2.373-2.349,6.013-7.181,6.076c-1.557,0.016-2.432,0.41-2.801,1.373c-0.01,1.399-0.017,2.345-0.032,2.631
	c-0.097,2.005-1.238,3.151-3.626,3.815c-2.387,0.671-14.589,0.289-16.498-0.289c-1.912-0.568-3.067-1.332-2.959-3.526
	c0.084-2.194-0.282-34.239-0.282-37.004C352.691,124.28,353.27,123.863,354.752,123.729 M306.114,111.574
	c0,0,0.101-2.385,14.114-2.385h0.976c14.011,0,14.116,2.385,14.116,2.385s3.299,8.76,0,24.134
	c-3.312,15.388-3.613,16.165-3.613,28.527v2.53c0,0-0.584,4.962-10.506,4.962h-0.976c-9.923,0-10.503-4.962-10.503-4.962v-2.53
	c0-12.363-0.304-13.139-3.611-28.527C302.805,120.334,306.114,111.574,306.114,111.574 M255.693,135.116
	c1.272-4.452,6.131-4.922,7.537-4.998c1.059-0.04,1.607-0.552,1.988-1.266c0.015-2.174,0.03-3.634,0.043-3.945
	c0.094-0.828,0.417-1.335,1.88-1.433c3.652-0.31,15.228-0.088,19.328,0.253c1.502,0.135,2.066,0.552,2.099,1.376
	c0,2.766-0.38,34.81-0.292,37.004c0.103,2.195-1.041,2.958-2.95,3.526c-1.909,0.578-14.115,0.959-16.507,0.289
	c-2.379-0.664-3.526-1.81-3.618-3.815c-0.016-0.286-0.022-1.238-0.029-2.634c-0.372-0.959-1.256-1.354-2.799-1.37
	c-4.834-0.063-6.7-3.703-7.183-6.076C254.643,149.394,254.422,139.564,255.693,135.116 M179.931,185.67h281.57
	c0.937,0,1.697,0.764,1.697,1.699c0,0.934-0.754,1.689-1.697,1.689h-281.57c-0.932,0-1.694-0.755-1.694-1.689
	C178.236,186.434,178.999,185.67,179.931,185.67 M440.292,242.706h-10.113l-8.419-12.581h-6.783v12.581h-8.65v-39.292h17.961
	c4.993,0,8.869,1.396,11.452,3.979c2.182,2.191,3.362,5.276,3.362,8.982v0.119c0,6.334-3.42,10.324-8.422,12.177L440.292,242.706z
	 M376.48,235.349c5.265,0,8.477-3.204,8.477-9.422v-22.519h8.631v22.171c0,11.896-6.674,17.74-17.23,17.74
	c-10.549,0-17.005-5.893-17.005-17.461v-22.45h8.65v22.229C368.003,232.034,371.199,235.349,376.48,235.349 M348.922,231.803v0.116
	c0,7.192-5.837,10.788-14.705,10.788h-18.693v-39.292h18.244c4.495,0,8.024,1.232,10.268,3.475c1.81,1.798,2.698,3.987,2.698,6.671
	v0.115c0,4.438-2.358,6.905-5.163,8.484C346.12,223.898,348.922,226.538,348.922,231.803 M287.58,226.817
	c-7.912-2.028-13.023-4.216-13.023-12.01v-0.116c0-7.139,5.724-11.848,13.756-11.848c5.723,0,10.609,1.802,14.591,4.991
	l-4.495,6.517c-3.475-2.41-6.896-3.871-10.215-3.871c-3.312,0-5.047,1.511-5.047,3.427v0.115c0,2.578,1.683,3.417,8.477,5.151
	c7.969,2.086,12.453,4.951,12.453,11.798v0.103c0,7.806-5.944,12.186-14.425,12.186c-5.942,0-11.945-2.079-16.67-6.289l5.113-6.114
	c3.527,2.907,7.24,4.77,11.729,4.77c3.534,0,5.671-1.409,5.671-3.699v-0.114C295.496,229.618,294.154,228.498,287.58,226.817
	 M264.634,222.936v0.119c0,11.059-8.54,19.647-20.883,19.647H228.43V203.41h15.321C256.094,203.414,264.634,211.882,264.634,222.936
	 M214.68,242.699h-8.641v-39.292h8.641V242.699z M157.828,242.706v-39.292h15.321c12.352,0,20.883,8.469,20.883,19.522v0.119
	c0,11.059-8.531,19.647-20.883,19.647h-15.321V242.706z M213.293,314.164c-0.931,0.173-1.746,0.25-2.495,0.237
	c-1.652,0-5.697-0.687-5.697-4.409c0-2.479,1.548-3.355,2.583-3.677c0.082-0.035,0.17-0.048,0.264-0.073
	c0.098-0.029,0.179-0.042,0.255-0.062c0.059-0.013,0.109-0.019,0.165-0.035h0.06c0.11-0.013,0.183-0.022,0.183-0.022l0.007,0.016
	c1.426-0.073,2.576,0.787,2.746,2.131c0.166,1.261-0.59,2.031-2.183,2.301c-0.27,0.029-0.671,0.013-0.927-0.309
	c0,0-0.056-0.188-0.467,0.135c-0.132,0.106,0.467,0.681,0.467,0.681c0.085,0.08,0.188,0.135,0.285,0.192v0.01
	c0.007,0.013,0.015,0.013,0.021,0.013c0.913,0.577,2.286,0.619,2.822,0.604h0.053c0.019,0,0.026-0.007,0.045-0.007
	c0.075,0,0.116-0.006,0.116-0.006c2.674-0.209,4.944-1.489,6.266-3.758c2.098-3.625,3.938-7.411,5.703-11.201
	c1.718-3.687,3.703-7.104,6.995-9.594c1.348-1.017,2.8-1.713,4.367-2.053v-0.029c0,0,0.138-0.032,0.367-0.064
	c0.034-0.006,0.069-0.006,0.106-0.013c0.392-0.063,0.988-0.108,1.574-0.096c0.047,0,0.092-0.007,0.157-0.007
	c0,0.007,0.006,0.013,0.006,0.02c0.448,0.025,0.871,0.115,1.176,0.302c0,0-0.857,0.067-1.958,0.751
	c-2.964,2.188-4.944,5.14-6.614,8.432c-2.257,4.428-4.531,8.862-7.173,13.065C220.46,310.987,217.397,313.381,213.293,314.164
	 M239.321,308.729c-3.101,4.226-9.245,5.775-13.343,3.619c-0.786-0.397-1.58-1.03-2.054-1.771c-1.057-1.648-0.247-2.993,1.813-3.218
	c-0.443,1.421,0.293,2.249,1.431,2.862c2.358,1.28,5.462,0.802,7.431-1.203c1.962-2.009,2.878-4.524,2.978-7.277
	c0.114-3.247-2.071-4.89-4.63-6.154c-1.275-0.642-1.975-1.389-0.94-2.868c2.493,1.161,4.574,0.205,6.414-1.39
	c1.85-1.607,2.556-3.764,1.869-6.1c-0.91-3.055-3.565-4.303-6.361-4.768c-6.903-1.168-12.935,0.693-17.617,6.045
	c-2.188,2.49-3.185,5.474-2.329,8.855c0.332,1.322,0.932,1.926,1.935,2.188c0.185-0.032,0.151-0.27,0.151-0.27s-1.292-1.293,0-2.733
	c0.927-1.046,2.229-0.661,2.888-0.359c0.027,0.013,0.046,0.013,0.076,0.019c0.014,0.007,0.021,0.022,0.033,0.032
	c0.207,0.09,0.329,0.174,0.329,0.174l-0.013,0.028c0.863,0.565,1.182,1.419,1.076,2.465c-0.157,1.514-1.445,2.913-2.878,3.243
	c-1.834,0.424-3.856-0.288-4.907-1.912c-2.031-3.15-1.762-6.497-0.373-9.734c2.58-6.02,7.593-9.064,13.717-10.342
	c4.436-0.931,8.941-0.895,13.235,0.928c3.825,1.63,5.878,4.518,5.665,8.012c-0.213,3.434-2.284,5.566-5.201,7.023
	c-0.818,0.404-1.689,0.699-2.773,1.123c3.571,1.488,5.583,3.953,4.962,7.602C241.556,304.9,240.569,307.034,239.321,308.729
	 M270.137,307.278c-1.133,0.629-2.543,1.643-4.133,2.207c-1.758,0.636-3.674,1.046-5.546,1.146
	c-2.448,0.142-3.615-0.953-4.213-3.096c-5.132,3.445-9.669,3.192-9.669,3.192c-3.354,0.013-5.245-1.986-4.414-5.191
	c1.601-6.174,5.304-10.672,11.511-12.78c1.439-0.48,2.966-0.654,3.982,0.783c1.016,1.431,0.558,2.907-0.388,4.22
	c-2.126,2.936-5.155,4.212-8.657,4.511c-1.657,0.147-2.297,0.921-2.338,3.077c-0.032,1.521,0.771,2.478,2.235,2.673
	c2.665,0.337,7.339-2.403,8.48-4.861c2.286-4.89,5.507-8.868,10.944-10.479c1.396-0.418,2.856-0.559,3.857,0.757
	c1.028,1.325,0.68,2.798-0.191,4.081c-2.085,3.055-5.158,4.38-8.713,4.717c-1.718,0.167-2.458,1.046-2.443,3.164
	c0.006,1.559,0.919,2.676,2.493,2.541c1.36-0.103,2.834-0.392,4.004-1.065c4.141-2.388,7.376-5.725,9.463-10.036
	c0.069-0.154,0.148-0.296,0.191-0.439c0.01-0.014,0.01-0.014,0.016-0.026c1.097-3.058-1.833-3.985-1.833-3.985v-0.65
	c3.871-1.015,5.229,1.007,5.52,1.527c0.016,0.031,0.029,0.051,0.042,0.08l0.017,0.041c0.256,0.539,0.35,1.332,0.487,1.688
	c0.061-0.025,0.114-0.066,0.17-0.09c3.781-3.458,8.108-3.42,8.186-0.654c0.045,1.679-0.491,2.605-0.934,3.08
	c-0.05,0.062-0.1,0.116-0.142,0.161c-0.125,0.103-0.22,0.186-0.285,0.221c-0.017,0.01-0.031,0.022-0.037,0.029
	c-0.066,0.042-0.111,0.061-0.111,0.061v-0.006c-0.651,0.375-1.457,0.442-2.047,0.105c-1.454-0.799-1.204-1.919-0.283-3.115
	c-3.979,0.729-12.091,12.838-10.163,15.135c-0.611,0.546-1.32,0.771-1.994,0.748l0.02,0.035
	C273.222,310.772,270.38,311.122,270.137,307.278 M291.775,355.83h-19.395c-0.128-2.156,0.514-4.017,1.607-5.531
	c1.866-2.605,5.083-4.312,7.948-6.045c1.152-0.713,3.022-1.611,3.022-3.25c0-2.028-1.194-2.737-2.705-2.737
	c-2.572,0-3.439,1.867-3.377,4.601h-6.045c-0.354-6.141,3.472-9.683,9.487-9.683c5.436,0,9.135,2.284,9.135,7.046
	c0,5.724-5.596,7.523-9.812,10.101v0.028h10.134v5.471H291.775z M308.645,356.087c-4.056,0-9.521-2.798-9.521-11.454
	c0-8.65,5.466-11.445,9.487-11.445c4.088,0,9.556,2.798,9.556,11.445C318.166,353.289,312.698,356.087,308.645,356.087
	 M320.882,295.381c1.37,0.048,2.31,0.863,2.606,2.227c0.339,1.592-0.26,2.9-1.598,3.761c-0.455,0.295-0.912,0.423-1.346,0.465
	l-0.007,0.013h-0.158h-0.044c-0.597,0-2.396-0.218-2.072-2.948c-0.919,0.073-2.33,0.609-3.7,2.791
	c-1.806,3.081-3.722,6.074-6.581,8.355c-2.477,1.977-5.271,2.997-8.428,2.917l0.029,0.016c-1.702,0-5.848-0.719-5.848-4.527
	c0-2.464,1.489-3.385,2.552-3.731c0.724-0.369,1.529-0.392,2.285,0.052c0.756,0.455,1.458,1.623,1.487,2.489
	c0.043,1.238-0.841,1.79-2.004,1.854c-0.916,0.004-0.929-0.385-1.351-0.263c-0.417,0.132-0.183,0.487-0.183,0.487
	c1.192,1.576,4.205,1.072,4.205,1.072l-0.038-0.014c1.941-0.201,3.63-1.084,5.036-2.502c2.215-2.23,3.598-4.938,4.8-7.861
	c-1.147-0.26-2.201-0.395-3.177-0.754c-4.896-1.822-7.357-6.818-6.013-12.061c2.349-9.177,11.102-13.804,20.706-10.938
	c0.96,0.279,1.929,0.594,2.91,0.828c4.637,1.091,7.46,1.928,11.972-1.669c0.751,1.857,0.025,3.677-1.983,4.849
	c-2.711,1.571-5.599,1.36-8.496,0.667c-2.602-0.629-5.182-1.428-7.797-1.982c-6.305-1.322-12.402,1.828-14.49,7.354
	c-1.869,4.967,0.128,9.526,4.736,10.852c2.262,0.648,2.795,0.442,3.682-1.736c1.593-3.911,3.743-7.415,7.107-10.052
	c2.024-1.599,4.288-2.551,7.08-2.285c-4.594,3.1-7.067,7.666-9.159,12.642C318.764,295.605,319.824,295.349,320.882,295.381
	 M338.278,355.83h-6.687v-12.898h-5.246v-4.633c3.254,0.064,6.466-1.155,6.658-4.857h5.274V355.83L338.278,355.83z M358.043,356.087
	c-4.825,0-9.937-1.64-9.937-7.078c0-3.824,2.858-4.627,4.47-4.922v-0.061c-2.381-0.646-3.472-2.281-3.472-4.694
	c0-4.922,5.236-6.147,8.938-6.147c6.142,0,9.071,2.897,9.071,6.147c0,2.316-1.383,4.209-3.507,4.694v0.061
	c2.477,0.263,4.408,2.156,4.408,4.922C368.016,354.319,362.574,356.087,358.043,356.087 M437.578,278.645
	c-0.392,3.94-2.695,6.835-5.468,9.379c-2.638,2.403-5.635,4.229-9.147,5.144c-0.529,0.128-1.12,0.594-1.383,1.062
	c-1.797,3.206-3.556,6.434-5.243,9.706l-0.013,0.007c0,0-0.115,0.205-0.27,0.529c-0.029,0.035-0.049,0.074-0.064,0.112
	c0,0.01-0.006,0.022-0.006,0.022c-0.536,1.075-1.438,3.058-1.047,3.353c0.526,0.398,8.997-1.838,13.352-10.146
	c0.163,0.055,0.327,0.116,0.49,0.161v0.013l0.523,0.195c0,0-1.19,4.614-7.8,9.244c-0.231,0.17-0.456,0.334-0.693,0.475
	c-0.032,0.039-0.07,0.064-0.103,0.077c-0.337,0.205-0.681,0.421-1.033,0.613c-1.682,0.889-3.661,1.421-5.558,1.61
	c-2.374,0.228-3.288-0.729-3.737-3.016c-7.277,3.917-9.379,4.094-10.913,0.792c-2.451,1.431-4.954,3.658-7.87,1.425
	c-2.346-1.8-1.248-4.37-0.729-6.754c-0.404-0.077-0.796-0.145-1.129-0.219l-0.851-0.186c-3.559,4.476-6.106,6.272-7.492,7.008
	c-1.071,0.465-2.221,0.795-3.324,0.969c-2.926,0.478-4.44-1.043-4.723-4.245c-0.925,0.712-1.675,1.473-2.573,1.982
	c-1.393,0.803-2.827,1.637-4.361,2.096c-2.775,0.841-3.939,0.253-5.22-2.076c-1.771,0.761-3.484,1.585-5.266,2.218
	c-1.543,0.516-3.058,0.42-4.401-0.806c-0.286-0.26-1.104-0.138-1.582,0.051c-3.157,1.175-6.398,1.932-9.716,0.982
	c-1.412-0.398-2.666-1.374-4.29-2.263c-2.031,1.2-4.685,2.365-7.71,2.346c-3.308-0.013-5.194-2.05-4.345-5.252
	c1.637-6.148,5.33-10.656,11.551-12.732c1.38-0.471,2.862-0.612,3.87,0.7c1.065,1.389,0.68,2.875-0.251,4.193
	c-2.078,2.997-5.107,4.29-8.599,4.633c-1.771,0.174-2.458,0.956-2.474,3.119c-0.013,1.64,0.928,2.631,2.628,2.625
	c2.746-0.022,5.021-1.354,6.859-3.157c2.291-2.23,4.306-4.742,6.372-7.175c0.293-0.34,0.392-0.914,0.463-1.393
	c0.019-0.045,0.025-0.083,0.025-0.115v-0.007c0.006-0.038,0.022-0.07,0.029-0.109c0.093-0.5,0.221-0.975,0.388-1.424
	c1.569-4.724,4.572-4.909,5.214-4.941c0.699-0.039,2.645,0.773,1.3,3.103c-1.315,2.311-4.043,4.091-4.088,4.116
	c-0.237,0.485-0.225,0.928,0.038,1.479c0.084,0.209,0.219,0.385,0.341,0.587c0.308,0.491,0.564,0.934,0.789,1.348v-0.006
	c0,0,3.35,4.922-0.376,7.928c1.711-0.442,2.987-1.084,3.851-2.948c1.537-3.356,3.61-6.449,5.448-9.658
	c0.189-0.327,0.401-0.642,0.713-1.142h-3.719c0.442-1.899,1.726-2.522,3.291-2.349c0.359,0.045,0.671,0.032,0.957-0.02l-0.01,0.02
	c0,0,0.035,0,0.086-0.02c0.706-0.128,1.22-0.526,1.572-1.13c0.334-0.385,0.664-0.892,0.928-1.591
	c0.164-0.411,0.282-0.751,0.379-1.053c0.006-0.02,0.013-0.064,0.025-0.087c0.437-1.459,0.202-1.832-0.276-2.336
	c1.3-0.013,2.362-0.17,3.366,0.026c1.226,0.228,1.607,1.151,1.084,2.31c-0.552,1.217-1.177,2.385-1.851,3.738
	c1.533-0.006,2.936-0.006,4.363-0.006c0,0.18,0.007,0.49,0,0.74c0.619,0,1.185-0.041,1.749,0.007
	c1.655,0.122,2.457,1.226,1.783,2.76c-0.692,1.581-1.648,3.051-2.496,4.572c-1.039,1.851-2.098,3.702-3.08,5.573
	c-0.234,0.459-0.424,1.299-0.192,1.505c0.366,0.34,1.104,0.503,1.637,0.41c0.744-0.135,1.533-0.433,2.13-0.892
	c3.709-2.814,6.809-6.18,8.811-10.409c0.912-1.89-0.52-3.131-0.52-3.131c0.032-0.212,0.95-1.769,2.975-1.769
	c0.581,0,0.959,0.154,1.248,0.376c0.045,0.019,0.084,0.048,0.132,0.054c1.704,1.326-0.684,7.534-3.901,11.195
	c-3.244,3.706-1.303,5.468-1.303,5.468c0.25,0.157,0.535,0.237,0.844,0.25c3.594,0,8.875-7.19,8.875-7.19h0.019
	c-1.021-1.21-1.47-2.5-1.501-3.838l-0.014-0.006c0-0.062,0-0.109,0.007-0.17c-0.007-0.27,0.013-0.559,0.032-0.848
	c0.257-3.469,1.807-5.144,3.542-4.902c1.919,0.263,2.188,1.784,2.188,4.357s-1.502,4.556-1.502,4.556
	c1.367,0.344,2.304,0.145,3.193-1.123c2.274-3.267,5.008-6.067,9.115-7.014c2.262-0.514,3.25-0.263,4.848,1.31
	c2.76-1.971,3.706-2.093,5.445-0.693c-3.414,3.427-5.211,7.887-7.602,11.952c-0.045,0.054-0.045,0.128-0.073,0.188
	c-0.437,0.889-1.13,2.305-1.185,2.965c-0.105,1.008,4.428-1.514,4.428-1.514l-0.045-0.039c2.442-1.393,4.387-3.382,5.904-5.775
	c1.46-2.329,2.788-4.736,4.174-7.11c-2.422-1.784-2.926-2.849-2.078-4.588c0.654-1.322,1.703-1.679,3.07-1.207
	c-1.765,2.118,0.093,3.337,0.093,3.337c3.299-4.164,6.1-7.957,9.189-11.499c1.408-1.607,3.222-3.003,5.099-4.036
	C435.979,274.092,437.889,275.5,437.578,278.645 M372.755,285.29c1.126-1.12,2.692-1.348,3.501-0.533
	c0.809,0.825,0.564,2.385-0.559,3.501c-1.117,1.11-2.683,1.341-3.498,0.52C371.382,287.956,371.635,286.396,372.755,285.29
	 M461.501,259.625h-281.57c-0.932,0-1.694-0.755-1.694-1.698c0-0.921,0.762-1.69,1.694-1.69h281.57c0.937,0,1.697,0.77,1.697,1.69
	C463.195,258.867,462.438,259.625,461.501,259.625 M469.124,227.033v15.673h-8.644V227.21l-15.105-23.796h10.113l9.375,15.76
	l9.536-15.76h9.831L469.124,227.033z"/>
<path fill="#0D8256" d="M358.012,342.322c1.575,0,3.375-0.481,3.375-2.349c0-2.124-1.668-2.513-3.344-2.513
	c-1.674,0-3.218,0.479-3.218,2.513C354.828,341.738,356.465,342.322,358.012,342.322"/>
<path fill="#0D8256" d="M358.107,346.083c-1.861,0-3.632,0.642-3.632,2.894c0,1.932,1.96,2.478,3.571,2.478
	c1.575,0,3.6-0.546,3.6-2.478C361.644,346.82,360.039,346.083,358.107,346.083"/>
</svg>
