<svg xmlns="http://www.w3.org/2000/svg" viewBox="0 0 414.14 424.65"><title>DBF12</title><g style="isolation:isolate"><g id="Layer_1" data-name="Layer 1"><path d="M167,229.87v86.6h.06V143.17H167Z" transform="translate(-9.01 -16.4)" style="fill:none"/><path d="M166.78,316.46V143.17h.06V16.83c-58.65-.43-126.11-.43-126.11-.43V438.52s67.54.88,126.11,1V316.46Z" transform="translate(-9.01 -16.4)" style="fill:#131f6b"/><path d="M409.88,229.23H289.4c-1-75.58-44.74-84.55-53.19-85.28-8.83-.76-68-.77-69.37-.77V16.83c37.49.27,71.65.72,82.12,1.46,25.64,1.8,160,21.17,160.92,209.12" transform="translate(-9.01 -16.4)" style="fill:#131f6b"/><path d="M409.88,229.23H289.4c0,.56,0,1.09,0,1.66h0c0,.11,0,.22,0,.34s0,.22,0,.34h0c-.31,77.16-46,85-53.55,85.92-8.07,1-67.74,0-69.1,0V440.58c38,.1,72.21-.1,81.86-1,22.71-2.2,160.28-21.34,161.22-209.3h0c0-.28,0-.55,0-.82C409.88,229.36,409.88,229.3,409.88,229.23Z" transform="translate(-9.01 -16.4)" style="fill:#d9272e"/><circle cx="272.94" cy="77.48" r="51.87" style="fill:none;stroke:#ff6c36;stroke-miterlimit:10;stroke-width:5.84729968404382px"/><path d="M272,93.1a35.89,35.89,0,0,1,27.93-35,39.4,39.4,0,1,0,2.26,70.42A35.89,35.89,0,0,1,272,93.1Z" transform="translate(-9.01 -16.4)" style="fill:#fff"/><path d="M265.9,106.46c5.22-2,11.42-2.6,15.13-6.79,2.16-2.44,3.12-5.79,5.39-8.14,5.22-5.4,14.09-3.11,21.56-3.88,7-.72,13.33-4.44,19.92-7s14.47-3.86,20.4,0c4.28,2.77,6.77,7.75,11.11,10.42,9.8,6,24.35-2.07,33.39,5,3.61,2.84,5.37,7.52,8.93,10.42,6.23,5.08,16.68,3.72,21.42,10.21-2.1,3.71-7.17,4.15-11.43,4.15l-91.16-.05-45.58,0c-4,0-14.27,2.06-16.7-2.21C255.49,113.66,261.88,108,265.9,106.46Z" transform="translate(-9.01 -16.4)" style="fill:#446ca9;mix-blend-mode:multiply"/><path d="M120.59,68.35c6-2.35,13.2-3,17.49-7.85,2.5-2.82,3.61-6.7,6.23-9.41,6-6.24,16.29-3.6,24.93-4.48,8.13-.83,15.41-5.13,23-8.09s16.72-4.47,23.58,0c4.95,3.2,7.82,9,12.84,12,11.33,7,28.15-2.39,38.6,5.83,4.17,3.28,6.21,8.7,10.32,12,7.2,5.87,19.28,4.3,24.76,11.8C299.94,84.5,294.08,85,289.16,85l-105.37-.06-52.68,0c-4.59,0-16.49,2.39-19.3-2.55C108.56,76.67,116,70.16,120.59,68.35Z" transform="translate(-9.01 -16.4)" style="fill:#446ca9;mix-blend-mode:multiply"/><polyline points="69.82 43.93 64.69 38.11 43.44 51.44 46.42 59.39" style="fill:none;stroke:#fff;stroke-miterlimit:10;stroke-width:2.13566474507353px"/><polyline points="122.46 44.94 127.59 39.12 148.84 52.45 145.5 61.35" style="fill:none;stroke:#fff;stroke-miterlimit:10;stroke-width:2.13566474507353px"/><polyline points="74.29 43.14 75.54 33.07 116.5 33.07 118.51 44.26" style="fill:none;stroke:#fff;stroke-miterlimit:10;stroke-width:2.13566474507353px"/><path d="M164.81,96.59C152,62.15,118.52,57.15,106,56.5v-.06s-.88,0-2.4,0-2.4,0-2.4,0v.06c-12.47.65-45.91,5.65-58.76,40.09H22.23l13.84,28.48H53.61s5.05-44.41,50-46.75c45,2.34,50,46.75,50,46.75h17.55l13.84-28.48Z" transform="translate(-9.01 -16.4)" style="fill:none;stroke:#fff;stroke-linecap:round;stroke-linejoin:round;stroke-width:2.13566474507353px"/><circle cx="94.64" cy="117.38" r="37.48" style="fill:none;stroke:#fff;stroke-miterlimit:10;stroke-width:2.13566474507353px"/><circle cx="94.64" cy="117.38" r="29.94" style="fill:#fff"/><polyline points="41 108.67 41 177.7 148.27 177.7 148.27 108.67" style="fill:none;stroke:#fff;stroke-linecap:round;stroke-linejoin:round;stroke-width:2.13566474507353px"/><line x1="47.21" y1="177.7" x2="47.21" y2="351.02" style="fill:#cd242f;stroke:#fff;stroke-miterlimit:10;stroke-width:2.13566474507353px"/><line x1="143.07" y1="177.7" x2="143.07" y2="348" style="fill:#cd242f;stroke:#fff;stroke-miterlimit:10;stroke-width:2.13566474507353px"/><path d="M110.15,24.62H99.76s-.34,13-8.08,15.87l2.47,9h21.61l2.47-9C110.48,37.58,110.15,24.62,110.15,24.62Z" transform="translate(-9.01 -16.4)" style="fill:none;stroke:#fff;stroke-miterlimit:10;stroke-width:2.13566474507353px"/><path d="M93.78,112.22,98.64,110h1.63v13.45H97.36V113.39c-.88.38-2.13.77-2.84,1.08Z" transform="translate(-9.01 -16.4)" style="fill:#d9272e"/><path d="M106.66,121.25c.79-.1,1.94-.12,2.09-.12h3.84v2.36h-9.86l-.29-1.77,5.11-4.71c.88-.77,1.81-1.82,1.81-2.84a1.86,1.86,0,0,0-2.11-1.9,2,2,0,0,0-2.21,2.07h-2.81c0-1.77,1.27-4.52,5-4.52,2.94,0,4.94,1.67,4.94,4.32,0,2.09-1.5,3.65-2.79,4.75Z" transform="translate(-9.01 -16.4)" style="fill:#d9272e"/><line x1="79.79" y1="111.22" x2="94.64" y2="119.51" style="fill:none;stroke:#242f5e;stroke-linecap:round;stroke-miterlimit:10;stroke-width:4.27132949014707px"/><line x1="113.93" y1="108.55" x2="94.64" y2="119.51" style="fill:none;stroke:#242f5e;stroke-linecap:round;stroke-miterlimit:10;stroke-width:4.27132949014707px"/><circle cx="193.26" cy="96.54" r="1.94" style="fill:#fff"/><circle cx="300.04" cy="160.61" r="1.94" style="fill:#fff"/><circle cx="368.8" cy="155.65" r="1.94" style="fill:#fff"/><circle cx="344.6" cy="114.36" r="1.94" style="fill:#fff"/><circle cx="171.9" cy="53.83" r="1.94" style="fill:#fff"/><circle cx="214.61" cy="32.47" r="1.94" style="fill:#fff"/><circle cx="150.54" cy="15.39" r="1.94" style="fill:#fff"/><rect x="240.95" y="196.55" width="2.84" height="32.02" transform="translate(48.57 -68) rotate(13.77)" style="fill:#cd242f"/><rect x="242.86" y="194.66" width="7.13" height="2.89" transform="translate(42.38 -67.57) rotate(13.22)" style="fill:#cd242f"/><rect x="250.57" y="198.64" width="2.84" height="32.02" transform="translate(49.34 -70.23) rotate(13.77)" style="fill:#cd242f"/><rect x="252.48" y="196.74" width="7.13" height="2.89" transform="translate(43.11 -69.72) rotate(13.22)" style="fill:#cd242f"/><rect x="234.64" y="227.52" width="7.13" height="2.89" transform="translate(49.68 -64.82) rotate(13.22)" style="fill:#cd242f"/><rect x="244.26" y="229.61" width="7.13" height="2.89" transform="translate(50.41 -66.97) rotate(13.22)" style="fill:#cd242f"/><rect x="260.6" y="200.84" width="2.84" height="32.02" transform="translate(50.15 -72.56) rotate(13.77)" style="fill:#cd242f"/><rect x="262.51" y="198.94" width="7.13" height="2.89" transform="translate(43.88 -71.95) rotate(13.22)" style="fill:#cd242f"/><path d="M289.8,207.87a137.73,137.73,0,0,1-21.32-3l-35.62-7.78s-24-10.22-27.09-27.34c0,0,.07-3.84-2.51-2.08,0,0-11.79,19.63-8,48,0,0,2.15,1,3-2.12,0,0,11.57-11.92,20.6-11.92a83,83,0,0,1,9.76,1,12.55,12.55,0,0,0,5.25,20.25l35,7.67A12.54,12.54,0,0,0,282,212.87a29.47,29.47,0,0,1,6,2.52Zm-11.59,14.18a8.37,8.37,0,0,1-8.49,4.51l-34.87-7.64a8.41,8.41,0,0,1-.8-15.43c16.33,2.65,38.69,7.14,38.69,7.14s.95.16,2.39.47A8.3,8.3,0,0,1,278.21,222.06Z" transform="translate(-9.01 -16.4)" style="fill:#d9272e"/><path d="M268.27,215a62.85,62.85,0,0,0-1.93-10.54c-.35-1.28-1.05-2.8-2.38-2.83a2.12,2.12,0,0,0-1.81,1.19,5.3,5.3,0,0,0-.5,2.2,23.24,23.24,0,0,0,.13,4.32,10.76,10.76,0,0,0-1.83-5.6,5.79,5.79,0,0,0-5.13-2.48,1.28,1.28,0,0,0-1,.54,1.45,1.45,0,0,0-.06.89,45.15,45.15,0,0,0,2.36,9.18,24.7,24.7,0,0,0-2.48-5.52c-.75-1.23-2-2.55-3.39-2.13a2.39,2.39,0,0,0-1.49,2.06,7,7,0,0,0,.37,2.64l1.7,6.23L249.73,213a3.07,3.07,0,0,0-1-1.34,1.92,1.92,0,0,0-2.29.38,3.39,3.39,0,0,0-.86,2.29,11.17,11.17,0,0,0,1.29,4.78q5,11.45,10.16,22.86a5.66,5.66,0,0,0,2.14,2.87,4.65,4.65,0,0,0,2.94.29,26,26,0,0,0,3.62-.94l5.34-1.66a5.05,5.05,0,0,0,3.1-1.9l-2.34-6.77a24.48,24.48,0,0,1-1-3.57c-.66-3.64.34-7.37,1.61-10.84a71.37,71.37,0,0,1,3.6-8.21c.05-.11-4.36-1.56-5.06-.89-.46.44-.68,1.79-1,2.39A11.35,11.35,0,0,1,268.27,215Z" transform="translate(-9.01 -16.4)" style="fill:#fff"/><path d="M338,201.31a43.11,43.11,0,0,0,1.92-6.69c.68-3.74.46-7.81-1.57-11a21.89,21.89,0,0,0-3.9-4.26L327.47,173c-6.83-6.25-16.18-3.78-22.41,2.41a32.73,32.73,0,0,0-7.76,13.49c-.49,1.56-1,3.29-2.41,4.15a8.33,8.33,0,0,1-3.75.75,14.65,14.65,0,0,0-5.6,1.65c-1,.54-2.1,1.51-1.83,2.63a2.31,2.31,0,0,0,.87,1.18,15.37,15.37,0,0,0,3.91,1.9,6.52,6.52,0,0,1,3.41,2.58c.7,1.27.43,3.17-.89,3.79-.64.3-1.55.38-1.75,1.06s.63,1.28,1.08,1.89a2.21,2.21,0,0,1-1.94,3.32c-.43.38-.26,1.11.11,1.55a15.23,15.23,0,0,1,1.21,1.23c1.2,1.83-1.3,3.89-1.66,6-.41,2.49,2.2,4.47,4.66,5.07s5.17.5,7.3,1.85a8.3,8.3,0,0,1,3.45,6,24.58,24.58,0,0,1-.4,7.08,218.78,218.78,0,0,0,27.3,1.64,3.39,3.39,0,0,0,1.94-.4c1.05-.72,1-2.27.79-3.54a75.65,75.65,0,0,1-.68-11.53s3.48-9.1,10-13.29Z" transform="translate(-9.01 -16.4)" style="fill:#fff"/><path d="M300.69,186.08c4.17,2,12.31,7,16.32,9.33,6.15,3.61,8.93,2.61,12.36,8.86,1.32,2.41,1.6,5.22,2.8,7.7,1.07,2.22,4.35,4.08,6.29,5.6a3.2,3.2,0,0,0,2.74.9,3.46,3.46,0,0,0,1.46-1.12A49.7,49.7,0,0,0,351,205.63c2.06-4.36,3-9.4,1.74-14.06-1.67-6.2-5.67-8.83-10.59-12.95A55.14,55.14,0,0,0,331,171.39a30.46,30.46,0,0,0-19.36-2.33,65.53,65.53,0,0,0-11.43,3c-2.41.89-8,.3-10.13,1.82s-2.67,4.89-.29,6.44A104.62,104.62,0,0,0,300.69,186.08Z" transform="translate(-9.01 -16.4)" style="fill:#00945e"/><path d="M302.14,192.39c-.17,1.38-.28,3,.67,4a2.69,2.69,0,0,0,3,.54,3.37,3.37,0,0,0,1.88-2.43" transform="translate(-9.01 -16.4)" style="fill:none;stroke:#131f6b;stroke-linecap:round;stroke-miterlimit:10;stroke-width:1.22160029121046px"/><path d="M318.83,202.81a5.78,5.78,0,0,1,2.95-1.77,3.41,3.41,0,0,1,3.2.94,4.42,4.42,0,0,1,.86,3.13,10.66,10.66,0,0,1-4.66,8.35,3.14,3.14,0,0,1-1.62.63c-1.55,0-2.43-1.76-2.79-3.27" transform="translate(-9.01 -16.4)" style="fill:none;stroke:#131f6b;stroke-linecap:round;stroke-miterlimit:10;stroke-width:1.22160029121046px"/><path d="M313.75,407l-35.59,10.68s-11-68.72-2.28-92h0l81.3-2.66A183.28,183.28,0,0,1,346,360.88L363,380.16s-14.53,17.44-26.82,25.33c-2.13.55-7.57,1.1-7.57,1.1Z" transform="translate(-9.01 -16.4)" style="fill:#00945e"/><path d="M276.46,341.84h80.89c4-31.5-21.09-114-24.83-108.38s-31,5.34-31,5.34l-11.75,22.69-18-27.59-16.73,6.77,24.83,40.84s-8,35.77-8,60.33V333.3Z" transform="translate(-9.01 -16.4)" style="fill:#131f6b"/><path d="M360.34,383.32a11.63,11.63,0,0,0,.73-1,21.64,21.64,0,0,0-42.88,4.09c0,9.9,8.25,17,17.32,19.57,0,0,8.34-5.33,13.88-11.25l1.53-1.63-1.53,1.63s8.9-8.46,10.95-11.37m-8.68,9Z" transform="translate(-9.01 -16.4)" style="fill:#131f6b"/><path d="M360.39,383.25l-.05.07Z" transform="translate(-9.01 -16.4)" style="fill:#131f6b"/><path d="M397.21,242.88c-13.73-4.8-15.89,2.48-15.89,2.48s-8.44,23-8.27,24.82,3.64,4.8,3.64,4.8l-12.44,33.23a56.45,56.45,0,0,0-17.18,0c-32.27,4.8-25.81,42.69-25.81,42.69s1,12.25-7.78,17c0,0-43.52,18.86-34.91,63.87l.31,1.82a176.65,176.65,0,0,0,57.3-28.17,19.76,19.76,0,1,1,24.07-22.14c13.28-14.91,25.21-33.76,34-57.63A43.36,43.36,0,0,0,380,313.57l11.95-33s4.58,0,5.88-1.29,9.81-24.26,9.81-24.26S410.78,248.14,397.21,242.88Z" transform="translate(-9.01 -16.4)" style="fill:#ff6c36"/><polygon points="375.25 231.46 369.3 229.09 369.97 227.45 367.16 226.3 364.59 232.57 367.4 233.72 368.13 231.94 374.12 234.32 375.25 231.46" style="fill:#ff6c36"/><polygon points="371.9 240.03 365.95 237.66 366.62 236.02 363.81 234.87 361.24 241.14 364.05 242.29 364.78 240.51 370.77 242.89 371.9 240.03" style="fill:#ff6c36"/><polygon points="368.65 248.24 362.69 245.88 363.36 244.23 360.55 243.09 357.99 249.36 360.8 250.5 361.52 248.72 367.51 251.1 368.65 248.24" style="fill:#ff6c36"/><polygon points="394.78 238.99 400.77 241.29 401.39 239.63 404.23 240.69 401.86 247.04 399.01 245.98 399.69 244.18 393.68 241.86 394.78 238.99" style="fill:#ff6c36"/><polygon points="391.43 247.56 397.41 249.86 398.03 248.2 400.87 249.26 398.5 255.61 395.66 254.54 396.33 252.74 390.32 250.43 391.43 247.56" style="fill:#ff6c36"/><polygon points="388.25 255.8 394.23 258.11 394.85 256.44 397.69 257.51 395.32 263.85 392.48 262.79 393.15 260.99 387.14 258.67 388.25 255.8" style="fill:#ff6c36"/><line x1="367.27" y1="259.66" x2="382.56" y2="265.28" style="fill:none;stroke:#fff;stroke-miterlimit:10;stroke-width:2.13566474507353px"/><line x1="363.54" y1="269.64" x2="378.99" y2="275.18" style="fill:none;stroke:#fff;stroke-miterlimit:10;stroke-width:2.13566474507353px"/><line x1="359.55" y1="280.21" x2="375.09" y2="285.95" style="fill:none;stroke:#fff;stroke-miterlimit:10;stroke-width:2.13566474507353px"/><line x1="355.55" y1="291.08" x2="371.18" y2="296.68" style="fill:none;stroke:#fff;stroke-miterlimit:10;stroke-width:2.13566474507353px"/><line x1="352.06" y1="302.28" x2="367.7" y2="307.87" style="fill:none;stroke:#fff;stroke-miterlimit:10;stroke-width:2.13566474507353px"/><line x1="347.36" y1="314.74" x2="363" y2="320.34" style="fill:none;stroke:#fff;stroke-miterlimit:10;stroke-width:2.13566474507353px"/><line x1="342.6" y1="326.9" x2="358.24" y2="332.49" style="fill:none;stroke:#fff;stroke-miterlimit:10;stroke-width:2.13566474507353px"/><line x1="338.21" y1="339.02" x2="353.85" y2="344.61" style="fill:none;stroke:#fff;stroke-miterlimit:10;stroke-width:2.13566474507353px"/><circle cx="388.04" cy="250.42" r="1.74" transform="translate(-9.61 -15.47) rotate(-0.14)" style="fill:#fff"/><circle cx="399.08" cy="254.55" r="1.74" transform="translate(-9.62 -15.45) rotate(-0.14)" style="fill:#fff"/><circle cx="384.71" cy="259.45" r="1.74" transform="translate(-9.63 -15.48) rotate(-0.14)" style="fill:#fff"/><circle cx="395.74" cy="263.58" r="1.74" transform="translate(-9.64 -15.46) rotate(-0.14)" style="fill:#fff"/><circle cx="381.64" cy="267.95" r="1.74" transform="translate(-9.65 -15.49) rotate(-0.14)" style="fill:#fff"/><circle cx="392.67" cy="272.08" r="1.74" transform="translate(-9.66 -15.46) rotate(-0.14)" style="fill:#fff"/><path d="M166.82,242.22a50.47,50.47,0,0,1-17.87,20.17c-11.77,7.53-27.2,10.59-35,22.16-7.69,11.37-6,28.56-17,36.84-2.63,2-5.74,3.21-8.68,4.7C74.88,332.85,65,345.23,58.63,358.81S49.16,387.23,46.48,402c-2.32,12.81-4.32,25.68-5.85,38.61H166.82Z" transform="translate(-9.01 -16.4)" style="fill:#00945e"/><path d="M240.42,297.45c2.63,1.51,3.77,4.67,4.54,7.61q.68,2.62,1.19,5.29c.41,2.15.83,4.5,2.49,5.93s3.79,1.51,5.53,2.6a1.29,1.29,0,0,1,.53.52,1.34,1.34,0,0,1-.37,1.31,7.56,7.56,0,0,1-4.51,2.73c-1.46.27-3.37.38-3.81,1.8-.38,1.22.74,2.64.11,3.76a2.15,2.15,0,0,1-.93.8c-2.08,1.07-5,.77-6.27,2.75a3.66,3.66,0,0,0,1.15,4.61,7.46,7.46,0,0,0,5,1.19c.62,0,1.36-.05,1.72.46a1.48,1.48,0,0,1,.22.59,5.87,5.87,0,0,1-2.07,5.25,13.47,13.47,0,0,1-5.23,2.62c-4.08,1.23-8.63,1.77-12.51,0a15,15,0,0,1-6.76-6.78,37.42,37.42,0,0,1-3.11-9.21c-1.24-5.35-2.2-10.95-1-16.31a28.28,28.28,0,0,1,3.78-8.7c1.92-3.07,4.49-6.08,8-7,1.21-.3,2.49-.34,3.68-.71,1.41-.44,2-1.91,3.31-2.28C236.58,295.9,239.15,296.72,240.42,297.45Z" transform="translate(-9.01 -16.4)" style="fill:#fff"/><path d="M259.74,316.11,258,339.76l34.8-.24s4.51-11.46.88-18.16Z" transform="translate(-9.01 -16.4)" style="fill:#fff"/><path d="M261.76,337.89l28.91-.2s3.74-9.52.73-15.09l-28.19-4.35s2.79,3,1.72,6.11S260.86,332,261.76,337.89Z" transform="translate(-9.01 -16.4)" style="fill:#ffc627"/><path d="M166.82,440.58,185.43,391l21.85-43.47s13.39-7.86,25,0S262.69,377,262.69,377l8.15-28.24s8.15,1.46,11.06.87c0,0-2,36.39-4.08,43.66s-8.73,11.35-19.21,8.44-6.7-2.62-6.7-2.62,4,34.21,4.37,39.3C251.13,441.32,203.49,441.45,166.82,440.58Z" transform="translate(-9.01 -16.4)" style="fill:#ffc627"/><path d="M204.25,290.12a26,26,0,0,0-15.46,13.7,32.83,32.83,0,0,0-2.65,10.2,45.45,45.45,0,0,0,.09,10.52c.78,6.21,2.84,12.32,2.44,18.57-.43,6.65-3.6,12.75-6,19-5.17,13.53-6.55,29.36.28,42.13,2.93,5.48,7.4,10.27,13.09,12.77,5.25,2.31,11.21,2.53,16.91,1.8,5.21-.67,10.54-2.23,14.37-5.82a28.3,28.3,0,0,0,5.62-8.25c7-14.09,10.5-30.65,5.89-45.7-1.78-5.81-4.69-11.19-6.87-16.86s-3.62-11.88-2.29-17.8c.87-3.86,2.86-7.36,4.66-10.88a122.3,122.3,0,0,0,5.32-12,12.32,12.32,0,0,0,1.14-5.63c-.66-6.07-11.39-5.43-15.85-6.11C218.1,288.72,211,288,204.25,290.12Z" transform="translate(-9.01 -16.4)" style="fill:#131f6b"/><path d="M268.14,345.29c-1.74-1.67-3.73-3.25-4.68-5.47,1.85.35,3.51-1.24,4.42-2.88,3.28-5.86,1.7-13.34,4.14-19.6a1.94,1.94,0,0,1,.67-1c.9-.57,2,.47,2.44,1.42.65,1.3.48,6.44.73,7.86.51-1.12,1.78-5.94,2.53-6.92a2.16,2.16,0,0,1,1.54-1c.8,0,1.35.79,1.65,1.53.72,1.77.28,6.64-.21,8.49.21-1,1.23-4.84,2.06-5.42a2.28,2.28,0,0,1,2.8,0,3.34,3.34,0,0,1,.79,2.35,46,46,0,0,1-1.16,7.25,27.65,27.65,0,0,1,1.68-4.53,1.8,1.8,0,0,1,1.9-.63,2.36,2.36,0,0,1,1.17,2.24c.12,2.63-.92,5.17-2,7.58q-3.24,7.35-7,14.44a3.38,3.38,0,0,1-1.38,1.61,3.29,3.29,0,0,1-1.16.23c-2.08.15-5.57.3-7.14-1.44-.68-.75-.71-1.93-1.17-2.83A12.53,12.53,0,0,0,268.14,345.29Z" transform="translate(-9.01 -16.4)" style="fill:#fff"/><path d="M237.54,314.76a6.53,6.53,0,0,0,2.08,1.48,3.38,3.38,0,0,0,2.82-.12,2.17,2.17,0,0,0,1.05-1.63,4.65,4.65,0,0,0-.26-1.77" transform="translate(-9.01 -16.4)" style="fill:none;stroke:#d9272e;stroke-linecap:round;stroke-miterlimit:10;stroke-width:1.22244884327003px"/><path d="M337.63,338.34l-27,8.85,16.16,38.52s14.78-.23,20.56-7.32Z" transform="translate(-9.01 -16.4)" style="fill:#fff"/><path d="M314.38,350.53l14,33.37s12.35,0,17.1-6l-8.58-34.61s-2,4.6-6,4.78S320.47,346.81,314.38,350.53Z" transform="translate(-9.01 -16.4)" style="fill:#ffc627"/><path d="M361.81,381.64c-.29-.24-2.07-1.3-2.37-1.51-5.75-4.1-11.28-6.55-14.2-13a22.12,22.12,0,0,1-1.53-10,14.08,14.08,0,0,0-.26-4.7,4,4,0,0,0-3.28-3c-1.07,1.81-1,4.14-2.07,5.91-2.13,3.39-6.14,2.08-9.31,1.58l-14.1-2.19c-1.68-.26-3.79-.34-4.67,1.12a3,3,0,0,0,.24,3c.58.9,4.59,1.6,5.46,2.23-5.48.07-7.31,1.65-7.23,3.77S315,368,317,367.65c-6.57,1.17-6.4,4.13-5.13,5.67s6.21,1.68,8.2,1.92c-5.19,1.24-5.71,2.56-5.12,4.07a3.14,3.14,0,0,0,1.06,1.27c5.13,4,13,.52,18.88,3.34,3.92,1.89,6,6.15,7.84,10.1.69,1.51,2,4.94,2,4.94s3.09-2.57,4.87-4.26,6.32-6.27,8.48-8.62C359.58,384.44,361.81,381.64,361.81,381.64Z" transform="translate(-9.01 -16.4)" style="fill:#fff"/><path d="M112.69,326.44c0-4.11,4.59-14.08,6.59-14.21s6.93,10.06,6.94,14.17-2.84,7.45-6.63,7.46A7.17,7.17,0,0,1,112.69,326.44Z" transform="translate(-9.01 -16.4)" style="fill:#ffc627;stroke:#ff6c36;stroke-miterlimit:10;stroke-width:4.27132949014707px"/><path d="M99.42,287.79c0-4.11,4.59-14.08,6.59-14.21s6.93,10.06,6.94,14.17-2.84,7.45-6.63,7.46A7.17,7.17,0,0,1,99.42,287.79Z" transform="translate(-9.01 -16.4)" style="fill:#ffc627;stroke:#ff6c36;stroke-miterlimit:10;stroke-width:4.27132949014707px"/><path d="M95.56,351.22s-1.39,1.08-.93,3.63,5.86,66.82,5.86,66.82,6.78,3.23,20.92,3c14.14.22,20.92-3,20.92-3s5.4-64.27,5.86-66.82-.93-3.63-.93-3.63" transform="translate(-9.01 -16.4)" style="fill:#fff"/><path d="M136.64,365.67c-4,.27-7.27,3.71-11.27,3.83-3.58.1-6.74-2.5-10.31-2.76-2.76-.2-5.42,1-8.16,1.41a13.92,13.92,0,0,1-8-1.3c1.4,15.38,4.39,51,4.39,51s5.89,2.81,18.19,2.61h0c12.3.2,18.19-2.61,18.19-2.61s3-35.88,4.41-51.16C141.75,366.5,139.1,365.5,136.64,365.67Z" transform="translate(-9.01 -16.4)" style="fill:#ffc627"/><path d="M75.73,265.46c-4.73,14-17.4,23.45-29,32.59s-23.51,20.16-25.56,34.78c-1.93,13.76,5.53,27.1,14.27,37.9,5.63,7,11.95,13.45,16.33,21.24,7.3,13,8,29.07,3,43" transform="translate(-9.01 -16.4)" style="fill:none;stroke:#00945e;stroke-linecap:round;stroke-linejoin:round;stroke-width:4.27132949014707px"/><path d="M93.56,218.66c2.65-4.23,13.84-11.49,16-10.32s.82,15-1.83,19.2-8,5.67-11.88,3.21S90.91,222.89,93.56,218.66Z" transform="translate(-9.01 -16.4)" style="fill:#ffc627;stroke:#ff6c36;stroke-linecap:round;stroke-linejoin:round;stroke-width:4.48062858914505px"/><path d="M99.42,229.62c3.61-3.44,16.25-7.72,18-6.06s-2.9,14.72-6.51,18.16-9.12,3.52-12.31.18S95.81,233.06,99.42,229.62Z" transform="translate(-9.01 -16.4)" style="fill:#ffc627;stroke:#ff6c36;stroke-linecap:round;stroke-linejoin:round;stroke-width:4.48062858914505px"/><path d="M95.26,227c1.53-4.75-.12-18-2.38-18.88s-12,9-13.52,13.76.79,9.75,5.18,11.16S93.73,231.76,95.26,227Z" transform="translate(-9.01 -16.4)" style="fill:#ffc627;stroke:#ff6c36;stroke-linecap:round;stroke-linejoin:round;stroke-width:4.48062858914505px"/><path d="M99.2,242.5c4.4-2.36,17.71-3.12,19-1s-6.71,13.42-11.1,15.77-9.73,1-11.91-3.09S94.8,244.86,99.2,242.5Z" transform="translate(-9.01 -16.4)" style="fill:#ffc627;stroke:#ff6c36;stroke-linecap:round;stroke-linejoin:round;stroke-width:4.48062858914505px"/><path d="M83.29,232.68c.28-5-4.64-17.38-7.05-17.67s-9.34,11.73-9.63,16.72,3.22,9.24,7.82,9.5S83,237.66,83.29,232.68Z" transform="translate(-9.01 -16.4)" style="fill:#ffc627;stroke:#ff6c36;stroke-linecap:round;stroke-linejoin:round;stroke-width:4.48062858914505px"/><path d="M85.81,231c2.65-4.23,13.84-11.49,16-10.32s.82,15-1.83,19.2-8,5.67-11.88,3.21S83.16,235.24,85.81,231Z" transform="translate(-9.01 -16.4)" style="fill:#ffc627;stroke:#ff6c36;stroke-linecap:round;stroke-linejoin:round;stroke-width:4.48062858914505px"/><path d="M90.48,242.7c4.07-2.89,17.19-5.29,18.72-3.4s-5,14.14-9.06,17-9.54,2.17-12.2-1.59S86.41,245.58,90.48,242.7Z" transform="translate(-9.01 -16.4)" style="fill:#ffc627;stroke:#ff6c36;stroke-linecap:round;stroke-linejoin:round;stroke-width:4.48062858914505px"/><path d="M87.1,240.58c.83-4.92-2.71-17.78-5.08-18.33s-10.57,10.64-11.4,15.57,2.19,9.53,6.74,10.3S86.28,245.5,87.1,240.58Z" transform="translate(-9.01 -16.4)" style="fill:#ffc627;stroke:#ff6c36;stroke-linecap:round;stroke-linejoin:round;stroke-width:4.48062858914505px"/><path d="M87.49,253.76c5-.21,17.31,4.88,17.57,7.3s-11.87,9.17-16.85,9.39-9.19-3.35-9.39-8S82.5,254,87.49,253.76Z" transform="translate(-9.01 -16.4)" style="fill:#ffc627;stroke:#ff6c36;stroke-linecap:round;stroke-linejoin:round;stroke-width:4.48062858914505px"/><path d="M78.07,247.86c-2-4.58-11.92-13.47-14.22-12.64s-3.1,14.67-1.13,19.26,7,6.82,11.25,5S80,252.44,78.07,247.86Z" transform="translate(-9.01 -16.4)" style="fill:#ffc627;stroke:#ff6c36;stroke-linecap:round;stroke-linejoin:round;stroke-width:4.48062858914505px"/><path d="M72.89,251.6c2.65-4.23,13.84-11.49,16-10.32s.82,15-1.83,19.2-8,5.67-11.88,3.21S70.24,255.82,72.89,251.6Z" transform="translate(-9.01 -16.4)" style="fill:#ffc627;stroke:#ff6c36;stroke-linecap:round;stroke-linejoin:round;stroke-width:4.48062858914505px"/><path d="M21.67,249.24a12.38,12.38,0,0,0-3.81,23.25,12.72,12.72,0,0,0,14.4-2.24c2.26-2.25,3.5-6.13,1.45-8.57-1.76-2.09-5.35-2-7.29,0a7.11,7.11,0,0,0-1.22,7.63,11.65,11.65,0,0,0,5.68,5.66,15.74,15.74,0,0,0,12.95.67,13.19,13.19,0,0,0,8-10,3.6,3.6,0,0,0-.81-3.3,2.64,2.64,0,0,0-1.76-.57c-2.34,0-4.12,2.57-3.86,4.89a6.81,6.81,0,0,0,4.25,5.17,16,16,0,0,0,6.89,1c6.54-.2,13.9-2.28,16.76-8.16" transform="translate(-9.01 -16.4)" style="fill:none;stroke:#00945e;stroke-linecap:round;stroke-linejoin:round;stroke-width:4.27132949014707px"/></g></g></svg>