<?xml version="1.0" encoding="utf-8"?>
<!-- Generator: Adobe Illustrator 16.0.3, SVG Export Plug-In . SVG Version: 6.00 Build 0)  -->
<!DOCTYPE svg PUBLIC "-//W3C//DTD SVG 1.1//EN" "http://www.w3.org/Graphics/SVG/1.1/DTD/svg11.dtd">
<svg version="1.1" xmlns="http://www.w3.org/2000/svg" xmlns:xlink="http://www.w3.org/1999/xlink" x="0px" y="0px" width="738px"
	 height="254.969px" viewBox="0 0 738 254.969" enable-background="new 0 0 738 254.969" xml:space="preserve">
<g id="Layer_3">
	<rect x="-3" y="-5" fill="#FFFFFF" width="746" height="266"/>
</g>
<g id="Layer_2">
</g>
<g id="Layer_1">
	<line fill="none" stroke="#09875D" stroke-width="5" stroke-miterlimit="10" x1="125.908" y1="6.25" x2="126.142" y2="250.376"/>
	
		<line fill="none" stroke="#09875D" stroke-width="5" stroke-miterlimit="10" x1="245.973" y1="188.383" x2="246.315" y2="248.242"/>
	<line fill="none" stroke="#09875D" stroke-width="5" stroke-miterlimit="10" x1="366.537" y1="47.426" x2="126.42" y2="48.344"/>
	
		<line fill="none" stroke="#09875D" stroke-width="5" stroke-miterlimit="10" x1="366.646" y1="187.306" x2="127.254" y2="187.994"/>
	<line fill="none" stroke="#09875D" stroke-width="5" stroke-miterlimit="10" x1="733.844" y1="247.479" x2="4.827" y2="248.032"/>
	<line fill="none" stroke="#09875D" stroke-width="5" stroke-miterlimit="10" x1="276.246" y1="187.55" x2="276.246" y2="246.617"/>
	<line fill="none" stroke="#09875D" stroke-width="5" stroke-miterlimit="10" x1="304.593" y1="187.55" x2="304.593" y2="246.617"/>
	<line fill="none" stroke="#09875D" stroke-width="5" stroke-miterlimit="10" x1="334.607" y1="187.55" x2="334.607" y2="246.617"/>
	
		<line fill="none" stroke="#09875D" stroke-width="5" stroke-miterlimit="10" x1="212.881" y1="187.279" x2="212.881" y2="246.617"/>
	<g>
		<path fill="#0D8256" d="M141.11,22.514h-4.848v-3.312h13.44v3.312h-4.848v13.68h-3.744V22.514z"/>
		<path fill="#0D8256" d="M151.598,19.202h3.744v6.336h7.272v-6.336h3.744v16.992h-3.744V28.85h-7.272v7.344h-3.744V19.202z"/>
		<path fill="#0D8256" d="M169.958,19.202h11.544v3.456h-7.8v3.168h7.368v3.456h-7.368v3.456h8.232v3.456h-11.976V19.202z"/>
		<path fill="#0D8256" d="M197.221,23.234l-3.408,3l-2.04-2.352l5.544-4.68h3.36v16.992h-3.456V23.234z"/>
		<path fill="#0D8256" d="M211.429,23.234l-3.408,3l-2.04-2.352l5.544-4.68h3.36v16.992h-3.456V23.234z"/>
		<path fill="#0D8256" d="M227.94,27.41h-3.168v3.888c0,0.32,0.016,0.612,0.048,0.876c0.032,0.264,0.104,0.492,0.216,0.684
			c0.112,0.192,0.284,0.34,0.516,0.444c0.231,0.104,0.54,0.156,0.924,0.156c0.192,0,0.444-0.02,0.756-0.06s0.548-0.132,0.708-0.276
			v3c-0.4,0.144-0.816,0.24-1.248,0.288c-0.432,0.048-0.856,0.072-1.272,0.072c-0.608,0-1.168-0.064-1.68-0.192
			c-0.512-0.128-0.96-0.332-1.344-0.612c-0.384-0.28-0.684-0.644-0.9-1.092c-0.216-0.448-0.324-0.992-0.324-1.632V27.41h-2.304
			v-2.88h2.304v-3.456h3.6v3.456h3.168V27.41z"/>
		<path fill="#0D8256" d="M233.365,18.05v8.064h0.048c0.08-0.224,0.216-0.448,0.408-0.672s0.424-0.424,0.696-0.6
			c0.272-0.176,0.592-0.32,0.96-0.432c0.368-0.111,0.768-0.168,1.2-0.168c0.912,0,1.647,0.141,2.208,0.42
			c0.56,0.28,0.996,0.668,1.308,1.164c0.312,0.496,0.523,1.08,0.636,1.752c0.112,0.672,0.168,1.4,0.168,2.184v6.432h-3.6v-5.712
			c0-0.336-0.012-0.684-0.036-1.044c-0.024-0.36-0.096-0.692-0.216-0.996c-0.12-0.304-0.304-0.552-0.552-0.744
			c-0.249-0.192-0.604-0.288-1.068-0.288c-0.464,0-0.84,0.084-1.128,0.252c-0.288,0.168-0.508,0.393-0.66,0.672
			c-0.152,0.28-0.252,0.596-0.3,0.948c-0.048,0.352-0.072,0.72-0.072,1.104v5.808h-3.6V18.05H233.365z"/>
		<path fill="#0D8256" d="M256.692,19.202h3.096l7.392,16.992h-4.224l-1.464-3.6h-6.6l-1.416,3.6h-4.128L256.692,19.202z
			 M258.132,24.146l-2.064,5.28h4.152L258.132,24.146z"/>
		<path fill="#0D8256" d="M268.884,19.202h5.088l7.224,11.808h0.048V19.202h3.744v16.992h-4.896l-7.416-12.096h-0.048v12.096h-3.744
			V19.202z"/>
		<path fill="#0D8256" d="M288.444,19.202h5.088l7.224,11.808h0.048V19.202h3.744v16.992h-4.896l-7.416-12.096h-0.048v12.096h-3.744
			V19.202z"/>
		<path fill="#0D8256" d="M322.332,29.642c0,1.008-0.152,1.936-0.456,2.784c-0.304,0.848-0.756,1.584-1.356,2.208
			s-1.348,1.112-2.244,1.464c-0.896,0.352-1.928,0.528-3.096,0.528c-1.184,0-2.224-0.176-3.12-0.528
			c-0.896-0.352-1.644-0.84-2.244-1.464s-1.052-1.36-1.356-2.208c-0.304-0.848-0.456-1.776-0.456-2.784v-10.44h3.744v10.296
			c0,0.528,0.084,1.016,0.252,1.464c0.168,0.448,0.404,0.836,0.708,1.164c0.304,0.328,0.668,0.584,1.092,0.768
			s0.884,0.276,1.38,0.276s0.952-0.092,1.368-0.276s0.776-0.44,1.08-0.768c0.304-0.328,0.54-0.716,0.708-1.164
			c0.168-0.448,0.252-0.936,0.252-1.464V19.202h3.744V29.642z"/>
		<path fill="#0D8256" d="M331.379,19.202h3.096l7.392,16.992h-4.224l-1.464-3.6h-6.6l-1.416,3.6h-4.128L331.379,19.202z
			 M332.819,24.146l-2.064,5.28h4.152L332.819,24.146z"/>
		<path fill="#0D8256" d="M343.716,19.202h3.744v13.536h6.936v3.456h-10.68V19.202z"/>
	</g>
	<g>
		<path fill="#0D8256" d="M140.19,57.614h10.062c2.436,0,4.751,0.272,6.944,0.817c2.193,0.545,4.106,1.426,5.74,2.645
			c1.634,1.219,2.931,2.802,3.892,4.751c0.96,1.95,1.44,4.315,1.44,7.095c0,2.466-0.466,4.638-1.397,6.515
			c-0.932,1.878-2.186,3.455-3.762,4.73c-1.577,1.276-3.397,2.244-5.461,2.903c-2.064,0.66-4.229,0.989-6.493,0.989H140.19V57.614z
			 M146.898,81.866h3.483c1.548,0,2.988-0.157,4.321-0.473c1.333-0.315,2.487-0.838,3.461-1.569s1.742-1.691,2.301-2.881
			c0.559-1.189,0.838-2.644,0.838-4.364c0-1.49-0.279-2.788-0.838-3.892c-0.559-1.103-1.312-2.014-2.258-2.73
			c-0.946-0.716-2.057-1.254-3.333-1.612c-1.276-0.358-2.616-0.538-4.021-0.538h-3.956V81.866z"/>
		<path fill="#0D8256" d="M172.74,57.614h6.708v30.444h-6.708V57.614z"/>
		<path fill="#0D8256" d="M185.554,57.614h10.062c2.436,0,4.751,0.272,6.944,0.817c2.193,0.545,4.106,1.426,5.74,2.645
			c1.634,1.219,2.931,2.802,3.892,4.751c0.96,1.95,1.44,4.315,1.44,7.095c0,2.466-0.466,4.638-1.397,6.515
			c-0.932,1.878-2.186,3.455-3.762,4.73c-1.577,1.276-3.397,2.244-5.461,2.903c-2.064,0.66-4.229,0.989-6.493,0.989h-10.965V57.614z
			 M192.262,81.866h3.483c1.548,0,2.988-0.157,4.321-0.473c1.333-0.315,2.487-0.838,3.461-1.569s1.742-1.691,2.301-2.881
			c0.559-1.189,0.838-2.644,0.838-4.364c0-1.49-0.279-2.788-0.838-3.892c-0.559-1.103-1.312-2.014-2.258-2.73
			c-0.946-0.716-2.057-1.254-3.333-1.612c-1.276-0.358-2.616-0.538-4.021-0.538h-3.956V81.866z"/>
		<path fill="#0D8256" d="M233.24,65.053c-0.545-0.688-1.283-1.197-2.214-1.527c-0.932-0.329-1.813-0.494-2.645-0.494
			c-0.488,0-0.989,0.058-1.505,0.172c-0.516,0.115-1.004,0.294-1.462,0.538c-0.458,0.244-0.832,0.566-1.118,0.967
			c-0.287,0.402-0.43,0.889-0.43,1.462c0,0.918,0.344,1.62,1.032,2.107c0.688,0.488,1.555,0.903,2.601,1.247
			c1.046,0.344,2.172,0.688,3.375,1.032c1.204,0.344,2.329,0.832,3.376,1.462c1.046,0.631,1.913,1.477,2.601,2.537
			c0.688,1.061,1.032,2.48,1.032,4.257c0,1.692-0.316,3.168-0.946,4.429c-0.631,1.262-1.484,2.308-2.559,3.139
			c-1.075,0.832-2.322,1.448-3.741,1.849c-1.419,0.401-2.917,0.602-4.494,0.602c-1.978,0-3.813-0.301-5.504-0.903
			c-1.692-0.602-3.268-1.576-4.73-2.924l4.773-5.246c0.688,0.917,1.555,1.627,2.602,2.128c1.046,0.502,2.128,0.752,3.247,0.752
			c0.544,0,1.097-0.064,1.655-0.193c0.559-0.129,1.061-0.323,1.505-0.581c0.444-0.258,0.802-0.587,1.075-0.989
			c0.272-0.401,0.409-0.874,0.409-1.419c0-0.917-0.352-1.641-1.054-2.171c-0.703-0.53-1.584-0.981-2.645-1.354
			c-1.061-0.372-2.208-0.745-3.44-1.118c-1.233-0.372-2.379-0.874-3.44-1.505c-1.061-0.63-1.942-1.462-2.645-2.494
			c-0.703-1.032-1.053-2.393-1.053-4.085c0-1.634,0.322-3.067,0.967-4.3c0.645-1.232,1.505-2.264,2.58-3.096
			c1.075-0.831,2.314-1.455,3.72-1.871c1.404-0.415,2.852-0.623,4.343-0.623c1.72,0,3.382,0.244,4.988,0.731
			c1.605,0.488,3.053,1.305,4.343,2.451L233.24,65.053z"/>
		<path fill="#0D8256" d="M242.872,57.614h11.352c1.318,0,2.644,0.093,3.977,0.279c1.333,0.187,2.53,0.559,3.591,1.118
			c1.06,0.559,1.92,1.34,2.58,2.343c0.659,1.004,0.989,2.337,0.989,3.999c0,1.72-0.48,3.146-1.44,4.279
			c-0.961,1.133-2.229,1.942-3.806,2.429v0.086c1.003,0.144,1.914,0.423,2.73,0.839c0.817,0.416,1.519,0.946,2.107,1.591
			c0.587,0.645,1.039,1.397,1.354,2.257c0.315,0.86,0.473,1.778,0.473,2.752c0,1.606-0.344,2.946-1.032,4.021
			c-0.688,1.075-1.577,1.942-2.666,2.602c-1.09,0.66-2.315,1.133-3.677,1.419c-1.362,0.287-2.716,0.43-4.063,0.43h-12.47V57.614z
			 M249.58,69.783h4.859c0.516,0,1.024-0.057,1.526-0.172c0.501-0.114,0.953-0.301,1.354-0.559c0.401-0.258,0.724-0.602,0.968-1.032
			c0.243-0.43,0.365-0.946,0.365-1.548c0-0.63-0.136-1.154-0.409-1.569s-0.623-0.738-1.053-0.968
			c-0.43-0.229-0.918-0.394-1.462-0.495c-0.545-0.1-1.075-0.15-1.591-0.15h-4.558V69.783z M249.58,82.382h6.02
			c0.516,0,1.039-0.057,1.569-0.172c0.53-0.114,1.01-0.315,1.44-0.602c0.43-0.286,0.781-0.659,1.054-1.118
			c0.272-0.458,0.408-1.018,0.408-1.677c0-0.716-0.179-1.296-0.538-1.741c-0.358-0.444-0.81-0.781-1.354-1.011
			c-0.545-0.229-1.133-0.387-1.763-0.473c-0.631-0.086-1.219-0.129-1.763-0.129h-5.074V82.382z"/>
		<path fill="#0D8256" d="M296.406,76.319c0,1.806-0.273,3.469-0.817,4.988c-0.545,1.52-1.354,2.838-2.43,3.956
			s-2.416,1.993-4.021,2.623c-1.606,0.63-3.455,0.946-5.547,0.946c-2.122,0-3.985-0.316-5.59-0.946
			c-1.605-0.63-2.945-1.505-4.021-2.623c-1.075-1.118-1.885-2.437-2.429-3.956c-0.545-1.519-0.817-3.182-0.817-4.988V57.614h6.708
			v18.447c0,0.946,0.15,1.821,0.451,2.623c0.301,0.803,0.724,1.499,1.269,2.085c0.544,0.588,1.197,1.047,1.957,1.376
			c0.759,0.33,1.583,0.495,2.473,0.495c0.888,0,1.705-0.165,2.451-0.495c0.745-0.329,1.39-0.788,1.935-1.376
			c0.544-0.587,0.968-1.283,1.269-2.085c0.301-0.802,0.452-1.677,0.452-2.623V57.614h6.708V76.319z"/>
		<path fill="#0D8256" d="M302.598,57.614h11.782c1.548,0,3.017,0.15,4.408,0.451c1.39,0.301,2.608,0.803,3.655,1.505
			c1.046,0.703,1.877,1.648,2.494,2.838c0.616,1.19,0.924,2.673,0.924,4.45c0,2.15-0.559,3.978-1.677,5.483
			c-1.118,1.505-2.752,2.458-4.902,2.859l7.74,12.857h-8.041l-6.364-12.169h-3.311v12.169h-6.708V57.614z M309.306,70.212h3.956
			c0.602,0,1.24-0.021,1.914-0.064c0.673-0.043,1.283-0.172,1.828-0.387c0.544-0.215,0.996-0.552,1.354-1.011
			c0.358-0.458,0.538-1.103,0.538-1.935c0-0.774-0.158-1.39-0.473-1.849c-0.316-0.458-0.717-0.81-1.204-1.054
			c-0.488-0.243-1.046-0.409-1.677-0.495c-0.631-0.086-1.247-0.129-1.849-0.129h-4.386V70.212z"/>
		<path fill="#0D8256" d="M337.17,75.072l-11.438-17.458h8.342l6.45,11.395l6.837-11.395h7.955l-11.438,17.458v12.986h-6.708V75.072
			z"/>
		<path fill="#0D8256" d="M140.19,102.614h11.352c1.318,0,2.644,0.093,3.977,0.279c1.333,0.187,2.53,0.559,3.591,1.118
			c1.06,0.559,1.92,1.34,2.58,2.343c0.659,1.004,0.989,2.337,0.989,3.999c0,1.72-0.48,3.146-1.44,4.279
			c-0.961,1.133-2.229,1.942-3.806,2.429v0.086c1.003,0.144,1.914,0.423,2.73,0.839c0.817,0.416,1.519,0.946,2.107,1.591
			c0.587,0.645,1.039,1.397,1.354,2.257c0.315,0.86,0.473,1.778,0.473,2.752c0,1.606-0.344,2.946-1.032,4.021
			c-0.688,1.075-1.577,1.942-2.666,2.602c-1.09,0.66-2.315,1.133-3.677,1.419c-1.362,0.287-2.716,0.43-4.063,0.43h-12.47V102.614z
			 M146.898,114.783h4.859c0.516,0,1.024-0.057,1.526-0.172c0.501-0.114,0.953-0.301,1.354-0.559
			c0.401-0.258,0.724-0.602,0.968-1.032c0.243-0.43,0.365-0.946,0.365-1.548c0-0.63-0.136-1.154-0.409-1.569
			s-0.623-0.738-1.053-0.968c-0.43-0.229-0.918-0.394-1.462-0.495c-0.545-0.1-1.075-0.15-1.591-0.15h-4.558V114.783z
			 M146.898,127.382h6.02c0.516,0,1.039-0.057,1.569-0.172c0.53-0.114,1.01-0.315,1.44-0.602c0.43-0.286,0.781-0.659,1.054-1.118
			c0.272-0.458,0.408-1.018,0.408-1.677c0-0.716-0.179-1.296-0.538-1.741c-0.358-0.444-0.81-0.781-1.354-1.011
			c-0.545-0.229-1.133-0.387-1.763-0.473c-0.631-0.086-1.219-0.129-1.763-0.129h-5.074V127.382z"/>
		<path fill="#0D8256" d="M168.312,102.614h20.683v6.192H175.02v5.676h13.201v6.192H175.02v6.192h14.749v6.192h-21.457V102.614z"/>
		<path fill="#0D8256" d="M195.401,102.614h20.683v6.192h-13.975v5.676h13.201v6.192h-13.201v6.192h14.749v6.192h-21.457V102.614z"
			/>
		<path fill="#0D8256" d="M222.232,102.614h11.782c1.548,0,3.017,0.15,4.408,0.451c1.39,0.301,2.608,0.803,3.655,1.505
			c1.046,0.703,1.877,1.648,2.494,2.838c0.616,1.19,0.924,2.673,0.924,4.45c0,2.15-0.559,3.978-1.677,5.483
			c-1.118,1.505-2.752,2.458-4.902,2.859l7.74,12.857h-8.041l-6.364-12.169h-3.311v12.169h-6.708V102.614z M228.94,115.212h3.956
			c0.602,0,1.24-0.021,1.914-0.064c0.673-0.043,1.283-0.172,1.828-0.387c0.544-0.215,0.996-0.552,1.354-1.011
			c0.358-0.458,0.538-1.103,0.538-1.935c0-0.774-0.158-1.39-0.473-1.849c-0.316-0.458-0.717-0.81-1.204-1.054
			c-0.488-0.243-1.046-0.409-1.677-0.495c-0.631-0.086-1.247-0.129-1.849-0.129h-4.386V115.212z"/>
		<path fill="#0D8256" d="M140.448,147.613h20.425v6.192h-13.717v6.192h12.685v6.191h-12.685v11.868h-6.708V147.613z"/>
		<path fill="#0D8256" d="M165.946,147.613h20.683v6.192h-13.975v5.676h13.201v6.192h-13.201v6.191h14.749v6.192h-21.457V147.613z"
			/>
		<path fill="#0D8256" d="M207.828,155.053c-0.545-0.688-1.283-1.197-2.214-1.527c-0.932-0.328-1.813-0.494-2.645-0.494
			c-0.488,0-0.989,0.059-1.505,0.172c-0.516,0.115-1.004,0.295-1.462,0.538s-0.832,0.566-1.118,0.968
			c-0.287,0.401-0.43,0.889-0.43,1.461c0,0.918,0.344,1.621,1.032,2.107c0.688,0.488,1.555,0.903,2.601,1.247
			c1.046,0.345,2.172,0.688,3.375,1.032c1.204,0.344,2.329,0.832,3.376,1.462c1.046,0.631,1.913,1.478,2.601,2.537
			c0.688,1.062,1.032,2.479,1.032,4.257c0,1.691-0.316,3.168-0.946,4.43c-0.631,1.262-1.484,2.307-2.559,3.139
			c-1.075,0.832-2.322,1.447-3.741,1.849s-2.917,0.603-4.494,0.603c-1.978,0-3.813-0.301-5.504-0.903
			c-1.692-0.603-3.268-1.576-4.73-2.925l4.773-5.245c0.688,0.917,1.555,1.627,2.602,2.128c1.046,0.502,2.128,0.753,3.247,0.753
			c0.544,0,1.097-0.064,1.655-0.193c0.559-0.13,1.061-0.323,1.505-0.581c0.444-0.258,0.802-0.587,1.075-0.988
			s0.409-0.875,0.409-1.42c0-0.916-0.352-1.641-1.054-2.171c-0.703-0.53-1.584-0.981-2.645-1.354
			c-1.061-0.372-2.208-0.745-3.44-1.118c-1.233-0.372-2.379-0.874-3.44-1.505c-1.061-0.631-1.942-1.462-2.645-2.494
			c-0.703-1.031-1.053-2.393-1.053-4.085c0-1.634,0.322-3.067,0.967-4.3s1.505-2.264,2.58-3.096s2.314-1.455,3.72-1.871
			c1.404-0.415,2.852-0.623,4.343-0.623c1.72,0,3.382,0.244,4.988,0.73c1.605,0.488,3.053,1.305,4.343,2.451L207.828,155.053z"/>
		<path fill="#0D8256" d="M223.35,153.548h-8.686v-5.935h24.08v5.935h-8.686v24.51h-6.708V153.548z"/>
		<path fill="#0D8256" d="M242.055,147.613h6.708v30.444h-6.708V147.613z"/>
		<path fill="#0D8256" d="M251.858,147.613h7.654l7.525,19.952h0.086l7.654-19.952h7.181l-12.556,30.444h-5.375L251.858,147.613z"/>
		<path fill="#0D8256" d="M292.494,147.613h5.547l13.244,30.444h-7.568l-2.623-6.45h-11.825l-2.537,6.45h-7.396L292.494,147.613z
			 M295.073,156.472l-3.698,9.46h7.439L295.073,156.472z"/>
		<path fill="#0D8256" d="M314.595,147.613h6.708v24.252h12.427v6.192h-19.135V147.613z"/>
	</g>
	<g>
		<path fill="#0D8256" d="M138.705,223.439l6.6-5.928c0.336-0.305,0.672-0.648,1.008-1.032s0.504-0.832,0.504-1.345
			c0-0.575-0.208-1.027-0.624-1.355c-0.417-0.328-0.904-0.492-1.464-0.492c-0.672,0-1.196,0.209-1.572,0.624
			c-0.376,0.417-0.588,0.929-0.636,1.536l-3.6-0.264c0.048-0.88,0.231-1.645,0.552-2.292c0.32-0.648,0.744-1.188,1.272-1.62
			c0.528-0.432,1.148-0.756,1.86-0.973c0.711-0.215,1.484-0.323,2.316-0.323c0.768,0,1.488,0.108,2.16,0.323
			c0.672,0.217,1.256,0.537,1.752,0.961c0.496,0.424,0.884,0.956,1.164,1.596c0.28,0.641,0.42,1.384,0.42,2.232
			c0,0.543-0.057,1.035-0.168,1.476c-0.112,0.44-0.269,0.84-0.468,1.2c-0.2,0.359-0.436,0.691-0.708,0.996
			c-0.272,0.304-0.568,0.6-0.888,0.888l-5.16,4.44h7.536v3.168h-11.856V223.439z"/>
		<path fill="#0D8256" d="M164.145,213.432h-6.744l-0.072,2.615c0.368-0.127,0.872-0.191,1.512-0.191
			c0.864,0,1.656,0.128,2.376,0.384c0.72,0.257,1.34,0.628,1.86,1.116s0.924,1.08,1.212,1.775c0.288,0.696,0.432,1.477,0.432,2.34
			c0,0.961-0.164,1.816-0.492,2.568c-0.328,0.752-0.78,1.389-1.356,1.908c-0.576,0.52-1.26,0.916-2.052,1.188
			c-0.792,0.272-1.652,0.408-2.58,0.408c-1.472,0-2.704-0.359-3.696-1.08c-0.992-0.72-1.672-1.808-2.04-3.264l3.768-0.863
			c0.096,0.607,0.352,1.1,0.768,1.476c0.416,0.376,0.936,0.563,1.56,0.563c0.768,0,1.38-0.24,1.836-0.72
			c0.456-0.479,0.684-1.088,0.684-1.823c0-0.561-0.116-1.021-0.348-1.381c-0.232-0.359-0.537-0.648-0.912-0.863
			c-0.376-0.217-0.796-0.364-1.26-0.444s-0.928-0.12-1.392-0.12c-0.592,0-1.188,0.057-1.788,0.168c-0.6,0.112-1.18,0.264-1.74,0.456
			l0.192-9.384h10.272V213.432z"/>
		<path fill="#0D8256" d="M172.449,222.719h-5.904v-2.879h5.904V222.719z"/>
		<path fill="#0D8256" d="M174.225,223.439l6.6-5.928c0.336-0.305,0.672-0.648,1.008-1.032s0.504-0.832,0.504-1.345
			c0-0.575-0.208-1.027-0.624-1.355c-0.417-0.328-0.904-0.492-1.464-0.492c-0.672,0-1.196,0.209-1.572,0.624
			c-0.376,0.417-0.588,0.929-0.636,1.536l-3.6-0.264c0.048-0.88,0.231-1.645,0.552-2.292c0.32-0.648,0.744-1.188,1.272-1.62
			c0.528-0.432,1.148-0.756,1.86-0.973c0.711-0.215,1.484-0.323,2.316-0.323c0.768,0,1.488,0.108,2.16,0.323
			c0.672,0.217,1.256,0.537,1.752,0.961c0.496,0.424,0.884,0.956,1.164,1.596c0.28,0.641,0.42,1.384,0.42,2.232
			c0,0.543-0.057,1.035-0.168,1.476c-0.112,0.44-0.269,0.84-0.468,1.2c-0.2,0.359-0.436,0.691-0.708,0.996
			c-0.272,0.304-0.568,0.6-0.888,0.888l-5.16,4.44h7.536v3.168h-11.856V223.439z"/>
		<path fill="#0D8256" d="M196.545,213.575h-8.4v-3.312h12.432v3.168l-6.792,13.824h-4.2L196.545,213.575z"/>
	</g>
	<g>
		<path fill="#0D8256" d="M255.094,223.439l6.6-5.928c0.336-0.305,0.672-0.648,1.008-1.032s0.504-0.832,0.504-1.345
			c0-0.575-0.208-1.027-0.624-1.355c-0.417-0.328-0.904-0.492-1.464-0.492c-0.672,0-1.196,0.209-1.572,0.624
			c-0.376,0.417-0.588,0.929-0.636,1.536l-3.6-0.264c0.048-0.88,0.231-1.645,0.552-2.292c0.32-0.648,0.744-1.188,1.272-1.62
			c0.528-0.432,1.148-0.756,1.86-0.973c0.711-0.215,1.484-0.323,2.316-0.323c0.768,0,1.488,0.108,2.16,0.323
			c0.672,0.217,1.256,0.537,1.752,0.961c0.496,0.424,0.884,0.956,1.164,1.596c0.28,0.641,0.42,1.384,0.42,2.232
			c0,0.543-0.057,1.035-0.168,1.476c-0.112,0.44-0.269,0.84-0.468,1.2c-0.2,0.359-0.436,0.691-0.708,0.996
			c-0.272,0.304-0.568,0.6-0.888,0.888l-5.16,4.44h7.536v3.168h-11.856V223.439z"/>
	</g>
	<g>
		<path fill="#0D8256" d="M285.197,218.76c0-1.008,0.092-2.032,0.276-3.072s0.512-1.984,0.984-2.832
			c0.472-0.848,1.116-1.54,1.932-2.076c0.816-0.535,1.856-0.804,3.12-0.804c1.264,0,2.304,0.269,3.12,0.804
			c0.816,0.536,1.46,1.229,1.932,2.076c0.472,0.848,0.8,1.792,0.984,2.832c0.184,1.04,0.276,2.064,0.276,3.072
			s-0.092,2.031-0.276,3.072c-0.184,1.039-0.512,1.983-0.984,2.832c-0.472,0.848-1.116,1.539-1.932,2.075s-1.856,0.804-3.12,0.804
			c-1.264,0-2.304-0.268-3.12-0.804s-1.46-1.228-1.932-2.075c-0.472-0.849-0.8-1.793-0.984-2.832
			C285.289,220.791,285.197,219.768,285.197,218.76z M288.797,218.76c0,0.447,0.02,0.983,0.06,1.607
			c0.04,0.624,0.147,1.225,0.324,1.801c0.176,0.575,0.444,1.063,0.804,1.463c0.36,0.4,0.868,0.601,1.524,0.601
			c0.64,0,1.144-0.2,1.512-0.601c0.368-0.399,0.64-0.888,0.816-1.463c0.176-0.576,0.284-1.177,0.324-1.801s0.06-1.16,0.06-1.607
			c0-0.448-0.02-0.984-0.06-1.608s-0.148-1.224-0.324-1.8c-0.176-0.576-0.448-1.064-0.816-1.465c-0.369-0.398-0.873-0.6-1.512-0.6
			c-0.656,0-1.164,0.201-1.524,0.6c-0.36,0.4-0.628,0.889-0.804,1.465c-0.176,0.576-0.284,1.176-0.324,1.8
			C288.817,217.775,288.797,218.312,288.797,218.76z"/>
	</g>
	<g>
		<path fill="#0D8256" d="M319.218,214.295l-3.408,3l-2.04-2.352l5.544-4.68h3.36v16.992h-3.456V214.295z"/>
	</g>
	<g>
		<path fill="#0D8256" d="M343.827,214.655c0-0.784,0.148-1.468,0.444-2.052s0.704-1.072,1.224-1.465
			c0.52-0.391,1.124-0.684,1.812-0.875c0.688-0.192,1.424-0.288,2.208-0.288c0.784,0,1.52,0.096,2.208,0.288
			c0.687,0.191,1.288,0.484,1.8,0.875c0.512,0.393,0.92,0.881,1.224,1.465s0.456,1.268,0.456,2.052c0,0.929-0.252,1.72-0.756,2.376
			s-1.212,1.12-2.124,1.393v0.047c1.023,0.273,1.808,0.766,2.353,1.477c0.543,0.713,0.815,1.596,0.815,2.652
			c0,0.816-0.165,1.535-0.492,2.16c-0.328,0.623-0.769,1.14-1.319,1.547c-0.553,0.408-1.188,0.717-1.909,0.925
			c-0.72,0.208-1.472,0.312-2.256,0.312c-0.784,0-1.536-0.104-2.256-0.312c-0.72-0.208-1.356-0.517-1.908-0.925
			c-0.552-0.407-0.992-0.924-1.32-1.547c-0.328-0.625-0.492-1.344-0.492-2.16c0-1.057,0.272-1.939,0.816-2.652
			c0.544-0.711,1.328-1.203,2.352-1.477v-0.047c-0.912-0.272-1.62-0.736-2.124-1.393S343.827,215.584,343.827,214.655z
			 M347.139,222.096c0,0.592,0.216,1.096,0.648,1.512s1.008,0.624,1.728,0.624s1.296-0.208,1.728-0.624s0.648-0.92,0.648-1.512
			c0-0.608-0.216-1.12-0.648-1.536s-1.008-0.624-1.728-0.624s-1.296,0.208-1.728,0.624S347.139,221.487,347.139,222.096z
			 M347.427,215.159c0,0.528,0.192,0.976,0.576,1.345c0.384,0.367,0.888,0.551,1.512,0.551s1.128-0.184,1.512-0.551
			c0.384-0.369,0.576-0.816,0.576-1.345c0-0.512-0.192-0.952-0.576-1.319c-0.384-0.368-0.888-0.553-1.512-0.553
			s-1.128,0.185-1.512,0.553C347.619,214.207,347.427,214.647,347.427,215.159z"/>
	</g>
	<g>
		<path fill="#0D8256" d="M229.242,241c-1.303,0-2.484-0.219-3.542-0.655s-1.958-1.046-2.703-1.829
			c-0.743-0.781-1.314-1.709-1.713-2.782c-0.398-1.073-0.598-2.246-0.598-3.519c0-1.273,0.2-2.446,0.598-3.52
			c0.399-1.073,0.97-2.001,1.713-2.783c0.744-0.781,1.645-1.392,2.703-1.828c1.058-0.438,2.239-0.656,3.542-0.656
			c1.304,0,2.484,0.219,3.542,0.656c1.058,0.437,1.959,1.047,2.703,1.828c0.744,0.782,1.315,1.71,1.713,2.783
			s0.598,2.246,0.598,3.52c0,1.272-0.2,2.445-0.598,3.519s-0.97,2.001-1.713,2.782c-0.744,0.783-1.645,1.393-2.703,1.829
			S230.545,241,229.242,241z M229.242,237.274c0.767,0,1.468-0.118,2.104-0.356c0.637-0.238,1.188-0.578,1.656-1.023
			s0.832-0.979,1.092-1.599c0.261-0.621,0.391-1.315,0.391-2.081c0-0.768-0.13-1.461-0.391-2.082
			c-0.26-0.621-0.625-1.154-1.092-1.599s-1.02-0.786-1.656-1.023c-0.636-0.237-1.337-0.356-2.104-0.356
			c-0.751,0-1.449,0.119-2.093,0.356s-1.2,0.579-1.667,1.023s-0.832,0.978-1.093,1.599c-0.26,0.621-0.391,1.314-0.391,2.082
			c0,0.766,0.131,1.46,0.391,2.081c0.261,0.62,0.625,1.153,1.093,1.599s1.023,0.785,1.667,1.023S228.491,237.274,229.242,237.274z"
			/>
		<path fill="#0D8256" d="M225.332,210.342c-0.429,0.353-0.759,0.785-0.989,1.299s-0.345,1.108-0.345,1.783s0.131,1.299,0.391,1.874
			c0.261,0.575,0.625,1.073,1.093,1.495s1.023,0.752,1.667,0.989s1.342,0.356,2.093,0.356c0.767,0,1.468-0.119,2.104-0.356
			c0.637-0.237,1.188-0.563,1.656-0.978s0.832-0.9,1.092-1.461c0.261-0.559,0.391-1.161,0.391-1.805c0-0.736-0.153-1.389-0.46-1.955
			c-0.307-0.567-0.736-1.035-1.288-1.403l2.231-2.99c0.966,0.69,1.679,1.563,2.139,2.622s0.69,2.146,0.69,3.266
			c0,1.273-0.2,2.446-0.598,3.52s-0.97,2.001-1.713,2.783c-0.744,0.781-1.645,1.391-2.703,1.828s-2.238,0.655-3.542,0.655
			c-1.303,0-2.484-0.218-3.542-0.655s-1.958-1.047-2.703-1.828c-0.743-0.782-1.314-1.71-1.713-2.783
			c-0.398-1.073-0.598-2.246-0.598-3.52c0-0.459,0.042-0.938,0.127-1.438c0.084-0.498,0.218-0.988,0.402-1.472
			s0.429-0.946,0.736-1.392c0.307-0.444,0.683-0.843,1.127-1.195L225.332,210.342z"/>
		<path fill="#0D8256" d="M224.274,202.084v4.646H221.1v-12.88h3.174v4.646h13.11v3.588H224.274z"/>
	</g>
	<path fill="none" stroke="#09875D" stroke-width="4" stroke-linecap="round" stroke-linejoin="round" stroke-miterlimit="10" d="
		M404.274,143.025c0,0,1.311,4.391,3.168,7.682c1.858,3.291-8.108,51.114-8.108,51.114s8.637,6.411,19.878,4.311"/>
	<path fill="none" stroke="#09875D" stroke-width="4" stroke-linecap="round" stroke-linejoin="round" stroke-miterlimit="10" d="
		M407.444,143.888c0,0-0.354,2.534,8.959,10.426c9.313,7.893,1.736,60.45,1.736,60.45s17.52,5.524,26.279-0.631
		c0,0-3.867-32.04-2.762-44.509c1.104-12.47,1.841-33.66-0.158-49.555"/>
	<path fill="none" stroke="#09875D" stroke-width="4" stroke-linecap="round" stroke-linejoin="round" stroke-miterlimit="10" d="
		M437.008,120.07c0,0,5.754-0.006,7.411-0.479c0,0-1.263-12.551-1.815-15.391"/>
	<path fill="none" stroke="#09875D" stroke-width="4" stroke-linecap="round" stroke-linejoin="round" stroke-miterlimit="10" d="
		M400.854,92.054l-4.753,25.563c0,0,4.229,0.868,6.465,0.868"/>
	<path fill="none" stroke="#FCB813" stroke-width="4" stroke-linecap="round" stroke-linejoin="round" stroke-miterlimit="10" d="
		M423.403,75.969c0,0-6.401-5.942-11.156,0.638c0,0-5.577,9.259-3.367,24.832"/>
	<path fill="none" stroke="#FCB813" stroke-width="4" stroke-linecap="round" stroke-linejoin="round" stroke-miterlimit="10" d="
		M431.146,100.138c0,0-21.425,3.827-28.58,1.302v40.932c0,0,12.321,5.998,36.307,0l-3.318-39.668"/>
	<path fill="none" stroke="#FCB813" stroke-width="2" stroke-linecap="round" stroke-linejoin="round" stroke-miterlimit="10" d="
		M435.387,32.972c-0.169,3.402,1.257,6.85,3.778,9.14c0.375,0.341,0.805,0.718,0.832,1.225c0.034,0.626-0.56,1.093-1.118,1.379
		c-1.129,0.579-2.384,0.911-3.651,0.964c-0.064,0.669-0.026,1.348,0.111,2.005c-1.499,0.155-3.01,0.206-4.516,0.154
		c0.003,1.887,2.143,3.436,3.936,2.849c0.744,1.36-0.121,3.113-1.374,4.027c-1.253,0.914-2.812,1.281-4.209,1.955
		c-0.971,0.469-1.919,1.188-2.43,2.103"/>
	<path fill="none" stroke="#09875D" stroke-width="4" stroke-linecap="round" stroke-linejoin="round" stroke-miterlimit="10" d="
		M516.901,133.281c0,0,2.938,52.857,5.886,82.933c0,0,8.465,6.781,21.776,1.474c0,0-0.032-27.422,2.807-39.216
		c2.839-11.795,8.146-16.704,12.274-19.852c4.129-3.148,13.903-8.23,12.85-22.054"/>
	<path fill="none" stroke="#09875D" stroke-width="4" stroke-linecap="round" stroke-linejoin="round" stroke-miterlimit="10" d="
		M546.057,186.477l2.574,27.771c0,0,14.146,5.254,23.038,0c0,0-5.928-32.873-6.467-40.283s-1.18-15.231,0.017-19.539"/>
	
		<polyline fill="none" stroke="#FCB813" stroke-width="3" stroke-linecap="round" stroke-linejoin="round" stroke-miterlimit="10" points="
		483.991,38.443 482.57,30.635 497.672,29.129 497.886,40.451 	"/>
	
		<polyline fill="none" stroke="#09875D" stroke-width="3" stroke-linecap="round" stroke-linejoin="round" stroke-miterlimit="10" points="
		469.72,48.067 470.446,44.071 455.923,42.623 455.718,53.511 	"/>
	<path fill="none" stroke="#09875D" stroke-width="3" stroke-linecap="round" stroke-linejoin="round" stroke-miterlimit="10" d="
		M566.703,63.55c0.375-2.945,3.435-5.405,4.048-8.49c0.438-2.203-0.428-4.516,0.047-6.712c0.188-0.872,0.582-1.689,0.777-2.56
		c0.45-2.009-0.208-4.139-1.333-5.864c-1.124-1.726-2.682-3.116-4.221-4.485c-1.931-1.718-4.043-3.518-6.613-3.782
		c-0.528-0.054-1.064-0.041-1.583-0.15c-0.816-0.173-1.535-0.637-2.253-1.062c-3.028-1.792-6.388-3.024-9.857-3.614
		c-2.273-0.386-5.915,1.083-4.465,4.022c0.514,1.039,1.502,1.743,2.376,2.504c0.874,0.761,1.715,1.732,1.742,2.891
		c0.023,0.984-0.552,1.898-0.592,2.881c-0.062,1.48,1.076,2.771,1.192,4.246c0.112,1.444-0.759,2.764-1.092,4.174
		c-0.332,1.41,0.335,3.344,1.782,3.302c0.903-0.027,1.562-0.82,2.193-1.467c1.342-1.375,3.445-2.36,5.171-1.516
		c1.458,0.714,2.101,2.503,2.04,4.125c-0.085,2.278-1.342,4.481-3.258,5.714c-0.417,0.268-0.925,0.609-0.87,1.101
		c0.023,0.211,0.153,0.393,0.256,0.579c0.804,1.472-0.08,3.39,0.55,4.944c0.2,0.493,0.54,0.914,0.875,1.327
		c0.844,1.039,1.865,2.702,3.112,2.95"/>
	<path fill="none" stroke="#09875D" stroke-width="3" stroke-linecap="round" stroke-linejoin="round" stroke-miterlimit="10" d="
		M543.626,33.357c0,0-2.092,2.239-3.697,4.72c-1.604,2.48-2.334,5.716-7.149,5.849c-4.814,0.133-7.149,0.543-7.441,2.235
		c-0.292,1.692,1.604,2.615,3.502,3.394c1.896,0.778,3.502,1.654,3.21,2.675s0.584,1.632,1.751,2.494
		c1.167,0.862,2.354,3.634,0.666,4.801s-4.897,0-4.897,0s-1.896,2.457-0.438,4.511c1.459,2.055,5.801,2.847,6.093,5.786"/>
	<path fill="none" stroke="#09875D" stroke-width="4" stroke-linecap="round" stroke-linejoin="round" stroke-miterlimit="10" d="
		M547.37,57.482c0,0,1.396,2.797,4.564,1.325"/>
	<path fill="none" stroke="#09875D" stroke-width="2" stroke-linecap="round" stroke-linejoin="round" stroke-miterlimit="10" d="
		M483.233,37.633c-0.953,1.095-1.23,3.254-0.562,4.542c0.669,1.288,1.952,2.18,3.333,2.627c0.113,0.037,0.252,0.114,0.227,0.23
		c-0.024,0.117-0.236-0.045-0.118-0.057"/>
	<path fill="none" stroke="#09875D" stroke-width="2" stroke-linecap="round" stroke-linejoin="round" stroke-miterlimit="10" d="
		M482.187,42.651c-0.503,0.497-1.021,1.029-1.208,1.711c-0.286,1.049,0.32,2.178,1.188,2.831c0.87,0.653,1.956,0.933,3.01,1.198"/>
	<path fill="none" stroke="#09875D" stroke-width="2" stroke-linecap="round" stroke-linejoin="round" stroke-miterlimit="10" d="
		M481.571,46.616c-0.664,0.806-1.702,1.373-0.816,3.064c0.243,0.465,0.896,0.922,1.343,1.199c0.894,0.555,1.946,0.993,2.993,1.094"
		/>
	<path fill="none" stroke="#09875D" stroke-width="2" stroke-linecap="round" stroke-linejoin="round" stroke-miterlimit="10" d="
		M481.279,51.425c-0.279,0.819,0.312,1.695,1.023,2.187c0.762,0.526,1.668,0.792,2.498,1.203c2.141,1.06,3.741,3.15,4.206,5.493
		c0.017,0.082,0.049,0.181,0.131,0.194c0.083,0.012,0.091-0.163,0.017-0.127"/>
	<path fill="none" stroke="#09875D" stroke-width="3" stroke-linecap="round" stroke-linejoin="round" stroke-miterlimit="10" d="
		M499.251,56.521c-1.503-1.412-1.702-3.754-1.293-5.775c0.409-2.02,1.313-3.919,1.672-5.949s0.033-4.383-1.57-5.679
		c-0.37,1.361-0.968,2.66-1.763,3.825c-0.308,0.453-0.668,0.902-1.17,1.118c-0.451,0.193-0.964,0.174-1.452,0.126
		c-4.238-0.422-8.22-2.921-10.441-6.555"/>
	<path fill="none" stroke="#FCB813" stroke-width="4" stroke-linecap="round" stroke-linejoin="round" stroke-miterlimit="10" d="
		M533.019,71.204c0,0-23.12-2.421-32.112-15.217l-12.372,5.533c0,0,8.741,15.649,16.35,20.75s21.787,8.214,26.369,8.214"/>
	<path fill="none" stroke="#FCB813" stroke-width="4" stroke-linecap="round" stroke-linejoin="round" stroke-miterlimit="10" d="
		M521.432,88.878c0,0-7.384,30.916-4.53,44.403c0,0,26.023,13.661,55.594,3.285c0,0,2.082-28.338-3.411-50.352"/>
	<path fill="none" stroke="#09875D" stroke-width="4" stroke-linecap="round" stroke-linejoin="round" stroke-miterlimit="10" d="
		M522.648,215.231l-9.226,1.326c-1.861,0.269-3.788,0.56-5.366,1.584c-1.577,1.022-2.704,2.998-2.145,4.793
		c0.354,1.132,1.294,1.986,2.297,2.617c4.274,2.692,9.737,2.172,14.696,3.131c5.491,1.062,10.923,4.031,16.367,2.752
		c1.519-0.357,3.014-1.09,3.932-2.352c0.589-0.808,0.906-1.783,1.117-2.76c0.576-2.672,0.414-5.5-0.467-8.088"/>
	<path fill="none" stroke="#09875D" stroke-width="4" stroke-linecap="round" stroke-linejoin="round" stroke-miterlimit="10" d="
		M569.648,215.231c0,0,2.56,9.929-2.29,11.006c-4.851,1.078-14.751,0.941-18.728-0.943l-3.977-1.884"/>
	
		<line fill="none" stroke="#09875D" stroke-width="4" stroke-linecap="round" stroke-linejoin="round" stroke-miterlimit="10" x1="548.631" y1="214.247" x2="544.717" y2="215.769"/>
	<path fill="none" stroke="#09875D" stroke-width="3" stroke-linecap="round" stroke-linejoin="round" stroke-miterlimit="10" d="
		M421.651,33.581c5.215-0.479,10.429-0.959,15.644-1.438c0.041-3.765-2.596-7.149-5.834-9.068c-3.239-1.92-7.025-2.647-10.726-3.344
		c-1.587-0.298-3.193-0.598-4.805-0.498c-1.502,0.094-2.967,0.535-4.344,1.139c-5.018,2.2-8.975,6.694-10.521,11.951
		c-2.526,8.592,1.259,17.809,0.318,26.716c-0.514,4.866-2.421,9.459-3.798,14.154c-1.378,4.697-2.218,9.809-0.602,14.429
		c0.576,1.649,1.532,3.267,3.065,4.106c1.533,0.84,3.724,0.631,4.714-0.81c0.303-0.441,0.476-0.956,0.644-1.463
		c0.695-2.09,1.389-4.179,2.084-6.269c1.068-3.213,2.231-6.576,4.739-8.85c2.508-2.275,7.891-2.697,10.754,0.898"/>
	<path fill="none" stroke="#09875D" stroke-width="3" stroke-linecap="round" stroke-linejoin="round" stroke-miterlimit="10" d="
		M421.573,33.683c-0.214,1.696-0.583,3.72-0.044,5.342"/>
	<path fill="none" stroke="#09875D" stroke-width="3" stroke-linecap="round" stroke-linejoin="round" stroke-miterlimit="10" d="
		M422.36,45.128c2.207,2.342,1.255,6.121,1.957,9.262c0.56,2.503,2.198,4.602,3.407,6.864c3.224,6.035,3.359,13.182,3.422,20.023"/>
	<path fill="none" stroke="#FCB813" stroke-width="3" stroke-linecap="round" stroke-linejoin="round" stroke-miterlimit="10" d="
		M421.529,39.025c-0.054-0.195-0.181-0.363-0.329-0.501c-0.896-0.831-2.484-0.449-3.198,0.543c-0.715,0.993-0.707,2.351-0.358,3.523
		c0.301,1.014,0.873,1.997,1.787,2.529c0.914,0.532,2.206,0.488,2.918-0.295"/>
	<path fill="none" stroke="#FCB813" stroke-width="2" stroke-linecap="round" stroke-linejoin="round" stroke-miterlimit="10" d="
		M453.43,68.07c1.54-1.45,2.016-3.726,1.936-5.839c-0.08-2.114-0.63-4.183-0.794-6.292c-0.036-0.471-0.048-0.97,0.175-1.386
		s0.761-0.7,1.183-0.488c0.578,0.291,0.482,1.127,0.686,1.741c0.3,0.907,1.371,1.368,2.322,1.283
		c0.95-0.085,1.807-0.584,2.628-1.071c2.974-1.766,6.063-3.642,7.883-6.583c0.279-0.451,0.706-1.001,1.21-0.833
		c0.654,1.445-0.189,3.117-1.171,4.363c-1.505,1.91-3.4,3.512-5.536,4.678"/>
	<path fill="none" stroke="#FCB813" stroke-width="2" stroke-linecap="round" stroke-linejoin="round" stroke-miterlimit="10" d="
		M470.986,49.548c0.376-0.246,0.92,0.003,1.125,0.403s0.155,0.881,0.053,1.319c-0.311,1.328-1.055,2.527-1.982,3.528
		c-0.927,1-2.034,1.816-3.173,2.57"/>
	<path fill="none" stroke="#FCB813" stroke-width="2" stroke-linecap="round" stroke-linejoin="round" stroke-miterlimit="10" d="
		M472.159,52.377c0.523-0.048,0.969,0.468,1.023,0.992c0.058,0.524-0.171,1.035-0.423,1.497c-0.984,1.802-2.439,3.342-4.182,4.426"
		/>
	<path fill="none" stroke="#FCB813" stroke-width="2" stroke-linecap="round" stroke-linejoin="round" stroke-miterlimit="10" d="
		M472.67,57.419c0.402,0.308,0.553,0.864,0.485,1.366c-0.066,0.501-0.318,0.959-0.596,1.382c-0.783,1.191-1.815,2.218-3.012,2.993
		c-1.011,0.655-2.126,1.127-3.185,1.701c-2.816,1.528-5.227,3.796-6.923,6.515"/>
	<path fill="none" stroke="#FCB813" stroke-width="4" stroke-linecap="round" stroke-linejoin="round" stroke-miterlimit="10" d="
		M417.413,75.344c0,0-7.797,5.34-5.351,26.095"/>
	<path fill="none" stroke="#09875D" stroke-width="3" stroke-linecap="round" stroke-linejoin="round" stroke-miterlimit="10" d="
		M419.881,92.221c0,0,14.989,11.533,19.619,11.954c4.63,0.421,9.049-4.525,11.89-10.417c2.841-5.892,8.944-21.571,8.944-21.571
		l-7.997-4.116c0,0-4.63,11.061-6.734,14.624c-2.104,3.562-5.604,7.59-5.604,7.59l-6.627-6.839
		c-9.6-10.522-15.959-8.102-15.959-8.102"/>
	<path fill="none" stroke="#09875D" stroke-width="3" stroke-linecap="round" stroke-linejoin="round" stroke-miterlimit="10" d="
		M430.131,68.07c0,0,5.851,2.854,10.582,20.321"/>
	<path fill="none" stroke="#09875D" stroke-width="4" stroke-linecap="round" stroke-linejoin="round" stroke-miterlimit="10" d="
		M436.021,217.286c0.238,1.872,1.509,3.507,3.104,4.516c1.595,1.008,3.485,1.457,5.361,1.656c2.735,0.291,5.575,0.1,8.151,1.061
		c2.577,0.961,4.844,3.617,4.139,6.275c-7.671,2.191-15.864-0.82-23.813-0.133c-1.25,0.109-2.513,0.309-3.753,0.115
		c-1.24-0.192-2.492-0.868-2.98-2.024c-0.319-0.757-0.275-1.612-0.186-2.428c0.224-2.009,0.699-3.987,1.414-5.876
		c0.366-0.969,0.558-2.285,0.469-3.316"/>
	<path fill="none" stroke="#09875D" stroke-width="4" stroke-linecap="round" stroke-linejoin="round" stroke-miterlimit="10" d="
		M426.976,221.749c1.508-0.009,2.875,0.864,4.357,1.142c2.199,0.409,4.438-0.528,6.305-1.761c0.062-0.041,0.129-0.094,0.128-0.166
		c-0.002-0.072-0.131-0.109-0.141-0.037"/>
	<path fill="none" stroke="#09875D" stroke-width="4" stroke-linecap="round" stroke-linejoin="round" stroke-miterlimit="10" d="
		M426.668,222.861c-6.041-0.593-12.037-3.075-18.18-3.358c-1.254-0.058-2.531-0.025-3.735-0.381s-2.356-1.191-2.688-2.402
		c-0.216-0.791-0.06-1.633,0.138-2.431c0.485-1.96,1.22-3.858,2.177-5.637c0.491-0.913,0.854-2.19,0.903-3.226"/>
	<path fill="none" stroke="#09875D" stroke-width="4" stroke-linecap="round" stroke-linejoin="round" stroke-miterlimit="10" d="
		M413.285,206.649c-0.011,1.887,1.033,3.674,2.479,4.885c0.725,0.605,1.54,1.082,2.404,1.463"/>
	<path fill="none" stroke="#09875D" stroke-width="4" stroke-linecap="round" stroke-linejoin="round" stroke-miterlimit="10" d="
		M403.73,209.878c1.496,0.189,2.735,1.236,4.168,1.707c2.126,0.697,4.469,0.063,6.483-0.912c0.065-0.033,0.139-0.076,0.147-0.148
		s-0.114-0.126-0.135-0.055"/>
	<path fill="none" stroke="#FCB813" stroke-width="4" stroke-linecap="round" stroke-linejoin="round" stroke-miterlimit="10" d="
		M568.18,63.5c0.209,0.521,0.669,0.891,1.113,1.232c2.659,2.043,5.491,3.976,7.464,6.686c1.975,2.711,2.937,6.462,1.419,9.452
		c-1.266,2.492-3.952,3.942-6.629,4.747c-7.836,2.358-16.356,0.403-23.884-2.808c-3.742-1.596-7.368-3.507-10.614-5.959
		c-1.235-0.933-4.331-3.056-4.007-4.888c0.433-2.444,4.014-1.849,5.617-1.573c2.962,0.509,6.03,0.392,8.944-0.343
		c2.747-0.693,5.479-1.938,8.288-1.564c0.646,0.085,1.301,0.256,1.938,0.12c0.582-0.126,1.078-0.496,1.556-0.852
		c1.037-0.774,2.119-1.545,3.37-1.881c0.838-0.225,1.727-0.246,2.544-0.538L568.18,63.5z"/>
	<path fill="#FCB813" d="M429.38,37.3c0,0.457-0.37,0.827-0.827,0.827s-0.827-0.37-0.827-0.827s0.37-0.827,0.827-0.827
		S429.38,36.843,429.38,37.3"/>
	<path fill="#09875D" d="M540.176,45.284c0,0.483-0.392,0.875-0.875,0.875c-0.482,0-0.875-0.392-0.875-0.875
		c0-0.483,0.393-0.875,0.875-0.875C539.784,44.409,540.176,44.801,540.176,45.284"/>
	<line fill="none" stroke="#09875D" stroke-width="5" stroke-miterlimit="10" x1="365.59" y1="5.625" x2="365.824" y2="250.188"/>
	<line fill="none" stroke="#09875D" stroke-width="5" stroke-miterlimit="10" x1="7.068" y1="5.115" x2="7.275" y2="250.469"/>
	<line fill="none" stroke="#09875D" stroke-width="5" stroke-miterlimit="10" x1="733.833" y1="6.92" x2="4.625" y2="7.542"/>
	<path fill="#FCB813" d="M86.286,181.574c-3.731,3.1-14.923,4.648-23.984,0.775c-9.06-3.875-17.588,1.162-17.588,1.162l5.145,46.793
		H81.14L86.286,181.574z"/>
	
		<polygon fill="none" stroke="#09875D" stroke-width="5" stroke-linecap="round" stroke-linejoin="round" stroke-miterlimit="10" points="
		81.141,230.305 49.86,230.305 42.662,167.178 88.339,167.178 	"/>
	
		<line fill="none" stroke="#09875D" stroke-width="5" stroke-linecap="round" stroke-linejoin="round" stroke-miterlimit="10" x1="66.709" y1="127.297" x2="66.709" y2="167.316"/>
	<path fill="#FCB813" d="M75.575,111.729c0,4.676-3.791,8.467-8.468,8.467c-4.677,0-8.469-3.791-8.469-8.467
		c0-4.678,3.792-8.469,8.469-8.469C71.784,103.26,75.575,107.051,75.575,111.729"/>
	
		<circle fill="none" stroke="#09875D" stroke-width="5" stroke-linecap="round" stroke-linejoin="round" stroke-miterlimit="10" cx="67.106" cy="111.729" r="8.469"/>
	
		<line fill="none" stroke="#09875D" stroke-width="5" stroke-linecap="round" stroke-linejoin="round" stroke-miterlimit="10" x1="67.106" y1="101.54" x2="67.106" y2="88.276"/>
	<path fill="none" stroke="#09875D" stroke-width="5" stroke-linecap="round" stroke-linejoin="round" stroke-miterlimit="10" d="
		M15.561,75.756c0-28.088,22.77-50.857,50.859-50.857c28.088,0,50.858,22.77,50.858,50.857"/>
	<path fill="none" stroke="#09875D" stroke-width="5" stroke-linecap="round" stroke-linejoin="round" stroke-miterlimit="10" d="
		M117.278,75.756c0,28.088-22.77,50.859-50.858,50.859c-28.089,0-50.859-22.771-50.859-50.859"/>
	<line fill="none" stroke="#09875D" stroke-width="5" stroke-miterlimit="10" x1="610.031" y1="9.271" x2="610.031" y2="249"/>
	<line fill="none" stroke="#09875D" stroke-width="5" stroke-miterlimit="10" x1="731.308" y1="9.271" x2="731.308" y2="248.625"/>
	<path fill="#FCB813" d="M650.785,155.398c0,7.387-5.988,13.375-13.375,13.375c-7.388,0-13.376-5.988-13.376-13.375
		c0-7.388,5.988-13.375,13.376-13.375C644.797,142.023,650.785,148.011,650.785,155.398"/>
	<path fill="#FCB813" d="M716.972,100.563c0,7.387-5.988,13.375-13.376,13.375c-7.387,0-13.375-5.988-13.375-13.375
		c0-7.387,5.988-13.375,13.375-13.375C710.983,87.188,716.972,93.176,716.972,100.563"/>
	<path fill="none" stroke="#09875D" stroke-width="5.545" stroke-miterlimit="10" d="M640.661,229.17
		c-10.179,0-19.397-3.619-26.072-9.466l-4.541-3.866"/>
	
		<path fill="none" stroke="#09875D" stroke-width="5.545" stroke-linecap="round" stroke-linejoin="round" stroke-miterlimit="10" d="
		M703.73,26.792c10.179,0,19.397,3.617,26.071,9.465"/>
	<path fill="#231F20" d="M637.41,148.858c0,0,0.011,0.835,0.091,2.104C637.444,150.266,637.41,149.567,637.41,148.858"/>
	<path fill="none" stroke="#09875D" stroke-width="5.545" stroke-miterlimit="10" d="M637.565,120.621
		c15.408,0,27.904,10.946,27.904,24.443c0,0-0.013,0.835-0.104,2.104c-0.169,2.414-0.587,6.406-1.579,9.174
		c-1.515,4.221-1.058,13.555,6.098,24.936c0.013,0.012,0.013,0.034,0.026,0.046c0.078,0.126,0.156,0.263,0.234,0.388
		c2.756,4.519,4.31,9.678,4.31,15.146c0,17.844-16.519,32.313-36.875,32.313"/>
	<path fill="#231F20" d="M669.45,147.048c0,0-0.012,0.835-0.092,2.104C669.415,148.455,669.45,147.757,669.45,147.048"/>
	<path fill="none" stroke="#09875D" stroke-width="3.696" stroke-miterlimit="10" d="M637.565,141.051
		c7.924,0,14.348,6.423,14.348,14.347c0,7.925-6.424,14.347-14.348,14.347"/>
	
		<line fill="none" stroke="#09875D" stroke-width="3.696" stroke-miterlimit="10" x1="618.653" y1="30.846" x2="619.639" y2="38.137"/>
	
		<line fill="none" stroke="#09875D" stroke-width="3.696" stroke-miterlimit="10" x1="619.689" y1="40.122" x2="620.674" y2="47.412"/>
	
		<line fill="none" stroke="#09875D" stroke-width="3.696" stroke-miterlimit="10" x1="621.129" y1="49.398" x2="622.114" y2="56.688"/>
	<path fill="none" stroke="#09875D" stroke-width="3.696" stroke-miterlimit="10" d="M620.674,43.768
		c0.425-0.249,5.173-0.803,5.173-0.803"/>
	<path fill="none" stroke="#09875D" stroke-width="3.696" stroke-miterlimit="10" d="M622.127,53.264
		c0.424-0.249,5.172-0.803,5.172-0.803"/>
	<path fill="none" stroke="#09875D" stroke-width="3.696" stroke-miterlimit="10" d="M620.674,34.271
		c0.425-0.249,5.173-0.803,5.173-0.803"/>
	<path fill="none" stroke="#09875D" stroke-width="5.545" stroke-miterlimit="10" d="M637.735,120.621
		c-11.312,0-21.053,5.899-25.434,14.375l-1.795,3.653"/>
	<path fill="none" stroke="#09875D" stroke-width="3.696" stroke-miterlimit="10" d="M637.735,141.051
		c-7.924,0-14.347,6.423-14.347,14.347c0,7.925,6.423,14.347,14.347,14.347"/>
	<path fill="none" stroke="#09875D" stroke-width="3.696" stroke-miterlimit="10" d="M643.633,193.041V64.917l4.122-5.583
		l2.441-30.465c-2.81-1.763-12.812-2.077-12.812-2.077h0.14c0,0-10.001,0.314-12.812,2.077l2.442,30.465l4.121,5.583v128.124"/>
	
		<line fill="none" stroke="#09875D" stroke-width="3.696" stroke-miterlimit="10" x1="655.967" y1="30.846" x2="654.981" y2="38.137"/>
	
		<line fill="none" stroke="#09875D" stroke-width="3.696" stroke-miterlimit="10" x1="654.932" y1="40.122" x2="653.946" y2="47.412"/>
	
		<line fill="none" stroke="#09875D" stroke-width="3.696" stroke-miterlimit="10" x1="653.491" y1="49.398" x2="652.506" y2="56.688"/>
	<path fill="none" stroke="#09875D" stroke-width="3.696" stroke-miterlimit="10" d="M653.946,43.768
		c-0.424-0.249-5.172-0.803-5.172-0.803"/>
	<path fill="none" stroke="#09875D" stroke-width="3.696" stroke-miterlimit="10" d="M653.946,53.035
		c-0.424-0.249-5.172-0.803-5.172-0.803"/>
	<path fill="none" stroke="#09875D" stroke-width="3.696" stroke-miterlimit="10" d="M655.253,34.342l-4.483-0.472
		c0,0-11.672-1.116-13.314,7.034"/>
	
		<line fill="none" stroke="#09875D" stroke-width="3.696" stroke-miterlimit="10" x1="625.632" y1="194.275" x2="650.196" y2="194.275"/>
	<path fill="none" stroke="#09875D" stroke-width="3.696" stroke-miterlimit="10" d="M625.847,33.468c0,0,11.03,0.76,11.608,5.395
		l0.28,20.563v133.615"/>
	<path fill="none" stroke="#09875D" stroke-width="3.696" stroke-miterlimit="10" d="M625.847,42.964c0,0,9.972-0.98,11.65,4.309"/>
	<path fill="none" stroke="#09875D" stroke-width="3.696" stroke-miterlimit="10" d="M625.847,52.807c0,0,10.986-1.082,11.837,5.144
		"/>
	<path fill="none" stroke="#09875D" stroke-width="3.696" stroke-miterlimit="10" d="M649.344,42.964c0,0-9.971-0.98-11.65,4.309"/>
	<path fill="none" stroke="#09875D" stroke-width="3.696" stroke-miterlimit="10" d="M649.344,52.807c0,0-10.56-0.478-11.536,5.642"
		/>
	<path fill="#231F20" d="M704.101,107.103c0,0-0.012-0.835-0.092-2.104C704.066,105.696,704.101,106.394,704.101,107.103"/>
	<path fill="none" stroke="#09875D" stroke-width="5.545" stroke-miterlimit="10" d="M703.944,135.341
		c-15.408,0-27.904-10.946-27.904-24.443c0,0,0.012-0.835,0.104-2.104c0.17-2.413,0.588-6.406,1.58-9.174
		c1.515-4.22,1.058-13.554-6.098-24.935c-0.014-0.012-0.014-0.034-0.026-0.046c-0.078-0.126-0.157-0.263-0.235-0.389
		c-2.755-4.518-4.309-9.677-4.309-15.144c0-17.844,16.518-32.313,36.875-32.313"/>
	<path fill="#231F20" d="M672.061,108.913c0,0,0.012-0.835,0.092-2.104C672.095,107.506,672.061,108.204,672.061,108.913"/>
	<path fill="none" stroke="#09875D" stroke-width="3.696" stroke-miterlimit="10" d="M703.944,114.91
		c-7.923,0-14.347-6.423-14.347-14.347s6.424-14.347,14.347-14.347"/>
	
		<line fill="none" stroke="#09875D" stroke-width="3.696" stroke-miterlimit="10" x1="722.856" y1="225.115" x2="721.871" y2="217.824"/>
	
		<line fill="none" stroke="#09875D" stroke-width="3.696" stroke-miterlimit="10" x1="721.821" y1="215.839" x2="720.836" y2="208.549"/>
	
		<line fill="none" stroke="#09875D" stroke-width="3.696" stroke-miterlimit="10" x1="720.381" y1="206.563" x2="719.396" y2="199.271"/>
	<path fill="none" stroke="#09875D" stroke-width="3.696" stroke-miterlimit="10" d="M720.836,212.193
		c-0.424,0.25-5.172,0.803-5.172,0.803"/>
	<path fill="none" stroke="#09875D" stroke-width="3.696" stroke-miterlimit="10" d="M719.384,202.697
		c-0.424,0.249-5.173,0.803-5.173,0.803"/>
	<path fill="none" stroke="#09875D" stroke-width="3.696" stroke-miterlimit="10" d="M720.836,221.689
		c-0.424,0.25-5.172,0.803-5.172,0.803"/>
	<path fill="none" stroke="#09875D" stroke-width="5.545" stroke-miterlimit="10" d="M703.774,135.341
		c11.312,0,21.054-5.899,25.435-14.376"/>
	<path fill="none" stroke="#09875D" stroke-width="3.696" stroke-miterlimit="10" d="M703.774,114.91
		c7.924,0,14.348-6.423,14.348-14.347s-6.424-14.347-14.348-14.347"/>
	<path fill="none" stroke="#09875D" stroke-width="3.696" stroke-miterlimit="10" d="M697.877,62.92v128.124l-4.121,5.583
		l-2.442,30.465c2.811,1.764,12.812,2.077,12.812,2.077h-0.14c0,0,10.002-0.313,12.812-2.077l-2.44-30.465l-4.123-5.583V62.92"/>
	
		<line fill="none" stroke="#09875D" stroke-width="3.696" stroke-miterlimit="10" x1="685.544" y1="225.115" x2="686.528" y2="217.824"/>
	
		<line fill="none" stroke="#09875D" stroke-width="3.696" stroke-miterlimit="10" x1="686.579" y1="215.839" x2="687.564" y2="208.549"/>
	
		<line fill="none" stroke="#09875D" stroke-width="3.696" stroke-miterlimit="10" x1="688.02" y1="206.563" x2="689.003" y2="199.271"/>
	<path fill="none" stroke="#09875D" stroke-width="3.696" stroke-miterlimit="10" d="M687.564,212.193
		c0.424,0.25,5.172,0.803,5.172,0.803"/>
	<path fill="none" stroke="#09875D" stroke-width="3.696" stroke-miterlimit="10" d="M687.564,202.926
		c0.424,0.249,5.172,0.803,5.172,0.803"/>
	<path fill="none" stroke="#09875D" stroke-width="3.696" stroke-miterlimit="10" d="M686.258,221.619l4.483,0.473
		c0,0,11.672,1.115,13.314-7.034"/>
	
		<line fill="none" stroke="#09875D" stroke-width="3.696" stroke-miterlimit="10" x1="715.879" y1="61.686" x2="691.313" y2="61.686"/>
	<path fill="none" stroke="#09875D" stroke-width="3.696" stroke-miterlimit="10" d="M715.664,222.493c0,0-11.03-0.761-11.608-5.394
		l-0.281-20.564V62.92"/>
	<path fill="none" stroke="#09875D" stroke-width="3.696" stroke-miterlimit="10" d="M715.664,212.996c0,0-9.972,0.982-11.65-4.307"
		/>
	<path fill="none" stroke="#09875D" stroke-width="3.696" stroke-miterlimit="10" d="M715.664,203.154
		c0,0-10.987,1.082-11.837-5.144"/>
	<path fill="none" stroke="#09875D" stroke-width="3.696" stroke-miterlimit="10" d="M692.166,212.996c0,0,9.972,0.982,11.65-4.307"
		/>
	<path fill="none" stroke="#09875D" stroke-width="3.696" stroke-miterlimit="10" d="M692.166,203.154
		c0,0,10.561,0.478,11.537-5.641"/>
	<path fill="#231F20" d="M704.101,107.103c0,0-0.012-0.835-0.092-2.104C704.066,105.696,704.101,106.394,704.101,107.103"/>
	<path fill="none" stroke="#09875D" stroke-width="5.545" stroke-miterlimit="10" d="M703.944,135.341
		c-15.408,0-27.904-10.946-27.904-24.443c0,0,0.012-0.835,0.104-2.104c0.17-2.413,0.588-6.406,1.58-9.174
		c1.515-4.22,1.058-13.554-6.098-24.935c-0.014-0.012-0.014-0.034-0.026-0.046c-0.078-0.126-0.157-0.263-0.235-0.389
		c-2.755-4.518-4.309-9.677-4.309-15.144c0-17.844,16.518-32.313,36.875-32.313"/>
	<path fill="#231F20" d="M672.061,108.913c0,0,0.012-0.835,0.092-2.104C672.095,107.506,672.061,108.204,672.061,108.913"/>
	<path fill="none" stroke="#09875D" stroke-width="3.696" stroke-miterlimit="10" d="M703.944,114.91
		c-7.923,0-14.347-6.423-14.347-14.347s6.424-14.347,14.347-14.347"/>
	
		<line fill="none" stroke="#09875D" stroke-width="3.696" stroke-miterlimit="10" x1="722.856" y1="225.115" x2="721.871" y2="217.824"/>
	
		<line fill="none" stroke="#09875D" stroke-width="3.696" stroke-miterlimit="10" x1="721.821" y1="215.839" x2="720.836" y2="208.549"/>
	
		<line fill="none" stroke="#09875D" stroke-width="3.696" stroke-miterlimit="10" x1="720.381" y1="206.563" x2="719.396" y2="199.271"/>
	<path fill="none" stroke="#09875D" stroke-width="3.696" stroke-miterlimit="10" d="M720.836,212.193
		c-0.424,0.25-5.172,0.803-5.172,0.803"/>
	<path fill="none" stroke="#09875D" stroke-width="3.696" stroke-miterlimit="10" d="M719.384,202.697
		c-0.424,0.249-5.173,0.803-5.173,0.803"/>
	<path fill="none" stroke="#09875D" stroke-width="3.696" stroke-miterlimit="10" d="M720.836,221.689
		c-0.424,0.25-5.172,0.803-5.172,0.803"/>
	<path fill="none" stroke="#09875D" stroke-width="5.545" stroke-miterlimit="10" d="M703.774,135.341
		c11.312,0,21.054-5.899,25.435-14.376l2.099-7.026"/>
	<path fill="none" stroke="#09875D" stroke-width="3.696" stroke-miterlimit="10" d="M703.774,114.91
		c7.924,0,14.348-6.423,14.348-14.347s-6.424-14.347-14.348-14.347"/>
	<path fill="none" stroke="#09875D" stroke-width="3.696" stroke-miterlimit="10" d="M697.877,62.92v128.124l-4.121,5.583
		l-2.442,30.465c2.811,1.764,12.812,2.077,12.812,2.077h-0.14c0,0,10.002-0.313,12.812-2.077l-2.44-30.465l-4.123-5.583V62.92"/>
	
		<line fill="none" stroke="#09875D" stroke-width="3.696" stroke-miterlimit="10" x1="685.544" y1="225.115" x2="686.528" y2="217.824"/>
	
		<line fill="none" stroke="#09875D" stroke-width="3.696" stroke-miterlimit="10" x1="686.579" y1="215.839" x2="687.564" y2="208.549"/>
	
		<line fill="none" stroke="#09875D" stroke-width="3.696" stroke-miterlimit="10" x1="688.02" y1="206.563" x2="689.003" y2="199.271"/>
	<path fill="none" stroke="#09875D" stroke-width="3.696" stroke-miterlimit="10" d="M687.564,212.193
		c0.424,0.25,5.172,0.803,5.172,0.803"/>
	<path fill="none" stroke="#09875D" stroke-width="3.696" stroke-miterlimit="10" d="M687.564,202.926
		c0.424,0.249,5.172,0.803,5.172,0.803"/>
	<path fill="none" stroke="#09875D" stroke-width="3.696" stroke-miterlimit="10" d="M686.258,221.619l4.483,0.473
		c0,0,11.672,1.115,13.314-7.034"/>
	
		<line fill="none" stroke="#09875D" stroke-width="3.696" stroke-miterlimit="10" x1="715.879" y1="61.686" x2="691.313" y2="61.686"/>
	<path fill="none" stroke="#09875D" stroke-width="3.696" stroke-miterlimit="10" d="M715.664,222.493c0,0-11.03-0.761-11.608-5.394
		l-0.281-20.564V62.92"/>
	<path fill="none" stroke="#09875D" stroke-width="3.696" stroke-miterlimit="10" d="M715.664,212.996c0,0-9.972,0.982-11.65-4.307"
		/>
	<path fill="none" stroke="#09875D" stroke-width="3.696" stroke-miterlimit="10" d="M715.664,203.154
		c0,0-10.987,1.082-11.837-5.144"/>
	<path fill="none" stroke="#09875D" stroke-width="3.696" stroke-miterlimit="10" d="M692.166,212.996c0,0,9.972,0.982,11.65-4.307"
		/>
	<path fill="none" stroke="#09875D" stroke-width="3.696" stroke-miterlimit="10" d="M692.166,203.154
		c0,0,10.561,0.478,11.537-5.641"/>
	<rect x="2.5" y="2.5" fill="none" stroke="#FFFFFF" stroke-width="5" stroke-miterlimit="10" width="733" height="250"/>
</g>
</svg>
