<?xml version="1.0" encoding="utf-8"?>
<!-- Generator: Adobe Illustrator 16.0.0, SVG Export Plug-In . SVG Version: 6.00 Build 0)  -->
<!DOCTYPE svg PUBLIC "-//W3C//DTD SVG 1.1//EN" "http://www.w3.org/Graphics/SVG/1.1/DTD/svg11.dtd">
<svg version="1.1" xmlns="http://www.w3.org/2000/svg" xmlns:xlink="http://www.w3.org/1999/xlink" x="0px" y="0px"
	 width="285.003px" height="154.254px" viewBox="118.497 40.398 285.003 154.254"
	 enable-background="new 118.497 40.398 285.003 154.254" xml:space="preserve">
<g id="Layer_2_1_" display="none">
	<g id="Layer_3" display="inline">
		<rect fill="#FFFFFF" width="738" height="254.969"/>
	</g>
</g>
<g id="Layer_1">
	<g id="Layer_2">
	</g>
	<line fill="none" stroke="#09875D" stroke-width="5" stroke-miterlimit="10" x1="125.946" y1="45.859" x2="126.084" y2="190.516"/>
	<line fill="none" stroke="#09875D" stroke-width="5" stroke-miterlimit="10" x1="398.625" y1="47.426" x2="126.42" y2="48.344"/>
	
		<line fill="none" stroke="#09875D" stroke-width="5" stroke-miterlimit="10" x1="398.667" y1="187.307" x2="127.254" y2="187.994"/>
	<g>
		<path fill="#0D8256" d="M140.19,57.614h10.062c2.436,0,4.751,0.271,6.944,0.817c2.193,0.545,4.106,1.426,5.74,2.645
			c1.634,1.219,2.931,2.802,3.892,4.751c0.96,1.95,1.44,4.315,1.44,7.095c0,2.466-0.466,4.638-1.397,6.515
			c-0.932,1.878-2.186,3.455-3.762,4.73c-1.577,1.276-3.397,2.244-5.461,2.903c-2.064,0.66-4.229,0.989-6.493,0.989H140.19V57.614z
			 M146.898,81.866h3.483c1.548,0,2.988-0.157,4.321-0.473c1.333-0.315,2.487-0.838,3.461-1.569
			c0.974-0.731,1.742-1.691,2.301-2.881c0.559-1.189,0.838-2.644,0.838-4.364c0-1.49-0.279-2.788-0.838-3.892
			c-0.559-1.103-1.312-2.014-2.258-2.73c-0.946-0.716-2.057-1.254-3.333-1.612c-1.276-0.358-2.616-0.538-4.021-0.538h-3.956v18.059
			H146.898z"/>
		<path fill="#0D8256" d="M172.74,57.614h6.708v30.444h-6.708V57.614z"/>
		<path fill="#0D8256" d="M185.554,57.614h10.062c2.436,0,4.751,0.271,6.944,0.817c2.193,0.545,4.106,1.426,5.74,2.645
			c1.634,1.219,2.931,2.802,3.892,4.751c0.96,1.95,1.44,4.315,1.44,7.095c0,2.466-0.466,4.638-1.397,6.515
			c-0.932,1.878-2.186,3.455-3.762,4.73c-1.577,1.276-3.397,2.244-5.461,2.903c-2.064,0.66-4.229,0.989-6.493,0.989h-10.965V57.614z
			 M192.262,81.866h3.483c1.548,0,2.988-0.157,4.321-0.473c1.333-0.315,2.487-0.838,3.461-1.569
			c0.974-0.731,1.742-1.691,2.301-2.881c0.559-1.189,0.838-2.644,0.838-4.364c0-1.49-0.279-2.788-0.838-3.892
			c-0.559-1.103-1.312-2.014-2.258-2.73c-0.946-0.716-2.057-1.254-3.333-1.612c-1.276-0.358-2.616-0.538-4.021-0.538h-3.956v18.059
			H192.262z"/>
		<path fill="#0D8256" d="M233.24,65.053c-0.545-0.688-1.283-1.197-2.214-1.527c-0.932-0.329-1.813-0.494-2.645-0.494
			c-0.488,0-0.989,0.058-1.505,0.172c-0.516,0.115-1.004,0.294-1.462,0.538c-0.458,0.244-0.832,0.566-1.118,0.967
			c-0.287,0.402-0.43,0.889-0.43,1.462c0,0.918,0.344,1.62,1.032,2.107c0.688,0.488,1.555,0.903,2.601,1.247
			c1.046,0.344,2.172,0.688,3.375,1.032c1.204,0.344,2.329,0.832,3.376,1.462c1.046,0.631,1.913,1.477,2.601,2.537
			c0.688,1.061,1.032,2.48,1.032,4.257c0,1.692-0.316,3.168-0.946,4.429c-0.631,1.262-1.484,2.308-2.559,3.139
			c-1.075,0.832-2.322,1.448-3.741,1.849c-1.419,0.401-2.917,0.602-4.494,0.602c-1.978,0-3.813-0.301-5.504-0.903
			c-1.692-0.602-3.268-1.576-4.73-2.924l4.773-5.246c0.688,0.917,1.555,1.627,2.602,2.128c1.046,0.502,2.128,0.752,3.247,0.752
			c0.544,0,1.097-0.064,1.655-0.193c0.559-0.129,1.061-0.323,1.505-0.581c0.444-0.258,0.802-0.587,1.075-0.989
			c0.272-0.401,0.409-0.874,0.409-1.419c0-0.917-0.352-1.641-1.054-2.171c-0.703-0.53-1.584-0.981-2.645-1.354
			c-1.061-0.372-2.208-0.745-3.44-1.118c-1.233-0.372-2.379-0.874-3.44-1.505c-1.061-0.63-1.942-1.462-2.645-2.494
			c-0.703-1.032-1.053-2.393-1.053-4.085c0-1.634,0.322-3.067,0.967-4.3c0.645-1.232,1.505-2.264,2.58-3.096
			c1.075-0.831,2.314-1.455,3.72-1.871c1.404-0.415,2.852-0.623,4.343-0.623c1.72,0,3.382,0.244,4.988,0.731
			c1.605,0.488,3.053,1.305,4.343,2.451L233.24,65.053z"/>
		<path fill="#0D8256" d="M242.872,57.614h11.352c1.318,0,2.644,0.093,3.977,0.279c1.333,0.187,2.53,0.559,3.591,1.118
			c1.06,0.559,1.92,1.34,2.58,2.343c0.659,1.004,0.989,2.337,0.989,3.999c0,1.72-0.48,3.146-1.44,4.279
			c-0.961,1.133-2.229,1.942-3.806,2.429v0.086c1.003,0.144,1.914,0.423,2.73,0.839c0.817,0.416,1.519,0.946,2.107,1.591
			c0.587,0.645,1.039,1.397,1.354,2.257s0.473,1.778,0.473,2.752c0,1.606-0.344,2.946-1.032,4.021
			c-0.688,1.075-1.577,1.942-2.666,2.602c-1.09,0.66-2.315,1.133-3.677,1.419c-1.362,0.287-2.716,0.43-4.063,0.43h-12.47
			L242.872,57.614L242.872,57.614z M249.58,69.783h4.859c0.516,0,1.024-0.057,1.526-0.172c0.501-0.114,0.953-0.301,1.354-0.559
			c0.401-0.258,0.724-0.602,0.968-1.032c0.243-0.43,0.365-0.946,0.365-1.548c0-0.63-0.136-1.154-0.409-1.569
			c-0.273-0.415-0.623-0.738-1.053-0.968c-0.43-0.229-0.918-0.394-1.462-0.495c-0.545-0.1-1.075-0.15-1.591-0.15h-4.558
			L249.58,69.783L249.58,69.783z M249.58,82.382h6.02c0.516,0,1.039-0.057,1.569-0.172c0.53-0.114,1.01-0.315,1.44-0.602
			c0.43-0.286,0.781-0.659,1.054-1.118c0.272-0.458,0.408-1.018,0.408-1.677c0-0.716-0.179-1.296-0.538-1.741
			c-0.358-0.444-0.81-0.781-1.354-1.011c-0.545-0.229-1.133-0.387-1.763-0.473c-0.631-0.086-1.219-0.129-1.763-0.129h-5.074
			L249.58,82.382L249.58,82.382z"/>
		<path fill="#0D8256" d="M296.406,76.319c0,1.806-0.273,3.469-0.817,4.988c-0.545,1.52-1.354,2.838-2.43,3.956
			c-1.076,1.118-2.416,1.993-4.021,2.623c-1.606,0.63-3.455,0.946-5.547,0.946c-2.122,0-3.985-0.316-5.59-0.946
			c-1.605-0.63-2.945-1.505-4.021-2.623c-1.075-1.118-1.885-2.437-2.429-3.956c-0.545-1.519-0.817-3.182-0.817-4.988V57.614h6.708
			v18.447c0,0.946,0.15,1.821,0.451,2.623c0.301,0.803,0.724,1.499,1.269,2.085c0.544,0.588,1.197,1.047,1.957,1.376
			c0.759,0.33,1.583,0.495,2.473,0.495c0.888,0,1.705-0.165,2.451-0.495c0.745-0.329,1.39-0.788,1.935-1.376
			c0.544-0.587,0.968-1.283,1.269-2.085c0.301-0.802,0.452-1.677,0.452-2.623V57.614h6.708L296.406,76.319L296.406,76.319z"/>
		<path fill="#0D8256" d="M302.598,57.614h11.782c1.548,0,3.017,0.15,4.408,0.451c1.39,0.301,2.608,0.803,3.655,1.505
			c1.046,0.703,1.877,1.648,2.494,2.838c0.616,1.19,0.924,2.673,0.924,4.45c0,2.15-0.559,3.978-1.677,5.483
			c-1.118,1.505-2.752,2.458-4.902,2.859l7.74,12.857h-8.041l-6.364-12.169h-3.311v12.169h-6.708V57.614L302.598,57.614z
			 M309.306,70.212h3.956c0.602,0,1.24-0.021,1.914-0.064c0.673-0.043,1.283-0.172,1.828-0.387c0.544-0.215,0.996-0.552,1.354-1.011
			c0.358-0.458,0.538-1.103,0.538-1.935c0-0.774-0.158-1.39-0.473-1.849c-0.316-0.458-0.717-0.81-1.204-1.054
			c-0.488-0.243-1.046-0.409-1.677-0.495s-1.247-0.129-1.849-0.129h-4.386L309.306,70.212L309.306,70.212z"/>
		<path fill="#0D8256" d="M337.17,75.072l-11.438-17.458h8.342l6.45,11.395l6.837-11.395h7.955l-11.438,17.458v12.986h-6.708V75.072
			L337.17,75.072z"/>
		<path fill="#0D8256" d="M140.19,102.614h11.352c1.318,0,2.644,0.093,3.977,0.279c1.333,0.187,2.53,0.559,3.591,1.118
			c1.06,0.559,1.92,1.34,2.58,2.343c0.659,1.004,0.989,2.337,0.989,3.999c0,1.72-0.48,3.146-1.44,4.279
			c-0.961,1.133-2.229,1.942-3.806,2.429v0.086c1.003,0.144,1.914,0.423,2.73,0.839c0.817,0.416,1.519,0.946,2.107,1.591
			c0.587,0.645,1.039,1.397,1.354,2.257s0.473,1.778,0.473,2.752c0,1.606-0.344,2.946-1.032,4.021
			c-0.688,1.074-1.577,1.941-2.666,2.602c-1.09,0.66-2.315,1.133-3.677,1.419c-1.362,0.287-2.716,0.431-4.063,0.431h-12.47
			L140.19,102.614L140.19,102.614z M146.898,114.783h4.859c0.516,0,1.024-0.057,1.526-0.172c0.501-0.114,0.953-0.301,1.354-0.559
			c0.401-0.258,0.724-0.602,0.968-1.032c0.243-0.43,0.365-0.946,0.365-1.548c0-0.63-0.136-1.154-0.409-1.569
			s-0.623-0.738-1.053-0.968c-0.43-0.229-0.918-0.394-1.462-0.495c-0.545-0.1-1.075-0.15-1.591-0.15h-4.558L146.898,114.783
			L146.898,114.783z M146.898,127.382h6.02c0.516,0,1.039-0.057,1.569-0.172c0.53-0.114,1.01-0.315,1.44-0.602
			c0.43-0.286,0.781-0.659,1.054-1.118c0.272-0.458,0.408-1.018,0.408-1.677c0-0.716-0.179-1.296-0.538-1.741
			c-0.358-0.444-0.81-0.781-1.354-1.011c-0.545-0.229-1.133-0.387-1.763-0.473c-0.631-0.086-1.219-0.129-1.763-0.129h-5.074
			L146.898,127.382L146.898,127.382z"/>
		<path fill="#0D8256" d="M168.312,102.614h20.683v6.192H175.02v5.676h13.201v6.192H175.02v6.192h14.749v6.192h-21.457V102.614z"/>
		<path fill="#0D8256" d="M195.401,102.614h20.683v6.192h-13.975v5.676h13.201v6.192h-13.201v6.192h14.749v6.192h-21.457V102.614z"
			/>
		<path fill="#0D8256" d="M222.232,102.614h11.782c1.548,0,3.017,0.15,4.408,0.451c1.39,0.301,2.608,0.803,3.655,1.505
			c1.046,0.703,1.877,1.648,2.494,2.838c0.616,1.19,0.924,2.673,0.924,4.45c0,2.15-0.559,3.978-1.677,5.483
			c-1.118,1.505-2.752,2.458-4.902,2.859l7.74,12.856h-8.041l-6.364-12.168h-3.311v12.168h-6.708V102.614z M228.94,115.212h3.956
			c0.602,0,1.24-0.021,1.914-0.064c0.673-0.043,1.283-0.172,1.828-0.387c0.544-0.215,0.996-0.552,1.354-1.011
			c0.358-0.458,0.538-1.103,0.538-1.935c0-0.774-0.158-1.39-0.473-1.849c-0.316-0.458-0.717-0.81-1.204-1.054
			c-0.488-0.243-1.046-0.409-1.677-0.495c-0.631-0.086-1.247-0.129-1.849-0.129h-4.386L228.94,115.212L228.94,115.212z"/>
		<path fill="#0D8256" d="M140.448,147.613h20.425v6.191h-13.717v6.192h12.685v6.19h-12.685v11.869h-6.708V147.613z"/>
		<path fill="#0D8256" d="M165.946,147.613h20.683v6.191h-13.975v5.676h13.201v6.192h-13.201v6.191h14.749v6.192h-21.457V147.613
			L165.946,147.613z"/>
		<path fill="#0D8256" d="M207.828,155.053c-0.545-0.688-1.283-1.197-2.214-1.527c-0.932-0.327-1.813-0.493-2.646-0.493
			c-0.488,0-0.989,0.059-1.505,0.172c-0.516,0.114-1.004,0.295-1.462,0.538c-0.458,0.242-0.832,0.566-1.118,0.968
			c-0.287,0.401-0.43,0.89-0.43,1.461c0,0.918,0.344,1.621,1.032,2.106c0.688,0.488,1.555,0.904,2.601,1.248
			c1.046,0.345,2.172,0.688,3.375,1.031c1.204,0.344,2.329,0.832,3.376,1.463c1.046,0.631,1.913,1.478,2.601,2.537
			c0.688,1.062,1.032,2.479,1.032,4.256c0,1.691-0.316,3.168-0.946,4.431c-0.631,1.262-1.484,2.307-2.559,3.139
			c-1.075,0.832-2.322,1.447-3.741,1.849c-1.419,0.402-2.917,0.604-4.494,0.604c-1.978,0-3.813-0.301-5.504-0.902
			c-1.692-0.604-3.268-1.576-4.73-2.926l4.773-5.245c0.688,0.917,1.555,1.628,2.602,2.128c1.046,0.502,2.128,0.754,3.247,0.754
			c0.544,0,1.097-0.064,1.655-0.193c0.559-0.131,1.061-0.323,1.505-0.581c0.444-0.259,0.802-0.587,1.075-0.988
			s0.409-0.875,0.409-1.42c0-0.916-0.352-1.642-1.054-2.171c-0.703-0.53-1.584-0.98-2.645-1.354s-2.208-0.746-3.44-1.119
			c-1.233-0.371-2.379-0.873-3.44-1.504s-1.942-1.463-2.645-2.494s-1.053-2.394-1.053-4.086c0-1.633,0.322-3.066,0.967-4.299
			c0.645-1.233,1.505-2.265,2.58-3.097c1.075-0.832,2.314-1.455,3.72-1.871c1.404-0.415,2.852-0.623,4.343-0.623
			c1.72,0,3.382,0.244,4.988,0.73c1.605,0.487,3.053,1.305,4.343,2.45L207.828,155.053z"/>
		<path fill="#0D8256" d="M223.35,153.548h-8.686v-5.935h24.08v5.935h-8.686v24.511h-6.708V153.548z"/>
		<path fill="#0D8256" d="M242.055,147.613h6.708v30.443h-6.708V147.613z"/>
		<path fill="#0D8256" d="M251.858,147.613h7.654l7.525,19.951h0.086l7.654-19.951h7.181l-12.556,30.443h-5.375L251.858,147.613z"/>
		<path fill="#0D8256" d="M292.494,147.613h5.547l13.244,30.443h-7.568l-2.623-6.449h-11.825l-2.537,6.449h-7.396L292.494,147.613z
			 M295.073,156.473l-3.698,9.459h7.439L295.073,156.473z"/>
		<path fill="#0D8256" d="M314.595,147.613h6.708v24.252h12.427v6.191h-19.135V147.613z"/>
	</g>
	<line fill="none" stroke="#09875D" stroke-width="5" stroke-miterlimit="10" x1="365.628" y1="44.938" x2="365.767" y2="189.797"/>
	<line fill="none" stroke="#09875D" stroke-width="5" stroke-miterlimit="10" x1="396.164" y1="47.426" x2="396.164" y2="187.307"/>
	<rect x="365.697" y="55.114" fill="none" width="30.487" height="18.5"/>
	<text transform="matrix(1 0 0 1 373.8379 73.2583)" fill="#0D8256" font-family="'Avenir-Black'" font-size="24">2</text>
	<rect x="365.731" y="91.487" fill="none" width="30.487" height="18.5"/>
	<text transform="matrix(1 0 0 1 373.8711 109.6313)" fill="#0D8256" font-family="'Avenir-Black'" font-size="24">0</text>
	<rect x="365.731" y="126.487" fill="none" width="30.487" height="18.5"/>
	<text transform="matrix(1 0 0 1 373.8711 144.6309)" fill="#0D8256" font-family="'Avenir-Black'" font-size="24">1</text>
	<rect x="365.731" y="160.737" fill="none" width="30.487" height="18.5"/>
	<text transform="matrix(1 0 0 1 373.8711 178.8809)" fill="#0D8256" font-family="'Avenir-Black'" font-size="24">8</text>
	<line fill="none" stroke="#09875D" stroke-width="5" stroke-miterlimit="10" x1="366.063" y1="82.515" x2="395.729" y2="82.515"/>
	
		<line fill="none" stroke="#09875D" stroke-width="5" stroke-miterlimit="10" x1="366.142" y1="118.295" x2="395.809" y2="118.295"/>
	
		<line fill="none" stroke="#09875D" stroke-width="5" stroke-miterlimit="10" x1="366.142" y1="152.455" x2="395.809" y2="152.455"/>
</g>
</svg>
