<?xml version="1.0" encoding="utf-8"?>
<!-- Generator: Adobe Illustrator 21.1.0, SVG Export Plug-In . SVG Version: 6.00 Build 0)  -->
<svg version="1.1" id="Layer_1" xmlns="http://www.w3.org/2000/svg" xmlns:xlink="http://www.w3.org/1999/xlink" x="0px" y="0px"
	 viewBox="0 0 548 148.4" style="enable-background:new 0 0 548 148.4;" xml:space="preserve">
<style type="text/css">
	.st0{fill:#FFC844;}
	.st1{fill:#D2232A;}
	.st2{fill:#86754F;}
	.st3{fill:#FFFFFF;}
	.st4{fill:none;stroke:#86754F;stroke-width:1.0827;stroke-miterlimit:10;}
	.st5{fill:none;stroke:#86754F;stroke-width:0.6179;stroke-linecap:round;stroke-linejoin:round;}
</style>
<g>
	<path class="st0" d="M151.3,74.9c0,0-8.5-1.9-14.2-7.8c-5.6-6-14-10.9-19-7.1l-0.3,27.9v6.4l-0.4,18l9.1,6.8c0,0,14,4,14.2,3.9
		c0.2,0,10.5-11.9,10.5-11.9v-7.5L151.3,74.9L151.3,74.9z"/>
	<path class="st1" d="M39.7,70.1v77.8h32.1V21.2H46.7c-1.2,20-19.2,26.6-36.7,26.2v22.7H39.7L39.7,70.1z"/>
	<path class="st1" d="M151.3,71.5v23c3.5-0.3,6.2-3.3,6.2-7.1v-8.8C157.5,74.9,154.8,71.8,151.3,71.5L151.3,71.5z"/>
	<path class="st1" d="M136.2,17.7h-2.9c-25.9,0-47.1,21.2-47.1,47.1v36.5c0,25.9,21.2,47.1,47.1,47.1h2.9
		c25.9,0,47.1-21.2,47.1-47.1V64.8C183.3,38.9,162.1,17.7,136.2,17.7L136.2,17.7z M161.1,87.4c0,5.7-4.4,10.4-9.8,10.7v5
		c0,9.1-7.4,16.6-16.6,16.6h-0.1c-9.1,0-16.6-7.4-16.6-16.6V62.9c0-9.1,7.4-16.6,16.6-16.6h0.1c9.1,0,16.6,7.4,16.6,16.6v5
		c5.5,0.3,9.8,5,9.8,10.7V87.4L161.1,87.4z"/>
	<path class="st1" d="M128.9,81.4c-0.2-0.2-0.4-0.2-0.5-0.2c0,0-0.1,0-0.1,0c-0.1,0-0.2,0.1-0.3,0.3c0,0,0,0,0-0.1
		c-0.1-0.1-0.2-0.2-0.3-0.2c0,0-0.1,0-0.1,0c-0.2,0-0.4,0.1-0.5,0.5c0,0,0,0,0,0c-0.2-0.4-0.7-0.5-0.7-0.5l0,0l0,0
		c-0.1-0.3-0.4-0.4-0.7-0.4c0,0,0,0,0,0l0,0l0,0c0,0,0,0,0,0c-0.4-0.4-0.7-0.5-0.8-0.5c0,0,0,0,0,0l0,0c-0.6,0.1-0.6,0.7-0.6,0.7
		v0.1l0.1,0c0.1,0,0.1,0,0.2,0c0.4,0,0.6,0.4,0.6,0.4l0,0c0.4,0.6,0.8,0.9,0.8,0.9c0.5,0.4,1.1,0.5,1.3,0.5
		c-0.1,0.1-0.3,0.3-0.3,0.6c0,0.4,0.3,0.6,0.5,0.6l0,0c0,0,0.1,0,0.1,0c0.1-0.1,0.1-0.2,0.1-0.2c0-0.2,0-0.3,0-0.4
		c0-0.1,0.5-0.5,0.8-0.7c0.5-0.4,0.6-0.7,0.6-0.8C129,81.7,129,81.5,128.9,81.4L128.9,81.4z M128,81.8c0,0,0,0.1,0.1,0.1
		c0.1,0.1,0.2,0.1,0.2,0.1c0,0,0,0,0.1,0c-0.1,0.1-0.3,0.1-0.3,0.1c-0.2,0-0.3-0.1-0.4-0.2C127.8,81.9,127.9,81.9,128,81.8L128,81.8
		z M128.8,81.8c0,0.4-0.3,0.6-0.5,0.8l0,0c-0.1,0.1-0.5,0.5-0.5,0.5c-0.3,0.2-0.4,0.4-0.4,0.4c-0.1,0.2-0.1,0.5-0.1,0.5
		c0,0,0,0.1,0,0.1c0,0,0,0,0,0c0,0,0,0-0.1,0c-0.1-0.1-0.2-0.2-0.2-0.3c0-0.3,0.3-0.5,0.3-0.6c0.1-0.1,0.1-0.2,0.1-0.2
		c0-0.1-0.1-0.1-0.1-0.1c0,0-0.1,0-0.1,0c-0.1,0-0.1,0-0.2,0c-0.7,0-1.3-0.5-1.3-0.5c-0.4-0.3-0.7-0.9-0.7-0.9
		c-0.2-0.4-0.6-0.4-0.7-0.4c0,0,0,0,0,0c0.1-0.2,0.2-0.3,0.4-0.3c0.1,0,0.2,0,0.3,0.1c0.3,0.2,0.6,0.6,0.6,0.6l0,0.1l0-0.1
		c0-0.1,0-0.3,0-0.3c0.5,0.1,0.5,0.3,0.5,0.6v0c0,0.3,0.1,0.4,0.1,0.4c0.1,0.1,0.2,0.1,0.2,0.1c0,0,0.1,0,0.1,0c0,0,0.1-0.1,0.1-0.1
		c0-0.1-0.1-0.1-0.1-0.1c-0.1-0.1-0.1-0.4-0.1-0.5c0.4,0.1,0.4,0.3,0.5,0.5c0,0,0,0.1,0,0.1c0.1,0.2,0.2,0.3,0.3,0.3
		c0,0,0.1,0,0.1,0c0,0,0.1,0,0.1-0.1c0-0.1,0-0.1,0-0.1c0,0-0.2-0.2-0.1-0.4c0-0.2,0.1-0.4,0.3-0.4c0.2,0,0.2,0.1,0.2,0.2
		c0,0.1,0,0.1,0,0.1c0,0-0.1,0.1-0.1,0.1c-0.1,0-0.1,0.1-0.1,0.1c0,0.1,0,0.1,0,0.2c0,0.1,0.2,0.2,0.5,0.2c0,0,0,0,0,0
		c0.3,0,0.4-0.2,0.5-0.3c0-0.1,0-0.2,0-0.2c0,0-0.1,0-0.1,0c-0.1,0-0.1,0.1-0.1,0.1c0,0,0,0,0,0c0,0-0.1,0-0.1,0
		c-0.1-0.1,0-0.2,0-0.2c0-0.2,0.2-0.2,0.2-0.2c0,0,0.1,0,0.1,0C128.8,81.4,128.8,81.7,128.8,81.8L128.8,81.8z"/>
	<path class="st1" d="M127.8,78.5c-0.3-0.6-1-0.8-1-0.8c0,0,0,0,0,0l0,0h-0.2c0,0,0,0-0.1,0c-0.6,0-1.1,0.4-1.4,1
		c-0.3,0.7,0,1.5,0,1.6l0,0c0,0,0,0.1,0.1,0.1l0,0v0c0.1,0.2,0.2,0.3,0.2,0.4l0,0l0,0c0,0,0.1,0,0.1,0c0.1,0,0.2,0,0.3,0l0.1,0
		c0,0,0.1,0,0.2,0.1l0.2,0.1l-0.1-0.2c0,0-0.1-0.2-0.2-0.4c0-0.1-0.1-0.1-0.1-0.2c0,0,0,0,0,0l0,0c-0.1-0.2-0.1-0.3-0.1-0.4
		c-0.1-0.4,0-0.6,0.1-0.6c0,0,0.1-0.1,0.1-0.1h0c0,0,0,0,0.1,0c0,0.2,0,0.4,0.2,0.6c0.1,0.1,0.3,0.2,0.5,0.2l0,0
		c0.3,0,0.6-0.2,0.8-0.4C127.9,79.2,127.9,78.8,127.8,78.5L127.8,78.5z M126.2,78.6c0,0-0.1,0-0.1,0c0,0,0,0,0,0
		c0.1-0.1,0.2-0.1,0.4-0.1c0,0,0,0,0,0c0,0,0.2,0,0.2,0.1c0,0,0,0.1,0,0.1c0,0,0,0.1,0,0.1c0,0-0.1,0-0.1,0c-0.1,0-0.1,0-0.1,0
		C126.4,78.7,126.3,78.6,126.2,78.6L126.2,78.6z M127.7,78.9c0,0,0,0.8-0.8,0.8l0,0c0,0-0.4,0-0.4-0.5c0-0.2,0-0.3,0.1-0.3
		c0,0,0.1,0,0.1,0c0.1,0,0.1,0,0.1,0.1c0,0.1,0.1,0.2,0.2,0.2c0,0,0,0,0.1,0l0,0c0.1,0,0.3-0.1,0.3-0.4l0-0.1l0,0.1
		c0,0-0.1,0.2-0.2,0.2c0,0-0.1,0-0.1,0h0l0,0c0,0,0,0-0.1,0c0,0,0-0.1,0-0.2c0-0.1,0-0.2-0.1-0.3c-0.1-0.1-0.2-0.1-0.4-0.1
		c0,0-0.1,0-0.1,0c-0.2,0-0.4,0.1-0.6,0.3c-0.1,0.1-0.2,0.3-0.1,0.4l0,0l0,0c0,0,0.2-0.3,0.4-0.3c0,0,0,0,0.1,0c0,0,0.1,0,0.1,0.2
		c0,0,0,0.1-0.1,0.1c0,0,0,0,0,0c0,0,0,0,0,0c-0.1,0-0.4,0.2-0.4,0.6l0,0l0,0c0,0.5,0.3,1,0.4,1.1c-0.1,0-0.2-0.1-0.3-0.1
		c0,0-0.1,0-0.1,0c-0.4-0.6-0.4-1.2-0.4-1.2c0-0.7,0.4-1.1,0.6-1.2c0.1-0.1,0.1-0.1,0.2-0.1c0,0,0,0,0,0l0,0
		c0.2-0.1,0.3-0.1,0.5-0.1h0c0.4,0,0.7,0.2,0.8,0.3C127.6,78.4,127.7,78.7,127.7,78.9L127.7,78.9z"/>
	<path class="st1" d="M144.2,80.5C144.2,80.5,144.2,80.5,144.2,80.5c-0.2,0-0.5,0-0.9,0.5c0,0,0,0,0,0l0,0l0,0c0,0,0,0,0,0
		c-0.3,0-0.6,0.1-0.7,0.4l0,0l0,0c0,0-0.5,0.1-0.7,0.5c0,0,0,0,0,0c-0.1-0.4-0.3-0.5-0.5-0.5c0,0-0.1,0-0.1,0
		c-0.1,0-0.2,0.1-0.3,0.2c0,0,0,0,0,0.1c-0.1-0.1-0.1-0.2-0.3-0.3c0,0-0.1,0-0.1,0c-0.1,0-0.4,0-0.5,0.2c-0.1,0.1-0.1,0.4-0.1,0.6
		c0,0,0.1,0.4,0.6,0.8c0.3,0.2,0.8,0.7,0.8,0.7c0.1,0.1,0.1,0.3,0,0.4c0,0.1,0,0.2,0.1,0.3c0,0,0.1,0,0.1,0c0.2,0,0.5-0.2,0.5-0.6
		c0-0.3-0.1-0.5-0.3-0.6c0.3,0,0.8,0,1.3-0.5c0,0,0.4-0.3,0.8-0.9l0,0c0,0,0.2-0.4,0.6-0.4c0.1,0,0.1,0,0.2,0l0.1,0v-0.1
		C144.9,81.2,144.9,80.6,144.2,80.5L144.2,80.5z M140.9,81.9c0,0,0.1-0.1,0.1-0.1c0,0.1,0.1,0.1,0.2,0.2c0,0.1-0.1,0.2-0.4,0.2
		c0,0-0.2,0-0.3-0.1c0,0,0,0,0.1,0C140.7,82,140.8,82,140.9,81.9L140.9,81.9z M144.6,81c-0.1,0-0.5,0-0.7,0.4c0,0-0.3,0.5-0.7,0.9
		c0,0-0.5,0.5-1.3,0.5c-0.1,0-0.1,0-0.2,0c0,0,0,0-0.1,0c-0.1,0-0.1,0-0.1,0.1c0,0,0,0.1,0.1,0.2c0,0,0.3,0.3,0.3,0.6
		c0,0.1-0.1,0.2-0.2,0.3c0,0,0,0-0.1,0c0,0,0,0,0,0c0,0,0-0.1,0-0.1c0,0,0.1-0.3-0.1-0.5c0,0-0.1-0.1-0.4-0.4c0,0-0.4-0.4-0.5-0.5
		l0,0c-0.1-0.1-0.5-0.4-0.5-0.8c0,0,0-0.1,0-0.2c0-0.1,0.2-0.2,0.3-0.2c0,0,0,0,0.1,0c0.1,0,0.2,0,0.2,0.2c0,0,0,0.1,0,0.2
		c0,0-0.1,0-0.1,0c0,0,0,0,0,0c0,0,0-0.1-0.1-0.1c0,0-0.1,0-0.1,0c-0.1,0-0.1,0.1,0,0.2c0.1,0.2,0.2,0.3,0.5,0.3c0,0,0,0,0,0
		c0.3,0,0.4-0.2,0.5-0.2c0-0.1,0.1-0.2,0-0.2c0,0,0-0.1-0.1-0.1c-0.1,0-0.1,0-0.1-0.1c0,0,0-0.1,0-0.1c0-0.1,0.1-0.2,0.2-0.2
		c0.2,0,0.3,0.2,0.3,0.4c0,0.2-0.1,0.4-0.1,0.4c0,0,0,0.1,0,0.1c0,0,0,0.1,0.1,0.1c0,0,0,0,0.1,0c0.1,0,0.3-0.1,0.3-0.3
		c0,0,0-0.1,0-0.1c0-0.2,0.1-0.4,0.5-0.5c0,0.1,0,0.4-0.1,0.5c0,0-0.1,0.1-0.1,0.1c0,0,0,0.1,0.1,0.1c0,0,0,0,0.1,0
		c0.1,0,0.1,0,0.2-0.1c0,0,0.1-0.1,0.1-0.4v0c0-0.2,0-0.5,0.5-0.6c0,0,0.1,0.2,0,0.3l0,0.1l0-0.1c0,0,0.2-0.4,0.6-0.6
		c0.1-0.1,0.2-0.1,0.3-0.1C144.4,80.7,144.6,80.8,144.6,81C144.6,81,144.6,81,144.6,81L144.6,81z"/>
	<path class="st1" d="M143.7,78.7c-0.3-0.6-0.8-1-1.4-1c0,0,0,0-0.1,0h-0.1l0,0c0,0,0,0-0.1,0c0,0-0.7,0.1-1,0.8
		c-0.1,0.3-0.1,0.7,0.1,1c0.2,0.3,0.5,0.4,0.8,0.4l0,0c0.2,0,0.4-0.1,0.5-0.2c0.2-0.2,0.2-0.4,0.2-0.6c0,0,0,0,0.1,0
		c0,0,0.1,0,0.1,0.1c0,0.1,0.1,0.2,0.1,0.6c0,0.1-0.1,0.3-0.1,0.4l0,0l0,0c0,0,0,0,0,0c0,0.1-0.1,0.1-0.1,0.2
		c-0.1,0.2-0.2,0.4-0.2,0.4l-0.1,0.2l0.2-0.1c0.1-0.1,0.3-0.1,0.3-0.1l0,0l0,0c0.1,0,0.2,0,0.3,0c0.1,0,0.1,0,0.1,0l0,0l0,0
		c0.1-0.1,0.2-0.2,0.3-0.4v0l0,0c0,0,0-0.1,0-0.1l0,0C143.7,80.2,144.1,79.4,143.7,78.7L143.7,78.7z M142.5,78.7c0,0-0.1,0-0.1,0
		c0,0-0.1,0-0.1,0c0,0,0-0.1,0-0.1c0-0.1,0-0.1,0-0.1c0.1-0.1,0.2-0.1,0.2-0.1c0,0,0,0,0,0c0.2,0,0.3,0.1,0.4,0.1
		c-0.1,0-0.1,0-0.2,0C142.6,78.6,142.5,78.7,142.5,78.7L142.5,78.7z M143.3,80.7C143.3,80.7,143.3,80.7,143.3,80.7
		c-0.2,0-0.3,0-0.4,0c0.1-0.1,0.4-0.6,0.4-1.1l0,0v0c0-0.4-0.3-0.6-0.4-0.6c0,0,0,0,0,0c0,0,0,0,0,0c-0.1,0-0.1-0.1-0.1-0.1
		c0-0.2,0.1-0.2,0.1-0.2c0,0,0,0,0.1,0c0.2,0,0.4,0.3,0.4,0.3l0,0l0,0c0-0.1,0-0.3-0.1-0.4c-0.1-0.2-0.3-0.3-0.6-0.3
		c0,0-0.1,0-0.1,0c-0.2,0-0.3,0.1-0.4,0.1c-0.1,0.1-0.1,0.2-0.1,0.3c0,0.1,0,0.2,0,0.2c0,0-0.1,0-0.1,0l0,0h0c0,0-0.1,0-0.1,0
		c-0.1,0-0.2-0.2-0.2-0.2l0-0.1l0,0.1c0,0.3,0.2,0.3,0.3,0.4l0,0c0,0,0,0,0.1,0c0.1,0,0.2,0,0.2-0.2c0-0.1,0.1-0.1,0.1-0.1
		c0,0,0.1,0,0.1,0c0,0,0.1,0.1,0.1,0.3c0,0.5-0.4,0.5-0.4,0.5l0,0c-0.8,0-0.8-0.8-0.8-0.8c0-0.2,0.1-0.5,0.3-0.7
		c0.1-0.2,0.4-0.3,0.8-0.3h0c0.2,0,0.4,0,0.5,0.1l0,0c0,0,0,0,0,0c0.1,0,0.1,0.1,0.2,0.1c0.2,0.2,0.6,0.6,0.6,1.2
		C143.7,79.4,143.7,80,143.3,80.7L143.3,80.7z"/>
	<path class="st1" d="M131.9,81.6c0-0.1-0.1-0.2-0.2-0.3c-0.1-0.1-0.3-0.1-0.4,0c-0.2,0-0.4,0.1-0.5,0.4c0,0.1-0.1,0.2,0,0.3
		c0,0.1,0.1,0.1,0.2,0.1c0,0,0.1-0.1,0.1-0.1c0,0,0-0.1,0-0.1l0,0c0,0,0,0,0,0c0,0,0,0,0,0c0,0,0,0,0,0c0,0-0.1,0-0.1,0
		c0,0,0,0.1,0,0.1s0,0,0,0c0,0-0.1,0-0.1-0.1c0-0.1,0-0.2,0.1-0.3c0.2-0.2,0.4-0.2,0.6-0.2c0.1,0,0.2,0.1,0.2,0.2
		c0,0.1,0,0.2-0.1,0.2c-0.1,0.1-0.1,0.1-0.2,0c0,0,0,0.1,0,0.1c0.1,0,0.2,0.1,0.2,0.2c0,0.1,0,0.2-0.1,0.2c-0.1,0.1-0.2,0.1-0.3,0
		c0,0-0.1,0,0-0.1c-0.1,0-0.1,0.1-0.1,0.1c0,0,0,0,0.1,0.1c0.1,0.1,0.3,0,0.5-0.1c0-0.1,0.1-0.1,0.1-0.2c0-0.1,0-0.2-0.2-0.3
		c0,0,0.1,0,0.1,0C131.8,81.8,131.9,81.8,131.9,81.6L131.9,81.6z"/>
	<path class="st1" d="M129,78.8h0.5c0.4,0,0.7,0.3,0.7,0.7v0c0,0.4-0.3,0.7-0.7,0.7H129V78.8L129,78.8z M129.5,79.9
		c0.2,0,0.4-0.2,0.4-0.4v0c0-0.2-0.2-0.4-0.4-0.4h-0.2v0.8H129.5L129.5,79.9z"/>
	<polygon class="st1" points="130.6,78.8 130.9,78.8 130.9,80.1 130.6,80.1 130.6,78.8 	"/>
	<path class="st1" d="M131.4,78.8h0.5c0.4,0,0.7,0.3,0.7,0.7v0c0,0.4-0.3,0.7-0.7,0.7h-0.5V78.8L131.4,78.8z M131.9,79.9
		c0.2,0,0.4-0.2,0.4-0.4v0c0-0.2-0.2-0.4-0.4-0.4h-0.2v0.8H131.9L131.9,79.9z"/>
	<path class="st1" d="M132.9,80l0.2-0.2c0.1,0.1,0.2,0.2,0.4,0.2c0.1,0,0.2,0,0.2-0.1v0c0-0.1,0-0.1-0.3-0.2
		c-0.3-0.1-0.4-0.1-0.4-0.4v0c0-0.2,0.2-0.4,0.5-0.4c0.2,0,0.4,0.1,0.5,0.2l-0.2,0.2c-0.1-0.1-0.2-0.1-0.3-0.1
		c-0.1,0-0.2,0.1-0.2,0.1v0c0,0.1,0.1,0.1,0.3,0.2c0.3,0.1,0.4,0.2,0.4,0.4v0c0,0.3-0.2,0.4-0.5,0.4C133.2,80.2,133,80.1,132.9,80
		L132.9,80z"/>
	<path class="st1" d="M134.3,78.8h0.6c0.2,0,0.3,0,0.3,0.1c0.1,0.1,0.1,0.1,0.1,0.2v0c0,0.1-0.1,0.2-0.2,0.3
		c0.2,0.1,0.2,0.1,0.2,0.3v0c0,0.2-0.2,0.4-0.5,0.4h-0.6V78.8L134.3,78.8z M134.9,79.4c0.1,0,0.2,0,0.2-0.1v0c0-0.1-0.1-0.1-0.2-0.1
		h-0.3v0.3H134.9L134.9,79.4z M134.9,79.9c0.1,0,0.2,0,0.2-0.1v0c0-0.1-0.1-0.1-0.2-0.1h-0.3v0.3H134.9L134.9,79.9z"/>
	<path class="st1" d="M135.8,79.6v-0.8h0.3v0.8c0,0.2,0.1,0.3,0.3,0.3c0.2,0,0.3-0.1,0.3-0.3v-0.8h0.3v0.8c0,0.4-0.2,0.6-0.6,0.6
		C136,80.2,135.8,80,135.8,79.6L135.8,79.6z"/>
	<path class="st1" d="M137.4,78.8h0.6c0.2,0,0.3,0,0.4,0.1c0.1,0.1,0.1,0.2,0.1,0.3v0c0,0.2-0.1,0.3-0.3,0.4l0.3,0.5h-0.3l-0.3-0.4
		h-0.2v0.4h-0.3V78.8L137.4,78.8z M138,79.5c0.1,0,0.2-0.1,0.2-0.2v0c0-0.1-0.1-0.2-0.2-0.2h-0.3v0.4H138L138,79.5z"/>
	<polygon class="st1" points="139.2,79.6 138.7,78.8 139,78.8 139.4,79.3 139.7,78.8 140,78.8 139.5,79.6 139.5,80.1 139.2,80.1 
		139.2,79.6 	"/>
	<path class="st1" d="M139.2,80.7h-9.5c0,0-0.1,0-0.1-0.1c0,0,0-0.1,0.1-0.1h9.5C139.3,80.6,139.3,80.6,139.2,80.7
		C139.3,80.7,139.3,80.7,139.2,80.7L139.2,80.7z"/>
	<path class="st1" d="M139.2,78.3h-9.5c0,0-0.1,0-0.1-0.1c0,0,0-0.1,0.1-0.1h9.5C139.3,78.2,139.3,78.2,139.2,78.3
		C139.3,78.3,139.3,78.3,139.2,78.3L139.2,78.3z"/>
	<path class="st1" d="M136.3,76.1c-0.1,0-0.5,0-0.7,0c-0.1,0-0.1,0-0.1,0c0,0.1,0,1.2,0,1.3c0,0.1,0,0.1,0.1,0.1c0.1,0,0.5,0,0.6,0
		c0.1,0,0.1-0.1,0.1-0.1C136.4,77.4,136.4,76.2,136.3,76.1C136.3,76.1,136.3,76.1,136.3,76.1L136.3,76.1z"/>
	<path class="st1" d="M136.3,76.3C136.4,76.3,136.4,76.3,136.3,76.3c0.1,0.1,0.3,0.1,0.3,0.2c0,0.1,0,0.5,0,0.6
		c0,0.1-0.1,0.2-0.2,0.2c-0.1,0-0.1,0-0.1,0.1c0-0.1,0-0.2,0-0.2c0,0,0.1,0,0.1,0c0.1,0,0.1-0.1,0.1-0.1c0-0.1,0-0.4,0-0.5
		c0-0.1-0.1-0.1-0.2-0.1c0,0-0.1,0-0.1,0.1C136.3,76.4,136.3,76.3,136.3,76.3L136.3,76.3z"/>
	<path class="st1" d="M132.7,76.1c0.1,0,0.5,0,0.7,0c0.1,0,0.1,0,0.1,0c0,0.1,0,1.2,0,1.3c0,0.1,0,0.1-0.1,0.1c-0.1,0-0.5,0-0.6,0
		c-0.1,0-0.1-0.1-0.1-0.1C132.6,77.4,132.6,76.2,132.7,76.1C132.6,76.1,132.6,76.1,132.7,76.1L132.7,76.1z"/>
	<path class="st1" d="M132.6,76.3C132.6,76.3,132.6,76.3,132.6,76.3c-0.1,0.1-0.3,0.1-0.3,0.2c0,0.1,0,0.5,0,0.6
		c0,0.1,0.1,0.2,0.2,0.2c0.1,0,0.1,0,0.1,0.1c0-0.1,0-0.2,0-0.2c0,0-0.1,0-0.1,0c-0.1,0-0.1-0.1-0.1-0.1c0-0.1,0-0.4,0-0.5
		c0-0.1,0.1-0.1,0.2-0.1c0,0,0.1,0,0.1,0.1C132.6,76.4,132.6,76.3,132.6,76.3L132.6,76.3z"/>
	<path class="st1" d="M134.5,77.7c0.3,0,0.4-0.2,0.4-0.2v-0.1c0-0.4,0-0.4,0.1-1c0.1-0.5,0-0.8,0-0.8s0-0.1-0.5-0.1h0
		c-0.5,0-0.5,0.1-0.5,0.1s-0.1,0.3,0,0.8c0.1,0.5,0.1,0.5,0.1,1v0.1C134.1,77.6,134.1,77.7,134.5,77.7L134.5,77.7L134.5,77.7z"/>
	<path class="st1" d="M131.7,81.6L131.7,81.6C131.7,81.6,131.6,81.6,131.7,81.6C131.6,81.6,131.6,81.6,131.7,81.6
		C131.6,81.6,131.6,81.6,131.7,81.6C131.6,81.6,131.6,81.6,131.7,81.6L131.7,81.6c-0.1,0-0.2,0-0.2,0.1c-0.1,0.1-0.2,0.2-0.2,0.3
		c-0.1,0.1-0.1,0.3-0.2,0.4c0,0.1-0.1,0.1-0.2,0.1l0,0c0,0,0,0,0,0h0c0,0,0,0,0,0c0,0-0.1,0-0.1,0l0,0c0,0,0,0,0,0c0,0,0,0,0,0
		c0,0,0,0,0,0c0,0,0,0,0,0c0,0,0,0,0,0c0.1,0,0.1,0,0.1-0.1c0,0,0-0.1-0.1-0.1v0c0,0,0,0,0,0c0,0,0,0,0,0c0,0,0,0,0,0c0,0,0,0,0,0
		c0,0,0,0,0,0c0,0-0.1,0-0.1,0.1c0,0.1,0.1,0.1,0.2,0.1l0,0c0,0,0.1,0,0.1,0c0.1,0,0.2-0.1,0.3-0.2c0.1-0.1,0.2-0.3,0.2-0.4
		C131.5,81.8,131.5,81.7,131.7,81.6C131.7,81.6,131.7,81.6,131.7,81.6C131.7,81.6,131.7,81.6,131.7,81.6L131.7,81.6z"/>
	<path class="st1" d="M135,81.3c-0.2,0.1-0.2,0.1-0.4,0.1c0,0-0.1,0-0.1,0c-0.3-0.1-0.6,0.1-0.7,0.4c0,0.2,0,0.3,0.2,0.4
		c0,0,0.1,0,0.1,0c0,0.1-0.1,0.2-0.2,0.3c0,0-0.1,0.1-0.2,0.1l0,0c0,0-0.1,0-0.1,0c0,0,0,0,0,0c0,0,0,0,0,0c0,0,0.1,0,0.1-0.1
		c0,0,0-0.1-0.1-0.1c0,0-0.1,0-0.1,0c0,0-0.1,0-0.1,0.1c0,0.1,0.1,0.2,0.2,0.2h0c0.1,0,0.2,0,0.3-0.1c0.1-0.1,0.2-0.2,0.2-0.3l0,0
		c0-0.1,0.1-0.1,0.1-0.1c0,0.1,0,0.1,0.1,0.1c0,0,0,0,0,0c0,0,0,0,0,0l0,0c0,0,0,0,0,0c0,0,0.1-0.1,0.1-0.1c0,0,0-0.1-0.1-0.1
		c0,0-0.1,0-0.1,0c0.1-0.2,0.2-0.3,0.3-0.4c-0.1,0-0.2,0-0.2,0.1c-0.1,0.1-0.2,0.2-0.2,0.3c0,0.1,0,0.1-0.1,0.1
		c-0.2,0-0.2-0.2-0.2-0.4c0.1-0.2,0.3-0.3,0.5-0.2c0.1,0,0.2,0,0.3,0.1c0.1,0,0.2,0,0.3,0C135,81.4,135.1,81.3,135,81.3L135,81.3z"
		/>
	<path class="st1" d="M136.3,81.7c0,0-0.1,0-0.1,0c0,0,0-0.1,0-0.1c0,0,0.1,0,0.1,0C136.4,81.6,136.4,81.6,136.3,81.7L136.3,81.7z"
		/>
	<path class="st1" d="M138.3,81.3c-0.1,0-0.1,0.1-0.2,0.1c-0.1,0.1-0.2,0.2-0.3,0.4c0,0-0.1,0,0-0.1c0,0-0.1,0-0.1,0
		c0,0.1,0,0.1,0.1,0.2c0,0.1-0.1,0.2-0.1,0.2c-0.1,0.1-0.1,0.1-0.2,0.2l0,0c0,0-0.2,0.1-0.1,0.1c0,0,0-0.1,0-0.1c0,0,0,0,0,0
		c0.1-0.1,0.1-0.3,0.3-0.4c-0.1,0-0.1,0-0.2,0c-0.1-0.1-0.1-0.1-0.2,0c-0.1,0-0.2,0.1-0.3,0.2c0,0-0.1,0-0.1,0c0,0,0.1-0.1,0.1-0.2
		c0-0.1,0-0.1-0.1-0.1c-0.1,0-0.1,0-0.1,0.2c0,0,0,0,0,0c0,0,0,0,0,0h0c0,0,0,0.1,0.1,0.1h0c0,0-0.2,0.2-0.3,0.2l0,0c0,0,0,0,0,0
		c0,0-0.1-0.1,0-0.2c0.1-0.1,0.2-0.3,0.1-0.4c0,0,0,0,0,0c0,0,0,0,0,0c-0.1,0-0.1,0.1-0.1,0.1c0,0,0,0,0,0.1
		c-0.1,0.1-0.2,0.3-0.3,0.4c0,0,0,0-0.1,0c0,0,0,0-0.1,0c0,0,0,0,0,0c0-0.1,0.1-0.1,0.1-0.2c0-0.1,0.1-0.1,0.1-0.2
		c0-0.1,0-0.1-0.1-0.1c0,0,0,0-0.1,0c0,0,0,0,0,0c0,0-0.1,0-0.1,0c0,0,0-0.1,0.1-0.1c0,0,0-0.1,0-0.1c0,0-0.1,0-0.1,0c0,0,0,0,0,0.1
		c0,0,0,0,0,0c0,0,0,0,0,0c0,0,0,0,0,0.1c0,0,0,0-0.1,0c0,0,0,0,0,0v0c0,0,0,0,0,0c-0.1,0-0.1,0-0.1,0.1c0,0,0.1,0,0.1,0
		c0,0,0,0,0,0c-0.1,0.1-0.1,0.2-0.2,0.3c0,0.1-0.1,0.1-0.1,0.1c0.1-0.1,0-0.3,0-0.3v0c0,0,0,0,0,0c0,0,0,0,0,0c0,0,0,0,0-0.1
		c0,0,0.1-0.1,0.1-0.1c0-0.1,0-0.1,0-0.1c0,0-0.1,0-0.2,0.2c0,0,0,0,0,0c0,0,0,0,0,0l0,0c0,0,0,0,0,0c0,0,0,0,0,0
		c-0.1,0.1-0.1,0.2-0.2,0.2c-0.1,0.1-0.1,0.1-0.2,0.1c-0.1,0-0.1,0-0.1-0.1c0-0.1,0-0.1,0.1-0.1c0.1,0,0.2-0.1,0.3-0.2
		c0,0,0-0.1,0-0.1c0,0-0.1,0-0.1,0c-0.2,0.1-0.3,0.2-0.4,0.4c0,0.1,0,0.2,0.1,0.2c0.1,0,0.2,0,0.3-0.1c0.1,0,0.1,0.1,0.1,0.1
		c0.1,0,0.2,0,0.3,0c0,0,0,0,0.1,0c0,0,0.1,0,0.1,0c0.1,0,0.1,0,0.2-0.1c0,0.1,0.1,0.1,0.2,0.1c0.1,0,0.1,0,0.1-0.1
		c0,0,0.1,0,0.1-0.1c0,0.1,0.1,0.2,0.2,0.1c0,0,0.1,0,0.1,0c0,0,0.1-0.1,0.3-0.2l0,0c0,0,0,0,0,0c0,0.1-0.1,0.2,0,0.2
		c0.1,0.1,0.2,0,0.3,0c0.1,0.1,0.1,0.1,0.4,0c0,0.1,0,0.1,0.1,0.1c0.1,0,0.1,0,0.2-0.1c0,0,0,0,0,0l0,0c0,0,0,0,0,0c0,0,0,0,0,0
		c0.2-0.2,0.3-0.3,0.3-0.3l0,0l0,0c0,0,0,0,0,0c-0.1,0.3-0.4,0.4-0.5,0.3c0,0,0-0.1,0-0.1c0,0,0,0,0,0c0,0,0,0,0,0c0,0,0,0,0,0l0,0
		c0.1-0.1,0.1-0.2,0.2-0.3c0,0,0,0,0,0c0.1,0,0.2-0.1,0.3-0.2c0.1-0.1,0.2-0.2,0.2-0.3C138.4,81.3,138.4,81.2,138.3,81.3L138.3,81.3
		z M134.9,81.9c0,0,0.1,0,0.1,0h0v0C135.1,81.9,135.1,81.9,134.9,81.9C135,82,135,82,134.9,81.9C135,82,135,82,134.9,81.9
		C135,82,135,82,134.9,81.9c0,0.2-0.2,0.2-0.2,0.2C134.8,82,134.9,81.9,134.9,81.9L134.9,81.9z M135.2,82.3c-0.1,0-0.1,0-0.2,0
		c0.1-0.1,0.2-0.2,0.2-0.3C135.4,82.1,135.3,82.3,135.2,82.3L135.2,82.3z M135.8,82.3C135.8,82.3,135.8,82.3,135.8,82.3
		C135.8,82.3,135.8,82.3,135.8,82.3C135.8,82.3,135.8,82.3,135.8,82.3L135.8,82.3c-0.1,0-0.1,0.1-0.1,0.1c0,0-0.1,0-0.1-0.1
		c0,0,0-0.1,0.1-0.1c0-0.1,0.1-0.2,0.1-0.2c0,0,0,0,0.1,0c0,0,0.1,0,0.1,0c0,0,0,0,0,0l0,0l0,0c0,0,0,0.1,0,0.1
		C136,82.2,135.9,82.2,135.8,82.3L135.8,82.3z M137.2,82.2C137.2,82.2,137.2,82.2,137.2,82.2C137.2,82.2,137.2,82.2,137.2,82.2
		C137.2,82.2,137.2,82.2,137.2,82.2c-0.1,0.1-0.1,0.1-0.1,0.1c0,0,0,0,0,0c0,0,0,0,0,0c-0.1,0,0-0.1,0-0.1l0,0c0,0,0,0,0,0
		c0-0.1,0.1-0.2,0.2-0.3c0,0,0,0,0.1,0c0,0,0.1,0,0.1,0c0,0,0,0,0,0.1C137.3,82.1,137.2,82.1,137.2,82.2L137.2,82.2L137.2,82.2z
		 M138.3,81.5c0,0-0.1,0.1-0.3,0.3c0,0,0,0,0,0c0,0,0,0,0,0c0,0,0,0,0,0c0,0,0,0,0,0l0,0c0,0,0.1-0.1,0.1-0.2c0-0.1,0.1-0.1,0.1-0.2
		l0,0c0,0,0,0,0,0c0,0,0,0,0,0c0,0,0.1,0,0.1,0C138.4,81.3,138.3,81.5,138.3,81.5L138.3,81.5z"/>
	<path class="st1" d="M133.4,82C133.4,82,133.4,82,133.4,82c0,0,0-0.1,0-0.1c0-0.1-0.1-0.1-0.3,0c0,0,0,0,0,0c0,0,0,0,0-0.1l0,0
		c0,0,0,0,0,0c0,0,0,0,0,0c0,0-0.1-0.1-0.2-0.1v0c0,0,0.1,0,0.1,0.1v0c0,0,0,0,0,0c-0.1,0.1-0.2,0.3-0.3,0.3c0,0-0.1,0-0.1,0
		c-0.1,0-0.1,0-0.1-0.1c0-0.1,0-0.1,0.1-0.1c0.1,0,0.2-0.1,0.3-0.2c0,0,0-0.1,0-0.1c0,0-0.1,0-0.1,0c-0.2,0.1-0.3,0.2-0.4,0.4
		c0,0.1-0.2,0.2-0.3,0.2c0,0-0.1,0-0.1-0.1c0-0.1,0-0.1,0.1-0.1c0.1,0,0.2-0.1,0.3-0.2c0,0,0-0.1,0-0.1c0,0-0.1,0-0.1,0
		c-0.2,0.1-0.3,0.2-0.4,0.4c0,0.1,0,0.2,0.1,0.2c0,0,0.2,0,0.3-0.1c0,0.1,0.1,0.1,0.1,0.1c0.1,0,0.1,0,0.2,0c0.1,0,0.1-0.1,0.1-0.1
		c0,0.1,0.1,0.1,0.1,0.1l0,0c0,0,0,0,0.1,0C132.9,82.3,133.1,81.9,133.4,82C133.3,81.9,133.2,82,133.4,82
		C133.3,82,133.3,82,133.4,82L133.4,82C133.4,82,133.4,82,133.4,82L133.4,82C133.4,82,133.4,82,133.4,82L133.4,82z M132.6,82
		L132.6,82C132.6,82,132.6,82,132.6,82C132.6,81.9,132.6,81.9,132.6,82C132.7,81.9,132.7,81.9,132.6,82L132.6,82L132.6,82
		c0.1-0.1,0.2-0.1,0.2-0.1C132.8,82,132.7,82,132.6,82c0.1,0.1,0,0.1,0,0.1c0,0,0,0,0,0l0,0c0,0-0.1,0-0.1,0
		C132.5,82,132.6,82,132.6,82L132.6,82z M132.1,82L132.1,82C132.2,81.9,132.2,81.9,132.1,82C132.2,81.9,132.2,81.9,132.1,82
		C132.2,81.9,132.2,81.9,132.1,82C132.2,81.9,132.2,81.9,132.1,82C132.2,81.9,132.2,81.9,132.1,82c0.1-0.1,0.1,0,0.1,0
		c0,0.1-0.1,0.1-0.1,0.2c0,0-0.1,0-0.1,0c0,0,0,0,0,0l0,0c0,0,0,0-0.1,0C132.1,82,132.1,82,132.1,82L132.1,82z"/>
	<path class="st1" d="M134.5,85.4c-3.4,0-6.6-0.8-6.6-0.8l-0.1,0v-1l0,0c0,0,0.4-0.3,0.7-0.7c0.2-0.2,0.4-0.4,0.5-0.7
		c0.1-0.3,0.1-0.6,0-0.8c-0.2-0.2-0.4-0.3-0.6-0.3c-0.2,0-0.3,0-0.3,0l-0.1,0l0-0.1c-0.2-0.5-0.5-0.8-0.5-0.8l-0.1-0.1l0.1-0.1
		c0.3-0.2,0.5-0.6,0.5-0.9c0-0.4-0.1-0.7-0.3-1c-0.3-0.3-0.7-0.5-1.1-0.5c-0.3,0-0.6,0.1-0.9,0.3l-0.2,0.1v-0.9l0,0
		c0,0,0.7-0.6,2.1-1.2c1.3-0.5,3.5-1.2,6.6-1.2c3.1,0,5.3,0.6,6.6,1.2c1.4,0.6,2.1,1.2,2.1,1.2l0,0V78l-0.2-0.1
		c-0.2-0.2-0.5-0.3-0.9-0.3c-0.4,0-0.8,0.2-1.1,0.5c-0.5,0.6-0.4,1.5,0.2,1.9l0.1,0.1l-0.1,0.1c0,0-0.3,0.3-0.5,0.8l0,0.1l-0.1,0
		c0,0-0.1,0-0.3,0c-0.3,0-0.5,0.1-0.6,0.3c-0.2,0.2-0.2,0.5,0,0.8c0.1,0.3,0.3,0.6,0.5,0.7c0.3,0.3,0.7,0.6,0.7,0.7l0,0v1l-0.1,0
		C141,84.6,137.9,85.4,134.5,85.4L134.5,85.4z M128,84.4c0.5,0.1,3.4,0.8,6.5,0.8l0,0c3.1,0,6-0.7,6.5-0.8v-0.8
		c-0.1-0.1-0.4-0.4-0.7-0.6c-0.4-0.4-0.9-1.2-0.5-1.8c0.3-0.3,0.6-0.4,0.8-0.4c0.1,0,0.2,0,0.2,0c0.1-0.3,0.3-0.6,0.4-0.7
		c-0.6-0.6-0.7-1.5-0.2-2.2c0.3-0.4,0.8-0.6,1.2-0.6c0.3,0,0.6,0.1,0.8,0.2v-0.4c-0.2-0.1-0.8-0.6-2.1-1.1c-1.3-0.5-3.5-1.2-6.5-1.2
		c-3.1,0-5.3,0.6-6.6,1.2c-1.2,0.5-1.9,1-2.1,1.1v0.4c0.2-0.1,0.5-0.2,0.8-0.2c0.5,0,0.9,0.2,1.2,0.6c0.3,0.3,0.4,0.7,0.3,1.2
		c0,0.4-0.2,0.7-0.5,1c0.1,0.1,0.3,0.4,0.4,0.7c0.1,0,0.1,0,0.2,0c0.2,0,0.5,0.1,0.8,0.4c0.5,0.6-0.1,1.5-0.5,1.8
		c-0.3,0.3-0.6,0.5-0.7,0.6V84.4L128,84.4z"/>
	<path class="st1" d="M132.8,84.1h0.6V84h-0.3l0.1-0.1c0.1-0.1,0.2-0.2,0.2-0.3v0c0-0.1-0.1-0.2-0.3-0.2c-0.1,0-0.2,0.1-0.3,0.2
		l0.1,0.1c0.1-0.1,0.1-0.1,0.2-0.1c0.1,0,0.1,0,0.1,0.1c0,0.1,0,0.1-0.1,0.2l-0.3,0.2V84.1L132.8,84.1z M134.1,84.1
		c0.2,0,0.3-0.2,0.3-0.4v0c0-0.2-0.1-0.4-0.3-0.4c-0.2,0-0.3,0.2-0.3,0.4v0C133.8,84,133.9,84.1,134.1,84.1L134.1,84.1z M134.1,84
		c-0.1,0-0.2-0.1-0.2-0.2v0c0-0.1,0.1-0.2,0.2-0.2c0.1,0,0.2,0.1,0.2,0.2v0C134.3,83.9,134.2,84,134.1,84L134.1,84z M134.9,84.1h0.2
		v-0.8h-0.1l-0.2,0.1l0,0.1l0.1,0V84.1L134.9,84.1z M135.5,84.1h0.2l0.3-0.6v-0.1h-0.5v0.1h0.4L135.5,84.1L135.5,84.1z"/>
	<path class="st2" d="M223,129.9c-0.2,0.4-0.2,0.9,0,1.3c0.2,0.6,0.7,1,1,0.3c0.3-0.7,1.5-2,2.9-2.9c1.4-0.9,2.8-1.4,3.4-0.6
		c0.9,1.1-1.8,4.7-4.9,8.2c-3,3.4-6.3,6.6-6.9,7.2c-0.6,0.6-0.5,1.4,0,2c0.4,0.5,1.1,0.9,2,0.9c0.8,0.1,2.3,0,3.7-0.1
		c1.3-0.1,2.5-0.3,3.1-0.3c0.5-0.1,0.8-0.5,0.9-0.9c0.1-0.4-0.1-0.8-0.6-0.7c-0.2,0-1.7,0.2-3.3,0.3c-1.9,0.1-3.9,0.2-4,0
		c-0.2-0.3,3.5-3.7,6.7-7.3c1.8-2.1,3.6-4.1,4.4-5.8c0.7-1.5,0.6-3-0.2-4.1c-0.5-0.7-1.3-1.2-2.4-1.3c-1.1-0.1-2.3,0.4-3.3,1.2
		C224.4,128.1,223.4,129.3,223,129.9L223,129.9z M239.3,127.7c0.1-0.4,0-0.9-0.3-1.4c-0.4-0.6-0.9-0.9-1-0.2
		c-0.1,0.6-1.8,3.3-3.6,6.4c-1.8,3.3-3.8,7.1-3.9,9.3c-0.1,1.2,0,2.1,0.3,2.8c0.6,1.3,1.7,1.8,3,1.5c1.3-0.3,2.8-1.6,4-3
		c1.6-1.9,2.9-4.2,3-5.5c0-0.9-0.1-1.6-0.4-2.1c-0.7-1.3-2.2-1.6-3.2-1.4c-0.8,0.1-1.5,0.5-2.1,0.9c0.8-1.6,1.8-3.1,2.5-4.4
		C238.5,129.2,239.1,128.1,239.3,127.7L239.3,127.7z M232.2,144.8c-0.7-0.3-0.7-1.5-0.1-3.2c0.3-0.8,0.6-1.6,1-2.6
		c0.1,0,0.3-0.1,0.5-0.4c0.5-0.7,1.5-1.7,2.5-2.4c1.4-0.9,2.8-1.4,3.2-0.5c0.4,1.1-0.8,3.6-2.4,5.7
		C235.2,143.6,233.3,145.3,232.2,144.8L232.2,144.8z M243.4,138.8c-0.3,0.1-0.3,0.5-0.1,1c0.2,0.4,0.5,0.7,1,0.7c0.2,0,2.4,0,4.5,0
		h4.8c0.6,0,0.7-0.5,0.5-1c-0.1-0.3-0.4-0.5-0.7-0.5c-0.3,0-2.6-0.1-4.9-0.2C246.3,138.8,243.9,138.7,243.4,138.8L243.4,138.8z
		 M259.1,129.9c-0.2,0.4-0.2,0.9,0,1.3c0.2,0.6,0.7,1,1,0.3c0.3-0.7,1.5-2,2.9-2.9c1.4-0.9,2.8-1.4,3.4-0.6c0.9,1.1-1.8,4.7-4.9,8.2
		c-3,3.4-6.3,6.6-6.9,7.2c-0.6,0.6-0.5,1.4,0,2c0.4,0.5,1.1,0.9,2,0.9c0.8,0.1,2.3,0,3.7-0.1c1.3-0.1,2.5-0.3,3.1-0.3
		c0.5-0.1,0.8-0.5,0.9-0.9c0.1-0.4-0.1-0.8-0.6-0.7c-0.2,0-1.7,0.2-3.3,0.3c-1.9,0.1-3.9,0.2-4,0c-0.2-0.3,3.5-3.7,6.7-7.3
		c1.8-2.1,3.6-4.1,4.4-5.8c0.7-1.5,0.6-3-0.2-4.1c-0.5-0.7-1.3-1.2-2.4-1.3c-1.1-0.1-2.3,0.4-3.3,1.2
		C260.5,128.1,259.5,129.3,259.1,129.9L259.1,129.9z M278.8,126.9c-1-0.9-4-1.5-6.5-0.3c-2.6,1.3-2.3,3.6-1.8,5.1
		c0.2,0.7,0.8,1.8,1.4,3c-1.8,1.7-3.4,3.3-4.2,4.3c-1.5,1.8-1.8,3.3-1.7,4.5c0.2,1.2,1,2,2,2.5c1.7,0.8,5.4,0.6,6.8-1.7
		c1.6-2.5,0.6-5.9-0.6-9.3l3.5-3.2c1.7-1.5,3-2.8,3.3-3.3c0.4-0.9,0.3-1.6,0-2c-0.3-0.3-0.7-0.3-1,0.1c-0.1,0.1-0.2,0.3-0.4,0.5
		C279.3,127.2,279,127.1,278.8,126.9L278.8,126.9z M273.3,143.2c-1.5,2.6-6,2.5-6.2,0.3c-0.1-1.4,2.4-4.2,5.4-7
		C273.6,138.9,274.3,141.5,273.3,143.2L273.3,143.2z M273.3,133.4c-1-1.9-2.1-3.7-1-5c1-1.3,4.6-0.8,6.1,0.1
		c-0.6,0.7-1.4,1.4-2.3,2.2L273.3,133.4L273.3,133.4z M292.8,130.6c-0.2,0.6-0.4,1.2-0.5,1.8c-0.8,1.2-1.6,2.9-2.2,4.6
		c-0.7,2.1-1.1,3.9-1,5.6c0.1,2.3,0.9,4.1,2.3,5c1.2,0.8,2.8,1,4.8,0.4c3-0.9,6.1-3.9,8.5-7.4c2.9-4.3,4.8-9.5,3.8-13.1
		c-0.8-3.5-3.9-5-7.3-4.5c-2.1,0.3-3.8,1.2-5.2,2.5C294.6,127,293.5,128.7,292.8,130.6L292.8,130.6z M291.5,139
		c0.3-0.9,0.6-1.9,1-2.9c0.3,0.9,0.8,1.6,1.5,1.8c0.5,0.2,1.1,0.1,1.5,0c0.4-0.1,0.5-0.4,0-0.7c-0.7-0.3-1.6-1.1-1.5-3.2
		c0.1-1.1,0.4-2.5,1.3-4.3c1-2.1,2.5-3.6,4.1-4.6c2-1.1,4.1-1.4,5.5-0.6c1.1,0.6,1.9,2.2,2,4.4c0.1,1.9-0.4,4.3-1.6,6.9
		c-1.3,2.7-2.8,4.9-4.2,6.5c-3.2,3.5-6.4,4.7-8.1,4.5c-1.4-0.1-2.1-1.5-2.1-3.5C290.7,142.2,291,140.7,291.5,139L291.5,139z
		 M313.1,134.2c-1.7,0.3-3.6,2.3-5,4.3c-1,1.5-1.6,3-1.7,4.2c-0.1,1.1,0.2,2.1,0.7,2.8c0.7,0.9,1.8,1.4,3.3,1c2-0.5,3.9-2.2,5.5-4
		c1.6-1.8,2.9-3.8,3.5-4.9c0.2-0.4,0.1-0.9-0.2-1.2c-0.2-0.2-0.6-0.3-0.8,0.2c-1,1.7-2.3,3.4-3.7,4.9c-2.9,3.1-6,5.1-6.7,3.4
		c-0.4-1.1,0.3-3.2,1.5-5.2c1.5-2.5,3.6-4.8,4.6-4.1c0.4,0.3-0.6,1.7-1,2.4c-0.2,0.4-0.1,0.7,0.1,0.9c0.2,0.2,0.6,0.2,0.8,0
		c0.6-0.4,1.3-1.4,1.4-2.1c0.1-0.7-0.3-1.5-0.8-2C314.2,134.4,313.6,134.1,313.1,134.2L313.1,134.2z M325.1,128.2
		c0.2-0.3-0.1-0.7-0.5-0.8c-0.4-0.1-1-0.1-1.2,0.3c-0.1,0.2-0.6,0.9-1.2,2c-0.4,0.8-1,1.8-1.5,2.8l-1.7,0.2l-2.2,0.2
		c-0.2,0-0.3,0.1-0.4,0.3c-0.1,0.2,0,0.4,0.2,0.7c0.2,0.3,0.5,0.5,0.8,0.5c0.2,0,0.4,0,0.6-0.1c0.2-0.1,1-0.2,2.1-0.4
		c-0.5,1-0.9,2-1.3,3c-0.6,1.4-1,2.7-1.2,3.9c-0.3,1.3-0.3,2.4-0.1,3.2c0.3,1.6,1,2.6,1.8,3.2c1.1,0.8,2.7,0.9,4,0.3
		c0.6-0.3,0.7-0.8,0.6-1.1c-0.1-0.3-0.4-0.5-0.7-0.3c-0.4,0.4-2.3,1.3-3.3,0.5c-0.7-0.6-1.1-2-0.8-4.1c0.2-1.6,0.7-3.6,1.7-5.8
		c0.4-0.9,0.9-2,1.4-3c1.3-0.1,2.8-0.3,4.1-0.4c1.6-0.1,3-0.2,3.7-0.1c0.7,0.1,0.8-0.2,0.6-0.5c-0.1-0.3-0.5-0.5-0.8-0.7
		c-0.4-0.1-2-0.1-4,0l-2.8,0.2l1.3-2.4L325.1,128.2L325.1,128.2z M340.3,129.9c-0.2,0.4-0.2,0.9,0,1.3c0.2,0.6,0.7,1,1,0.3
		c0.3-0.7,1.5-2,2.9-2.9c1.4-0.9,2.8-1.4,3.4-0.6c0.9,1.1-1.8,4.7-4.9,8.2c-3,3.4-6.3,6.6-6.9,7.2c-0.6,0.6-0.5,1.4,0,2
		c0.4,0.5,1.1,0.9,2,0.9c0.8,0.1,2.3,0,3.7-0.1c1.3-0.1,2.5-0.3,3.1-0.3c0.5-0.1,0.8-0.5,0.9-0.9c0.1-0.4-0.1-0.8-0.6-0.7
		c-0.2,0-1.7,0.2-3.3,0.3c-1.9,0.1-3.9,0.2-4,0c-0.2-0.3,3.5-3.7,6.7-7.3c1.8-2.1,3.6-4.1,4.4-5.8c0.7-1.5,0.6-3-0.2-4.1
		c-0.5-0.7-1.3-1.2-2.4-1.3c-1.1-0.1-2.3,0.4-3.3,1.2C341.7,128.1,340.7,129.3,340.3,129.9L340.3,129.9z M354.2,126.8
		c-0.9,0.8-1.3,2-1.4,2.8c-0.9,0.8-2.2,3.2-3.1,5.9c-0.9,2.5-1.5,5.1-1.3,7c0.1,1.3,0.8,2.5,1.7,3.2c0.7,0.5,1.7,0.8,2.8,0.5
		c1.7-0.4,4-2.9,5.7-6c1.1-2.1,2.1-4.3,2.4-6.5c0.4-2.3,0-4-0.6-5.2c-0.7-1.4-1.8-2.1-2.6-2.4C356.8,125.6,355.5,125.6,354.2,126.8
		L354.2,126.8z M354.6,130.4c0.1-0.1,0-0.4-0.2-0.7c0.3-0.9,1.3-2,2.1-2.1c0.8-0.1,1.6-0.1,2.2,0.5c0.5,0.5,0.8,1.3,0.9,2.6
		c0.1,1.8-0.8,4.5-2,7.1c-1.9,3.9-4.8,7.5-6.5,7c-1.9-0.6-0.8-5.1,0.7-9C352.8,133.1,354.1,130.7,354.6,130.4L354.6,130.4z
		 M363.5,131.4c-0.4,0.1-0.3,0.5-0.1,0.8c0.3,0.3,0.7,0.5,1.1,0.4c0.7-0.2,3.2-2.2,3.4-2.4c-0.1,0.3-1.8,3.9-3.3,7.6
		c-1.4,3.3-2.7,6.6-2.7,7.5c0,0.5,0.3,0.9,0.6,1.3c0.4,0.4,1,0.6,0.9,0.2c-0.1-0.8,1.1-4.3,3-9.1c1.9-4.7,3.7-8.2,4.8-10.2
		c0.3-0.6,0-1.2-0.4-1.4c-0.3-0.2-0.7-0.2-1,0.3c-0.3,0.4-1.6,1.6-2.9,2.7C365.4,130.2,363.9,131.3,363.5,131.4L363.5,131.4z
		 M371.8,126.6c-0.5-0.1-0.5,0.7-0.2,1.3c0.2,0.4,0.5,0.7,0.8,0.7c0.4,0,2.1-0.2,3.7-0.3c1.7-0.1,3.3,0,3.4,0.4
		c0.1,0.4-2.1,3.5-4.5,6.9c-2.9,4.1-6.2,8.7-6.4,9.3c-0.2,0.5,0.1,1.1,0.5,1.4c0.4,0.3,0.8,0.3,0.9-0.1c0.1-0.6,3.5-5.3,6.5-9.5
		c2-2.8,3.7-5.3,4.2-6.4c0.4-0.9,0.3-1.7-0.1-2.4c-0.5-0.8-1.5-1.4-2.5-1.4c-1.1-0.1-2.6,0-3.8,0
		C373.1,126.7,372.2,126.7,371.8,126.6L371.8,126.6z"/>
	<path class="st1" d="M219.5,112.7h13.8c9.6,0,12.7-5.2,12.7-11.3c0-5.1-2.9-8.4-7.4-9v-0.1c4-1.1,6.1-4.3,6.1-8.4
		c0-7.4-4.8-9.8-11.6-9.8h-13.7V112.7L219.5,112.7z M227.7,79.9h3c4,0,5.9,1.3,5.9,5c0,3.6-2,5.1-6.5,5.1h-2.3V79.9L227.7,79.9z
		 M227.7,95.4h3.5c3.6,0,6.3,1.3,6.3,5.8c0,4.5-2.7,5.8-6.6,5.8h-3.2V95.4L227.7,95.4z M249.1,74.2v38.6h23.3v-6.4h-15.1V96h13.7
		v-6.4h-13.7v-9.1h14.5v-6.4H249.1L249.1,74.2z M274.9,74.2v38.6h23.3v-6.4h-15.1V96h13.7v-6.4h-13.7v-9.1h14.5v-6.4H274.9
		L274.9,74.2z M308.8,79.9h3.9c3.7,0,5.7,1.8,5.7,5.3c0,4.2-2.2,5.8-6.1,5.8h-3.4V79.9L308.8,79.9z M300.6,112.7h8.2V96.4h4.4
		c3.3,0,4.7,1.8,4.8,4.9l0.2,7.4c0.1,1.5,0.2,3,1,4h8.9v-0.3c-1.5-0.8-1.8-2.9-1.8-6.9c-0.1-8.2-1-11.1-6.5-11.8v-0.1
		c4.6-0.9,6.8-4.4,6.8-9.5c0-6.6-4.1-9.9-10.8-9.9h-15.1V112.7L300.6,112.7z M344.8,112.7h8.2V96h13.7v-6.4H353v-9.1h14.5v-6.4
		h-22.7V112.7L344.8,112.7z M369.8,74.2v38.6h23.3v-6.4H378V96h13.7v-6.4H378v-9.1h14.5v-6.4H369.8L369.8,74.2z M394.7,100.7v1.6
		c0,7.1,3.6,11.2,12.9,11.2c8.9,0,14.1-3.7,14.1-11.8c0-4.7-1.6-7.7-7.7-10.2l-6.3-2.6c-3.5-1.4-4.2-2.9-4.2-5.2
		c0-2.3,1-4.5,4.7-4.5c3.1,0,4.4,2.1,4.4,5.7h7.9v-1.1c0-7.4-5.3-10.4-12.6-10.4c-7.7,0-12.6,3.8-12.6,11.3c0,6.4,3.4,9.3,10.6,11.7
		c5.4,1.8,7.3,3.1,7.3,6.6c0,3.2-2.4,4.8-4.9,4.8c-4.3,0-5.4-2.3-5.4-5.9v-1.1H394.7L394.7,100.7z M422.3,74.2v6.4h8.9v32.2h8.2
		V80.6h8.9v-6.4H422.3L422.3,74.2z M458.9,112.7V74.2h-8.2v38.6H458.9L458.9,112.7z M461,74.2l9.3,38.6h10.5l9.3-38.6h-8.5l-6,28.5
		h-0.2l-5.7-28.5H461L461,74.2z M486.6,112.7h8.5l1.9-8.2h10.8l1.9,8.2h8.5l-10.8-38.6h-10.1L486.6,112.7L486.6,112.7z M502.4,80.9
		h0.1l3.9,17.3h-8L502.4,80.9L502.4,80.9z M542.9,112.7v-6.4h-14.5V74.2h-8.2v38.6H542.9L542.9,112.7z"/>
	<path class="st1" d="M219.5,60.1h12.5c10.6,0,13.5-6.2,13.5-19.9c0-11.4-2-18.8-13-18.8h-13V60.1L219.5,60.1z M227.5,27.2h3.4
		c6.1,0,6.8,4.5,6.8,13.3c0,10.5-1.1,13.9-6.6,13.9h-3.5V27.2L227.5,27.2z M257.2,60.1V21.4h-8v38.7H257.2L257.2,60.1z M261.4,60.1
		H274c10.6,0,13.5-6.2,13.5-19.9c0-11.4-2-18.8-13-18.8h-13V60.1L261.4,60.1z M269.4,27.2h3.4c6.1,0,6.8,4.5,6.8,13.3
		c0,10.5-1.1,13.9-6.6,13.9h-3.5V27.2L269.4,27.2z M289.7,48v1.6c0,7.1,3.5,11.3,12.5,11.3c8.6,0,13.7-3.7,13.7-11.9
		c0-4.7-1.5-7.7-7.5-10.2l-6.1-2.6c-3.4-1.4-4.1-2.9-4.1-5.3c0-2.3,0.9-4.5,4.5-4.5c3,0,4.3,2.1,4.3,5.7h7.6v-1.1
		c0-7.4-5.1-10.4-12.2-10.4c-7.5,0-12.2,3.8-12.2,11.4c0,6.4,3.3,9.3,10.3,11.7c5.3,1.8,7.1,3.1,7.1,6.6c0,3.2-2.3,4.8-4.8,4.8
		c-4.2,0-5.3-2.3-5.3-6V48H289.7L289.7,48z M318.4,60.1h13.4c9.3,0,12.3-5.3,12.3-11.3c0-5.1-2.8-8.4-7.2-9v-0.1
		c3.9-1.1,6-4.3,6-8.4c0-7.4-4.7-9.8-11.2-9.8h-13.3V60.1L318.4,60.1z M326.3,27.2h2.9c3.9,0,5.7,1.4,5.7,5c0,3.6-2,5.1-6.4,5.1
		h-2.3V27.2L326.3,27.2z M326.3,42.7h3.4c3.5,0,6.1,1.3,6.1,5.8c0,4.5-2.6,5.8-6.4,5.8h-3.1V42.7L326.3,42.7z M346.8,21.4v27
		c0,10.3,6.1,12.5,12.6,12.5c6.5,0,12.6-2.6,12.6-12.5v-27h-8v27c0,3.8-0.9,6.7-4.6,6.7c-3.7,0-4.6-2.9-4.6-6.7v-27H346.8
		L346.8,21.4z M383.7,27.2h3.8c3.6,0,5.5,1.8,5.5,5.4c0,4.2-2.2,5.8-6,5.8h-3.3V27.2L383.7,27.2z M375.7,60.1h8V43.7h4.3
		c3.2,0,4.6,1.8,4.7,4.9l0.2,7.4c0.1,1.5,0.2,3,1,4.1h8.6v-0.3c-1.5-0.8-1.7-2.9-1.8-6.9c-0.1-8.2-0.9-11.1-6.4-11.8v-0.1
		c4.5-0.9,6.6-4.4,6.6-9.5c0-6.6-4-10-10.5-10h-14.7V60.1L375.7,60.1z M401.4,21.4l10.2,23.5v15.2h8V44.9l10.2-23.5h-8.6l-5.5,14.9
		h-0.1l-5.2-14.9H401.4L401.4,21.4z"/>
	<path class="st3" d="M116.4,47.4C116.4,47.4,116.4,47.3,116.4,47.4c-0.2-0.4-0.5-0.8-0.8-1c-0.5-0.4-1-0.7-1.6-1
		c-0.8-0.4-1.6-0.8-2.4-1.1c-0.9-0.3-1.8-0.4-2.7-0.2c-0.5,0.1-1,0.3-1.4,0.7c-0.2,0.2-0.4,0.4-0.6,0.7c-0.2,0.3-0.4,0.6-0.5,0.9
		c-0.2,0.5-0.1,1,0,1.6c0.1,0.4,0.3,0.7,0.6,1c0.3,0.3,0.6,0.2,0.8-0.1c0.2-0.3,0.4-0.7,0.5-1c0.1-0.7,0.6-1.1,1.2-1.3
		c0.6-0.3,1.3-0.5,2-0.4c1.4,0.1,2.8,0.3,4,1.1C115.7,47.2,116,47.4,116.4,47.4L116.4,47.4z"/>
	<path class="st3" d="M123.7,28.3c0.2,0.4,0.5,0.8,0.8,1.2c0.4,0.6,0.8,1.2,1.1,1.8c0.5,0.8,0.8,1.6,1.1,2.5c0-0.3,0.1-0.7,0.1-1
		c0.1-1.2,0.1-2.4-0.1-3.6c-0.1-0.5-0.3-1.1-0.6-1.6c-0.5-0.7-1.2-1.1-2-1c-0.6,0-0.9,0.2-0.8,0.8C123.4,27.7,123.5,28,123.7,28.3
		L123.7,28.3z"/>
	<path class="st3" d="M117.1,31.4c0-0.1-0.1-0.2-0.1-0.3c-0.1-0.3-0.2-0.6-0.3-0.9c-0.5-0.8-1.1-1.6-1.9-2.2
		c-0.4-0.3-0.8-0.6-1.3-0.7c-0.7-0.3-1.4-0.2-2.1,0c-0.5,0.2-1,0.8-1,1.3c0,1,0.9,2.1,2,2.5c0.5,0.1,1,0.3,1.5,0.4
		c0.9,0.3,1.5,0.8,2,1.6c0.4,0.6,0.7,1.1,1,1.7c0.6,1,1,2,1.2,3.2c0.1,0.5,0.1,1,0,1.4c-0.1,0.4-0.4,0.6-0.9,0.6
		c-0.2,0-0.3-0.1-0.5-0.1c-0.5-0.1-0.9-0.3-1.4-0.4c-0.5-0.1-1,0-1.2,0.4c-0.2,0.4-0.3,1,0.2,1.4c0.3,0.3,0.6,0.5,0.9,0.7
		c0.4,0.2,0.8,0.4,1.1,0.7c0.6,0.4,1.1,0.8,1.7,1.3c0.3,0.3,0.6,0.6,0.9,0.9c0.3,0.3,0.6,0.5,0.9,0.8c0,0,0.1,0.2,0.1,0.2
		c0.2,0.3,0.2,0.3,0.3,0.4c0.2,0.5,0.2,0.5,0.1,0.8c0,0.1-0.1,0.3-0.1,0.4c-0.2,0.4-0.1,0.3-0.4,0.8c-0.1,0.1-0.2,0.3-0.2,0.3
		c0,0-0.2,0.1-0.3,0.1c-0.8,0.2-1.4,0.4-2.2,0.4c-0.8,0-1.6,0.1-2.4,0.2c-1.1,0.1-1.8,0.7-2.3,1.6c-0.3,0.5-0.3,1.1-0.3,1.7
		c0,0.8,0.5,1.4,1.1,1.9c0.6,0.4,1.5,0,1.7-0.7c0.1-0.4,0.2-0.9,0.2-1.4c0-0.5,0.5-0.9,0.9-1c0.5-0.2,1-0.2,1.5-0.1
		c1.2,0.2,1.8,0.7,2.4,1.6c0.4,0.7-1,4.6-1.5,6.9l1.2-1.3l3.1-1.2l11.8,1.2l16.5,6.4v-3c0,0-13.4-0.4-16.2-10.9c0,0-1.3-3.8-1.5-8.8
		c-0.2-5-2.2-5.8-2.2-5.8s-2.2-1.1-2.5,1.5c-0.3,2.6,0.3,4.9,0.3,4.9s1,5.2-2,4.7c-2,0.1-2-5.2-1.9-6.5c0.3-1.5,0.6-1.8,0.7-2.5
		c0.2-1.2,0.1-1.8,0.1-2.8c0-0.2-0.1-0.5-0.2-0.7c-0.1-0.1-0.3-0.3-0.4-0.3c-0.3,0-0.7,0.1-0.8,0.4c-0.1,0.3-0.1,0.7-0.1,1
		c0,0.4,0.1,0.8,0.1,1.2c0,0.2-0.1,0.4-0.3,0.5c-0.2,0-0.4-0.1-0.4-0.3c-0.1-0.6-0.3-1.2-0.3-1.9c-0.1-0.8,0-1.5-0.1-2.3
		c0-0.4,0-0.8-0.1-1.1c-0.4-1-0.9-1.9-1.7-2.5c-0.5-0.4-0.8-0.4-1.1,0c-0.3,0.4-0.4,0.9-0.4,1.4c0,0.7,0.4,1.3,0.7,1.8
		c0.4,0.6,0.8,1.2,1.1,1.8c0.5,0.9,0.4,1.5-0.2,2.2c-0.4,0.5-0.9,0.8-1.5,0.8c-0.6,0.1-1-0.2-1.3-0.6c-0.5-0.7-0.8-1.6-1-2.4
		c-0.2-1-0.4-2-0.6-3C117.2,31.8,117.1,31.4,117.1,31.4L117.1,31.4z M125.1,54.4l4.6-7.9l-2.8,3.2 M125.6,49.6
		c0,0.1-0.1,0.2-0.2,0.2c-0.2,0.1-0.2-0.1-0.3-0.2"/>
	<path class="st3" d="M119.5,56.4"/>
	<path class="st4" d="M119.5,56.4"/>
	<path class="st5" d="M180.2,60.7c1.8,0.1,3.6,0.4,5.4,0.6 M177.6,74.2c0.4,0.2,0.8,0.5,1.1,1c0.9,0.9,2,1.4,3,2.1
		c1.1,0.8,1.6,2.4,2.8,3 M171.2,10.1c0.1,0,0.1,0,0.2-0.1c0.5-0.3,1.1-0.6,1.6-0.9c0.3-0.2,0.5-0.4,0.7-0.6c0.2-0.1,0.4-0.2,0.6-0.2
		"/>
	<path class="st5" d="M171.9,3.1c0.1-0.5,0.9-1.2,1.2-1.6c0.4-0.4,0.8-0.7,1.2-1.1c0,0,0,0-0.1-0.1"/>
	<path class="st5" d="M27.4,82.5c-0.1,0.1-0.3,0-0.4,0.1c-0.2,0-0.3,0-0.4,0c-0.5,0-1,0.1-1.5,0.1c-0.3,0-0.6,0-0.9,0
		c-0.2,0-0.3,0-0.5,0c-0.3,0-0.6,0-1,0c-0.3,0-0.7,0.1-1,0.1c-0.3,0-0.6,0.1-0.8,0.1c-0.2,0-0.4,0.1-0.6,0.1
		c-0.2,0.1-0.5,0.2-0.7,0.3c-0.5,0.2-1,0.4-1.5,0.7c-0.2,0.1-0.3,0.2-0.5,0.3c-0.1,0.1-0.3,0.2-0.5,0.4c-0.2,0.2-0.4,0.3-0.6,0.5
		c-0.3,0.3-0.6,0.6-1,0.9c-0.2,0.2-0.3,0.3-0.4,0.6c-0.1,0.2-0.1,0.5,0,0.7c0,0.1,0,0.2,0.1,0.4c0.1,0.1,0.2,0.2,0.3,0.3
		c0.3,0.2,0.7,0.3,1,0.3c0.8,0,1.6,0,2.4-0.3c0.8-0.4,1.5-0.9,2.1-1.6c0.2-0.3,0.5-0.5,0.8-0.7c0.3-0.2,0.7-0.4,1-0.6
		c0.7-0.4,1.4-0.9,2-1.4c0.5-0.4,1-0.9,1.7-1"/>
	<path class="st5" d="M91.9,15.8c0-0.1-0.2-0.3-0.3-0.3c-0.2-0.2-0.3-0.3-0.5-0.4c-0.2-0.1-0.4-0.2-0.5-0.3
		c-0.2-0.2-0.5-0.3-0.7-0.4c-0.3-0.2-0.6-0.3-0.9-0.5c-0.2-0.1-0.4-0.3-0.7-0.4c-0.2-0.1-0.5-0.2-0.7-0.2c-0.1-0.1-0.3-0.1-0.4-0.2
		c-0.2-0.1-0.5-0.1-0.7-0.2c-0.3-0.1-0.5-0.2-0.9-0.2c-0.2,0-0.5-0.1-0.7-0.1c-0.2,0-0.4-0.1-0.6-0.1c-0.1,0-0.2,0-0.4,0
		c-0.2,0-0.4-0.1-0.6-0.1c-0.7,0-1.4,0.1-2.1,0.2c-0.4,0.1-0.8,0.2-1.2,0.3c-0.3,0.1-0.5,0.3-0.7,0.5c-0.3,0.3-0.4,0.5-0.5,0.8
		c-0.1,0.2-0.1,0.3-0.1,0.5c0,0.2,0,0.5,0.1,0.7c0.2,0.5,0.6,0.8,1.1,0.9c0.8,0.1,1.6,0.1,2.3,0.1c0.7,0,1.4,0,2.1-0.1
		c0.6,0,1.1,0,1.7-0.1c0.2,0,0.4-0.1,0.5-0.1c0.4-0.1,0.8-0.1,1.2-0.2c0.4-0.1,0.8-0.2,1.2-0.3c0.3-0.1,0.7-0.1,1-0.1
		c0.3,0,0.6,0,0.9,0c0.2,0,0.4,0,0.6,0c0,0,0,0,0,0 M97.4,23.8c-0.1-0.2-0.4-0.3-0.6-0.5c-0.3-0.2-0.6-0.5-0.8-0.7
		c-0.1-0.1-0.2-0.3-0.4-0.4c-0.2-0.2-0.5-0.3-0.7-0.5c-0.2-0.1-0.4-0.2-0.6-0.3c-0.2-0.1-0.4-0.2-0.7-0.3c-0.2-0.1-0.4-0.2-0.5-0.2
		c-0.2-0.1-0.4-0.1-0.7-0.2c-0.1-0.1-0.2-0.1-0.4-0.2c-0.3-0.1-0.6-0.2-1-0.3c-0.6-0.1-1.2-0.1-1.8-0.1c-0.3,0-0.5,0-0.8,0.1
		c-0.1,0.1-0.3,0.1-0.4,0.2c-0.1,0-0.2,0-0.3,0.1c-0.3,0.1-0.4,0.5-0.4,0.7c0,0.3-0.1,0.5-0.1,0.8c0,0.1,0.1,0.2,0.1,0.3
		c0.1,0.2,0.1,0.3,0.3,0.4c0.1,0.1,0.3,0.2,0.4,0.3c0.3,0.2,0.7,0.3,1,0.4c0.6,0.2,1.2,0.3,1.8,0.2c0.6-0.1,1.3,0,1.9,0
		c0.3,0,0.6,0,0.9,0c0.7,0,1.3,0.1,2,0.1c0.4,0,0.9,0,1.3,0c0.5,0,1,0.1,1.5,0.1c0.2,0,0.5,0,0.7,0.1c0.1,0,0.2,0.1,0.2,0
		 M113.4,25.8c0-0.8-0.1-1.6-0.3-2.4c-0.1-0.5-0.3-1-0.5-1.4c-0.2-0.5-0.4-1.1-0.7-1.6c-0.2-0.3-0.3-0.6-0.5-0.9
		c-0.2-0.3-0.3-0.6-0.5-0.8c-0.2-0.2-0.3-0.5-0.5-0.7c-0.3-0.5-0.6-0.9-1.1-1.2c-0.3-0.2-0.6-0.3-0.9-0.5c-0.2-0.1-0.3-0.2-0.5-0.4
		c-0.2-0.2-0.5-0.3-0.7-0.4c-0.3-0.1-0.7-0.2-1-0.4c-0.4-0.2-0.8-0.4-1.3-0.5c-0.3,0-0.5-0.1-0.8-0.1c-0.2,0-0.5-0.1-0.7-0.1
		c-0.3,0-0.7,0-1,0c-0.2,0-0.5,0-0.7,0c-0.2,0-0.3,0-0.5,0.1c-0.3,0.1-0.5,0.2-0.7,0.4c-0.2,0.2-0.3,0.3-0.4,0.6
		c-0.1,0.2-0.1,0.4-0.1,0.7c0,0.3,0,0.6,0.1,0.9c0.1,0.4,0.3,0.7,0.5,1.1c0.3,0.3,0.6,0.5,0.9,0.8c0.1,0.1,0.2,0.1,0.3,0.2
		c0.2,0.1,0.4,0.2,0.6,0.3c0.4,0.2,0.8,0.4,1.1,0.6c0.6,0.3,1.1,0.7,1.8,0.8c0.3,0,0.5,0.1,0.8,0.2c0.2,0.1,0.5,0.2,0.7,0.2
		c0.6,0.2,1.1,0.4,1.7,0.6c0.4,0.1,0.8,0.3,1.1,0.5c0.5,0.3,0.9,0.6,1.3,1c0.3,0.3,0.6,0.6,0.9,0.9c0.1,0.1,0.2,0.2,0.3,0.4
		c0,0,0,0-0.1,0 M148.2,24.1c0.2-0.1,0.3-0.5,0.4-0.7c0.2-0.4,0.3-0.9,0.6-1.2c0.6-0.7,1.3-1.2,1.7-1.9c0.2-0.3,0.4-0.7,0.7-1
		c0.4-0.3,0.8-0.6,1.1-0.9c0.6-0.5,1.2-1,1.8-1.4c0.4-0.2,0.8-0.4,1.1-0.7c0.3-0.2,0.7-0.4,1-0.5c0.2,0,0.5,0,0.8,0c0.3,0,0.6,0,1,0
		c0.2,0,0.4,0,0.6,0c0.3,0,0.7,0,1,0.1c0.4,0.2,0.7,0.6,0.7,1c0,0.2,0.1,0.3,0.1,0.4c0,0.2-0.1,0.4-0.1,0.6c0,0.2,0,0.4-0.1,0.6
		c-0.1,0.3-0.3,0.6-0.5,0.8c-0.2,0.2-0.3,0.4-0.5,0.5c-0.2,0.2-0.5,0.3-0.8,0.4c-0.3,0.2-0.6,0.3-0.9,0.5c-0.3,0.1-0.6,0.2-0.9,0.3
		c-0.5,0.2-0.9,0.4-1.3,0.6c-0.4,0.2-0.7,0.2-1.2,0.3c-0.5,0.1-0.9,0.1-1.4,0.1c-0.5,0.1-1,0.1-1.5,0.2c-0.3,0-0.5,0-0.8,0.1
		c-0.3,0.1-0.6,0.2-0.9,0.3c-0.2,0.1-0.4,0.2-0.7,0.4c-0.1,0-0.3,0.1-0.4,0.2c-0.1,0.1,0,0.1-0.1,0.1 M163,22.3
		c0.1,0,0.6-0.6,0.5-0.5c0.6-0.6,1.3-1.1,2-1.5c0.4-0.3,0.8-0.5,1.2-0.8c0.6-0.4,1.1-0.5,1.8-0.8c0.9-0.3,1.8-0.7,2.8-0.8
		c0.8-0.1,1.6-0.1,2.4-0.1c0.7,0,1.3,0.1,2,0.3c0.7,0.2,1.5,0.4,1.9,1.1c0.3,0.5,0.4,1,0.4,1.6c0,0.6-0.1,0.9-0.5,1.3
		c-0.3,0.3-0.9,0.4-1.3,0.4c-0.5,0.1-1.1,0.1-1.7,0.1c-0.8,0-1.5,0.1-2.3,0.1c-0.3,0-0.6,0-1,0c-0.4,0-0.9-0.1-1.3-0.2
		c-0.8-0.1-1.5,0-2.2-0.1c-0.7-0.1-1.5-0.1-2.2-0.1c-0.5,0-1,0-1.5,0c-0.2,0-0.4,0-0.6,0.1c-0.1,0.1-0.2,0.2-0.4,0.2 M176.4,27.5
		c0.6-0.3,1.3-0.4,2-0.4c1-0.1,2-0.1,3,0c0.8,0.1,1.7,0.5,2.5,0.8c0.7,0.3,1.5,0.6,2.2,0.9c0.4,0.2,1,0.5,1.2,0.9
		c0.2,0.3,0.3,0.7,0.5,1c0.1,0.3,0.2,0.6,0.3,0.9c0.1,0.8,0.3,1.9-0.4,2.5c-0.5,0.3-1.1,0.1-1.6,0.1c-0.5-0.1-1-0.1-1.5-0.2
		c-0.6-0.1-1.2-0.5-1.7-0.8c-0.7-0.5-1.5-0.9-2.2-1.5c-1.1-1-2.3-2-3.5-2.9c-0.6-0.4-1.3-0.8-2-1.1c-0.4-0.2-1-0.3-1.5-0.3
		 M182.8,68.5C182.8,68.5,182.8,68.5,182.8,68.5c0,0,0.6-0.1,0.4-0.1c0.6-0.1,1.1-0.2,1.7-0.3c0.4-0.1,0.9-0.1,1.3-0.1
		c0.6,0,1.2,0,1.7,0c0.3,0,0.6,0,0.9,0.1c0.4,0,0.6,0.1,1,0.2c0.2,0.1,0.5,0.1,0.7,0.2c0.2,0,0.4,0.1,0.7,0.2
		c0.9,0.3,1.9,0.8,2.6,1.4c0.7,0.6,1,1.4,0.9,2.3c-0.1,0.7-0.8,1.2-1.5,1.2c-0.2,0-0.5,0.1-0.7,0.1c-0.4,0-0.8-0.1-1.2-0.1
		c-0.4-0.1-0.9-0.2-1.3-0.2c-0.2,0-0.3,0-0.5-0.1c-0.2-0.1-0.3-0.2-0.5-0.3c-0.3-0.2-0.6-0.3-0.9-0.4c-0.2-0.2-0.5-0.4-0.7-0.6
		c-0.1-0.1-0.3-0.2-0.4-0.3c-0.3-0.3-0.7-0.5-1-0.7c-0.6-0.4-1.3-0.7-2-1c-0.3-0.1-0.6-0.3-0.9-0.4c-0.2-0.1-0.4-0.2-0.7-0.3
		c-0.3-0.1-0.6-0.1-0.9-0.1 M188.1,86.5c-0.1,0-0.2-0.1-0.3-0.1c-0.1-0.1-0.3-0.1-0.5-0.1c-0.2,0-0.4,0.2-0.6,0.3
		c-0.2,0.2-0.2,0.5-0.2,0.8c0,0.1,0,0.2,0,0.3c0,0.1,0.2,0.3,0.3,0.4c0.2,0.2,0.5,0.2,0.8,0.2c0.3-0.1,0.4-0.2,0.6-0.5
		c0.2-0.2,0.2-0.5,0.2-0.8c0-0.1-0.1-0.2-0.1-0.4c0-0.1,0-0.2-0.1-0.2 M190.7,88.8c-0.2-0.2-0.6-0.2-0.9-0.2c-0.3,0-0.6,0.1-0.8,0.3
		c-0.2,0.3-0.4,0.6-0.4,1c0,0.3-0.1,0.7,0.1,0.9c0.2,0.3,0.7,0.5,1,0.5c0.2,0,0.4,0,0.6,0c0.2,0,0.3,0,0.5-0.1
		c0.2-0.1,0.3-0.4,0.3-0.6c0.2-0.5,0.2-0.9,0-1.4c-0.1-0.2-0.1-0.4-0.2-0.6c0,0,0-0.1-0.1-0.2 M194.7,89.9c-0.3-0.1-0.6-0.2-0.9-0.1
		c-0.3,0.1-0.5,0.3-0.7,0.5c-0.2,0.2-0.1,0.5-0.1,0.8c0,0.2,0,0.5,0.2,0.7c0.2,0.2,0.6,0.3,0.9,0.4c0.2,0,0.4,0,0.6,0
		c0.2,0,0.3-0.2,0.3-0.4c0.2-0.4,0.2-0.8,0.1-1.3c0-0.1,0-0.3-0.1-0.4 M191.8,92.7c0.3,0,0.5-0.1,0.8-0.1c0.4,0,0.5,0.1,0.6,0.5
		c0,0.2,0.1,0.5,0,0.7c0,0.1-0.1,0.2-0.1,0.3c-0.1,0.2-0.2,0.4-0.4,0.5c-0.4,0.4-1,0.1-1.4-0.2c-0.3-0.3-0.2-0.9,0-1.2c0,0,0,0,0,0"
		/>
	<path class="st5" d="M192.4,23.2c-0.2,0.1-0.5,0.1-0.7,0.1c-0.2,0-0.4,0.1-0.6,0.1c-0.1,0-0.3,0.1-0.4,0.1c-0.1,0-0.2,0.1-0.2,0.1
		 M193.5,23.5c0.1,0,0.2,0.1,0.2,0.2c0.2,0.2,0.4,0.5,0.7,0.8c0.1,0.2,0.2,0.3,0.3,0.5c0,0-0.1,0-0.1,0c-0.1-0.1-0.3-0.1-0.4-0.1
		c-0.3,0-0.6-0.1-0.8-0.4c-0.1-0.2-0.2-0.3-0.2-0.6c0,0,0-0.3,0.1-0.3 M193.4,22.8c0.5,0,0.9-0.4,1.2-0.8c0.1-0.1,0.2-0.2,0.3-0.4
		c0.1-0.1,0-0.1,0-0.2c-0.1-0.1-0.2-0.3-0.4-0.3c-0.4-0.1-0.7,0.2-0.9,0.5c-0.2,0.3-0.6,0.6-0.3,1 M195.5,22.6c0,0,0.6,0,0.6,0
		c0.3,0,0.5-0.2,0.8-0.4c0.1-0.1,0.3-0.2,0.4-0.3c-0.3-0.2-0.7-0.4-1.1-0.3c-0.4,0.1-0.8,0.5-1,0.9 M195.6,23.6
		c0.3,0.3,0.6,0.8,0.8,1.2c0.1,0.1,0.2,0.3,0.1,0.5c0,0-0.1,0-0.1,0c-0.1-0.1-0.3-0.2-0.4-0.3c-0.2-0.2-0.5-0.3-0.6-0.6
		c-0.1-0.2-0.3-0.3-0.3-0.6c0-0.1,0-0.2,0.1-0.3 M197.5,24c0.1,0,0.1,0.1,0.2,0.2c0.2,0.2,0.3,0.4,0.5,0.6c0.1,0.2,0.2,0.3,0.3,0.5
		c0,0.1,0,0.1,0.1,0.2c-0.1-0.1-0.3-0.1-0.4-0.1c-0.3-0.1-0.5-0.2-0.7-0.4c-0.2-0.2-0.4-0.5-0.4-0.7c0-0.2-0.1-0.3,0-0.5
		c0,0,0-0.1,0,0 M197.9,23.4c0.2-0.2,0.6-0.2,0.9-0.3c0.2-0.1,0.3-0.2,0.5-0.3c0.1-0.1,0.2-0.1,0.3-0.2c-0.2-0.2-0.4-0.4-0.7-0.5
		c-0.4-0.1-0.8,0.1-1.1,0.3c-0.1,0-0.3,0.3-0.3,0.4c0,0.1,0,0.1,0,0.2c0,0,0,0.1,0,0.1 M198.7,24.3c0.1,0,0.2,0.1,0.2,0.2
		c0.3,0.3,0.7,0.5,1,0.8c0.1,0.1,0.2,0.2,0.3,0.2c0,0,0.2,0.1,0.2,0.1c0.1,0,0-0.1,0-0.2c-0.1-0.2-0.1-0.3-0.1-0.5
		c-0.1-0.4-0.3-0.8-0.6-1.1c-0.1-0.1-0.4-0.3-0.6-0.3c-0.1,0-0.7,0.3-0.6,0.4c0,0,0.1,0,0.1-0.1"/>
	<path class="st5" d="M2.7,84.6C2.8,84.8,3,85,3.3,85.2c0.2,0.2,0.5,0.3,0.7,0.4c0.2,0.1,0.4,0.1,0.6,0.2c0.1,0,0.2,0.1,0.3,0
		c-0.1,0-0.1,0.1-0.1,0.2c-0.1,0.2-0.3,0.3-0.4,0.5c-0.1,0.2-0.2,0.5-0.3,0.7c0,0.1,0,0.3,0,0.3c0.1,0.1,0.4,0.2,0.6,0.2
		c0.2,0.1,0.4,0.1,0.7,0.1c0.2,0,0.4,0,0.6-0.1c0.1,0,0.2-0.1,0.3-0.2c0,0-0.1,0.5-0.1,0.5c0,0.4,0.1,0.7,0.2,1
		c0.1,0.3,0.2,0.5,0.4,0.7c0.1,0,0.3-0.2,0.4-0.2c0.2-0.1,0.1-0.3,0.2-0.5c0.1-0.3,0.2-0.6,0.3-1c0.1-0.4,0.1-0.9,0-1.3
		c0-0.2,0-0.4-0.1-0.6c-0.1-0.3-0.3-0.5-0.4-0.7c-0.2-0.2-0.4-0.3-0.5-0.5c-0.2-0.2-0.3-0.3-0.6-0.5c-0.2-0.1-0.4-0.2-0.6-0.3
		c-0.2-0.1-0.4-0.1-0.6-0.1c-0.3,0-0.6,0-0.9,0c-0.3,0-0.5,0.1-0.7,0.2 M8.3,84.1c-0.1,0-0.2,0.1-0.2,0.2c-0.1,0.1-0.3,0.2-0.5,0.3
		c-0.1,0.1-0.3,0.3-0.4,0.4 M2.4,85.5c-0.2,0.2-0.5,0.3-0.7,0.6c-0.1,0.1-0.1,0.3-0.2,0.4c0,0.1-0.1,0.2-0.1,0.3
		c0.1,0.1,0.2,0.1,0.3,0.1c0.2,0.1,0.4,0.1,0.6,0.2c0.2,0,0.3,0,0.5,0c0.1,0,0.3,0,0.4,0c0,0.1-0.1,0.1-0.1,0.2
		c-0.1,0.2-0.2,0.4-0.2,0.7c0,0.2,0,0.5,0,0.7c0,0.1,0,0.2,0,0.3c0.1,0,0.3,0,0.5,0c0.2,0,0.4,0.1,0.6,0C3.9,89.1,4,89.1,4,89
		c0,0,0.1-0.1,0.1-0.1c0,0.4,0,0.8,0.1,1.2c0.1,0.1,0.1,0.2,0.2,0.3c0.1,0.1,0.1,0.2,0.3,0.1c0.5-0.2,1.1-0.3,1.3-0.9 M1.2,87.4
		c-0.1,0.2-0.3,0.4-0.4,0.7c0,0.1-0.1,0.4-0.1,0.5c0,0.1,0.3,0.2,0.3,0.2c0.2,0.1,0.4,0.1,0.6,0.2c0.1,0,0.3,0,0.4,0
		c0.1,0,0.2,0,0.3-0.1c0,0.1-0.1,0.2-0.1,0.3c0,0.2,0,0.4,0,0.5c0.1,0.2,0.2,0.4,0.3,0.7c0.1,0.2,0.2,0.4,0.3,0.6
		c0.1,0.1,0.2,0,0.3,0c0.2,0,0.4-0.1,0.5-0.1c0.2-0.1,0.3-0.2,0.4-0.4 M0.8,89.3c0,0.1-0.1,0.1-0.1,0.2c-0.1,0.1-0.2,0.3-0.2,0.4
		c-0.1,0.2-0.1,0.5-0.1,0.7c0.3,0.2,0.8,0.1,1.1,0c0.1,0,0.2,0,0.3-0.1c0,0,0.1-0.1,0-0.1 M186.7,94.8c2.5,3.2,9,3.2,9.5,8"/>
	<path class="st5" d="M13.2,22.7c-0.4-0.1-0.7-0.1-1-0.3c-0.4-0.3-0.8-0.5-1.3-0.8c-0.1-0.1-0.3-0.2-0.4-0.2
		c-0.2-0.1-0.4-0.3-0.6-0.3c-0.2-0.1-0.5-0.1-0.7-0.2c-0.2-0.1-0.5-0.1-0.7-0.1c-0.3,0-0.7,0-1,0.1c-0.2,0.1-0.4,0.1-0.6,0.2
		c-0.2,0.1-0.5,0.1-0.6,0.3c-0.1,0.1-0.2,0.2-0.3,0.3c-0.1,0.2-0.2,0.3-0.3,0.5c-0.1,0.2-0.2,0.4-0.3,0.6c-0.1,0.2-0.1,0.5-0.1,0.7
		c0,0.1,0.1,0.2,0.1,0.4c0.1,0.2,0.1,0.4,0.2,0.5c0.1,0.3,0.5,0.6,0.8,0.7C6.8,25,7.2,25,7.7,25.1c0.2,0,0.5-0.1,0.7-0.1
		c0.2,0,0.5-0.1,0.7-0.2c0.5-0.2,1.1-0.4,1.6-0.7c0.2-0.1,0.5-0.2,0.8-0.3c0.2-0.1,0.5-0.2,0.7-0.3c0.3-0.2,0.6-0.3,0.9-0.4
		c0.1,0,0.2-0.1,0.3-0.1c0.1,0,0.2,0,0.2-0.1"/>
	<path class="st5" d="M2.7,76.2c0.2,1.2,0.2,2.4,0.2,3.6c0,0.6,0,1.1,0,1.7c0,0,0,0-0.1,0 M1.4,79.8C1.4,79.8,1.4,79.8,1.4,79.8
		c0-0.1,0.1-0.1,0.2-0.2C2,79.3,2.5,79.2,2.9,79c0.3-0.1,0.6-0.3,0.9-0.4c0.2-0.1,0.5-0.2,0.7-0.3c0.3-0.2,0.6-0.5,1-0.6 M5.2,75.4
		c0,0.2,0,0.3,0,0.5c0,0.3-0.1,0.5-0.1,0.8c0,0.3,0,0.5,0,0.8c0,0.2-0.1,0.5-0.1,0.7c0,0.6,0,1.3,0,1.9 M7,77.2c-0.1,0-0.2,0-0.3,0
		c-0.3,0.2-0.4,0.5-0.5,0.7c-0.1,0.2-0.1,0.3-0.1,0.5c0,0.1,0,0.6,0.1,0.6c0.1,0.1,0.5,0,0.6-0.1c0.1-0.1,0.1-0.3,0.2-0.4
		C7,78.4,7.1,78.2,7.1,78c0-0.1,0-0.3,0-0.4C7.1,77.5,7.1,77.4,7,77.2C7,77.3,7,77.2,7,77.2c-0.1-0.1,0-0.2,0.1-0.2
		c0.1-0.2,0.2-0.3,0.3-0.5c0.1-0.1,0.4-0.3,0.6-0.3c0.1,0.3,0,0.6,0,0.9c0,0.5,0,1.1-0.1,1.6c-0.1,0.3-0.1,0.7-0.1,1
		c0,0.2-0.1,0.6,0.1,0.7c0,0,0,0,0-0.1 M8,77c0.1-0.1,0.3-0.2,0.4-0.3c0.1-0.1,0.2-0.2,0.3-0.2c0.4,0.1,0.3,0.7,0.3,1
		c0,0.3-0.4,0.9-0.7,0.8c-0.2-0.1-0.3-0.2-0.3-0.4c0,0,0,0,0,0 M10.3,75.4c-0.1,0-0.3,0.1-0.4,0.2c-0.2,0.1-0.2,0.2-0.3,0.5
		c0,0.2-0.1,0.5,0,0.7c0.1,0.2,0.3,0.3,0.5,0.4c0.2,0.1,0.2,0.1,0.3,0.3c0.1,0.2,0.1,0.3,0,0.6c-0.1,0.4-0.4,0.5-0.8,0.5
		c0,0,0.1-0.1,0.1-0.1 M10.3,12.4c0,0.2-0.2,0.4-0.3,0.6c-0.1,0.2-0.3,0.5-0.4,0.7c-0.1,0.1-0.1,0.3-0.2,0.5
		c-0.1,0.2-0.2,0.4-0.3,0.5c-0.1,0.2-0.2,0.3-0.3,0.4c-0.1,0.2-0.2,0.4-0.3,0.5c-0.1,0.2-0.3,0.5-0.2,0.7c0.1,0.1,0.2,0.1,0.3,0.1
		c0.3,0,0.6-0.2,0.8-0.3c0.3-0.2,0.6-0.3,0.8-0.7c0.2-0.2,0.3-0.5,0.4-0.7c0.2-0.3,0.4-0.5,0.5-0.7c0.1-0.1,0.2-0.3,0.3-0.4
		c0.1,0-0.3,0.7-0.3,0.8c-0.1,0.2-0.1,0.3-0.2,0.5c-0.1,0.2-0.1,0.4-0.2,0.5c-0.1,0.3-0.2,0.6-0.2,0.9c0,0.1,0,0.3,0.1,0.4
		c0.1,0,0.2,0,0.3,0c0.2-0.1,0.5-0.1,0.7-0.3c0.4-0.2,0.7-0.5,0.9-0.8c0.4-0.4,0.6-0.9,1-1.3c0.2-0.2,0.3-0.4,0.6-0.6
		c0.1-0.1,0.2-0.1,0.3-0.2 M14.5,15.9c0-0.1-0.1-0.2-0.2-0.3c-0.2-0.2-0.3-0.1-0.6-0.1c-0.6,0.1-1.2,0.4-1.4,1c0,0.1,0,0.3,0.1,0.4
		c0.1,0.1,0.3,0,0.5,0c0.3-0.1,0.6-0.2,0.8-0.4C14,16.3,14.3,16.1,14.5,15.9c0.2-0.1,0.2-0.1,0.3-0.2C14.7,15.8,14.5,15.8,14.5,15.9
		c-0.1,0.1-0.2,0.2-0.3,0.3c-0.1,0.1-0.1,0.2-0.2,0.4c-0.1,0.2-0.2,0.6,0,0.7c0.2,0,0.3,0,0.5-0.1c0.2,0,0.3-0.1,0.5-0.3
		c0.3-0.3,0.7-0.6,0.9-0.9c0.2-0.3,0.4-0.5,0.6-0.8c0.1-0.1,0.2-0.3,0.2-0.5c0,0.1-0.1,0.1-0.2,0.2c-0.2,0.3-0.5,0.5-0.8,0.8
		c-0.3,0.4-0.6,0.8-0.9,1.2c-0.1,0.2-0.3,0.5-0.4,0.7c0,0.1,0,0.2,0.1,0.3c0.1,0,0.2,0,0.3,0c0.3,0,0.6-0.1,0.8-0.1
		c0.4-0.1,0.8-0.3,1.2-0.5c0.3-0.1,0.6-0.3,0.8-0.5c0-0.1,0.1-0.3,0.1-0.3c-0.1-0.2-0.5-0.1-0.6-0.1c-0.3,0.1-0.5,0.3-0.7,0.5
		c-0.1,0.2-0.2,0.5-0.2,0.7c0,0.2,0.1,0.4,0.2,0.5c0.2,0.1,0.4,0.1,0.6,0.1c0.4,0,0.6-0.1,0.9-0.4c0.1-0.2,0.3-0.3,0.4-0.4
		c0.2-0.2,0.5-0.4,0.7-0.6c0.1-0.1,0.3-0.3,0.5-0.4c0,0.1-0.2,0.2-0.3,0.3c-0.1,0-0.3,0.2-0.3,0.3c0.2,0.1,0.3,0,0.5,0
		c0.1,0,0.2,0,0.2,0.1c0,0.1,0,0.3-0.1,0.3c-0.1,0.2-0.4,0.4-0.6,0.5c-0.1,0.1-0.3,0.2-0.4,0.3c0,0.1,0.1,0.3,0.2,0.4
		c0.3,0.2,0.8,0.2,1.2,0.2c0.2,0,0.4-0.1,0.6-0.2c0,0,0,0,0,0 M15.3,15.3C15.3,15.3,15.3,15.3,15.3,15.3c0.6,0.2,1.2,0.4,1.8,0.6
		 M188,19.4c0.3-0.7,0.7-1.4,1-2.1c0-0.1,0-0.2,0.1-0.3c0.1-0.4,0.2-0.7,0.4-1.1c0.1-0.4,0.4-0.6,0.5-1c0-0.1,0.1-0.3,0.1-0.4
		c0,0.2,0,0.4-0.1,0.6c0,0.4,0,0.7-0.1,1.1c0,0.5,0,0.9,0,1.4c0,0.1,0,0.3,0,0.4c0,0,0,0.2,0,0.3c0.2-0.2,0.3-0.3,0.5-0.5
		c0.1-0.2,0.3-0.3,0.4-0.5c0.3-0.4,0.5-0.8,0.7-1.2c0.1-0.3,0.3-0.6,0.4-0.8c0.1-0.2,0.2-0.4,0.2-0.6c0,0.2,0,0.4,0,0.6
		c0,0.2-0.1,0.5-0.1,0.7c-0.1,0.5-0.2,1.1-0.2,1.7c0,0.2,0,0.4,0,0.5c0,0.1,0,0.4,0.1,0.5c0.1,0.2,0.3-0.1,0.4,0c0,0,0,0,0,0
		 M194,16.5c0-0.1-0.1-0.2-0.1-0.3c-0.1-0.2-0.3-0.1-0.5-0.1c-0.3,0-0.6,0.3-0.7,0.6c-0.1,0.3-0.3,0.7-0.3,1c0,0.1-0.1,0.4,0.1,0.4
		c0.1,0.1,0.4,0,0.5-0.1c0.2-0.1,0.4-0.2,0.5-0.4c0.2-0.3,0.4-0.5,0.5-0.9c0-0.1,0.1-0.2,0.1-0.3c0-0.1,0-0.2,0-0.2
		c0,0.1,0,0.1-0.1,0.2c-0.1,0.3-0.1,0.6-0.2,0.9c0,0.3-0.1,0.5,0,0.7c0.5,0,1-0.4,1.3-0.8c0.5-0.7,1.1-1.5,1.2-2.4
		c0-0.2,0-0.3,0-0.5c0-0.1,0-0.3-0.1-0.4c-0.1-0.1-0.3,0-0.3,0.1c-0.2,0.2-0.4,0.4-0.5,0.7c-0.3,0.7-0.3,1.4-0.3,2.2
		c0,0.2,0.1,0.4,0.2,0.6c0.1,0.2,0.1,0.3,0.3,0.3c0.2,0,0.5,0,0.6-0.2c0.1-0.1,0.2-0.3,0.3-0.4c0.2-0.3,0.3-0.5,0.5-0.8
		c0.1-0.2,0.2-0.3,0.3-0.5c0.1-0.3,0.1-0.6,0.2-0.9c0.1-0.3,0.1-0.5,0.2-0.8c-0.1,0.3-0.3,0.7-0.4,1c-0.3,0.6-0.4,1.3-0.4,1.9
		c0,0.2,0,0.6,0.3,0.8c0.1,0,0.1,0,0.2,0c0.1,0,0.2,0.1,0.3,0.1c0.2,0,0.3-0.1,0.5-0.1c0,0,0-0.1-0.1-0.1 M198.4,15.4
		c-0.1,0.1-1.2,0.2-1.2,0.2c0.4,0-1,0.1-1.1,0.1 M199.8,82.5C199.8,82.5,199.8,82.5,199.8,82.5c-0.2,0.3-0.5,0.5-0.8,0.7
		c-0.3,0.2-0.7,0.4-1,0.6c-0.2,0.2-0.4,0.5-0.6,0.7c-0.2,0.1-0.4,0.3-0.4,0.5c0,0.1,0,0.2,0,0.3c0,0.2,0.1,0.2,0.2,0.3
		c0.3,0.2,0.6,0.2,0.9,0.2c0,0,0.5,0.1,0.4-0.1 M192.3,78.1c-0.1,0-0.1,0-0.1,0.1c-0.2,0.2-0.4,0.4-0.7,0.6
		c-0.4,0.3-0.8,0.6-1.2,0.8c-0.4,0.2-0.8,0.4-1.1,0.8c-0.1,0.1-0.1,0.2-0.2,0.3c0,0.1,0,0.1,0,0.2c0.1,0.1,0.1,0.1,0.3,0
		c0.3,0,0.6,0,0.9-0.1c0.5-0.1,0.9-0.3,1.4-0.4c0.6-0.2,1.2-0.2,1.8-0.4c0.2-0.1,0.3-0.1,0.5-0.2c0,0-0.5,0.3-0.3,0.2
		c-0.6,0.4-1.3,0.6-2,1c-0.5,0.3-0.9,0.8-1.3,1.1c-0.3,0.2-0.6,0.5-0.9,0.7c-0.3,0.2-0.7,0.4-1.1,0.4c-0.1,0-0.2,0-0.2-0.1
		 M192.2,81.7c0,0.1,0.2,0.1,0.3,0.1c0.3,0,0.7,0.1,1,0c0.2-0.1,0.3-0.2,0.4-0.4c0-0.1,0.2-0.2,0-0.3c-0.1-0.1-0.5,0-0.6,0
		c-0.3,0-0.4,0.1-0.7,0.4c-0.3,0.3-0.7,0.7-0.6,1.2c0.2,0.8,1.4,0,1.8-0.2c0.4-0.2,1-0.2,1.4-0.2c0.2,0,0.7,0.1,0.7,0.4
		c-0.3-0.2-0.8-0.3-1.2-0.3c-0.4,0.1-0.9,0.4-1,0.7c-0.2,0.4,0.2,0.4,0.5,0.3c0.7-0.1,1.1-0.7,1.7-0.9c0,0-0.5,0.5-0.4,0.4
		c-0.2,0.2-0.4,0.3-0.5,0.6c0,0.1-0.1,0.3-0.1,0.4c0.1,0.4,0.8,0,0.9-0.1c0.3-0.2,0.5-0.4,0.8-0.5c0.2-0.1,0.6-0.2,0.8-0.1
		c0.1,0,0.2,0.1,0.2,0.2c0-0.1-0.2-0.1-0.3-0.1c-0.2-0.1-0.5-0.1-0.7-0.1c-0.1,0-0.3,0.2-0.4,0.3c-0.1,0.2-0.1,0.6-0.1,0.8
		c0,0.2,0,0.4-0.1,0.6c-0.1,0.2-0.4,0.2-0.6,0.2c-0.2-0.1-0.3-0.2-0.4-0.4c0,0,0-0.2-0.1-0.2 M197.9,83c0.6,0.4,1.2,0.7,1.8,0.9
		c0,0,0,0,0,0"/>
</g>
</svg>
