<?xml version="1.0" encoding="utf-8"?>
<!-- Generator: Adobe Illustrator 16.0.0, SVG Export Plug-In . SVG Version: 6.00 Build 0)  -->
<!DOCTYPE svg PUBLIC "-//W3C//DTD SVG 1.1//EN" "http://www.w3.org/Graphics/SVG/1.1/DTD/svg11.dtd">
<svg version="1.1" id="Layer_1" xmlns="http://www.w3.org/2000/svg" xmlns:xlink="http://www.w3.org/1999/xlink" x="0px" y="0px"
	 width="285.003px" height="154.254px" viewBox="0 0 285.003 154.254" enable-background="new 0 0 285.003 154.254"
	 xml:space="preserve">
<rect fill="#FFFFFF" stroke="#000000" stroke-miterlimit="10" width="285.003" height="154.254"/>
<g id="Layer_2_1_" display="none">
	<g id="Layer_3" display="inline">
		<rect fill="#FFFFFF" width="738" height="254.969"/>
	</g>
</g>
<g id="Layer_1_1_">
	<g id="Layer_2">
	</g>
	<line fill="none" stroke="#09875D" stroke-width="5" stroke-miterlimit="10" x1="7.729" y1="4.9" x2="7.867" y2="149.557"/>
	<line fill="none" stroke="#09875D" stroke-width="5" stroke-miterlimit="10" x1="280.408" y1="6.467" x2="8.203" y2="7.385"/>
	<line fill="none" stroke="#09875D" stroke-width="5" stroke-miterlimit="10" x1="280.451" y1="146.348" x2="9.037" y2="147.035"/>
	<g>
		<path fill="#0D8256" d="M21.973,16.655h10.062c2.437,0,4.752,0.271,6.944,0.817c2.193,0.545,4.106,1.426,5.74,2.645
			c1.634,1.219,2.931,2.802,3.892,4.751c0.961,1.95,1.44,4.315,1.44,7.095c0,2.466-0.466,4.638-1.397,6.516
			c-0.932,1.877-2.186,3.455-3.762,4.729c-1.576,1.276-3.396,2.244-5.461,2.903c-2.064,0.66-4.229,0.988-6.492,0.988H21.973V16.655z
			 M28.681,40.907h3.482c1.549,0,2.988-0.157,4.322-0.474c1.332-0.314,2.486-0.838,3.461-1.568c0.974-0.731,1.741-1.691,2.301-2.881
			c0.559-1.189,0.838-2.644,0.838-4.364c0-1.49-0.279-2.788-0.838-3.892c-0.56-1.103-1.312-2.014-2.258-2.73
			c-0.947-0.716-2.058-1.254-3.334-1.612c-1.275-0.358-2.615-0.538-4.021-0.538h-3.956v18.059H28.681z"/>
		<path fill="#0D8256" d="M54.523,16.655h6.709V47.1h-6.709V16.655L54.523,16.655z"/>
		<path fill="#0D8256" d="M67.337,16.655H77.4c2.436,0,4.75,0.271,6.943,0.817c2.193,0.545,4.105,1.426,5.74,2.645
			c1.634,1.219,2.931,2.802,3.892,4.751c0.96,1.95,1.44,4.315,1.44,7.095c0,2.466-0.467,4.638-1.397,6.516
			c-0.932,1.877-2.187,3.455-3.762,4.729c-1.577,1.276-3.397,2.244-5.461,2.903c-2.063,0.66-4.229,0.988-6.493,0.988H67.337V16.655z
			 M74.045,40.907h3.483c1.547,0,2.987-0.157,4.32-0.474c1.333-0.314,2.487-0.838,3.461-1.568c0.975-0.731,1.742-1.691,2.301-2.881
			c0.56-1.189,0.838-2.644,0.838-4.364c0-1.49-0.278-2.788-0.838-3.892c-0.559-1.103-1.312-2.014-2.258-2.73
			c-0.945-0.716-2.057-1.254-3.333-1.612c-1.276-0.358-2.616-0.538-4.021-0.538h-3.957v18.059H74.045z"/>
		<path fill="#0D8256" d="M115.023,24.094c-0.545-0.688-1.283-1.197-2.214-1.527c-0.933-0.329-1.813-0.494-2.646-0.494
			c-0.487,0-0.988,0.058-1.504,0.172c-0.517,0.115-1.004,0.294-1.463,0.538c-0.457,0.244-0.832,0.566-1.117,0.967
			c-0.287,0.402-0.43,0.889-0.43,1.462c0,0.918,0.344,1.62,1.031,2.107c0.688,0.488,1.555,0.903,2.602,1.247
			c1.045,0.344,2.172,0.688,3.375,1.032c1.203,0.344,2.328,0.832,3.375,1.462c1.047,0.631,1.914,1.477,2.602,2.537
			c0.688,1.061,1.031,2.48,1.031,4.256c0,1.692-0.315,3.168-0.945,4.43c-0.631,1.262-1.484,2.308-2.559,3.139
			c-1.075,0.832-2.322,1.448-3.741,1.85c-1.419,0.4-2.917,0.602-4.494,0.602c-1.978,0-3.813-0.301-5.504-0.902
			c-1.692-0.603-3.269-1.576-4.729-2.925l4.772-5.246c0.688,0.917,1.555,1.627,2.603,2.128c1.045,0.502,2.127,0.752,3.246,0.752
			c0.545,0,1.098-0.063,1.655-0.193c0.56-0.129,1.062-0.322,1.505-0.58s0.803-0.588,1.075-0.989s0.409-0.874,0.409-1.419
			c0-0.917-0.352-1.641-1.055-2.171s-1.584-0.981-2.645-1.354c-1.061-0.372-2.208-0.745-3.439-1.118
			c-1.234-0.372-2.379-0.874-3.44-1.505c-1.062-0.63-1.942-1.462-2.646-2.494c-0.703-1.032-1.053-2.393-1.053-4.085
			c0-1.634,0.322-3.067,0.967-4.3c0.645-1.232,1.506-2.264,2.58-3.096c1.075-0.831,2.314-1.455,3.721-1.871
			c1.403-0.415,2.852-0.623,4.342-0.623c1.721,0,3.383,0.244,4.988,0.731c1.605,0.488,3.053,1.305,4.344,2.451L115.023,24.094z"/>
		<path fill="#0D8256" d="M124.656,16.655h11.352c1.318,0,2.645,0.093,3.977,0.279c1.334,0.187,2.53,0.559,3.592,1.118
			c1.06,0.559,1.92,1.34,2.58,2.343c0.658,1.004,0.988,2.337,0.988,3.999c0,1.72-0.48,3.146-1.439,4.279
			c-0.961,1.133-2.229,1.942-3.807,2.429v0.086c1.004,0.144,1.914,0.423,2.73,0.839s1.52,0.946,2.107,1.591
			c0.586,0.645,1.039,1.397,1.354,2.257c0.314,0.859,0.473,1.777,0.473,2.752c0,1.605-0.344,2.946-1.031,4.021
			c-0.688,1.074-1.578,1.941-2.666,2.602c-1.09,0.66-2.315,1.133-3.678,1.419c-1.361,0.287-2.716,0.431-4.062,0.431h-12.471
			L124.656,16.655L124.656,16.655z M131.363,28.824h4.859c0.516,0,1.023-0.057,1.525-0.172c0.502-0.114,0.953-0.301,1.354-0.559
			c0.401-0.258,0.724-0.602,0.968-1.032c0.243-0.43,0.365-0.946,0.365-1.548c0-0.63-0.136-1.154-0.408-1.569
			c-0.273-0.415-0.623-0.738-1.054-0.968c-0.431-0.229-0.918-0.394-1.462-0.495c-0.545-0.1-1.075-0.15-1.592-0.15h-4.557V28.824
			L131.363,28.824z M131.363,41.423h6.021c0.517,0,1.039-0.057,1.569-0.172c0.529-0.114,1.01-0.315,1.439-0.603
			c0.43-0.285,0.781-0.658,1.055-1.117c0.271-0.458,0.407-1.018,0.407-1.678c0-0.715-0.179-1.295-0.538-1.74
			c-0.357-0.444-0.81-0.781-1.354-1.011c-0.545-0.229-1.133-0.387-1.764-0.473s-1.219-0.129-1.763-0.129h-5.073V41.423
			L131.363,41.423z"/>
		<path fill="#0D8256" d="M178.189,35.36c0,1.806-0.273,3.469-0.816,4.988c-0.545,1.521-1.354,2.838-2.43,3.957
			c-1.076,1.117-2.416,1.992-4.021,2.622s-3.455,0.946-5.547,0.946c-2.122,0-3.985-0.316-5.59-0.946
			c-1.605-0.63-2.945-1.505-4.021-2.622c-1.074-1.119-1.885-2.438-2.429-3.957c-0.546-1.519-0.817-3.182-0.817-4.988V16.655h6.708
			v18.447c0,0.946,0.15,1.821,0.451,2.623c0.301,0.803,0.724,1.5,1.269,2.086c0.545,0.588,1.197,1.047,1.957,1.375
			c0.76,0.33,1.584,0.496,2.474,0.496c0.888,0,1.704-0.166,2.45-0.496c0.746-0.328,1.391-0.787,1.936-1.375
			c0.544-0.588,0.969-1.283,1.27-2.086c0.301-0.802,0.451-1.677,0.451-2.623V16.655h6.709L178.189,35.36L178.189,35.36z"/>
		<path fill="#0D8256" d="M184.381,16.655h11.782c1.548,0,3.017,0.15,4.408,0.451c1.39,0.301,2.607,0.803,3.654,1.505
			c1.046,0.703,1.877,1.648,2.494,2.838c0.615,1.19,0.924,2.673,0.924,4.45c0,2.15-0.559,3.978-1.677,5.483
			c-1.118,1.505-2.752,2.458-4.901,2.859l7.739,12.856h-8.041L194.4,34.929h-3.311v12.168h-6.708V16.655L184.381,16.655z
			 M191.089,29.253h3.956c0.602,0,1.239-0.021,1.913-0.064s1.283-0.172,1.828-0.387c0.545-0.215,0.996-0.552,1.354-1.011
			c0.358-0.458,0.538-1.103,0.538-1.935c0-0.774-0.158-1.39-0.473-1.849c-0.316-0.458-0.717-0.81-1.205-1.054
			c-0.487-0.243-1.045-0.409-1.676-0.495s-1.248-0.129-1.85-0.129h-4.386L191.089,29.253L191.089,29.253z"/>
		<path fill="#0D8256" d="M218.953,34.113l-11.438-17.458h8.342l6.45,11.395l6.837-11.395h7.955l-11.438,17.458V47.1h-6.709V34.113
			L218.953,34.113z"/>
		<path fill="#0D8256" d="M21.973,61.655h11.353c1.317,0,2.644,0.093,3.977,0.278c1.333,0.188,2.529,0.56,3.591,1.118
			c1.06,0.56,1.921,1.341,2.58,2.343c0.659,1.004,0.989,2.338,0.989,4c0,1.72-0.48,3.146-1.439,4.278
			c-0.962,1.134-2.23,1.942-3.807,2.429v0.086c1.003,0.145,1.914,0.424,2.73,0.84s1.519,0.945,2.106,1.591
			c0.587,0.646,1.039,1.397,1.354,2.257c0.314,0.859,0.473,1.777,0.473,2.752c0,1.605-0.344,2.946-1.032,4.021
			c-0.688,1.074-1.577,1.94-2.666,2.602c-1.09,0.66-2.315,1.133-3.677,1.419c-1.362,0.287-2.717,0.431-4.062,0.431H21.972
			L21.973,61.655L21.973,61.655z M28.681,73.824h4.859c0.516,0,1.023-0.057,1.525-0.172c0.502-0.114,0.953-0.301,1.354-0.56
			c0.401-0.258,0.724-0.602,0.968-1.032c0.243-0.43,0.365-0.945,0.365-1.547c0-0.631-0.137-1.154-0.409-1.57
			c-0.272-0.414-0.623-0.737-1.054-0.967c-0.43-0.229-0.918-0.395-1.461-0.496c-0.545-0.1-1.075-0.149-1.592-0.149H28.68
			L28.681,73.824L28.681,73.824z M28.681,86.423h6.02c0.517,0,1.039-0.057,1.569-0.172c0.53-0.114,1.011-0.315,1.44-0.603
			c0.43-0.285,0.781-0.658,1.054-1.117c0.272-0.458,0.408-1.018,0.408-1.678c0-0.715-0.179-1.295-0.538-1.74
			c-0.357-0.444-0.811-0.781-1.354-1.012c-0.545-0.229-1.133-0.387-1.764-0.473S34.298,79.5,33.754,79.5H28.68L28.681,86.423
			L28.681,86.423z"/>
		<path fill="#0D8256" d="M50.095,61.655h20.684v6.192H56.803v5.676h13.201v6.191H56.803v6.192h14.749V92.1H50.095V61.655z"/>
		<path fill="#0D8256" d="M77.184,61.655h20.683v6.192H83.892v5.676h13.201v6.191H83.892v6.192h14.749V92.1H77.184V61.655z"/>
		<path fill="#0D8256" d="M104.015,61.655h11.782c1.548,0,3.017,0.149,4.407,0.45c1.391,0.302,2.608,0.804,3.656,1.506
			c1.045,0.703,1.877,1.647,2.493,2.838c0.616,1.189,0.925,2.673,0.925,4.449c0,2.15-0.56,3.979-1.678,5.483
			c-1.117,1.505-2.752,2.458-4.902,2.859l7.74,12.856h-8.041l-6.363-12.168h-3.312v12.168h-6.708V61.655z M110.723,74.253h3.956
			c0.602,0,1.24-0.021,1.914-0.063c0.673-0.043,1.283-0.172,1.828-0.388c0.544-0.215,0.996-0.552,1.354-1.011
			c0.358-0.458,0.538-1.104,0.538-1.936c0-0.773-0.157-1.39-0.473-1.849c-0.315-0.458-0.718-0.81-1.204-1.054
			c-0.488-0.243-1.046-0.409-1.678-0.495c-0.631-0.086-1.246-0.129-1.848-0.129h-4.387L110.723,74.253L110.723,74.253z"/>
		<path fill="#0D8256" d="M22.231,106.654h20.424v6.191H28.939v6.191h12.686v6.189H28.939v11.869h-6.708V106.654z"/>
		<path fill="#0D8256" d="M47.729,106.654h20.683v6.191H54.437v5.676h13.201v6.191H54.437v6.191h14.749v6.191H47.729V106.654
			L47.729,106.654z"/>
		<path fill="#0D8256" d="M89.611,114.094c-0.545-0.688-1.283-1.197-2.213-1.527c-0.933-0.326-1.814-0.492-2.646-0.492
			c-0.488,0-0.989,0.059-1.506,0.172c-0.516,0.113-1.004,0.295-1.461,0.538c-0.459,0.241-0.832,0.565-1.119,0.968
			c-0.286,0.4-0.43,0.891-0.43,1.461c0,0.918,0.344,1.621,1.032,2.105c0.688,0.488,1.556,0.904,2.601,1.248
			c1.047,0.346,2.172,0.688,3.375,1.031c1.205,0.344,2.33,0.832,3.377,1.463c1.045,0.631,1.912,1.479,2.601,2.537
			c0.688,1.062,1.032,2.479,1.032,4.256c0,1.691-0.316,3.168-0.946,4.432c-0.631,1.262-1.483,2.307-2.56,3.139
			c-1.074,0.832-2.321,1.447-3.74,1.85c-1.419,0.401-2.917,0.604-4.494,0.604c-1.979,0-3.812-0.301-5.504-0.902
			c-1.691-0.604-3.268-1.576-4.73-2.926l4.773-5.244c0.688,0.916,1.555,1.627,2.602,2.127c1.047,0.502,2.129,0.754,3.248,0.754
			c0.543,0,1.096-0.063,1.654-0.192c0.559-0.131,1.061-0.323,1.505-0.581c0.444-0.26,0.802-0.587,1.075-0.988
			c0.273-0.4,0.409-0.875,0.409-1.42c0-0.916-0.353-1.642-1.054-2.171c-0.703-0.53-1.584-0.979-2.646-1.354
			c-1.062-0.373-2.208-0.746-3.44-1.119c-1.232-0.37-2.379-0.873-3.439-1.504s-1.941-1.463-2.645-2.494
			c-0.703-1.03-1.054-2.394-1.054-4.086c0-1.633,0.322-3.065,0.968-4.299c0.645-1.232,1.504-2.265,2.58-3.097
			c1.074-0.832,2.313-1.455,3.719-1.871c1.404-0.415,2.853-0.622,4.344-0.622c1.72,0,3.382,0.243,4.988,0.729
			c1.604,0.487,3.053,1.305,4.342,2.45L89.611,114.094z"/>
		<path fill="#0D8256" d="M105.133,112.589h-8.687v-5.935h24.08v5.935h-8.686V137.1h-6.708V112.589z"/>
		<path fill="#0D8256" d="M123.838,106.654h6.708v30.443h-6.708V106.654z"/>
		<path fill="#0D8256" d="M133.641,106.654h7.654l7.524,19.951h0.086l7.654-19.951h7.182l-12.557,30.443h-5.375L133.641,106.654z"/>
		<path fill="#0D8256" d="M174.277,106.654h5.547l13.244,30.443H185.5l-2.623-6.449h-11.824l-2.537,6.449h-7.396L174.277,106.654z
			 M176.857,115.514l-3.699,9.459h7.439L176.857,115.514z"/>
		<path fill="#0D8256" d="M196.378,106.654h6.708v24.252h12.427v6.191h-19.135V106.654z"/>
	</g>
	<line fill="none" stroke="#09875D" stroke-width="5" stroke-miterlimit="10" x1="247.412" y1="3.979" x2="247.55" y2="148.838"/>
	<line fill="none" stroke="#09875D" stroke-width="5" stroke-miterlimit="10" x1="277.947" y1="6.467" x2="277.947" y2="146.348"/>
	<rect x="247.48" y="14.155" fill="none" width="30.486" height="18.5"/>
	<text transform="matrix(1 0 0 1 255.6206 32.2988)" fill="#0D8256" font-family="'Avenir-Black'" font-size="24">2</text>
	<rect x="247.514" y="50.527" fill="none" width="30.487" height="18.5"/>
	<text transform="matrix(1 0 0 1 255.6538 68.6719)" fill="#0D8256" font-family="'Avenir-Black'" font-size="24">0</text>
	<rect x="247.514" y="85.527" fill="none" width="30.487" height="18.5"/>
	<text transform="matrix(1 0 0 1 255.6538 103.6719)" fill="#0D8256" font-family="'Avenir-Black'" font-size="24">1</text>
	<rect x="247.514" y="119.777" fill="none" width="30.487" height="18.5"/>
	<text transform="matrix(1 0 0 1 255.6538 137.9219)" fill="#0D8256" font-family="'Avenir-Black'" font-size="24">8</text>
	<line fill="none" stroke="#09875D" stroke-width="5" stroke-miterlimit="10" x1="247.846" y1="41.557" x2="277.512" y2="41.557"/>
	<line fill="none" stroke="#09875D" stroke-width="5" stroke-miterlimit="10" x1="247.925" y1="77.336" x2="277.592" y2="77.336"/>
	
		<line fill="none" stroke="#09875D" stroke-width="5" stroke-miterlimit="10" x1="247.925" y1="111.496" x2="277.592" y2="111.496"/>
</g>
</svg>
