<?xml version="1.0" encoding="utf-8"?>
<!-- Generator: Adobe Illustrator 24.3.0, SVG Export Plug-In . SVG Version: 6.00 Build 0)  -->
<svg version="1.1" id="Layer_1" xmlns="http://www.w3.org/2000/svg" xmlns:xlink="http://www.w3.org/1999/xlink" x="0px" y="0px"
	 viewBox="0 0 841.89 129.98" style="enable-background:new 0 0 841.89 129.98;" xml:space="preserve">
<style type="text/css">
	.st0{fill:none;}
	.st1{fill:#099A67;}
	.st2{fill:#0F206C;}
	.st3{fill:#FFFFFF;}
	.st4{fill:#FFFFFF;stroke:#099A67;stroke-linecap:round;stroke-linejoin:round;stroke-miterlimit:10;}
	.st5{fill:#A0C7AF;}
	.st6{fill:#FFFFFF;stroke:#099A67;stroke-width:0.4255;stroke-miterlimit:10;}
	.st7{fill:none;stroke:#099A67;stroke-linecap:round;stroke-linejoin:round;stroke-miterlimit:10;}
	.st8{fill:#FFFFFF;stroke:#099A67;stroke-miterlimit:10;}
	.st9{fill:none;stroke:#099A67;stroke-miterlimit:10;}
	.st10{fill:url(#SVGID_2_);}
	.st11{font-family:'Montserrat-Bold';}
	.st12{font-size:11.0118px;}
</style>
<pattern  y="129.98" width="5.67" height="5.67" patternUnits="userSpaceOnUse" id="SVGID_1_" viewBox="1.3 -6.97 5.67 5.67" style="overflow:visible;">
	<g>
		<rect x="1.3" y="-6.97" class="st0" width="5.67" height="5.67"/>
		<g>
			<rect x="1.3" y="-6.97" class="st0" width="5.67" height="5.67"/>
			<circle class="st1" cx="6.97" cy="-6.97" r="1.3"/>
			<circle class="st1" cx="1.3" cy="-6.97" r="1.3"/>
			<circle class="st1" cx="4.14" cy="-4.13" r="1.3"/>
			<circle class="st1" cx="6.97" cy="-1.3" r="1.3"/>
			<circle class="st1" cx="1.3" cy="-1.3" r="1.3"/>
		</g>
	</g>
</pattern>
<path class="st2" d="M181.83,33.26c2.48,1.29,4.41,3.1,5.79,5.43c1.38,2.33,2.07,5.01,2.07,8.03s-0.7,5.71-2.09,8.05
	c-1.39,2.35-3.36,4.17-5.9,5.46s-5.45,1.94-8.73,1.94h-12.98V31.33h13.29C176.5,31.33,179.35,31.97,181.83,33.26z M177.63,54.56
	c1.2-0.73,2.14-1.77,2.82-3.12c0.67-1.35,1.01-2.89,1.01-4.62c0-1.76-0.36-3.31-1.08-4.66s-1.71-2.4-2.97-3.15s-2.7-1.12-4.31-1.12
	h-5.06v17.78h5.46C175.05,55.66,176.43,55.29,177.63,54.56z"/>
<path class="st2" d="M201.59,28.58c0.78,0.78,1.17,1.78,1.17,3.01c0,1.2-0.39,2.2-1.17,2.99s-1.77,1.19-2.97,1.19
	s-2.19-0.4-2.97-1.19c-0.78-0.79-1.17-1.79-1.17-2.99c0-1.23,0.39-2.24,1.17-3.01c0.78-0.78,1.77-1.17,2.97-1.17
	C199.82,27.41,200.81,27.8,201.59,28.58z M194.79,38.37h7.79v23.8h-7.79V38.37z"/>
<path class="st2" d="M233.68,29.52v32.65h-7.83v-3.08c-0.82,1.12-1.83,1.96-3.01,2.53s-2.53,0.86-4.03,0.86
	c-2.2,0-4.14-0.51-5.81-1.54c-1.67-1.03-2.97-2.47-3.89-4.33s-1.39-4.01-1.39-6.45c0-2.41,0.45-4.52,1.36-6.34s2.19-3.23,3.83-4.22
	c1.64-1,3.55-1.5,5.72-1.5c1.52,0,2.9,0.29,4.11,0.88c1.22,0.59,2.25,1.42,3.1,2.51V29.52H233.68z M224.44,54.67
	c0.94-1.1,1.41-2.53,1.41-4.29c0-1.79-0.47-3.23-1.41-4.31s-2.17-1.63-3.7-1.63s-2.77,0.55-3.72,1.65c-0.95,1.1-1.43,2.53-1.43,4.29
	s0.48,3.19,1.43,4.29c0.95,1.1,2.19,1.65,3.72,1.65S223.5,55.77,224.44,54.67z"/>
<path class="st2" d="M249.3,43.47c-0.68,0-1.22,0.13-1.63,0.37c-0.41,0.25-0.62,0.62-0.62,1.12c0,0.53,0.32,0.95,0.97,1.28
	c0.64,0.32,1.67,0.67,3.08,1.06c1.7,0.5,3.12,0.99,4.25,1.47s2.1,1.22,2.93,2.2c0.82,0.98,1.23,2.27,1.23,3.85
	c0,2.41-0.93,4.29-2.79,5.65c-1.86,1.36-4.29,2.05-7.28,2.05c-2.02,0-3.96-0.29-5.81-0.86c-1.85-0.57-3.49-1.42-4.93-2.53l2.46-5.06
	c1.35,0.94,2.76,1.67,4.25,2.18c1.48,0.51,2.88,0.77,4.2,0.77c0.76,0,1.37-0.12,1.83-0.37c0.45-0.25,0.68-0.61,0.68-1.08
	c0-0.59-0.33-1.04-0.99-1.36s-1.69-0.67-3.1-1.06c-1.67-0.5-3.05-0.99-4.14-1.47s-2.03-1.21-2.84-2.18s-1.21-2.23-1.21-3.78
	c0-2.41,0.91-4.29,2.73-5.65c1.82-1.36,4.16-2.05,7.04-2.05c1.73,0,3.44,0.24,5.13,0.7c1.69,0.47,3.28,1.16,4.77,2.07l-2.64,5.1
	C253.79,44.28,251.27,43.47,249.3,43.47z"/>
<path class="st2" d="M284.81,39.62c1.67,1.01,2.97,2.45,3.89,4.31s1.39,4.01,1.39,6.45c0,2.41-0.45,4.52-1.34,6.34
	c-0.9,1.82-2.17,3.23-3.83,4.22c-1.66,1-3.57,1.5-5.74,1.5c-1.5,0-2.85-0.29-4.07-0.86s-2.25-1.4-3.1-2.49v3.08h-7.83V29.52h7.83
	v11.92c1.73-2.23,4.06-3.34,7-3.34C281.2,38.1,283.14,38.61,284.81,39.62z M280.79,54.47c0.95-1.08,1.43-2.51,1.43-4.27
	s-0.48-3.19-1.43-4.29c-0.95-1.1-2.19-1.65-3.72-1.65c-1.5,0-2.71,0.55-3.65,1.65c-0.94,1.1-1.41,2.53-1.41,4.29
	s0.47,3.18,1.41,4.27s2.16,1.63,3.65,1.63C278.59,56.1,279.83,55.56,280.79,54.47z"/>
<path class="st2" d="M318.47,38.37v23.8h-7.83V58.3c-1.61,2.76-4.15,4.17-7.61,4.22c-2.58,0-4.64-0.83-6.18-2.49
	s-2.31-3.86-2.31-6.62V38.37h7.83v12.8c0,1.35,0.34,2.41,1.03,3.17s1.62,1.14,2.79,1.14c1.38-0.03,2.46-0.53,3.26-1.52
	c0.79-0.98,1.19-2.27,1.19-3.85V38.37H318.47z"/>
<path class="st2" d="M336.58,39.16c1.3-0.73,2.79-1.1,4.47-1.1v7.17c-0.26-0.03-0.66-0.04-1.19-0.04c-1.85,0-3.34,0.43-4.49,1.3
	s-1.8,2.05-1.98,3.54v12.14h-7.83v-23.8h7.83v3.96C334.21,40.95,335.27,39.89,336.58,39.16z"/>
<path class="st2" d="M356.53,69.45c-1.53,1.07-3.42,1.61-5.68,1.61c-1.32,0-2.55-0.2-3.7-0.59c-1.14-0.4-2.26-1.02-3.34-1.87
	l3.26-5.41c0.56,0.47,1.08,0.81,1.58,1.01s1.03,0.31,1.58,0.31c1.29,0,2.24-0.6,2.86-1.8l0.57-1.1l-9.86-23.23h8.05l5.68,15.49
	l5.06-15.49h7.79l-10.2,26.12C359.27,66.73,358.06,68.38,356.53,69.45z"/>
<path class="st2" d="M405.7,32.27c1.72,0.63,3.04,1.53,3.98,2.71c0.94,1.17,1.41,2.55,1.41,4.14c0,1.61-0.48,3.02-1.43,4.22
	c-0.95,1.2-2.25,2.02-3.89,2.46c1.97,0.38,3.51,1.28,4.64,2.68c1.13,1.41,1.69,3.11,1.69,5.1c0,1.73-0.48,3.25-1.45,4.55
	c-0.97,1.31-2.35,2.3-4.14,2.99c-1.79,0.69-3.89,1.03-6.29,1.03H385V31.33h14.65C401.97,31.33,403.98,31.64,405.7,32.27z
	 M401.85,42.79c0.64-0.54,0.97-1.3,0.97-2.27c0-0.94-0.32-1.66-0.97-2.18c-0.65-0.51-1.53-0.75-2.64-0.73h-6.16v5.98h6.16
	C400.32,43.6,401.2,43.33,401.85,42.79z M402.55,55.04c0.82-0.59,1.23-1.41,1.23-2.46c0-0.97-0.41-1.74-1.23-2.31
	s-1.94-0.84-3.34-0.81h-6.16v6.47h6.16C400.62,55.92,401.73,55.63,402.55,55.04z"/>
<path class="st2" d="M437.01,41.54c2.08,2.29,3.12,5.43,3.12,9.42c0,0.62-0.02,1.08-0.04,1.41h-16.54c0.38,1.35,1.04,2.38,1.98,3.1
	c0.94,0.72,2.08,1.08,3.43,1.08c1.03,0,2.02-0.21,2.97-0.62s1.82-1.01,2.62-1.8l4.09,4.09c-1.23,1.38-2.72,2.43-4.47,3.15
	c-1.74,0.72-3.72,1.08-5.92,1.08c-2.55,0-4.78-0.5-6.69-1.5s-3.37-2.4-4.38-4.22s-1.52-3.93-1.52-6.34c0-2.43,0.51-4.58,1.54-6.45
	c1.03-1.86,2.48-3.3,4.36-4.31c1.88-1.01,4.05-1.52,6.51-1.52C431.95,38.1,434.92,39.25,437.01,41.54z M432.52,48.18
	c0-1.38-0.4-2.49-1.21-3.32c-0.81-0.84-1.87-1.25-3.19-1.25c-1.23,0-2.27,0.41-3.1,1.23s-1.39,1.94-1.65,3.34H432.52z"/>
<path class="st2" d="M464.64,41.54c2.08,2.29,3.12,5.43,3.12,9.42c0,0.62-0.01,1.08-0.04,1.41h-16.54c0.38,1.35,1.04,2.38,1.98,3.1
	c0.94,0.72,2.08,1.08,3.43,1.08c1.03,0,2.02-0.21,2.97-0.62s1.83-1.01,2.62-1.8l4.09,4.09c-1.23,1.38-2.72,2.43-4.47,3.15
	s-3.72,1.08-5.92,1.08c-2.55,0-4.78-0.5-6.69-1.5s-3.37-2.4-4.38-4.22s-1.52-3.93-1.52-6.34c0-2.43,0.51-4.58,1.54-6.45
	c1.03-1.86,2.48-3.3,4.36-4.31c1.88-1.01,4.05-1.52,6.51-1.52C459.58,38.1,462.55,39.25,464.64,41.54z M460.15,48.18
	c0-1.38-0.4-2.49-1.21-3.32c-0.81-0.84-1.87-1.25-3.19-1.25c-1.23,0-2.27,0.41-3.1,1.23s-1.39,1.94-1.65,3.34H460.15z"/>
<path class="st2" d="M483.89,39.16c1.31-0.73,2.79-1.1,4.47-1.1v7.17c-0.26-0.03-0.66-0.04-1.19-0.04c-1.85,0-3.34,0.43-4.49,1.3
	c-1.14,0.87-1.8,2.05-1.98,3.54v12.14h-7.83v-23.8h7.83v3.96C481.52,40.95,482.58,39.89,483.89,39.16z"/>
<path class="st2" d="M503.75,31.33h23.06l-0.04,6.42H511.8v6.86h13.82v6.42H511.8v11.13h-8.05V31.33z"/>
<path class="st2" d="M550.96,41.54c2.08,2.29,3.12,5.43,3.12,9.42c0,0.62-0.01,1.08-0.04,1.41H537.5c0.38,1.35,1.04,2.38,1.98,3.1
	c0.94,0.72,2.08,1.08,3.43,1.08c1.03,0,2.02-0.21,2.97-0.62c0.95-0.41,1.83-1.01,2.62-1.8l4.09,4.09c-1.23,1.38-2.72,2.43-4.47,3.15
	s-3.72,1.08-5.92,1.08c-2.55,0-4.78-0.5-6.69-1.5s-3.37-2.4-4.38-4.22s-1.52-3.93-1.52-6.34c0-2.43,0.51-4.58,1.54-6.45
	c1.03-1.86,2.48-3.3,4.36-4.31c1.88-1.01,4.05-1.52,6.51-1.52C545.9,38.1,548.88,39.25,550.96,41.54z M546.48,48.18
	c0-1.38-0.4-2.49-1.21-3.32c-0.81-0.84-1.87-1.25-3.19-1.25c-1.23,0-2.27,0.41-3.1,1.23s-1.39,1.94-1.65,3.34H546.48z"/>
<path class="st2" d="M567.51,43.47c-0.67,0-1.22,0.13-1.63,0.37c-0.41,0.25-0.62,0.62-0.62,1.12c0,0.53,0.32,0.95,0.97,1.28
	c0.64,0.32,1.67,0.67,3.08,1.06c1.7,0.5,3.12,0.99,4.25,1.47s2.1,1.22,2.93,2.2c0.82,0.98,1.23,2.27,1.23,3.85
	c0,2.41-0.93,4.29-2.79,5.65s-4.29,2.05-7.28,2.05c-2.02,0-3.96-0.29-5.81-0.86s-3.49-1.42-4.93-2.53l2.46-5.06
	c1.35,0.94,2.76,1.67,4.25,2.18c1.48,0.51,2.88,0.77,4.2,0.77c0.76,0,1.37-0.12,1.83-0.37c0.45-0.25,0.68-0.61,0.68-1.08
	c0-0.59-0.33-1.04-0.99-1.36s-1.69-0.67-3.1-1.06c-1.67-0.5-3.05-0.99-4.14-1.47s-2.03-1.21-2.84-2.18s-1.21-2.23-1.21-3.78
	c0-2.41,0.91-4.29,2.73-5.65s4.17-2.05,7.04-2.05c1.73,0,3.44,0.24,5.13,0.7c1.69,0.47,3.28,1.16,4.77,2.07l-2.64,5.1
	C572,44.28,569.47,43.47,567.51,43.47z"/>
<path class="st2" d="M598.53,60.94c-0.88,0.5-1.89,0.89-3.04,1.17c-1.14,0.28-2.3,0.42-3.48,0.42c-2.35,0-4.25-0.67-5.7-2.02
	c-1.45-1.35-2.18-3.21-2.18-5.59V44.7h-3.3v-5.19h3.3v-6.6h7.79v6.6h6.16v5.19h-6.16v8.98c0,1.67,0.69,2.51,2.07,2.51
	c0.85,0,1.86-0.26,3.04-0.79L598.53,60.94z"/>
<path class="st2" d="M610.17,28.58c0.78,0.78,1.17,1.78,1.17,3.01c0,1.2-0.39,2.2-1.17,2.99c-0.78,0.79-1.77,1.19-2.97,1.19
	c-1.2,0-2.19-0.4-2.97-1.19s-1.17-1.79-1.17-2.99c0-1.23,0.39-2.24,1.17-3.01s1.77-1.17,2.97-1.17
	C608.4,27.41,609.39,27.8,610.17,28.58z M603.37,38.37h7.79v23.8h-7.79V38.37z"/>
<path class="st2" d="M615.91,38.37h8.05l4.97,16.54l5.02-16.54h7.83l-8.93,23.8h-8.05L615.91,38.37z"/>
<path class="st2" d="M664.48,40.33c1.82,1.51,2.74,3.63,2.77,6.36v15.49h-7.7V59.5c-1.58,2.02-3.98,3.04-7.17,3.04
	c-2.52,0-4.51-0.68-5.96-2.05c-1.45-1.36-2.18-3.16-2.18-5.39c0-2.26,0.79-4.02,2.35-5.28c1.57-1.26,3.82-1.91,6.75-1.94h6.2v-0.26
	c0-1.14-0.39-2.02-1.17-2.64c-0.78-0.62-1.9-0.92-3.37-0.92c-1,0-2.12,0.16-3.37,0.48s-2.5,0.79-3.76,1.41l-2.16-5.28
	c1.94-0.88,3.79-1.53,5.57-1.96c1.77-0.42,3.62-0.64,5.52-0.64C660.11,38.06,662.66,38.82,664.48,40.33z M657.88,56.34
	c0.88-0.57,1.44-1.31,1.67-2.22v-2.07h-4.66c-2.2,0-3.3,0.82-3.3,2.46c0,0.82,0.29,1.47,0.86,1.96c0.57,0.48,1.36,0.73,2.35,0.73
	C655.98,57.2,657,56.91,657.88,56.34z"/>
<path class="st2" d="M673.86,29.52h7.83v32.65h-7.83V29.52z"/>
<path class="st3" d="M367.82,102.17l6.36-16.48h3.56l6.45,16.48h-3.81l-1.18-3.08v0.05h-6.47v-0.05l-1.13,3.08H367.82z
	 M373.71,96.14h4.45l-2.19-6.59L373.71,96.14z"/>
<path class="st3" d="M395.99,85.69v3.06h-4.69v13.42h-3.6V88.75h-4.64v-3.06H395.99z"/>
<path class="st3" d="M413.53,102.17v-6.43h-6.26v6.43h-3.65V85.69h3.65v7.16h6.26v-7.16h3.65v16.48H413.53z"/>
<path class="st3" d="M428.63,85.43c4.71,0,8.55,3.81,8.55,8.5c0,4.68-3.84,8.5-8.55,8.5c-4.73,0-8.57-3.81-8.57-8.5
	C420.06,89.25,423.9,85.43,428.63,85.43z M428.63,99.09c2.71,0,4.94-2.14,4.94-5.16s-2.24-5.16-4.94-5.16
	c-2.73,0-4.97,2.14-4.97,5.16S425.9,99.09,428.63,99.09z"/>
<path class="st3" d="M447.97,101.98l-4.12-9.84l-0.87,10.03h-3.65l1.53-16.48h3.67l4.61,11.09l4.62-11.09h3.67l1.53,16.48h-3.65
	l-0.87-10.03l-4.12,9.84C450.32,101.98,447.97,101.98,447.97,101.98z"/>
<path class="st3" d="M462.15,102.17V85.69h10.95v2.9h-7.3v4.05h6.33v2.9h-6.33v3.74h7.3v2.9h-10.95V102.17z"/>
<ellipse class="st3" cx="767.38" cy="61.95" rx="64" ry="40.48"/>
<path class="st2" d="M744.31,75.38c-0.5,0-0.94,0.64-0.86,1.5h1.72C745.16,75.95,744.83,75.38,744.31,75.38z"/>
<path class="st2" d="M750.11,75.38c-0.5,0-0.94,0.64-0.86,1.5h1.72C750.95,75.95,750.63,75.38,750.11,75.38z"/>
<path class="st2" d="M737.11,75.85c-0.23,0-0.7,0.02-0.88,0.04v2.36c0,0.88,0.33,1.09,1.1,1.09c1.35,0,1.69-0.87,1.69-1.68
	C739.02,76.93,738.68,75.85,737.11,75.85z"/>
<path class="st2" d="M764.85,86.4c-0.48,0-0.84,0.22-1.07,0.66s-0.34,1.03-0.34,1.75s0.11,1.31,0.34,1.75
	c0.23,0.44,0.58,0.66,1.07,0.66c0.48,0,0.84-0.22,1.07-0.66s0.34-1.03,0.34-1.75s-0.11-1.31-0.34-1.75
	C765.69,86.62,765.34,86.4,764.85,86.4z"/>
<path class="st2" d="M771.67,75.38c-0.5,0-0.94,0.64-0.86,1.5h1.72C772.51,75.95,772.19,75.38,771.67,75.38z"/>
<path class="st2" d="M751.09,59.62c0.59-0.55,0.89-1.36,0.89-2.42s-0.3-1.87-0.89-2.44s-1.5-0.85-2.72-0.85h-1.34v6.54h1.52
	C749.66,60.45,750.5,60.17,751.09,59.62z"/>
<path class="st2" d="M771.56,55.95c0.32-0.14,0.49-0.45,0.49-0.93s-0.15-0.79-0.45-0.95c-0.3-0.15-0.8-0.23-1.51-0.23h-1.16v2.32
	h1.14C770.74,56.17,771.23,56.09,771.56,55.95z"/>
<path class="st2" d="M738.67,74.12c0-0.69-0.34-1.48-1.8-1.48c-0.25,0-0.44,0.01-0.64,0.04v2.69c0.27,0.01,0.7,0.02,0.93,0.02
	C738.37,75.39,738.67,74.74,738.67,74.12z"/>
<path class="st2" d="M794.84,56.66c0.3-0.27,0.45-0.69,0.45-1.27s-0.15-0.98-0.46-1.19c-0.31-0.22-0.85-0.32-1.62-0.32h-1.8v3.19
	h1.76C793.99,57.06,794.54,56.93,794.84,56.66z"/>
<path class="st2" d="M772.13,60.28c0.34-0.17,0.52-0.5,0.52-1s-0.18-0.83-0.55-0.99c-0.36-0.16-0.95-0.24-1.75-0.24h-1.42v2.48h1.65
	C771.27,60.54,771.78,60.45,772.13,60.28z"/>
<path class="st2" d="M778.49,86.4c-0.48,0-0.84,0.22-1.07,0.66s-0.34,1.03-0.34,1.75s0.11,1.31,0.34,1.75
	c0.23,0.44,0.58,0.66,1.07,0.66c0.48,0,0.84-0.22,1.07-0.66s0.34-1.03,0.34-1.75s-0.11-1.31-0.34-1.75S778.98,86.4,778.49,86.4z"/>
<path class="st2" d="M733.9,59.62c0.59-0.55,0.89-1.36,0.89-2.42s-0.3-1.87-0.89-2.44s-1.5-0.85-2.72-0.85h-1.34v6.54h1.52
	C732.46,60.45,733.31,60.17,733.9,59.62z"/>
<path class="st2" d="M794.41,78.5c0,0.51,0.24,0.83,0.6,0.83c0.21,0,0.46-0.17,0.81-0.51V77.1C795.25,77.6,794.41,77.52,794.41,78.5
	z"/>
<path class="st2" d="M767.38,17.7c-36.83,0-66.69,19.89-66.69,44.43s29.86,44.43,66.69,44.43s66.69-19.89,66.69-44.43
	C834.06,37.59,804.21,17.7,767.38,17.7z M789.01,51.81h4.08c1.67,0,2.87,0.28,3.58,0.85c0.71,0.56,1.07,1.47,1.07,2.73
	c0,1.72-0.68,2.84-2.05,3.34l2.73,3.85h-2.96l-2.39-3.43h-1.66v3.43h-2.4V51.81z M783.36,59.79c0.4-0.5,0.59-1.18,0.59-2.04v-5.94
	h2.4v6.02c0,1.56-0.43,2.76-1.29,3.59c-0.86,0.84-1.97,1.25-3.31,1.25s-2.45-0.42-3.32-1.26s-1.3-2.04-1.3-3.59V51.8h2.4v5.94
	c0,0.86,0.2,1.54,0.6,2.04c0.4,0.5,0.94,0.75,1.62,0.75C782.43,60.54,782.97,60.29,783.36,59.79z M780.64,43.79l-7.32,2.05
	l-3.33-9.27c0.49-0.06,0.99-0.15,1.48-0.35c0.42-0.17,0.78-0.38,1.13-0.59c0.26-0.15,0.5-0.3,0.74-0.41c0.71-0.32,1.58-0.4,2.5-0.48
	c0.73-0.06,1.51-0.13,2.26-0.34c0.2-0.06,0.4-0.13,0.6-0.21L780.64,43.79z M777.81,29.87l0.47,2.33c-0.69,0.4-1.6,0.48-2.63,0.57
	c-1.04,0.09-2.12,0.18-3.14,0.64c-0.34,0.15-0.65,0.34-0.94,0.51c-0.3,0.18-0.58,0.34-0.85,0.45c-0.43,0.17-0.93,0.23-1.44,0.27
	l-0.78-2.18L777.81,29.87z M770.72,51.81c0.73,0,1.36,0.09,1.89,0.26s0.93,0.41,1.19,0.71c0.48,0.55,0.72,1.18,0.72,1.88
	c0,0.84-0.27,1.47-0.82,1.88c-0.18,0.14-0.31,0.23-0.39,0.27c-0.07,0.04-0.2,0.1-0.39,0.18c0.67,0.14,1.2,0.44,1.59,0.9
	s0.59,1.02,0.59,1.7c0,0.75-0.26,1.41-0.77,1.99c-0.6,0.67-1.63,1-3.11,1h-4.71V51.81H770.72z M757.47,27.53l9.2,2.95l-0.89,2.2
	c-0.8-0.04-1.6-0.48-2.51-0.97c-0.92-0.5-1.87-1.02-2.97-1.19c-0.37-0.06-0.73-0.08-1.07-0.09c-0.34-0.02-0.67-0.03-0.96-0.09
	c-0.45-0.09-0.9-0.32-1.35-0.57L757.47,27.53z M756.44,31.76c0.44,0.22,0.91,0.42,1.43,0.52c0.44,0.09,0.87,0.11,1.27,0.13
	c0.3,0.01,0.58,0.03,0.84,0.07c0.77,0.13,1.53,0.54,2.34,0.98c0.64,0.35,1.33,0.72,2.08,0.96c0.2,0.06,0.41,0.11,0.61,0.16
	l-3.66,9.08l-7.24-2.33L756.44,31.76z M761.45,58.74c-0.27-0.19-0.8-0.38-1.59-0.58c-1.25-0.3-2.17-0.69-2.75-1.16
	c-0.58-0.48-0.87-1.23-0.87-2.25s0.37-1.81,1.1-2.36s1.65-0.83,2.75-0.83c0.72,0,1.44,0.12,2.16,0.37s1.34,0.6,1.88,1.05l-1.22,1.76
	c-0.93-0.71-1.9-1.06-2.89-1.06c-0.4,0-0.72,0.09-0.95,0.28c-0.23,0.19-0.35,0.44-0.35,0.75s0.14,0.56,0.42,0.75
	c0.28,0.18,0.93,0.4,1.96,0.65c1.02,0.25,1.81,0.63,2.38,1.13c0.56,0.5,0.85,1.24,0.85,2.2c0,0.97-0.36,1.75-1.09,2.35
	c-0.72,0.6-1.68,0.9-2.86,0.9c-1.7,0-3.24-0.63-4.6-1.89l1.43-1.75c1.16,1.02,2.23,1.52,3.22,1.52c0.44,0,0.79-0.09,1.04-0.28
	s0.38-0.45,0.38-0.77C761.85,59.19,761.72,58.94,761.45,58.74z M744.64,51.81h3.8c1.92,0,3.39,0.47,4.42,1.41
	c1.03,0.94,1.54,2.25,1.54,3.92s-0.5,3-1.5,3.97c-1,0.98-2.53,1.46-4.58,1.46h-3.68L744.64,51.81L744.64,51.81z M739.43,51.81h2.4
	v10.76h-2.4V51.81z M727.44,51.81h3.8c1.92,0,3.39,0.47,4.42,1.41c1.03,0.94,1.54,2.25,1.54,3.92s-0.5,3-1.5,3.97
	c-1,0.98-2.53,1.46-4.58,1.46h-3.68L727.44,51.81L727.44,51.81z M737.78,79.88h-4.68v-0.47c1.19,0,1.46-0.3,1.46-1.02v-4.5
	c0-0.93-0.13-1.06-1.05-1.06h-0.3v-0.47c0.3-0.01,0.88-0.06,1.52-0.1c0.73-0.04,1.44-0.08,1.96-0.08c1.51,0,2.67,0.21,3.33,0.86
	c0.3,0.3,0.46,0.73,0.46,1.1c0,0.74-0.48,1.2-1.49,1.42v0.02c1.17,0.25,1.91,1.05,1.91,2.03C740.9,78.84,739.77,79.88,737.78,79.88z
	 M746.84,77.35h-3.35c0.1,1,0.77,1.77,1.49,1.77c0.45,0,0.88-0.25,1.48-0.87l0.28,0.23c-0.68,0.96-1.66,1.54-2.59,1.54
	c-1.32,0-2.21-1.02-2.21-2.48c0-1.6,1.08-2.72,2.59-2.72c0.64,0,1.15,0.21,1.52,0.58c0.71,0.71,0.37,1.39,0.8,1.61v0.34H746.84z
	 M752.64,77.35h-3.35c0.1,1,0.77,1.77,1.49,1.77c0.45,0,0.88-0.25,1.48-0.87l0.28,0.23c-0.68,0.96-1.66,1.54-2.59,1.54
	c-1.32,0-2.21-1.02-2.21-2.48c0-1.6,1.08-2.72,2.59-2.72c0.64,0,1.15,0.21,1.52,0.58c0.71,0.71,0.37,1.39,0.8,1.61v0.34H752.64z
	 M753.6,75.86l-0.33-0.13v-0.3l1.98-0.75h0.25v1.35h0.02c0.45-0.87,0.64-1.22,1.05-1.22c0.08,0,0.18,0.01,0.24,0.04l0.96,0.35
	c-0.15,0.51-0.34,0.94-0.58,1.28c-0.38-0.15-0.82-0.3-0.98-0.3c-0.24,0-0.45,0.17-0.71,0.54v1.96c0,0.58,0.18,0.81,0.81,0.81h0.31
	v0.39h-3.36v-0.39h0.08c0.5,0,0.68-0.22,0.68-0.85v-1.97C754.04,76.13,753.97,76.01,753.6,75.86z M760.51,92.47h-5.11v-1.2
	l2.13-2.18c0.43-0.44,0.73-0.78,0.92-1.04c0.18-0.26,0.27-0.51,0.27-0.75s-0.08-0.44-0.24-0.61c-0.16-0.16-0.36-0.24-0.61-0.24
	c-0.46,0-0.89,0.33-1.3,0.97l-1.3-0.77c0.34-0.53,0.71-0.92,1.11-1.19c0.4-0.27,0.92-0.4,1.55-0.4s1.18,0.2,1.65,0.6
	c0.47,0.4,0.71,0.94,0.71,1.62c0,0.37-0.09,0.73-0.29,1.07c-0.19,0.34-0.54,0.78-1.05,1.31l-1.31,1.36h2.86L760.51,92.47
	L760.51,92.47z M767.1,91.53c-0.5,0.68-1.25,1.02-2.25,1.02s-1.75-0.34-2.25-1.02s-0.75-1.59-0.75-2.73c0-1.14,0.25-2.05,0.75-2.73
	s1.25-1.02,2.25-1.02s1.75,0.34,2.25,1.02s0.75,1.59,0.75,2.73S767.6,90.85,767.1,91.53z M768.4,74.06h-0.44
	c-0.05-0.8-0.22-1.04-0.76-1.04h-2.33v2.72h1.68c0.85,0,1.05-0.19,1.05-0.88h0.48v2.41h-0.48c0-0.58-0.19-0.86-0.83-0.86h-1.9v1.95
	c0,0.87,0.16,1.05,0.81,1.05h0.23v0.47h-3.62v-0.47h0.19c0.52,0,0.71-0.17,0.71-0.69v-4.9c0-0.77-0.22-1-0.75-1h-0.16v-0.46h6.11
	v1.7H768.4z M774.29,92.5h-5.11v-1.2l2.13-2.18c0.43-0.44,0.73-0.78,0.92-1.04c0.18-0.26,0.27-0.51,0.27-0.75
	c0-0.24-0.08-0.44-0.24-0.61c-0.16-0.16-0.36-0.24-0.61-0.24c-0.46,0-0.89,0.33-1.3,0.97l-1.3-0.77c0.34-0.53,0.71-0.92,1.12-1.19
	c0.4-0.27,0.92-0.4,1.54-0.4c0.63,0,1.18,0.2,1.65,0.6c0.47,0.4,0.71,0.94,0.71,1.62c0,0.37-0.09,0.73-0.28,1.07
	s-0.54,0.78-1.05,1.31l-1.31,1.36h2.86L774.29,92.5L774.29,92.5z M772.33,79.12c0.45,0,0.88-0.25,1.48-0.87l0.28,0.23
	c-0.68,0.96-1.66,1.54-2.59,1.54c-1.32,0-2.21-1.02-2.21-2.48c0-1.6,1.08-2.72,2.59-2.72c0.64,0,1.15,0.21,1.52,0.58
	c0.71,0.71,0.37,1.39,0.8,1.61v0.35h-3.35C770.94,78.36,771.62,79.12,772.33,79.12z M775.08,78.45h0.39
	c0.21,0.68,0.74,1.04,1.26,1.04c0.34,0,0.63-0.25,0.63-0.56c0-0.83-2.27-1.13-2.27-2.59c0-0.92,0.76-1.54,1.9-1.54
	c0.46,0,0.85,0.07,1.35,0.25l0.02,1.29h-0.39c-0.22-0.67-0.62-1.03-1.14-1.03c-0.31,0-0.56,0.19-0.56,0.46
	c0,0.99,2.38,1.03,2.38,2.69c0,0.9-0.64,1.52-1.57,1.52c-0.83,0-1.11-0.17-1.28-0.17c-0.07,0-0.15,0.05-0.24,0.16h-0.35
	L775.08,78.45z M780.74,91.53c-0.5,0.68-1.25,1.02-2.25,1.02s-1.75-0.34-2.25-1.02s-0.75-1.59-0.75-2.73c0-1.14,0.25-2.05,0.75-2.73
	s1.25-1.02,2.25-1.02s1.75,0.34,2.25,1.02s0.75,1.59,0.75,2.73S781.24,90.85,780.74,91.53z M781.41,80.01
	c-0.82,0-1.37-0.46-1.37-1.5v-2.9h-0.64V75.3c0.73-0.3,1.55-1.19,1.77-1.86h0.35v1.51h1.58l-0.18,0.67h-1.4v2.93
	c0,0.45,0.21,0.64,0.56,0.64c0.29,0,0.57-0.18,0.92-0.61l0.17,0.34C782.8,79.56,782.07,80.01,781.41,80.01z M786.48,79.88h-3.02
	v-0.39h0.13c0.5,0,0.68-0.22,0.68-0.85v-2.32c0-0.31-0.07-0.4-0.41-0.52l-0.4-0.15v-0.29l2.07-0.69h0.22v4.05
	c0,0.5,0.21,0.76,0.74,0.76L786.48,79.88L786.48,79.88z M783.98,72.75c0-0.44,0.46-0.82,0.97-0.82c0.56,0,0.96,0.36,0.96,0.82
	c0,0.48-0.46,0.82-0.96,0.82C784.4,73.58,783.98,73.23,783.98,72.75z M792.82,75.33c-0.63,0.06-0.79,0.22-1.02,0.73l-1.73,3.91
	h-0.73l-1.8-3.88c-0.23-0.5-0.4-0.69-0.93-0.75v-0.39h3.07v0.39h-0.42c-0.25,0-0.36,0.23-0.16,0.68l1.08,2.41l0.94-2.13
	c0.28-0.63,0.13-0.87-0.71-0.96v-0.39h2.41L792.82,75.33L792.82,75.33z M796.7,80c-0.45,0-0.77-0.29-0.85-0.75
	c-0.48,0.47-0.81,0.76-1.49,0.76c-0.86,0-1.4-0.5-1.4-1.27c0-0.39,0.17-0.76,0.37-0.97c0.57-0.57,1.55-0.45,2.49-1.22V76.1
	c0-0.47-0.33-0.81-0.76-0.81c-0.42,0-0.73,0.3-0.63,0.93l-1.35,0.47c-0.11-0.5-0.06-0.85,0.25-1.16c0.41-0.41,1.4-0.73,2-0.73
	c0.59,0,1.97,0.34,1.97,1.48v2.29c0,0.42,0.08,0.56,0.27,0.56c0.1,0,0.16-0.02,0.33-0.15l0.18,0.29C797.7,79.69,797.1,80,796.7,80z
	 M801.38,79.88h-3v-0.39h0.12c0.51,0,0.68-0.23,0.68-0.85v-4.98c0-0.53-0.04-0.63-0.31-0.73l-0.52-0.19v-0.35l2.09-0.61h0.22v6.86
	c0,0.57,0.17,0.85,0.73,0.85L801.38,79.88L801.38,79.88z M807.91,67.47h-81.27v-0.43h81.27V67.47z M804.71,58.32v4.25h-2.4v-4.25
	l-3.73-6.51h2.6l2.32,4l2.32-4h2.6L804.71,58.32z"/>
<g>
	<polyline class="st4" points="58.79,53.96 54.24,67.34 27.92,93.57 94.09,117.15 115.74,86.35 128.14,41.22 78.64,26.17 
		78.36,26.57 	"/>
	<polyline class="st5" points="63.35,54.01 59.9,64.68 112.2,81.2 122.37,44.28 78.67,30.78 	"/>
	<path class="st6" d="M49.73,22.61c1.54-0.22,3.04,0.46,4.5,0.98c1.17,0.42,2.38,0.74,3.61,0.96c0.71,0.13,1.46,0.22,2.15-0.01
		c0.52-0.17,0.96-0.51,1.46-0.75c1.42-0.69,3.1-0.46,4.67-0.29c1.71,0.18,3.43,0.28,5.15,0.28c1.04,0,2.25-0.11,2.85-0.96
		c0.37-0.52,0.42-1.18,0.46-1.82c0.06-0.92,0.11-1.84,0.17-2.77c0.01-0.16,0.02-0.33-0.06-0.47c-0.08-0.14-0.22-0.23-0.36-0.3
		c-0.89-0.49-1.87-0.82-2.87-0.97c-0.91-0.14-2.78-0.61-3.69-0.7c-5.24-0.5-6.11-0.5-12.27,0.17c-1.19,0.13-1.96,0.47-3.13,0.73
		c-0.96,0.21-2.54,0.68-2.97,1.68C48.93,19.48,49.45,21.5,49.73,22.61z"/>
	<g>
		<path class="st5" d="M51.15,37.21l0.01,0.17c0.1,0.03,0.19,0.07,0.28,0.11c0.14,0.06,0.26,0.12,0.39,0.2
			C51.6,37.54,51.37,37.38,51.15,37.21z"/>
		<path class="st5" d="M69.86,24.32c-3.01-0.13-2.63-1.19-4.52-1c-1.88,0.19-3.26,0.88-5.27,1.07c-2.01,0.19-3.58,0.44-5.02-0.5
			c-1.44-0.94-1.76-1.82-5.02-1.32l0.07,0.88c0.15,0.12,0.28,0.25,0.44,0.36c1.24,0.92,2.58,1.71,3.64,2.84
			c0.44,0.47,0.84,1.14,0.59,1.73s-1.01,0.76-1.65,0.72c-0.97-0.06-1.86-0.42-2.65-0.97l0.01,0.16c0.33,0.22,0.67,0.44,1.07,0.63
			c0.68,0.31,1.66,0.45,2.29,0.84c1.27,0.78,2.55,1.55,3.82,2.33c0.44,0.27,0.88,0.54,1.23,0.91s0.61,0.86,0.6,1.37
			c-0.01,0.33-0.14,0.67-0.4,0.87c-0.34,0.27-0.82,0.28-1.25,0.23c-1.69-0.18-3.27-0.92-4.77-1.71c-0.77-0.4-1.55-0.84-2.28-1.32
			l0.02,0.27c0.35,0.26,0.66,0.51,0.83,0.6c1.57,0.78,2.37,0.99,4.3,1.86c0.6,0.27,1.15,0.65,1.68,1.05
			c0.5,0.38,0.96,0.82,1.42,1.27c0.35,0.33,0.7,0.68,0.9,1.11c0.21,0.43,0.24,0.98-0.04,1.37c-0.44,0.61-1.35,0.55-2.07,0.38
			c-1.84-0.44-3.59-1.22-5.23-2.18c-0.18-0.1-0.35-0.22-0.53-0.32c0.35,0.23,0.68,0.49,1.03,0.72c1.1,0.74,2.36,1.19,3.55,1.77
			c0.63,0.31,1.26,0.68,1.68,1.23c0.42,0.56,0.6,1.35,0.28,1.98c-0.43,0.81-2.53,1.02-3.4,0.71c-1.88-0.66-2.68-1.03-3.66-1.86
			l0.75,9.85c0,0,5.33,1.76,9.29,1.57c3.95-0.19,9.29-1.19,10.23-1.57l3.45-29.55C75.26,22.68,72.87,24.44,69.86,24.32z"/>
	</g>
	<path class="st7" d="M51.19,41.95l0.96,9.87c0,0,3.69,2.16,9.66,2.11s10.22-1.48,10.22-1.48l3.8-34.95c0,0-3.7-2.81-12.49-2.67
		c-8.79,0.15-11.06,1.43-13.72,2.47l0.25,6.12"/>
	<path class="st7" d="M75.83,17.78c0,0-4.59,2.42-13.62,2.57s-12.59-2.76-12.59-2.76"/>
	<path class="st8" d="M82.95,45.97c-4.37-7.35-5.64-16.47-3.46-24.74c0.2-0.77,0.44-1.6,0.2-2.36c-0.24-0.79-1.01-1.38-1.83-1.42
		s-2.07,0.49-2.39,1.25l-3.44,33.75"/>
	<polyline class="st9" points="63.35,54.01 59.9,64.68 112.2,81.2 122.37,44.28 78.67,30.78 	"/>
	<path class="st8" d="M107.6,64.45c-1.89-1.08-3.78-2.17-5.54-3.45c-1.64-1.2-3.16-2.56-4.68-3.91c-4.29-3.85-8.49-7.59-12.78-11.44
		c-4.65,1.72-8.97,4.35-12.64,7.68c0,0,3.69,9.16,9.9,18.32l30.33,9.54l3.18-12.28C112.79,67.43,110.19,65.94,107.6,64.45z"/>
	<pattern  id="SVGID_2_" xlink:href="#SVGID_1_" patternTransform="matrix(0.6096 0 0 -0.6096 -6051.1104 -9512.3994)">
	</pattern>
	<path class="st10" d="M107.67,64.02c-1.89-1.08-3.78-2.17-5.54-3.45c-1.64-1.2-3.16-2.56-4.68-3.91
		c-4.29-3.85-8.49-7.59-12.78-11.44c-4.65,1.72-8.97,4.35-12.64,7.68c0,0,3.69,9.16,9.9,18.32l30.33,9.54l3.18-12.28
		C112.86,67,110.26,65.51,107.67,64.02z"/>
	<path class="st7" d="M49.65,22.84c0.98-0.51,2.18-0.33,3.21,0.07s1.97,0.99,3.02,1.33c0.89,0.29,1.84,0.38,2.77,0.27
		c1.65-0.2,3.19-1.02,4.85-1.14c1.87-0.14,3.69,0.63,5.57,0.76c1.94,0.14,3.7-0.18,5.27-1.33"/>
	<line class="st9" x1="53.79" y1="66.94" x2="115.69" y2="86.9"/>
	<g>
		<g>
			<text transform="matrix(1 0 0 1 57.5382 32.6829)" class="st1 st11 st12">2</text>
		</g>
		<g>
			<text transform="matrix(1 0 0 1 60.6471 45.597)" class="st1 st11 st12">2</text>
		</g>
		<g>
			<text transform="matrix(1 0 0 1 62.5304 38.139)" class="st1 st11 st12">0</text>
		</g>
		<g>
			<text transform="matrix(1 0 0 1 64.3648 52.8079)" class="st1 st11 st12">0</text>
		</g>
	</g>
	<path class="st4" d="M47.25,23.06c-0.05,0.57,0.13,1.14,0.36,1.67c0.92,2.15,2.88,4.02,5.22,4.16c0.64,0.04,1.4-0.13,1.65-0.72
		c0.26-0.59-0.15-1.26-0.59-1.73c-1.06-1.13-2.4-1.93-3.64-2.84c-0.64-0.47-1.18-1-1.75-1.54c-0.34-0.31-0.41-0.41-0.78-0.06
		C47.43,22.25,47.28,22.68,47.25,23.06z"/>
	<path class="st4" d="M47.17,27.74c-0.08,0.53,0.14,1.07,0.4,1.54c1.13,1.97,3.18,3.21,5.19,4.26c1.51,0.79,3.08,1.53,4.77,1.71
		c0.43,0.05,0.91,0.04,1.25-0.23c0.26-0.21,0.39-0.54,0.4-0.87c0.01-0.51-0.25-1-0.6-1.37s-0.79-0.64-1.23-0.91
		c-1.27-0.78-2.55-1.55-3.82-2.33c-0.64-0.39-1.62-0.53-2.29-0.84c-0.85-0.39-1.42-0.91-2.23-1.4c-0.33-0.2-0.65-0.58-1.05-0.52
		C47.55,26.83,47.23,27.37,47.17,27.74z"/>
	<path class="st4" d="M48.25,33.62c0.13,0.75,0.55,1.42,1.06,1.99c0.84,0.96,1.9,1.69,3,2.34c1.64,0.96,3.38,1.74,5.23,2.18
		c0.73,0.17,1.64,0.23,2.07-0.38c0.28-0.39,0.25-0.94,0.04-1.37s-0.56-0.78-0.9-1.11c-0.45-0.44-0.91-0.88-1.42-1.27
		c-0.53-0.4-1.08-0.78-1.68-1.05c-1.93-0.88-2.73-1.08-4.3-1.86c-0.48-0.24-1.99-1.67-2.49-1.45
		C48.26,31.91,48.16,33.09,48.25,33.62z"/>
	<path class="st4" d="M48.64,37.87c-0.49,0.78,0.24,2.04,0.51,2.31c2.54,2.5,2.81,2.81,5.76,3.85c0.87,0.31,2.97,0.1,3.4-0.71
		c0.33-0.62,0.15-1.42-0.28-1.98s-1.05-0.92-1.68-1.23c-1.19-0.58-2.45-1.03-3.55-1.77c-0.54-0.37-1.05-0.81-1.66-1.06
		C50.36,36.95,49.37,36.71,48.64,37.87z"/>
</g>
</svg>
