<?xml version="1.0" encoding="utf-8"?>
<!-- Generator: Adobe Illustrator 21.1.0, SVG Export Plug-In . SVG Version: 6.00 Build 0)  -->
<svg version="1.1" id="Layer_1" xmlns="http://www.w3.org/2000/svg" xmlns:xlink="http://www.w3.org/1999/xlink" x="0px" y="0px"
	 viewBox="0 0 640 480" style="enable-background:new 0 0 640 480;" xml:space="preserve">
<style type="text/css">
	.st0{fill:#0D8256;}
</style>
<path class="st0" d="M334.3,226.5h-10v8.6h10.3c3.8,0,6.1-1.4,6.1-4.3v-0.1C340.7,228.1,338.7,226.5,334.3,226.5"/>
<path class="st0" d="M337.3,297.1c0.1-0.1,0.1-0.1,0.2-0.2c0,0,0-0.1,0.1-0.1c0.8-1.1,0.9-1.9,0.6-2.4c0,0,0,0,0,0h0
	c-0.6-0.7-2.1-0.7-3.5,0.1c-2.5,1.3-4.3,4-4.9,6C329.7,300.5,334.6,300.3,337.3,297.1C337.3,297.2,337.3,297.2,337.3,297.1"/>
<path class="st0" d="M266,299.8c0,0,0.2-0.1,0.4-0.2c0.6-0.2,1.1-0.5,1.6-0.8c1.4-0.8,3-2.2,2.7-4c0,0-0.3-1.2-2.4-0.1h0
	c0,0,0,0,0,0c-0.4,0.2-0.8,0.5-1.3,0.9c-0.2,0.1-0.4,0.3-0.6,0.4c-0.1,0.1-0.2,0.2-0.3,0.3v0.1c-1.3,1.2-2.3,2.6-3.4,4.2
	C263.8,300.4,265,300.2,266,299.8L266,299.8L266,299.8z"/>
<path class="st0" d="M250.1,300.3c0,0,0.1,0,0.2-0.1c0.9-0.2,1.7-0.5,2.4-0.8c2-0.9,4.3-2.4,3.6-4.7c0,0-0.4-0.9-2.3,0.1
	c0,0-0.1,0-0.1,0c-0.1,0-0.1,0.1-0.2,0.1c-0.4,0.2-0.8,0.5-1.3,0.8c-0.1,0.1-0.2,0.1-0.3,0.2c0,0-0.1,0.1-0.1,0.1l0,0.1
	c-1.4,1.2-2.6,2.7-3.6,4.5C249,300.5,249.6,300.4,250.1,300.3L250.1,300.3z"/>
<path class="st0" d="M338.6,306.9c0.9,1.4,2.9,1.6,5,0.3c2.5-1.6,3.5-6,2-8.3C343.2,301.6,340.9,304.2,338.6,306.9"/>
<path class="st0" d="M237.4,234.9h6.7c7.1,0,11.8-4.8,11.8-11.7v-0.1c0-7-4.8-11.8-11.8-11.8h-6.7V234.9z"/>
<path class="st0" d="M368,294L368,294c-0.1,0-0.2,0-0.4,0c-1.5,0.1-2.8,0.1-4.1,0.3c-0.5,0.1-1.2,0.5-1.5,0.9c-1.4,2.3-2.7,4.6-4,7
	c-0.7,1.2-1.3,2.4-1.8,3.6c-0.5,1.4,0.1,2.1,1.5,1.7c0.9-0.3,1.8-0.8,2.7-1.3l0,0.1c0,0,0.3-0.2,0.7-0.5c0,0,0,0,0,0
	c0,0,0,0,0.1-0.1c1.2-0.9,3.5-3.1,5.6-7.2C366.8,298.4,368.8,294.3,368,294"/>
<path class="st0" d="M262.7,154.6c1.2,0,2.1-0.3,2.8-1.1c0-5.5,0-12.6,0-18.4c-0.4-1-1-1.3-1.8-1.4c-1.3-0.3-3.6,0-4.6,2.4
	c-1.6,3.9-1.2,11.3-0.6,14.3C259,152.9,261,154.5,262.7,154.6"/>
<path class="st0" d="M423.9,211.2h-8.6v11.3h8.8c4.2,0,6.6-2.2,6.6-5.6v-0.1C430.7,213.1,428.1,211.2,423.9,211.2"/>
<path class="st0" d="M379.2,154.6c1.7-0.1,3.8-1.7,4.3-4.3c0.6-3,1-10.4-0.6-14.3c-1-2.4-3.3-2.7-4.6-2.4c-0.8,0.2-1.4,0.5-1.8,1.4
	c0,5.8,0,12.9,0,18.4C377.1,154.3,378,154.7,379.2,154.6"/>
<path class="st0" d="M405.2,294.6c-0.4-0.4-1.3-0.7-1.9-0.6c-0.7,0.1-1.5,0.5-2.1,1c-2.6,2-4.6,4.6-5.9,7.7
	c-0.1,0.2-0.2,0.5-0.3,0.7c0,0-1.6,3.8,1.4,3.8c0,0,0,0,0.1,0c0,0,0.1,0,0.1,0c0.5,0,2.5-0.3,4.1-2.5c0-0.1,0.1-0.1,0.1-0.1
	c0,0,0.1-0.1,0.1-0.1c0,0,0-0.1,0.1-0.1h0c1.7-2.5,3.2-5.1,4.6-7.8C405.7,296.1,405.5,295,405.2,294.6"/>
<path class="st0" d="M433.8,277.8c-0.1,0.1-0.2,0.1-0.3,0.2c-0.8,0.7-1.4,1.4-1.4,1.4c0,0,0,0,0,0c-1.3,1.4-2.5,2.9-3.6,4.5
	c-2.1,2.8-3.4,5-4,6.1h0c-0.4,0.6-0.5,1-0.5,1c0.3-0.2,0.6-0.3,0.9-0.5v0c0,0,0,0,0,0c6.4-3.2,8.5-6.4,9.4-7.4
	c0.9-1.1,3.1-5,1.7-5.9C435.3,276.9,434.5,277.3,433.8,277.8"/>
<path class="st0" d="M173.5,211.2h-6.7v23.7h6.7c7.1,0,11.8-4.8,11.8-11.7v-0.1C185.3,216.1,180.6,211.2,173.5,211.2"/>
<path class="st0" d="M338.5,215.1V215c0-2.6-2-4-5.7-4h-8.5v8.3h8C336.1,219.3,338.5,218.1,338.5,215.1"/>
<path class="st0" d="M137.8,313.2c4.7-3.6,15.8-12.1,15.5-24.8c0-0.5,1-11.7-10.9-13.4c0,0-1-0.2-2.2-0.2c-3.3,0-7.4,1.2-8.2,7
	c0,0.1-1,4.2,0.8,6.4c0.7,0.9,1.9,1.4,3.3,1.4c0.5,0,1,0,1.6-0.1c0.3-0.7,1.4-2.4,3.4-2.4c1.1,0,2.2,0.5,3.4,1.5
	c1.7,1.4,2,4.6,0.7,8c-1.8,5-7.1,10.9-15.9,10.9c-0.5,0-1,0-1.5-0.1c-10-0.7-14.2-5.4-15.8-8.1c-1.4-2.4-1.8-5-1.1-6.7
	c0-0.1,0.9-3,4.8-3.4c2.2-0.3,3.7-0.9,4.5-2c0.7-1,1-2.3,0.8-4c-0.6-4.4-1.9-6.4-7.9-6.4c-5.6,0-9.5,5.3-9.6,12.9
	c-0.1,8.1,3.7,12.7,4.9,14c0.1,0.1,1.7,2.1,1.2,4c-0.2,1-0.9,1.8-2.1,2.4c-0.7,0.4-1.5,0.5-2.4,0.5c-3.7,0-8.6-3.5-10.8-10.2
	c-0.4-1.2-0.7-2.5-1-3.7c-1.6-6.5-3.2-12.6-15.5-17.2c-0.4,2.5-1.6,12.4,3.3,16.1c0.1,0.1,2.4,2.4,2.1,4.9c-0.2,1.3-1,2.4-2.5,3.3
	c-0.1,0-1,0.5-2.3,0.5c-1.9,0-4.6-0.8-7.2-4.6c-0.1-0.1-2.9-3.2-2.9-11.6l0-1.2c0-8.1,0.1-17.3-16-19.1c-0.5,1.1-2.1,5.1-1.5,9.9
	l0.3,2.5l-1.3-2.2c-0.1-0.1-8.1-13.8-19.1-20.2c-3.7-2.1-7.7-3.3-11.4-3.3c-6.8,0-11.9,3.5-13.9,9.4c0.4,0,0.9-0.1,1.6-0.1
	c4.7,0,16.5,1.3,24.4,13.3c0.1,0.2,11,17.5,23.7,28.2c0.2,0.2,17.1,16.8,41.5,16.8c2.1,0,4.2-0.1,6.2-0.3c0,0,0.8-0.1,1.7-0.1
	c2.6,0,4.2,0.9,4.7,2.6c0.3,0.5,1.1,2.8-3.8,6.8c-0.1,0.1-9.9,8.9-9.3,18.1c0.3,4.2,2.7,7.9,7.3,11c0.3,0.2,1,0.7,1.7,0.7
	c0.2,0,0.4-0.1,0.6-0.2c0.6-0.4,0.3-2.2,0-3.3c-0.1-0.4-1.8-8.5,1.9-16c0.1-0.2,2.5-4.8,11.7-12c0.1-0.1,13.9-12.6,17.9-15.8
	L137.8,313.2z"/>
<path class="st0" d="M129.9,300.5c0.2,0,6-0.3,8.5-4.4c-0.5,0.1-1,0.1-1.6,0.1c-2.6,0-5.1-0.9-7.6-2.8c-1.2-0.8-2.1-2-2.7-3.3
	c-1.1,1.7-3.5,4.2-8.2,5.3C119.3,297.4,122.1,300.5,129.9,300.5"/>
<path class="st0" d="M94.1,232.9h0.5c25.4,0,26.6-25.2,26.6-25.5c0.6-7.3-2.5-15.7-8.2-21.9c-4.5-4.9-12.6-10.8-25.8-10.8H87
	c-5.9,0-11.4,1.3-16.3,3.7l-0.4,0.2c0,0,0,0,0,0c-2.3,1.2-4.6,2.7-6.6,4.4c-7.4,5.8-19.7,18.5-19.7,39.2c0,0.2-1.1,19.8,11.9,39.5
	c0.5,0,1.5-0.1,2.9-0.1c2.8,0,6.8,0.3,10.6,1.6c-2.6-4.5-11.2-20.3-11.2-34.7l0-0.2c0.2-12.9,8-18.3,12.1-18.3c0.2,0,0.3,0,0.4,0
	c0.3,0,0.6,0,0.8,0c4,0,4.5-3.1,4.6-3.2c0.8-4.9-3.2-5.7-3.4-5.7c-0.7-0.1-1.4-0.2-2-0.2c-7.3,0-13,8.3-13.1,8.4l-0.7,1.1l-0.2-1.3
	c-0.7-4.6,0.8-9.7,4.1-14c4.1-5.4,10.6-9.1,17.8-10c1.3-0.2,2.6-0.3,3.8-0.3c6.8,0,10.2,2.6,11.8,4.7c2.1,2.7,2.7,6.4,1.7,10.1
	c-0.7,2.9-0.7,5.1,0.2,6.6c0.7,1.2,1.8,1.4,1.8,1.4l0,0l0.1,0c1.1,0.5,2.1,0.7,3,0.7c4.6,0,6.6-5.4,6.6-5.5l1.3-3.7l-0.4,3.9
	c-0.8,8.7-7,10.9-9.3,11.7l-0.1,0c-0.5,0.2-1.1,0.3-1.8,0.3c-2.6,0-6.1-1.5-7.1-5.8c-0.5-2-2.5-3.5-4.6-3.5c-1.2,0-2.2,0.5-3.1,1.4
	c-1.2,1.3-2.6,4-2.4,9.8C81.1,231.7,93.6,232.9,94.1,232.9"/>
<path class="st0" d="M90.1,200.6c0.1-0.9,0.3-2,0.5-3.4c0.3-1.8,0-3.3-0.9-4.3c-1.8-2.1-5.5-2.2-6.7-2.2c-0.4,0-0.6,0-0.6,0
	c-5.9,0.2-10.1,2.1-12.9,4.1c0.3,0,0.5,0,0.8,0c1.4,0,2.9,0.2,4.4,0.7c4.3,1.3,6.2,3.7,7,5.7c1.4-0.8,3-1.2,4.6-1.2
	C87.8,199.9,89.1,200.2,90.1,200.6"/>
<path class="st0" d="M511.2,293.5c-2.5,1.8-5.1,2.8-7.6,2.8c-0.6,0-1.1,0-1.6-0.1c2.4,4.1,8.2,4.4,8.5,4.4c7.8,0,10.7-3,11.7-5
	c-4.7-1.1-7.1-3.6-8.2-5.3C513.2,291.5,512.3,292.6,511.2,293.5"/>
<path class="st0" d="M621.1,254.6c-3.8,0-7.8,1.1-11.4,3.3c-11,6.4-19.1,20.1-19.2,20.2l-1.3,2.2l0.3-2.5c0.6-4.9-1-8.8-1.5-9.9
	c-16.1,1.7-16,10.9-16,19.1l0,1.2c0,8.4-2.8,11.5-2.9,11.6c-2.6,3.8-5.4,4.6-7.2,4.6c-1.3,0-2.2-0.4-2.3-0.5c-1.5-0.9-2.3-2-2.5-3.3
	c-0.3-2.5,1.9-4.8,2.1-4.9c4.9-3.7,3.7-13.5,3.3-16.1c-12.3,4.6-13.8,10.7-15.5,17.2c-0.3,1.2-0.6,2.4-1,3.7
	c-2.1,6.7-7,10.2-10.7,10.2c-0.9,0-1.7-0.2-2.4-0.5c-1.2-0.6-1.9-1.4-2.1-2.4c-0.4-2,1.1-3.9,1.2-4c1.2-1.2,5-5.8,4.9-14
	c-0.1-7.6-4-12.9-9.6-12.9c-6,0-7.3,2.1-7.9,6.4c-0.2,1.7,0,3.1,0.8,4c0.8,1.1,2.3,1.7,4.5,2c3.9,0.5,4.8,3.4,4.8,3.4
	c0.8,1.7,0.4,4.3-1.1,6.7c-1.6,2.7-5.8,7.3-15.8,8.1c-0.5,0-1,0.1-1.5,0.1c-8.8,0-14.1-5.9-15.9-10.9c-1.3-3.4-1-6.5,0.7-8
	c1.2-1,2.3-1.5,3.4-1.5c2,0,3.1,1.7,3.4,2.4c0.6,0.1,1.1,0.1,1.6,0.1c1.5,0,2.6-0.5,3.3-1.4c1.7-2.2,0.8-6.3,0.8-6.4
	c-0.8-5.8-4.9-7-8.2-7c-1.3,0-2.2,0.2-2.2,0.2c-12,1.7-11,12.8-10.9,13.4c-0.3,12.7,10.7,21.2,15.5,24.8l0.7,0.6
	c4,3.1,17.8,15.6,17.9,15.8c9.2,7.2,11.6,11.8,11.7,12c3.7,7.5,2,15.6,1.9,16c-0.4,1.1-0.6,2.9,0,3.3c0.2,0.1,0.3,0.2,0.6,0.2
	c0.7,0,1.4-0.5,1.7-0.7c4.5-3.1,7-6.8,7.3-11c0.6-9.2-9.2-18-9.3-18.1c-4.9-4-4.1-6.3-3.8-6.8c0.5-1.7,2.1-2.6,4.7-2.6
	c1,0,1.7,0.1,1.7,0.1c2.1,0.2,4.2,0.3,6.2,0.3c24.4,0,41.3-16.5,41.5-16.8c12.7-10.7,23.6-28,23.7-28.2c7.9-12,19.7-13.3,24.4-13.3
	c0.6,0,1.2,0,1.6,0.1C633,258.1,627.8,254.6,621.1,254.6"/>
<path class="st0" d="M570.8,194.8c-2.8-2-6.9-3.9-12.9-4.1c0,0-0.3,0-0.6,0c-1.1,0-4.9,0.2-6.6,2.2c-0.9,1-1.2,2.5-0.9,4.3
	c0.3,1.4,0.4,2.5,0.5,3.4c1.1-0.4,2.3-0.7,3.7-0.7c1.7,0,3.2,0.4,4.6,1.2c0.9-2,2.8-4.4,7-5.7c1.5-0.4,2.9-0.7,4.4-0.7
	C570.2,194.7,570.5,194.7,570.8,194.8"/>
<path class="st0" d="M576.7,183.1c-2.1-1.7-4.3-3.2-6.6-4.4c0,0,0,0,0,0l-0.4-0.2c-4.9-2.4-10.4-3.7-16.4-3.7h-0.2
	c-13.2,0-21.3,5.9-25.8,10.8c-5.7,6.2-8.8,14.6-8.2,21.9c0,0.3,1.3,25.5,26.6,25.5h0.5c0.5,0,13-1.2,13.7-15.8
	c0.3-5.8-1.1-8.6-2.3-9.8c-0.9-0.9-1.9-1.4-3.1-1.4c-2.1,0-4.1,1.5-4.5,3.5c-1,4.3-4.5,5.8-7.1,5.8c-0.6,0-1.3-0.1-1.8-0.3l-0.1,0
	c-2.3-0.8-8.5-3-9.3-11.7l-0.3-3.9l1.3,3.7c0,0.1,2,5.5,6.6,5.5c1,0,2-0.2,3-0.7l0.1,0l0.1,0c0,0,1.1-0.2,1.8-1.4
	c0.9-1.4,1-3.7,0.2-6.6c-1-3.8-0.3-7.5,1.7-10.1c1.7-2.1,5.1-4.7,11.8-4.7c1.2,0,2.5,0.1,3.8,0.3c7.2,0.9,13.7,4.5,17.8,10
	c3.3,4.3,4.8,9.4,4.1,14l-0.2,1.3l-0.8-1.1c0-0.1-5.8-8.4-13.1-8.4c-0.7,0-1.4,0.1-2,0.2c-0.2,0-4.2,0.9-3.4,5.7
	c0,0.1,0.6,3.2,4.6,3.2c0.3,0,0.5,0,0.8-0.1c0.1,0,0.3,0,0.4,0c4.1,0,11.9,5.4,12.1,18.3l0,0.2c-0.1,14.4-8.6,30.2-11.2,34.7
	c3.8-1.3,7.8-1.6,10.6-1.6c1.4,0,2.4,0.1,2.9,0.1c13-19.7,11.9-39.2,11.9-39.5C596.4,201.6,584,188.8,576.7,183.1"/>
<path class="st0" d="M308.7,338.1c-3.3,0-3.4,4.1-3.4,6.5c0,2.3,0.1,6.5,3.4,6.5c3.3,0,3.4-4.1,3.4-6.5
	C312.1,342.3,311.9,338.1,308.7,338.1"/>
<path class="st0" d="M580,151.3c-0.8-0.7-21.2-17.8-63.5-35c-38.9-15.8-104.6-34.7-196.3-34.7c-91.8,0-157.4,18.9-196.4,34.7
	c-42.4,17.2-62.7,34.3-63.5,35l-1.1,0.9v26.3l5.1-4c7.3-5.8,16-8.8,25.2-8.8c12.5,0,24,5.6,31.8,15.3c6.7,8.5,9.7,19.1,8.5,29.8
	c-1.2,10.8-6.6,20.4-15.1,27.1l-2.7,2.1l2.4,2.5c0.1,0.1,8.2,8.6,14.2,23.3l1.2,2.8l2.9-1.1c0,0,3.3-1.2,7.7-1.2
	c7.6,0,14,3.2,19,9.6c4.8,6.2,5.3,14.4,1.3,24.4c-3.5,8.8-9.9,17.1-14.6,22c-9.8,10-21.8,19.1-21.9,19.2l-1.2,0.9v30.2l2.3,0.6
	c0.9,0.2,94,24.1,195,24.1c101,0,194.1-23.9,195-24.1l2.3-0.6v-30.2l-1.3-0.9c-0.1-0.1-12.2-9.3-21.9-19.2
	c-4.8-4.9-11.1-13.2-14.6-22c-4-10-3.5-18.2,1.3-24.4c5-6.4,11.4-9.6,19-9.6c4.5,0,7.7,1.2,7.7,1.2l2.9,1.1l1.2-2.8
	c6-14.7,14.1-23.2,14.2-23.3l2.4-2.5l-2.7-2.1c-17.5-13.9-20.5-39.5-6.6-57c7.7-9.7,19.3-15.3,31.8-15.3c9.2,0,18,3,25.2,8.8l5.1,4
	v-26.3L580,151.3z M354.8,123.7c4.1-0.3,15.7-0.6,19.3-0.3c1.5,0.1,1.8,0.6,1.9,1.4c0,0.3,0,1.8,0,3.9c0.4,0.7,0.9,1.2,2,1.3
	c1.4,0.1,6.3,0.5,7.5,5c1.3,4.4,1,14.3,0.5,16.9c-0.5,2.4-2.3,6-7.2,6.1c-1.6,0-2.4,0.4-2.8,1.4c0,1.4,0,2.3,0,2.6
	c-0.1,2-1.2,3.2-3.6,3.8c-2.4,0.7-14.6,0.3-16.5-0.3c-1.9-0.6-3.1-1.3-3-3.5c0.1-2.2-0.3-34.2-0.3-37
	C352.7,124.3,353.3,123.9,354.8,123.7 M306.1,111.6c0,0,0.1-2.4,14.1-2.4h1c14,0,14.1,2.4,14.1,2.4s3.3,8.8,0,24.1
	c-3.3,15.4-3.6,16.2-3.6,28.5v2.5c0,0-0.6,5-10.5,5h-1c-9.9,0-10.5-5-10.5-5v-2.5c0-12.4-0.3-13.1-3.6-28.5
	C302.8,120.3,306.1,111.6,306.1,111.6 M255.7,135.1c1.3-4.5,6.1-4.9,7.5-5c1.1,0,1.6-0.6,2-1.3c0-2.2,0-3.6,0-3.9
	c0.1-0.8,0.4-1.3,1.9-1.4c3.7-0.3,15.2-0.1,19.3,0.3c1.5,0.1,2.1,0.6,2.1,1.4c0,2.8-0.4,34.8-0.3,37c0.1,2.2-1,3-3,3.5
	c-1.9,0.6-14.1,1-16.5,0.3c-2.4-0.7-3.5-1.8-3.6-3.8c0-0.3,0-1.2,0-2.6c-0.4-1-1.3-1.4-2.8-1.4c-4.8-0.1-6.7-3.7-7.2-6.1
	C254.6,149.4,254.4,139.6,255.7,135.1 M179.9,185.7h281.6c0.9,0,1.7,0.8,1.7,1.7c0,0.9-0.8,1.7-1.7,1.7H179.9
	c-0.9,0-1.7-0.8-1.7-1.7C178.2,186.4,179,185.7,179.9,185.7 M440.3,242.7h-10.1l-8.4-12.6H415v12.6h-8.6v-39.3h18
	c5,0,8.9,1.4,11.5,4c2.2,2.2,3.4,5.3,3.4,9v0.1c0,6.3-3.4,10.3-8.4,12.2L440.3,242.7z M376.5,235.3c5.3,0,8.5-3.2,8.5-9.4v-22.5h8.6
	v22.2c0,11.9-6.7,17.7-17.2,17.7c-10.5,0-17-5.9-17-17.5v-22.4h8.6v22.2C368,232,371.2,235.3,376.5,235.3 M348.9,231.8v0.1
	c0,7.2-5.8,10.8-14.7,10.8h-18.7v-39.3h18.2c4.5,0,8,1.2,10.3,3.5c1.8,1.8,2.7,4,2.7,6.7v0.1c0,4.4-2.4,6.9-5.2,8.5
	C346.1,223.9,348.9,226.5,348.9,231.8 M287.6,226.8c-7.9-2-13-4.2-13-12v-0.1c0-7.1,5.7-11.8,13.8-11.8c5.7,0,10.6,1.8,14.6,5
	l-4.5,6.5c-3.5-2.4-6.9-3.9-10.2-3.9c-3.3,0-5,1.5-5,3.4v0.1c0,2.6,1.7,3.4,8.5,5.2c8,2.1,12.5,5,12.5,11.8v0.1
	c0,7.8-5.9,12.2-14.4,12.2c-5.9,0-11.9-2.1-16.7-6.3l5.1-6.1c3.5,2.9,7.2,4.8,11.7,4.8c3.5,0,5.7-1.4,5.7-3.7v-0.1
	C295.5,229.6,294.2,228.5,287.6,226.8 M264.6,222.9v0.1c0,11.1-8.5,19.6-20.9,19.6h-15.3v-39.3h15.3
	C256.1,203.4,264.6,211.9,264.6,222.9 M214.7,242.7H206v-39.3h8.6V242.7z M157.8,242.7v-39.3h15.3c12.4,0,20.9,8.5,20.9,19.5v0.1
	c0,11.1-8.5,19.6-20.9,19.6L157.8,242.7L157.8,242.7z M213.3,314.2c-0.9,0.2-1.7,0.2-2.5,0.2c-1.7,0-5.7-0.7-5.7-4.4
	c0-2.5,1.5-3.4,2.6-3.7c0.1,0,0.2,0,0.3-0.1c0.1,0,0.2,0,0.3-0.1c0.1,0,0.1,0,0.2,0h0.1c0.1,0,0.2,0,0.2,0l0,0
	c1.4-0.1,2.6,0.8,2.7,2.1c0.2,1.3-0.6,2-2.2,2.3c-0.3,0-0.7,0-0.9-0.3c0,0-0.1-0.2-0.5,0.1c-0.1,0.1,0.5,0.7,0.5,0.7
	c0.1,0.1,0.2,0.1,0.3,0.2v0c0,0,0,0,0,0c0.9,0.6,2.3,0.6,2.8,0.6h0.1c0,0,0,0,0,0c0.1,0,0.1,0,0.1,0c2.7-0.2,4.9-1.5,6.3-3.8
	c2.1-3.6,3.9-7.4,5.7-11.2c1.7-3.7,3.7-7.1,7-9.6c1.3-1,2.8-1.7,4.4-2.1v0c0,0,0.1,0,0.4-0.1c0,0,0.1,0,0.1,0c0.4-0.1,1-0.1,1.6-0.1
	c0,0,0.1,0,0.2,0c0,0,0,0,0,0c0.4,0,0.9,0.1,1.2,0.3c0,0-0.9,0.1-2,0.8c-3,2.2-4.9,5.1-6.6,8.4c-2.3,4.4-4.5,8.9-7.2,13.1
	C220.5,311,217.4,313.4,213.3,314.2 M239.3,308.7c-3.1,4.2-9.2,5.8-13.3,3.6c-0.8-0.4-1.6-1-2.1-1.8c-1.1-1.6-0.2-3,1.8-3.2
	c-0.4,1.4,0.3,2.2,1.4,2.9c2.4,1.3,5.5,0.8,7.4-1.2c2-2,2.9-4.5,3-7.3c0.1-3.2-2.1-4.9-4.6-6.2c-1.3-0.6-2-1.4-0.9-2.9
	c2.5,1.2,4.6,0.2,6.4-1.4c1.9-1.6,2.6-3.8,1.9-6.1c-0.9-3.1-3.6-4.3-6.4-4.8c-6.9-1.2-12.9,0.7-17.6,6c-2.2,2.5-3.2,5.5-2.3,8.9
	c0.3,1.3,0.9,1.9,1.9,2.2c0.2,0,0.2-0.3,0.2-0.3s-1.3-1.3,0-2.7c0.9-1,2.2-0.7,2.9-0.4c0,0,0,0,0.1,0c0,0,0,0,0,0
	c0.2,0.1,0.3,0.2,0.3,0.2l0,0c0.9,0.6,1.2,1.4,1.1,2.5c-0.2,1.5-1.4,2.9-2.9,3.2c-1.8,0.4-3.9-0.3-4.9-1.9c-2-3.1-1.8-6.5-0.4-9.7
	c2.6-6,7.6-9.1,13.7-10.3c4.4-0.9,8.9-0.9,13.2,0.9c3.8,1.6,5.9,4.5,5.7,8c-0.2,3.4-2.3,5.6-5.2,7c-0.8,0.4-1.7,0.7-2.8,1.1
	c3.6,1.5,5.6,4,5,7.6C241.6,304.9,240.6,307,239.3,308.7 M270.1,307.3c-1.1,0.6-2.5,1.6-4.1,2.2c-1.8,0.6-3.7,1-5.5,1.1
	c-2.4,0.1-3.6-1-4.2-3.1c-5.1,3.4-9.7,3.2-9.7,3.2c-3.4,0-5.2-2-4.4-5.2c1.6-6.2,5.3-10.7,11.5-12.8c1.4-0.5,3-0.7,4,0.8
	c1,1.4,0.6,2.9-0.4,4.2c-2.1,2.9-5.2,4.2-8.7,4.5c-1.7,0.1-2.3,0.9-2.3,3.1c0,1.5,0.8,2.5,2.2,2.7c2.7,0.3,7.3-2.4,8.5-4.9
	c2.3-4.9,5.5-8.9,10.9-10.5c1.4-0.4,2.9-0.6,3.9,0.8c1,1.3,0.7,2.8-0.2,4.1c-2.1,3.1-5.2,4.4-8.7,4.7c-1.7,0.2-2.5,1-2.4,3.2
	c0,1.6,0.9,2.7,2.5,2.5c1.4-0.1,2.8-0.4,4-1.1c4.1-2.4,7.4-5.7,9.5-10c0.1-0.2,0.1-0.3,0.2-0.4c0,0,0,0,0,0c1.1-3.1-1.8-4-1.8-4
	v-0.6c3.9-1,5.2,1,5.5,1.5c0,0,0,0.1,0,0.1l0,0c0.3,0.5,0.4,1.3,0.5,1.7c0.1,0,0.1-0.1,0.2-0.1c3.8-3.5,8.1-3.4,8.2-0.7
	c0,1.7-0.5,2.6-0.9,3.1c0,0.1-0.1,0.1-0.1,0.2c-0.1,0.1-0.2,0.2-0.3,0.2c0,0,0,0,0,0c-0.1,0-0.1,0.1-0.1,0.1v0
	c-0.7,0.4-1.5,0.4-2,0.1c-1.5-0.8-1.2-1.9-0.3-3.1c-4,0.7-12.1,12.8-10.2,15.1c-0.6,0.5-1.3,0.8-2,0.7l0,0
	C273.2,310.8,270.4,311.1,270.1,307.3 M291.8,355.8h-19.4c-0.1-2.2,0.5-4,1.6-5.5c1.9-2.6,5.1-4.3,7.9-6c1.2-0.7,3-1.6,3-3.2
	c0-2-1.2-2.7-2.7-2.7c-2.6,0-3.4,1.9-3.4,4.6h-6c-0.4-6.1,3.5-9.7,9.5-9.7c5.4,0,9.1,2.3,9.1,7c0,5.7-5.6,7.5-9.8,10.1v0h10.1
	L291.8,355.8L291.8,355.8L291.8,355.8z M308.6,356.1c-4.1,0-9.5-2.8-9.5-11.5c0-8.6,5.5-11.4,9.5-11.4c4.1,0,9.6,2.8,9.6,11.4
	C318.2,353.3,312.7,356.1,308.6,356.1 M320.9,295.4c1.4,0,2.3,0.9,2.6,2.2c0.3,1.6-0.3,2.9-1.6,3.8c-0.5,0.3-0.9,0.4-1.3,0.5l0,0
	h-0.2h0c-0.6,0-2.4-0.2-2.1-2.9c-0.9,0.1-2.3,0.6-3.7,2.8c-1.8,3.1-3.7,6.1-6.6,8.4c-2.5,2-5.3,3-8.4,2.9l0,0
	c-1.7,0-5.8-0.7-5.8-4.5c0-2.5,1.5-3.4,2.6-3.7c0.7-0.4,1.5-0.4,2.3,0.1c0.8,0.5,1.5,1.6,1.5,2.5c0,1.2-0.8,1.8-2,1.9
	c-0.9,0-0.9-0.4-1.4-0.3c-0.4,0.1-0.2,0.5-0.2,0.5c1.2,1.6,4.2,1.1,4.2,1.1l0,0c1.9-0.2,3.6-1.1,5-2.5c2.2-2.2,3.6-4.9,4.8-7.9
	c-1.1-0.3-2.2-0.4-3.2-0.8c-4.9-1.8-7.4-6.8-6-12.1c2.3-9.2,11.1-13.8,20.7-10.9c1,0.3,1.9,0.6,2.9,0.8c4.6,1.1,7.5,1.9,12-1.7
	c0.8,1.9,0,3.7-2,4.8c-2.7,1.6-5.6,1.4-8.5,0.7c-2.6-0.6-5.2-1.4-7.8-2c-6.3-1.3-12.4,1.8-14.5,7.4c-1.9,5,0.1,9.5,4.7,10.9
	c2.3,0.6,2.8,0.4,3.7-1.7c1.6-3.9,3.7-7.4,7.1-10.1c2-1.6,4.3-2.6,7.1-2.3c-4.6,3.1-7.1,7.7-9.2,12.6
	C318.8,295.6,319.8,295.3,320.9,295.4 M338.3,355.8h-6.7v-12.9h-5.2v-4.6c3.3,0.1,6.5-1.2,6.7-4.9h5.3L338.3,355.8L338.3,355.8z
	 M358,356.1c-4.8,0-9.9-1.6-9.9-7.1c0-3.8,2.9-4.6,4.5-4.9V344c-2.4-0.6-3.5-2.3-3.5-4.7c0-4.9,5.2-6.1,8.9-6.1
	c6.1,0,9.1,2.9,9.1,6.1c0,2.3-1.4,4.2-3.5,4.7v0.1c2.5,0.3,4.4,2.2,4.4,4.9C368,354.3,362.6,356.1,358,356.1 M437.6,278.6
	c-0.4,3.9-2.7,6.8-5.5,9.4c-2.6,2.4-5.6,4.2-9.1,5.1c-0.5,0.1-1.1,0.6-1.4,1.1c-1.8,3.2-3.6,6.4-5.2,9.7l0,0c0,0-0.1,0.2-0.3,0.5
	c0,0,0,0.1-0.1,0.1c0,0,0,0,0,0c-0.5,1.1-1.4,3.1-1,3.4c0.5,0.4,9-1.8,13.4-10.1c0.2,0.1,0.3,0.1,0.5,0.2v0l0.5,0.2
	c0,0-1.2,4.6-7.8,9.2c-0.2,0.2-0.5,0.3-0.7,0.5c0,0-0.1,0.1-0.1,0.1c-0.3,0.2-0.7,0.4-1,0.6c-1.7,0.9-3.7,1.4-5.6,1.6
	c-2.4,0.2-3.3-0.7-3.7-3c-7.3,3.9-9.4,4.1-10.9,0.8c-2.5,1.4-5,3.7-7.9,1.4c-2.3-1.8-1.2-4.4-0.7-6.8c-0.4-0.1-0.8-0.1-1.1-0.2
	l-0.9-0.2c-3.6,4.5-6.1,6.3-7.5,7c-1.1,0.5-2.2,0.8-3.3,1c-2.9,0.5-4.4-1-4.7-4.2c-0.9,0.7-1.7,1.5-2.6,2c-1.4,0.8-2.8,1.6-4.4,2.1
	c-2.8,0.8-3.9,0.3-5.2-2.1c-1.8,0.8-3.5,1.6-5.3,2.2c-1.5,0.5-3.1,0.4-4.4-0.8c-0.3-0.3-1.1-0.1-1.6,0.1c-3.2,1.2-6.4,1.9-9.7,1
	c-1.4-0.4-2.7-1.4-4.3-2.3c-2,1.2-4.7,2.4-7.7,2.3c-3.3,0-5.2-2-4.3-5.3c1.6-6.1,5.3-10.7,11.6-12.7c1.4-0.5,2.9-0.6,3.9,0.7
	c1.1,1.4,0.7,2.9-0.3,4.2c-2.1,3-5.1,4.3-8.6,4.6c-1.8,0.2-2.5,1-2.5,3.1c0,1.6,0.9,2.6,2.6,2.6c2.7,0,5-1.4,6.9-3.2
	c2.3-2.2,4.3-4.7,6.4-7.2c0.3-0.3,0.4-0.9,0.5-1.4c0,0,0-0.1,0-0.1v0c0,0,0-0.1,0-0.1c0.1-0.5,0.2-1,0.4-1.4
	c1.6-4.7,4.6-4.9,5.2-4.9c0.7,0,2.6,0.8,1.3,3.1c-1.3,2.3-4,4.1-4.1,4.1c-0.2,0.5-0.2,0.9,0,1.5c0.1,0.2,0.2,0.4,0.3,0.6
	c0.3,0.5,0.6,0.9,0.8,1.3v0c0,0,3.4,4.9-0.4,7.9c1.7-0.4,3-1.1,3.9-2.9c1.5-3.4,3.6-6.4,5.4-9.7c0.2-0.3,0.4-0.6,0.7-1.1h-3.7
	c0.4-1.9,1.7-2.5,3.3-2.3c0.4,0,0.7,0,1,0l0,0c0,0,0,0,0.1,0c0.7-0.1,1.2-0.5,1.6-1.1c0.3-0.4,0.7-0.9,0.9-1.6
	c0.2-0.4,0.3-0.8,0.4-1.1c0,0,0-0.1,0-0.1c0.4-1.5,0.2-1.8-0.3-2.3c1.3,0,2.4-0.2,3.4,0c1.2,0.2,1.6,1.2,1.1,2.3
	c-0.6,1.2-1.2,2.4-1.9,3.7c1.5,0,2.9,0,4.4,0c0,0.2,0,0.5,0,0.7c0.6,0,1.2,0,1.7,0c1.7,0.1,2.5,1.2,1.8,2.8
	c-0.7,1.6-1.6,3.1-2.5,4.6c-1,1.9-2.1,3.7-3.1,5.6c-0.2,0.5-0.4,1.3-0.2,1.5c0.4,0.3,1.1,0.5,1.6,0.4c0.7-0.1,1.5-0.4,2.1-0.9
	c3.7-2.8,6.8-6.2,8.8-10.4c0.9-1.9-0.5-3.1-0.5-3.1c0-0.2,1-1.8,3-1.8c0.6,0,1,0.2,1.2,0.4c0,0,0.1,0,0.1,0.1
	c1.7,1.3-0.7,7.5-3.9,11.2c-3.2,3.7-1.3,5.5-1.3,5.5c0.2,0.2,0.5,0.2,0.8,0.2c3.6,0,8.9-7.2,8.9-7.2h0c-1-1.2-1.5-2.5-1.5-3.8l0,0
	c0-0.1,0-0.1,0-0.2c0-0.3,0-0.6,0-0.8c0.3-3.5,1.8-5.1,3.5-4.9c1.9,0.3,2.2,1.8,2.2,4.4s-1.5,4.6-1.5,4.6c1.4,0.3,2.3,0.1,3.2-1.1
	c2.3-3.3,5-6.1,9.1-7c2.3-0.5,3.2-0.3,4.8,1.3c2.8-2,3.7-2.1,5.4-0.7c-3.4,3.4-5.2,7.9-7.6,12c0,0.1,0,0.1-0.1,0.2
	c-0.4,0.9-1.1,2.3-1.2,3c-0.1,1,4.4-1.5,4.4-1.5l0,0c2.4-1.4,4.4-3.4,5.9-5.8c1.5-2.3,2.8-4.7,4.2-7.1c-2.4-1.8-2.9-2.8-2.1-4.6
	c0.7-1.3,1.7-1.7,3.1-1.2c-1.8,2.1,0.1,3.3,0.1,3.3c3.3-4.2,6.1-8,9.2-11.5c1.4-1.6,3.2-3,5.1-4C436,274.1,437.9,275.5,437.6,278.6
	 M372.8,285.3c1.1-1.1,2.7-1.3,3.5-0.5c0.8,0.8,0.6,2.4-0.6,3.5c-1.1,1.1-2.7,1.3-3.5,0.5C371.4,288,371.6,286.4,372.8,285.3
	 M461.5,259.6H179.9c-0.9,0-1.7-0.8-1.7-1.7c0-0.9,0.8-1.7,1.7-1.7h281.6c0.9,0,1.7,0.8,1.7,1.7
	C463.2,258.9,462.4,259.6,461.5,259.6 M469.1,227v15.7h-8.6v-15.5l-15.1-23.8h10.1l9.4,15.8l9.5-15.8h9.8L469.1,227z"/>
<path class="st0" d="M358,342.3c1.6,0,3.4-0.5,3.4-2.3c0-2.1-1.7-2.5-3.3-2.5c-1.7,0-3.2,0.5-3.2,2.5
	C354.8,341.7,356.5,342.3,358,342.3"/>
<path class="st0" d="M358.1,346.1c-1.9,0-3.6,0.6-3.6,2.9c0,1.9,2,2.5,3.6,2.5c1.6,0,3.6-0.5,3.6-2.5
	C361.6,346.8,360,346.1,358.1,346.1"/>
<polygon class="st0" points="270.7,395.8 324.3,480 369.7,394.8 "/>
</svg>
