<?xml version="1.0" encoding="utf-8"?>
<!-- Generator: Adobe Illustrator 21.1.0, SVG Export Plug-In . SVG Version: 6.00 Build 0)  -->
<svg version="1.1" id="Layer_1" xmlns="http://www.w3.org/2000/svg" xmlns:xlink="http://www.w3.org/1999/xlink" x="0px" y="0px"
	 viewBox="0 0 205 171" style="enable-background:new 0 0 205 171;" xml:space="preserve">
<style type="text/css">
	.st0{fill:#FDB913;}
	.st1{fill:none;stroke:#0F885D;stroke-width:5;stroke-linecap:round;stroke-linejoin:round;stroke-miterlimit:10;}
	.st2{fill:#0F885D;}
	.st3{font-family:'Avenir-Black';}
	.st4{font-size:38.0225px;}
	.st5{fill:none;stroke:#0F885D;stroke-width:5;stroke-miterlimit:10;}
</style>
<path class="st0" d="M202.2,148.7c-8.9,0-16-7.1-16-15.9s7.2-15.9,16-15.9c0.1,0,0.2,0,0.3,0V99.8c-0.1,0-0.2,0-0.3,0
	c-8.9,0-16-7.1-16-15.9s7.2-15.9,16-15.9c0.1,0,0.2,0,0.3,0V50.9c-0.1,0-0.2,0-0.3,0c-8.9,0-16-7.1-16-15.9s7.2-15.9,16-15.9
	c0.1,0,0.2,0,0.3,0V2.5H2.5v166h200v-19.8C202.4,148.7,202.3,148.7,202.2,148.7z"/>
<path class="st1" d="M202.2,148.7c-8.9,0-16-7.1-16-15.9s7.2-15.9,16-15.9c0.1,0,0.2,0,0.3,0V99.8c-0.1,0-0.2,0-0.3,0
	c-8.9,0-16-7.1-16-15.9s7.2-15.9,16-15.9c0.1,0,0.2,0,0.3,0V50.9c-0.1,0-0.2,0-0.3,0c-8.9,0-16-7.1-16-15.9s7.2-15.9,16-15.9
	c0.1,0,0.2,0,0.3,0V2.5H2.5v166h200v-19.8C202.4,148.7,202.3,148.7,202.2,148.7z"/>
<line class="st1" x1="145.9" y1="2.5" x2="145.9" y2="164.2"/>
<line class="st1" x1="74.2" y1="2.5" x2="74.2" y2="164.2"/>
<line class="st1" x1="145.9" y1="85.5" x2="2.5" y2="85.5"/>
<text transform="matrix(0.9905 0 0 1 14.2935 60.2793)" class="st2 st3 st4">£5</text>
<text transform="matrix(0.9905 0 0 1 84.5112 60.2793)" class="st2 st3 st4">£5</text>
<text transform="matrix(0.9905 0 0 1 14.2935 139.0928)" class="st2 st3 st4">£3</text>
<text transform="matrix(0.9905 0 0 1 84.5112 139.0928)" class="st2 st3 st4">£3</text>
<line class="st5" x1="145.9" y1="2.5" x2="74.2" y2="85.5"/>
</svg>
